<svg xmlns="http://www.w3.org/2000/svg" viewBox="0 0 318.013 346.832" id="equality-of-rights">
  <defs>
    <clipPath id="clip-path">
      <path fill="#fff4f2" d="M227.01159,19.69381c62.27127,30.03289,116.42224,75.31265,78.3368,154.28037S85.0118,261.70918,22.74053,231.67629s19.01819-87.4931,57.10363-166.46082S164.74031-10.33908,227.01159,19.69381Z"></path>
    </clipPath>
  </defs>
  <g id="Layer_2">
    <g id="Layer_1-2">
      <path fill="#fff4f2" d="M227.01159,19.69381c62.27127,30.03289,116.42224,75.31265,78.3368,154.28037S85.0118,261.70918,22.74053,231.67629s19.01819-87.4931,57.10363-166.46082S164.74031-10.33908,227.01159,19.69381Z"></path>
      <g clip-path="url(#clip-path)">
        <path fill="#b86a4b" d="M50.52161,330.38325,61.80746,226.68119s-2.078-1.15066-8.72458-9.9882A123.92523,123.92523,0,0,1,41.8454,199.28205c-2.53993-4.82225-3.7776-7.99536-3.27516-11.69094a164.28941,164.28941,0,0,1,3.96361-16.22266c.88511-2.50065,2.60745-7.36633,6.90761-9.5174,1.73128-.866,4.15631-.9234,9.00633-1.0382,4.7674-.11284,4.77019.3106,8.69185.20731,7.18006-.18913,58.13212,11.53333,58.13212,11.53333s.41143,26.37354-6.42937,48.15672c0,0-1.51338,5.0663-5.141,8.02055L100.25024,346.11888Z"></path>
        <path fill="#b86a4b" d="M72.51611,178.25588a7.761,7.761,0,0,0,1.57886,7.15568c1.2423,1.37409,2.89906,1.97132,5.12652,2.76243,3.53316,1.25486,9.22533-1.43456,10.006-4.44181l-.763,2.54169c-1.11057,3.30047,1.76535,6.71516,6.42368,7.62537a11.96134,11.96134,0,0,0,1.70324.21022c4.04637.20812,7.7689-1.63949,8.74418-4.53669l-.04876.36861c-1.01442,3.01026,1.06373,6.22534,4.64184,7.17966a7.86113,7.86113,0,0,0,1.31389.2361c3.13478.29277,6.11223-1.31484,7.003-3.95726l7.02611-20.84639c1.01442-3.01026-1.06373-6.22534-4.64184-7.17966-3.57883-.96419-7.30153.7096-8.31689,3.72117l-.29.60782c1.11057-3.30047-.91212-8.97436-5.41864-10.61164-4.4645-1.622-9.33571,1.02453-10.44742,4.32646l-.25494-.52314c.8889-3.42581-2.45408-9.56456-7.30211-10.85069-4.74405-1.25854-9.75345,1.82276-10.64342,5.25013l-1.29418,4.10589c.8643-3.16029.94942-9.67186-6.90011-11.31109-5.34856-1.117-11.32354,1.3152-12.023,7.58634l-2.70011,15.58477a7.52392,7.52392,0,0,0,4.98891,8.53052,16.01336,16.01336,0,0,0,3.84225.57393c4.66648-.32963,7.45862-1.46925,8.21778-4.24345Z"></path>
        <path fill="#633322" d="M111.97432 198.10474q-.39551 0-.79736-.03711a8.6229 8.6229 0 0 1-1.43262-.25684 7.48739 7.48739 0 0 1-4.72217-3.56933 5.66317 5.66317 0 0 1-.41162-4.52735l7.02637-20.84668c1.13428-3.36523 5.25586-5.24121 9.17871-4.18261a7.48682 7.48682 0 0 1 4.7207 3.56738 5.66576 5.66576 0 0 1 .41163 4.5293l-7.02588 20.8457A7.16251 7.16251 0 0 1 111.97432 198.10474Zm6.59278-32.291a5.70864 5.70864 0 0 0-5.57764 3.50879l-7.02637 20.84668a4.252 4.252 0 0 0 .3169 3.39746 6.0631 6.0631 0 0 0 3.833 2.86524 7.136 7.136 0 0 0 1.19482.21386h.00146c2.85743.27735 5.49122-1.19433 6.26026-3.4746l7.02588-20.84473a4.25265 4.25265 0 0 0-.3169-3.39942 6.06083 6.06083 0 0 0-3.83252-2.86328A7.234 7.234 0 0 0 118.5671 165.81372ZM57.18624 161.54517a.758.758 0 0 1-.123-.01074.71358.71358 0 0 1-.581-.8252l.54785-3.15918a.71364.71364 0 0 1 1.40625.24414l-.54785 3.15918A.71418.71418 0 0 1 57.18624 161.54517ZM54.92305 175.27661a.6849.6849 0 0 1-.17041-.02148.70959.70959 0 0 1-.53955-.751 5.57354 5.57354 0 0 1 .03467-.6709.71372.71372 0 0 1 1.418.16407 4.17621 4.17621 0 0 0-.0249.54883.72084.72084 0 0 1-.71778.73046ZM63.91231 183.07349a21.355 21.355 0 0 1-2.59814-.25293l.11035-.707.18994-.6875.01416.0039a21.09243 21.09243 0 0 0 2.27783.21973 13.49314 13.49314 0 0 0 5.59912-1.32226 3.84467 3.84467 0 0 0 1.89551-2.39454l.645-2.37988a.71377.71377 0 0 1 1.37793.37305l-.646 2.38379a5.262 5.262 0 0 1-2.55712 3.25195A14.87611 14.87611 0 0 1 63.91231 183.07349Z"></path>
        <path fill="#633322" d="M81.22139 189.19849a6.647 6.647 0 0 1-2.23828-.3584c-2.25586-.793-4.0415-1.4209-5.42187-2.94726A8.0619 8.0619 0 0 1 71.57 181.29615a9.60241 9.60241 0 0 1 .24951-3.21192l.69238-2.68457a.71366.71366 0 1 1 1.38184.35742l-.69141 2.68067a8.1305 8.1305 0 0 0-.2124 2.71386 6.63586 6.63586 0 0 0 1.62842 3.78223c1.13867 1.25879 2.77343 1.834 4.84277 2.56152 1.71436.61329 4.30322.17481 6.44727-1.09179A5.30684 5.30684 0 0 0 88.53 183.55493l6.68652-20.88085a.71372.71372 0 0 1 1.35938.43554l-6.67432 20.83789a6.573 6.573 0 0 1-3.26807 3.68555A10.92644 10.92644 0 0 1 81.22139 189.19849ZM76.906 162.03443a.7154.7154 0 0 1-.6914-.89356l1.04834-4.0332a.7139.7139 0 0 1 1.38183.35937l-1.04834 4.03321A.71388.71388 0 0 1 76.906 162.03443Z"></path>
        <path fill="#633322" d="M97.20528 194.83911q-.323 0-.65039-.0166H96.5544a12.86225 12.86225 0 0 1-1.8042-.22265 9.37638 9.37638 0 0 1-6.46094-4.11621 5.27071 5.27071 0 0 1-.501-4.4375l7.69238-22.85645a7.84614 7.84614 0 0 1 4.15674-4.34277 9.36194 9.36194 0 0 1 7.21045-.42676c4.7998 1.74414 7.126 7.72266 5.85156 11.50976l-6.6875 19.87012C105.008 192.78247 101.36348 194.83911 97.20528 194.83911Zm-.57715-1.44238c3.80176.20215 7.17529-1.50879 8.03125-4.05176l6.6875-19.87011c.95362-2.835-.71972-8.16309-4.98633-9.71289a7.91755 7.91755 0 0 0-6.104.37109 6.514 6.514 0 0 0-3.42334 3.51172l-7.69238 22.85644a3.88322 3.88322 0 0 0 .38232 3.26563 8.08523 8.08523 0 0 0 5.50195 3.43262 11.49225 11.49225 0 0 0 1.60352.19726ZM104.52559 232.9729a15.60324 15.60324 0 0 1-6.41259-1.4248c-1.04737-.4707-2.103-1.00293-3.13819-1.58008a.71348.71348 0 1 1 .69531-1.24609c.99952.55761 2.01856 1.07031 3.02832 1.52539a13.23918 13.23918 0 0 0 13.99707-1.60547.71364.71364 0 1 1 .88086 1.12305A14.53848 14.53848 0 0 1 104.52559 232.9729ZM72.68917 230.17212a22.9915 22.9915 0 0 1-9.91553-2.09863 8.65962 8.65962 0 0 1-1.30322-.75586.71363.71363 0 0 1 .82031-1.168 7.42739 7.42739 0 0 0 1.103.63867 22.65887 22.65887 0 0 0 11.86035 1.83106 25.11507 25.11507 0 0 0 7.0039-1.71094.71377.71377 0 1 1 .53321 1.32422 26.516 26.516 0 0 1-7.3999 1.80664C74.48458 230.12818 73.58175 230.17212 72.68917 230.17212ZM57.37764 190.40259a.71411.71411 0 0 1-.51269-1.21094c.91113-.93945 3.84863-4.18652 3.86181-6.93261a.64368.64368 0 0 1-.01562-.15332A2.91847 2.91847 0 0 0 60.529 181.094c-.61328-1.65528-3.05273-3.60742-4.834-5.03321-.50245-.41113-.88819-.69433-1.19-.91308a.72115.72115 0 0 1-.1123-.10156c-.72363-.54981-1.22363-.96582-.92432-1.59278.38037-.71 1.1958-.40918 1.73633-.207.251.09473.54688.21582.8877.35449a28.42743 28.42743 0 0 0 9.11718 2.3711 19.75963 19.75963 0 0 0 7.30274-.91016 2.10537 2.10537 0 0 0 .32959-.10937l.1084-.041a16.86366 16.86366 0 0 0 3.10693-1.43359c2.0669-1.22266 4.54932-3.00489 5.3916-5.95411a3.96664 3.96664 0 0 0-.189-3.31543c-.6709-1.06445-2.17578-1.7998-4.47217-2.18359a.83854.83854 0 0 1-.21045-.02441 52.31609 52.31609 0 0 0-9.09521-.27735l-.32959.00879a36.34072 36.34072 0 0 1-3.96338-.09863 42.7908 42.7908 0 0 0-4.731-.1084l-.54.00879c-.25049.00586-.49316.01074-.72949.01172a.704.704 0 0 1-.71729-.71.71459.71459 0 0 1 .71045-.71778c.22949-.001.46436-.00585.70752-.01074l.54346-.00976a43.81351 43.81351 0 0 1 4.85889.11328 33.2141 33.2141 0 0 0 3.82373.09375l.32959-.00781a53.78456 53.78456 0 0 1 9.28466.2832 1.63329 1.63329 0 0 1 .35254.0498c2.69483.44825 4.47559 1.374 5.38526 2.81836a5.35626 5.35626 0 0 1 .353 4.47071c-.98 3.43164-3.74169 5.43066-6.03857 6.78906a18.1727 18.1727 0 0 1-3.3501 1.54687l-.07129.02832a3.25008 3.25008 0 0 1-.47265.1543 20.95078 20.95078 0 0 1-7.76514.959 27.10537 27.10537 0 0 1-7.61475-1.707c1.82911 1.49219 3.72461 3.19532 4.36084 4.91309a4.4113 4.4113 0 0 1 .26807 1.37109.673.673 0 0 1 .01514.125c.08838 3.23828-2.95117 6.73438-4.26172 8.08789A.71523.71523 0 0 1 57.37764 190.40259Z"></path>
        <path fill="#633322" d="M100.25118 346.83228a.77.77 0 0 1-.082-.00488.71354.71354 0 0 1-.62793-.79l13.45117-117.3877a.7136.7136 0 1 1 1.418.16211l-13.45117 117.3877A.71349.71349 0 0 1 100.25118 346.83228ZM92.21553 214.56763a.71519.71519 0 0 1-.68554-.91406c.04931-.16895 4.793-16.90821-5.728-26.09864a.71353.71353 0 1 1 .93945-1.07421c11.21338 9.79492 6.21045 27.39746 6.15821 27.57421A.71406.71406 0 0 1 92.21553 214.56763ZM121.27169 173.18091a.71373.71373 0 0 1-.67823-.49219 3.44877 3.44877 0 0 0-1.56982-1.81738 3.53085 3.53085 0 0 0-2.77539.0166.71347.71347 0 1 1-.47461-1.3457 4.50531 4.50531 0 0 1 6.17725 2.70605.71319.71319 0 0 1-.6792.93262ZM107.405 165.97583a.71394.71394 0 0 1-.67871-.49316 3.447 3.447 0 0 0-1.56983-1.81738 3.53723 3.53723 0 0 0-2.77441.01757.71363.71363 0 0 1-.47559-1.3457 4.50388 4.50388 0 0 1 6.17774 2.70606.71319.71319 0 0 1-.6792.93261ZM90.362 158.44458a.7137.7137 0 0 1-.67822-.49218 3.45418 3.45418 0 0 0-1.57032-1.81836 3.53438 3.53438 0 0 0-2.7749.01757.71363.71363 0 0 1-.47558-1.3457 4.5046 4.5046 0 0 1 6.17822 2.70606.71319.71319 0 0 1-.6792.93261ZM81.57149 184.96607a4.09374 4.09374 0 0 1-1.21631-.1836 4.86459 4.86459 0 0 1-2.67431-2.25293.71366.71366 0 0 1 1.27-.65136 3.448 3.448 0 0 0 1.83935 1.54492 3.53484 3.53484 0 0 0 2.73682-.459.71407.71407 0 0 1 .68359 1.25391A5.5285 5.5285 0 0 1 81.57149 184.96607ZM97.60665 190.19361a4.09287 4.09287 0 0 1-1.21582-.1836 4.8666 4.8666 0 0 1-2.67481-2.25293.71366.71366 0 0 1 1.27-.65136 3.44979 3.44979 0 0 0 1.83985 1.54492 3.53071 3.53071 0 0 0 2.73681-.459.71407.71407 0 0 1 .6836 1.25391A5.52885 5.52885 0 0 1 97.60665 190.19361ZM113.01778 193.58033a4.09369 4.09369 0 0 1-1.21631-.1836 4.86459 4.86459 0 0 1-2.67431-2.25293.71366.71366 0 0 1 1.27-.65137 3.448 3.448 0 0 0 1.83936 1.54493 3.51874 3.51874 0 0 0 2.73682-.459.71407.71407 0 0 1 .68359 1.25391A5.5285 5.5285 0 0 1 113.01778 193.58033ZM70.61934 156.1272a.7143.7143 0 0 1-.62549-.36914 3.45044 3.45044 0 0 0-1.88232-1.49316 3.50336 3.50336 0 0 0-2.72266.53515.71394.71394 0 0 1-.71777-1.23437 4.507 4.507 0 0 1 6.57422 1.50586.71339.71339 0 0 1-.626 1.05566ZM79.27892 161.94957l-.80189 3.176s-13.25272 1.29831-11.34306-4.10787a33.94313 33.94313 0 0 1 12.14495.93192Z"></path>
        <path fill="#eca085" d="M155.35713,247.58976,158.364,119.96482s-2.16287-.98184-9.49093-9.26308a123.92476,123.92476,0,0,1-12.58592-16.46258c-2.9152-4.60509-4.4012-7.66978-4.1941-11.39361a164.29191,164.29191,0,0,1,2.66152-16.48639c.68355-2.56309,2.01366-7.55029,6.12923-10.03637,1.657-1.00092,4.06976-1.25085,8.8953-1.75082,4.74334-.49145,4.77978-.06956,8.68083-.48426,7.1423-.75927,58.865,6.87592,58.865,6.87592s2.50655,26.25738-2.58106,48.51541c0,0-1.10587,5.17057-4.48721,8.40383l-4.0774,141.4398Z"></path>
        <path fill="#eca085" d="M165.18946,70.84152a7.761,7.761,0,0,0,2.14267,7.00753c1.3476,1.271,3.04659,1.73463,5.32988,2.34618,3.62174.97,9.08211-2.16333,9.6213-5.22312l-.5585,2.59428c-.84471,3.37831,2.29355,6.55359,7.00949,7.09063a11.96187,11.96187,0,0,0,1.71456.07416c4.05011-.11418,7.614-2.25185,8.35589-5.2174l-.01931.37132c-.77192,3.08136,1.55522,6.12108,5.19787,6.788a7.86117,7.86117,0,0,0,1.3285.13091c3.14813.04266,5.98837-1.79654,6.66628-4.50141l5.34681-21.33893c.77192-3.08136-1.55522-6.12108-5.19786-6.788-3.64416-.67666-7.222,1.28776-7.99479,4.3705l-.24078.629c.84471-3.37831-1.6226-8.87346-6.245-10.14734-4.57931-1.262-9.22473,1.76339-10.07046,5.14324l-.29572-.50123c.61377-3.48562-3.2066-9.33922-8.14153-10.23591-4.82907-.87746-9.57769,2.59229-10.1924,6.07956l-.96371,4.19578c.61035-3.219.1776-9.71673-7.77739-10.72682-5.42043-.68826-11.18317,2.21115-11.38188,8.518l-1.45274,15.75008a7.52392,7.52392,0,0,0,5.65122,8.10695,16.01267,16.01267,0,0,0,3.87571.2667c4.62551-.69952,7.31823-2.05748,7.85446-4.88325Z"></path>
        <path fill="#b86a4b" d="M205.41964 87.5188c-.03956 0-.07813-.001-.11768-.001a8.54514 8.54514 0 0 1-1.44922-.14356 7.48475 7.48475 0 0 1-4.98926-3.18066 5.66849 5.66849 0 0 1-.7705-4.48243l5.34668-21.33886a.71387.71387 0 0 1 1.38476.34765l-5.34668 21.33887a4.254 4.254 0 0 0 .58594 3.36231 6.06 6.06 0 0 0 4.04785 2.5498 7.05579 7.05579 0 0 0 1.21.11914c.03272.001.06592.001.09912.001 2.8291 0 5.28662-1.6543 5.86524-3.96192l5.34668-21.33886a.71387.71387 0 0 1 1.38476.34765l-5.34668 21.33887C211.93428 85.41236 208.89522 87.51783 205.41964 87.5188ZM148.52315 55.40454c-.022 0-.04443-.001-.0664-.00293a.71329.71329 0 0 1-.645-.77636l.29492-3.19239a.71346.71346 0 1 1 1.4209.13086l-.29493 3.19239A.714.714 0 0 1 148.52315 55.40454ZM147.35958 69.27173A.66867.66867 0 0 1 147.236 69.26a.70836.70836 0 0 1-.58984-.70508 5.59849 5.59849 0 0 1-.019-.66992.68592.68592 0 0 1 .73925-.6875.71292.71292 0 0 1 .6875.73828 4.14233 4.14233 0 0 0 .019.54883.72057.72057 0 0 1-.71338.78711ZM155.88448 76.346c-.521 0-1.00684-.0166-1.49951-.06445a.7512.7512 0 0 1-.59912-.85059.67324.67324 0 0 1 .79834-.56152l.01416.00293a21.35915 21.35915 0 0 0 2.27929.03613 13.47245 13.47245 0 0 0 5.47559-1.76367 3.84168 3.84168 0 0 0 1.69922-2.53613l.45361-2.42383a.71376.71376 0 0 1 1.40332.26172l-.45459 2.42871a5.26312 5.26312 0 0 1-2.29053 3.44433 14.87358 14.87358 0 0 1-6.168 2.00879C156.60128 76.33814 156.23507 76.346 155.88448 76.346Z"></path>
        <path fill="#b86a4b" d="M174.111 81.08325a6.25011 6.25011 0 0 1-1.6333-.20507c-2.312-.61133-4.1416-1.09473-5.63916-2.50586a8.06606 8.06606 0 0 1-2.35058-4.42481 9.60441 9.60441 0 0 1-.00684-3.22168l.47705-2.73144a.71381.71381 0 1 1 1.40625.24609L165.8879 70.968a8.14691 8.14691 0 0 0 .0039 2.72363 6.64483 6.64483 0 0 0 1.92432 3.64063c1.23486 1.16406 2.91016 1.60644 5.03125 2.167 1.75586.48145 4.30371-.166 6.33936-1.59961a5.30757 5.30757 0 0 0 2.3872-3.04883l5.00586-21.3457a.71371.71371 0 0 1 1.38965.32617l-4.99707 21.30176a6.57211 6.57211 0 0 1-2.96484 3.93359A10.62955 10.62955 0 0 1 174.111 81.08325ZM168.21993 54.32544a.77581.77581 0 0 1-.125-.01074.71374.71374 0 0 1-.57861-.82715l.72412-4.10449a.7135.7135 0 1 1 1.40527.248l-.72412 4.10449A.714.714 0 0 1 168.21993 54.32544Z"></path>
        <path fill="#b86a4b" d="M190.10176 85.44947a12.62455 12.62455 0 0 1-1.44921-.083 9.37393 9.37393 0 0 1-6.76807-3.58985 5.26823 5.26823 0 0 1-.852-4.38281l5.85107-23.39551a.71364.71364 0 1 1 1.38477.34571l-5.85108 23.3955a3.88074 3.88074 0 0 0 .64014 3.22364 8.081 8.081 0 0 0 5.75733 2.98535 11.75006 11.75006 0 0 0 1.61328.06934c3.80175-.10645 7.0332-2.07325 7.68457-4.67676l5.08642-20.33887a.71363.71363 0 1 1 1.38477.3457l-5.08643 20.33887c-.80371 3.21191-4.60058 5.63379-9.02832 5.75684Q190.28585 85.44946 190.10176 85.44947ZM200.23262 122.86646a15.70393 15.70393 0 0 1-5.2915-.93653c-1.07568-.38378-2.17041-.83007-3.25293-1.32421a.71385.71385 0 0 1 .59277-1.29883c1.04639.47851 2.10254.9082 3.14063 1.27929a13.20532 13.20532 0 0 0 14.11035-2.98242.71408.71408 0 0 1 .99609 1.02344A14.64029 14.64029 0 0 1 200.23262 122.86646ZM167.37374 122.66431a22.036 22.036 0 0 1-7.93555-1.3877 8.76569 8.76569 0 0 1-1.63232-.81738.7136.7136 0 1 1 .76464-1.20508 7.42586 7.42586 0 0 0 1.38428.69239 22.6439 22.6439 0 0 0 11.96778.88183 25.08881 25.08881 0 0 0 6.8457-2.26269.71362.71362 0 1 1 .63672 1.27734 26.526 26.526 0 0 1-7.23291 2.39063A27.36678 27.36678 0 0 1 167.37374 122.66431ZM151.007 84.15552a.71332.71332 0 0 1-.54981-1.168c.8335-1.00976 3.5044-4.48047 3.29785-7.21972a.67578.67578 0 0 1-.02734-.1504 2.91432 2.91432 0 0 0-.26221-.99414c-.74218-1.60156-3.32763-3.35254-5.21582-4.63086l-.08447-.05761c-.45215-.31543-.85889-.56641-1.17676-.76074a.75969.75969 0 0 1-.11914-.09083c-.76562-.49023-1.29687-.86523-1.0498-1.51367.32519-.73925 1.16113-.50293 1.71533-.3457.2583.07422.56445.17187.9165.28418a27.79125 27.79125 0 0 0 9.27344 1.63672 19.78381 19.78381 0 0 0 7.207-1.48731 2.13412 2.13412 0 0 0 .31494-.13281l.11084-.05273a16.88566 16.88566 0 0 0 2.98243-1.67481c1.9624-1.38281 4.29589-3.3584 4.90087-6.36328a3.9629 3.9629 0 0 0-.45166-3.29c-.75341-1.00879-2.312-1.62109-4.63183-1.82129-.0083-.001-.09082-.01367-.09912-.01465a.17753.17753 0 0 1-.1128.00684 52.47464 52.47464 0 0 0-9.09082.44531l-.32519.03516a34.6762 34.6762 0 0 1-3.96338.21777 43.16105 43.16105 0 0 0-4.7207.2666l-.55762.05469c-.2417.02442-.47559.04785-.70459.06738a.71355.71355 0 1 1-.12207-1.42187l1.24609-.12109a44.27714 44.27714 0 0 1 4.84766-.27247 33.461 33.461 0 0 0 3.82422-.21093l.32519-.03418a54.25456 54.25456 0 0 1 9.27832-.45508 1.25176 1.25176 0 0 1 .36329.02344c2.71582.23144 4.56494 1.01269 5.58642 2.37988a5.35338 5.35338 0 0 1 .70752 4.42773c-.7041 3.49707-3.29883 5.71094-5.48 7.24805a18.20092 18.20092 0 0 1-3.21631 1.80762l-.07422.03613a3.17922 3.17922 0 0 1-.45215.18945 21.10383 21.10383 0 0 1-7.6665 1.57422 27.09829 27.09829 0 0 1-7.72754-1.09765c1.94287 1.34277 3.96826 2.88964 4.73877 4.55175a4.4024 4.4024 0 0 1 .37695 1.34668.66791.66791 0 0 1 .02442.12207c.3457 3.22168-2.40625 6.94825-3.60547 8.40039A.71289.71289 0 0 1 151.007 84.15552Z"></path>
        <path fill="#b86a4b" d="M187.65645 105.47486a.68584.68584 0 0 1-.14648-.01563.7135.7135 0 0 1-.55322-.84375c.03564-.17187 3.43408-17.23535-7.78418-25.55957a.71378.71378 0 0 1 .85058-1.14648c11.957 8.873 8.36865 26.81738 8.33106 26.99707A.71411.71411 0 0 1 187.65645 105.47486ZM213.33126 61.90943a.714.714 0 0 1-.65918-.43848 3.44641 3.44641 0 0 0-1.70948-1.68848 3.54771 3.54771 0 0 0-2.76464.23926.71412.71412 0 0 1-.58106-1.30469 4.50523 4.50523 0 0 1 6.37354 2.20606.71351.71351 0 0 1-.65918.98633ZM198.93575 55.82935a.714.714 0 0 1-.65918-.43848 3.45085 3.45085 0 0 0-1.71-1.68847 3.5335 3.5335 0 0 0-2.76416.23828.71412.71412 0 0 1-.58106-1.30469 4.50643 4.50643 0 0 1 6.37354 2.207.71351.71351 0 0 1-.65918.98633ZM181.34786 49.676a.714.714 0 0 1-.65918-.43848 3.44759 3.44759 0 0 0-1.70947-1.6875 3.53422 3.53422 0 0 0-2.76465.23828.71411.71411 0 0 1-.58106-1.30468A4.50665 4.50665 0 0 1 182.007 48.6897a.71351.71351 0 0 1-.65918.98633ZM174.41622 76.82349a4.05169 4.05169 0 0 1-.89356-.09863 4.8711 4.8711 0 0 1-2.84521-2.03321.71364.71364 0 0 1 1.21435-.75 3.44842 3.44842 0 0 0 1.95606 1.39356 3.53044 3.53044 0 0 0 2.69189-.67578.714.714 0 0 1 .78125 1.19531A5.322 5.322 0 0 1 174.41622 76.82349ZM190.8171 80.76a4.05978 4.05978 0 0 1-.89405-.09961 4.87106 4.87106 0 0 1-2.84521-2.0332.71364.71364 0 0 1 1.21435-.75 3.45047 3.45047 0 0 0 1.95655 1.39355 3.52934 3.52934 0 0 0 2.69189-.6748.71372.71372 0 1 1 .78028 1.19531A5.31661 5.31661 0 0 1 190.8171 80.76ZM206.44844 82.91138a4.05634 4.05634 0 0 1-.894-.09961 4.87106 4.87106 0 0 1-2.84521-2.0332.71364.71364 0 0 1 1.21435-.75 3.45043 3.45043 0 0 0 1.95654 1.39355 3.51191 3.51191 0 0 0 2.69141-.6748.71372.71372 0 1 1 .78027 1.19531A5.31633 5.31633 0 0 1 206.44844 82.91138ZM161.48262 48.93579a.713.713 0 0 1-.59619-.32129 3.45628 3.45628 0 0 0-1.99463-1.33886 3.53655 3.53655 0 0 0-2.67187.75.71328.71328 0 1 1-.81348-1.17188 4.50387 4.50387 0 0 1 6.67285.97754.7135.7135 0 0 1-.59668 1.10449ZM170.63469 54.04923l-.5469 3.22964s-13.10758 2.34766-11.6337-3.19321a33.94341 33.94341 0 0 1 12.1806-.03643Z"></path>
        <path fill="#fed4c0" d="M191.41712,284.73558l16.97815-102.92342s-2.01148-1.26332-8.16144-10.45339A123.92411,123.92411,0,0,1,189.972,153.35555c-2.27058-4.95477-3.33168-8.19121-2.62653-11.85353a164.29112,164.29112,0,0,1,4.85074-15.97983c1.02145-2.44813,3.00907-7.21161,7.42113-9.12266,1.77633-.76942,4.20085-.69317,9.04983-.54077,4.76638.1498,4.74585.57275,8.66725.68553,7.17958.20646,57.409,14.71635,57.409,14.71635s-1.04123,26.35619-9.07094,47.72971c0,0-1.79,4.9753-5.57481,7.72534L240.204,303.1852Z"></path>
        <path fill="#fed4c0" d="M221.75377,134.04987a7.761,7.761,0,0,0,1.18251,7.23175c1.16477,1.44041,2.78613,2.12794,4.96665,3.04049,3.45872,1.44748,9.29032-.92447,10.23542-3.88417l-.90174,2.49582c-1.2906,3.23432,1.393,6.80217,5.99412,7.96746a11.95976,11.95976,0,0,0,1.68908.30368c4.02877.43058,7.84738-1.20928,8.98069-4.04838l-.069.36536c-1.1786,2.94984.71938,6.27446,4.23952,7.42433a7.86126,7.86126,0,0,0,1.2989.30808c3.11391.46491,6.17535-.97633,7.21026-3.56571l8.16318-20.42794c1.1786-2.94984-.71938-6.27445-4.23952-7.42433-3.52033-1.15976-7.32953.30654-8.50916,3.25763l-.323.59094c1.2906-3.23433-.41664-9.011-4.82618-10.89388-4.36843-1.86535-9.378.509-10.66977,3.74471l-.22576-.53638c1.07617-3.37168-1.92377-9.68517-6.69364-11.23626-4.66756-1.51782-9.839,1.283-10.91632,4.65618l-1.51828,4.02842c1.037-3.10792,1.48048-9.60492-6.2669-11.67384-5.279-1.40972-11.37878.68979-12.42239,6.91291l-3.554,15.41247a7.5239,7.5239,0,0,0,4.51169,8.79225,16.01353,16.01353,0,0,0,3.80482.7846c4.67754-.07221,7.5282-1.05638,8.43894-3.78457Z"></path>
        <path fill="#eca085" d="M260.52608 156.054a8.58227 8.58227 0 0 1-2.67822-.42969 7.48667 7.48667 0 0 1-4.51709-3.82227 5.66491 5.66491 0 0 1-.16162-4.54492l8.16308-20.42773a.7135.7135 0 1 1 1.3252.5293l-8.16309 20.42773a4.25513 4.25513 0 0 0 .12891 3.41113 6.05829 6.05829 0 0 0 3.66943 3.07032 7.13783 7.13783 0 0 0 1.18213.28027c2.84229.42969 5.54932-.89063 6.44287-3.124l8.16309-20.42774a.71349.71349 0 1 1 1.32519.5293l-8.16308 20.42773A7.08224 7.08224 0 0 1 260.52608 156.054ZM207.406 116.52173a.70407.70407 0 0 1-.16113-.01855.71337.71337 0 0 1-.53467-.85547l.72071-3.124a.71352.71352 0 1 1 1.39062.32032l-.7207 3.124A.71405.71405 0 0 1 207.406 116.52173ZM204.38985 130.10669a.71127.71127 0 0 1-.7041-.8125 5.38113 5.38113 0 0 1 .07129-.666.71348.71348 0 0 1 1.40625.24218 4.2683 4.2683 0 0 0-.05469.54688.69569.69569 0 0 1-.03369.18848A.7233.7233 0 0 1 204.38985 130.10669ZM212.89815 138.387a21.04764 21.04764 0 0 1-2.581-.39747l.34619-1.38476.01367.00391a20.32185 20.32185 0 0 0 2.29443.35546 13.50668 13.50668 0 0 0 5.66309-1.01171 3.84812 3.84812 0 0 0 2.02393-2.28614l.77539-2.34179a.71352.71352 0 1 1 1.35449.44921l-.77637 2.34473a5.267 5.267 0 0 1-2.73144 3.10645A14.90348 14.90348 0 0 1 212.89815 138.387Z"></path>
        <path fill="#eca085" d="M230.31856 145.468a6.94246 6.94246 0 0 1-2.68994-.49414c-2.2085-.915-3.95654-1.63965-5.252-3.24023a8.06126 8.06126 0 0 1-1.73487-4.70118 9.4655 9.4655 0 0 1 .42578-3.1914l.83936-2.64356a.71359.71359 0 0 1 1.36035.43164l-.83838 2.63965a8.13964 8.13964 0 0 0-.36133 2.69824 6.63853 6.63853 0 0 0 1.41749 3.86719c1.06835 1.32031 2.66845 1.9834 4.69482 2.82324 1.67627.707 4.28711.41211 6.49707-.73535a5.30606 5.30606 0 0 0 2.7749-2.70019l7.82617-20.48047a.71358.71358 0 1 1 1.333.50976l-7.81152 20.43848a6.57354 6.57354 0 0 1-3.46582 3.5A11.11552 11.11552 0 0 1 230.31856 145.468ZM227.06905 118.096a.703.703 0 0 1-.21729-.03418.71309.71309 0 0 1-.4624-.89648l1.26856-3.96973a.71342.71342 0 1 1 1.35937.43359l-1.26855 3.96973A.71354.71354 0 0 1 227.06905 118.096Z"></path>
        <path fill="#eca085" d="M246.18087 151.98658a12.64742 12.64742 0 0 1-3.12647-.39356 9.3778 9.3778 0 0 1-6.2251-4.4668 5.26739 5.26739 0 0 1-.25537-4.457l8.939-22.39844a.71349.71349 0 1 1 1.32519.5293l-8.939 22.39844a3.88148 3.88148 0 0 0 .20166 3.28027 8.08628 8.08628 0 0 0 5.30517 3.73145 11.42823 11.42823 0 0 0 1.59034.28515c3.77783.41016 7.24658-1.1123 8.2417-3.60351l7.771-19.47168a.7135.7135 0 1 1 1.3252.5293l-7.771 19.47168C253.46163 150.18091 250.05391 151.98658 246.18087 151.98658ZM251.48507 190.46509a15.42022 15.42022 0 0 1-7.10791-1.79394c-1.01172-.52442-2.03614-1.11329-3.04541-1.75a.71364.71364 0 0 1 .76171-1.207c.9751.61524 1.96436 1.1836 2.94 1.68946a13.24722 13.24722 0 0 0 13.9165-.72949.71372.71372 0 0 1 .80371 1.17968A14.59405 14.59405 0 0 1 251.48507 190.46509ZM220.58467 185.93872a23.60982 23.60982 0 0 1-11.30126-2.68261 8.78919 8.78919 0 0 1-1.3379-.88965.71362.71362 0 1 1 .89551-1.11133 7.20913 7.20913 0 0 0 1.13184.751 22.641 22.641 0 0 0 11.74219 2.48144 25.02843 25.02843 0 0 0 7.08642-1.32324.714.714 0 0 1 .46094 1.35156 26.45576 26.45576 0 0 1-7.48877 1.39746Q221.17745 185.9397 220.58467 185.93872ZM206.0085 145.34595a.7141.7141 0 0 1-.48437-1.23828c.96142-.88867 4.07324-3.9707 4.23779-6.71094a.68825.68825 0 0 1-.00684-.15234 2.913 2.913 0 0 0-.12646-1.02051c-.521-1.6875-2.84912-3.77051-4.54834-5.291l-.07471-.0664c-.40576-.373-.7749-.67676-1.064-.91211a.69853.69853 0 0 1-.10742-.10742c-.6919-.58692-1.167-1.0293-.83643-1.63868.4209-.69042 1.21777-.34375 1.74707-.11328.24561.1084.53565.2461.86914.40332a28.41251 28.41251 0 0 0 8.97022 2.86817 19.84754 19.84754 0 0 0 7.34228-.50684 2.19131 2.19131 0 0 0 .34522-.09375l.0957-.03125a16.813 16.813 0 0 0 3.18555-1.26074c2.13086-1.10742 4.708-2.751 5.71093-5.64746a3.96438 3.96438 0 0 0-.00634-3.32129c-.61084-1.10059-2.07276-1.917-4.34473-2.42676a.705.705 0 0 1-.209-.03515 52.37145 52.37145 0 0 0-9.06983-.7793l-.32617-.00977a34.68909 34.68909 0 0 1-3.95508-.31543 42.92875 42.92875 0 0 0-4.71435-.37011l-.55909-.02051c-.24316-.00781-.479-.0166-.709-.02735a.71429.71429 0 0 1-.67774-.748.72415.72415 0 0 1 .74805-.67774c.22266.01075.45166.01856.6875.02735l.56348.02051a44.23447 44.23447 0 0 1 4.8418.37988 33.49969 33.49969 0 0 0 3.81591.30566l.32569.00879a53.98533 53.98533 0 0 1 9.25879.79492 1.32848 1.32848 0 0 1 .34912.06934c2.6665.5957 4.394 1.61816 5.22265 3.11035a5.356 5.356 0 0 1 .10645 4.4834c-1.16748 3.37109-4.03516 5.21582-6.40332 6.44629a18.15089 18.15089 0 0 1-3.43018 1.35937 3.43376 3.43376 0 0 1-.5542.15235 21.11811 21.11811 0 0 1-7.80566.53125 27.1616 27.1616 0 0 1-7.50977-2.124c1.74414 1.58985 3.54395 3.39453 4.08448 5.14551a4.40821 4.40821 0 0 1 .19238 1.38379.66727.66727 0 0 1 .0083.125c-.09033 3.2373-3.31738 6.56152-4.70117 7.8418A.71072.71072 0 0 1 206.0085 145.34595Z"></path>
        <path fill="#eca085" d="M239.46309 171.39185a.72286.72286 0 0 1-.23779-.041.71418.71418 0 0 1-.43506-.91113c.05859-.165 5.71631-16.61816-4.28271-26.373a.71372.71372 0 0 1 .99707-1.02148c10.65722 10.39746 4.69287 27.69726 4.63134 27.87109A.714.714 0 0 1 239.46309 171.39185ZM270.75362 131.66822a.71448.71448 0 0 1-.689-.5293h0a3.44887 3.44887 0 0 0-1.46778-1.90234 3.53605 3.53605 0 0 0-2.77148-.13575.71324.71324 0 1 1-.40039-1.36914 4.50522 4.50522 0 0 1 6.01953 3.042.71368.71368 0 0 1-.50928.8711A.72749.72749 0 0 1 270.75362 131.66822ZM257.30489 123.71021a.7145.7145 0 0 1-.689-.5293h0a3.44881 3.44881 0 0 0-1.46777-1.90234 3.53624 3.53624 0 0 0-2.77148-.13574.71325.71325 0 1 1-.40039-1.36915 4.50523 4.50523 0 0 1 6.01953 3.042.71367.71367 0 0 1-.50928.87109A.727.727 0 0 1 257.30489 123.71021ZM240.70186 115.2522a.71448.71448 0 0 1-.689-.5293h0a3.44955 3.44955 0 0 0-1.46729-1.90234 3.53692 3.53692 0 0 0-2.772-.13574.71324.71324 0 1 1-.40039-1.36914 4.50474 4.50474 0 0 1 6.01953 3.042.714.714 0 0 1-.50928.87109A.72988.72988 0 0 1 240.70186 115.2522ZM230.66378 141.25513a4.11618 4.11618 0 0 1-1.4419-.25684 4.87212 4.87212 0 0 1-2.54687-2.39648.7139.7139 0 0 1 1.3042-.58106h0a3.451 3.451 0 0 0 1.75195 1.64454 3.5363 3.5363 0 0 0 2.75781-.30762.71376.71376 0 0 1 .61328 1.28906A5.687 5.687 0 0 1 230.66378 141.25513ZM246.38643 147.35669a4.11061 4.11061 0 0 1-1.4414-.25586 4.87014 4.87014 0 0 1-2.54639-2.39648.71369.71369 0 0 1 1.3042-.58008 3.44941 3.44941 0 0 0 1.751 1.64258 3.5125 3.5125 0 0 0 2.7583-.30762.71376.71376 0 0 1 .61328 1.28906A5.68893 5.68893 0 0 1 246.38643 147.35669ZM261.58809 151.58716a4.11061 4.11061 0 0 1-1.4414-.25586 4.87575 4.87575 0 0 1-2.54737-2.39746.71389.71389 0 0 1 1.3042-.58105 3.44572 3.44572 0 0 0 1.752 1.64453 3.52826 3.52826 0 0 0 2.75781-.30762.71376.71376 0 0 1 .61328 1.28906A5.68856 5.68856 0 0 1 261.58809 151.58716ZM221.11739 111.85083a.71469.71469 0 0 1-.64356-.40429h0a3.44668 3.44668 0 0 0-1.79638-1.59375 3.51486 3.51486 0 0 0-2.74854.38476.71386.71386 0 0 1-.64941-1.27148 4.50547 4.50547 0 0 1 6.48193 1.86426.714.714 0 0 1-.644 1.0205ZM229.40409 118.14063l-.97553 3.127s-13.3041.5667-11.09969-4.72614a33.9431 33.9431 0 0 1 12.07522 1.59916Z"></path>
        <path fill="#633322" d="M165.13627,282.21607l-7.60991-104.03642s2.11739-1.07643,9.07249-9.67329a123.92336,123.92336,0,0,0,11.84643-17.00246c2.70894-4.72937,4.05811-7.85671,3.68672-11.56776a164.292,164.292,0,0,0-3.38718-16.35273c-.79609-2.5304-2.34521-7.454-6.56658-9.75583-1.69955-.92675-4.121-1.06986-8.964-1.35618-4.76042-.28144-4.77819.14164-8.69374-.10032-7.16887-.443-58.50377,9.46945-58.50377,9.46945s-1.34423,26.34247,4.72161,48.354c0,0,1.33319,5.11667,4.854,8.19741l9.28963,117.79052Z"></path>
        <path fill="#633322" d="M148.53766,129.40579a7.761,7.761,0,0,1-1.831,7.09534c-1.29015,1.32928-2.967,1.86752-5.221,2.57933-3.57535,1.12907-9.1688-1.76-9.84263-4.793l.67256,2.56708c.99311,3.3377-2.00182,6.64851-6.68944,7.39334a11.96035,11.96035,0,0,1-1.7096.14983c-4.05121.06484-7.706-1.91332-8.57821-4.8432l.03569.3701c.90728,3.04426-1.28331,6.1838-4.89294,7.01094a7.86169,7.86169,0,0,1-1.32143.18947c-3.14317.18167-6.06188-1.53026-6.85861-4.20255l-6.2842-21.08191c-.90728-3.04426,1.28332-6.18381,4.89295-7.01095,3.61071-.837,7.27185.96748,8.18,4.01309l.26833.6177c-.99312-3.3377,1.22905-8.93648,5.79067-10.41329,4.51909-1.463,9.29362,1.35418,10.28781,4.69337l.27329-.5138c-.76714-3.45511,2.79094-9.47175,7.68144-10.58555,4.78559-1.08992,9.68285,2.16668,10.451,5.6234l1.14811,4.14911c-.75195-3.1889-.60664-9.6994,7.296-11.0599,5.38473-.927,11.26992,1.715,11.747,8.007l2.14705,15.67054a7.52391,7.52391,0,0,1-5.28759,8.34867,16.01355,16.01355,0,0,1-3.86015.43764c-4.65189-.49452-7.402-1.73221-8.0625-4.53153Z"></path>
        <path fill="#471301" d="M108.70479 147.85181c-3.31982 0-6.25439-1.93066-7.08789-4.72559l-6.28418-21.082a.71388.71388 0 0 1 1.36817-.4082l6.28418 21.082c.688 2.30762 3.271 3.87305 6.1333 3.69434a7.14752 7.14752 0 0 0 1.20166-.17188 6.05733 6.05733 0 0 0 3.93359-2.72754 4.25027 4.25027 0 0 0 .436-3.38379l-6.28418-21.082a.71388.71388 0 0 1 1.36816-.4082l6.28418 21.082a5.6673 5.6673 0 0 1-.57129 4.51172 7.48781 7.48781 0 0 1-4.84619 3.39844 8.6015 8.6015 0 0 1-1.43945.207C109.03487 147.84693 108.86934 147.85181 108.70479 147.85181ZM164.47432 113.24829a.71408.71408 0 0 1-.70605-.61718l-.43555-3.17578a.71361.71361 0 1 1 1.41406-.19336l.43555 3.17578a.71338.71338 0 0 1-.60986.80371A.673.673 0 0 1 164.47432 113.24829ZM166.24434 127.051a.70492.70492 0 0 1-.69287-.55762.81382.81382 0 0 1-.01806-.19726 4.22232 4.22232 0 0 0-.00538-.55079.71368.71368 0 0 1 1.42286-.11328 5.59173 5.59173 0 0 1 .00927.71289.71918.71918 0 0 1-.563.69043A.74433.74433 0 0 1 166.24434 127.051ZM157.05635 134.52954a15.01554 15.01554 0 0 1-6.33544-1.73437 5.26921 5.26921 0 0 1-2.44629-3.3418l-.56153-2.4082a.71349.71349 0 1 1 1.38965-.32422l.561 2.40527a3.848 3.848 0 0 0 1.81591 2.46 13.60726 13.60726 0 0 0 5.63184 1.51954 20.9863 20.9863 0 0 0 2.26025-.15625.72447.72447 0 0 1 .80957.58105.70793.70793 0 0 1-.54638.82129l-.01367.00293A21.664 21.664 0 0 1 157.05635 134.52954Z"></path>
        <path fill="#471301" d="M139.738 140.03833a10.79624 10.79624 0 0 1-5.64209-1.76172 6.58381 6.58381 0 0 1-3.145-3.84082l-5.92237-21.01855a.71371.71371 0 0 1 1.374-.38672l5.9331 21.06152a5.3075 5.3075 0 0 0 2.52881 2.98243c2.09814 1.34179 4.67187 1.87011 6.40088 1.32031 2.09766-.6543 3.751-1.16992 4.93408-2.3877a6.6516 6.6516 0 0 0 1.76416-3.73437 8.15267 8.15267 0 0 0-.11865-2.71289l-.5957-2.70117a.71345.71345 0 1 1 1.39355-.30665l.59668 2.70411a9.62166 9.62166 0 0 1 .13818 3.21 8.08011 8.08011 0 0 1-2.15576 4.53711c-1.43457 1.47558-3.24023 2.03906-5.52685 2.75293A6.45363 6.45363 0 0 1 139.738 140.03833ZM144.74971 113.04029a.71478.71478 0 0 1-.69629-.5586l-.90478-4.06836a.71387.71387 0 0 1 1.39355-.31054l.90479 4.06836a.71624.71624 0 0 1-.69727.86914Z"></path>
        <path fill="#471301" d="M123.72579 145.11255c-4.34522.001-8.14112-2.23047-9.07178-5.35351l-5.98-20.09571a.7136.7136 0 0 1 1.36816-.40625l5.98 20.09473c.76612 2.57129 4.12354 4.3916 7.88331 4.332a11.245 11.245 0 0 0 1.60791-.14062 8.07838 8.07838 0 0 0 5.62109-3.23633 3.88021 3.88021 0 0 0 .49707-3.249l-6.87891-23.11425a.71361.71361 0 0 1 1.36817-.40625l6.8789 23.11425a5.26877 5.26877 0 0 1-.65771 4.416 9.37676 9.37676 0 0 1-6.604 3.88574 12.77486 12.77486 0 0 1-1.81006.15821C123.86055 145.11255 123.79268 145.11255 123.72579 145.11255ZM115.17208 182.94361a14.651 14.651 0 0 1-9.85059-3.82618.71335.71335 0 1 1 .95215-1.0625 13.20393 13.20393 0 0 0 14.25928 2.38282c1.01953-.416 2.05615-.89356 3.08056-1.417a.71387.71387 0 0 1 .64942 1.27149c-1.06006.541-2.1333 1.03516-3.19043 1.4668A15.59355 15.59355 0 0 1 115.17208 182.94361ZM147.48165 181.30005a27.591 27.591 0 0 1-3.65137-.24512 26.46788 26.46788 0 0 1-7.32959-2.06738.71392.71392 0 0 1 .58008-1.30469 25.00778 25.00778 0 0 0 6.937 1.957 22.64937 22.64937 0 0 0 11.91846-1.40918 7.42036 7.42036 0 0 0 .96191-.49512.71366.71366 0 0 1 .7461 1.2168 9.02416 9.02416 0 0 1-1.13379.585A22.57237 22.57237 0 0 1 147.48165 181.30005ZM163.26241 142.0813a.71147.71147 0 0 1-.52979-.23633c-1.2622-1.39843-4.17578-5.00195-3.97314-8.23339a.72048.72048 0 0 1 .01953-.126 4.3765 4.3765 0 0 1 .31543-1.35547c.70264-1.708 2.67969-3.35449 4.53174-4.75879a27.139 27.139 0 0 1-7.66846 1.4375 21.44139 21.44139 0 0 1-7.79639-1.25586 2.64823 2.64823 0 0 1-.3955-.14844l-.09571-.041a18.09933 18.09933 0 0 1-3.26757-1.65332c-2.24952-1.44043-4.939-3.53711-5.79786-7.002a5.35017 5.35017 0 0 1 .51172-4.45312c.96045-1.41211 2.773-2.27441 5.541-2.63672a.9399.9399 0 0 1 .29541-.02734 54.25144 54.25144 0 0 1 9.29346.04492l.32324.02051a33.619 33.619 0 0 0 3.82715.041 44.10184 44.10184 0 0 1 4.86425.0586l1.24414.06543a.71328.71328 0 0 1 .68311.74218.69938.69938 0 0 1-.74268.6836l-1.26025-.06543a43.55986 43.55986 0 0 0-4.73682-.0586 34.77364 34.77364 0 0 1-3.9663-.043l-.32325-.01954a52.58827 52.58827 0 0 0-9.105-.04394.73492.73492 0 0 1-.207-.00391c-2.3125.32324-3.84228 1.00391-4.55029 2.04492a3.96041 3.96041 0 0 0-.30664 3.30469c.73779 2.97852 3.15576 4.84766 5.17969 6.14453a16.72667 16.72667 0 0 0 3.0288 1.53028l.13477.05761a1.5559 1.5559 0 0 0 .24951.09571 19.85035 19.85035 0 0 0 7.33838 1.19043 28.42853 28.42853 0 0 0 9.1919-2.0459c.34619-.127.64746-.23828.89794-.32227.54932-.18261 1.375-.45605 1.71778.23535.29.6709-.22559 1.07032-.97022 1.59473a.69792.69792 0 0 1-.11035.09277c-.30957.209-.70557.47754-1.14355.8125l-.08057.05957c-1.82959 1.36133-4.33545 3.22559-5.0083 4.86231a2.89336 2.89336 0 0 0-.2168 1.001.7159.7159 0 0 1-.02051.15332c-.08251 2.74414 2.73682 6.09277 3.61377 7.06543a.71335.71335 0 0 1-.52978 1.1914Z"></path>
        <path fill="#471301" d="M127.591 164.99829a.71432.71432 0 0 1-.69092-.53711c-.04541-.17871-4.42285-17.94628 7.13038-27.33886a.71363.71363 0 0 1 .90039 1.10742c-10.85254 8.82324-6.69141 25.709-6.648 25.87793a.71366.71366 0 0 1-.51465.86816A.69445.69445 0 0 1 127.591 164.99829ZM100.0168 122.60767a.697.697 0 0 1-.24511-.04395.71138.71138 0 0 1-.42578-.91015 4.50625 4.50625 0 0 1 6.27-2.48633.71359.71359 0 0 1-.52246 1.32812 3.52786 3.52786 0 0 0-2.77295-.11523 3.44787 3.44787 0 0 0-1.6333 1.76172A.71706.71706 0 0 1 100.0168 122.60767ZM114.1296 115.89673a.6972.6972 0 0 1-.24512-.04394.71183.71183 0 0 1-.42529-.91114 4.5047 4.5047 0 0 1 6.26953-2.48535.7136.7136 0 1 1-.52246 1.32813 3.51824 3.51824 0 0 0-2.77246-.11524A3.44737 3.44737 0 0 0 114.8 115.43091.71707.71707 0 0 1 114.1296 115.89673ZM131.42891 108.97388a.697.697 0 0 1-.24511-.04395.71139.71139 0 0 1-.42579-.91015 4.506 4.506 0 0 1 6.26954-2.48633.7136.7136 0 1 1-.52247 1.32813 3.5182 3.5182 0 0 0-2.77246-.11524 3.44791 3.44791 0 0 0-1.6333 1.76172A.71706.71706 0 0 1 131.42891 108.97388ZM139.4001 135.79419a5.43045 5.43045 0 0 1-2.76025-.84375.71389.71389 0 0 1 .72754-1.22851 3.53328 3.53328 0 0 0 2.71826.55566 3.45233 3.45233 0 0 0 1.89356-1.47949.71373.71373 0 0 1 1.24609.69629 4.87026 4.87026 0 0 1-2.75342 2.15722A4.09229 4.09229 0 0 1 139.4001 135.79419ZM123.18966 140.45044a5.43208 5.43208 0 0 1-2.76075-.84375.71389.71389 0 0 1 .72754-1.22851 3.53129 3.53129 0 0 0 2.71875.55566 3.45233 3.45233 0 0 0 1.89356-1.47949.71373.71373 0 0 1 1.24609.69629 4.87026 4.87026 0 0 1-2.75342 2.15722A4.05149 4.05149 0 0 1 123.18966 140.45044ZM107.66866 143.29029a5.43052 5.43052 0 0 1-2.76025-.84375.71389.71389 0 0 1 .72753-1.22852 3.53292 3.53292 0 0 0 2.71827.55566 3.45233 3.45233 0 0 0 1.89355-1.47949.71373.71373 0 0 1 1.24609.69629 4.87022 4.87022 0 0 1-2.75341 2.15723A4.09277 4.09277 0 0 1 107.66866 143.29029ZM151.24092 107.35669a.71378.71378 0 0 1-.61328-1.07519 4.50467 4.50467 0 0 1 6.624-1.27246.71364.71364 0 0 1-.76172 1.207 3.518 3.518 0 0 0-2.70166-.63086 3.44927 3.44927 0 0 0-1.93408 1.42676A.71635.71635 0 0 1 151.24092 107.35669ZM142.356 112.87043l.689 3.20232s13.1985 1.76637 11.4813-3.704a33.94309 33.94309 0 0 0-12.17032.50166Z"></path>
      </g>
    </g>
  </g>
</svg>
