<?xml version="1.0" encoding="UTF-8"?>
<svg xmlns="http://www.w3.org/2000/svg" viewBox="0 0 500 500">
  <defs>
    <style>
      .cls-1 {
        fill: #3a5f7e;
      }

      .cls-1, .cls-2, .cls-3, .cls-4, .cls-5, .cls-6, .cls-7, .cls-8, .cls-9, .cls-10, .cls-11, .cls-12, .cls-13, .cls-14, .cls-15, .cls-16, .cls-17, .cls-18, .cls-19, .cls-20, .cls-21, .cls-22, .cls-23, .cls-24, .cls-25, .cls-26, .cls-27, .cls-28, .cls-29, .cls-30, .cls-31, .cls-32, .cls-33, .cls-34, .cls-35, .cls-36, .cls-37, .cls-38, .cls-39, .cls-40, .cls-41, .cls-42, .cls-43, .cls-44, .cls-45, .cls-46, .cls-47, .cls-48, .cls-49, .cls-50, .cls-51, .cls-52, .cls-53 {
        stroke-width: 0px;
      }

      .cls-2 {
        fill: #8d5338;
      }

      .cls-3 {
        fill: #f0c6a5;
      }

      .cls-4 {
        fill: #8e5338;
      }

      .cls-5 {
        fill: #e7886e;
      }

      .cls-6 {
        fill: #fbd377;
      }

      .cls-7 {
        fill: #2c4b64;
      }

      .cls-8 {
        fill: #42ba87;
      }

      .cls-9 {
        fill: #f8f6f6;
      }

      .cls-10 {
        fill: #b37b61;
      }

      .cls-11 {
        fill: #d1cee7;
      }

      .cls-12 {
        fill: #a7c03d;
      }

      .cls-54 {
        isolation: isolate;
      }

      .cls-13 {
        fill: #4d672f;
      }

      .cls-14 {
        fill: #ab8c50;
      }

      .cls-15 {
        fill: #598652;
      }

      .cls-16 {
        mix-blend-mode: multiply;
        opacity: .3;
      }

      .cls-16, .cls-52 {
        fill: #44818e;
      }

      .cls-17 {
        fill: #1d2527;
      }

      .cls-18 {
        fill: none;
      }

      .cls-19 {
        fill: #ccccca;
      }

      .cls-20 {
        fill: #ed9b83;
      }

      .cls-21 {
        fill: #2c4e67;
      }

      .cls-22 {
        fill: #2a475e;
      }

      .cls-23 {
        fill: #7f868a;
      }

      .cls-24 {
        fill: #395f7e;
      }

      .cls-25 {
        fill: #010101;
      }

      .cls-26 {
        fill: #b7b9bb;
      }

      .cls-27 {
        fill: #a7c03e;
      }

      .cls-28 {
        fill: #ce717d;
      }

      .cls-29 {
        fill: #369746;
      }

      .cls-30 {
        fill: #d39073;
      }

      .cls-31 {
        fill: #99a2a8;
      }

      .cls-32 {
        fill: #004850;
      }

      .cls-33 {
        fill: #dedaec;
      }

      .cls-34 {
        fill: #b9cb5c;
      }

      .cls-35 {
        fill: #053134;
      }

      .cls-36 {
        fill: #93b96f;
      }

      .cls-37 {
        fill: #71c6a1;
      }

      .cls-38 {
        fill: #5ba0a8;
      }

      .cls-39 {
        fill: #f0ac99;
      }

      .cls-40 {
        fill: #295b4e;
      }

      .cls-41 {
        fill: #385e7e;
      }

      .cls-42 {
        fill: #dbdada;
      }

      .cls-43 {
        fill: #fff;
      }

      .cls-44 {
        fill: #759a3e;
      }

      .cls-45 {
        fill: #cca75f;
      }

      .cls-46 {
        fill: #c48669;
      }

      .cls-47 {
        fill: #e6b592;
      }

      .cls-48 {
        fill: #ce775f;
      }

      .cls-49 {
        fill: #433f50;
      }

      .cls-50 {
        fill: #7f858a;
      }

      .cls-51 {
        fill: #b5dec9;
      }

      .cls-53 {
        fill: #f1e5cb;
      }
    </style>
  </defs>
  <g class="cls-54">
    <g id="OBJECTS">
      <g>
        <g>
          <g>
            <g>
              <path class="cls-29" d="M174.59,455.56s5.93-5.29,9.62-8.49c0,0,.36-6.34.64-6.69.27-.35,2.79,3.39,2.79,3.39,0,0,6.43-5.85,11.3-11.07,4.87-5.23,8.96-8.72,10.87-13.57,1.91-4.85,2.61-11.73,1.69-15.34,0,0-11.62.46-18.65,5.91-7.03,5.45-14.26,17.6-16.73,24.42-2.47,6.82-7.1,20.01-5.95,21.76,1.15,1.75,4.43-.32,4.43-.32Z"/>
              <path class="cls-17" d="M170.16,455.88c4.84-7.94,10.1-15.64,16.1-22.76,3.01-3.55,6.15-6.99,9.47-10.26,3.38-3.21,6.68-6.38,9.33-10.23,4.08-5.61,7.78-11.52,10.94-17.7,3.91-8.24,6.74-17.38,9.62-26.05,0,0,1.05-3.32,1.05-3.32,0,0,.52-1.66.52-1.66.19-.55.26-1.13.7-1.6l.75.23c.1.64-.18,1.16-.33,1.72l-.53,1.66c-2.46,7.57-5.16,15.66-8.09,23.04-1.68,4.34-3.82,8.54-6.23,12.52-3.63,5.98-7.47,11.86-12.18,17.06-5.06,4.82-10.03,9.63-14.53,14.99-6.05,7.04-11.18,14.8-16.58,22.35h0Z"/>
              <polygon class="cls-13" points="173.65 441.09 180.2 440.94 180.17 441.72 173.65 441.09 173.65 441.09"/>
              <polygon class="cls-17" points="185.47 434.91 176.11 434.12 185.5 434.13 185.47 434.91 185.47 434.91"/>
              <polygon class="cls-17" points="200.61 430.92 197.93 420.96 198.69 420.79 200.61 430.92 200.61 430.92"/>
              <polygon class="cls-17" points="204.49 414.33 191.61 410.72 204.67 413.58 204.49 414.33 204.49 414.33"/>
            </g>
            <g>
              <path class="cls-44" d="M226.16,461.81c1.74-.82,4.67-7.14,5.73-10.48,1.06-3.33,3.04-18.23,3.04-18.23l-5.45-4.65,5.65-.76s-1.76-12.45-4.34-17.23c-2.58-4.78-7.14-7.78-8.75-7.46-1.6.32-3.62,4.65-4.96,13.68-1.34,9.03-.67,15.8-1.35,19.73-.68,3.93.82,10.87.82,10.87l4.35-2.98-3.28,6.92s4.48,7.42,5.33,8.77c.85,1.35,2.31,2.24,3.21,1.82Z"/>
              <path class="cls-17" d="M225.52,459.88c-.18-3-.33-6.02-.71-9-.2-2.05-1.59-3.69-1.72-5.78.09-3.01.74-6.01.6-8.99-.47-3.95-.8-8.04-.62-12.04.08-7.05-1.47-13.97-1.44-21.03.04-5.06.87-10.07,1.74-15.04,1.51-7.93,3.33-15.85,6.71-23.24,0,0,1.05.51,1.05.51-3.37,7.22-5.26,15.11-6.81,22.91-.9,4.91-1.76,9.86-1.85,14.85-.09,7.04,1.4,14.02,1.26,21.04-.21,4.07.07,7.96.52,12.01.09,3.06-.62,6.01-.77,9.02.09,1.96,1.45,3.75,1.6,5.75.34,3,.38,6.02.46,9.04h0Z"/>
              <path class="cls-17" d="M234.02,439.48c-3.68-2.53-7.35-5.07-10.69-8.06,0,0,.25-.26.25-.26,3.23,3.05,6.84,5.71,10.44,8.32h0Z"/>
              <polygon class="cls-17" points="216.08 431.92 223.24 426.24 223.47 426.53 216.08 431.92 216.08 431.92"/>
            </g>
            <g>
              <path class="cls-27" d="M248.72,441.39c1.2-.94,3.76-6.68,3.86-10.66s-2.03-16.96-3.75-20.85c-1.72-3.89-9.41-14.25-11.87-16.48,0,0-3.08,6.05-4.32,13.98-1.24,7.94,3.55,18.92,4.3,20.96l2.9-1.61-1.47,4.05s3.13,4.26,4.76,6.33c1.63,2.08,4.85,4.85,5.59,4.27Z"/>
              <path class="cls-17" d="M238.56,366.71c-.89,12.68-2.15,25.49-1.1,38.18,2.09,12.58,7.05,24.51,11.26,36.49-3.7-8.83-6.96-17.87-9.65-27.06-1.94-6.12-2.73-12.55-2.59-18.96.01-9.59.58-19.16,1.29-28.72,0,0,.78.07.78.07h0Z"/>
              <polygon class="cls-17" points="252.05 424.46 241.47 422.09 241.67 421.33 252.05 424.46 252.05 424.46"/>
              <polygon class="cls-17" points="233.72 418.87 238.53 412.36 239.13 412.86 233.72 418.87 233.72 418.87"/>
            </g>
            <g>
              <path class="cls-27" d="M207.35,384s-4.85,3.53-13.91-.61c-9.06-4.14-13.09-20.77-12.81-23.05.28-2.28,1.37-5.3,4.43-5.53,3.06-.23,6.67,5.39,8.68,9.69,2.01,4.3,2.49,6.26,2.49,6.26l-4.86-.96s4.24,2.67,6.45,4.37c0,0,1.54,8.89,9.52,9.84Z"/>
              <path class="cls-17" d="M185.07,354.81c1.03,5.61,2.3,11.19,4.22,16.55.97,2.66,2.17,5.28,3.97,7.49,4.24,5.66,13.25,8.61,17.61,1.5,4.05-5.83,6.72-12.52,9.24-19.13,0,0,.73.27.73.27-2.61,6.64-5.38,13.34-9.54,19.18-4.67,7.3-13.88,4.31-18.27-1.64-1.79-2.25-2.98-4.91-3.92-7.6-1.87-5.4-3.07-11-4.04-16.62h0Z"/>
              <path class="cls-17" d="M189.7,373.01c-2.61-1.69-5.27-3.36-7.53-5.5,2.31,2.08,5.02,3.68,7.66,5.3,0,0-.12.2-.12.2h0Z"/>
              <path class="cls-17" d="M187.5,366.3c1.14-2.59,2.05-5.32,2.46-8.14-.33,2.83-1.16,5.59-2.24,8.24l-.22-.1h0Z"/>
            </g>
            <g>
              <path class="cls-44" d="M166.13,421.05c-.29.8,3.44-2.56,6.38-4.92,2.93-2.35,7.66-3.91,7.66-3.91l3.72-5.76,1.91,3.35s11.23-5.72,16.07-7.93c4.85-2.2,9.98-4.87,10.64-7.94.67-3.07.69-7.65-.05-8.9,0,0-6.7,5.55-15.03,9.58-8.34,4.03-17.44,8.91-22.32,12.19-4.88,3.29-7.15,9.19-8.99,14.23Z"/>
              <path class="cls-17" d="M175.12,406.82c7.18-4.54,14.58-8.77,22.23-12.49,6.42-2.92,12.48-6.71,17.3-11.91,1.06-.96,1.52-2.27,2.15-3.52,2.34-5.14,4.42-10.41,6.42-15.71l.86.33c-2.67,6.18-4.9,12.63-8.28,18.48-3.09,3.46-6.69,6.46-10.65,8.88-4.84,3-10.17,5.01-15.17,7.7-5.02,2.61-9.96,5.38-14.86,8.24h0Z"/>
              <polygon class="cls-17" points="190.99 407.2 191.46 397.46 191.83 397.48 190.99 407.2 190.99 407.2"/>
              <path class="cls-17" d="M201.21,402.19c.56-3.22.65-6.57.12-9.79,0,0,.81-.11.81-.11.27,3.33-.09,6.68-.93,9.89h0Z"/>
              <path class="cls-13" d="M172.51,416.13c.81-3.6,2.18-7.44,4.33-10.33-2.1,3.12-3.53,6.67-4.33,10.33h0Z"/>
            </g>
          </g>
          <g>
            <path class="cls-29" d="M397.23,154.16s13.67-.14,11.9-12.52c-3.24,2.87-11.95,5.19-11.9,12.52Z"/>
            <path class="cls-29" d="M397.86,117.16s8.31-3.92,8.6-11.09c.29-7.17,2.96-12.31,4.7-14.29-13.39,10.19-20.09,15.73-13.3,25.38Z"/>
            <path class="cls-29" d="M420.17,110.06s11.23.57,16.79-5.97c5.56-6.55,11.6-11.58,12.46-11.46-13.78-2.71-31.57,4.26-29.25,17.44Z"/>
            <path class="cls-17" d="M374.48,163.64c9.53-5.33,17.73-13.37,23.76-22.5,3.98-6.24,6.96-13.28,11.32-19.35,4.48-6.58,9.71-12.77,16.03-17.66,2.63-1.89,5.5-3.79,8.75-4.3-3.67.75-6.81,3.1-9.62,5.46-5.63,4.89-10.27,10.83-14.25,17.1-4.19,6.26-6.84,13.22-10.7,19.72-6.02,9.73-14.07,18.15-23.94,24.1,0,0-1.34-2.56-1.34-2.56h0Z"/>
            <path class="cls-17" d="M395.07,145.7c2.91-6.63,4.58-14.26,3.33-21.51-2.24-7.36.04-15.48,4.98-21.2-2.31,2.95-3.94,6.43-4.74,10.05-.85,3.67-.42,7.4.69,10.96.84,3.74.86,7.62.37,11.4-.51,3.8-1.43,7.48-2.89,11.1,0,0-1.75-.8-1.75-.8h0Z"/>
            <path class="cls-17" d="M386.51,155.6c6.5-.54,13.48-2.48,18.03-7.46-1.02,1.35-2.22,2.58-3.58,3.63-4.18,3.1-9.16,4.87-14.28,5.75,0,0-.17-1.92-.17-1.92h0Z"/>
          </g>
          <g>
            <g>
              <path class="cls-32" d="M446.64,232.64c-1.54-4.62-6.77-6.2-19.05-2.74,4.57-9.31-10.16-5.46-14.01.73-3.85,6.21-3.03,11.6,4.43,13.2-6.8,2.98.18,11.16,6.01,10.8,5.6-.35,14.84-6.41,6.66-9.04,3.54.07,18.01-6.82,15.96-12.94Z"/>
              <path class="cls-17" d="M418.22,233.85c.06.16-.03.35-.19.41-2.68.97-4.39,3.16-5.56,5.76.16,0,.32,0,.48,0,1.32,0,2.69,0,3.82-.33.17-.05.34.04.39.22.05.17-.05.35-.22.4-1.22.35-2.69.36-4,.36-.26,0-.51,0-.75,0-.72,1.78-1.21,3.72-1.57,5.57.25-.09.5-.17.74-.27,1.1-.4,2.21-.81,3.32-1.22,1.09-.47,2.17-.95,3.24-1.41,1.09-.44,2.09-.99,3.08-1.5.49-.26.98-.5,1.45-.75.48-.24.95-.48,1.37-.76.71-.43,1.37-.83,2-1.21-.05-1.61.58-3.11.99-3.89.08-.15.27-.22.43-.13.16.08.22.27.13.43-.55,1.07-.87,2.2-.91,3.21.31-.19.61-.38.9-.55.33-.24.65-.47.94-.68.59-.42,1.11-.79,1.53-1.1.85-.61,1.33-.96,1.33-.96.14-.1.33-.07.44.06.11.14.08.34-.06.45,0,0-.47.37-1.3,1.01-.41.32-.91.71-1.49,1.16-.29.22-.6.46-.92.71-.34.23-.7.47-1.08.72-.76.49-1.58,1.04-2.45,1.61-.43.3-.89.56-1.36.82-.47.27-.96.54-1.45.81-.99.55-1.99,1.15-3.07,1.63-.94.45-1.88.9-2.83,1.36,1.92,1.45,5.57,2.41,7.64,1.95.17-.04.35.07.38.24.04.17-.07.34-.24.38-2.35.54-6.43-.58-8.43-2.27-1.04.43-2.07.85-3.09,1.27-1.09.48-2.2.83-3.26,1.21-1.07.36-2.09.76-3.09,1.05-.99.29-1.93.57-2.8.83-.43.13-.85.25-1.25.37-.4.1-.78.19-1.13.28-.71.17-1.34.33-1.85.46-1.03.25-1.61.4-1.61.4-.01,0-.03,0-.04,0-.55.11-1.08-.24-1.2-.78-.12-.55.23-1.09.79-1.2h.04s.58-.13,1.6-.34c.51-.11,1.12-.23,1.83-.38.35-.08.73-.15,1.13-.24.39-.1.8-.21,1.24-.31.86-.22,1.79-.46,2.78-.72.99-.24,2-.6,3.07-.92.59-.19,1.2-.37,1.82-.57.97-5.11,2.78-10.97,7.87-12.81.16-.06.35,0,.41.19Z"/>
              <g>
                <path class="cls-35" d="M422.51,226.62c.35,0,.71-.04,1.03-.17.39-.15.13-.75-.26-.6-.21.08-.46.12-.69.12-.42,0-.5.64-.08.65Z"/>
                <path class="cls-35" d="M422.69,228.21c.3-.12.62-.17.92-.29.39-.15.13-.75-.26-.6-.3.12-.62.17-.92.29-.39.15-.13.75.26.6Z"/>
                <path class="cls-35" d="M420.29,227.6c.18-.21.39-.39.59-.57.31-.28-.1-.79-.41-.5-.24.22-.49.44-.7.69-.28.32.25.7.53.38Z"/>
                <path class="cls-35" d="M419.56,229.8c.14-.14.28-.23.46-.31.39-.17.12-.77-.26-.6-.23.1-.44.21-.61.4-.29.3.12.81.41.5Z"/>
                <path class="cls-35" d="M417.5,228.9c-.15.18-.29.36-.4.58-.18.38.43.61.61.24.08-.16.21-.3.32-.43.27-.32-.26-.7-.53-.38Z"/>
                <path class="cls-35" d="M431.47,230.83c.39-.14.13-.74-.26-.6-.24.09-.46.12-.65.3-.31.28.1.79.41.51.14-.13.33-.15.51-.21Z"/>
                <path class="cls-35" d="M434.32,230.96c.42-.07.32-.71-.09-.64-.46.07-.85.36-1.04.78-.18.38.43.62.6.24.1-.21.31-.34.53-.37Z"/>
                <path class="cls-35" d="M434.12,232.01c-.09.09-.19.15-.31.2-.38.17-.12.77.26.6.23-.1.4-.23.57-.42.29-.3-.24-.69-.53-.38Z"/>
                <path class="cls-35" d="M427.65,231.33c-.2.09-.39.17-.58.26-.39.17-.12.77.26.6.19-.09.39-.17.58-.26.38-.17.12-.76-.26-.6Z"/>
                <path class="cls-35" d="M429.32,232.23c-.17-.39-.77-.12-.6.26.17.38.77.12.6-.26Z"/>
                <path class="cls-35" d="M437.18,229.52s0,.04,0,.06c-.4-.11-.64.49-.24.61.33.09.55-.03.77-.28.28-.31-.25-.69-.53-.38Z"/>
                <path class="cls-35" d="M428.89,246.04c-.1.04-.19.08-.29.13-.39.17-.12.76.26.6.1-.04.19-.09.29-.13.39-.17.12-.77-.26-.6Z"/>
                <path class="cls-35" d="M430.55,247.18c.38-.17.12-.77-.26-.6-.24.1-.4.21-.52.45-.19.38.42.61.61.24.02-.03.15-.08.17-.09Z"/>
                <path class="cls-35" d="M415.14,232.17c.28-.3-.24-.69-.53-.38-.13.14-.3.24-.4.41-.21.36.32.75.53.38.09-.16.27-.27.4-.41Z"/>
              </g>
            </g>
            <g>
              <path class="cls-27" d="M441.56,289.48c-2.27,4.99-8.32,6.16-21.68.84,4.04,10.97-12.04,4.94-15.63-2.46-3.59-7.42-2.04-13.36,6.52-14.28-7.28-4.14,1.5-12.5,7.99-11.4,6.24,1.05,15.89,8.93,6.41,10.92,3.98.34,19.39,9.75,16.38,16.38Z"/>
              <path class="cls-17" d="M419.28,269.96c.02.19-.11.35-.3.37-.67.08-1.49.9-2.07,2.04,1.49.1,2.96.38,4.25.62l.67.12c.18.03.3.21.27.39-.03.19-.21.31-.39.27l-.67-.12c-1.42-.27-2.98-.55-4.53-.64-.08.04-.18.04-.26,0,0,0-.01-.01-.02-.02-1.8-.07-3.55.18-5,1.11.13.07.26.14.39.22,1.99,1.05,3.99,2.11,5.86,3.1.94.49,1.84.97,2.7,1.43.85.46,1.68.86,2.44,1.24,3.04,1.52,5.06,2.53,5.06,2.53h0c.16.08.23.28.16.44-.08.17-.28.24-.45.17,0,0-2.06-.94-5.14-2.35-.77-.36-1.61-.72-2.49-1.15-.87-.42-1.8-.87-2.75-1.33-.06-.03-.12-.06-.19-.09-.76,1.94,1.51,5.41,3.06,6.57.15.11.18.32.07.47-.11.15-.32.18-.47.07-1.72-1.27-4.23-5.06-3.27-7.4-1.68-.81-3.44-1.66-5.2-2.52-2.02-1.02-4.04-2.05-5.94-3-.95-.48-1.86-.94-2.73-1.38-.87-.42-1.68-.89-2.43-1.3-3-1.65-5-2.75-5-2.75,0,0-.02-.01-.03-.02-.47-.28-.62-.88-.34-1.35.28-.47.88-.62,1.35-.34l.08.05s1.92,1.15,4.81,2.87c.73.43,1.49.91,2.35,1.37.85.47,1.74.96,2.67,1.47,1.52.84,3.13,1.73,4.75,2.62,1.62-1.16,3.62-1.47,5.63-1.41.09-.19.17-.37.28-.56.58-1.02,1.45-2,2.44-2.12.19-.02.35.11.37.3Z"/>
              <g>
                <path class="cls-27" d="M412.74,291.26c.35.04.68.23.89.51.29.37-.23.89-.52.52-.15-.19-.32-.29-.56-.32-.47-.06-.28-.77.18-.71Z"/>
                <path class="cls-27" d="M413.37,290.11c-.14-.08-.28-.16-.42-.24-.41-.23-.05-.87.36-.64.14.08.28.16.41.23.41.23.05.87-.36.64Z"/>
                <path class="cls-27" d="M410.11,290.05c-.29-.15-.6-.22-.89-.37-.42-.21-.06-.85.36-.64.29.14.6.22.89.37.42.22.06.85-.36.64Z"/>
                <path class="cls-27" d="M409.9,292.38c-.13-.17-.24-.23-.45-.26-.47-.06-.28-.77.18-.71.33.04.59.19.79.45.29.37-.23.89-.52.52Z"/>
                <path class="cls-27" d="M406.43,288.07c.41.23.05.88-.36.64-.24-.14-.47-.29-.64-.52-.28-.37.23-.9.52-.52.14.18.29.29.49.4Z"/>
                <path class="cls-27" d="M406.65,285.47c.28.29.64.5.92.8.33.34-.19.86-.52.52-.29-.29-.64-.5-.92-.8-.33-.34.19-.86.52-.52Z"/>
                <path class="cls-27" d="M404.39,283.9c.35.31-.17.83-.52.52-.1-.09-.16-.2-.25-.28-.36-.31.17-.83.52-.52.1.08.16.2.26.28Z"/>
                <path class="cls-27" d="M416.18,293.61c.28.16.55.31.83.47.41.24.05.88-.36.64-.28-.16-.55-.32-.83-.47-.41-.23-.05-.87.37-.64Z"/>
                <path class="cls-27" d="M423.22,290.64c-.17-.1-.34-.2-.52-.29-.41-.23-.05-.87.36-.64.17.1.35.2.52.3.41.23.05.87-.36.64Z"/>
                <path class="cls-27" d="M426.07,289.5c-.23.41-.87.05-.64-.36.23-.41.87-.05.64.36Z"/>
                <path class="cls-27" d="M425.41,291.61c-.2-.14-.36-.32-.56-.46-.39-.26-.03-.9.36-.64.2.14.36.32.56.46.39.26.03.9-.36.64Z"/>
              </g>
            </g>
            <path class="cls-29" d="M398.4,258.99c1.09-2.66,7.1-7.76,10.37-6.32,3.43,1.45-3.33,5.73-4.83,6.92,1.26.38,6.85.04,6.39,2.88-.44,2.21-6.31,1.74-7.9,1.66,1.39.87,9.37,3.83,4.97,5.52-2.92,1.12-7.83-2.48-9.35-3.99l.35-6.67Z"/>
          </g>
          <g>
            <path class="cls-29" d="M327.91,356.79c2.56.55,10.23,3.24,9.56,6.52-.68,4.31-7.83,1.11-10.18.15,2.63,3.95,8.23,13.47,2.73,16.18-2.97,1.47-6.02-4.05-8.8-9.49,1.84,6.56-.98,24.79-8.81,16.25-5.08-5.53-.72-18.35.31-24.81l15.19-4.8Z"/>
            <g>
              <path class="cls-32" d="M364.55,402.02c4.97-2.74,2.32-8.69.71-11.95,5.21-2.16,4.78-6.41,1.45-10.29,6.24.04,8.89-9,2.7-11.48-4.27-1.81-9.02,1.82-12.74,3.86-6.11,3.34-29.75,12.82-21.27,22.33,3.11,3.48,7.66,2.02,11.06.34,1.27,3.27,7.87,12.82,18.09,7.2Z"/>
              <path class="cls-17" d="M360.15,380.14c-1.2-.25-2.32-.02-3.44.37,1.43,1.25,2.66,2.87,3.88,4.05.43.42-.28,1.02-.7.61-2.02-1.94-3.39-4.26-6.12-5.31-.92-.35-1.78-.37-2.55-.14.39.82.75,1.62,1.09,2.35,1.79,3.91,2.97,6.52,2.97,6.52.1.21,0,.47-.21.57-.21.09-.46,0-.56-.2h0s-1.28-2.57-3.21-6.41c-.37-.73-.76-1.51-1.17-2.32-1.52,1.01-2.47,3.01-2.43,4.88,0,.6-.92.52-.93-.08-.04-2.42,1.02-4.48,2.97-5.56,0,0,0,0,0,0-.57-1.09-1.18-2.23-1.81-3.42-1.26-2.37-2.6-4.9-3.94-7.42-.09-.17-.18-.33-.28-.5l-.46-.84c-1.14-2.06-2.26-4.09-3.33-6.02-.65-1.17-1.28-2.31-1.87-3.38-.58-1.09-1.2-2.06-1.74-2.98-2.19-3.66-3.64-6.1-3.64-6.1l-.06-.1c-.35-.59-.16-1.36.43-1.71.59-.35,1.36-.16,1.71.43,0,.01.02.03.02.04,0,0,1.4,2.53,3.49,6.33.51.95,1.11,1.97,1.65,3.08.56,1.1,1.14,2.26,1.76,3.46,1.22,2.4,2.52,4.96,3.82,7.52,1.08,2.23,2.16,4.46,3.2,6.58l.37.77c.04.08.08.16.11.24.59,1.21,1.15,2.38,1.69,3.49,0,.02.02.03.02.05.2-.07.42-.13.64-.17,1.69-.36,3.1.15,4.36,1.04t0,0c1.41-.54,2.85-.95,4.37-.63.58.12.51,1.05-.08.93Z"/>
              <g>
                <path class="cls-35" d="M338.55,392.24c-.44-.49-.76-1.05-1.08-1.62-.29-.53.53-.97.82-.45.27.5.55.99.93,1.42.39.45-.27,1.1-.67.65Z"/>
                <path class="cls-35" d="M340.08,390.02c.12.59-.78.8-.9.21-.09-.4-.22-.78-.25-1.19-.05-.6.88-.57.93.03.03.32.16.64.23.95Z"/>
                <path class="cls-35" d="M337.87,388.17c-.53.29-.97-.53-.45-.82.53-.29.97.53.45.82Z"/>
                <path class="cls-35" d="M344.42,389.41c.26.54-.55.99-.82.45-.23-.46-.34-.95-.43-1.45-.11-.59.8-.81.91-.21.08.42.15.83.34,1.22Z"/>
                <path class="cls-35" d="M340.53,386.95c-.02-.28-.06-.52,0-.8.12-.59,1.01-.32.89.26-.03.17.03.39.04.56.04.6-.89.57-.93-.03Z"/>
                <path class="cls-35" d="M342.86,391.29c.12.22.24.44.36.66.29.53-.53.97-.82.45-.12-.22-.24-.44-.36-.66-.29-.53.53-.97.82-.45Z"/>
                <path class="cls-35" d="M353.95,399.02c-.17-.31-.34-.62-.51-.93-.29-.53.53-.98.82-.45.17.31.34.62.51.93.29.53-.53.97-.82.45Z"/>
                <path class="cls-35" d="M352.7,397.66c.47.38-.21,1.02-.67.65-.33-.26-.51-.59-.55-1.01-.06-.59.84-.81.91-.21.03.27.1.41.32.58Z"/>
                <path class="cls-35" d="M351.73,395.14c-.02.06-.05.04-.08-.06-.38-.46.29-1.11.67-.65.2.25.35.39.35.74,0,.6-.94.57-.93-.03Z"/>
                <path class="cls-35" d="M349.63,395.49c-.33-.26-.51-.6-.55-1.01-.07-.59.84-.81.91-.21.03.27.1.41.32.58.47.38-.21,1.02-.67.65Z"/>
              </g>
            </g>
          </g>
        </g>
        <g>
          <g>
            <path class="cls-36" d="M179.04,319.84c-22.07-23.44-55.51-40.34-85.15-51.48-5.42-1.71-42.46-14.2-43.31-4.17-.27,5.84,22.26,13.54,26.31,15.17-11.84,2.21-17.53,9.11-7.19,18.02,6.49,5.58,25.49,7.46,34.74,7.47-4.95,2.63-11.41,4.51-13.39,10.32-2.25,6.2.71,11.1,6.59,13.4,12.41,4.49,28.42-.88,38.68-7.9-3.64,2.38-4.92,10.11-2.09,14.34,3.67,5.1,12.92,5.41,18.78,3.98,6.52-1.56,21.52-11.1,26.03-19.15Z"/>
            <path class="cls-15" d="M63.59,263.86c26.71,4.69,52.1,15.18,75.67,28.41,11.53,6.47,23,13.58,33.36,21.85.04.03.06.07.09.1.11.11.18.25.19.41,0,.18-.09.34-.22.45-.03.03-.06.07-.1.09,0,0,0,0-.01.01-.13.07-12.86,6.86-21.95,11.25-.05.02-.1.04-.16.05-.27.05-.56-.08-.68-.34-.15-.31-.02-.69.29-.84,7.48-3.61,17.44-8.86,20.77-10.62-5.01-2.09-26.3-9.45-60.2-.5-.33.09-.68-.11-.77-.45-.09-.34.11-.68.45-.77,28.71-7.58,48.52-3.57,57.23-.8-9.26-5.98-19.69-10.33-29.96-14.07-15.8-5.75-32.4-9.62-49.19-10.75-.81-.05-.71-1.31.11-1.26,16.93,1.13,33.57,5.1,49.51,10.82,7.1,2.54,14.28,5.45,21.11,8.96-6.05-4.04-12.3-7.82-18.56-11.42-23.87-13.72-49.87-24.56-77.08-29.34-.79-.14-.7-1.4.1-1.26Z"/>
          </g>
          <g>
            <path class="cls-32" d="M261.68,107.8c-4.81-1.7-14.42-11.88-12.16-17.82,2.26-6.22,10.46,5.37,12.73,7.92.57-2.26-.57-12.16,4.52-11.6,3.96.57,3.68,11.03,3.68,13.86,1.42-2.54,5.94-16.97,9.33-9.33,2.26,5.09-3.68,14.14-6.22,16.97h-11.88Z"/>
            <g>
              <path class="cls-29" d="M311.2,59.19c-5.41-1.88-10.64,1.85-16.24,15.76-5.37-10.95-12.39,5.53-9.39,13.57,3.02,8.05,8.62,11.15,15.47,5.36-2.12,8.48,10.52,7.86,14.36,2.17,3.7-5.47,4.7-18.43-3.63-12.7,2.61-3.25,6.6-21.66-.58-24.16Z"/>
              <path class="cls-17" d="M309.9,90.05c-.12-.15-.34-.17-.49-.05-.55.45-1.75.47-3.03.09,1-1.2,1.85-2.51,2.59-3.66l.39-.6c.11-.16.06-.38-.1-.49-.16-.11-.38-.06-.49.1l-.39.6c-.82,1.26-1.73,2.65-2.78,3.87-.08.04-.15.11-.19.2,0,0,0,.02,0,.03-1.25,1.41-2.7,2.55-4.43,2.98.04-.15.08-.3.12-.45.64-2.27,1.28-4.53,1.88-6.65.3-1.06.59-2.09.86-3.06.27-.98.57-1.89.82-2.74,1.04-3.38,1.73-5.64,1.73-5.64h0c.06-.18-.04-.38-.22-.44-.18-.06-.38.03-.45.22,0,0-.77,2.23-1.93,5.57-.28.84-.62,1.73-.92,2.7-.31.97-.64,1.99-.98,3.04-.02.07-.05.14-.07.21-2.01-.82-3-5.03-2.75-7.04.03-.19-.11-.37-.3-.39-.19-.02-.37.11-.39.31-.28,2.21.78,6.84,3.23,7.79-.6,1.85-1.22,3.79-1.84,5.73-.68,2.26-1.36,4.52-2,6.64-.32,1.06-.63,2.09-.92,3.06-.31.97-.53,1.91-.77,2.77-.91,3.45-1.52,5.75-1.52,5.75,0,.01,0,.03,0,.04-.13.55.22,1.1.77,1.23.55.13,1.1-.22,1.23-.77l.02-.09s.52-2.28,1.29-5.7c.2-.85.39-1.78.66-2.76.26-.98.53-2.01.81-3.08.46-1.75.95-3.61,1.44-5.48,2.04-.39,3.71-1.67,5.11-3.23.2.07.4.14.62.19,1.19.3,2.55.34,3.35-.31.15-.12.17-.35.05-.49Z"/>
              <g>
                <path class="cls-27" d="M289.11,79.66c.22-.29.31-.68.26-1.04-.07-.48-.84-.47-.77.02.04.25-.01.45-.16.65-.29.4.38.77.67.37Z"/>
                <path class="cls-27" d="M290.43,80.01c-.04.16-.08.32-.12.48-.12.48.62.66.74.18.04-.16.08-.32.12-.48.12-.48-.62-.67-.74-.19Z"/>
                <path class="cls-27" d="M288.14,82.52c-.09.32-.26.61-.36.94-.15.47.6.66.74.19.1-.32.27-.61.36-.94.14-.47-.61-.66-.74-.19Z"/>
                <path class="cls-27" d="M286.22,80.99c.03.22,0,.35-.13.53-.3.4.38.77.67.38.21-.28.28-.58.23-.92-.07-.48-.84-.47-.77.02Z"/>
                <path class="cls-27" d="M286.98,86.72c.12-.48-.63-.66-.74-.19-.07.29-.12.56-.07.86.08.48.84.47.77-.02-.04-.23,0-.43.05-.65Z"/>
                <path class="cls-27" d="M289.1,88.43c-.02-.42.08-.84.06-1.27-.02-.49-.79-.47-.77.02.02.43-.08.84-.06,1.27.02.49.79.48.76-.02Z"/>
                <path class="cls-27" d="M288.65,91.26c.02-.49-.75-.47-.77.02,0,.14.04.26.03.39-.02.49.75.47.77-.02,0-.13-.04-.26-.03-.39Z"/>
                <path class="cls-27" d="M289.81,75.37c.08-.32.16-.64.24-.97.12-.48-.63-.67-.75-.19-.08.32-.16.65-.24.97-.12.48.62.67.75.19Z"/>
                <path class="cls-27" d="M297.12,72.2c-.05.2-.1.4-.15.6-.12.48.62.67.74.19.05-.2.1-.4.15-.6.12-.48-.62-.67-.74-.19Z"/>
                <path class="cls-27" d="M300.03,70.86c-.48-.12-.66.62-.19.74s.66-.62.19-.74Z"/>
                <path class="cls-27" d="M297.97,69.84c-.04.25-.02.5-.06.76-.08.48.66.67.74.19.04-.25.02-.51.06-.76.08-.48-.66-.67-.74-.19Z"/>
              </g>
            </g>
          </g>
        </g>
        <g>
          <g>
            <path class="cls-17" d="M140.33,62.24s2.14,18.7-17.1,20.3c-19.24,1.6-29.39,17.63-8.01,34.73,21.37,17.1,36.87,14.43,36.87,14.43l-11.76-69.46Z"/>
            <path class="cls-17" d="M140.64,53.17s12.32-16.36,28.22-15,57.62,16.62,48.12,84.11c-14.58,41.72-30.25,34.47-30.25,34.47l-35.27-18.17s1.76-21.05-.62-47.17-14.26-34.4-10.21-38.25Z"/>
            <path class="cls-47" d="M170.47,93.42s-9.22,24.96-8.35,42.05c-22.22,2.7-26.94-2.1-26.94-2.1,0,0,9.44-14.7,7.98-32.09,11.73-7.5,27.32-7.86,27.32-7.86Z"/>
            <path class="cls-47" d="M145.82,54.9c-.66-.83-1.54-1.47-2.58-1.65-1.36-.23-2.77.36-3.81,1.28s-1.78,2.12-2.47,3.31c-4.37,7.5-8.53,15.76-10.37,24.29-.94,4.33-1.33,8.78-1.15,13.21.13,3.14.26,6.78,1.77,9.62,3.06,5.78,10.94,5.16,16.38,4.2,27.19-4.8,25.97-16.4,30.98-26.79-5.16-4.71-11.54-7.53-17.35-11.28-2.57-1.66-5.04-3.55-6.92-5.99-.96-1.25-1.77-2.65-2.41-4.09-.69-1.53-.61-3.25-1.3-4.82-.2-.46-.46-.9-.78-1.3Z"/>
            <circle class="cls-47" cx="176.66" cy="90.63" r="8.41"/>
            <path class="cls-17" d="M157.83,84.39c.29-3.89-2.77-7.48-6.8-6.14-1.2.34-2.4.85-3.55,1.49.92-.95,2.03-1.73,3.3-2.23,4.46-2.01,8.65,2.52,7.05,6.88h0Z"/>
            <path class="cls-17" d="M137.74,76.72c.27-1.82-.23-3.72-1.72-4.83-.72-.59-1.24-.8-2.09-.4-.77.35-1.51.95-2.28,1.55.36-.92.96-1.75,1.86-2.34.45-.29,1.04-.49,1.68-.38.6.12,1,.48,1.44.83,1.61,1.31,2.06,3.77,1.1,5.56h0Z"/>
            <g>
              <path class="cls-17" d="M177.92,86.51c-.53,2.93-1.61,5.81-3.35,8.25,1.02-2.75,2.1-5.6,3.35-8.25h0Z"/>
              <path class="cls-17" d="M179.75,93.18c-.13-1.86-.63-4.17-2.92-2.95,0,0,.06-.43.06-.43.44.45.69.99.79,1.58.11.58,0,1.17-.25,1.67.19-1.05-.13-2.14-.9-2.85-.14-.12-.11-.36.06-.43.46-.22.94-.46,1.52-.42,1.84.12,1.94,2.48,1.64,3.84h0Z"/>
            </g>
          </g>
          <g>
            <path class="cls-28" d="M184.21,124.97s23.11,8.88,30.91,26.63c7.8,17.75,31.8,63.34,31.8,63.34l17.4-32.59,8.9,64.37-48.24,19.55-39.05-74.8s-11.63-50.9-1.71-66.5Z"/>
            <path class="cls-40" d="M215.12,151.61c1.66,3.77,4.05,8.81,6.78,14.39-9.13,8.99-22.01,23.67-28.34,40.12l-7.65-14.65s-11.63-50.9-1.71-66.5c0,0,23.11,8.88,30.91,26.63Z"/>
            <path class="cls-40" d="M140.7,128.38s-18.54-17.2-46.15-24.01c-16.21,56.17-8.83,196.66,104.79,248.96,77.12-10.07-10-35.72-10-35.72l-5.51-83.8s20.49-18.27,9.1-62.06c-11.4-43.79-8.72-46.79-8.72-46.79l-43.51,3.41Z"/>
            <path class="cls-47" d="M143.93,127.37l27.51-1.64c2.57,10.43,8.82,42.94-14.16,39.81-24.55-3.34-39.73-45.89-42.47-54.53,17.24,7.45,29.12,16.35,29.12,16.35Z"/>
          </g>
        </g>
        <g>
          <path class="cls-52" d="M130.75,238.27c0,74,59.99,133.98,133.98,133.98,74,0,133.99-59.99,133.99-133.98,0-74-59.99-133.98-133.99-133.98-74,0-133.98,59.99-133.98,133.98Z"/>
          <path class="cls-38" d="M164.7,204.32c0,55.25,44.79,100.03,100.03,100.03,55.25,0,100.03-44.79,100.03-100.03,0-55.25-44.79-100.03-100.03-100.03-55.24,0-100.03,44.79-100.03,100.03Z"/>
          <g>
            <path class="cls-27" d="M293.85,277.79c2.77-1.61,5.56-3.29,8.52-4.46,6.1-2.42,11.71-5.27,14.54-11.71,1.24-2.83,3.12-4.77,6.6-4.45,2.38.21,2.9-1.97,3.2-3.46,1.36-6.69,5.79-6.93,10.92-5.32,2.79.88,5.04.87,6.29-1.99,2.86-6.52,6.56-5,10.68-1.38,1.16,1.01,2.49,1.84,3.81,2.64,4.48,2.69,7.04,1.91,9.28-2.91.64-1.39,1.06-2.93,1.31-4.44.33-2.08,1.34-2.99,3.47-3.06,5.34-.19,5.99-2.38,2.98-6.62-1.16-1.63-1.71-4.36.26-5.75,1.64-1.16,3.8-.3,5.08,1.49,2.41,3.36,6.24,3.23,7.72.59,1.79-3.19,6.99-6.09,3.05-11.22-4.86-6.33-12.28-7.56-19.11-9.63-4.28-1.3-6.51,3.27-9.47,5.53-.24.18-.74.03-1.11.03-.17-.35-.49-.68-.45-.98.07-.56.47-1.09.49-1.64.26-5.83-.08-11.19-7.39-12.84-3.23-.73-4.23-3.79-4.7-6.68-.63-3.82-2.71-6.12-6.38-6.96-4.05-.93-6.52-2.47-8.07-7.17-.77-2.36-8.24.37-11.05-4.06-.1-.16-.26-.29-.39-.43-1.35-1.58-3.81-3.14-2.56-5.34,1.39-2.44,3.71-.42,5.56.12,1.63.48,3.64,1.52,4.37-.64.58-1.71-1.2-3.25-2.54-4.19-1-.7-2.6-.67-3.94-.73-3.66-.18-7.34-.15-11-.4-1.95-.14-4.21-.72-4.7-2.81-.53-2.26,1.67-2.93,3.35-3.73,1.74-.82,3.67-1.58,3.77-3.96.16-3.72,2.78-5.37,5.73-6.4,2.03-.71,3.07-1.7,3.42-3.82.34-2.03,1.67-3.69,3.78-3.9,2.05-.2,3.03,1.77,3.68,3.26,2.73,6.19,7.01,11.43,10.31,17.26.59,1.04.98,2.27,2.37,2.06.53-.08,1.32-1.02,1.32-1.57.05-6.09,4.94-6.82,9.1-8.08,2.3-.7,3.11-2.12,3.3-4.13.02-.2.01-.38,0-.55,23.4,23.3,38.23,55.2,39.37,90.57-1.96,1.65-4.28,2.97-7.05,3.89-7.93,2.62-14.12,7.62-19.56,13.66-1.6,1.79-3.3,2.52-5.57,2.41-2.52-.12-5.32-.58-6.48,2.47-1.03,2.72-.32,5.32,1.45,7.64,6.02,7.87,6.43,16.68,4.41,25.95-1.76,8.09-7.51,12.97-14.03,16.88-6,3.6-7.82,8.76-7.23,15.14.72,7.84.08,15.72.47,23.57-5.9,4.43-12.18,8.38-18.78,11.8-.23-.45-.54-.87-1-1.26-3.75-3.21-3.93-10.35-11.03-9.98-.33.01-.82-1.24-1.08-1.96-1.29-3.61-4.22-7.65-3.46-10.78,2.07-8.61-3.89-9.02-9.05-11.27-7.87-3.43-9.44-5.78-7.42-11.8,2.29-6.8.96-12.33-2.92-18.12-4.42-6.57-3.19-10.44,3.55-14.36Z"/>
            <path class="cls-27" d="M133.19,221.44c.35,11,6.58,16.1,15.98,19.22,2.67.88,7.54,1.84,6.7,4.61-1.09,3.6-4.93.08-7.58-.09-1.03-.06-2.03-1.49-3.16-.55-1.4,1.17-.24,2.62.18,3.72,2.47,6.56,4.48,13.22,8.13,19.41,2.54,4.3,7.35,7.58,7.09,13.51-.26,5.98.16,12.01-.29,17.97-.35,4.69.68,7.95,5.2,10.12,4.11,1.97,7.37,4.72,5.01,10.26-.92,2.15.69,4.12,2.19,5.57,1.48,1.43,2.62,2.89,2.32,4.98-.63,4.35,2.03,6.87,4.58,9.87,5.27,6.19,12.98,4.5,19.44,6.73,2.84.98,3.63-1.24,3.37-3.74-.54-5.14.62-9.99,2.54-14.71.32-.06.63-.16.92-.3,4.95-9.11,6.16-18.49,2.24-28.31-.49-1.22-1.25-3.09-.72-3.82,4.47-6.21,1.5-14.14,5.34-20.71,3.52-6.03,2.76-6.48-1.86-11.74,3.74-1.63,7.28-3.5,10.22-6.29.41-.39,1.25-.97,1.45-.83,4.59,3.14,10.49-.45,15.01,3,3.68,2.8,8.11,1.95,10.78-1.92,1.32-1.91,2.92-3.66,4.03-5.68,3.16-5.75,10.01-11.94,8.54-17.28-3.87-14.07-5.41-30.46-20.03-38.75-7.03-3.99-14.66-7.43-24.04-4.56-5.01,1.53-8.58,3.12-11.11,7.42-1.32,2.24-2.48,2.75-4.8.59-2.81-2.6-6.37-1.67-9.75-.49-4.02,1.4-8.03,2.45-12.47,1.69-4.04-.7-5.75-3.72-6.26-6.66-.59-3.45,3.39-3.12,5.54-3.66,4.31-1.08,8.02-2.69,10.28-6.77.96-1.73,2.21-3.71,4.44-2.77,1.98.84,2.91,2.84,2.81,5.22-.03.81-1.72,2.17.5,2.58,1.08.2,1.8-.41,2.53-1.1,1.54-1.44,2.05-3.23,1.87-5.25-.21-2.43.38-4.65,1.91-6.53.78-.96,1.44-2.67,3.16-1.67,1.74,1.02.83,2.49-.01,3.44-2.23,2.54.02,4.61.58,6.8.35,1.36,1.55,2.38,3.09,2,2.39-.6.66-1.94.44-3.08-.98-5.05,3.83-5.93,6.44-7.83,2.48-1.8,5.88-.9,8.26,1.76,3.35,3.75,7.19,6.94,10.02,11.32,3.23,5.01,7.23.08,10.71-.81,4.61-1.18,2.88-5.42,2.62-8.37-.27-3.17-2.36-5.23-6.03-4.57-.38.07-.78.06-1.16,0-2.64-.44-6.16,1.48-7.5-2.48-1.16-3.45,1.19-5.34,4-6.58-1.18-1.87-2.62-1.4-3.87-1.52-.31-.48-.61-.96-.92-1.44,5.53-1.67,2.78-5.65,2.44-8.91-.38-3.6,1.91-6.51,2.77-9.95-8.63,1.51-11.67,7.11-8.58,15.07.68,1.74-.44,1.94-1.79,1.76v.05c-.39-.4-.79-.8-1.19-1.2h.05c-3.04,0-2.3-3.05-3.59-4.46-2.46-.24-4.29-.83-2.61-3.92.53-.97.98-2.42-.49-2.97-1.27-.48-2.86-.43-3.34,1.3-.96,3.42-4.46,5.54-6.56,4.91-3.52-1.06-8.3-1.97-9.12-7.01-.55-3.38-4.1-4.43-5.33-7.14,1.95-1.79,5.22,2.97,5.81-.62.55-3.35.92-7.99-4.6-9.56,6.47-.86,10.18,3.15,9.93,9.97-.05,1.45-.94,2.71-.14,4.39,1.89,3.94,4.65,4.67,7.16,1.17,1.54-2.15,3.16-2.47,5.44-2.13,1.54.23,3.47,2.45,4.56.19,1.06-2.18,1.81-5.73-.19-7.11-4.76-3.27-7.33-8.93-11.5-11.79-2.95-2.03-6.35-3.65-9.91-4.17-4.94,2.66-9.7,5.62-14.25,8.87,0,0,.02,0,.02,0-.58,2.64-2.78,4.03-4.47,5.81-.85-.11-1.61-.35-2.33-.65-23.95,19.47-41.03,47.05-47.09,78.56.69-.88,2.31-1.07,3.56-1.09,1.65-.04,3.03-.47,4.07-1.81,1.77-2.29,4.2-4.5,6.68-1.98,2.22,2.26-.03,4.89-1.73,6.88-1.96,2.29-3.79,4.36-7.61,2.68-2.82-1.23-5.11-1.05-4.95,3.93ZM160.54,229.36h0c4.98-3.38,2.84-8.73,3.61-13.26.72-4.23,3.15-7.02,6.99-8.47,1.79-.68,4.04.85,4.45,1.98,1.29,3.57-.71,6.8-2.29,9.95-.09.17-.1.48-.22.52-6,2.3-5.72,7.96-7.1,12.85-.71,2.54-2.35,4.82-3.58,7.21-1.49.62-1.42,3.13-4.13,3.26.69-4.94-2.61-10,2.27-14.05Z"/>
            <path class="cls-12" d="M254.45,114.2c-1.88-3.5-2.59-6.71-2.25-9.32,4.12-.38,8.31-.59,12.53-.59,12.76,0,25.1,1.78,36.79,5.11-.58.58-1.47.82-1.9,1.42-2.47,3.5-8.33,7.09-6.06,10.84,3.28,5.41,2.01,9.34-.05,13.97-.82,1.83-.47,4.84-3.2,4.92-2.8.09-5.12-1.66-6.37-4.26-2.52-5.23-6.86-7.85-12.09-10-6.58-2.71-13.63-5.08-17.4-12.09Z"/>
            <path class="cls-12" d="M337.6,132.44c-1.53-.19-2.38-1.31-3.32-2.67-5.13-7.45-7.13-7.86-15.12-4.02-2.18,1.05-3.66,2.83-5.49,4.22-2.55,1.94-5.16,1.87-7.25-.55-2.57-2.98.75-3.76,2.24-5.17,1.25-1.17,2.55-2.2,3.61-3.67,1.29-1.78,5.46-3.17,9.33-3.66,4.99,2.34,9.82,4.98,14.45,7.9.76,1.76,1.9,3.42,3.12,5.09,1.06,1.44.69,2.58-1.57,2.52Z"/>
            <path class="cls-12" d="M257.02,131.81c.18,2.29-2.06,4.18-3.58,3.56-2.21-.91-5.84-1.14-6.09-4.31-.24-3.02,2.66-1.85,4.38-2.15,2.26.08,5.02-.44,5.28,2.9Z"/>
            <path class="cls-12" d="M321.44,130.16c1.01.3,3.36-.62,2.85,1.33-.6,2.27-2.42,4.63-5.27,4.27-1.43-.18-4.43-.15-4.06-2.3.54-3.15,3.67-3.27,6.48-3.3Z"/>
            <path class="cls-12" d="M309.1,161.52c1.55-.18,3.27-.15,2.95,2.23-.21,1.57.37,3.75-2.34,3.72-2.03-.02-2.97-1.43-3.59-3.1,0-2.04,1.41-2.67,2.98-2.85Z"/>
            <path class="cls-12" d="M239.83,157.35c-2.06-.41-3.17-1.6-3.09-3.64.08-1.85,1.09-2.65,3.04-2.63,2.34.03,2.34,1.53,2.32,3.14-.03,1.58,0,3.25-2.28,3.14Z"/>
          </g>
          <g>
            <path class="cls-34" d="M293.85,277.79c2.77-1.61,5.56-3.29,8.52-4.46,6.1-2.42,11.71-5.27,14.54-11.71,1.24-2.83,3.12-4.77,6.6-4.45,2.38.21,2.9-1.97,3.2-3.46,1.36-6.69,5.79-6.93,10.92-5.32,2.79.88,5.04.87,6.29-1.99,2.86-6.52,6.56-5,10.68-1.38.36.32.74.61,1.13.9-11.82,25.82-34.31,45.74-61.83,54.12-.61-2.67-1.84-5.25-3.61-7.88-4.42-6.57-3.19-10.44,3.55-14.36Z"/>
            <path class="cls-34" d="M354.51,196.2c-3.23-.73-4.23-3.79-4.7-6.68-.63-3.82-2.71-6.12-6.38-6.96-4.05-.93-6.52-2.47-8.07-7.17-.77-2.36-8.24.37-11.05-4.06-.1-.16-.26-.29-.39-.43-1.35-1.58-3.81-3.14-2.56-5.34,1.39-2.44,3.71-.42,5.56.12,1.63.48,3.64,1.52,4.37-.64.58-1.71-1.2-3.25-2.54-4.19-1-.7-2.6-.67-3.94-.73-3.66-.18-7.34-.15-11-.4-1.95-.14-4.21-.72-4.7-2.81-.53-2.26,1.67-2.93,3.35-3.73,1.74-.82,3.67-1.58,3.77-3.96.16-3.72,2.78-5.37,5.73-6.4,2.03-.71,3.07-1.7,3.42-3.82.34-2.03,1.67-3.69,3.78-3.9,2.05-.2,3.03,1.77,3.68,3.26,2.73,6.19,7.01,11.43,10.31,17.26.59,1.04.98,2.27,2.37,2.06.53-.08,1.32-1.02,1.32-1.57.02-2.64.95-4.26,2.34-5.37,9.85,15.49,15.56,33.88,15.56,53.59,0,1.96-.06,3.91-.17,5.84-.52.54-1.06,1.05-1.62,1.47-.24.18-.74.03-1.11.03-.17-.35-.49-.68-.45-.98.07-.56.47-1.09.49-1.64.26-5.83-.08-11.19-7.39-12.84Z"/>
            <path class="cls-34" d="M218.32,143.11c-2.28-.34-3.9-.01-5.44,2.13-2.51,3.5-5.27,2.78-7.16-1.17-.8-1.68.08-2.94.14-4.39.22-5.98-2.6-9.79-7.65-10.07,2.96-2.64,6.07-5.1,9.33-7.37,1.28.63,2.51,1.37,3.66,2.16,4.17,2.87,6.73,8.52,11.5,11.79,2,1.37,1.25,4.93.19,7.11-1.1,2.26-3.02.04-4.56-.19Z"/>
            <path class="cls-34" d="M197.44,130.31c3.92,1.94,3.59,5.97,3.09,8.97-.59,3.59-3.86-1.18-5.81.62,1.23,2.71,4.78,3.76,5.33,7.14.82,5.04,5.61,5.95,9.12,7.01,2.11.63,5.61-1.49,6.56-4.91.48-1.74,2.07-1.78,3.34-1.3,1.47.55,1.01,2,.49,2.97-1.68,3.09.16,3.68,2.61,3.92,1.29,1.41.55,4.46,3.59,4.45h-.05c.4.41.8.81,1.19,1.21v-.05c1.35.18,2.46-.01,1.79-1.76-3.09-7.96-.05-13.56,8.58-15.07-.86,3.43-3.15,6.34-2.77,9.95.34,3.26,3.09,7.24-2.44,8.91.31.48.61.96.92,1.44,1.26.12,2.69-.35,3.87,1.52-2.82,1.25-5.16,3.13-4,6.58,1.34,3.97,4.86,2.04,7.5,2.48.38.06.78.07,1.16,0,3.67-.65,5.76,1.4,6.03,4.57.25,2.95,1.99,7.19-2.62,8.37-3.48.89-7.47,5.81-10.71.81-2.83-4.38-6.67-7.57-10.02-11.32-2.38-2.66-5.78-3.56-8.26-1.76-2.61,1.9-7.42,2.78-6.44,7.83.22,1.14,1.95,2.48-.44,3.08-1.54.38-2.74-.64-3.09-2-.56-2.19-2.81-4.26-.58-6.8.84-.96,1.76-2.42.01-3.44-1.72-1-2.38.7-3.16,1.67-1.53,1.88-2.13,4.1-1.91,6.53.18,2.03-.33,3.81-1.87,5.25-.73.69-1.45,1.3-2.53,1.1-2.22-.41-.54-1.78-.5-2.58.1-2.38-.82-4.38-2.81-5.22-2.24-.95-3.49,1.03-4.44,2.77-2.25,4.08-5.97,5.69-10.28,6.77-2.15.54-6.14.21-5.54,3.66.5,2.94,2.22,5.97,6.26,6.66,4.44.77,8.46-.28,12.47-1.69,3.38-1.18,6.95-2.12,9.75.49,2.32,2.16,3.48,1.65,4.8-.59,2.53-4.3,6.11-5.89,11.11-7.42,9.38-2.86,17.01.57,24.04,4.56,14.62,8.29,16.17,24.68,20.03,38.75,1.47,5.34-5.38,11.53-8.54,17.28-1.11,2.02-2.7,3.77-4.03,5.68-2.68,3.87-7.1,4.72-10.78,1.92-4.52-3.44-10.42.14-15.01-3-.2-.14-1.04.44-1.45.83-2.95,2.79-6.48,4.65-10.22,6.29,4.62,5.27,5.38,5.71,1.86,11.74-2.35,4.03-2.15,8.56-2.67,12.89-21.18-13.87-36.78-35.55-42.7-60.96.79-2.96,2.11-5.62,5.77-7.02.12-.05.13-.35.22-.52,1.59-3.15,3.58-6.38,2.29-9.95-.41-1.13-2.66-2.65-4.45-1.98-2.82,1.06-4.87,2.86-6.05,5.42-.25-2.88-.38-5.79-.38-8.73,0-29.33,12.62-55.72,32.74-74.02Z"/>
            <path class="cls-34" d="M254.45,114.2c-1.83-3.41-2.56-6.55-2.28-9.13,4.12-.52,8.31-.78,12.57-.78,12.34,0,24.16,2.24,35.08,6.33-.07.06-.14.13-.19.2-2.47,3.5-8.33,7.09-6.06,10.84,3.28,5.41,2.01,9.34-.05,13.97-.82,1.83-.47,4.84-3.2,4.92-2.8.09-5.12-1.66-6.37-4.26-2.52-5.23-6.86-7.85-12.09-10-6.58-2.71-13.63-5.08-17.4-12.09Z"/>
            <path class="cls-34" d="M313.67,129.98c-2.55,1.94-5.16,1.87-7.25-.55-2.57-2.98.75-3.76,2.24-5.17,1.25-1.17,2.55-2.2,3.61-3.67.63-.87,1.96-1.64,3.59-2.26,2.82,1.68,5.54,3.49,8.17,5.43-1.36.39-2.94,1.07-4.88,2-2.18,1.05-3.66,2.83-5.49,4.22Z"/>
            <path class="cls-34" d="M257.02,131.81c.18,2.29-2.06,4.18-3.58,3.56-2.21-.91-5.84-1.14-6.09-4.31-.24-3.02,2.66-1.85,4.38-2.15,2.26.08,5.02-.44,5.28,2.9Z"/>
            <path class="cls-34" d="M319.03,135.77c-1.43-.18-4.43-.15-4.06-2.3.54-3.15,3.67-3.27,6.48-3.3,1.01.3,3.36-.62,2.85,1.33-.6,2.27-2.42,4.63-5.27,4.27Z"/>
            <path class="cls-34" d="M309.1,161.52c1.55-.18,3.27-.15,2.95,2.23-.21,1.57.37,3.75-2.34,3.72-2.03-.02-2.97-1.43-3.59-3.1,0-2.04,1.41-2.67,2.98-2.85Z"/>
          </g>
          <path class="cls-16" d="M264.73,354.13c70.95,0,129.01-55.15,133.67-124.92.2,3,.31,6.02.31,9.06,0,74-59.99,133.98-133.99,133.98-74,0-133.98-59.99-133.98-133.98,0-3.05.11-6.07.31-9.06,4.66,69.77,62.72,124.92,133.67,124.92Z"/>
        </g>
        <g>
          <path class="cls-47" d="M95.77,105.03s-37.21,1.21-36.01,37.27c1.2,36.06,32.89,106.7,61.78,127.83,21.59,13.2,29.77,12.03,59.87-8.98,25.62-17.88,48.12-45.31,54.25-53.08,1.09-1.38,2.58-2.39,4.27-2.87l17.26-4.95c1.09-.31,2.24-.41,3.37-.26,3.92.5,13.74,1.52,17.54-.23,4.8-2.21,0-8.29,0-8.29,0,0,11.4-1.72,11.4-7.72l-2.61-4.18c-.21-.34-.18-.78.1-1.06,1.16-1.17,3.62-4.46-1.69-7.35-6.6-3.6-19.19-5.4-19.19-5.4,0,0,4.2-1.67,12-3.23,7.8-1.56,14.03-7.08,5.04-9.48-9-2.4-24.23-1.68-30.23.71-5.51,2.21-26.56,22.14-29.94,25.36-.31.29-.63.56-.98.8-6.21,4.33-65.53,45.6-74.05,48.34-14.4-20.51-38.21-69.84-38.39-85.96-.6-24.53-13.78-37.27-13.78-37.27Z"/>
          <path class="cls-40" d="M93.78,104.4c1.3-.17,2.58.26,3.51,1.18,3.95,3.9,14.32,15.99,14.8,35.81.04,3.94,1.02,9.27,1.35,17.76-12.21-3.11-32.94-5.89-50.58,4.1-1.8-7.71-2.88-14.83-3.09-20.95-1.03-30.99,26.31-36.86,34.01-37.9Z"/>
        </g>
        <g>
          <path class="cls-43" d="M300.19,212.76h87.39l-12.7-3.81s-1.63-7.41-5.91-7.41-7.17,4.58-7.17,4.58c0,0,.13-15.37-10.81-15.37s-13.33,15.04-13.33,15.04c0,0-2.64-7.52-8.55-7.52s-8.17,9.59-8.17,9.59l-20.75,4.9Z"/>
          <path class="cls-43" d="M221.11,285.8h87.39l-12.7-3.81s-1.63-7.41-5.91-7.41-7.17,4.58-7.17,4.58c0,0,.13-15.37-10.81-15.37s-13.33,15.04-13.33,15.04c0,0-2.64-7.52-8.55-7.52s-8.17,9.59-8.17,9.59l-20.75,4.9Z"/>
        </g>
        <g>
          <polygon class="cls-18" points="367.71 112.77 367.72 112.77 367.71 112.77 367.71 112.77"/>
          <polygon class="cls-18" points="355.36 122.33 355.36 122.32 355.35 122.32 355.36 122.33"/>
          <path class="cls-21" d="M373.54,119.33c-.19-1.12-1.27-2.12-2.43-2.3h0s0,0,0,0c.29,1.33.34,2.66-.06,3.98-.16.51-.42.97-.66,1.44,0,0,0,0,0,0h0c.13.05.25.11.38.15,1.29.45,2.58.72,3.8-.21l.19-.27c-.04-.07-.06-.16-.12-.21-.7-.72-.94-1.63-1.1-2.59Z"/>
          <path class="cls-33" d="M338.56,104.85c.01.18.04.35.18.48,0,0,0,0,0,0,.35-.33.69-.66,1.04-.99-.06-2.19.48-4.21,1.82-5.96.8-1.05,1.81-1.87,2.95-2.54-.1-.4-.4-.73-.41-1.16,0,0,0,0,0,0-.73.34-1.35.84-1.98,1.33-.39.31-.67.72-1.1.98l-1.14,1.6c-.02.06-.02.13-.05.19-1.07,1.88-1.43,3.92-1.31,6.06Z"/>
          <path class="cls-11" d="M360.55,128.79c-.48-.18-1-.23-1.46-.45-.21-.09-.3-.18-.18-.39-1-.6-1.87-1.32-2.48-2.33-.41-.69-.66-1.44-.91-2.19-.56.48-1.17.87-1.92.96-.02.02-.04.04-.06.05h-.06c-2.1,0-3.75-1.67-3.71-3.75.01-.97.46-1.65,1.37-1.96,1.07-.36,1.79-1.12,2.42-1.99.29-.4.57-.81.88-1.19.6-.75,1.25-.93,2.17-.63.02.02.04.04.06.07.5.15.94.43,1.35.77.26-.55.55-1.09.93-1.58h-.01c-.83-.71-1.34-1.62-1.54-2.7-.07-.4-.01-.8.16-1.19.14-.31.31-.32.57-.21.26.11.5.28.8.17-1.91-1.36-3.82-2.72-5.74-4.09-.14.18-.29.36-.34.59-.56.77-1.08,1.58-1.78,2.24-.87.81-1.85,1.11-3.01.75-.4-.12-.81-.23-1.21-.35-1.3-.39-2.53-.25-3.72.4-.39.21-.79.42-1.23.52-1.28.28-2.27-.27-3.15-1.09-.5-.48-.92-1.04-1.25-1.65-.06-.1-.1-.24-.24-.27-1.04,1.58-2.12,3.12-3.1,4.73-.92,1.51-1.86,3-2.78,4.5-.47.77-.91,1.55-1.37,2.33,1,.71,2,1.42,3,2.13.43-.5.87-1.01,1.3-1.52.49-.58.99-1.16,1.47-1.75.18-.21.3-.21.52-.04.76.57,1.55,1.12,2.33,1.67,1.22.88,2.45,1.75,3.68,2.63,1.15.82,2.3,1.65,3.46,2.46.2.14.27.24.12.48-.75,1.21-1.48,2.44-2.22,3.66,1.01.73,2.02,1.45,3.03,2.17.47-.55.94-1.1,1.41-1.65.68-.79,1.37-1.58,2.05-2.38.14-.17.24-.19.43-.05.62.47,1.25.92,1.88,1.37.16.12.17.21.06.37-.23.35-.45.72-.66,1.08-.69,1.16-1.38,2.32-2.07,3.47.99.72,1.99,1.43,2.99,2.14.16-.17.32-.34.47-.51,1.17-1.35,2.33-2.71,3.48-4.07.14-.15.25-.18.45-.14.7.15,1.41.27,2.12,0,.12.03.23.01.34-.07-.14-.13-.16-.24.03-.35.25-.14.48-.32.75-.42.19-.08.26-.2.32-.38.07-.21.07-.28-.2-.37ZM347.07,117.5c-.4.01-.78-.07-1.17-.15-.83-.16-1.62-.09-2.42.2-1.1.4-2.03.01-2.57-1.03-.57-1.11-.35-2.47.54-3.22.96-.83,2.26-.85,3.47.02.42.68,1.13.64,1.94.48,1.05-.19,1.97.62,2.05,1.69.08,1.03-.79,1.98-1.84,2.01Z"/>
          <path class="cls-7" d="M337.5,107.57c.33.62.75,1.17,1.26,1.65.88.83,1.87,1.37,3.14,1.09.45-.1.84-.31,1.24-.52,1.18-.65,2.42-.79,3.72-.4.4.12.81.23,1.21.35,1.16.36,2.14.06,3-.76.7-.66,1.22-1.46,1.78-2.24,0,0,0,0,0,0,.05-.23.2-.41.35-.59,0,0,0,0,0,0-1.16-.82-2.27-1.71-3.5-2.43-2.28-1.32-4.68-1.54-7.19-.79-.99.3-1.86.84-2.72,1.39h0c-.35.33-.69.66-1.04.99,0,0,0,0,0,0-.31.38-.67.72-.91,1.16-.09.31-.25.56-.53.72-.01.03-.03.06-.04.09,0,0,0,0,0,0,.14.03.18.16.24.26Z"/>
          <path class="cls-11" d="M338.63,119.35h0c-.76,1.27-1.53,2.54-2.29,3.81-.06.21.11.28.24.37.91.65,1.81,1.29,2.72,1.94,1.01-1.16,2.01-2.33,3.02-3.49h0c-1.23-.88-2.45-1.75-3.68-2.63Z"/>
          <path class="cls-41" d="M336.57,123.54c-.13-.09-.3-.15-.24-.37-.3.51-.61,1.03-.91,1.54-.31.51-.22,1.05.27,1.41.67.49,1.35.98,2.03,1.45.77.53,1.35.26,1.44-.67.05-.47.09-.95.13-1.42h0c-.91-.65-1.81-1.29-2.72-1.94Z"/>
          <path class="cls-41" d="M330.01,118.86c-.29.46-.6.91-.87,1.38-.33.6-.21,1.05.34,1.45.66.48,1.32.96,2,1.42.73.49,1.31.22,1.4-.66.05-.49.08-.98.12-1.46h0c-1-.71-2-1.42-2.99-2.13Z"/>
          <path class="cls-41" d="M343.67,128.58c-.28.47-.55.94-.84,1.41-.32.52-.23,1.04.26,1.4.67.49,1.35.98,2.04,1.45.77.53,1.35.25,1.44-.67.05-.47.02-.95.13-1.42h0c-1.01-.72-2.02-1.44-3.03-2.17Z"/>
          <path class="cls-41" d="M349.8,132.96c-.29.46-.6.91-.86,1.39-.34.62-.22,1.06.37,1.48.65.47,1.3.95,1.97,1.4.73.49,1.31.21,1.4-.66.05-.49.08-.98.12-1.47h0c-1-.71-2-1.42-2.99-2.13Z"/>
          <path class="cls-11" d="M358.91,127.95s0,0,0,0c-.11.21-.02.3.18.4.47.22.98.27,1.46.44.27.1.27.17.2.38-.06.18-.13.3-.33.38-.26.11-.5.28-.75.42-.19.11-.17.22-.03.35.89-.27,1.42-.95,1.89-1.68h0c-.9-.12-1.8-.3-2.63-.68Z"/>
          <path class="cls-22" d="M337.84,106.49c-.18.24-.35.48-.53.72h0s0,0,0,0c.28-.17.44-.42.53-.72Z"/>
          <path class="cls-9" d="M371.11,117.03c-.11-.13-.11-.3-.16-.45-.45-1.24-1.2-2.28-2.18-3.16-.29-.21-.58-.41-.88-.62-.05-.01-.11-.02-.17-.03h0c-.94-.6-1.97-.87-3.07-.95-.15-.01-.3-.02-.44-.04-.14.01-.28.01-.42.01-1.5.13-2.87.6-4.06,1.56-.3.24-.56.52-.78.83h.01c-.38.49-.67,1.03-.93,1.58-.46.85-.93,1.7-1.45,2.52.03.02.07.06.1.06,1.41-.47,2.73-.07,4,.51,2.29,1.04,4.23,2.53,5.66,4.63.02.02.04.04.06.05.01.04.02.08.03.12.45.68.69,1.43.69,2.24,0,.1,0,.19-.01.28.79-.94,1.53-1.92,2.42-2.76.31-.3.5-.71.87-.96.24-.47.5-.92.66-1.43.4-1.33.35-2.66.06-3.99ZM362.56,117.34c-.27.08-.52.03-.69-.22-.25-.36-.08-.65.15-.93.17-.28.39-.51.76-.42.28.06.45.25.48.54.03.34-.37.93-.7,1.03ZM366.5,119.38c.29-.41.57-.53.88-.38.22.11.37.29.35.55-.03.42-.28.74-.63.95-.2.13-.45.09-.65-.07-.3-.24-.28-.59.05-1.05Z"/>
          <path class="cls-41" d="M344.91,96.01c.49.31,1.01.4,1.56.2.56-.2,1.12-.44,1.63-.76.46-.28.88-.59,1.17-1.06.37-.6.16-1.33-.49-1.6-1-.41-2-.23-3.01.02-.99.25-1.57.83-1.64,1.87h0c.02.43.32.76.41,1.16.15-.01.25.1.36.17Z"/>
          <path class="cls-21" d="M358.13,110.08c-.26-.11-.44-.1-.57.21-.17.39-.23.78-.16,1.19.2,1.08.7,1.99,1.54,2.7.22-.32.48-.59.78-.83,1.18-.96,2.55-1.43,4.05-1.56-.4-.68-1-1.14-1.72-1.42-.6-.23-1.22-.18-1.85-.07-.42.08-.86.15-1.28-.04-.3.1-.55-.07-.8-.17Z"/>
          <path class="cls-21" d="M364.64,111.82c1.1.08,2.13.35,3.07.94,0,0,0,0,0,0,.06.01.12.03.18.04h0c.03-.8-.01-1.61-.09-2.41-.05-.5-.33-.87-.84-1.01-.5-.14-.88.1-1.19.46-.54.63-1.05,1.29-1.58,1.93h0c.15.01.3.03.44.04Z"/>
          <path class="cls-21" d="M370.95,116.58s0,0,0,0c.45-.72.9-1.43,1.34-2.15.26-.43.31-.89-.03-1.3-.35-.43-.83-.51-1.34-.36-.72.2-1.43.43-2.15.65h0c.98.88,1.73,1.92,2.18,3.16Z"/>
          <path class="cls-41" d="M347.07,117.5c1.05-.04,1.91-.98,1.84-2.01-.08-1.07-1-1.88-2.05-1.68-.82.15-1.52.2-1.94-.49-1.22-.87-2.51-.85-3.48-.02-.88.76-1.11,2.11-.54,3.22.54,1.04,1.47,1.43,2.57,1.03.79-.29,1.59-.35,2.42-.19.39.07.78.16,1.18.15Z"/>
          <path class="cls-41" d="M358.02,115.76c-.46.85-.93,1.7-1.45,2.52-.06.07-.11.16-.19.21-.81.51-1.05,1.32-1.12,2.2-.04.54-.05,1.09.09,1.63h.01c.05.38.1.74.16,1.11-.56.48-1.17.87-1.92.96-.02.02-.04.04-.06.05-2.13.03-3.81-1.65-3.77-3.75.01-.97.46-1.65,1.37-1.96,1.07-.36,1.79-1.12,2.42-1.99.29-.4.57-.81.88-1.19.6-.75,1.25-.93,2.17-.63.02.02.04.04.06.07.5.15.94.43,1.35.77Z"/>
          <path class="cls-48" d="M366.42,123.65s-.02-.08-.03-.12c-.02-.01-.04-.03-.06-.05-1.43-2.1-3.37-3.59-5.66-4.63-1.27-.58-2.59-.98-4-.51-.03,0-.07-.04-.1-.06-.06.07-.11.16-.19.21-.81.51-1.05,1.32-1.12,2.2-.04.54-.05,1.09.09,1.63h.01c.05.38.1.74.16,1.11.25.75.5,1.5.91,2.19.61,1.01,1.48,1.73,2.48,2.33.83.38,1.72.56,2.63.68h.14c.91,0,1.82-.09,2.7-.32,1.22-.31,2.29-.82,2.72-2.14.06-.92-.18-1.76-.68-2.52ZM358.29,122.5c.17-.28.37-.55.57-.8.24-.3.65-.36.91-.16.25.2.31.58.12.89-.08.14-.18.27-.28.4-.1.14-.18.28-.29.4-.24.28-.62.34-.88.15-.26-.18-.34-.57-.15-.88ZM362.19,125.93c-.09,0-.18-.02-.28-.05-.39-.42-.4-.61-.08-1.07.16-.22.31-.45.48-.66.23-.3.59-.37.86-.18.27.18.35.56.16.87-.21.33-.45.64-.68.97-.15.08-.3.12-.46.12Z"/>
          <path class="cls-24" d="M363.33,124.84c.19-.31.11-.68-.16-.87-.27-.19-.63-.12-.86.18-.17.22-.32.44-.48.66-.33.46-.31.65.08,1.07.26.09.5.05.74-.07,0,0,0,0,0,0,.23-.32.47-.63.68-.97Z"/>
          <path class="cls-24" d="M361.87,117.12c.17.25.41.3.69.22.33-.1.74-.69.7-1.03-.03-.29-.2-.48-.48-.54-.37-.08-.59.14-.76.43-.23.28-.39.57-.15.93Z"/>
          <path class="cls-24" d="M367.38,119c-.31-.15-.59-.02-.88.38-.33.46-.35.81-.04,1.05.2.16.45.2.65.07.34-.22.6-.53.63-.96.02-.26-.13-.44-.36-.55Z"/>
          <path class="cls-1" d="M359.32,123.23c.11-.12.19-.26.29-.4h0c.1-.13.2-.26.28-.4.19-.32.13-.69-.12-.89-.26-.2-.67-.15-.91.15-.2.26-.4.52-.57.8-.19.31-.11.7.15.88.26.18.64.13.88-.15Z"/>
        </g>
        <g>
          <polygon class="cls-18" points="396.1 200.52 396.1 200.52 396.09 200.52 396.1 200.52"/>
          <polygon class="cls-18" points="396.09 200.52 396.09 200.52 396.09 200.52 396.09 200.52 396.09 200.52"/>
          <path class="cls-51" d="M405.01,203.42c-.25-.82-.82-1.4-1.46-1.92-1.26-1.01-2.71-1.39-4.3-1.27-.86.07-1.66.34-2.44.71-.34.17-.49.44-.59.77-.18.6-.27,1.21-.25,1.83,0,.02,0,.05-.01.07h0s0,0,0,0c.05.51.11,1.02.22,1.52h0c.18.67.44,1.31.76,1.92.34.56.73,1.07,1.24,1.48.15.12.31.24.47.36,0,0,0,0,0,0,.06.03.11.05.17.08.53.29,1.1.45,1.71.46.24,0,.48-.02.73-.03l.79-.22c.15-.07.31-.14.46-.22,2.1-1.08,2.93-3.52,2.5-5.54ZM398.78,202.57c-.07-.15-.02-.29.14-.37.11-.05.21-.1.24-.23.06-.22-.11-.39-.37-.37-.24.02-.4-.14-.34-.35.03-.11.11-.17.24-.21.43-.11.92.18,1.03.63.12.45-.15.94-.58,1.06-.15.04-.28,0-.35-.16ZM398.89,205.42c-.27-.15-.44-.37-.52-.67-.09-.3-.05-.59.11-.86.1-.17.25-.22.4-.14.15.08.18.24.1.42-.16.32-.09.57.21.76.17.11.22.26.13.41-.09.15-.25.18-.43.08ZM400.17,207.6c-.05-.15,0-.29.16-.37.22-.11.28-.21.23-.38-.05-.17-.14-.21-.4-.2-.16.01-.3-.09-.32-.25-.02-.17.06-.27.22-.31.44-.13.93.15,1.05.61.12.46-.14.93-.58,1.05-.17.05-.31-.01-.36-.16Z"/>
          <path class="cls-19" d="M394.73,191.48c-.32.2-.49.5-.52.87,0,.11-.02.22-.03.33h0c-.02.47-.03.95,0,1.42.03.37.04.73.12,1.09.5-.56,1.09-1.01,1.76-1.36.07-.04.15-.06.22-.08h0s0,0,0,0c0-.02.02-.03.03-.05,0,0,0,0,0,0h0c-.04-.33-.02-.65,0-.97.02-.22.03-.43-.02-.64-.07-.25-.22-.43-.43-.58-.2-.14-.43-.17-.65-.2l-.47.13s-.02.04-.04.05Z"/>
          <path class="cls-20" d="M397.23,193.38c.82-.21,1.66-.26,2.5-.08.13.03.2.05.07.17-.34.32-.63.68-.99.97.24.86.48,1.72.71,2.58,0,0,0,0,0,0,0,0,0,0,0,0,.44.06.87.2,1.3.31.43.1.85.22,1.27.33.46-.47.92-.95,1.38-1.42.12-.12.24-.25.36-.37h0c-.03-.06-.06-.11-.09-.17-.29-.21-.51-.5-.78-.73-.78-.67-1.63-1.2-2.61-1.52-.08-.03-.16-.05-.25-.07-.13-.03-.13-.09-.04-.17.13-.13.26-.26.39-.4.03-.03.05-.06.05-.1h0s0,0,0,0c-1.01-.43-2.07-.61-3.17-.64-.34,0-.67.04-1.01.01,0,0,0,0,0,0,.05.21.04.42.02.64-.02.32-.05.65,0,.97h0c.3-.11.6-.24.91-.32Z"/>
          <polygon class="cls-37" points="396.09 200.53 396.09 200.52 396.09 200.52 396.09 200.53"/>
          <path class="cls-37" d="M395.96,203.54c-.01-.62.07-1.23.25-1.83.1-.34.25-.61.59-.77.78-.37,1.58-.64,2.44-.71,1.59-.12,3.05.26,4.3,1.27.64.51,1.21,1.1,1.46,1.92.01-.09-.02-.18-.04-.27-.12-.54-.33-1.05-.59-1.54-.44-.73-1-1.34-1.7-1.83-.46-.27-.93-.51-1.45-.65-1.17-.3-2.29-.17-3.35.43h0s0,0,0,0c-.57.36-1.03.84-1.36,1.44-.05.1-.1.1-.15,0-.09-.16-.18-.32-.27-.48,0,0,0,0,0,0,0,.01.01.03,0,.03-.14.18-.02.32.07.47.06.09.05.16,0,.26-.28.64-.38,1.31-.39,2.01,0,.09.04.18.07.27.03.02.07.04.1.06h0s.01-.05.01-.07Z"/>
          <path class="cls-5" d="M403.47,196.24c-.46.47-.92.95-1.38,1.42h0c.19.71.39,1.41.58,2.12h0c.7.49,1.26,1.1,1.7,1.83.22-.67.34-1.35.33-2.06,0-1.3-.32-2.52-.88-3.69h0c-.12.12-.24.25-.36.37Z"/>
          <path class="cls-5" d="M400.45,192.81c-.13.13-.26.26-.39.4-.09.09-.09.14.04.17.08.02.17.05.25.07.98.32,1.84.85,2.61,1.52.27.23.49.52.78.73-.1-.17-.18-.35-.29-.51-.73-1.13-1.72-1.96-2.96-2.48h0s-.02.07-.05.1Z"/>
          <path class="cls-42" d="M396.09,200.52s0,0,0,0h0c.09.16.18.32.27.48.05.1.1.1.15,0,.32-.6.78-1.07,1.36-1.44h0c-.06-.23-.13-.45-.19-.68-.2-.35-.35-.72-.49-1.1-.19-.5-.37-1-.5-1.52-.19-.76-.33-1.53-.38-2.32,0-.04,0-.09,0-.13,0-.02-.02-.05-.03-.07h0c-.08.02-.15.05-.22.08-.67.34-1.26.79-1.76,1.36.07.56.19,1.11.33,1.65,0,0,0,0,0,0,.13.42.24.86.4,1.27.13.35.27.7.4,1.05h0c.22.45.43.91.65,1.36Z"/>
          <path class="cls-37" d="M395.79,203.29c0-.69.11-1.37.39-2.01.04-.1.05-.17,0-.26-.09-.14-.21-.29-.07-.47,0,0,0-.02,0-.03,0,0,0,0,0,0h0s0,0,0,0c-.46-.1-.92-.19-1.39-.14-.82.09-1.58.34-2.21.9h0c.12.34.32.62.57.87.48.49,1.08.78,1.69,1.04.36.15.72.3,1.1.35-.02-.09-.07-.18-.07-.27Z"/>
          <path class="cls-37" d="M398.18,208.53c-.52-.41-.9-.93-1.24-1.48-.21.13-.45.17-.67.3-.83.49-1.31,1.21-1.45,2.16,0,.04,0,.07,0,.11h0s0,0,0,0c.1.26.27.48.46.68.34.37.78.39,1.12.01.62-.68,1.35-1.18,2.25-1.42,0,0,0,0,0,0-.16-.12-.32-.23-.47-.36Z"/>
          <path class="cls-37" d="M394.31,195.19c-.08-.36-.1-.72-.12-1.09-.37-.08-.75-.13-1.14-.09-.62.07-1.16.3-1.64.7-.04.04-.09.07-.11.13.13.31.34.58.6.79.8.64,1.73,1.01,2.74,1.22,0,0,0,0,0,0-.14-.54-.26-1.09-.33-1.65Z"/>
          <path class="cls-8" d="M394.7,200.39c.47-.05.93.03,1.39.14,0,0,0,0,0,0,0,0,0,0,0,0-.22-.45-.43-.91-.65-1.36h0s-.1.02-.14.03c-.69.09-1.37,0-2.04-.2-.48-.14-.84.09-.95.58-.05.22-.08.45-.07.67.02.36.05.73.24,1.05h0c.63-.56,1.39-.81,2.21-.9Z"/>
          <path class="cls-8" d="M391.41,194.71c.48-.4,1.02-.63,1.64-.7.38-.04.76,0,1.14.09-.03-.47-.02-.95,0-1.42h0c-.27.08-.54.12-.82.12-.49.01-.97-.08-1.44-.21-.34-.1-.71.05-.8.35-.19.65-.17,1.29.18,1.89.02-.06.06-.09.11-.13Z"/>
          <path class="cls-8" d="M394.82,209.5c.14-.95.62-1.67,1.45-2.16.21-.12.46-.17.67-.3-.33-.61-.58-1.25-.76-1.92h0c-.28.29-.54.59-.76.93-.35.52-.7,1.04-.83,1.66-.14.65-.1,1.29.24,1.89h0s-.01-.07,0-.11Z"/>
          <path class="cls-49" d="M399.71,201.67c-.11-.45-.6-.74-1.03-.63-.13.03-.21.1-.24.21-.06.21.1.37.34.35.26-.02.43.15.37.37-.03.13-.14.18-.24.23-.16.08-.21.22-.14.37.07.15.2.2.35.16.43-.11.7-.6.58-1.06Z"/>
          <path class="cls-49" d="M401.11,206.71c-.12-.46-.61-.74-1.05-.61-.16.05-.24.15-.22.31.02.16.15.26.32.25.25-.02.35.03.4.2.05.17-.01.27-.23.38-.15.08-.21.22-.16.37.06.15.19.21.36.16.44-.12.7-.6.58-1.05Z"/>
          <path class="cls-49" d="M399.19,204.93c-.3-.2-.37-.44-.21-.76.09-.18.05-.34-.1-.42-.15-.08-.31-.03-.4.14-.15.27-.19.56-.11.86.08.29.25.52.52.67.18.1.35.07.43-.08.08-.14.03-.3-.13-.41Z"/>
          <path class="cls-39" d="M396.33,193.82c.72.18,1.45.37,2.18.55.1.03.2.05.31.07h0c.36-.29.65-.65.99-.97.13-.12.06-.15-.07-.17-.84-.18-1.67-.13-2.5.08-.31.08-.6.21-.91.32,0,0,0,0,0,0,0,.02-.02.03-.03.05h0s.02.05.03.07Z"/>
          <path class="cls-5" d="M399.52,197.02s0,0,0,0c-.24-.86-.48-1.72-.71-2.58h0c-.1-.02-.21-.05-.31-.07-.73-.18-1.45-.37-2.18-.55,0,.04,0,.09,0,.13.04.79.19,1.56.38,2.32.13.52.31,1.02.5,1.52.14.37.29.75.49,1.1.61-.62,1.22-1.24,1.84-1.86Z"/>
          <path class="cls-39" d="M402.09,197.66h0c-.42-.11-.85-.23-1.27-.33-.43-.1-.85-.25-1.3-.31,0,0,0,0,0,0-.61.62-1.22,1.24-1.84,1.86.06.23.13.45.19.68h0c1.06-.59,2.18-.72,3.35-.43.52.13.99.38,1.45.65h0c-.19-.71-.39-1.41-.58-2.12Z"/>
        </g>
        <g>
          <path class="cls-25" d="M380.81,309.28s-.03-.01-.04-.02c.01,0,.03.01.04.02Z"/>
          <path class="cls-50" d="M376.48,332.05c.21-.21.44-.4.65-.61.11-.11.2-.12.31-.02h0c-.1-.11-.08-.2.03-.28.1-.08.18-.16.27-.25.18-.17.21-.39.06-.55-.14-.16-.37-.16-.55,0-.12.1-.23.2-.34.31-.05.05-.09.08-.16.06h0c.02.1-.05.15-.12.21-.21.2-.42.41-.64.59-.22.17-.26.36-.14.6l.15.11c.19.03.34-.02.47-.16Z"/>
          <path class="cls-50" d="M378.26,333.35c.16-.32.3-.66.44-.98.03-.04.06-.08.09-.12.08-.2.17-.39.25-.59.1-.23.04-.44-.15-.53-.2-.1-.41,0-.52.23-.09.19-.17.37-.26.56h0c-.15.33-.29.67-.45,1-.09.17-.09.33,0,.5l.15.11c.18.02.37.01.46-.17Z"/>
          <path class="cls-30" d="M374.2,316.91c.33-.26.56-.26.89-.02,1.71,1.25,3.42,2.49,5.13,3.74.53.36,1,.8,1.6,1.05.81.34,1.65.41,2.5.16.15-.08.22-.24.33-.37.06-.07.09-.16.21-.14h0s0,0,0,0c.13-.26.27-.52.44-.75.41-.55.81-1.1,1.21-1.66.17-.24.37-.45.58-.65-.05-.1.02-.17.07-.24.09-.14.22-.25.25-.43-.02-.89-.34-1.66-.91-2.33-.42-.49-.98-.81-1.49-1.2-1.8-1.31-3.59-2.62-5.39-3.92-.21.29-.41.57-.63.86-.15.2-.37.24-.54.12-.18-.13-.2-.34-.05-.55.19-.28.39-.55.6-.82.15-.2.3-.23.54-.12.13-.17.16-.37.13-.58h0c-.21-.59-.64-.74-1.22-.43h0c-.65.9-1.3,1.79-1.96,2.69,0,0,0,0,0,0h0c-.11.42.02.74.38.97.05.03.1.08.15.11.22.12.34.27.2.53-.06.12-.01.26.03.38h0s0,0,0,0c.37-.09.61.16.87.35.47.34.93.68,1.39,1.02.1-.03.15-.13.23-.19.6-.47,1.28-.51,1.96-.04.88.61,1.52,1.41,1.86,2.43.07.2.11.4.09.61-.05.61-.45.94-1.17.96-.82.03-1.58-.23-2.3-.6-.39-.2-.74-.45-1.01-.79-.4-.51-.43-1.05-.17-1.62.03-.06.04-.11.06-.17h0s0,0,0,0c-.5-.37-1-.74-1.51-1.09-.24-.17-.46-.33-.49-.65,0,0,0,0,0,0,0,0,0,0,0,0-.19,0-.37.05-.51.18-.09.08-.17.08-.27,0-.09-.07-.19-.14-.28-.2-.47-.34-.67-.35-1.13-.03h0c-.57.78-1.14,1.57-1.72,2.35-.2.27-.29.54-.15.86.14.32.42.43.75.43.14-.03.28-.09.39-.18Z"/>
          <path class="cls-46" d="M387.16,318.01c-.05.07-.13.14-.07.24.35-.28.76-.29,1.15-.02.66.46,1.09,1.1,1.43,1.81.21.44.37.9.4,1.39.05.97-.39,1.6-1.34,1.77-1.25.22-2.42-.03-3.48-.74-.45-.3-.54-.62-.4-1.14h0c-.12-.02-.15.08-.21.14-.1.13-.18.29-.33.37.05.08-.02.13-.06.18-.28.36-.29.76-.16,1.18.16.51.47.92.85,1.29.06.06.11.12.17.18.67.56,1.45.88,2.31,1.04.91.17,1.77.52,2.67.73.6.14,1.2.23,1.81.14h0c1.35-.17,2.6-1.88,2.35-3.22-.14-.8-.54-1.49-.99-2.14-.53-.78-1.06-1.55-1.53-2.37-.34-.58-.84-.99-1.39-1.37-.08-.04-.15-.07-.23-.11-.44-.24-.91-.4-1.42-.41-.47-.01-.88.11-1.15.53-.03.05-.05.12-.14.09-.03.17-.16.29-.25.43ZM391.27,321.81c.11-.15.36-.19.52-.07.16.12.19.34.07.51-.12.17-.34.2-.51.08-.15-.11-.19-.36-.07-.52ZM389.52,324.22c.11-.15.36-.2.51-.09.17.11.2.34.08.51-.12.17-.34.21-.5.09-.15-.11-.2-.36-.09-.51Z"/>
          <path class="cls-31" d="M377.23,327.26c.55-.82,1.13-1.64,1.89-2.29.08-.07.17-.13.25-.2h0c-.13-.5-.29-.98-.62-1.39-.25-.31-.56-.55-.87-.78-.14-.1-.28-.19-.41-.29-.14-.11-.24-.11-.34.05-.09.14-.19.27-.29.39-.15.19-.36.22-.53.09-.17-.13-.2-.33-.06-.53.1-.15.2-.29.31-.43.07-.1.07-.18-.04-.25-.55-.4-.41-.37-.76.09-.05.06-.09.13-.14.18-.15.17-.35.19-.51.07-.16-.12-.2-.31-.08-.49.09-.14.19-.28.3-.41.13-.15.09-.24-.06-.35-.73-.53-1.46-1.06-2.18-1.59h0s0,0,0,0c-.12.16-.24.33-.37.49-.23.31-.39.34-.7.1h-.02c.4.58.4.96-.02,1.54-.12.16-.23.32-.35.49.41.3.81.59,1.22.89,0,0,0,0,0,0,0,0,0,0,0,0,.42-.31.85-.25,1.25,0,.7.45,1.25,1.05,1.53,1.85.17.48-.08.83-.59.81-.92-.04-1.72-.39-2.38-1.04-.29-.29-.38-.64-.25-1.04-.34-.24-.68-.48-1.01-.74-.17-.13-.27-.11-.39.07-.15.23-.32.45-.49.67l-.43.6c-.15.2-.29.4-.44.6q-.22.3.07.51c.49.36.98.72,1.47,1.07q.33.24.57-.1c.06-.09.12-.18.19-.26.14-.17.35-.2.51-.08.17.12.2.32.08.51-.1.15-.2.29-.31.43-.09.11-.09.2.03.29.53.38.4.36.74-.09.05-.07.1-.14.15-.2.14-.16.34-.18.5-.06.16.12.2.31.09.49-.08.13-.18.25-.27.38q-.18.24.07.43c.12.09.23.18.35.26.27.19.54.38.84.52.54.24,1.11.27,1.69.23.16-.54.45-1.02.75-1.48Z"/>
          <path class="cls-26" d="M383.4,331.28s-.04.04-.06.06c.02-.02.04-.04.06-.06Z"/>
          <path class="cls-26" d="M376.92,330.65c.11-.11.22-.21.34-.31.19-.16.41-.16.55,0,.14.16.12.38-.06.55-.09.08-.18.17-.27.25-.11.09-.13.18-.03.28h0c.22.16.45.33.67.49h0c.09-.19.17-.37.26-.56.11-.24.32-.33.52-.23.19.09.25.3.15.53-.08.2-.17.39-.25.59.61.23,1.24.4,1.9.36.43-.02.85-.09,1.25-.26.1-.04.2-.08.26-.18,0,0,0,0,0,0,0,0,0,0,0,0-.25-.19-.51-.37-.76-.56-.22-.16-.27-.37-.14-.56.13-.18.35-.2.57-.04.34.25.68.5,1.03.74h0c.16-.12.31-.26.43-.42.08-.13-.02-.19-.11-.26-.5-.37-1.01-.73-1.51-1.1-.2-.15-.26-.34-.16-.52.11-.2.36-.25.58-.09.51.37,1.02.74,1.53,1.12.09.06.17.14.28.02-.01.02-.02.05-.04.07.01-.02.02-.04.04-.07.12-.16.19-.35.26-.54h0c-.33-.25-.67-.49-1-.74-.23-.17-.29-.39-.15-.57.14-.18.35-.19.59-.03.25.18.5.36.75.54.13-.26.1-.54.08-.81-.07-.88-.41-1.66-.96-2.34-.03-.04-.06-.09-.1-.13,0,0,0,0,0,0h0c-.16.14-.32.28-.48.42-.19.16-.41.17-.55.01-.15-.16-.13-.39.06-.57.15-.14.3-.28.45-.42-.22-.16-.45-.32-.67-.48h0s0,0,0,0c-.13-.06-.21-.01-.26.12-.04.11-.1.22-.15.34-.11.22-.31.31-.51.23-.2-.08-.27-.3-.17-.53.06-.14.12-.28.19-.42.03-.06.04-.11,0-.17-.62-.22-1.2-.13-1.75.21-.07.04-.14.09-.21.13h0c-.08.07-.17.13-.25.2-.76.66-1.33,1.47-1.89,2.29-.31.46-.59.94-.75,1.48-.22.7-.19,1.37.28,1.97h0c.07.02.11-.01.16-.06ZM380.2,330.69c-.11.16-.35.21-.51.09-.16-.11-.21-.35-.09-.51.11-.16.35-.21.51-.09.16.11.21.35.09.51ZM379.7,326.96c0,.15-.02.31-.01.46.02.25.24.38.46.28.17-.08.32-.04.45.08.28.25.32.68.09.99-.22.3-.63.39-.95.21-.16-.09-.25-.22-.22-.42.03-.22-.16-.39-.38-.35-.17.03-.32.09-.48.16-.24.1-.44.04-.53-.16-.09-.2-.01-.4.22-.51.19-.09.45-.11.55-.25.1-.13.03-.39.06-.58.03-.26.19-.4.41-.38.23.02.34.19.33.47ZM382.38,327.69c-.11.17-.35.21-.51.1-.17-.11-.21-.35-.1-.51.11-.17.35-.21.51-.1.17.11.21.34.1.51Z"/>
          <path class="cls-2" d="M390.09,326.43c-.9-.22-1.76-.56-2.67-.73-.86-.16-1.64-.48-2.31-1.04-.42.81-.26,1.85.37,2.51.04.04.07.08.1.12.14.1.28.21.42.31.32.13.64.26.99.25.98-.02,1.96-.01,2.95-.04.51-.01,1.01-.11,1.38-.49.22-.22.38-.5.57-.75h0c-.61.08-1.21,0-1.81-.14Z"/>
          <path class="cls-2" d="M391.73,318.85c.47.81,1,1.59,1.53,2.37.45.66.85,1.34.99,2.14.18-.26.39-.5.54-.78.25-.49.18-1,.03-1.51-.28-.9-.56-1.81-.84-2.71-.47-1.53-2.51-2.03-3.63-.88.54.37,1.05.79,1.39,1.37Z"/>
          <path class="cls-26" d="M369.15,325.13c.07-.1.05-.16-.04-.23-.15-.11-.3-.21-.44-.33-.18-.14-.22-.36-.09-.53.12-.17.34-.2.53-.06.2.13.39.28.58.42h0c.15-.2.29-.4.44-.6-.19-.14-.39-.28-.58-.42-.19-.14-.22-.36-.1-.53.12-.17.34-.2.53-.07.2.13.39.28.58.42h0c.16-.22.34-.44.49-.67.11-.17.22-.2.39-.07.33.26.67.49,1.01.74.1-.23.24-.43.43-.59,0,0,0,0,0,0-.41-.3-.81-.59-1.22-.89-.03.04-.06.07-.08.11-.09.16-.19.15-.33.05-.53-.39-1.06-.78-1.6-1.16h0c-.82,1.12-1.64,2.24-2.46,3.36-.09.12-.14.27-.16.43-.14.77.69,1.49,1.48,1.22.3-.11.49-.34.66-.59Z"/>
          <path class="cls-50" d="M373.15,318.23h0,0c.27.23.29.38.09.66-.05.07-.1.14-.14.21h0c.73.53,1.45,1.07,2.18,1.59.15.11.18.2.06.35-.11.13-.21.27-.3.41-.11.18-.07.37.08.49.16.12.37.1.51-.07.05-.06.09-.12.14-.18.35-.46.2-.49.76-.09.1.07.11.15.04.25-.11.14-.21.28-.31.43-.13.2-.11.4.06.53.17.13.38.09.53-.09.1-.13.2-.26.29-.39.1-.16.2-.16.34-.05.13.11.28.2.41.29h0c-.39-.98-.96-1.85-1.63-2.66-.3-.36-.62-.71-.98-1.01,0,0,0,0,0,0,0,0,0,0,0,0-.16-.13-.32-.27-.48-.4h0c-.18-.11-.36-.23-.55-.33-.35-.18-.72-.33-1.13-.31,0,.12.02.24.03.36Z"/>
          <path class="cls-50" d="M373.6,327.72q-.25-.19-.07-.43c.09-.12.19-.25.27-.38.11-.18.07-.38-.09-.49-.16-.12-.36-.09-.5.06-.06.06-.1.13-.15.2-.34.45-.21.47-.74.09-.13-.09-.12-.18-.03-.29.11-.14.21-.28.31-.43.12-.19.08-.39-.08-.51-.17-.12-.37-.09-.51.08-.07.08-.13.17-.19.26q-.25.34-.57.1c-.49-.36-.98-.72-1.47-1.07q-.29-.21-.07-.51h0c-.19-.14-.38-.28-.58-.42-.19-.13-.41-.1-.53.06-.12.17-.09.38.09.53.14.11.29.22.44.33.09.06.11.13.04.23-.17.25-.36.48-.66.59.06.07.13.13.19.2.64.61,1.41,1,2.22,1.33.98.39,1.99.67,3.04.74-.12-.09-.23-.18-.35-.26Z"/>
          <path class="cls-10" d="M375.28,318.91s0,0,0,0c.31.1.56.31.84.46,1.29.65,2.65,1.09,4.09,1.26-1.71-1.25-3.42-2.49-5.13-3.74-.33-.24-.57-.23-.89.02-.12.09-.25.15-.39.18.1.3.25.57.44.82.17.22.38.39.56.6h0c.16.13.32.27.48.4Z"/>
          <path class="cls-10" d="M379.68,309.03h0c.03.21,0,.41-.13.58.17.15.2.32.08.52,1.8,1.31,3.59,2.62,5.39,3.92-.23-.56-.54-1.08-.88-1.58-.88-1.29-1.87-2.47-3.32-3.18-.02,0-.03,0-.04-.02-.35-.14-.71-.24-1.09-.24Z"/>
          <path class="cls-50" d="M371.23,321.87c.14.1.24.12.33-.05.02-.04.06-.07.08-.11.12-.16.23-.33.35-.49.42-.57.42-.95.02-1.53-.55-.44-.89-.47-1.56-.12-.27.38-.55.75-.82,1.13h0c.53.39,1.07.77,1.6,1.16Z"/>
          <path class="cls-2" d="M379.68,309.03h0c.38,0,.74.1,1.09.24.01,0,.03.01.04.02-.09-.11.02-.17.07-.24.3-.41.59-.82.9-1.23.09-.12.1-.19-.04-.27-.59-.32-1.2-.4-1.84-.2-.66.21-1.07.69-1.42,1.25h0c.58-.31,1-.16,1.22.43Z"/>
          <path class="cls-31" d="M385.59,327.29l-2.08-1.52s-.06.08-.09.12c0,0,0,0,0,0,.03.04.06.09.1.13.56.68.9,1.46.96,2.34.02.27.05.55-.08.81.01.01.02.02.03.03h0c.05-.08.14-.08.22-.11.5-.16.99-.31,1.49-.46.18-.06.31-.17.34-.36.03-.19-.04-.34-.2-.46-.09-.07-.18-.14-.27-.21h0c-.14-.1-.28-.21-.42-.31Z"/>
          <path class="cls-31" d="M382.21,332.17s0,0,0,0c-.06.09-.16.14-.26.18-.4.16-.83.23-1.25.26-.66.04-1.29-.13-1.9-.36-.03.04-.06.08-.09.12.08.05.16.1.23.15.85.62,1.69,1.23,2.54,1.85.16.12.33.15.52.07.19-.09.25-.25.25-.45,0-.36-.02-.72,0-1.08,0-.23-.05-.47.03-.7h0s-.03-.02-.04-.02Z"/>
          <path class="cls-31" d="M372.01,319.7h.02c-.08-.19-.04-.36.08-.52.18-.24.36-.48.53-.73.13-.19.28-.28.51-.22h0c0-.12-.02-.24-.03-.36-.03-.03-.06-.07-.09-.1-.32-.45-.91-.48-1.24-.03-.46.61-.89,1.23-1.34,1.85.66-.35,1.01-.33,1.56.12Z"/>
          <path class="cls-10" d="M376.05,313.48c.09.07.19.13.28.2.09.07.17.08.27,0,.14-.13.32-.19.51-.18,0,0,0,0,0,0,.1-.04.15-.12.16-.22h0c-.04-.13-.09-.27-.03-.38.13-.27.02-.41-.2-.53-.05-.03-.1-.07-.15-.11-.37-.23-.5-.55-.38-.97h0c-.53.72-1.06,1.44-1.58,2.17h0c.46-.32.66-.32,1.13.03Z"/>
          <path class="cls-50" d="M383.68,330.48c-.51-.37-1.02-.75-1.53-1.12-.22-.16-.47-.11-.58.09-.1.18-.04.37.16.52.5.37,1.01.74,1.51,1.1.09.06.19.12.11.26.02-.02.04-.04.06-.06.21-.21.38-.44.51-.7.01-.02.02-.05.04-.07-.1.12-.19.04-.28-.02Z"/>
          <path class="cls-50" d="M381.89,331.01c-.22-.16-.44-.14-.57.04-.13.18-.08.39.14.56.25.19.51.37.76.56,0,0,0,0,0,0,.01,0,.03.02.04.02h0c.25-.1.47-.25.66-.44h0c-.34-.25-.68-.5-1.03-.74Z"/>
          <path class="cls-50" d="M384.4,329.17c-.25-.18-.5-.36-.75-.54-.24-.17-.45-.16-.59.03-.14.18-.08.4.15.57.33.25.67.49,1,.74h0c.13-.24.19-.49.22-.76h0s-.02-.02-.03-.03Z"/>
          <path class="cls-3" d="M385.25,322.46c1.06.71,2.23.96,3.48.74.95-.17,1.39-.79,1.34-1.77-.03-.49-.19-.95-.4-1.39-.34-.71-.78-1.35-1.43-1.81-.39-.27-.8-.26-1.15.02-.21.2-.41.41-.58.65-.4.56-.8,1.11-1.21,1.66-.18.24-.32.49-.44.75h0c-.14.52-.05.84.4,1.14ZM386.21,321.79c-.17-.14-.17-.36.02-.61.18-.21.4-.43.71-.54.1-.04.14-.08.14-.2,0-.33.14-.63.33-.9.15-.22.38-.27.56-.14.17.13.2.34.05.55-.08.11-.14.22-.18.35-.08.27.05.52.32.61.08.03.11-.03.16-.06.17-.09.33-.06.47.06.29.26.33.67.1.98-.23.31-.63.4-.97.21-.15-.08-.25-.21-.21-.38.05-.17-.02-.24-.14-.33-.14-.1-.28-.13-.43-.06-.15.07-.26.18-.37.31-.18.22-.4.27-.58.13Z"/>
          <path class="cls-10" d="M379.1,315.24h0c-.02.06-.04.12-.06.17-.26.57-.23,1.12.17,1.62.27.34.62.59,1.01.79.72.37,1.47.63,2.3.6.72-.03,1.11-.36,1.17-.96.02-.21-.02-.42-.09-.61-.34-1.02-.98-1.82-1.86-2.43-.68-.47-1.37-.44-1.96.04-.08.06-.13.16-.23.19-.15.2-.29.4-.44.6Z"/>
          <path class="cls-46" d="M377.11,313.5s0,0,0,0c.03.32.25.48.49.65.51.36,1.01.73,1.51,1.09h0c.15-.2.29-.4.44-.6-.46-.34-.93-.68-1.39-1.02-.26-.19-.5-.44-.87-.35h0c-.01.1-.07.18-.16.22Z"/>
          <path class="cls-46" d="M379.54,309.61c-.24-.11-.39-.08-.54.12-.2.27-.4.54-.6.82-.15.21-.12.42.05.55.18.12.39.08.54-.12.21-.28.42-.57.63-.86.12-.2.09-.37-.08-.52Z"/>
          <path class="cls-4" d="M390.11,324.63c.12-.17.08-.39-.08-.51-.16-.11-.41-.07-.51.09-.11.15-.06.41.09.51.17.12.38.08.5-.09Z"/>
          <path class="cls-4" d="M391.85,322.25c.12-.17.1-.39-.07-.51-.15-.11-.4-.08-.52.07-.11.15-.08.4.07.52.16.12.38.09.51-.08Z"/>
          <path class="cls-50" d="M372.43,323.2c-.13.4-.04.75.25,1.04.66.65,1.45,1,2.38,1.04.51.02.75-.33.59-.81-.28-.81-.83-1.4-1.53-1.85-.4-.26-.83-.32-1.25,0,0,0,0,0,0,0-.19.17-.33.36-.43.59Z"/>
          <path class="cls-26" d="M373.24,318.89c.2-.29.18-.44-.09-.66h0c-.23-.06-.38.04-.51.22-.17.25-.35.49-.53.73-.13.16-.16.33-.08.52.31.23.47.21.7-.1.12-.16.24-.33.37-.49h0c.05-.07.1-.14.14-.21Z"/>
          <path class="cls-50" d="M369.97,322.78c-.2-.13-.41-.1-.53.07-.12.17-.09.38.1.53.19.15.38.28.58.42l.43-.6h0c-.19-.14-.38-.29-.58-.42Z"/>
          <path class="cls-50" d="M378.96,326.87c-.02.2.04.45-.06.58-.11.14-.37.16-.55.25-.23.11-.31.31-.22.51.09.2.29.26.53.16.16-.07.31-.13.48-.16.22-.04.4.13.38.35-.02.2.06.33.22.42.32.18.73.09.95-.21.23-.31.19-.73-.09-.99-.13-.12-.28-.16-.45-.08-.23.1-.44-.02-.46-.28-.01-.15,0-.31.01-.46.02-.28-.1-.45-.33-.47-.22-.02-.37.12-.41.38Z"/>
          <path class="cls-50" d="M382.16,324.55c.15-.29.29-.59.42-.9.09-.2,0-.42-.16-.5-.2-.09-.42,0-.51.21-.14.3-.27.6-.41.9-.03.07-.06.14-.15.15.04.06.03.11,0,.17-.07.14-.13.28-.19.42-.1.23-.03.44.17.53.2.08.4,0,.51-.23.05-.11.11-.22.15-.34.05-.13.13-.18.26-.12h0c-.13-.08-.14-.16-.07-.3Z"/>
          <path class="cls-50" d="M383.51,325.77c.24-.22.48-.43.71-.65.21-.19.24-.41.08-.58-.14-.16-.37-.14-.57.04-.28.25-.56.5-.84.75-.15.14-.3.28-.45.42-.19.18-.21.4-.06.57.14.15.36.15.55-.01.16-.14.32-.28.48-.42h0s.06-.08.09-.12Z"/>
          <path class="cls-23" d="M379.6,330.27c-.11.16-.07.4.09.51.16.11.4.07.51-.09.11-.17.07-.4-.09-.51-.16-.11-.4-.07-.51.09Z"/>
          <path class="cls-23" d="M381.78,327.28c-.11.17-.07.4.1.51.17.11.4.07.51-.1.11-.17.07-.4-.1-.51-.17-.11-.4-.07-.51.1Z"/>
          <path class="cls-2" d="M386.78,321.67c.1-.13.21-.24.37-.31.15-.07.29-.04.43.06.12.09.19.16.14.33-.05.16.06.29.21.38.34.19.74.1.97-.21.23-.31.18-.73-.1-.98-.14-.13-.29-.15-.47-.06-.05.03-.08.09-.16.06-.26-.09-.4-.34-.32-.61.04-.12.1-.24.18-.35.14-.21.12-.43-.05-.55-.18-.13-.4-.08-.56.14-.19.27-.32.56-.33.9,0,.11-.04.16-.14.2-.31.11-.53.33-.71.54-.19.25-.19.47-.02.61.17.14.4.1.58-.13Z"/>
        </g>
        <g>
          <path class="cls-6" d="M284.36,392.92c-.37.69-.96,1.08-1.75,1.12-.33.02-.67,0-1.01,0-.09-.05-.18-.08-.2-.22-.1-.67-.53-1.1-1.13-1.35-.23-.1-.38-.22-.48-.45-.59-1.31-1.21-2.6-1.77-3.91-.55-1.26-1.55-1.76-2.96-1.77,0,0,0,0,0,0-.3-.1-.6-.21-.92-.23-1.32-.08-2.65-.16-3.97-.23-1.38-.08-2.76-.15-4.15-.23-.71-.34-1.34-.8-1.82-1.43-.43-.57-.74-1.19-.86-1.9-.21-1.25-.22-2.51-.32-3.76-.02-.27-.11-.42-.37-.51-.48-.17-.95-.38-1.43-.55-.24-.09-.34-.23-.36-.49-.08-1.2-.17-2.4-.26-3.6,0,0,0,0,0,0,.13,0,.27-.01.4-.02,0,0,0,0,0,0,.05.68.1,1.36.14,2.04.01.24.14.32.36.3.4-.03.81-.06,1.21-.09,1.05-.07,1.97.22,2.71,1h0s0,0,0,0c.5.55,1,1.1,1.48,1.66.12.14.26.25.44.28-.12.06-.03.11.01.14.57.41,1.14.82,1.72,1.22.18.12.39.08.59.1,1.16.11,2.32.2,3.48.21.61,0,1.23-.05,1.84-.11.87-.08,1.75-.14,2.62-.2,1.16-.08,2.03.53,2.36,1.65.55,1.86,1.1,3.72,1.55,5.61.07.29.14.58.17.88.03.3.21.43.46.53.25.1.5.21.78.16,0,0,0,0,0,0,.26-.01.52-.02.77-.05.36-.03.71-.01,1.04.12.6.23.92.72,1.12,1.29l.11,1.56c-.38.29-.77.56-1.2.77-.21.1-.35.24-.46.44ZM264.04,381.47c.26-.01.45-.22.44-.47-.02-.24-.22-.42-.46-.41-.26,0-.46.21-.45.46,0,.24.23.44.48.43ZM267.29,381.52c-.26.01-.44.22-.42.48.01.26.22.45.47.44.24-.01.45-.24.43-.48-.01-.24-.24-.45-.48-.44ZM269.62,383.79c-.24.02-.44.27-.42.5.02.25.25.44.5.41.25-.03.43-.24.41-.5-.02-.26-.24-.44-.49-.42ZM272.89,381.79c-.04-.25-.24-.42-.49-.39-.26.03-.43.26-.39.54.04.25.23.39.5.36.27-.03.42-.24.38-.51ZM274.06,383.94c-.25.03-.43.25-.4.51.03.26.24.43.5.41.25-.02.44-.25.41-.5-.02-.23-.29-.44-.51-.41ZM277.33,386.59c.24-.02.44-.25.42-.49-.02-.24-.26-.44-.49-.43-.25.02-.43.24-.41.5.02.26.23.44.48.42ZM276.94,381.08c-.26.02-.44.23-.42.49.02.26.23.43.49.41.24-.02.43-.23.42-.47-.01-.24-.25-.45-.49-.43ZM279.33,389.75c.26-.03.44-.24.41-.5-.02-.23-.28-.43-.51-.41-.25.03-.43.26-.4.51.03.26.24.43.5.4ZM278.83,383.13c-.25.01-.44.23-.42.49.02.26.23.44.48.43.24-.02.45-.25.43-.49-.01-.23-.25-.44-.49-.43ZM280.4,386.39c-.24.02-.44.26-.41.5.03.25.24.43.5.4.25-.02.44-.24.42-.49-.02-.24-.27-.44-.5-.41ZM283.02,392c-.24.03-.44.27-.42.5.02.25.24.42.5.4.26-.02.43-.23.4-.49-.02-.25-.25-.44-.49-.42Z"/>
          <path class="cls-45" d="M260.01,383.45c.61-.31,1.27-.5,1.95-.58.2-.02.31-.05.22-.31-.09-.26-.11-.55-.13-.82-.08-1.01-.16-2.02-.21-3.03-.02-.34-.14-.49-.45-.6-.47-.15-.93-.35-1.4-.52-.18-.07-.29-.18-.3-.38-.09-1.3-.18-2.59-.27-3.89.4.03.81.07,1.21.1h0s0,0,0,0c.09,1.2.18,2.4.26,3.6.02.26.12.4.36.49.48.17.95.38,1.43.55.26.09.35.24.37.51.11,1.26.11,2.52.32,3.76.12.71.43,1.33.86,1.9.48.63,1.1,1.09,1.82,1.43-.08,0-.15.02-.23.01-1.07-.12-1.99-.56-2.71-1.37-.09-.1-.18-.15-.32-.14-.46.04-.92.1-1.36.23-3.59,1.08-4.99,5.33-2.74,8.32,1.08,1.43,2.57,2.17,4.37,2.09,1.78-.08,3.56-.24,5.34-.36.14,0,.29,0,.43,0,.29.03.47.19.56.46.09.28.02.53-.2.73-.18.16-.4.17-.62.19-1.65.12-3.31.24-4.96.36-.38.03-.77.04-1.15.01-2.7-.18-5.06-2.01-5.9-4.56-.11-.33-.13-.67-.29-.98l-.1-1.38c.09-.12.06-.27.08-.41.29-2.49,1.57-4.29,3.78-5.42Z"/>
          <path class="cls-45" d="M278.02,388.12c.57,1.31,1.19,2.6,1.77,3.91.1.23.25.35.48.45.6.25,1.02.68,1.13,1.35.02.13.1.17.2.22-.13,0-.2.05-.22.2-.03.32-.07.65-.12.97-.06.42-.3.59-.71.49-.61-.15-.95-.58-1.12-1.16-.15-.5-.15-1.03-.37-1.5-.73-1.58-1.48-3.15-2.18-4.73-.39-.87-.95-1.54-1.81-1.95h0c1.41,0,2.41.51,2.96,1.77ZM279.55,393.24c.09.54.09,1.12.41,1.6.06.09.14.16.22.23.4.29.71.15.77-.33.03-.24.05-.48.07-.61-.02-.7-.63-1.12-1.19-1.16-.17-.01-.3.12-.28.27Z"/>
          <path class="cls-53" d="M275.81,378.02s-.07.03-.11.04c.04-.01.08-.02.11-.04Z"/>
          <path class="cls-53" d="M282.17,388.63c-.24-.09-.42-.23-.46-.53-.03-.29-.11-.59-.17-.88-.45-1.89-1-3.75-1.55-5.61-.33-1.12-1.2-1.73-2.36-1.65-.87.06-1.75.12-2.62.2-.61.06-1.23.11-1.84.11-1.16,0-2.32-.09-3.48-.21-.2-.02-.41.02-.59-.1-.58-.4-1.15-.81-1.72-1.22-.05-.03-.14-.08-.01-.14.59.04,1.17.07,1.76.11h0c.73.05,1.45.1,2.18.13.27,0,.56.11.83,0,1.14-.49,2.34-.69,3.57-.77,1.01-.1,2.01-.03,3.01.03,0,0,0,0,0,0h0c.05.01.11.02.16.04.74.45,1.57.7,2.4.91.14.04.27.08.41.12,0,0,0,0,0,0,0,.14,0,.29,0,.43-.04.74-.11,1.47,0,2.21.07.48.15.95.24,1.42.16.92.34,1.83.51,2.74.18.94.35,1.88.53,2.83,0,0,0,0,0,0-.28.05-.53-.06-.78-.16Z"/>
          <path class="cls-14" d="M267.37,378.6c-.18-.03-.32-.14-.44-.28-.49-.56-.99-1.11-1.48-1.66,0,0,0,0,0,0,.15-.06.11-.21.14-.32.13-.52.15-1.07.36-1.57.3-.71.66-1.4,1-2.1.61.15,1.23.3,1.84.45h0s0,0,0,0c-.17.71-.35,1.42-.52,2.12-.03.12-.06.24-.02.37.3,1.03.59,2.06.88,3.1h0c-.59-.04-1.17-.07-1.76-.11Z"/>
          <path class="cls-14" d="M275.7,378.06s.08-.02.11-.04c.09-.05.12-.13.09-.28-.17-.93-.32-1.86-.47-2.79-.15-.88-.29-1.76-.44-2.64.73.04,1.46.09,2.19.13h0c.02.09.04.19.07.28.49,1.79.97,3.58,1.46,5.36,0,0,0,0,0,0-1-.06-2.01-.13-3.01-.03Z"/>
          <path class="cls-6" d="M281.28,379.04c-.84-.21-1.66-.46-2.4-.91,0-.02,0-.04.01-.05.06-.1.15-.13.27-.11.24.03.48.04.71.07.12.02.19,0,.22-.15.3-1.9.61-3.8.92-5.71h0c.39.07.78.14,1.18.21,0,0,0,0,0,0-.11,1.52-.21,3.04-.32,4.56-.05.74-.12,1.47-.17,2.21h0c-.14-.04-.27-.09-.41-.12Z"/>
          <path class="cls-45" d="M281.01,372.18s0,0,0,0h0c-.31,1.9-.62,3.8-.92,5.71-.02.15-.09.16-.22.15-.24-.03-.48-.04-.71-.07-.12-.02-.2.01-.27.11.28-2.07.63-4.12,1.01-6.17.37.09.74.18,1.11.27Z"/>
          <path class="cls-53" d="M281.01,372.18s0,0,0,0c-.37-.09-.74-.18-1.11-.27.08-.49.16-.98.23-1.47.03-.2.13-.3.34-.31.84-.06,1.67-.11,2.5-.18.2-.02.31.06.35.25.06.27.12.54.19.81.07.26,0,.43-.22.58-.38.26-.78.49-1.11.8,0,0,0,0,0,0-.39-.07-.78-.14-1.18-.21Z"/>
          <path class="cls-53" d="M274.99,372.31c-.09-.48-.19-.96-.27-1.44-.04-.22.08-.34.31-.35.82-.06,1.65-.11,2.47-.18.2-.02.31.06.36.25.06.22.1.45.18.66.08.23,0,.37-.16.52-.24.21-.55.36-.69.67h0c-.73-.04-1.46-.09-2.19-.13Z"/>
          <path class="cls-53" d="M266.94,372.67c.22-.49.45-.97.67-1.46.05-.11.14-.17.27-.18.67-.05,1.34-.1,2.02-.14.25-.02.35.1.31.35-.03.24-.1.47-.12.71-.02.25-.14.39-.35.52-.33.21-.7.36-.97.66h0c-.61-.15-1.23-.3-1.84-.45Z"/>
          <path class="cls-53" d="M260.62,373.42h0c-.4-.03-.81-.07-1.21-.1-.03-.44-.07-.88-.1-1.32-.02-.23.08-.35.33-.37.63-.04,1.26-.09,1.9-.13.3-.02.4.1.36.39-.07.53-.15,1.04-.69,1.33-.07.04-.12.12-.18.19,0,0,0,0,0,0-.13,0-.27.01-.4.02Z"/>
          <path class="cls-14" d="M278.89,384.04c-.25.02-.46-.17-.48-.43-.02-.26.17-.48.42-.49.24-.01.48.2.49.43.01.24-.19.47-.43.49Z"/>
          <path class="cls-14" d="M279.22,388.85c.23-.03.49.18.51.41.03.25-.15.47-.41.5-.26.03-.47-.14-.5-.4-.03-.25.15-.48.4-.51Z"/>
          <path class="cls-14" d="M283.51,392.41c.02.26-.14.47-.4.49-.26.02-.48-.15-.5-.4-.02-.24.18-.48.42-.5.24-.03.47.16.49.42Z"/>
          <path class="cls-14" d="M274.15,384.85c-.26.02-.47-.15-.5-.41-.03-.25.15-.48.4-.51.22-.03.49.19.51.41.02.25-.17.47-.41.5Z"/>
          <path class="cls-14" d="M269.7,384.71c-.24.02-.47-.17-.5-.41-.02-.24.18-.48.42-.5.24-.02.46.16.49.42.02.25-.15.47-.41.5Z"/>
          <path class="cls-14" d="M267.33,382.44c-.24.01-.45-.18-.47-.44-.01-.26.17-.46.42-.48.24-.01.47.19.48.44.01.24-.2.47-.43.48Z"/>
          <path class="cls-14" d="M277.26,385.67c.24-.02.48.19.49.43.02.24-.18.48-.42.49-.26.02-.46-.16-.48-.42-.02-.26.16-.48.41-.5Z"/>
          <path class="cls-14" d="M272.52,382.3c-.26.03-.46-.11-.5-.36-.04-.28.12-.51.39-.54.24-.03.45.14.49.39.04.28-.11.48-.38.51Z"/>
          <path class="cls-14" d="M277.01,381.98c-.27.02-.47-.15-.49-.41-.02-.26.16-.47.42-.49.24-.02.48.19.49.43.01.24-.17.45-.42.47Z"/>
          <path class="cls-14" d="M280.48,387.3c-.26.02-.47-.15-.5-.4-.02-.24.17-.48.41-.5.23-.02.48.18.5.41.03.24-.16.47-.42.49Z"/>
          <path class="cls-14" d="M264.01,380.59c.25,0,.45.17.46.41.02.25-.18.46-.44.47-.25.01-.48-.18-.48-.43,0-.25.19-.45.45-.46Z"/>
          <path class="cls-14" d="M279.83,392.97c.56.04,1.18.46,1.19,1.16-.02.13-.04.37-.07.61-.06.48-.37.62-.77.33-.08-.06-.16-.14-.22-.23-.32-.48-.32-1.06-.41-1.6-.02-.15.1-.28.28-.27Z"/>
        </g>
      </g>
    </g>
  </g>
</svg>