<svg width="407" height="323" viewBox="0 0 407 323" fill="none" xmlns="http://www.w3.org/2000/svg">
<path d="M401.343 262.371C399.584 262.56 397.666 262.844 395.626 263.259C386.975 265.02 386.795 270.891 386.871 272.237L386.812 272.2C385.942 273.595 385.398 275.006 385.068 276.338L384.672 258.345C384.928 257.811 385.161 257.206 385.356 256.585C386.003 258.578 387.065 260.461 387.98 260.336C389.17 260.174 389.689 256.675 389.467 254.188C390.98 256.136 393.526 258.219 394.487 257.576C395.255 257.063 394.799 254.95 393.961 253.03C395.708 254.081 397.642 254.772 398.242 254.104C399.061 253.193 397.098 250.085 395.288 248.349C397.711 248.575 400.792 248.189 400.994 247.087C401.16 246.179 399.327 245.034 397.364 244.296C399.335 243.777 401.179 242.872 401.118 241.976C401.045 240.913 398.308 240.2 395.947 240.092C397.728 238.699 399.364 236.774 398.864 235.904C398.404 235.103 396.264 235.413 394.289 236.118C395.458 234.449 396.279 232.567 395.654 231.923C394.874 231.121 392.108 232.506 390.221 234.036C390.588 231.652 390.402 228.643 389.332 228.371C388.437 228.143 387.169 229.893 386.299 231.8C385.915 229.799 385.137 227.899 384.239 227.899C382.959 227.899 381.922 231.754 381.922 234.266C381.922 234.408 381.926 234.541 381.933 234.669C381.804 234.52 381.657 234.365 381.489 234.202C379.687 232.452 376.197 230.51 375.306 231.427C374.68 232.071 375.502 233.953 376.67 235.622C374.696 234.917 372.555 234.607 372.095 235.408C371.477 236.483 374.12 239.168 376.267 240.469C376.138 240.454 376.003 240.441 375.858 240.431C373.351 240.26 369.432 241.032 369.345 242.307C369.284 243.203 371.128 244.108 373.099 244.627C371.136 245.365 369.303 246.51 369.469 247.418C369.671 248.52 372.752 248.906 375.175 248.68C373.365 250.415 371.402 253.524 372.221 254.435C372.821 255.103 374.755 254.412 376.502 253.36C375.664 255.281 375.209 257.394 375.976 257.907C376.991 258.585 379.773 256.225 381.24 254.194C381.09 256.679 381.685 260.092 382.866 260.227C383.359 260.283 383.882 259.757 384.354 258.947L383.017 278.288C382.705 280.541 384.704 282.01 384.883 282.938L385.171 296.036C384.846 295.103 384.407 294.148 383.816 293.201L383.757 293.237C383.833 291.891 383.654 286.02 375.002 284.26C372.962 283.845 371.044 283.561 369.286 283.372C367.21 283.149 366.401 285.988 368.276 286.905C370.991 288.233 373.545 289.907 374.877 291.889C378.28 296.955 382.983 294.026 383.652 293.572C384.399 294.814 384.889 296.066 385.198 297.257L385.351 304.213C385.314 304.377 385.288 304.469 385.286 304.476L385.357 304.497L385.728 321.33L389.166 321.303L387.936 304.097C388.143 303.169 388.779 300.007 387.936 296.723L386.707 283.204C386.703 283.194 386.776 283.559 386.707 283.204L385.102 277.892C385.336 276.249 385.877 274.4 386.976 272.571C387.645 273.026 392.348 275.955 395.752 270.888C397.083 268.906 399.638 267.233 402.353 265.905C404.228 264.988 403.418 262.148 401.343 262.371ZM385.638 302.198L385.573 299.254C385.704 300.367 385.697 301.372 385.638 302.198Z" fill="#F2F2F2"/>
<path d="M50.8979 262.619C49.1396 262.808 47.2215 263.092 45.1811 263.507C36.5299 265.268 36.3503 271.139 36.4262 272.485L36.3674 272.448C35.4975 273.843 34.9527 275.254 34.6234 276.586L34.2272 258.592C34.4834 258.059 34.7165 257.453 34.9108 256.833C35.5584 258.826 36.6199 260.709 37.535 260.584C38.7249 260.422 39.2437 256.923 39.0217 254.436C40.5348 256.384 43.0814 258.466 44.042 257.824C44.8097 257.311 44.3545 255.198 43.5164 253.277C45.2627 254.329 47.1967 255.02 47.7969 254.352C48.6158 253.441 46.6534 250.332 44.8436 248.597C47.2661 248.823 50.3471 248.437 50.5491 247.335C50.7156 246.427 48.8819 245.282 46.9192 244.544C48.8906 244.025 50.734 243.12 50.6729 242.224C50.6003 241.161 47.8634 240.448 45.5023 240.339C47.2832 238.947 48.9195 237.022 48.4191 236.151C47.9591 235.351 45.8189 235.661 43.8444 236.366C45.0129 234.696 45.8344 232.815 45.2088 232.171C44.4294 231.369 41.6634 232.753 39.7757 234.284C40.1432 231.9 39.9574 228.891 38.8876 228.619C37.9926 228.391 36.7241 230.141 35.8545 232.048C35.4701 230.047 34.692 228.147 33.7939 228.147C32.5146 228.147 31.4776 232.002 31.4776 234.514C31.4776 234.655 31.4813 234.789 31.4878 234.917C31.3594 234.768 31.2123 234.613 31.0444 234.45C29.2417 232.7 25.7522 230.758 24.861 231.675C24.2353 232.319 25.0568 234.2 26.2253 235.87C24.2508 235.165 22.1107 234.855 21.6506 235.655C21.0324 236.731 23.6747 239.415 25.8225 240.717C25.6934 240.702 25.5578 240.689 25.4134 240.679C22.9063 240.508 18.9876 241.279 18.9005 242.555C18.8393 243.45 20.6828 244.356 22.6541 244.875C20.6915 245.612 18.8578 246.758 19.0242 247.666C19.2262 248.768 22.3072 249.154 24.7297 248.928C22.9199 250.663 20.9575 253.772 21.7765 254.683C22.3766 255.351 24.3107 254.66 26.0569 253.608C25.2188 255.529 24.7637 257.642 25.5313 258.155C26.5458 258.833 29.328 256.473 30.7949 254.442C30.6455 256.926 31.2404 260.34 32.4208 260.475C32.9144 260.531 33.4375 260.005 33.9096 259.195L32.5726 278.536C32.26 280.788 34.2591 282.258 34.4378 283.186L34.7262 296.283C34.4007 295.351 33.9624 294.396 33.3714 293.449L33.3127 293.485C33.3885 292.139 33.2088 286.268 24.5577 284.508C22.5173 284.092 20.5992 283.809 18.8409 283.62C16.7654 283.396 15.9558 286.236 17.8307 287.153C20.5461 288.481 23.1004 290.155 24.4317 292.136C27.8355 297.203 32.5385 294.274 33.2072 293.82C33.954 295.062 34.4438 296.314 34.7531 297.505L34.9062 304.461C34.8687 304.625 34.8427 304.717 34.8407 304.724L34.9125 304.745L35.2831 321.578L38.7211 321.551L37.4914 304.345C37.6981 303.417 38.3338 300.255 37.4914 296.971L36.2617 283.452C36.2586 283.441 36.3315 283.807 36.2617 283.452L34.6576 278.14C34.8909 276.497 35.4322 274.648 36.5316 272.819C37.2003 273.274 41.9033 276.203 45.3071 271.136C46.6384 269.154 49.1927 267.481 51.9081 266.153C53.783 265.235 52.9734 262.396 50.8979 262.619ZM35.1928 302.445L35.128 299.502C35.2587 300.615 35.2521 301.619 35.1928 302.445Z" fill="#F2F2F2"/>
<path d="M0 321.16C0 321.527 0.294835 321.822 0.661985 321.822H406.338C406.705 321.822 407 321.527 407 321.16C407 320.793 406.705 320.499 406.338 320.499H0.661985C0.294835 320.499 0 320.793 0 321.16Z" fill="#3F3D56"/>
<path d="M119.252 202.652C121.641 200.635 121.007 195.958 117.835 192.205C116.447 190.563 114.802 189.37 113.191 188.717L111.34 186.581L87.4341 156.645C87.4341 156.645 74.1953 126.865 70.2873 123.648C66.3793 120.431 61.7813 122.106 61.7813 122.106L58.1938 126.542L80.5493 168.122L103.429 191.133L106.517 194.352C106.892 196.048 107.794 197.868 109.183 199.51C112.355 203.262 116.863 204.669 119.252 202.652Z" fill="#A0616A"/>
<path d="M74.1257 129.185L80.1165 137.966L88.717 150.687L73.2635 156.03L59.6191 132.631L74.1257 129.185Z" fill="#E6E6E6"/>
<path d="M80.2087 99.3004L75.8697 115.833L59.3276 112.581C59.3276 112.581 65.836 100.656 64.2089 95.2351L80.2087 99.3004Z" fill="#A0616A"/>
<path d="M62.7461 314.501L72.7077 314.5L77.4464 276.099L62.7441 276.1L62.7461 314.501Z" fill="#A0616A"/>
<path d="M96.8758 314.275C97.1859 314.797 97.3496 316.482 97.3496 317.089C97.3496 318.956 95.8359 320.468 93.9686 320.468H63.119C61.8451 320.468 60.8124 319.436 60.8124 318.163V316.88C60.8124 316.88 59.2863 313.022 62.4283 308.267C62.4283 308.267 66.3334 311.99 72.1685 306.158L73.8893 303.043L86.345 312.147L93.2491 312.996C94.7595 313.182 96.0988 312.967 96.8758 314.275Z" fill="#2F2E41"/>
<path d="M90.4059 203.368L76.6794 296.721H59.4575L61.7475 243.433L62.9528 215.414L59.4575 202.076C59.4575 202.076 57.8639 199.112 56.5214 195.518C55.0081 191.463 53.8129 186.601 55.5873 184.296C56.2401 183.446 57.9376 182.817 60.2443 182.349C61.6538 182.061 63.2943 181.837 65.0653 181.663C75.2498 180.655 89.7364 181.284 89.7364 181.284L90.1046 193.43L90.3089 200.213L90.4059 203.368Z" fill="#2F2E41"/>
<path d="M45.1987 309.935L55.0544 311.383L65.3318 274.079L50.7857 271.943L45.1987 309.935Z" fill="#A0616A"/>
<path d="M78.998 314.673C79.2289 315.235 79.1456 316.926 79.0572 317.527C78.7856 319.373 77.0679 320.65 75.2204 320.378L44.6989 315.894C43.4386 315.708 42.5671 314.537 42.7524 313.278L42.9392 312.008C42.9392 312.008 41.9908 307.969 45.7914 303.721C45.7914 303.721 49.1131 307.972 55.7349 303.051L57.8908 300.219L68.889 311.037L75.596 312.881C77.0634 313.284 78.4197 313.267 78.998 314.673Z" fill="#2F2E41"/>
<path d="M90.6221 187.799L88.7394 204.004L78.4719 238.151L61.57 294.37L44.5332 291.867L59.8235 211.933L58.3095 198.227C58.3095 198.227 57.8165 196.864 57.2513 194.87C56.1295 190.924 54.7224 184.498 56.2704 181.22C56.4794 180.774 56.7418 180.387 57.0664 180.074C57.6753 179.484 58.9127 179.126 60.5706 178.936C67.5003 178.153 81.7716 180.392 88.1219 181.491L90.6221 187.799Z" fill="#2F2E41"/>
<path d="M77.497 110.954L96.2086 134.533L92.8497 159.116L89.9714 184.131L56.0736 178.981C56.0736 178.981 63.3955 161.365 64.2091 160.552C65.0226 159.739 67.0661 161.747 65.6376 159.116C64.2091 156.486 62.582 156.486 63.9379 155.131C65.2938 153.776 53.3618 136.16 53.3618 126.674C53.3618 117.188 59.0566 109.599 59.0566 109.599L77.497 110.954Z" fill="#E6E6E6"/>
<path d="M73.1309 102.423C80.0925 102.423 85.7359 96.7824 85.7359 89.8249C85.7359 82.8674 80.0925 77.2273 73.1309 77.2273C66.1693 77.2273 60.5259 82.8674 60.5259 89.8249C60.5259 96.7824 66.1693 102.423 73.1309 102.423Z" fill="#A0616A"/>
<path d="M72.5419 113.911C72.5419 113.911 74.4281 98.9955 74.7619 94.6579C75.0958 90.3203 81.2222 83.5481 81.2222 83.5481L85.5623 87.0515C85.5623 87.0515 89.2348 87.0515 86.7308 81.7129C84.2269 76.3743 79.5529 75.5402 79.5529 75.5402C79.5529 75.5402 79.0521 68.5333 70.3718 69.3674C61.6915 70.2016 57.8522 77.2085 57.8522 77.2085C57.8522 77.2085 57.3514 68.3665 51.8427 74.8729C46.3341 81.3793 43.1624 84.0485 49.005 86.2173C54.8475 88.3861 59.1876 86.7178 59.1876 86.7178C59.1876 86.7178 53.512 87.8856 54.5136 91.8896C55.5152 95.8935 41.3262 114.078 47.8364 116.08C54.3467 118.082 68.8695 122.92 70.5387 119.75C72.208 116.581 72.5419 113.911 72.5419 113.911Z" fill="#2F2E41"/>
<path d="M61.9477 224.732C65.0752 224.763 67.65 220.806 67.6986 215.894C67.7199 213.744 67.2535 211.767 66.46 210.222L66.4526 207.396L67.9001 169.122C67.9001 169.122 77.3258 137.927 76.4672 132.94C75.6087 127.953 71.0317 126.222 71.0317 126.222L65.4165 127.241L55.188 173.323L57.4861 205.682L57.7234 210.135C56.8995 211.665 56.3941 213.632 56.3729 215.782C56.3243 220.694 58.8202 224.701 61.9477 224.732Z" fill="#A0616A"/>
<path d="M68.7173 121.225C68.7173 121.225 53.7082 147.878 55.8714 155.513L72.5083 156.191C72.5083 156.191 73.4168 156.895 73.347 153.672C73.2772 150.448 77.0486 146.847 77.0486 146.847C77.0486 146.847 76.9778 148.418 76.4977 145.747C76.0176 143.076 85.1895 135.272 85.1895 135.272L68.7173 121.225Z" fill="#E6E6E6"/>
<path d="M107.438 196.138L109.181 154.626C109.181 154.626 111.138 129.981 112.703 121.375C114.269 112.769 124.837 115.116 124.837 115.116L123.663 139.761L118.596 164.982L114.653 199.325C114.856 200.318 114.971 201.398 114.971 202.532C114.971 207.343 112.961 211.244 110.481 211.244C108.001 211.244 105.99 207.343 105.99 202.532C105.99 200.001 106.55 197.729 107.438 196.138Z" fill="#FFB6B6"/>
<path d="M192.248 185.382C190.395 183.176 188.177 181.678 186.184 181.101L162.75 154.626C162.75 154.626 160.793 129.981 159.228 121.375C157.662 112.769 147.094 115.116 147.094 115.116L148.268 139.761L154.922 166.362L182.343 189.628C182.822 190.5 183.409 191.371 184.112 192.208C187.448 196.179 191.974 197.87 194.22 195.985C196.467 194.1 195.584 189.353 192.248 185.382Z" fill="#FFB6B6"/>
<path d="M140.689 111.791L137.971 101.347L127.381 100.838L124.213 115.235L140.689 111.791Z" fill="#FFB6B6"/>
<path opacity="0.1" d="M140.689 111.791L137.971 101.347L127.381 100.838L124.213 115.235L140.689 111.791Z" fill="black"/>
<path d="M167.731 282.894L177.65 282.328L176.349 312.75L169.628 313.134L167.731 282.894Z" fill="#FFB6B6"/>
<path d="M177.208 303.131L173.764 304.701L173.769 306.788C173.769 306.788 172.938 304.373 168.478 303.846L167.945 305.869C167.945 305.869 166.216 307.853 166.512 311.442L167.648 321.054L171.011 320.976L171.554 314.288C171.554 314.288 172.481 312.77 176.749 319.982C176.749 319.982 181.45 321.166 188.731 318.727C189.731 318.391 190.426 317.458 190.413 316.403C190.406 315.821 190.178 315.283 189.448 315.09C187.589 314.599 185.774 315.222 184.574 313.739C183.373 312.256 177.208 303.131 177.208 303.131Z" fill="#2F2E41"/>
<path d="M114.499 282.894L124.417 282.328L123.116 312.75L116.395 313.134L114.499 282.894Z" fill="#FFB6B6"/>
<path d="M123.976 303.131L120.532 304.701L120.536 306.788C120.536 306.788 119.705 304.373 115.245 303.846L114.713 305.869C114.713 305.869 112.983 307.853 113.28 311.442L114.415 321.054L117.779 320.976L118.322 314.288C118.322 314.288 119.248 312.77 123.516 319.982C123.516 319.982 128.218 321.166 135.498 318.727C136.499 318.391 137.194 317.458 137.181 316.403C137.174 315.821 136.946 315.283 136.216 315.09C134.357 314.599 132.542 315.222 131.341 313.739C130.141 312.256 123.976 303.131 123.976 303.131Z" fill="#2F2E41"/>
<path d="M132.547 107.498C139.032 107.498 144.29 102.243 144.29 95.7619C144.29 89.2806 139.032 84.0264 132.547 84.0264C126.062 84.0264 120.805 89.2806 120.805 95.7619C120.805 102.243 126.062 107.498 132.547 107.498Z" fill="#FFB6B6"/>
<path d="M125.889 97.7128C125.889 97.7128 131.051 89.2703 136.219 90.2022C141.387 91.134 144.081 91.9753 144.081 91.9753C144.081 91.9753 146.186 85.2441 139.12 82.0146C139.12 82.0146 149.119 73.6478 138.463 68.2783C127.806 62.9088 121.175 68.1127 121.175 68.1127C121.175 68.1127 112.354 75.5885 122.134 82.5071C122.134 82.5071 113.67 92.1427 122.218 101.347C122.218 101.347 120.709 94.3385 122.762 95.7753C124.815 97.212 125.889 97.7128 125.889 97.7128Z" fill="#2F2E41"/>
<path d="M124.641 112.573L140.689 110.618L153.019 120.593C153.019 120.593 159.151 137.668 154.585 147.976C154.475 148.223 154.389 165.384 154.389 165.384H120.292C120.292 165.384 120.326 153.703 119.023 149.473C118.837 148.868 118.623 148.416 118.379 148.171C116.421 146.215 111.725 133.698 114.073 128.221C116.421 122.744 124.641 112.573 124.641 112.573Z" fill="#FF63E6"/>
<path d="M154.584 164.601L176.112 233.059L180.809 287.042H167.697L156.542 236.971L141.179 207.986L126.011 290.954H112.775L113.094 178.684L120.32 164.601H154.584Z" fill="#2F2E41"/>
<path d="M252.356 125.387L250.325 112.696L264.039 107.112L266.071 126.402L252.356 125.387Z" fill="#A0616A"/>
<path opacity="0.1" d="M252.356 125.387L250.325 112.696L264.039 107.112L266.071 126.402L252.356 125.387Z" fill="black"/>
<path d="M192.219 183.411C189.926 186.157 189.485 189.566 191.234 191.024C192.982 192.483 196.259 191.439 198.553 188.691C199.484 187.606 200.142 186.314 200.471 184.923L210.042 173.165L205.38 169.395L195.587 180.85C194.276 181.422 193.121 182.301 192.219 183.411Z" fill="#A0616A"/>
<path d="M234.047 125.295L237.378 138.482L221.075 164.564L204.431 181.281L199.037 176.808L215.822 155.936L228.545 129.042L234.047 125.295Z" fill="#E6E6E6"/>
<path d="M246.261 293.415L243.213 306.106L252.356 308.644L254.388 294.938L246.261 293.415Z" fill="#A0616A"/>
<path d="M231.531 252.296L241.182 260.418L247.277 270.064L238.642 275.648L223.912 258.896L231.531 252.296Z" fill="#A0616A"/>
<path d="M234.579 168.536L226.452 195.948C226.452 195.948 190.388 227.422 193.944 234.021C197.499 240.621 221.372 258.895 221.372 258.895C221.372 258.895 219.601 264.739 224.804 262.325C230.007 259.911 235.595 253.311 235.595 253.311C235.595 253.311 235.595 248.235 233.055 249.25C230.515 250.266 218.833 236.559 218.833 236.559L246.102 213.576L244.23 291.29C244.23 291.29 238.134 296.617 244.23 297.046C250.325 297.476 253.88 298.491 253.88 298.491C253.88 298.491 260.991 295.953 258.452 293.415L268.103 251.789L277.447 208.175C278.539 203.081 278.162 197.782 276.36 192.894L269.626 174.628L234.579 168.536Z" fill="#2F2E41"/>
<path d="M250.832 304.583C250.832 304.583 250.325 302.552 248.293 302.552H242.088C242.088 302.552 240.166 311.182 240.674 311.182C241.182 311.182 232.547 322.35 241.69 322.858C250.832 323.365 253.372 322.35 253.372 322.35L254.388 318.343C254.388 318.343 255.912 315.751 255.404 313.72C254.896 311.69 250.832 304.583 250.832 304.583Z" fill="#2F2E41"/>
<path d="M238.134 271.586C238.134 271.586 232.3 271.495 233.693 273.063C235.087 274.632 237.626 277.17 237.626 277.17C237.626 277.17 243.668 289.354 246.488 287.069C249.309 284.785 253.88 259.403 252.356 256.357C250.833 253.312 248.801 253.312 248.801 253.312L239.43 258.944C239.43 258.944 245.245 273.109 238.134 271.586Z" fill="#2F2E41"/>
<path d="M266.832 123.61L250.578 119.549L233.309 125.133C233.309 125.133 225.69 146.454 228.229 154.068C230.769 161.683 232.896 173.472 232.896 173.472C232.896 173.472 231.023 170.059 245.753 174.628C260.483 179.196 271.15 178.689 271.15 178.689L271.658 160.414L278.039 144.181C280.766 137.243 277.826 129.366 271.219 125.907L266.832 123.61Z" fill="#E6E6E6"/>
<path d="M257.643 117.709C265.222 117.709 271.365 111.569 271.365 103.996C271.365 96.4218 265.222 90.2821 257.643 90.2821C250.065 90.2821 243.922 96.4218 243.922 103.996C243.922 111.569 250.065 117.709 257.643 117.709Z" fill="#A0616A"/>
<path d="M268.726 112.962C268.726 112.962 266.615 115.072 264.504 116.127C263.898 116.43 263.945 115.993 264.32 115.216C266.223 111.272 265.491 106.564 262.393 103.468L262.921 100.303L244.978 98.7211C244.978 98.7211 242.867 90.2821 253.949 88.6997C255.833 88.4308 247.089 88.1723 249.2 83.9528C251.311 79.7332 252.894 80.7881 253.949 77.6234C255.005 74.4588 255.005 71.8216 258.699 72.349C262.393 72.8765 262.393 74.9862 266.088 72.8765C269.782 70.7667 278.754 72.8765 277.17 76.0411C275.587 79.2058 272.948 81.843 275.059 83.9528C277.17 86.0625 281.92 89.7546 278.226 92.3918C274.532 95.0291 273.476 96.6114 274.004 97.6663C274.532 98.7211 270.837 96.6114 270.837 96.6114C270.837 96.6114 274.532 103.996 272.948 106.633C271.365 109.27 268.726 112.962 268.726 112.962Z" fill="#2F2E41"/>
<path d="M346.211 157.171H318.023V193.135H346.211V157.171Z" fill="#FFB6B6"/>
<path d="M319.822 92.4352C318.393 89.7546 317.725 88.587 318.023 87.0406C318.545 84.3243 321.582 82.8477 322.821 82.2454C326.799 80.311 331.957 80.4266 336.015 82.8448C338.453 84.2977 339.755 86.1409 340.813 87.64C341.762 88.9835 344.712 93.161 344.412 98.4292C344.187 102.384 342.377 102.63 342.613 105.023C343.205 111.03 354.756 110.944 357.606 117.61C360.177 123.622 355.025 133.608 347.411 137.39C335.818 143.148 323.268 132.164 321.021 130.198C315.607 125.459 312.026 118.937 313.225 117.61C313.926 116.833 315.773 118.384 318.622 117.61C321.871 116.727 323.594 113.59 324.02 112.815C326.479 108.339 325.037 103.441 324.62 102.026C324.233 100.711 322.762 97.9525 319.822 92.4352Z" fill="#2F2E41"/>
<path d="M304.726 315.457L296.507 315.457L292.597 283.771L304.728 283.772L304.726 315.457Z" fill="#FFB6B6"/>
<path d="M276.565 315.271C276.309 315.702 276.174 317.092 276.174 317.593C276.174 319.133 277.423 320.381 278.964 320.381H304.419C305.47 320.381 306.322 319.53 306.322 318.479V317.42C306.322 317.42 307.581 314.237 304.989 310.313C304.989 310.313 301.766 313.386 296.952 308.574L295.532 306.003L285.254 313.515L279.558 314.216C278.311 314.369 277.206 314.192 276.565 315.271Z" fill="#2F2E41"/>
<path d="M352.107 315.457L343.887 315.457L339.977 283.771L352.108 283.772L352.107 315.457Z" fill="#FFB6B6"/>
<path d="M323.946 315.271C323.69 315.702 323.555 317.092 323.555 317.593C323.555 319.133 324.804 320.381 326.344 320.381H351.799C352.85 320.381 353.702 319.53 353.702 318.479V317.42C353.702 317.42 354.962 314.237 352.369 310.313C352.369 310.313 349.147 313.386 344.332 308.574L342.912 306.003L332.635 313.515L326.938 314.216C325.692 314.369 324.587 314.192 323.946 315.271Z" fill="#2F2E41"/>
<path d="M325.819 105.622L326.419 124.204L348.01 127.201L336.915 101.974L325.819 105.622Z" fill="#FFB6B6"/>
<path d="M331.817 111.616C338.773 111.616 344.412 105.98 344.412 99.0286C344.412 92.0767 338.773 86.4412 331.817 86.4412C324.861 86.4412 319.222 92.0767 319.222 99.0286C319.222 105.98 324.861 111.616 331.817 111.616Z" fill="#FFB6B6"/>
<path d="M346.211 178.749C346.211 178.749 359.706 193.434 351.309 206.621L352.509 249.179C352.509 249.179 357.505 280.008 351.708 300.257L341.713 299.528L334.516 246.781L327.319 212.016L310.526 246.182C310.526 246.182 311.725 270.757 305.728 297.131H292.533L293.733 235.992L315.624 172.156L346.211 178.749Z" fill="#2F2E41"/>
<path d="M326.42 117.011L327.323 116.682L339.614 112.215C339.614 112.215 355.208 124.203 355.208 130.797C355.208 137.39 346.811 161.366 346.811 161.366C346.811 161.366 358.206 173.354 348.011 173.954C337.815 174.553 332.459 164.839 315.666 172.032L314.424 156.571C314.424 156.571 307.227 140.987 310.826 137.39L326.42 117.011Z" fill="#FF63E6"/>
<path d="M343.477 209.89C343.554 214.785 346.143 218.713 349.261 218.663C352.378 218.614 354.841 214.606 354.764 209.709C354.759 207.752 354.286 205.825 353.384 204.089L352.796 183.352L344.591 183.605L344.678 204.227C343.831 205.991 343.419 207.933 343.477 209.89Z" fill="#FFB6B6"/>
<path d="M347.772 118.319C352.436 117.558 356.668 121.165 356.652 125.888L354.186 200.174L344.425 199.944L341.356 125.937C341.32 122.163 344.045 118.927 347.772 118.319Z" fill="#FF63E6"/>
<path d="M265.053 173.324C261.217 176.369 259.679 180.815 261.618 183.255C263.557 185.694 268.238 185.204 272.075 182.158C273.625 180.962 274.865 179.413 275.693 177.64L291.785 164.535L286.584 158.188L270.277 170.825C268.361 171.229 266.57 172.086 265.053 173.324Z" fill="#FFB6B6"/>
<path d="M340.313 120.921C343.76 124.153 343.477 129.704 339.721 132.57L279.287 175.889L273.521 168.015L330.36 120.48C333.332 118.151 337.56 118.338 340.313 120.921Z" fill="#FF63E6"/>
<path d="M325.82 91.8359C324.391 89.1553 323.723 87.9876 324.02 86.4413C324.542 83.7249 327.58 82.2483 328.818 81.646C332.797 79.7117 337.955 79.8272 342.013 82.2454C344.451 83.6983 345.752 85.5416 346.811 87.0407C347.759 88.3841 350.709 92.5617 350.409 97.8299C350.184 101.785 348.374 102.03 348.61 104.423C349.202 110.43 360.753 110.344 363.604 117.011C366.175 123.022 361.023 133.009 353.408 136.791C341.815 142.549 329.266 131.565 327.019 129.598C321.605 124.859 318.024 118.337 319.222 117.011C319.924 116.234 321.771 117.785 324.62 117.011C327.868 116.128 329.592 112.991 330.018 112.216C332.477 107.739 331.034 102.841 330.618 101.426C330.23 100.112 328.76 97.3531 325.82 91.8359Z" fill="#2F2E41"/>
<path d="M259.484 173.238C256.058 174.272 253.814 176.877 254.473 179.056C255.131 181.235 258.443 182.163 261.87 181.128C263.245 180.734 264.505 180.016 265.545 179.035L280.008 174.471L278.187 168.76L263.706 172.948C262.296 172.707 260.848 172.806 259.484 173.238Z" fill="#A0616A"/>
<path d="M284.61 135.793L269.372 124.625L269.88 145.946L284.102 164.221L268.864 170.313L269.372 179.011C269.372 179.011 288.674 174.374 291.721 173.866C294.769 173.359 297.309 166.252 297.309 166.252L284.61 135.793Z" fill="#E6E6E6"/>
</svg>
