<?xml version="1.0" encoding="utf-8"?>
<!-- Generator: Adobe Illustrator 28.3.0, SVG Export Plug-In . SVG Version: 6.00 Build 0)  -->
<svg version="1.1" id="Camada_1" xmlns="http://www.w3.org/2000/svg" xmlns:xlink="http://www.w3.org/1999/xlink" x="0px" y="0px"
	 viewBox="0 0 1865.6 377.4" style="enable-background:new 0 0 1865.6 377.4;" xml:space="preserve">
<style type="text/css">
	.st0{fill:#0066A5;}
	.st1{fill:#BC9D32;}
	.st2{fill:#8E8E8E;}
	.st3{fill:none;stroke:#EFB700;stroke-width:2;stroke-miterlimit:10;}
	.st4{fill:#FFFFFF;}
	.st5{fill:#FFFFFF;stroke:#FFFFFF;stroke-width:2;stroke-miterlimit:10;}
	.st6{fill-rule:evenodd;clip-rule:evenodd;fill:#FFFFFF;}
	.st7{fill-rule:evenodd;clip-rule:evenodd;}
	.st8{fill-rule:evenodd;clip-rule:evenodd;fill:#00508A;}
	.st9{fill-rule:evenodd;clip-rule:evenodd;fill:#44773B;}
	.st10{fill-rule:evenodd;clip-rule:evenodd;fill:#A7A6A6;}
	.st11{fill-rule:evenodd;clip-rule:evenodd;fill:#C19E15;}
	.st12{fill:#A7A6A6;}
	.st13{fill:#00508A;}
	.st14{fill:#1D1D1B;}
	.st15{display:none;}
	.st16{display:inline;}
	.st17{fill:#252020;}
	.st18{fill:#E52785;}
	.st19{stroke:#FFFFFF;stroke-width:2;stroke-miterlimit:10;}
</style>
<g>
	<g>
		<path d="M209.6,285.3v-2.6h-8.7v2.6h2.4v9.6h-2.4v2.6h8.7v-2.6h-2.4v-9.6H209.6z M222.8,287.1c-0.7-0.7-1.6-1.1-2.9-1.1
			c-0.7,0-1.4,0.1-2,0.4c-0.6,0.3-1.2,0.6-1.8,1.1v-1.2h-3.6v11.3h3.6v-8c0.4-0.2,0.8-0.4,1.1-0.5c0.3-0.1,0.7-0.2,1-0.2
			c0.5,0,0.8,0.1,1.1,0.2c0.3,0.1,0.4,0.3,0.6,0.5c0.1,0.2,0.2,0.5,0.2,1c0,0.4,0.1,0.9,0.1,1.4v5.6h3.6v-7.3
			C223.9,288.8,223.5,287.8,222.8,287.1z M236.3,292c-0.5-0.5-1.1-0.9-2.1-1.2c-0.4-0.1-0.9-0.2-1.3-0.3c-0.4-0.1-0.8-0.1-1.2-0.2
			c-0.7-0.1-1.1-0.3-1.3-0.4c-0.2-0.1-0.3-0.3-0.3-0.6c0-0.3,0.2-0.5,0.6-0.7c0.4-0.2,0.9-0.3,1.5-0.3c0.7,0,1.4,0.1,2.1,0.3
			c0.7,0.2,1.3,0.5,1.8,0.9h0.3v-2.8c-0.4-0.2-1-0.4-1.8-0.6c-0.8-0.2-1.6-0.2-2.4-0.2c-1.8,0-3.2,0.4-4.2,1.1
			c-1,0.7-1.5,1.6-1.5,2.7c0,0.8,0.2,1.6,0.7,2.1c0.5,0.6,1.3,1,2.3,1.2c0.4,0.1,0.8,0.2,1.2,0.3c0.5,0.1,0.8,0.1,1.1,0.2
			c0.6,0.1,0.9,0.2,1.2,0.4c0.2,0.1,0.3,0.3,0.3,0.6c0,0.3-0.2,0.5-0.5,0.7c-0.3,0.2-0.9,0.2-1.6,0.2c-0.5,0-1-0.1-1.5-0.2
			c-0.5-0.1-0.9-0.2-1.3-0.4c-0.4-0.2-0.8-0.3-1-0.5c-0.2-0.2-0.4-0.3-0.6-0.4h-0.3v3c0.5,0.2,1.2,0.4,2,0.6
			c0.8,0.2,1.7,0.3,2.7,0.3c1.8,0,3.2-0.4,4.3-1.1c1-0.7,1.6-1.6,1.6-2.8C237,293.2,236.8,292.6,236.3,292z M246.6,288.8v-2.5h-3.4
			v-3.2h-3.6v3.2h-1.5v2.5h1.5v5.3c0,1.4,0.4,2.3,1,2.9c0.7,0.6,1.7,0.8,3.1,0.8c0.6,0,1.2,0,1.6-0.1c0.4-0.1,0.9-0.1,1.2-0.2V295
			h-0.3c-0.1,0.1-0.3,0.1-0.6,0.2c-0.3,0.1-0.5,0.1-0.7,0.1c-0.5,0-0.8-0.1-1-0.2c-0.2-0.1-0.4-0.3-0.5-0.5
			c-0.1-0.2-0.2-0.5-0.2-0.8c0-0.3,0-0.6,0-1v-4H246.6z M248.7,286.3v11.3h3.6v-11.3H248.7z M248.6,282v2.7h3.8V282H248.6z
			 M263,288.8v-2.5h-3.4v-3.2H256v3.2h-1.5v2.5h1.5v5.3c0,1.4,0.3,2.3,1,2.9c0.7,0.6,1.7,0.8,3.1,0.8c0.6,0,1.2,0,1.6-0.1
			c0.4-0.1,0.8-0.1,1.2-0.2V295h-0.3c-0.1,0.1-0.3,0.1-0.6,0.2s-0.6,0.1-0.7,0.1c-0.4,0-0.8-0.1-1-0.2c-0.2-0.1-0.4-0.3-0.5-0.5
			c-0.1-0.2-0.2-0.5-0.2-0.8c0-0.3,0-0.6,0-1v-4H263z M272.7,286.3v8c-0.4,0.2-0.7,0.4-1.1,0.5c-0.4,0.1-0.7,0.2-1,0.2
			c-0.5,0-0.8-0.1-1.1-0.2c-0.3-0.1-0.5-0.3-0.6-0.5c-0.1-0.2-0.2-0.6-0.3-0.9c0-0.4,0-0.8,0-1.4v-5.6H265v7.3c0,1.4,0.3,2.5,1,3.2
			c0.7,0.7,1.6,1.1,2.9,1.1c0.8,0,1.4-0.1,2-0.4c0.6-0.3,1.2-0.6,1.8-1.1v1.2h3.6v-11.3H272.7z M287,288.8v-2.5h-3.4v-3.2H280v3.2
			h-1.5v2.5h1.5v5.3c0,1.4,0.3,2.3,1,2.9c0.7,0.6,1.7,0.8,3.1,0.8c0.6,0,1.2,0,1.6-0.1c0.4-0.1,0.8-0.1,1.2-0.2V295h-0.3
			c-0.1,0.1-0.3,0.1-0.6,0.2c-0.3,0.1-0.5,0.1-0.7,0.1c-0.5,0-0.8-0.1-1-0.2c-0.2-0.1-0.4-0.3-0.5-0.5c-0.1-0.2-0.2-0.5-0.2-0.8
			c0-0.3,0-0.6,0-1v-4H287z M299,287.6c-1.1-1.1-2.6-1.6-4.6-1.6c-1.9,0-3.4,0.5-4.5,1.6c-1.1,1.1-1.6,2.5-1.6,4.4
			c0,1.9,0.5,3.3,1.6,4.4c1.1,1.1,2.6,1.6,4.5,1.6c2,0,3.5-0.5,4.6-1.6c1.1-1.1,1.6-2.5,1.6-4.4S300.1,288.6,299,287.6z
			 M296.7,293.7c-0.1,0.4-0.3,0.8-0.5,1c-0.2,0.3-0.5,0.4-0.8,0.6c-0.3,0.1-0.6,0.2-0.9,0.2c-0.4,0-0.7-0.1-1-0.2
			c-0.3-0.1-0.6-0.3-0.8-0.6c-0.2-0.3-0.4-0.6-0.5-1.1c-0.1-0.5-0.2-1-0.2-1.6c0-0.7,0.1-1.3,0.2-1.7c0.1-0.5,0.3-0.8,0.5-1.1
			c0.3-0.3,0.5-0.5,0.8-0.6c0.3-0.1,0.6-0.1,0.9-0.1c0.3,0,0.7,0.1,1,0.2c0.3,0.1,0.6,0.3,0.8,0.6c0.2,0.3,0.4,0.6,0.5,1.1
			c0.1,0.5,0.2,1,0.2,1.7C296.9,292.7,296.8,293.2,296.7,293.7z M317.6,282v4.8c-0.5-0.2-0.9-0.4-1.3-0.5c-0.4-0.2-1-0.2-1.7-0.2
			c-0.6,0-1.3,0.1-1.9,0.4c-0.6,0.3-1.2,0.7-1.7,1.2c-0.5,0.5-0.9,1.2-1.1,1.9c-0.3,0.7-0.4,1.6-0.4,2.5c0,1.8,0.4,3.2,1.2,4.3
			c0.8,1.1,1.9,1.6,3.3,1.6c0.7,0,1.3-0.1,1.9-0.4c0.5-0.2,1.1-0.6,1.7-1.1v1.2h3.6V282H317.6z M317.6,294.5c-0.3,0.2-0.6,0.4-1,0.5
			c-0.4,0.1-0.7,0.2-1,0.2c-0.8,0-1.4-0.2-1.8-0.7c-0.4-0.5-0.6-1.3-0.6-2.4c0-1,0.2-1.9,0.7-2.5c0.5-0.6,1.2-0.9,2.1-0.9
			c0.2,0,0.5,0,0.8,0.1c0.3,0.1,0.5,0.1,0.8,0.2V294.5z M335.7,291.4c0-1.7-0.5-3.1-1.4-4c-0.9-0.9-2.3-1.4-4.1-1.4
			c-2,0-3.6,0.5-4.7,1.6c-1.1,1.1-1.7,2.6-1.7,4.4c0,1.9,0.6,3.3,1.8,4.4c1.2,1,2.9,1.5,5.2,1.5c0.9,0,1.7-0.1,2.4-0.2
			c0.7-0.1,1.5-0.4,2.3-0.7v-2.9h-0.4c-0.4,0.3-1,0.6-1.7,0.9c-0.7,0.3-1.4,0.4-2.2,0.4c-1.2,0-2.1-0.2-2.7-0.7
			c-0.6-0.5-0.9-1.1-1-2h8.3V291.4z M327.4,290.5c0.1-0.8,0.3-1.4,0.8-1.7c0.5-0.4,1-0.5,1.7-0.5c0.8,0,1.3,0.2,1.7,0.6
			c0.3,0.4,0.5,0.9,0.6,1.7H327.4z M212.7,315.4c-0.5-0.6-1.4-1.1-2.5-1.5c-0.6-0.2-1.1-0.3-1.6-0.4c-0.5-0.1-1-0.2-1.6-0.3
			c-0.8-0.2-1.4-0.4-1.7-0.6c-0.3-0.2-0.5-0.5-0.5-0.9c0-0.3,0.1-0.5,0.3-0.7c0.2-0.2,0.4-0.4,0.7-0.5c0.3-0.1,0.6-0.2,0.9-0.2
			c0.3,0,0.6-0.1,1-0.1c0.9,0,1.8,0.2,2.7,0.5c0.9,0.3,1.6,0.7,2.2,1.2h0.4v-3.4c-0.7-0.3-1.5-0.5-2.5-0.7c-1-0.2-1.9-0.3-2.9-0.3
			c-2,0-3.6,0.4-4.8,1.3c-1.2,0.9-1.9,2-1.9,3.4c0,1,0.3,1.9,0.8,2.6c0.5,0.7,1.4,1.2,2.7,1.7c0.6,0.2,1.1,0.3,1.8,0.5
			c0.6,0.1,1.2,0.2,1.8,0.4c0.5,0.1,0.9,0.3,1.2,0.5c0.3,0.2,0.4,0.5,0.4,0.9c0,0.4-0.1,0.6-0.3,0.8c-0.2,0.2-0.4,0.3-0.7,0.5
			c-0.3,0.1-0.6,0.2-0.9,0.2c-0.4,0-0.7,0.1-0.9,0.1c-0.9,0-1.9-0.2-2.8-0.5c-1-0.3-1.9-0.8-2.7-1.5h-0.4v3.6
			c0.8,0.3,1.7,0.6,2.6,0.8c0.9,0.2,2,0.3,3.2,0.3c2.1,0,3.8-0.5,5.1-1.4c1.2-0.9,1.9-2.1,1.9-3.6
			C213.5,316.8,213.2,316,212.7,315.4z M227,316.3c0-1.7-0.5-3.1-1.4-4c-0.9-0.9-2.3-1.4-4.1-1.4c-2,0-3.6,0.5-4.7,1.6
			c-1.1,1.1-1.7,2.6-1.7,4.4c0,1.9,0.6,3.3,1.8,4.3c1.2,1,2.9,1.5,5.2,1.5c0.9,0,1.7-0.1,2.4-0.2c0.7-0.1,1.5-0.4,2.3-0.7V319h-0.4
			c-0.4,0.3-1,0.6-1.7,0.9c-0.7,0.3-1.4,0.4-2.2,0.4c-1.2,0-2.1-0.2-2.7-0.7c-0.6-0.5-1-1.1-1-2h8.3V316.3z M218.8,315.5
			c0.1-0.8,0.3-1.4,0.8-1.7c0.5-0.4,1-0.5,1.7-0.5c0.8,0,1.3,0.2,1.7,0.6c0.4,0.4,0.5,0.9,0.6,1.7H218.8z M237,311.3l-0.1,0.5
			c-0.4-0.3-0.9-0.5-1.4-0.6c-0.5-0.1-1.1-0.2-1.7-0.2c-0.7,0-1.3,0.1-2,0.4c-0.6,0.3-1.2,0.6-1.6,1.1c-0.5,0.5-0.8,1.1-1.1,1.8
			c-0.3,0.7-0.4,1.5-0.4,2.4c0,1.9,0.4,3.4,1.3,4.3c0.8,1,2.1,1.4,3.6,1.4c0.7,0,1.2-0.1,1.8-0.3c0.5-0.2,1-0.5,1.5-0.8v0.2
			c0,0.5-0.1,0.9-0.2,1.2c-0.1,0.3-0.2,0.6-0.4,0.8c-0.2,0.2-0.5,0.4-1,0.5c-0.4,0.1-1,0.2-1.6,0.2c-0.5,0-1.1-0.1-1.7-0.2
			c-0.6-0.1-1.2-0.3-1.6-0.5H230v2.8c0.6,0.1,1.2,0.2,2,0.3c0.8,0.1,1.5,0.1,2.3,0.1c1,0,1.8-0.1,2.6-0.3c0.8-0.2,1.4-0.5,2-0.9
			c0.6-0.4,1-1,1.3-1.7c0.3-0.7,0.5-1.6,0.5-2.7v-10H237z M236.9,319c-0.3,0.2-0.6,0.3-1,0.5c-0.3,0.1-0.7,0.2-1.1,0.2
			c-0.8,0-1.4-0.2-1.8-0.6c-0.4-0.4-0.6-1.2-0.6-2.3c0-1,0.2-1.7,0.7-2.3c0.5-0.5,1.2-0.8,2.1-0.8c0.2,0,0.5,0,0.8,0.1
			c0.3,0.1,0.6,0.1,0.8,0.2V319z M251.6,311.3v8c-0.4,0.2-0.7,0.4-1.1,0.5c-0.4,0.1-0.7,0.2-1,0.2c-0.5,0-0.8-0.1-1.1-0.2
			c-0.3-0.1-0.5-0.3-0.6-0.5c-0.1-0.2-0.2-0.6-0.3-0.9c0-0.4-0.1-0.8-0.1-1.4v-5.6h-3.6v7.3c0,1.4,0.3,2.5,1,3.2
			c0.7,0.7,1.6,1.1,2.9,1.1c0.8,0,1.4-0.1,2-0.4c0.6-0.3,1.2-0.6,1.8-1.2v1.2h3.6v-11.3H251.6z M266.3,311.3c-0.2,0-0.3,0-0.4,0
			c-0.5,0-1,0.1-1.6,0.3c-0.6,0.2-1.3,0.7-2.1,1.4v-1.7h-3.6v11.3h3.6V315c0.4-0.2,0.9-0.3,1.3-0.3c0.4-0.1,0.9-0.1,1.4-0.1
			c0.2,0,0.5,0,0.9,0c0.3,0,0.6,0.1,0.7,0.1h0.3v-3.4C266.6,311.3,266.5,311.3,266.3,311.3z M277.8,311.9c-0.9-0.6-2.4-1-4.5-1
			c-0.9,0-1.7,0.1-2.6,0.2c-0.9,0.1-1.5,0.3-1.9,0.4v2.7h0.3c0.3-0.1,0.8-0.3,1.5-0.5c0.7-0.2,1.3-0.3,1.9-0.3c1,0,1.7,0.1,2.3,0.4
			c0.5,0.2,0.8,0.7,0.8,1.3v0.1c-1.1,0.1-2.1,0.2-3.1,0.3c-1,0.1-1.8,0.3-2.5,0.6c-0.7,0.3-1.2,0.7-1.6,1.2c-0.4,0.5-0.5,1.2-0.5,2
			c0,1,0.4,1.9,1.1,2.5c0.7,0.7,1.6,1,2.7,1c0.5,0,0.9,0,1.3-0.1c0.4-0.1,0.7-0.2,1.1-0.4c0.3-0.1,0.5-0.3,0.8-0.5
			c0.3-0.2,0.5-0.4,0.7-0.5v1.2h3.6v-7.7C279.2,313.5,278.8,312.6,277.8,311.9z M275.6,319.6c-0.3,0.2-0.6,0.4-1,0.6
			c-0.4,0.1-0.7,0.2-1.1,0.2c-0.5,0-0.8,0-1-0.1c-0.2-0.1-0.4-0.2-0.6-0.3c-0.2-0.1-0.3-0.3-0.3-0.4c0-0.1-0.1-0.3-0.1-0.6
			c0-0.4,0.1-0.6,0.3-0.9c0.2-0.2,0.5-0.4,0.8-0.5c0.3-0.1,0.7-0.2,1.3-0.2c0.6-0.1,1.1-0.1,1.6-0.2V319.6z M292.8,312.1
			c-0.7-0.7-1.6-1.1-2.9-1.1c-0.7,0-1.4,0.1-2,0.4c-0.6,0.3-1.2,0.7-1.8,1.2v-1.2h-3.6v11.3h3.6v-8c0.4-0.2,0.8-0.4,1.1-0.5
			c0.3-0.1,0.7-0.2,1-0.2c0.5,0,0.8,0.1,1.1,0.2c0.3,0.1,0.5,0.3,0.6,0.6c0.1,0.2,0.2,0.5,0.3,1c0,0.5,0.1,0.9,0.1,1.4v5.6h3.6v-7.3
			C293.9,313.8,293.5,312.8,292.8,312.1z M303.1,313.6c0.4,0,0.8,0,1.1,0.2c0.3,0.1,0.6,0.2,0.9,0.4c0.3,0.2,0.5,0.3,0.7,0.5
			c0.2,0.2,0.4,0.3,0.5,0.4h0.5v-3.1c-0.6-0.3-1.2-0.5-1.8-0.7c-0.7-0.2-1.4-0.2-2.1-0.2c-0.8,0-1.7,0.1-2.5,0.3
			c-0.8,0.2-1.5,0.6-2.1,1c-0.6,0.5-1.1,1.1-1.5,1.9c-0.4,0.8-0.5,1.7-0.5,2.7c0,1,0.2,1.8,0.5,2.5c0.3,0.7,0.8,1.3,1.3,1.8
			c0.6,0.5,1.2,0.9,2,1.1c0.8,0.2,1.6,0.4,2.6,0.4v0.5c0,0.5-0.1,0.9-0.4,1.2c-0.3,0.3-0.7,0.4-1.2,0.4c-0.3,0-0.6,0-0.9-0.1
			c-0.3-0.1-0.5-0.2-0.7-0.2h-0.2v2c0.3,0.1,0.7,0.2,1.1,0.2c0.4,0,0.8,0,1,0c1.1,0,1.9-0.3,2.6-0.9c0.7-0.6,1-1.4,1-2.5
			c0-0.1,0-0.3,0-0.4c0-0.2,0-0.3,0-0.4c0.4-0.1,0.7-0.2,1-0.3c0.3-0.1,0.6-0.2,0.9-0.3v-3.1h-0.5c-0.1,0.1-0.3,0.3-0.5,0.4
			c-0.2,0.1-0.4,0.3-0.6,0.4c-0.2,0.1-0.5,0.3-0.9,0.4c-0.4,0.1-0.8,0.1-1.2,0.1c-1,0-1.7-0.3-2.3-0.8c-0.5-0.6-0.8-1.4-0.8-2.5
			c0-1.1,0.3-1.9,0.8-2.5C301.4,313.9,302.1,313.6,303.1,313.6z M318.3,311.9c-0.9-0.6-2.4-1-4.5-1c-0.9,0-1.7,0.1-2.6,0.2
			c-0.9,0.1-1.5,0.3-1.9,0.4v2.7h0.3c0.3-0.1,0.8-0.3,1.5-0.5c0.7-0.2,1.3-0.3,1.9-0.3c1,0,1.7,0.1,2.2,0.4c0.5,0.2,0.8,0.7,0.8,1.3
			v0.1c-1.1,0.1-2.1,0.2-3.1,0.3c-1,0.1-1.8,0.3-2.5,0.6c-0.7,0.3-1.2,0.7-1.6,1.2c-0.4,0.5-0.5,1.2-0.5,2c0,1,0.4,1.9,1.1,2.5
			c0.7,0.7,1.6,1,2.7,1c0.4,0,0.9,0,1.3-0.1c0.4-0.1,0.7-0.2,1.1-0.4c0.3-0.1,0.5-0.3,0.8-0.5c0.3-0.2,0.5-0.4,0.7-0.5v1.2h3.6v-7.7
			C319.7,313.5,319.2,312.6,318.3,311.9z M316.1,319.6c-0.3,0.2-0.6,0.4-1,0.6c-0.4,0.1-0.7,0.2-1.1,0.2c-0.5,0-0.8,0-1-0.1
			c-0.2-0.1-0.4-0.2-0.5-0.3c-0.2-0.1-0.3-0.3-0.3-0.4c0-0.1-0.1-0.3-0.1-0.6c0-0.4,0.1-0.6,0.3-0.9c0.2-0.2,0.5-0.4,0.8-0.5
			c0.3-0.1,0.7-0.2,1.3-0.2c0.6-0.1,1.1-0.1,1.6-0.2V319.6z M342.1,310.1c-0.3-0.6-0.8-1.1-1.4-1.5c-0.5-0.3-1.1-0.6-1.7-0.7
			c-0.7-0.2-1.5-0.2-2.4-0.2h-6.3v14.9h3.9v-4.9h2.4c1.1,0,2-0.1,2.7-0.4c0.7-0.3,1.4-0.8,2-1.3c0.4-0.4,0.8-1,1-1.6
			c0.2-0.6,0.3-1.3,0.3-2C342.5,311.5,342.4,310.7,342.1,310.1z M338.4,313.5c-0.1,0.3-0.3,0.6-0.5,0.8c-0.3,0.2-0.6,0.4-1.1,0.5
			c-0.4,0.1-1,0.1-1.6,0.1h-1.1v-4.5h0.7c0.6,0,1.1,0,1.5,0c0.4,0,0.8,0.1,1.2,0.3c0.3,0.1,0.6,0.3,0.8,0.6c0.2,0.3,0.3,0.7,0.3,1.1
			C338.6,312.9,338.5,313.2,338.4,313.5z M352.7,311.3v8c-0.4,0.2-0.7,0.4-1.1,0.5c-0.4,0.1-0.7,0.2-1,0.2c-0.5,0-0.8,0-1.1-0.2
			c-0.3-0.1-0.5-0.3-0.6-0.5c-0.1-0.2-0.2-0.6-0.3-0.9c0-0.4-0.1-0.8-0.1-1.4v-5.6H345v7.3c0,1.4,0.3,2.5,1,3.2
			c0.7,0.7,1.6,1.1,2.9,1.1c0.8,0,1.4-0.1,2-0.4c0.6-0.3,1.2-0.6,1.8-1.2v1.2h3.6v-11.3H352.7z M350.4,305.7l-2.5,4h2.5l3.5-3.7
			v-0.2H350.4z M370.3,312.5c-0.8-1-1.9-1.5-3.3-1.5c-0.8,0-1.4,0.1-2,0.4c-0.6,0.3-1.1,0.6-1.7,1.1v-5.5h-3.6v15.6h3.5l0.1-0.6
			c0.4,0.2,0.9,0.5,1.4,0.6c0.5,0.1,1,0.2,1.7,0.2c1.5,0,2.7-0.6,3.7-1.7c1-1.1,1.5-2.6,1.5-4.3C371.5,315,371.1,313.6,370.3,312.5z
			 M367.1,319.4c-0.5,0.6-1.2,0.9-2.1,0.9c-0.3,0-0.6,0-0.8-0.1c-0.2,0-0.5-0.1-0.7-0.2v-5.7c0.3-0.2,0.7-0.3,1-0.5
			c0.3-0.1,0.7-0.2,1.1-0.2c0.9,0,1.5,0.3,1.8,0.8c0.3,0.6,0.5,1.3,0.5,2.3C367.8,318,367.5,318.8,367.1,319.4z M374.1,306.9v15.6
			h3.6v-15.6H374.1z M381.1,311.3v11.3h3.6v-11.3H381.1z M381,306.9v2.7h3.8v-2.7H381z M394,313.6c0.4,0,0.8,0,1.1,0.2
			c0.3,0.1,0.6,0.2,0.9,0.3c0.3,0.2,0.5,0.3,0.7,0.5c0.2,0.2,0.4,0.3,0.5,0.4h0.5v-3.1c-0.6-0.3-1.2-0.5-1.8-0.7
			c-0.7-0.2-1.4-0.2-2.1-0.2c-0.9,0-1.7,0.1-2.5,0.3c-0.8,0.2-1.5,0.6-2.1,1c-0.6,0.5-1.1,1.1-1.5,1.9c-0.4,0.8-0.5,1.7-0.5,2.7
			c0,1,0.2,1.9,0.5,2.6c0.3,0.7,0.8,1.4,1.4,1.9c0.6,0.5,1.3,0.8,2.1,1.1c0.8,0.2,1.7,0.4,2.7,0.4c0.8,0,1.4-0.1,2-0.2
			c0.6-0.2,1.2-0.4,1.8-0.6v-3.1h-0.5c-0.1,0.1-0.3,0.3-0.5,0.4c-0.2,0.1-0.4,0.3-0.6,0.4c-0.2,0.1-0.5,0.3-0.9,0.4
			c-0.4,0.1-0.8,0.1-1.2,0.1c-1,0-1.7-0.3-2.3-0.8c-0.5-0.6-0.8-1.4-0.8-2.5c0-1.1,0.3-1.9,0.8-2.5S393.1,313.6,394,313.6z
			 M409.3,311.9c-0.9-0.6-2.4-1-4.5-1c-0.9,0-1.7,0.1-2.6,0.2c-0.9,0.1-1.5,0.3-1.9,0.4v2.7h0.3c0.3-0.1,0.8-0.3,1.5-0.5
			c0.7-0.2,1.3-0.3,1.9-0.3c1,0,1.7,0.1,2.2,0.4c0.5,0.2,0.8,0.7,0.8,1.3v0.1c-1.1,0.1-2.1,0.2-3.1,0.3c-1,0.1-1.8,0.3-2.5,0.6
			c-0.7,0.3-1.2,0.7-1.6,1.2c-0.4,0.5-0.5,1.2-0.5,2c0,1,0.4,1.9,1.1,2.5c0.7,0.7,1.6,1,2.7,1c0.4,0,0.9,0,1.2-0.1
			c0.4-0.1,0.8-0.2,1.1-0.4c0.3-0.1,0.5-0.3,0.8-0.5c0.3-0.2,0.5-0.4,0.7-0.5v1.2h3.6v-7.7C410.6,313.5,410.2,312.6,409.3,311.9z
			 M407.1,319.6c-0.3,0.2-0.6,0.4-1,0.6c-0.4,0.1-0.7,0.2-1.1,0.2c-0.5,0-0.8,0-1-0.1c-0.2-0.1-0.4-0.2-0.6-0.3
			c-0.1-0.1-0.2-0.3-0.3-0.4c0-0.1-0.1-0.3-0.1-0.6c0-0.4,0.1-0.6,0.3-0.9c0.2-0.2,0.5-0.4,0.8-0.5c0.3-0.1,0.7-0.2,1.3-0.2
			c0.6-0.1,1.1-0.1,1.6-0.2V319.6z"/>
		<path d="M109,289.7v-7H85.9v7h6.5v25.5h-6.5v7H109v-7h-6.5v-25.5H109z M146.8,303.1c-1.4-1.7-3.7-3-6.7-4c-1.6-0.5-3-0.9-4.3-1.2
			c-1.3-0.3-2.7-0.6-4.2-0.9c-2.2-0.4-3.7-1-4.5-1.5c-0.8-0.6-1.2-1.4-1.2-2.4c0-0.7,0.2-1.3,0.7-1.8c0.5-0.5,1.1-0.9,1.8-1.2
			c0.8-0.3,1.6-0.5,2.4-0.7c0.8-0.1,1.7-0.2,2.5-0.2c2.4,0,4.8,0.4,7.1,1.3c2.3,0.9,4.3,1.9,5.8,3.2h1.1v-9.1
			c-1.9-0.8-4.1-1.4-6.6-1.9c-2.5-0.5-5.1-0.7-7.7-0.7c-5.2,0-9.4,1.2-12.7,3.5c-3.3,2.3-4.9,5.3-4.9,9c0,2.7,0.7,5,2.2,6.9
			c1.5,1.8,3.9,3.3,7.2,4.4c1.5,0.5,3,0.9,4.7,1.2c1.7,0.3,3.2,0.6,4.7,1c1.4,0.3,2.5,0.8,3.2,1.4c0.7,0.6,1.1,1.4,1.1,2.2
			c0,0.9-0.2,1.7-0.8,2.1c-0.5,0.5-1.1,0.9-1.9,1.2c-0.6,0.3-1.5,0.4-2.5,0.5c-1,0.1-1.8,0.2-2.4,0.2c-2.4,0-4.9-0.4-7.5-1.3
			c-2.6-0.9-5-2.2-7.1-3.9h-1.1v9.5c2.1,0.9,4.4,1.6,6.8,2.2c2.4,0.6,5.3,0.9,8.6,0.9c5.7,0,10.1-1.2,13.4-3.6c3.3-2.4,5-5.6,5-9.5
			C149,307,148.2,304.8,146.8,303.1z M187.3,289.3c-0.8-1.6-2.1-3-3.6-4c-1.3-0.9-2.9-1.5-4.6-2c-1.7-0.4-3.8-0.6-6.4-0.6h-16.8
			v39.5h10.2v-12.9h6.3c2.9,0,5.3-0.4,7.2-1.2c1.9-0.8,3.7-2,5.3-3.5c1.2-1.2,2-2.6,2.6-4.3c0.6-1.7,0.9-3.4,0.9-5.2
			C188.6,292.9,188.1,290.9,187.3,289.3z M177.6,298.3c-0.3,0.8-0.8,1.5-1.4,2c-0.8,0.6-1.7,1.1-2.8,1.3c-1.1,0.2-2.6,0.3-4.3,0.3
			h-2.9v-11.8h1.7c1.7,0,3,0,4,0.1c1,0,2,0.3,3.1,0.7c0.8,0.3,1.5,0.9,2.1,1.7c0.6,0.8,0.9,1.8,0.9,2.9
			C178,296.5,177.9,297.5,177.6,298.3z"/>
	</g>
	<g>
		<g>
			<path d="M377,211.6c0,1.8,0,3.7,0,5.5c-0.1,4.2,0.2,8.5-0.3,12.6c0.1-0.5-1-1.7-1.2-2.1c-0.5-0.8-1-1.6-1.6-2.4
				c-1.1-1.5-2.2-2.9-3.4-4.2c-2.5-2.7-5.4-5.1-8.2-7.5c-3.7-3.2-7.6-6.3-12-8.6c-4.8-2.5-10.3-3.6-15.6-2.4
				c-0.7-5.5-2.4-19.8-5.1-24.1c-3.6-5.7-8.5-10.2-14.7-13.5c-6.2-3.3-13.4-4.9-21.4-4.9c-5.9,0-10.8,0.7-14.6,2.2s-7,3.2-9.7,5.1
				c-2.6,1.9-5,3.6-7,5.1c-2,1.5-4.3,2.2-6.8,2.2h-29.2c-1.9,0-3.5-0.7-4.9-2.1c-0.5-0.5-1-1.1-1.3-1.7c0.7-0.8,1.4-1.5,2.1-2.3
				c7.5-8,13.3-16.5,17.3-25.3c4.1-8.9,6.1-18.7,6.1-29.3c0-13.4-3.1-25.7-9.3-36.4c-2-3.4-4.2-6.6-6.8-9.6l0.9-8.8
				c0.2-2.7,1.2-4.9,2.9-6.3c1.7-1.5,3.7-2.2,6-2.2h119.2c2.1,0,3.9,0.7,5.4,2.2c1.5,1.5,2.2,3.3,2.2,5.4v21.3
				c0,2.1-0.7,3.9-2.2,5.4c-1.5,1.5-3.3,2.2-5.4,2.2h-91.7l-5.1,51.7c3.8-2.5,8.9-5,15.2-7.3c6.3-2.3,15.1-3.5,26.3-3.5
				c10.1,0,19.8,1.6,29,4.9c9.2,3.3,17.4,8,24.6,14.3c7.2,6.2,12.8,13.7,17,22.5c0.1,0.2,0.2,0.4,0.2,0.5c1.3,3.3,1.6,7,1.9,10.4
				c0.5,5,0.7,10.1,0.8,15.2C377,201.1,377,206.3,377,211.6z"/>
		</g>
		<g>
			<path d="M137.5,259.4c0.4,0.5,0.8,0.8,1.4,1c0.5,0.2,1.1,0.3,1.6,0.3c0.6,0,1.1-0.1,1.6-0.3c0.5-0.2,1-0.6,1.4-1
				c0.4-0.5,0.8-1.1,1-1.9c0.2-0.7,0.3-1.5,0.3-2.5c0-1-0.1-1.9-0.4-2.6c-0.2-0.7-0.6-1.3-0.9-1.8c-0.4-0.5-0.8-0.8-1.4-1
				c-0.5-0.2-1-0.3-1.6-0.3c-0.6,0-1.1,0.1-1.6,0.3c-0.5,0.2-1,0.5-1.4,1c-0.4,0.4-0.7,1-0.9,1.8c-0.2,0.8-0.4,1.6-0.4,2.6
				c0,1,0.1,1.9,0.4,2.6C136.8,258.4,137.1,259,137.5,259.4z"/>
			<polygon points="96.7,257 100.9,257 98.8,250.9 			"/>
			<path d="M196.7,180.5c7.2-6,13.6-12.1,19.1-17.9c1.6-1.7,3.1-3.5,4.6-5.3c4.7-5.7,8.4-11.6,11.1-17.7c3.5-7.7,5.3-16.4,5.3-25.6
				c0-11.8-2.7-22.6-8.1-32.1c-0.2-0.3-0.3-0.6-0.5-0.8c-5.4-9-13.3-16.2-23.7-21.5c-10.8-5.6-24.8-8.4-41.6-8.4
				c-11.8,0-22.6,1.9-32,5.7c-9.4,3.8-17.4,8.9-23.8,15.1c-6.4,6.2-11.4,13.4-14.7,21.4c-3.4,8-5.2,16.4-5.4,24.9
				c0,0.3,0.1,0.7,0.6,1.2c0.3,0.3,0.7,0.6,1.6,0.6h28.2c1.2,0,2.3-0.3,3.6-1c0.3-0.2,1-0.5,1.3-2.5c1.1-6.7,3.3-12.8,6.4-18.3
				c3.2-5.7,7.7-10.4,13.5-13.8c5.8-3.5,12.8-5.2,21-5.2c12.5,0,21.9,3.5,27.9,10.4c5.9,6.7,8.9,15.5,8.9,26.1
				c0,7.1-2.2,14.4-6.5,21.5c-4.1,6.8-10.7,14.3-19.5,22.2c-5.4,4.8-11.2,9.5-16.8,14c-2.2,1.7-4.3,3.4-6.4,5.2
				c-7.3,6-14,12.4-21.8,20.1l-39,38.7c-2.7,2.2-4.5,4.3-5.1,6.2c-0.8,2.2-1.2,3.9-1.2,5.3V265c0,0.9,0.3,1.6,0.9,2.3
				c0.7,0.7,1.3,0.9,2.3,0.9h82.4l52.9-26l-88.1,0.6l49.2-49.9C187.1,188.9,191.6,184.8,196.7,180.5z M103.2,263.7l-1.2-3.5h-6.4
				l-1.2,3.5h-4.5l6.4-17.2h5.1l6.4,17.2H103.2z M127,263.7h-4.3l-7.3-11.8v11.8h-4.1v-17.2h5.3l6.3,9.9v-9.9h4.1V263.7z M153,258.5
				h0.5c0.9,0.7,1.9,1.3,3.1,1.7c1.1,0.4,2.2,0.6,3.3,0.6c0.3,0,0.6,0,1.1-0.1c0.4,0,0.8-0.1,1.1-0.2c0.3-0.1,0.6-0.3,0.8-0.5
				c0.2-0.2,0.3-0.5,0.3-0.9c0-0.4-0.2-0.7-0.5-1c-0.3-0.3-0.8-0.5-1.4-0.6c-0.6-0.2-1.3-0.3-2.1-0.4c-0.7-0.1-1.4-0.3-2-0.5
				c-1.4-0.5-2.5-1.1-3.1-1.9c-0.6-0.8-1-1.8-1-3c0-1.6,0.7-2.9,2.2-3.9c1.4-1,3.3-1.5,5.5-1.5c1.1,0,2.3,0.1,3.4,0.3
				c1.1,0.2,2.1,0.5,2.9,0.8v4h-0.5c-0.7-0.6-1.5-1-2.5-1.4c-1-0.4-2-0.6-3.1-0.6c-0.4,0-0.7,0-1.1,0.1s-0.7,0.1-1.1,0.3
				c-0.3,0.1-0.6,0.3-0.8,0.5c-0.2,0.2-0.3,0.5-0.3,0.8c0,0.5,0.2,0.8,0.5,1s1,0.5,2,0.7c0.6,0.1,1.2,0.3,1.8,0.4
				c0.6,0.1,1.2,0.3,1.9,0.5c1.3,0.4,2.3,1,2.9,1.8c0.6,0.7,0.9,1.7,0.9,2.9c0,1.7-0.7,3.1-2.2,4.1c-1.4,1.1-3.4,1.6-5.9,1.6
				c-1.4,0-2.7-0.1-3.7-0.4c-1.1-0.3-2.1-0.6-3-1V258.5z M134,248.5c1.6-1.6,3.7-2.4,6.5-2.4c2.8,0,4.9,0.8,6.5,2.4
				c1.6,1.6,2.4,3.8,2.4,6.6c0,2.7-0.8,4.9-2.4,6.5c-1.6,1.6-3.7,2.4-6.5,2.4c-2.8,0-4.9-0.8-6.5-2.4c-1.6-1.6-2.4-3.8-2.4-6.5
				C131.6,252.3,132.4,250.1,134,248.5z"/>
		</g>
		<path d="M298,201.9c-17.9-6.6-32.2-14.3-32.4-14.4l1.4-2.5c0.1,0.1,14.3,7.7,32,14.2L298,201.9z"/>
		<g>
			<g>
				<path d="M271.8,188.3c-1.4-2.5-3.2-5.6-6.1-5.8c-3.5-0.2-7.2,5.2-8.7,7.8c-9.6,16.4-19.2,32.9-26.8,50.3
					c15.3-6.6,37.4-14.9,56.2-16.5C281.4,209.8,276,196,271.8,188.3z"/>
				<path d="M224.2,256.4c-1.5,4.4-2.9,8.9-5,13.1l81.4-0.4c-2.4-9.3-7.5-25.9-13.1-42.1c-19.6,1.6-43.5,10.8-58.8,17.6
					C227,248.5,225.5,252.5,224.2,256.4z"/>
			</g>
			<path d="M336.6,211.3c-10.8-0.8-23.8-4-38.6-9.4l1-2.7c14.6,5.4,27.3,8.5,37.9,9.3L336.6,211.3z"/>
			<path d="M175.8,270.5l36.5-18.5c0,0,52.8-27.9,85.1-25.2c0,0,26-18.6,41.2-20.1c15.2-1.4,31.9,20,31.9,20l38,43L175.8,270.5z"/>
		</g>
	</g>
</g>
<g>
	<g>
		<path d="M636.2,160.9c-2.1,0-4.1-0.2-6-0.7c-1.9-0.5-3.6-1.3-5.2-2.4l1.8-2.8c1.5,1,3.1,1.7,4.6,2.1c1.6,0.4,3.1,0.6,4.7,0.6
			c2.7,0,4.5-0.4,5.7-1.1c1.1-0.7,1.7-1.9,1.7-3.5c0-0.8-0.2-1.5-0.5-2c-0.3-0.5-0.8-0.9-1.5-1.2c-0.6-0.3-1.4-0.6-2.3-0.8
			c-0.9-0.2-1.9-0.4-3.1-0.6c-1.5-0.3-2.9-0.5-4.1-0.8s-2.2-0.7-3.1-1.2c-0.8-0.5-1.5-1.2-1.9-2.1c-0.4-0.8-0.7-2-0.7-3.3
			c0-2.6,0.8-4.5,2.5-5.6c1.6-1.1,4.1-1.7,7.4-1.7c2.2,0,4.1,0.2,5.6,0.7c1.5,0.5,2.8,1,3.9,1.7l-1.9,2.9c-0.9-0.6-2-1.1-3.4-1.5
			s-2.8-0.6-4.2-0.6c-2.3,0-3.9,0.3-4.8,0.9c-1,0.6-1.4,1.6-1.4,3c0,0.7,0.2,1.3,0.5,1.8c0.3,0.5,0.8,0.9,1.4,1.2s1.3,0.6,2.2,0.8
			c0.9,0.2,1.9,0.4,3,0.6c1.5,0.2,2.8,0.5,4,0.8c1.2,0.3,2.3,0.7,3.2,1.2c0.9,0.5,1.6,1.2,2.1,2.1c0.5,0.9,0.7,2,0.7,3.4
			c0,2.6-0.8,4.6-2.5,5.9C642.8,160.2,640,160.9,636.2,160.9z"/>
		<path d="M660.1,160.9c-2,0-3.6-0.3-4.9-0.8c-1.3-0.5-2.2-1.3-2.9-2.2c-0.7-0.9-1.2-2-1.4-3.3c-0.2-1.2-0.4-2.6-0.4-4
			s0.1-2.7,0.4-4s0.7-2.3,1.4-3.2s1.7-1.6,2.9-2.2c1.2-0.5,2.8-0.8,4.8-0.8c2,0,3.6,0.3,4.7,1c1.1,0.6,1.9,1.5,2.5,2.6
			c0.5,1.1,0.9,2.3,1,3.7c0.1,1.4,0.1,2.8,0.1,4.3h-14.5c0,0.9,0.2,1.7,0.4,2.4c0.2,0.7,0.6,1.4,1,1.9c0.5,0.5,1.1,0.9,1.9,1.2
			c0.8,0.3,1.8,0.4,3,0.4c0.8,0,1.5,0,2.1-0.1s1.1-0.2,1.6-0.4c0.5-0.2,0.9-0.4,1.3-0.6c0.4-0.2,0.8-0.5,1.2-0.8l1.8,2.4
			c-1.1,0.8-2.2,1.4-3.4,1.9C663.5,160.7,661.9,160.9,660.1,160.9z M659.9,143.5c-1.1,0-2.1,0.1-2.8,0.4c-0.7,0.3-1.3,0.6-1.8,1.1
			c-0.5,0.5-0.8,1.1-1,1.7c-0.2,0.7-0.4,1.4-0.4,2.3H665c0-0.8-0.1-1.5-0.2-2.2c-0.1-0.7-0.3-1.3-0.7-1.7c-0.3-0.5-0.8-0.9-1.5-1.2
			S661.1,143.5,659.9,143.5z"/>
		<path d="M681.2,160.9c-1.9,0-3.4-0.2-4.7-0.7c-1.2-0.5-2.2-1.2-2.9-2.1c-0.7-0.9-1.2-2-1.5-3.2c-0.3-1.3-0.4-2.6-0.4-4.1
			c0-1.5,0.1-2.9,0.4-4.2c0.3-1.2,0.8-2.3,1.5-3.2c0.7-0.9,1.7-1.6,3-2.1c1.2-0.5,2.8-0.7,4.8-0.7c1.8,0,3.2,0.3,4.4,0.8
			c1.2,0.5,2.1,1.2,2.9,2.1l-2.5,2.4c-0.5-0.5-1.1-0.9-1.8-1.3c-0.7-0.4-1.7-0.6-3-0.6c-1.2,0-2.2,0.2-3,0.5
			c-0.8,0.3-1.5,0.8-1.9,1.4c-0.5,0.6-0.8,1.3-1,2.2c-0.2,0.9-0.3,1.8-0.3,3c0,1.1,0.1,2.1,0.3,3c0.2,0.9,0.5,1.6,1,2.2
			c0.5,0.6,1.1,1.1,1.9,1.4s1.8,0.5,3,0.5c1.1,0,2-0.2,2.7-0.5c0.8-0.3,1.5-0.8,2.3-1.5l2.3,2.2c-0.5,0.5-1,0.9-1.5,1.2
			c-0.5,0.4-1.1,0.7-1.6,0.9c-0.6,0.2-1.2,0.4-1.9,0.6C682.8,160.8,682,160.9,681.2,160.9z"/>
		<path d="M692.6,141.1l2.7-0.2l0.4,2.4c0.4-0.7,1.2-1.3,2.3-1.8c1.1-0.5,2.6-0.8,4.3-0.8v3.5c-1.2,0-2.2,0.2-3,0.5
			c-0.8,0.3-1.4,0.7-1.9,1.3s-0.8,1.2-1,1.9c-0.2,0.7-0.3,1.6-0.3,2.5v10.3h-3.5V141.1z"/>
		<path d="M714.4,160.9c-2,0-3.6-0.3-4.9-0.8c-1.3-0.5-2.2-1.3-2.9-2.2c-0.7-0.9-1.2-2-1.4-3.3c-0.2-1.2-0.4-2.6-0.4-4
			s0.1-2.7,0.4-4s0.7-2.3,1.4-3.2s1.7-1.6,2.9-2.2c1.2-0.5,2.8-0.8,4.8-0.8c2,0,3.6,0.3,4.7,1c1.1,0.6,1.9,1.5,2.5,2.6
			c0.5,1.1,0.9,2.3,1,3.7c0.1,1.4,0.1,2.8,0.1,4.3h-14.5c0,0.9,0.2,1.7,0.4,2.4c0.2,0.7,0.6,1.4,1,1.9c0.5,0.5,1.1,0.9,1.9,1.2
			c0.8,0.3,1.8,0.4,3,0.4c0.8,0,1.5,0,2.1-0.1s1.1-0.2,1.6-0.4c0.5-0.2,0.9-0.4,1.3-0.6c0.4-0.2,0.8-0.5,1.2-0.8l1.8,2.4
			c-1.1,0.8-2.2,1.4-3.4,1.9C717.8,160.7,716.2,160.9,714.4,160.9z M714.2,143.5c-1.1,0-2.1,0.1-2.8,0.4c-0.7,0.3-1.3,0.6-1.8,1.1
			c-0.5,0.5-0.8,1.1-1,1.7c-0.2,0.7-0.4,1.4-0.4,2.3h11.2c0-0.8-0.1-1.5-0.2-2.2c-0.1-0.7-0.3-1.3-0.7-1.7c-0.3-0.5-0.8-0.9-1.5-1.2
			S715.4,143.5,714.2,143.5z"/>
		<path d="M725.4,140.9h3.6l0.6-5.6l2.7-0.5v6.1h5.2v3.1h-5.2v10.7c0,0.4,0,0.8,0.1,1.2c0,0.4,0.2,0.6,0.4,0.9
			c0.2,0.2,0.5,0.4,0.8,0.5c0.4,0.1,0.9,0.2,1.6,0.2h2.4v3c-0.1,0-0.3,0-0.6,0s-0.6,0-0.9,0c-0.3,0-0.6,0-0.9,0s-0.5,0-0.6,0
			c-1.2,0-2.1-0.1-2.8-0.3c-0.7-0.2-1.3-0.6-1.7-1s-0.7-1-0.9-1.7s-0.2-1.5-0.2-2.4V144h-3.5V140.9z"/>
		<path d="M747.5,160.9c-1.4,0-2.6-0.2-3.5-0.5c-0.9-0.3-1.6-0.7-2.2-1.3c-0.5-0.5-0.9-1.2-1.1-1.9c-0.2-0.7-0.3-1.5-0.3-2.3
			c0-1.4,0.2-2.5,0.7-3.5c0.4-0.9,1.2-1.7,2.2-2.2c1-0.6,2.3-0.9,4-1.2c1.7-0.2,3.7-0.3,6.2-0.3h1.1c0-0.7-0.1-1.3-0.2-1.8
			c-0.1-0.5-0.4-0.9-0.7-1.3c-0.4-0.3-0.8-0.6-1.5-0.7c-0.6-0.2-1.5-0.2-2.5-0.2c-1.2,0-2.4,0.2-3.4,0.5c-1,0.4-1.8,0.7-2.4,1.1
			l-1.8-2.7c0.3-0.2,0.8-0.4,1.3-0.7c0.5-0.3,1.2-0.5,1.8-0.7c0.7-0.2,1.4-0.4,2.2-0.5c0.8-0.1,1.7-0.2,2.5-0.2c1.7,0,3,0.1,4.1,0.4
			c1,0.3,1.8,0.8,2.4,1.4c0.6,0.6,0.9,1.5,1.1,2.5c0.2,1,0.3,2.2,0.3,3.6v7c0,0.5,0,0.9,0.1,1.1c0,0.3,0.1,0.5,0.2,0.7
			c0.1,0.2,0.3,0.3,0.6,0.3c0.3,0,0.6,0.1,1.1,0.1v3c-0.1,0-0.3,0.1-0.5,0.1c-0.2,0-0.5,0-0.9,0c-1.1,0-1.8-0.2-2.3-0.5
			c-0.4-0.3-0.8-0.9-1.1-1.7c-0.6,0.8-1.5,1.5-2.6,1.9C751.2,160.7,749.6,160.9,747.5,160.9z M748,157.9c2.3,0,3.9-0.5,4.9-1.4
			c1-1,1.5-2.5,1.5-4.6v-1.2h-0.9c-2,0-3.7,0.1-5,0.2c-1.3,0.1-2.3,0.3-3,0.7c-0.7,0.3-1.2,0.7-1.5,1.2c-0.3,0.5-0.4,1.2-0.4,1.9
			c0,1,0.3,1.8,0.9,2.4C745.2,157.7,746.4,157.9,748,157.9z"/>
		<path d="M763.7,141.1l2.7-0.2l0.4,2.4c0.4-0.7,1.2-1.3,2.3-1.8c1.1-0.5,2.6-0.8,4.3-0.8v3.5c-1.2,0-2.2,0.2-3,0.5
			c-0.8,0.3-1.4,0.7-1.9,1.3s-0.8,1.2-1,1.9c-0.2,0.7-0.3,1.6-0.3,2.5v10.3h-3.5V141.1z"/>
		<path d="M777,134.4h3.5v4.2H777V134.4z M777,140.9h3.4v19.6H777V140.9z"/>
		<path d="M791.6,160.9c-1.4,0-2.6-0.2-3.5-0.5c-0.9-0.3-1.6-0.7-2.2-1.3c-0.5-0.5-0.9-1.2-1.1-1.9c-0.2-0.7-0.3-1.5-0.3-2.3
			c0-1.4,0.2-2.5,0.7-3.5c0.4-0.9,1.2-1.7,2.2-2.2c1-0.6,2.3-0.9,4-1.2c1.7-0.2,3.7-0.3,6.2-0.3h1.1c0-0.7-0.1-1.3-0.2-1.8
			c-0.1-0.5-0.4-0.9-0.7-1.3c-0.4-0.3-0.8-0.6-1.5-0.7c-0.6-0.2-1.5-0.2-2.5-0.2c-1.2,0-2.4,0.2-3.4,0.5c-1,0.4-1.8,0.7-2.4,1.1
			l-1.8-2.7c0.3-0.2,0.8-0.4,1.3-0.7c0.5-0.3,1.2-0.5,1.8-0.7c0.7-0.2,1.4-0.4,2.2-0.5c0.8-0.1,1.7-0.2,2.5-0.2c1.7,0,3,0.1,4.1,0.4
			c1,0.3,1.8,0.8,2.4,1.4c0.6,0.6,0.9,1.5,1.1,2.5c0.2,1,0.3,2.2,0.3,3.6v7c0,0.5,0,0.9,0.1,1.1c0,0.3,0.1,0.5,0.2,0.7
			c0.1,0.2,0.3,0.3,0.6,0.3c0.3,0,0.6,0.1,1.1,0.1v3c-0.1,0-0.3,0.1-0.5,0.1c-0.2,0-0.5,0-0.9,0c-1.1,0-1.8-0.2-2.3-0.5
			c-0.4-0.3-0.8-0.9-1.1-1.7c-0.6,0.8-1.5,1.5-2.6,1.9C795.3,160.7,793.7,160.9,791.6,160.9z M792.1,157.9c2.3,0,3.9-0.5,4.9-1.4
			c1-1,1.5-2.5,1.5-4.6v-1.2h-0.9c-2,0-3.7,0.1-5,0.2c-1.3,0.1-2.3,0.3-3,0.7c-0.7,0.3-1.2,0.7-1.5,1.2c-0.3,0.5-0.4,1.2-0.4,1.9
			c0,1,0.3,1.8,0.9,2.4C789.3,157.7,790.5,157.9,792.1,157.9z"/>
		<path d="M823.4,160.9c-1.6,0-3-0.3-4.1-0.8c-1.1-0.5-1.9-1.2-2.6-2.1c-0.6-0.9-1.1-2-1.4-3.2s-0.4-2.6-0.4-4.1
			c0-1.5,0.1-2.8,0.4-4.1c0.3-1.2,0.7-2.3,1.4-3.2c0.6-0.9,1.5-1.6,2.6-2.1c1.1-0.5,2.5-0.7,4.1-0.7c2.1,0,3.6,0.2,4.7,0.6
			c1.1,0.4,1.8,1,2.3,1.8v-9.7h3.5v27.2l-2.6,0.2l-0.4-2.3c-0.6,0.9-1.5,1.5-2.7,1.9S825.5,160.9,823.4,160.9z M824.1,157.8
			c1.2,0,2.1-0.1,3-0.4c0.8-0.3,1.5-0.7,2-1.2s0.9-1.3,1.1-2.2s0.4-2,0.4-3.3s-0.1-2.4-0.3-3.3s-0.6-1.6-1.1-2.1
			c-0.5-0.5-1.2-0.9-2-1.2c-0.8-0.2-1.8-0.4-3-0.4c-1.1,0-2.1,0.2-2.8,0.5s-1.3,0.8-1.8,1.4s-0.7,1.3-0.9,2.2
			c-0.2,0.9-0.2,1.8-0.2,2.9c0,1.1,0.1,2.1,0.2,2.9c0.2,0.9,0.5,1.6,0.9,2.2c0.4,0.6,1,1.1,1.8,1.4S823,157.8,824.1,157.8z"/>
		<path d="M847.8,160.9c-2,0-3.6-0.3-4.9-0.8c-1.3-0.5-2.2-1.3-2.9-2.2c-0.7-0.9-1.2-2-1.4-3.3c-0.2-1.2-0.4-2.6-0.4-4
			s0.1-2.7,0.4-4s0.7-2.3,1.4-3.2s1.7-1.6,2.9-2.2c1.2-0.5,2.8-0.8,4.8-0.8c2,0,3.6,0.3,4.7,1c1.1,0.6,1.9,1.5,2.5,2.6
			c0.5,1.1,0.9,2.3,1,3.7c0.1,1.4,0.1,2.8,0.1,4.3h-14.5c0,0.9,0.2,1.7,0.4,2.4c0.2,0.7,0.6,1.4,1,1.9c0.5,0.5,1.1,0.9,1.9,1.2
			c0.8,0.3,1.8,0.4,3,0.4c0.8,0,1.5,0,2.1-0.1s1.1-0.2,1.6-0.4c0.5-0.2,0.9-0.4,1.3-0.6c0.4-0.2,0.8-0.5,1.2-0.8l1.8,2.4
			c-1.1,0.8-2.2,1.4-3.4,1.9C851.2,160.7,849.6,160.9,847.8,160.9z M847.6,143.5c-1.1,0-2.1,0.1-2.8,0.4c-0.7,0.3-1.3,0.6-1.8,1.1
			c-0.5,0.5-0.8,1.1-1,1.7c-0.2,0.7-0.4,1.4-0.4,2.3h11.2c0-0.8-0.1-1.5-0.2-2.2c-0.1-0.7-0.3-1.3-0.7-1.7c-0.3-0.5-0.8-0.9-1.5-1.2
			S848.8,143.5,847.6,143.5z"/>
		<path d="M624.5,196.3l2.9-4.2c2.8,1.9,6,2.8,9.4,2.8c5.1,0,6.1-1,6.1-3.2c0-2.2-2.2-2.6-6.2-3.1c-7-1-10.6-2.3-10.6-7.9
			c0-5.8,3.5-7.9,10.9-7.9c5.3,0,8.6,1.2,10.6,2.6l-3.1,4.5c-1.7-1.1-4.7-2-7.5-2c-4.1,0-5.1,0.8-5.1,2.7c0,2.1,2.2,2.5,6.3,3.1
			c6.3,0.9,10.5,1.9,10.5,7.8c0,5.3-2.9,8.3-11.6,8.3C631.8,199.7,627.4,198.5,624.5,196.3z"/>
		<path d="M651.1,189.3c0-5.6,1.8-10.4,10.4-10.4c8.8,0,9.1,5.9,8.9,12.5h-13.9c0.3,2.4,1.5,3.8,5,3.8c3.1,0,4.8-0.7,6.3-1.8
			l2.8,3.6c-2.6,1.9-5.1,2.7-9.1,2.7C652.8,199.7,651.1,195,651.1,189.3z M656.4,187.5h8.9c-0.1-2.3-0.6-4-4-4
			S656.7,185.1,656.4,187.5z"/>
		<path d="M680.1,191.9c-0.1,0.2-0.2,0.5-0.2,0.7c0,1,0.6,1.1,3.3,1.1c8.3,0,10.3,1.2,10.3,5.5c0,4.8-3.5,6.5-10.9,6.5
			c-7.6,0-10.4-0.8-10.4-4.9c0-2.3,1.2-3.9,3.9-4.5c-1.1-0.7-1.2-1.8-1.2-2.8c0-1.1,0.3-2,1-2.8c-1.8-1-2.6-2.7-2.6-5
			c0-4.4,2.7-6.8,9.3-6.8c0.4,0,0.7,0,1.1,0l8.9-1.8v4.2h-2.9c1.4,0.8,2.2,2,2.2,4.3c0,4.4-2.8,6.3-9.3,6.3
			C681.8,192,680.9,192,680.1,191.9z M687.9,199.6c0-1.4-1.1-1.8-5-1.8c-4.4,0-5,0.7-5,2.1c0,1.4,1,2,5,2S687.9,201,687.9,199.6z
			 M686.6,185.8c0-1.7-1-2.6-3.9-2.6c-3,0-3.9,0.8-3.9,2.6c0,1.7,0.9,2.6,3.9,2.6C685.8,188.3,686.6,187.5,686.6,185.8z"/>
		<path d="M696.8,190v-10.7h5.5v10.8c0,2.8,0.1,4.7,4,4.7c3.9,0,4-2,4-4.8v-10.7h5.4V190c0,6.8-1.8,9.7-9.5,9.7
			S696.8,196.9,696.8,190z"/>
		<path d="M720,179.7l4.3-0.3l0.6,2.2c0.8-1.3,3.3-2.3,6.4-2.4v5.3c-4.7,0-5.7,1.9-5.7,5v9.9H720V179.7z"/>
		<path d="M732.9,193.5c0-5.6,4-7,12.8-7h0.8c0-1.8-0.5-2.7-4-2.7c-2.4,0-4.6,0.9-5.8,1.6l-2.8-4.1c1.4-1,4.9-2.4,9.1-2.4
			c7.2,0,8.7,2.3,8.7,7.9v6.1c0,1.6,0.1,1.8,1.7,1.8v4.5c-0.4,0.1-1.1,0.1-2.3,0.1c-2.1,0-3-0.4-3.8-2c-1,1.4-3.2,2.2-7,2.2
			C734.3,199.7,732.9,197,732.9,193.5z M746.6,191.1v-0.7h-0.5c-7.1,0-7.9,0.6-7.9,2.7c0,1.5,0.8,2.2,3.4,2.2
			C745,195.2,746.6,194,746.6,191.1z"/>
		<path d="M757,179.7l4.3-0.3l0.5,1.7c1.1-1.2,3-2.2,7.2-2.2c6,0,7.2,3.4,7.2,8.3v12.1h-5.5v-11c0-2.4-0.3-4.2-3.6-4.2
			c-3.8,0-4.5,1.8-4.5,4.4v10.8H757V179.7z"/>
		<path d="M783.8,207l1.4-2.6c1.1,0.5,2.2,0.8,3.1,0.8c1.7,0,2.2-0.4,2.2-1.4c0-1.2-1.3-1.4-3.1-1.2l-1.1-0.7l0.5-2.4
			c-6-0.9-7.5-5-7.5-10.1c0-5.8,1.9-10.4,10.5-10.4c3.6,0,6.3,1.2,8.1,3.2l-3.9,3.7c-0.8-0.9-2-1.8-4.2-1.8c-4,0-4.9,2.2-4.9,5.5
			s0.9,5.5,4.9,5.5c1.9,0,3.1-0.6,4.5-1.9l3.5,3.4c-2.3,2.1-4.2,3.1-8,3.2l-0.2,1.2c2.2-0.1,4.4,0.1,4.4,3.4c0,3-2.2,4-5.6,4
			C786.6,208.1,785.1,207.7,783.8,207z"/>
		<path d="M799.8,193.5c0-5.6,4-7,12.8-7h0.8c0-1.8-0.5-2.7-4-2.7c-2.4,0-4.6,0.9-5.8,1.6l-2.8-4.1c1.4-1,4.9-2.4,9.1-2.4
			c7.2,0,8.7,2.3,8.7,7.9v6.1c0,1.6,0.1,1.8,1.7,1.8v4.5c-0.4,0.1-1.1,0.1-2.3,0.1c-2.1,0-3-0.4-3.8-2c-1,1.4-3.2,2.2-7,2.2
			C801.2,199.7,799.8,197,799.8,193.5z M813.4,191.1v-0.7H813c-7.1,0-7.9,0.6-7.9,2.7c0,1.5,0.8,2.2,3.4,2.2
			C811.9,195.2,813.4,194,813.4,191.1z"/>
		<path d="M626.3,212h12.6c8,0,10.4,3.4,10.4,8.7s-2.3,9.4-10.7,9.4H632v8h-5.6V212z M638.8,225.2c3.3,0,4.7-1.1,4.7-4.2
			c0-3.1-1.3-4.1-4.8-4.1H632v8.3H638.8z"/>
		<path d="M652.6,228.8v-10.7h5.5v10.8c0,2.8,0.1,4.7,4,4.7c3.9,0,4-2,4-4.8v-10.7h5.4v10.6c0,6.8-1.8,9.7-9.5,9.7
			S652.6,235.7,652.6,228.8z M663.4,209.8h6.7l-6.7,6.5h-4.9L663.4,209.8z"/>
		<path d="M680.6,236.4l-1.1,1.9l-3.7-0.4v-27.2h5.5v8.9c1.1-1.3,3.2-1.9,6.5-1.9c6.9,0,8.6,4.7,8.6,10.4c0,5.8-1.8,10.3-8.9,10.3
			C683.7,238.5,681.7,237.7,680.6,236.4z M690.8,228.3c0-3.2-0.7-5.6-4.3-5.6c-3.8,0-5.1,1.8-5.1,5.6c0,3.8,1.1,5.5,5.1,5.5
			C690.1,233.8,690.8,231.5,690.8,228.3z"/>
		<path d="M700.1,232.1v-21.3h5.5v20.7c0,1.6,0.3,2.1,2,2.1c0.1,0,0.5,0,0.7,0v4.6c-0.5,0.1-1.6,0.1-2.7,0.1
			C701.9,238.2,700.1,236.8,700.1,232.1z"/>
		<path d="M712.1,211.3h5.6v5h-5.6V211.3z M712.1,218.2h5.5v20h-5.5V218.2z"/>
		<path d="M721.3,228.1c0-5.8,1.9-10.4,10.5-10.4c3.6,0,6.3,1.2,8.1,3.2l-3.9,3.7c-0.8-0.9-2-1.8-4.2-1.8c-4,0-4.9,2.2-4.9,5.5
			s0.9,5.5,4.9,5.5c1.9,0,3.1-0.6,4.5-1.9l3.5,3.4c-2.3,2.2-4.3,3.2-8.3,3.2C723.2,238.5,721.3,234,721.3,228.1z"/>
		<path d="M741.6,232.3c0-5.6,4-7,12.8-7h0.8c0-1.8-0.5-2.7-4-2.7c-2.4,0-4.6,0.9-5.8,1.6l-2.8-4.1c1.4-1,4.9-2.4,9.1-2.4
			c7.2,0,8.7,2.3,8.7,7.9v6.1c0,1.6,0.1,1.8,1.7,1.8v4.5c-0.4,0.1-1.1,0.1-2.3,0.1c-2.1,0-3-0.4-3.8-2c-1,1.4-3.2,2.2-7,2.2
			C743,238.5,741.6,235.8,741.6,232.3z M755.2,229.9v-0.7h-0.5c-7.1,0-7.9,0.6-7.9,2.7c0,1.5,0.8,2.2,3.4,2.2
			C753.7,234,755.2,232.8,755.2,229.9z"/>
	</g>
	<g>
		<g>
			<g>
				<path class="st7" d="M1057.9,265.4c0.8-0.7,1.9-0.9,2.8-0.4c-1.9-1.7-3.2-4.1-3.6-6.9c-0.4-3.2,0.5-6.2,2.3-8.4
					c2.3,1.7,3.9,4.3,4.3,7.4c0.2-0.3,0.4-0.7,0.7-1c1.6-2,3.7-3.4,5.9-4c-0.5-0.8-0.5-1.8-0.1-2.6c0.4-0.7,1.2-1.2,2-1.3
					c-0.1-0.3-0.2-0.6-0.2-0.8c-0.7,0.3-1.6,0.3-2.3-0.1c-1.2-0.7-1.6-2.2-1-3.5c0.7-1.2,2.3-1.6,3.5-0.9c0.7,0.4,1.2,1.2,1.3,2
					c0.2-0.1,0.5-0.2,0.8-0.2c-0.3-0.7-0.3-1.6,0.1-2.3c0.5-0.9,1.5-1.4,2.5-1.3c-2.2-1.1-4.1-3-5.2-5.5c-1.3-2.9-1.2-6.1-0.1-8.7
					c2.6,1,4.9,3,6.2,5.9c0.1-0.4,0.2-0.8,0.4-1.1c1-2.5,2.8-4.5,4.9-5.6c-0.8-0.6-1.2-1.7-1-2.7c0.2-0.8,0.8-1.5,1.6-1.7
					c-0.2-0.2-0.3-0.5-0.4-0.8c-0.6,0.5-1.5,0.7-2.3,0.5c-1.4-0.4-2.2-1.7-1.8-3.1c0.4-1.4,1.8-2.2,3.1-1.8c0.8,0.2,1.5,0.8,1.7,1.6
					c0.2-0.2,0.4-0.3,0.7-0.4c-0.5-0.6-0.7-1.4-0.5-2.3c0.3-1.1,1.3-1.8,2.3-1.9c-2.5-0.5-4.8-1.9-6.6-4.2c-1.9-2.5-2.6-5.6-2.2-8.4
					c2.8,0.3,5.5,1.8,7.4,4.2c0-0.4,0.1-0.8,0.1-1.2c0.3-2.6,1.6-4.9,3.3-6.5c-0.8-0.4-1.4-1.3-1.4-2.3c0-0.9,0.5-1.6,1.1-2
					c-0.2-0.2-0.4-0.4-0.6-0.6c-0.5,0.6-1.2,1.1-2.1,1c-1.4,0-2.5-1.2-2.5-2.6c0-1.4,1.2-2.5,2.6-2.5c0.9,0,1.6,0.5,2.1,1.1
					c0.2-0.2,0.4-0.4,0.6-0.6c-0.6-0.5-1-1.2-1-2.1c0-1.1,0.7-2,1.7-2.4c-2.5,0-5-0.8-7.2-2.6c-2.5-2-3.8-4.9-4-7.7
					c2.8-0.3,5.8,0.5,8.2,2.5c-0.1-0.4-0.1-0.8-0.2-1.2c-0.2-2.6,0.4-5,1.6-7c-0.9-0.2-1.6-1-1.8-2c-0.2-0.9,0.1-1.7,0.7-2.3
					c-0.3-0.1-0.5-0.3-0.7-0.5c-0.3,0.7-1,1.3-1.8,1.5c-1.4,0.3-2.7-0.6-3-2c-0.3-1.4,0.6-2.7,2-3c0.8-0.2,1.7,0.1,2.2,0.7
					c0.1-0.3,0.3-0.5,0.5-0.7c-0.7-0.3-1.3-1-1.4-1.8c-0.2-1,0.2-1.9,0.9-2.5c-2.4,0.5-5,0.2-7.4-1c-2.9-1.4-4.8-3.9-5.6-6.6
					c2.6-0.9,5.7-0.8,8.5,0.6c-0.2-0.4-0.3-0.7-0.4-1.1c-0.9-2.6-0.7-5.3,0.2-7.6c-1.1,0.1-2.1-0.5-2.6-1.5
					c-0.4-0.8-0.3-1.7,0.1-2.3c-0.3-0.1-0.6-0.1-0.8-0.3c-0.2,0.8-0.7,1.5-1.4,1.9c-1.3,0.6-2.8,0.1-3.4-1.2c-0.6-1.3,0-2.8,1.2-3.4
					c0.8-0.4,1.6-0.3,2.3,0.1c0-0.3,0.1-0.6,0.3-0.8c-0.8-0.1-1.5-0.6-1.8-1.4c-0.5-1-0.2-2.1,0.5-2.8c-2.1,1.2-4.7,1.7-7.4,1.1
					c-3.1-0.6-5.7-2.4-7.2-4.8c2.3-1.6,5.3-2.4,8.4-1.8c-0.3-0.3-0.5-0.6-0.7-1c-1.5-2.2-2.1-4.8-1.9-7.2c-1,0.3-2.1,0.1-2.8-0.7
					c-0.6-0.6-0.8-1.5-0.6-2.3c-0.3,0-0.6,0-0.9,0c0.1,0.8-0.2,1.6-0.8,2.2c-1.1,0.9-2.7,0.8-3.6-0.2c-0.9-1-0.9-2.7,0.2-3.6
					c0.6-0.6,1.5-0.8,2.3-0.6c0-0.3,0-0.6,0-0.8c-0.8,0.1-1.6-0.2-2.2-0.8c-0.6-0.6-0.8-1.5-0.6-2.2c-1.6,1.7-3.9,2.9-6.6,3.3
					c-3.2,0.4-6.2-0.5-8.4-2.3c1.6-2.3,4.2-3.9,7.4-4.3c-0.3-0.2-0.7-0.4-1-0.7c-2.5-1.9-4-4.7-4.3-7.5c2.8-0.4,5.8,0.3,8.4,2.2
					c0.3,0.3,0.6,0.5,0.9,0.8c-0.4-3.1,0.5-6,2.3-8.2c2.3,1.7,3.9,4.3,4.4,7.5c0.4,2.8-0.3,5.4-1.6,7.5c1-0.4,2.2-0.2,3,0.6
					c0.6,0.6,0.8,1.5,0.6,2.2c0.3,0,0.5,0,0.8,0c-0.1-0.8,0.2-1.6,0.8-2.1c1.1-0.9,2.7-0.8,3.6,0.2c0.9,1,0.8,2.7-0.2,3.6
					c-0.6,0.6-1.5,0.7-2.2,0.6c0,0.3,0,0.6-0.1,0.8c0.8-0.1,1.6,0.2,2.2,0.8c0.8,0.9,0.9,2.1,0.3,3c2.4,0.7,4.6,2.2,6.2,4.5
					c0.2,0.3,0.5,0.7,0.6,1c0.6-3.1,2.4-5.6,4.7-7.1c1.6,2.3,2.4,5.3,1.8,8.5c-0.6,3-2.3,5.5-4.5,7.1c1.2-0.3,2.5,0.2,3,1.4
					c0.3,0.8,0.3,1.6-0.1,2.3c0.3,0,0.5,0.1,0.7,0.3c0.2-0.8,0.7-1.4,1.4-1.8c1.3-0.6,2.8-0.1,3.4,1.2c0.6,1.3,0,2.8-1.2,3.4
					c-0.8,0.4-1.6,0.3-2.3-0.1c-0.1,0.3-0.2,0.5-0.3,0.8c0.8,0.1,1.5,0.6,1.9,1.4c0.5,1.1,0.2,2.3-0.6,3c2.1,1.3,3.9,3.4,4.8,6.1
					c0.1,0.4,0.2,0.8,0.3,1.2c1.5-2.8,3.9-4.7,6.5-5.5c0.9,2.7,0.8,5.8-0.6,8.6c-1.3,2.6-3.4,4.4-5.8,5.3c1.1,0.1,2,0.9,2.2,2
					c0.2,0.8-0.1,1.7-0.6,2.2c0.2,0.1,0.5,0.3,0.7,0.4c0.3-0.7,1-1.2,1.8-1.4c1.4-0.3,2.7,0.6,3,2c0.3,1.4-0.6,2.7-2,3
					c-0.8,0.2-1.6-0.1-2.2-0.6c-0.1,0.3-0.3,0.5-0.5,0.7c0.7,0.3,1.3,1,1.5,1.8c0.2,1.1-0.3,2.1-1.1,2.6c1.6,1.7,2.7,4,3,6.6
					c0,0.4,0.1,0.8,0.1,1.2c2-2.4,4.8-3.7,7.6-3.9c0.3,2.8-0.5,5.8-2.5,8.3c-1.9,2.3-4.5,3.7-7.2,4c1.1,0.3,2,1.3,2,2.5
					c0,0.9-0.5,1.6-1.1,2c0.2,0.2,0.4,0.3,0.5,0.6c0.5-0.6,1.2-1,2.1-1c1.4,0,2.5,1.2,2.5,2.6c0,1.4-1.2,2.5-2.6,2.5
					c-0.8,0-1.6-0.4-2-1.1c-0.2,0.2-0.4,0.4-0.6,0.6c0.6,0.5,1.1,1.2,1,2.1c0,1.1-0.8,2.1-1.8,2.4c1.2,2,1.8,4.6,1.5,7.2
					c-0.1,0.4-0.1,0.8-0.2,1.2c2.5-1.9,5.5-2.5,8.3-2.1c-0.3,2.8-1.8,5.6-4.3,7.5c-2.4,1.8-5.3,2.6-8,2.2c1.1,0.5,1.8,1.8,1.5,3
					c-0.2,0.8-0.8,1.4-1.6,1.7c0.2,0.2,0.3,0.4,0.4,0.7c0.6-0.5,1.4-0.7,2.2-0.5c1.4,0.4,2.2,1.8,1.8,3.1c-0.4,1.4-1.8,2.2-3.1,1.8
					c-0.8-0.2-1.4-0.8-1.7-1.5c-0.2,0.2-0.4,0.3-0.7,0.4c0.5,0.6,0.7,1.5,0.5,2.3c-0.3,1.1-1.3,1.9-2.4,1.9c0.8,2.3,0.8,5-0.2,7.6
					c-0.2,0.4-0.3,0.7-0.5,1.1c2.9-1.2,6-1.2,8.5-0.1c-1,2.7-3.1,5-6,6.2c-2.7,1.2-5.6,1.2-8.1,0.4c0.9,0.8,1.1,2.1,0.5,3.1
					c-0.4,0.7-1.2,1.2-1.9,1.3c0.1,0.2,0.2,0.5,0.2,0.8c0.7-0.3,1.6-0.3,2.3,0.1c1.2,0.7,1.7,2.3,1,3.5c-0.7,1.2-2.3,1.7-3.5,1
					c-0.7-0.4-1.2-1.1-1.3-1.9c-0.2,0.1-0.5,0.2-0.8,0.2c0.3,0.7,0.3,1.6-0.1,2.3c-0.6,1-1.6,1.4-2.7,1.3c0,2.4-0.7,4.8-2.4,6.9
					c-0.3,0.3-0.5,0.6-0.8,0.9c3.1-0.4,6,0.6,8.2,2.3c-1.7,2.3-4.3,3.9-7.5,4.3c-3,0.4-5.8-0.4-8-2c0.8,1,0.6,2.5-0.4,3.4
					c-0.6,0.6-1.5,0.8-2.2,0.6c0,0.2,0,0.5,0,0.8c0.8-0.1,1.6,0.2,2.1,0.8c1,1,0.9,2.7-0.2,3.6c-1,1-2.6,0.9-3.6-0.2
					c-0.6-0.6-0.8-1.5-0.6-2.2c-0.3,0-0.5,0-0.8-0.1c0.1,0.8-0.2,1.6-0.8,2.2c-1,1-2.7,0.9-3.6-0.2c-1-1-0.9-2.7,0.2-3.6
					c0.6-0.6,1.5-0.8,2.3-0.6c0-0.3,0-0.6,0-0.9c-0.8,0.1-1.6-0.2-2.2-0.8c-1-1-0.9-2.7,0.2-3.6c1-1,2.6-0.9,3.6,0.2
					c0.6,0.6,0.8,1.5,0.6,2.3c0.3,0,0.6,0,0.8,0C1057,266.8,1057.2,266,1057.9,265.4"/>
				<path class="st7" d="M954.8,109.1c-5.2,6.1-9.9,13.1-13.7,20.7l4.2-15.5c0.1-0.2,0-0.5-0.2-0.5l-3.9-1.7c-0.2-0.1-0.5,0-0.6,0.2
					l-10.7,19.1c-0.1,0.2-0.1,0.4,0.1,0.6c0.2,0.1,0.4,0.1,0.6-0.1c0,0,7.6-8.9,9.1-10.7l-1,13.7c-0.6,1.3-1.2,2.7-1.7,4
					c-3.3,8.1-5.7,16.7-7.3,25.6l-0.3-16.7c0-0.2-0.2-0.4-0.4-0.4l-4.3-0.6c-0.2,0-0.4,0.1-0.5,0.3l-4.9,21.3c0,0.2,0.1,0.5,0.3,0.5
					c0.2,0.1,0.5,0,0.6-0.2c0,0,4.8-10.7,5.8-12.8l2.9,13.9c-0.9,6.2-1.3,12.5-1.3,18.8c0,3.4,0.1,6.9,0.4,10.2l-4.4-16
					c-0.1-0.2-0.3-0.3-0.5-0.3l-4.3,0.5c-0.2,0-0.4,0.2-0.4,0.5l0.5,21.9c0,0.2,0.2,0.4,0.4,0.4c0.2,0,0.5-0.1,0.5-0.4
					c0,0,2-11.6,2.4-13.8l6.2,12.7c1.1,10,3.4,19.7,6.7,29l-8.4-14.1c-0.1-0.2-0.4-0.3-0.6-0.2l-4,1.6c-0.2,0.1-0.3,0.3-0.3,0.5
					L928,242c0.1,0.2,0.3,0.4,0.5,0.3c0.2-0.1,0.4-0.2,0.4-0.5v0c0,0-1.2-11.7-1.4-14l9.4,10.4c3.7,9.2,8.5,17.6,14.2,25.1L939,253
					c-0.2-0.1-0.4-0.1-0.6,0l-3.3,2.8c-0.2,0.2-0.2,0.4-0.1,0.6l12.6,17.9c0.1,0.2,0.4,0.3,0.6,0.1c0.1-0.1,0.2-0.2,0.2-0.4
					c0-0.1,0-0.1,0-0.2c0,0-4.8-10.7-5.7-12.8l11.9,6.8c1.6,1.9,3.3,3.7,5,5.4c0.9,0.9,2.4,0.9,3.3,0c0.9-0.9,0.9-2.4,0-3.3
					c-1.8-1.8-3.6-3.7-5.2-5.7l-1-11.2c1.5,1.8,9.1,10.6,9.1,10.6c0.1,0.2,0.4,0.2,0.6,0.1c0.2-0.1,0.2-0.4,0.1-0.6l-11.1-18.9
					c-0.1-0.2-0.3-0.3-0.6-0.2l-4,1.6c-0.2,0.1-0.4,0.3-0.3,0.6l4.6,15c-5.8-7.6-10.8-16.4-14.5-26l2.3-11.7
					c1,2.1,6.2,12.8,6.2,12.8c0.1,0.2,0.3,0.3,0.6,0.2c0.2-0.1,0.3-0.3,0.3-0.5l-5.6-21.2c-0.1-0.2-0.3-0.4-0.5-0.3l-4.3,0.4
					c-0.2,0-0.4,0.2-0.4,0.5l0.1,16.2c-3.3-9.3-5.5-19-6.5-29.1l5.3-11c0.4,2.2,2.7,14,2.7,14c0.1,0.2,0.3,0.4,0.5,0.4
					c0.2,0,0.4-0.2,0.4-0.5v-21.9c0-0.2-0.2-0.4-0.4-0.4l-4.3-0.7c-0.2,0-0.4,0.1-0.5,0.3l-4.1,16c-0.3-3.4-0.4-6.7-0.4-10.2
					c0-6.5,0.5-13,1.4-19.3l7.7-9.4c-0.1,2.3-0.6,14.2-0.6,14.2v0c0,0.2,0.2,0.4,0.4,0.4c0.2,0,0.4-0.1,0.5-0.3l5.2-21.3
					c0.1-0.2-0.1-0.4-0.3-0.5l-4-1.7c-0.2-0.1-0.5,0-0.6,0.2l-7.6,14.3c1.9-10.5,5-20.6,9.3-29.8l10.1-6.5c-0.8,2.1-5,13.3-5,13.3
					c0,0.1,0,0.1,0,0.2c0,0.2,0.1,0.3,0.2,0.4c0.2,0.1,0.5,0,0.6-0.2l11.5-18.6c0.1-0.2,0.1-0.4-0.1-0.6l-3.3-2.8
					c-0.2-0.2-0.4-0.1-0.6,0l-11.8,11.3c3.7-7.4,8.2-14.1,13.3-20.1l16.7-14.3c0.1-0.1,0.1-0.2,0-0.3c-0.1-0.1-0.2-0.1-0.3-0.1
					c0,0-4.9,2.8-8.7,5l11-14.1c0.1-0.1,0.1-0.2,0-0.3c-0.1-0.1-0.2-0.1-0.3,0l-12.8,12.2c1.8-3.9,4-9,4-9c0-0.1,0-0.2-0.1-0.3
					c-0.1-0.1-0.2,0-0.3,0.1L954.8,109.1L954.8,109.1z"/>
				<path class="st7" d="M1045.1,174.3c-0.1,0.1-0.4,0.3-1.1,1.2c0,0,0,0.1-0.1,0.1c-1.5,2-3.4,3.1-5.6,3.7c-2.6,0.8-8.1,2-11.8,3.7
					c2.5,0.1,12.5,1.1,16.3,0.6c3.8-0.5,7.8-2.5,8-5.6C1051,175.1,1048.1,174.2,1045.1,174.3 M1053.1,160.3L1053.1,160.3
					c-1,0.3,0.8-1.9,2.6-0.6C1055.7,159.7,1054,160,1053.1,160.3 M1009.8,196.3c0-1.7-0.1-4.5,0.1-5.7c0.2-2.2,1.1-4,3.5-5.6
					c-0.6,0.9,0.1,8.7,0.6,11.5c-0.9-0.1-1.8-0.1-2.8-0.1C1010.7,196.2,1010.2,196.2,1009.8,196.3 M1022.3,109.1
					c1.4,2,1.4,4.8,1.4,4.8l2.2,36.6l10.7,0.2l16-19C1044.5,120.4,1034,112.3,1022.3,109.1 M953.8,169.1l13,4.7
					c1.8,0,3.1-1.3,3.9-2.6c5.1,0,9.9-0.9,11.6-1.1c-1.6,0.5-11.5,2.6-11.2,2.9c0.1,0.9,6.2,2.3,17.9-1.3c-1.9,1.3-6.6,2.9-10.1,3.9
					c-0.2,0.1,0.2,0.3,0.8,0.4c2,0.4,6.9,0.9,17-2.7c-2.3,1.2-6.9,3-10.3,4.1c-1.9,0.6,3.2,1.1,7,0.4c3.9-0.8,7.4-2.5,10-2.9l2-0.2
					c-4,0.7-14,5.6-17.2,7.4c-3.6,2-10.7,4.9-14.2,5.3c1.4,1.3,5.6,3.3,8.8,4.1c3.6,0.9,9.2,1.4,14,0.6c1.6-3.9,7.9-7.8,10.8-8.9
					c-3.3,2.9-3.3,5-3.4,6.9c0,1.5,0.9,4.9,1.2,6.7c-0.8,0.1-1.5,0.3-2.3,0.5h-0.3c-13.7,3.6-23.8,16-23.8,30.8c0,0.4,0,0.8,0,1.1
					h-18.9c10.2,24.1,29.1,40.3,50.7,40.3c21.6,0,40.5-16.2,50.7-40.3h-18.9c0-0.4,0-0.8,0-1.1c0-15-10.4-27.6-24.4-31h0.2l-0.1,0
					c-0.7-1.6,0.1-7.3,0.4-8.7c0.4-1.8,3.7-4.2,6.4-5.9c2.6-1.7,7.5-2.9,10.6-3.8c3.1-0.9,4.5-1.5,5.2-2.1c1.2-0.8,2.3-2.4,3.8-4
					c0.5-0.5,0.9-0.9,0.9-0.9c0,0,3.3-3.5,8.8-5.8c1.4-0.6,4.2-1.3,5.4-1.2c1.2,0.1,1.8,0.4,2.5,1c0.1-1.2-0.2-2.3-0.5-3.4
					c-0.4-1.2-1.5-3.5-5.1-2.9c-0.6-1.2-3.5-0.8-6.1,0c-2.6,0.7-7.7,2.8-9.8,3.5c-2.2,0.7-5.7,1.2-6.8,0.5c0.2,0.7,0.9,1.1,1.7,1.4
					c-0.2,0-0.5,0-0.8,0c-1.1-0.3-2.6-1-3.5-2.8c-1.1-2.2-1-4.2-1.7-5.6c-0.8-1.4-1.2-3.6-5-3.6c-3.8,0-12.3,3.1-19.7,4.9
					c-7.4,1.9-20.2,5.4-25.8,6.9c-1.5,0.4-3.5,0.8-5.5,1.2l10.8-21c6-13,10.4-5,10.4-5s2.2-2.1,4.6-3.3c3.3-2.1,6,2.5,6,2.5
					s0.7-3.2,5.7-3.8c1.1-0.1,3.8-18.9,3.8-18.9s0.6-6.3,2.9-8.4c-2.3-0.4-4.6-0.6-6.9-0.6C983.3,107.6,960.1,133.8,953.8,169.1
					 M1010.8,103.2c-34.7,0-63,38.3-63,85.3c0,47.1,28.2,85.3,63,85.3c34.7,0,62.9-38.3,62.9-85.3
					C1073.7,141.5,1045.5,103.2,1010.8,103.2"/>
				<path d="M984,230L984,230c0-0.5-0.2-0.7-0.6-0.7c-0.5,0-0.6,0.3-0.6,0.8l0.1,1.1l1.2-0.1L984,230z M984.8,230.1l0.1,0.9l1.4-0.1
					l0.1,0.9l-4.2,0.3l-0.1-2c-0.1-1.3,0.5-1.7,1.3-1.7c0.6,0,1.1,0.1,1.4,0.8l1.4-0.9l0.1,1L984.8,230.1z"/>
				<polygon points="982.2,225 982.7,221.9 983.5,222.1 983.1,224.3 984,224.4 984.3,222.3 985.1,222.4 984.8,224.5 985.7,224.7 
					986.1,222.5 986.9,222.6 986.3,225.8 				"/>
				<polygon points="983.7,218.5 984.2,217.4 987.3,217.5 985.1,215.3 985.6,214.2 989.5,216 989.1,216.8 986.5,215.6 988.6,217.8 
					988.3,218.5 985.3,218.3 987.9,219.5 987.5,220.3 				"/>
				<path d="M990.6,210.9L990.6,210.9c0.3-0.4,0.4-0.7,0-1c-0.4-0.3-0.6-0.3-1,0.2l-0.7,0.8l1,0.9L990.6,210.9z M987.7,211.1
					l1.3-1.6c0.8-1,1.5-0.9,2.2-0.4c0.7,0.6,0.9,1.3,0,2.3l-0.7,0.8l1,0.8l-0.6,0.7L987.7,211.1z"/>
				<path d="M994,208.1l-1.5-2.1l0.8-0.5l1.5,2c0.4,0.5,0.7,0.7,1.4,0.2c0.7-0.5,0.6-0.9,0.2-1.4l-1.5-2l0.7-0.5l1.5,2.1
					c0.5,0.7,0.9,1.5-0.6,2.5C995.2,209.4,994.5,208.8,994,208.1"/>
				<path d="M1002,204.5L1002,204.5c0.4-0.2,0.6-0.4,0.4-0.7c-0.1-0.3-0.3-0.4-0.8-0.2l-1.1,0.4l0.4,0.9L1002,204.5z M1001.3,202.9
					L1001.3,202.9c0.5-0.2,0.5-0.4,0.4-0.7c-0.1-0.3-0.3-0.3-0.7-0.2l-1,0.4l0.3,0.8L1001.3,202.9z M998.8,202l1.8-0.7
					c1-0.4,1.6-0.3,1.9,0.4c0.2,0.5,0.1,0.8-0.2,1.1c0.5-0.1,0.8,0.2,1,0.7c0.3,0.8-0.1,1.3-1.2,1.7l-1.8,0.7L998.8,202z"/>
				<polygon points="1005.5,199.9 1006.4,199.7 1006.9,203.1 1009,202.8 1009.1,203.6 1006.1,204 				"/>
				<polygon points="1011.6,199.3 1012.5,199.3 1012.4,203.5 1011.5,203.5 				"/>
				<path d="M1015.3,201.7c0.3-1.5,1.3-1.9,2.7-1.6c0.7,0.2,1.2,0.5,1.5,1l-0.8,0.5c-0.2-0.3-0.5-0.5-0.9-0.6
					c-0.9-0.2-1.4,0.2-1.5,1c-0.2,0.8,0,1.4,1,1.6c0.5,0.1,0.8,0,1.1-0.2l0.5,0.7c-0.4,0.3-0.9,0.5-1.8,0.2
					C1015.4,203.9,1015,203,1015.3,201.7"/>
				<path d="M1023.6,205.1L1023.6,205.1l0.2-1.8l-1.3,1.2L1023.6,205.1z M1023.9,202.1l0.8,0.4l-0.4,4.6l-0.9-0.4l0.1-0.7l-1.7-0.8
					l-0.6,0.5l-0.8-0.4L1023.9,202.1z"/>
				<polygon points="1029,205.2 1030,206 1028.9,209 1031.7,207.6 1032.6,208.4 1029.7,211.5 1029.1,210.9 1030.9,208.8 
					1028.2,210.2 1027.7,209.7 1028.7,206.9 1026.9,208.9 1026.2,208.4 				"/>
				<path d="M1037.7,223.6c1.5-0.1,2.2,0.6,2.3,2.1c0.1,0.9-0.1,1.4-0.5,1.8l-0.7-0.6c0.2-0.2,0.3-0.5,0.3-1.1
					c-0.1-0.9-0.6-1.2-1.4-1.2c-0.9,0.1-1.4,0.4-1.3,1.4c0.1,0.8,0.4,1,0.9,1l0.1,0l-0.1-1.2l0.8-0.1l0.2,2.1l-0.7,0.1
					c-1.2,0.1-1.9-0.3-2-1.9C1035.6,224.2,1036.3,223.7,1037.7,223.6"/>
				<polygon points="1040,230.1 1039.6,233.3 1038.8,233.1 1039.1,230.9 1038.2,230.8 1038,233 1037.1,232.9 1037.4,230.7 
					1036.5,230.6 1036.2,232.8 1035.4,232.7 1035.8,229.5 				"/>
				<path d="M1036.4,237.1L1036.4,237.1c-0.2,0.5-0.1,0.7,0.3,0.9c0.5,0.2,0.7,0,0.8-0.5l0.4-1l-1.1-0.4L1036.4,237.1z
					 M1035.7,236.6l0.3-0.9l-1.3-0.5l0.3-0.9l4,1.4l-0.7,1.9c-0.4,1.3-1.1,1.4-1.8,1.1c-0.5-0.2-1-0.6-1-1.3l-1.7,0.3l0.3-0.9
					L1035.7,236.6z"/>
				<polygon points="1036.6,241.7 1034.9,244.4 1034.2,243.9 1035.4,242 1034.7,241.6 1033.5,243.5 1032.8,243 1034,241.2 
					1033.2,240.7 1032,242.6 1031.3,242.2 1033,239.5 				"/>
				<path d="M1030.5,246.6L1030.5,246.6c-0.3,0.4-0.4,0.6-0.1,0.9c0.4,0.3,0.6,0.3,1-0.1l0.7-0.8l-0.9-0.8L1030.5,246.6z
					 M1030,245.9l0.6-0.7l-1-1l0.6-0.7l3.1,2.9l-1.4,1.5c-0.9,1-1.5,0.8-2.1,0.3c-0.4-0.4-0.7-0.9-0.4-1.6l-1.7-0.4l0.7-0.7
					L1030,245.9z"/>
				<polygon points="1028.8,250.9 1026.2,252.7 1025.7,252 1027.5,250.7 1027.1,250 1025.3,251.3 1024.8,250.6 1026.6,249.4 
					1026.1,248.6 1024.2,249.9 1023.7,249.2 1026.4,247.4 				"/>
				<path d="M1013.7,254.8L1013.7,254.8c-0.5,0.1-0.7,0.2-0.7,0.7c0.1,0.5,0.3,0.6,0.8,0.5l1.1-0.1l-0.1-1.2L1013.7,254.8z
					 M1013.8,254l0.9-0.1l-0.2-1.4l0.9-0.1l0.5,4.2l-2,0.2c-1.3,0.1-1.7-0.4-1.8-1.2c-0.1-0.6,0.1-1.1,0.7-1.4l-1-1.4l1-0.1
					L1013.8,254z"/>
				<polygon points="1009.6,257 1006.5,256.7 1006.6,255.8 1008.8,256.1 1008.9,255.2 1006.7,255 1006.8,254.2 1008.9,254.4 
					1009,253.5 1006.8,253.3 1006.8,252.5 1010,252.8 				"/>
				<path d="M1004.8,254.3c-0.4,1.5-1.4,1.8-2.8,1.4c-0.7-0.2-1.1-0.6-1.4-1.1l0.8-0.4c0.2,0.3,0.4,0.5,0.9,0.7
					c0.9,0.3,1.4-0.1,1.6-0.9c0.2-0.8,0.1-1.4-0.8-1.7c-0.5-0.2-0.8-0.1-1.1,0.1l-0.4-0.8c0.4-0.2,0.9-0.4,1.9-0.1
					C1004.8,252,1005.2,252.9,1004.8,254.3"/>
				<polygon points="997.5,252.8 998.8,253.5 998.4,254.3 995,252.4 995.4,251.7 996.7,252.4 998.3,249.4 999.2,249.9 				"/>
				<polygon points="993.1,251 990.7,249 991.2,248.3 992.9,249.8 993.4,249.2 991.8,247.7 992.3,247.1 994,248.5 994.6,247.8 
					992.8,246.4 993.4,245.7 995.8,247.8 				"/>
				<path class="st7" d="M1032.6,223.3L1032.6,223.3c0,0.6,0.5,3.3,0.5,4.4c0,12.3-10,22.3-22.3,22.3c-5.5,0-12.8-3.3-16.7-6.6
					l0.3-0.4c12.4-15.9,32.5-19.4,37.8-19.7L1032.6,223.3z M1010.8,205.4L1010.8,205.4l1.6,4.6l4.9,0.1l-3.9,2.9l1.4,4.6
					c0.2-0.1,0.4-0.1,0.6-0.2c6.2-1.9,11.7-2.2,13.9-2.3C1025.3,209.3,1018.5,205.4,1010.8,205.4 M988.5,227.7
					c0-12.3,10-22.3,22.3-22.3l-1.6,4.6l-4.9,0.1l3.9,2.9l-1.4,4.7l4-2.8l3.9,2.8c-7.3,2.3-16.8,8.7-24.5,19
					C989.5,234.3,988.5,230.3,988.5,227.7"/>
				<path d="M996.7,234L996.7,234c-0.4-0.3-0.7-0.3-1.1,0.2c-0.4,0.5-0.3,0.7,0,1c0.3,0.3,0.6,0.3,1-0.1
					C997,234.6,997.1,234.3,996.7,234 M996.9,236.6l0.3-0.3c0.9-1.1,0.6-1.4,0.3-1.7c0.1,0.3-0.1,0.6-0.5,1.1
					c-0.6,0.7-1.2,0.6-1.8,0.1c-0.6-0.6-0.8-1.2,0-2.1c0.8-0.9,1.5-0.9,2.4-0.1c1.2,1,1.3,1.8,0.1,3.2l-0.2,0.3L996.9,236.6z"/>
				<path d="M1001.2,231.3L1001.2,231.3l-1.4-0.7l0.6,1.5L1001.2,231.3z M998.8,230l0.6-0.6l3.7,1.8l-0.7,0.6l-0.6-0.3l-1.3,1.1
					l0.2,0.6l-0.6,0.5L998.8,230z"/>
				<path d="M1004.6,229.4L1004.6,229.4c0.3-0.3,0.4-0.4,0.2-0.7c-0.2-0.3-0.4-0.2-0.7,0l-0.8,0.6l0.5,0.7L1004.6,229.4z
					 M1003.6,228.2L1003.6,228.2c0.4-0.3,0.4-0.5,0.2-0.7c-0.2-0.2-0.3-0.2-0.7,0l-0.8,0.6l0.5,0.7L1003.6,228.2z M1001.3,228l1.4-1
					c0.8-0.6,1.3-0.6,1.7-0.1c0.3,0.4,0.3,0.7,0.1,1c0.4-0.2,0.7,0,1,0.4c0.5,0.7,0.2,1.2-0.6,1.8l-1.4,1L1001.3,228z"/>
				<path d="M1007.2,226.2L1007.2,226.2c0.4-0.2,0.5-0.4,0.3-0.8c-0.2-0.4-0.4-0.4-0.9-0.1l-0.8,0.5l0.6,0.9L1007.2,226.2z
					 M1007.5,226.9l-0.7,0.4l0.6,1.1l-0.7,0.4l-1.9-3.3l1.6-0.9c1-0.6,1.5-0.3,1.9,0.3c0.3,0.5,0.4,1-0.1,1.4l1.3,0.8l-0.8,0.5
					L1007.5,226.9z"/>
				<rect x="1009.3" y="223" transform="matrix(0.8975 -0.4409 0.4409 0.8975 4.2761 468.2474)" width="0.8" height="3.8"/>
				<polygon points="1010.2,222.6 1011,222.2 1012.2,225.1 1013.9,224.3 1014.2,225 1011.7,226.1 				"/>
				<polygon points="1015.2,221.4 1014.6,221.6 1014.4,220.9 1015.8,220.5 1016.9,224.1 1016.2,224.3 				"/>
				<path d="M1019.8,222.2L1019.8,222.2c-0.1-0.4-0.3-0.5-0.9-0.4c-0.6,0.1-0.7,0.4-0.7,0.8c0.1,0.3,0.3,0.5,0.9,0.4
					C1019.8,222.8,1019.9,222.5,1019.8,222.2 M1019.4,220.6L1019.4,220.6c-0.1-0.3-0.3-0.4-0.8-0.3c-0.5,0.1-0.7,0.3-0.6,0.6
					c0.1,0.3,0.3,0.4,0.8,0.3C1019.3,221.1,1019.4,220.9,1019.4,220.6 M1017.5,222.8c-0.1-0.4-0.1-0.9,0.4-1.1
					c-0.4-0.1-0.6-0.3-0.7-0.7c-0.1-0.5,0.1-1,1.2-1.3c1.2-0.3,1.6,0.1,1.7,0.6c0.1,0.3,0.1,0.7-0.3,0.9c0.5,0,0.7,0.4,0.8,0.8
					c0.1,0.6-0.1,1.2-1.3,1.5C1018.1,223.8,1017.6,223.4,1017.5,222.8"/>
				<path d="M1023.4,220.2L1023.4,220.2c-0.1-0.5-0.4-0.7-0.9-0.6c-0.6,0.1-0.7,0.4-0.7,0.8c0.1,0.4,0.3,0.6,0.8,0.6
					C1023.2,220.9,1023.4,220.7,1023.4,220.2 M1021.8,222.3l0.4-0.1c1.4-0.2,1.4-0.7,1.4-1.1c-0.1,0.3-0.5,0.4-1.1,0.5
					c-1,0.1-1.3-0.3-1.4-1.1c-0.1-0.8,0.2-1.4,1.3-1.6c1.2-0.2,1.7,0.3,1.9,1.4c0.2,1.5-0.1,2.2-2,2.5l-0.4,0L1021.8,222.3z"/>
				<path d="M1024.9,221.9l1.2-1.1c0.5-0.5,0.7-0.7,0.7-1.1c0-0.3-0.2-0.4-0.7-0.4c-0.4,0-0.8,0.2-1,0.3l-0.4-0.6
					c0.4-0.2,0.7-0.4,1.5-0.4c0.9-0.1,1.4,0.2,1.4,1c0,0.6-0.2,0.9-0.8,1.5l-0.7,0.7l1.7-0.1l0,0.7l-2.9,0.2L1024.9,221.9z"/>
				<polygon class="st7" points="1021.2,100.1 1012.5,94 1003.9,100.1 1007,90 998.5,83.7 1009.1,83.5 1012.5,73.5 1015.9,83.5 
					1026.5,83.7 1018,90 				"/>
				<path class="st7" d="M989,295L989,295c2.1,0.8,2.7-0.7,3.4-2.3c0.7-1.6,1.3-3.2-0.8-4c-2.1-0.9-2.7,0.7-3.4,2.3
					C987.5,292.6,986.8,294.2,989,295 M989.3,294.1L989.3,294.1c-0.7-0.3-0.5-1,0.1-2.6c0.6-1.6,1-2.2,1.7-1.9
					c0.7,0.3,0.5,1-0.1,2.6C990.4,293.8,990.1,294.4,989.3,294.1 M981.4,292.4L981.4,292.4l2.1,0.6c2.3,0.6,2.8-1.6,3-2.6
					c0.6-2,0.6-3.2-1.2-3.7l-2.2-0.6L981.4,292.4z M984.3,287.4L984.3,287.4l0.7,0.2c0.9,0.3,0.6,1.3,0.3,2.5
					c-0.5,1.6-0.8,2.1-1.6,1.9l-0.6-0.2L984.3,287.4z M975.2,291.4L975.2,291.4c2.3,0.3,2.5-1.3,2.7-3.1c0.2-1.7,0.5-3.4-1.8-3.7
					c-2.2-0.3-2.5,1.3-2.7,3.1C973.2,289.5,973,291.1,975.2,291.4 M975.4,290.5L975.4,290.5c-0.8-0.1-0.8-0.8-0.5-2.5
					c0.2-1.7,0.4-2.4,1.2-2.3c0.8,0.1,0.8,0.8,0.5,2.5C976.3,289.9,976.1,290.6,975.4,290.5 M967.5,291L967.5,291l2.2,0
					c2.4,0.1,2.2-2.3,2.3-3.3c0-2-0.3-3.3-2.1-3.3l-2.3,0L967.5,291z M969,285.4L969,285.4l0.7,0c1,0,0.9,1.1,0.9,2.3
					c0,1.7-0.2,2.3-1,2.3l-0.7,0L969,285.4z M964.3,288.8L964.3,288.8L963,289l0.3-2.9h0L964.3,288.8z M962.7,291.5L962.7,291.5
					l0.2-1.5l1.9-0.2l0.5,1.4l1.4-0.2l-2.6-6.3l-1.8,0.2l-1,6.8L962.7,291.5z M955.7,286.2L955.7,286.2l0.2,1.1l1.5-0.3l1.1,5.4
					l1.4-0.3l-1.1-5.4l1.5-0.3l-0.2-1.1L955.7,286.2z M955.8,291L955.8,291c-0.7-2-3.3-1-3.7-2.1c-0.1-0.4,0-0.8,0.4-0.9
					c0.5-0.2,0.8,0.3,0.9,0.7l1.3-0.4c-0.4-1.3-1.2-1.7-2.5-1.2c-1.6,0.5-1.8,1.5-1.4,2.5c0.6,1.9,3.3,1,3.7,2.1
					c0.1,0.4,0,0.8-0.4,0.9c-0.7,0.3-0.9-0.2-1.1-0.8l-1.3,0.5c0.3,1.1,0.9,1.9,2.5,1.4C955.3,293.2,956.4,292.6,955.8,291
					 M951.5,294.3L951.5,294.3l-0.4-0.9l-2.1,1l-0.8-1.7l1.8-0.9l-0.4-0.9l-1.8,0.9l-0.7-1.5l2-1l-0.4-0.9l-3.2,1.6l2.9,5.9
					L951.5,294.3z M1010.5,296.1L1010.5,296.1c1.9,1.2,2.8-0.2,3.7-1.7c0.9-1.5,1.8-2.9-0.1-4.1c-1.9-1.2-2.8,0.2-3.7,1.7
					C1009.4,293.5,1008.5,294.9,1010.5,296.1 M1011,295.3L1011,295.3c-0.7-0.4-0.4-1.1,0.6-2.5c0.9-1.4,1.4-2,2-1.6
					c0.7,0.4,0.3,1.1-0.6,2.5C1012.1,295.2,1011.6,295.7,1011,295.3 M1007.2,293.9L1007.2,293.9l3.5-5.6l-1.2-0.7l-3.5,5.5
					L1007.2,293.9z M1003.9,288.6L1003.9,288.6l0.3,0.2c0.9,0.6,0.5,1.1,0.1,1.8c-0.2,0.4-0.5,0.7-0.6,1.2l1.1,0.7
					c0-0.3,0.7-1.4,0.9-1.7c0.6-1-0.1-1.5-0.3-1.7l0,0c0.8,0.4,1.4,0,1.9-0.7c0.6-0.9,0.4-1.8-0.4-2.3l-2.1-1.4l-3.5,5.6l1.2,0.7
					L1003.9,288.6z M1005.4,286.2L1005.4,286.2l0.5,0.3c0.4,0.2,0.5,0.6,0.1,1.1c-0.2,0.4-0.6,0.7-1.1,0.4l-0.5-0.3L1005.4,286.2z
					 M1070.2,293L1070.2,293c2.1-0.9,1.4-2.4,0.8-4c-0.7-1.6-1.3-3.1-3.4-2.2c-2.1,0.9-1.5,2.4-0.8,4
					C1067.4,292.3,1068.1,293.9,1070.2,293 M1069.8,292.1L1069.8,292.1c-0.7,0.3-1.1-0.3-1.8-1.9c-0.7-1.6-0.8-2.3-0.1-2.6
					c0.7-0.3,1.1,0.3,1.7,1.9C1070.3,291,1070.5,291.8,1069.8,292.1 M1063.1,292.4L1063.1,292.4l0.3-0.1c1-0.3,1.1,0.3,1.4,1.1
					c0.1,0.4,0.2,0.8,0.5,1.2l1.3-0.4c-0.2-0.2-0.6-1.4-0.7-1.8c-0.4-1.2-1.2-1-1.5-0.9l0,0c0.8-0.4,1-1.1,0.7-1.9
					c-0.3-1.1-1.1-1.5-2-1.2l-2.4,0.7l1.9,6.3l1.3-0.4L1063.1,292.4z M1062.3,289.7L1062.3,289.7l0.6-0.2c0.4-0.1,0.7,0,0.9,0.6
					c0.1,0.4,0.1,1-0.4,1.1l-0.6,0.2L1062.3,289.7z M1060.9,295.9L1060.9,295.9l-1.4-6.4l-1.4,0.3l1.4,6.4L1060.9,295.9z
					 M1058.3,296.4L1058.3,296.4l-0.2-1l-2.3,0.4l-0.3-1.9l2-0.3l-0.2-1l-2,0.3l-0.3-1.6l2.2-0.3l-0.2-1l-3.6,0.6l1,6.5
					L1058.3,296.4z M1049.1,297.4L1049.1,297.4l-0.2-4.8h0l2,4.7l1.8-0.1l-0.3-6.6l-1.3,0.1l0.2,4.6l0,0l-2-4.5l-1.9,0.1l0.3,6.6
					L1049.1,297.4z M1044.4,294.8L1044.4,294.8l-1.3-0.1l0.8-2.8h0L1044.4,294.8z M1042.3,297.2L1042.3,297.2l0.5-1.4l1.9,0.1
					l0.3,1.5l1.5,0.1l-1.3-6.7l-1.8-0.1l-2.3,6.4L1042.3,297.2z M1039.6,290.2L1039.6,290.2l-0.8,5.1c0,0.3-0.3,0.5-0.6,0.5
					c-0.7-0.1-0.5-0.9-0.4-1.4l-1.4-0.2c-0.2,1.5-0.3,2.3,1.6,2.6c1,0.2,2-0.2,2.1-1.3l0.8-5L1039.6,290.2z M1032.4,295.3
					L1032.4,295.3l0.3-1l-2.2-0.7l0.6-1.8l1.9,0.6l0.3-1l-2-0.6l0.5-1.6l2.1,0.7l0.3-1l-3.4-1.1l-2,6.3L1032.4,295.3z M1023,291.6
					L1023,291.6l2,0.9c2.2,1,3-1.2,3.4-2.1c0.9-1.9,1.1-3.1-0.6-3.8l-2.1-1L1023,291.6z M1026.6,287.1l0.6,0.3
					c0.9,0.4,0.4,1.4-0.1,2.5c-0.7,1.5-1.1,2-1.9,1.7l-0.6-0.3L1026.6,287.1z M1071.2,279.3c-6.8,4.2-14.8,6.6-23.4,6.6
					c-8.6,0-16.6-2.4-23.4-6.6l-5.2,8.4l-15-9.3c0,0-2.8,4.5-5.2,8.5c-8.7-4.8-18.8-7.6-29.5-7.6c-11.8,0-22.8,3.3-32.1,9.1
					c0,0,6.7,10.8,8.7,14.1c6.8-4.2,14.8-6.6,23.4-6.6c8.6,0,16.6,2.4,23.4,6.6l5.2-8.4l14.8,9.2c0.9-1.4,3.3-5.1,5.3-8.4
					c8.7,4.8,18.8,7.5,29.5,7.5c11.8,0,22.8-3.3,32.1-9C1079.9,293.4,1072.8,282,1071.2,279.3"/>
			</g>
			<g>
				<path d="M1142.8,191.4L1142.8,191.4v11.7h8.5c3.4,0,6-0.4,7.8-1.3c1.8-0.9,2.7-2.5,2.7-4.8c0-1.9-0.7-3.3-2-4.2
					s-3.3-1.3-5.9-1.3H1142.8z M1143.2,217.1v19.3c0,0.6-0.2,1.2-0.6,1.6c-0.4,0.5-0.9,0.7-1.6,0.7h-15.6c-0.6,0-1.1-0.2-1.5-0.7
					c-0.4-0.5-0.6-1-0.6-1.6v-56.7c0-0.6,0.2-1.2,0.6-1.6c0.4-0.5,0.9-0.7,1.5-0.7h35.4c6.1,0,10.9,1.5,14.6,4.5
					c3.9,3.2,5.9,7.5,5.9,12.8c0,6-1.6,10.3-4.9,12.9c-0.8,0.7-1.7,1.3-2.8,1.9c-1.1,0.6-2.2,1.1-3.5,1.6c1.5,0.9,2.8,1.9,3.8,2.9
					c1.1,1,1.9,2.1,2.6,3.1l9.7,18.1c0.5,0.9,0.5,1.7,0.1,2.5c-0.4,0.8-1,1.1-1.9,1.1h-17.9c-0.4,0-0.7-0.1-1.1-0.4
					c-0.4-0.3-0.6-0.6-0.8-0.9l-9-18.6l0.1,0.2c-0.2-0.3-0.4-0.5-0.6-0.8c-0.2-0.3-0.4-0.5-0.7-0.6c-0.4-0.3-1.8-0.5-4.4-0.5H1143.2
					z"/>
				<path d="M1191.5,238.8c-0.5,0-1-0.2-1.3-0.7c-0.4-0.5-0.5-1-0.5-1.6v-56.7c0-0.6,0.2-1.2,0.5-1.6c0.4-0.5,0.8-0.7,1.3-0.7h13.1
					c0.5,0,0.9,0.2,1.3,0.7c0.4,0.5,0.5,1,0.5,1.6v56.7c0,0.6-0.2,1.2-0.5,1.6c-0.4,0.5-0.8,0.7-1.3,0.7H1191.5z"/>
				<path d="M1252.8,197.9L1252.8,197.9c-2.3-2.3-5.7-3.4-10.1-3.4c-4.4,0-7.8,1.1-10.1,3.4c-2.3,2.3-3.5,5.7-3.5,10.1
					c0,4.5,1.1,7.9,3.5,10.1c2.3,2.3,5.7,3.4,10.1,3.4c4.4,0,7.8-1.1,10.1-3.4c2.3-2.3,3.5-5.6,3.5-10.1
					C1256.2,203.5,1255.1,200.1,1252.8,197.9 M1267.4,231.9c-5.6,5.2-13.8,7.8-24.7,7.8c-10.9,0-19.1-2.6-24.7-7.8
					c-5.6-5.2-8.4-13.2-8.4-23.9c0-10.7,2.8-18.7,8.4-23.9c5.6-5.2,13.8-7.9,24.7-7.9c10.9,0,19.1,2.6,24.7,7.9
					c5.6,5.2,8.4,13.2,8.4,23.9C1275.8,218.7,1273,226.7,1267.4,231.9"/>
				<path d="M1337.2,199.1L1337.2,199.1c-1.6-2-4.1-3.1-7.3-3.1h-12.4v24.1h11.8c3.4,0,5.9-1,7.7-3c1.7-2,2.6-5,2.6-9
					C1339.7,204.1,1338.8,201.1,1337.2,199.1 M1330.5,177.4c8.4,0,15.2,2.8,20.5,8.5c5.2,5.6,7.8,13,7.8,22.2
					c0,8.9-2.6,16.3-7.9,22.1c-5.2,5.7-11.9,8.6-20.1,8.6h-31c-0.6,0-1.1-0.2-1.6-0.7c-0.4-0.5-0.6-1-0.6-1.6v-56.7
					c0-0.6,0.2-1.2,0.6-1.6c0.4-0.5,0.9-0.7,1.6-0.7H1330.5z"/>
				<path d="M1364,238.8c-0.6,0-1.1-0.2-1.5-0.7c-0.4-0.5-0.6-1-0.6-1.6v-56.7c0-0.6,0.2-1.2,0.6-1.6c0.4-0.5,0.9-0.7,1.5-0.7h41.1
					c0.6,0,1.1,0.2,1.5,0.7c0.4,0.5,0.6,1,0.6,1.6v11.4c0,0.7-0.2,1.3-0.6,1.7c-0.4,0.5-0.9,0.7-1.5,0.7h-23.7v6.3h20.2
					c0.6,0,1.1,0.2,1.5,0.7c0.4,0.5,0.6,1,0.6,1.6v11.3c0,0.7-0.2,1.3-0.6,1.7c-0.4,0.5-0.9,0.7-1.5,0.7l-20.2,0.1v6.6h25.6
					c0.6,0,1.1,0.2,1.5,0.7c0.4,0.5,0.6,1,0.6,1.7v11.4c0,0.6-0.2,1.2-0.6,1.6c-0.4,0.5-0.9,0.7-1.5,0.7H1364z"/>
				<path d="M1469.7,176.8c0.6,0,1,0.2,1.4,0.7c0.4,0.5,0.6,1,0.6,1.7v40.2c0,6.4-2,11.6-5.9,15.7c-3.9,4-8.9,6-15,6
					c-3.3,0-6.7-0.6-10.2-1.9c-1.7-0.6-3.1-1.1-4.2-1.6c-1.1-0.4-1.8-0.8-2.3-1.1c-0.2-0.2-0.5-0.4-0.7-0.8c-0.2-0.4-0.3-0.7-0.4-1
					l-2-17.9c-0.1-0.6,0-1.2,0.2-1.6c0.2-0.4,0.6-0.8,1-1c0.4-0.2,0.8-0.3,1.3-0.2c0.4,0.1,0.9,0.4,1.2,0.8c0.7,1,2.3,2.2,4.5,3.6
					c2.1,1.3,4.3,2,6.7,2c4.4,0,6.6-2.2,6.6-6.7v-34.6c0-0.7,0.2-1.3,0.6-1.7c0.4-0.5,0.9-0.7,1.5-0.7H1469.7z"/>
				<path d="M1498.6,216L1498.6,216h13.1l-6.3-13.6L1498.6,216z M1523.6,238.8c-0.3,0-0.7-0.1-1.1-0.4c-0.4-0.3-0.7-0.6-0.8-0.9
					l-3.6-7.7h-26.4l-3.6,7.7c-0.2,0.4-0.5,0.7-0.8,0.9c-0.4,0.3-0.8,0.4-1.1,0.4h-14.6c-0.9,0-1.6-0.4-2-1.1
					c-0.4-0.7-0.4-1.5,0.1-2.4l29-56.6c0.1-0.3,0.4-0.6,0.8-0.9c0.4-0.3,0.8-0.4,1.1-0.4h12.5c0.3,0,0.7,0.1,1.1,0.4
					c0.4,0.3,0.7,0.6,0.8,0.9l27.3,56.6c0.4,0.9,0.4,1.7,0,2.4c-0.4,0.7-1,1.1-2,1.1H1523.6z"/>
				<path d="M1578.9,202.4c1.3,2,2.7,4.1,4,6.1v-28.8c0-0.6,0.2-1.2,0.6-1.6c0.4-0.5,0.9-0.7,1.5-0.7h13.7c0.6,0,1.1,0.2,1.5,0.7
					c0.4,0.5,0.6,1,0.6,1.6v56.7c0,0.6-0.2,1.2-0.6,1.6c-0.4,0.5-0.9,0.7-1.5,0.7h-15.8c-0.2,0-0.5-0.1-0.9-0.3
					c-0.4-0.2-0.7-0.4-0.8-0.7l-19.9-29.8v28.3c0,0.6-0.2,1.2-0.6,1.6c-0.4,0.5-0.9,0.7-1.5,0.7h-13.7c-0.6,0-1.1-0.2-1.5-0.7
					c-0.4-0.5-0.6-1-0.6-1.6v-56.7c0-0.6,0.2-1.2,0.6-1.6c0.4-0.5,0.9-0.7,1.5-0.7h15.6c0.3,0,0.6,0.1,1,0.3
					c0.4,0.2,0.6,0.4,0.7,0.7c2.1,3.1,4.1,6.2,6,9.1c1.9,3,3.9,5.9,6,8.9C1576.3,198.4,1577.6,200.4,1578.9,202.4"/>
				<path d="M1607.5,238.8c-0.6,0-1.1-0.2-1.5-0.7c-0.4-0.5-0.6-1-0.6-1.6v-56.7c0-0.6,0.2-1.2,0.6-1.6c0.4-0.5,0.9-0.7,1.5-0.7
					h41.1c0.6,0,1.1,0.2,1.5,0.7c0.4,0.5,0.6,1,0.6,1.6v11.4c0,0.7-0.2,1.3-0.6,1.7c-0.4,0.5-0.9,0.7-1.5,0.7h-23.7v6.3h20.2
					c0.6,0,1.1,0.2,1.5,0.7c0.4,0.5,0.6,1,0.6,1.6v11.3c0,0.7-0.2,1.3-0.6,1.7c-0.4,0.5-0.9,0.7-1.5,0.7l-20.2,0.1v6.6h25.6
					c0.6,0,1.1,0.2,1.5,0.7c0.4,0.5,0.6,1,0.6,1.7v11.4c0,0.6-0.2,1.2-0.6,1.6c-0.4,0.5-0.9,0.7-1.5,0.7H1607.5z"/>
				<path d="M1657.6,238.8c-0.5,0-1-0.2-1.3-0.7c-0.4-0.5-0.5-1-0.5-1.6v-56.7c0-0.6,0.2-1.2,0.5-1.6c0.3-0.5,0.8-0.7,1.3-0.7h13.1
					c0.5,0,0.9,0.2,1.3,0.7c0.4,0.5,0.5,1,0.5,1.6v56.7c0,0.6-0.2,1.2-0.5,1.6c-0.4,0.5-0.8,0.7-1.3,0.7H1657.6z"/>
				<path d="M1695.1,191.4L1695.1,191.4v11.7h8.5c3.4,0,6-0.4,7.8-1.3c1.8-0.9,2.7-2.5,2.7-4.8c0-1.9-0.7-3.3-2-4.2
					c-1.4-0.9-3.3-1.3-5.9-1.3H1695.1z M1695.5,217.1v19.3c0,0.6-0.2,1.2-0.6,1.6c-0.4,0.5-0.9,0.7-1.6,0.7h-15.6
					c-0.6,0-1.1-0.2-1.5-0.7c-0.4-0.5-0.6-1-0.6-1.6v-56.7c0-0.6,0.2-1.2,0.6-1.6c0.4-0.5,0.9-0.7,1.5-0.7h35.4
					c6.1,0,10.9,1.5,14.6,4.5c3.9,3.2,5.9,7.5,5.9,12.8c0,6-1.6,10.3-4.9,12.9c-0.8,0.7-1.7,1.3-2.8,1.9c-1.1,0.6-2.2,1.1-3.5,1.6
					c1.5,0.9,2.8,1.9,3.8,2.9c1.1,1,1.9,2.1,2.6,3.1l9.7,18.1c0.5,0.9,0.5,1.7,0.1,2.5c-0.4,0.8-1,1.1-1.9,1.1h-17.9
					c-0.4,0-0.7-0.1-1.1-0.4c-0.4-0.3-0.6-0.6-0.8-0.9l-9-18.6l0.1,0.2c-0.2-0.3-0.4-0.5-0.6-0.8c-0.2-0.3-0.4-0.5-0.7-0.6
					c-0.4-0.3-1.8-0.5-4.4-0.5H1695.5z"/>
				<path d="M1777.7,197.9L1777.7,197.9c-2.3-2.3-5.7-3.4-10.1-3.4c-4.4,0-7.8,1.1-10.1,3.4c-2.3,2.3-3.5,5.7-3.5,10.1
					c0,4.5,1.2,7.9,3.5,10.1c2.3,2.3,5.7,3.4,10.1,3.4c4.4,0,7.8-1.1,10.1-3.4c2.3-2.3,3.5-5.6,3.5-10.1
					C1781.2,203.5,1780,200.1,1777.7,197.9 M1792.3,231.9c-5.6,5.2-13.8,7.8-24.7,7.8c-10.9,0-19.1-2.6-24.7-7.8
					c-5.6-5.2-8.4-13.2-8.4-23.9c0-10.7,2.8-18.7,8.4-23.9c5.6-5.2,13.8-7.9,24.7-7.9c10.9,0,19.1,2.6,24.7,7.9
					c5.6,5.2,8.4,13.2,8.4,23.9C1800.7,218.7,1797.9,226.7,1792.3,231.9"/>
				<g>
					<path d="M1123.1,144.5c0-11.1,5.2-15.8,14.5-15.8c5.6,0,9,1.8,11.2,4.3l-4.2,4.7c-1.4-1.5-3.2-2.8-7-2.8c-6,0-8.4,3.3-8.4,9.7
						c0,6.7,1.6,10,8.3,10c5.4,0,6.9-2,6.9-6.3v-0.7h-7.7V142h13.7v5c0,8.7-3.1,13.3-13.2,13.3
						C1126.2,160.3,1123.1,154.7,1123.1,144.5"/>
					<path d="M1190.2,144.6L1190.2,144.6c0-6-2.1-9.7-8.4-9.7c-6.3,0-8.4,3.7-8.4,9.7c0,6,2.1,9.8,8.4,9.8
						C1188.1,154.4,1190.2,150.6,1190.2,144.6 M1167.2,144.5c0-11.5,5.8-15.8,14.6-15.8c8.8,0,14.6,4.3,14.6,15.8
						c0,11.5-5.8,15.8-14.6,15.8C1173,160.3,1167.2,156,1167.2,144.5"/>
					<polygon points="1211.7,129.2 1218,129.2 1225.7,151.6 1233.4,129.2 1239.7,129.2 1228.7,160 1222.5,160 					"/>
					<polygon points="1257.5,129.2 1278.2,129.2 1278.2,135.3 1263.6,135.3 1263.6,141.3 1277.8,141.3 1277.8,147.2 1263.6,147.2 
						1263.6,154 1278.4,154 1278.4,159.8 1257.5,159.8 					"/>
					<path d="M1310.7,143.9L1310.7,143.9c3.3,0,4.8-0.9,4.8-4.4c0-3.6-1.4-4.5-4.9-4.5h-7.1v8.8H1310.7z M1309.7,149.7h-6.2v10.2
						h-5.9v-30.6h13.3c8.7,0,10.7,4.1,10.7,10c0,4.2-1.2,8.1-5.8,9.7l5.5,10.9h-6.5L1309.7,149.7z"/>
					<polygon points="1340.9,129.2 1347.4,129.2 1360.1,148.5 1360.1,129.2 1365.9,129.2 1365.9,159.8 1360.3,159.8 1346.7,139.2 
						1346.7,159.8 1340.9,159.8 					"/>
					<path d="M1407.5,144.6L1407.5,144.6c0-6-2.1-9.7-8.4-9.7c-6.3,0-8.4,3.7-8.4,9.7c0,6,2.1,9.8,8.4,9.8
						C1405.4,154.4,1407.5,150.6,1407.5,144.6 M1384.5,144.5c0-11.5,5.8-15.8,14.6-15.8c8.8,0,14.6,4.3,14.6,15.8
						c0,11.5-5.8,15.8-14.6,15.8C1390.3,160.3,1384.5,156,1384.5,144.5"/>
					<path d="M1464.9,153.9L1464.9,153.9c7.5,0,9-2.5,9-9.4c0-6.9-1.3-9.2-9.1-9.2h-3.9v18.6H1464.9z M1454.9,129.2h9.9
						c10.9,0,15.4,3.1,15.4,15.3c0,11.9-4.6,15.3-15.5,15.3h-9.7V129.2z"/>
					<path d="M1520.1,144.6L1520.1,144.6c0-6-2.1-9.7-8.4-9.7c-6.3,0-8.4,3.7-8.4,9.7c0,6,2.1,9.8,8.4,9.8
						C1518,154.4,1520.1,150.6,1520.1,144.6 M1497.1,144.5c0-11.5,5.8-15.8,14.6-15.8c8.8,0,14.6,4.3,14.6,15.8
						c0,11.5-5.8,15.8-14.6,15.8C1502.9,160.3,1497.1,156,1497.1,144.5"/>
					<polygon points="1567.5,129.2 1588.2,129.2 1588.2,135.3 1573.5,135.3 1573.5,141.3 1587.8,141.3 1587.8,147.2 1573.5,147.2 
						1573.5,154 1588.3,154 1588.3,159.8 1567.5,159.8 					"/>
					<path d="M1605.2,156.3l3-4.9c2.9,2.2,6.4,3.3,9.9,3.3c5.4,0,6.4-1.2,6.4-3.7c0-2.5-2.3-3-6.5-3.7c-7.4-1.2-11.2-2.6-11.2-9.3
						c0-6.8,3.7-9.3,11.5-9.3c5.6,0,9,1.4,11.1,3l-3.3,5.2c-1.7-1.3-5-2.4-8-2.4c-4.3,0-5.4,0.9-5.4,3.2c0,2.5,2.3,2.9,6.7,3.6
						c6.6,1.1,11,2.3,11,9.2c0,6.2-3,9.7-12.2,9.7C1612.8,160.3,1608.3,158.8,1605.2,156.3"/>
					<polygon points="1655.3,135.3 1645.8,135.3 1645.8,129.2 1671,129.2 1671,135.3 1661.5,135.3 1661.5,159.8 1655.3,159.8 					
						"/>
					<path d="M1701.1,149.2L1701.1,149.2l-4.3-12.2l-4.3,12.2H1701.1z M1693.8,129h6.2l11.1,30.8h-6.3l-1.8-5h-12.5l-1.8,5h-5.9
						L1693.8,129z"/>
					<path d="M1739,153.9L1739,153.9c7.5,0,9-2.5,9-9.4c0-6.9-1.3-9.2-9.1-9.2h-3.9v18.6H1739z M1729,129.2h9.9
						c10.9,0,15.3,3.1,15.3,15.3c0,11.9-4.6,15.3-15.5,15.3h-9.7V129.2z"/>
					<path d="M1794.3,144.6L1794.3,144.6c0-6-2.1-9.7-8.4-9.7c-6.3,0-8.4,3.7-8.4,9.7c0,6,2.1,9.8,8.4,9.8
						C1792.1,154.4,1794.3,150.6,1794.3,144.6 M1771.3,144.5c0-11.5,5.8-15.8,14.6-15.8c8.8,0,14.6,4.3,14.6,15.8
						c0,11.5-5.8,15.8-14.6,15.8C1777.1,160.3,1771.3,156,1771.3,144.5"/>
				</g>
			</g>
		</g>
	</g>
</g>
</svg>
