<?xml version="1.0" encoding="utf-8"?>
<!-- Generator: Adobe Illustrator 28.3.0, SVG Export Plug-In . SVG Version: 6.00 Build 0)  -->
<svg version="1.1" id="Camada_1" xmlns="http://www.w3.org/2000/svg" xmlns:xlink="http://www.w3.org/1999/xlink" x="0px" y="0px"
	 viewBox="0 0 1920 502.6" style="enable-background:new 0 0 1920 502.6;" xml:space="preserve">
<style type="text/css">
	.st0{fill:#0066A5;}
	.st1{fill:#BC9D32;}
	.st2{fill:#8E8E8E;}
	.st3{fill:none;stroke:#EFB700;stroke-width:2;stroke-miterlimit:10;}
	.st4{fill-rule:evenodd;clip-rule:evenodd;fill:#00508B;}
	.st5{fill-rule:evenodd;clip-rule:evenodd;fill:#467742;}
	.st6{fill-rule:evenodd;clip-rule:evenodd;fill:#A7A7A7;}
	.st7{fill-rule:evenodd;clip-rule:evenodd;fill:#FFFFFF;}
	.st8{fill-rule:evenodd;clip-rule:evenodd;fill:#45773B;}
	.st9{fill-rule:evenodd;clip-rule:evenodd;fill:#C19E15;}
	.st10{fill:#A7A7A7;}
	.st11{fill:#FFFFFF;}
	.st12{fill:#00508B;}
	.st13{fill:#1D1D1B;}
	.st14{fill:#FFFFFF;stroke:#EFB700;stroke-width:2;stroke-miterlimit:10;}
	.st15{stroke:#FFFFFF;stroke-width:2;stroke-miterlimit:10;}
</style>
<g>
	<g>
		<path class="st0" d="M516.7,387v-3.6h-11.8v3.6h3.3v13h-3.3v3.6h11.8V400h-3.3v-13H516.7z M534.6,389.4c-0.9-0.9-2.2-1.4-3.9-1.4
			c-1,0-1.9,0.2-2.7,0.5c-0.8,0.3-1.6,0.9-2.5,1.6v-1.7h-4.9v15.2h4.9v-10.8c0.5-0.3,1-0.5,1.5-0.7c0.5-0.2,0.9-0.2,1.3-0.2
			c0.6,0,1.1,0.1,1.5,0.2c0.3,0.1,0.6,0.4,0.8,0.7c0.2,0.3,0.3,0.7,0.3,1.3c0.1,0.6,0.1,1.2,0.1,1.8v7.5h4.9v-9.9
			C536,391.8,535.5,390.4,534.6,389.4z M552.8,396.1c-0.6-0.7-1.6-1.2-2.8-1.6c-0.6-0.1-1.2-0.3-1.7-0.4c-0.6-0.1-1.1-0.2-1.6-0.3
			c-0.9-0.2-1.5-0.4-1.7-0.6c-0.2-0.2-0.4-0.5-0.4-0.8c0-0.4,0.3-0.7,0.8-0.9c0.5-0.2,1.2-0.3,2-0.3c0.9,0,1.9,0.2,2.8,0.5
			c0.9,0.3,1.8,0.7,2.5,1.2h0.4V389c-0.6-0.3-1.4-0.5-2.4-0.7c-1-0.2-2.1-0.3-3.3-0.3c-2.4,0-4.3,0.5-5.7,1.5
			c-1.4,1-2.1,2.2-2.1,3.6c0,1.1,0.3,2.1,1,2.9c0.7,0.8,1.7,1.3,3.1,1.7c0.5,0.1,1.1,0.2,1.7,0.3c0.6,0.1,1.1,0.2,1.5,0.3
			c0.8,0.2,1.3,0.3,1.6,0.5c0.3,0.2,0.4,0.4,0.4,0.8c0,0.4-0.2,0.7-0.7,0.9c-0.5,0.2-1.2,0.3-2.1,0.3c-0.7,0-1.4-0.1-2.1-0.2
			c-0.6-0.1-1.2-0.3-1.7-0.5c-0.6-0.2-1-0.4-1.4-0.6c-0.3-0.2-0.6-0.4-0.8-0.6h-0.5v4c0.7,0.3,1.6,0.6,2.7,0.8
			c1.1,0.2,2.3,0.4,3.7,0.4c2.4,0,4.4-0.5,5.8-1.5c1.4-1,2.1-2.2,2.1-3.8C553.7,397.7,553.4,396.8,552.8,396.1z M566.7,391.7v-3.3
			h-4.6V384h-4.9v4.4h-2v3.3h2v7.1c0,1.8,0.5,3.2,1.4,3.9c0.9,0.8,2.3,1.1,4.2,1.1c0.9,0,1.6,0,2.2-0.1c0.6-0.1,1.2-0.2,1.7-0.3
			v-3.3h-0.4c-0.2,0.1-0.4,0.2-0.9,0.3c-0.4,0.1-0.7,0.2-1,0.2c-0.6,0-1.1-0.1-1.4-0.3c-0.3-0.2-0.6-0.4-0.7-0.7
			c-0.1-0.3-0.2-0.7-0.2-1.1c0-0.4,0-0.9,0-1.4v-5.4H566.7z M569.6,388.4v15.2h4.9v-15.2H569.6z M569.4,382.5v3.7h5.1v-3.7H569.4z
			 M588.8,391.7v-3.3h-4.6V384h-4.9v4.4h-2v3.3h2v7.1c0,1.8,0.5,3.2,1.4,3.9c0.9,0.8,2.3,1.1,4.2,1.1c0.9,0,1.6,0,2.2-0.1
			c0.6-0.1,1.1-0.2,1.7-0.3v-3.3h-0.4c-0.2,0.1-0.5,0.2-0.9,0.3c-0.4,0.1-0.8,0.2-1,0.2c-0.6,0-1.1-0.1-1.4-0.3
			c-0.3-0.2-0.5-0.4-0.7-0.7c-0.1-0.3-0.2-0.7-0.2-1.1c0-0.4,0-0.9,0-1.4v-5.4H588.8z M602,388.4v10.8c-0.5,0.3-1,0.5-1.5,0.7
			c-0.5,0.2-1,0.2-1.4,0.2c-0.6,0-1.1-0.1-1.4-0.2c-0.4-0.2-0.6-0.4-0.8-0.7c-0.2-0.3-0.3-0.8-0.3-1.3c0-0.5-0.1-1.1-0.1-1.9v-7.6
			h-4.9v9.9c0,1.9,0.4,3.3,1.4,4.3c0.9,1,2.2,1.5,3.9,1.5c1,0,1.9-0.2,2.7-0.6c0.7-0.3,1.6-0.9,2.5-1.6v1.7h4.9v-15.2H602z
			 M621.2,391.7v-3.3h-4.6V384h-4.9v4.4h-2v3.3h2v7.1c0,1.8,0.5,3.2,1.4,3.9c0.9,0.8,2.3,1.1,4.2,1.1c0.9,0,1.6,0,2.2-0.1
			c0.6-0.1,1.1-0.2,1.7-0.3v-3.3h-0.4c-0.2,0.1-0.4,0.2-0.9,0.3c-0.4,0.1-0.7,0.2-1,0.2c-0.6,0-1.1-0.1-1.4-0.3
			c-0.3-0.2-0.5-0.4-0.7-0.7c-0.1-0.3-0.2-0.7-0.2-1.1c0-0.4,0-0.9,0-1.4v-5.4H621.2z M637.6,390.1c-1.5-1.4-3.5-2.2-6.2-2.2
			c-2.6,0-4.7,0.7-6.1,2.2c-1.5,1.4-2.2,3.4-2.2,5.9c0,2.5,0.7,4.5,2.2,5.9c1.5,1.4,3.5,2.2,6.1,2.2c2.6,0,4.7-0.7,6.2-2.2
			c1.5-1.4,2.2-3.4,2.2-5.9C639.7,393.5,639,391.5,637.6,390.1z M634.4,398.3c-0.2,0.6-0.4,1-0.7,1.4c-0.3,0.4-0.6,0.6-1,0.8
			c-0.4,0.1-0.8,0.2-1.3,0.2c-0.5,0-1-0.1-1.4-0.2c-0.4-0.2-0.8-0.4-1-0.8c-0.3-0.4-0.5-0.9-0.7-1.5c-0.2-0.6-0.2-1.3-0.2-2.2
			c0-0.9,0.1-1.7,0.3-2.3c0.2-0.6,0.4-1.1,0.7-1.5c0.3-0.4,0.7-0.6,1.1-0.8c0.4-0.1,0.8-0.2,1.2-0.2c0.5,0,0.9,0.1,1.3,0.2
			c0.4,0.1,0.8,0.4,1,0.8c0.3,0.4,0.5,0.8,0.7,1.4c0.2,0.6,0.2,1.3,0.2,2.3C634.7,397,634.6,397.7,634.4,398.3z M662.6,382.5v6.5
			c-0.6-0.3-1.2-0.5-1.8-0.7c-0.6-0.2-1.3-0.3-2.2-0.3c-0.9,0-1.7,0.2-2.6,0.6c-0.9,0.4-1.6,0.9-2.2,1.6c-0.7,0.7-1.2,1.6-1.5,2.6
			c-0.4,1-0.6,2.2-0.6,3.4c0,2.4,0.6,4.4,1.7,5.8c1.1,1.4,2.6,2.2,4.4,2.2c0.9,0,1.8-0.2,2.5-0.5c0.7-0.3,1.5-0.8,2.4-1.5v1.6h4.9
			v-21.1H662.6z M662.6,399.4c-0.4,0.3-0.8,0.5-1.3,0.6c-0.5,0.2-1,0.3-1.4,0.3c-1.1,0-2-0.3-2.5-1c-0.5-0.7-0.8-1.8-0.8-3.2
			c0-1.4,0.3-2.5,1-3.3c0.6-0.8,1.6-1.2,2.9-1.2c0.3,0,0.7,0,1,0.1c0.4,0.1,0.7,0.2,1.1,0.3V399.4z M687.1,395.2
			c0-2.4-0.6-4.2-1.9-5.4c-1.3-1.3-3.1-1.9-5.6-1.9c-2.7,0-4.8,0.7-6.3,2.2c-1.5,1.5-2.3,3.5-2.3,6c0,2.5,0.8,4.5,2.4,5.9
			c1.6,1.4,4,2.1,7,2.1c1.2,0,2.3-0.1,3.2-0.3c1-0.2,2-0.5,3.1-0.9v-3.9h-0.5c-0.6,0.4-1.3,0.8-2.3,1.2c-1,0.4-2,0.5-3,0.5
			c-1.6,0-2.9-0.3-3.7-0.9c-0.8-0.6-1.3-1.5-1.4-2.7h11.2V395.2z M675.9,394c0.1-1.1,0.4-1.9,1-2.3c0.6-0.5,1.4-0.7,2.3-0.7
			c1,0,1.8,0.2,2.2,0.8c0.5,0.5,0.7,1.3,0.8,2.3H675.9z M520.8,427.6c-0.7-0.9-1.9-1.6-3.4-2.1c-0.8-0.2-1.5-0.5-2.2-0.6
			c-0.7-0.1-1.4-0.3-2.1-0.5c-1.1-0.2-1.9-0.5-2.3-0.8c-0.4-0.3-0.6-0.7-0.6-1.2c0-0.3,0.1-0.7,0.4-0.9c0.3-0.3,0.6-0.5,0.9-0.6
			c0.4-0.2,0.8-0.3,1.2-0.3c0.4-0.1,0.9-0.1,1.3-0.1c1.2,0,2.4,0.2,3.6,0.7c1.2,0.5,2.2,1,3,1.6h0.6v-4.7c-1-0.4-2.1-0.7-3.4-1
			c-1.3-0.3-2.6-0.4-3.9-0.4c-2.6,0-4.8,0.6-6.5,1.8c-1.7,1.2-2.5,2.7-2.5,4.6c0,1.4,0.4,2.6,1.1,3.5c0.7,0.9,2,1.7,3.7,2.2
			c0.7,0.2,1.5,0.4,2.4,0.6c0.8,0.2,1.6,0.3,2.4,0.5c0.7,0.2,1.3,0.4,1.6,0.7c0.4,0.3,0.6,0.7,0.6,1.2c0,0.5-0.1,0.8-0.4,1.1
			c-0.3,0.2-0.6,0.4-1,0.6c-0.3,0.1-0.7,0.2-1.3,0.3c-0.5,0.1-0.9,0.1-1.2,0.1c-1.2,0-2.5-0.2-3.8-0.7c-1.3-0.5-2.5-1.1-3.6-2h-0.6
			v4.8c1.1,0.5,2.2,0.8,3.5,1.1c1.2,0.3,2.7,0.4,4.4,0.4c2.9,0,5.2-0.6,6.9-1.9c1.7-1.2,2.5-2.9,2.5-4.8
			C521.9,429.6,521.6,428.5,520.8,427.6z M540.2,428.9c0-2.3-0.6-4.1-1.9-5.4c-1.3-1.3-3.1-1.9-5.6-1.9c-2.7,0-4.8,0.7-6.3,2.2
			c-1.5,1.5-2.3,3.5-2.3,6c0,2.5,0.8,4.5,2.4,5.9c1.6,1.4,4,2.1,7,2.1c1.2,0,2.3-0.1,3.2-0.3c1-0.2,2-0.5,3.1-1v-3.9h-0.5
			c-0.6,0.4-1.3,0.8-2.3,1.2c-1,0.4-2,0.5-3,0.5c-1.6,0-2.9-0.3-3.7-0.9c-0.8-0.6-1.3-1.5-1.4-2.7h11.2V428.9z M529,427.8
			c0.1-1.1,0.4-1.9,1-2.3c0.6-0.5,1.4-0.7,2.3-0.7c1,0,1.8,0.3,2.2,0.8c0.5,0.5,0.7,1.3,0.8,2.3H529z M553.8,422.1l-0.2,0.7
			c-0.5-0.4-1.2-0.6-1.8-0.8c-0.7-0.2-1.4-0.3-2.3-0.3c-0.9,0-1.8,0.2-2.7,0.5c-0.9,0.4-1.6,0.9-2.2,1.5c-0.6,0.7-1.1,1.5-1.5,2.4
			c-0.3,0.9-0.5,2-0.5,3.3c0,2.6,0.6,4.6,1.7,5.8c1.1,1.3,2.8,1.9,4.9,1.9c0.9,0,1.7-0.1,2.4-0.4c0.7-0.3,1.4-0.7,2-1.1v0.3
			c0,0.6-0.1,1.2-0.2,1.6c-0.1,0.4-0.3,0.8-0.6,1.1c-0.3,0.3-0.7,0.5-1.3,0.7c-0.6,0.2-1.3,0.2-2.2,0.2c-0.7,0-1.5-0.1-2.3-0.3
			c-0.9-0.2-1.6-0.4-2.2-0.7h-0.6v3.8c0.7,0.2,1.6,0.3,2.7,0.4c1,0.1,2.1,0.2,3.1,0.2c1.3,0,2.5-0.1,3.5-0.4c1-0.2,1.9-0.7,2.6-1.2
			c0.7-0.6,1.3-1.3,1.7-2.3c0.4-1,0.6-2.2,0.6-3.6v-13.5H553.8z M553.6,432.6c-0.4,0.3-0.8,0.5-1.3,0.6c-0.5,0.2-0.9,0.2-1.4,0.2
			c-1.1,0-1.9-0.3-2.4-0.9c-0.6-0.6-0.8-1.6-0.8-3.1c0-1.3,0.3-2.3,1-3.1c0.6-0.7,1.6-1.1,2.9-1.1c0.3,0,0.7,0,1.1,0.1
			c0.4,0.1,0.7,0.2,1,0.3V432.6z M573.4,422.1v10.8c-0.5,0.3-1,0.5-1.5,0.7c-0.5,0.2-1,0.2-1.4,0.2c-0.6,0-1.1-0.1-1.5-0.2
			c-0.4-0.1-0.6-0.4-0.8-0.7c-0.2-0.3-0.3-0.8-0.3-1.3c0-0.5-0.1-1.1-0.1-1.9v-7.5H563v9.9c0,1.9,0.4,3.3,1.3,4.3
			c0.9,1,2.2,1.5,3.9,1.5c1,0,1.9-0.2,2.7-0.5c0.8-0.3,1.6-0.9,2.5-1.6v1.7h4.9v-15.2H573.4z M593.4,422.1c-0.2,0-0.4,0-0.6,0
			c-0.7,0-1.4,0.2-2.2,0.5c-0.8,0.3-1.7,0.9-2.8,1.8v-2.2h-4.9v15.2h4.9v-10.2c0.6-0.2,1.2-0.4,1.7-0.5c0.5-0.1,1.2-0.1,1.8-0.1
			c0.3,0,0.7,0,1.2,0.1c0.5,0,0.8,0.1,1,0.2h0.4v-4.6C593.8,422.1,593.6,422.1,593.4,422.1z M608.9,423c-1.2-0.9-3.2-1.3-6-1.3
			c-1.2,0-2.3,0.1-3.5,0.3c-1.2,0.2-2,0.3-2.5,0.5v3.7h0.4c0.4-0.1,1.1-0.4,2-0.7c0.9-0.3,1.8-0.4,2.6-0.4c1.3,0,2.4,0.1,3,0.5
			c0.7,0.3,1,0.9,1,1.7v0.1c-1.4,0.1-2.8,0.2-4.2,0.4c-1.3,0.2-2.5,0.5-3.4,0.9c-0.9,0.4-1.6,1-2.1,1.7c-0.5,0.7-0.7,1.6-0.7,2.7
			c0,1.4,0.5,2.5,1.5,3.4c1,0.9,2.2,1.3,3.6,1.3c0.6,0,1.2,0,1.7-0.2c0.5-0.1,1-0.3,1.5-0.5c0.4-0.2,0.7-0.4,1.1-0.7
			c0.4-0.3,0.7-0.5,1-0.7v1.6h4.9V427C610.8,425.2,610.1,423.8,608.9,423z M605.9,433.4c-0.4,0.3-0.8,0.6-1.3,0.8
			c-0.5,0.2-1,0.3-1.5,0.3c-0.6,0-1.1,0-1.4-0.1c-0.3-0.1-0.5-0.2-0.7-0.4c-0.2-0.2-0.4-0.4-0.4-0.6c-0.1-0.2-0.1-0.5-0.1-0.8
			c0-0.5,0.1-0.9,0.4-1.2c0.2-0.3,0.6-0.5,1.1-0.7c0.4-0.1,1-0.2,1.8-0.3c0.8-0.1,1.5-0.2,2.1-0.2V433.4z M629.1,423.2
			c-0.9-1-2.2-1.4-3.9-1.4c-1,0-1.9,0.2-2.7,0.5c-0.8,0.4-1.6,0.9-2.5,1.6v-1.7h-4.9v15.2h4.9v-10.8c0.5-0.3,1-0.5,1.5-0.7
			c0.5-0.2,0.9-0.2,1.3-0.2c0.6,0,1.1,0.1,1.5,0.2c0.4,0.2,0.6,0.4,0.8,0.7c0.2,0.3,0.3,0.7,0.3,1.3c0.1,0.6,0.1,1.2,0.1,1.9v7.5
			h4.9v-9.9C630.5,425.5,630.1,424.1,629.1,423.2z M643,425.2c0.6,0,1.1,0.1,1.6,0.2c0.4,0.1,0.8,0.3,1.2,0.5c0.4,0.2,0.7,0.4,1,0.6
			c0.3,0.2,0.5,0.4,0.7,0.6h0.7v-4.2c-0.8-0.3-1.6-0.6-2.4-0.9c-0.9-0.2-1.8-0.3-2.9-0.3c-1.1,0-2.3,0.1-3.3,0.5
			c-1.1,0.3-2,0.8-2.8,1.4c-0.9,0.7-1.5,1.5-2,2.6c-0.5,1-0.7,2.2-0.7,3.7c0,1.3,0.2,2.5,0.6,3.4c0.4,1,1,1.8,1.8,2.4
			c0.8,0.7,1.7,1.2,2.8,1.5c1.1,0.3,2.2,0.5,3.5,0.5v0.6c0,0.7-0.2,1.3-0.6,1.6c-0.4,0.4-0.9,0.5-1.7,0.5c-0.4,0-0.8,0-1.2-0.2
			c-0.4-0.1-0.7-0.2-1-0.3h-0.3v2.7c0.4,0.1,0.9,0.2,1.5,0.3c0.6,0,1,0.1,1.4,0.1c1.4,0,2.6-0.4,3.5-1.2c0.9-0.8,1.4-1.9,1.4-3.4
			c0-0.2,0-0.3,0-0.6c0-0.2,0-0.4,0-0.5c0.5-0.1,0.9-0.2,1.4-0.4c0.4-0.2,0.8-0.3,1.2-0.4v-4.2h-0.7c-0.2,0.2-0.4,0.4-0.6,0.6
			c-0.2,0.2-0.5,0.4-0.8,0.6c-0.3,0.2-0.7,0.3-1.2,0.5c-0.5,0.1-1,0.2-1.7,0.2c-1.3,0-2.3-0.4-3.1-1.1c-0.7-0.8-1.1-1.9-1.1-3.3
			c0-1.4,0.3-2.6,1.1-3.4C640.7,425.6,641.7,425.2,643,425.2z M663.6,423c-1.2-0.9-3.3-1.3-6-1.3c-1.2,0-2.3,0.1-3.5,0.3
			c-1.2,0.2-2,0.3-2.5,0.5v3.7h0.4c0.4-0.1,1.1-0.4,2-0.7c0.9-0.3,1.8-0.4,2.6-0.4c1.3,0,2.3,0.1,3,0.5c0.7,0.3,1,0.9,1,1.7v0.1
			c-1.4,0.1-2.8,0.2-4.2,0.4c-1.3,0.2-2.5,0.5-3.4,0.9c-0.9,0.4-1.6,1-2.1,1.7c-0.5,0.7-0.7,1.6-0.7,2.7c0,1.4,0.5,2.5,1.5,3.4
			c1,0.9,2.2,1.3,3.7,1.3c0.6,0,1.2,0,1.7-0.2c0.5-0.1,1-0.3,1.5-0.5c0.3-0.2,0.7-0.4,1.1-0.7c0.4-0.3,0.7-0.5,1-0.7v1.6h4.8V427
			C665.4,425.2,664.8,423.8,663.6,423z M660.6,433.4c-0.4,0.3-0.8,0.6-1.3,0.8c-0.5,0.2-1,0.3-1.5,0.3c-0.6,0-1.1,0-1.4-0.1
			c-0.3-0.1-0.5-0.2-0.7-0.4c-0.2-0.2-0.4-0.4-0.4-0.6c-0.1-0.2-0.1-0.5-0.1-0.8c0-0.5,0.1-0.9,0.4-1.2c0.3-0.3,0.6-0.5,1.1-0.7
			c0.4-0.1,1-0.2,1.7-0.3c0.8-0.1,1.5-0.2,2.2-0.2V433.4z M695.7,420.5c-0.4-0.8-1.1-1.5-1.9-2c-0.7-0.4-1.5-0.8-2.3-1
			c-0.9-0.2-2-0.3-3.3-0.3h-8.6v20.2h5.2v-6.6h3.2c1.5,0,2.7-0.2,3.7-0.6c1-0.4,1.9-1,2.7-1.8c0.6-0.6,1-1.3,1.4-2.2
			c0.3-0.9,0.5-1.7,0.5-2.6C696.4,422.4,696.1,421.4,695.7,420.5z M690.7,425.1c-0.2,0.4-0.4,0.8-0.7,1c-0.4,0.3-0.9,0.5-1.5,0.7
			c-0.6,0.1-1.3,0.2-2.2,0.2h-1.5v-6.1h0.9c0.9,0,1.6,0,2.1,0c0.5,0,1,0.1,1.6,0.4c0.4,0.2,0.8,0.4,1.1,0.8c0.3,0.4,0.5,0.9,0.5,1.5
			C691,424.2,690.9,424.7,690.7,425.1z M710.1,422.1v10.8c-0.5,0.3-1,0.5-1.5,0.7c-0.5,0.2-1,0.2-1.4,0.2c-0.6,0-1.1-0.1-1.4-0.2
			c-0.4-0.1-0.6-0.4-0.8-0.7c-0.2-0.3-0.3-0.8-0.3-1.3c0-0.5-0.1-1.1-0.1-1.9v-7.5h-4.9v9.9c0,1.9,0.5,3.3,1.3,4.3
			c0.9,1,2.2,1.5,3.9,1.5c1,0,1.9-0.2,2.7-0.5c0.8-0.3,1.6-0.9,2.5-1.6v1.7h4.9v-15.2H710.1z M707,414.6l-3.4,5.3h3.3l4.8-5.1v-0.3
			H707z M733.9,423.8c-1-1.4-2.5-2.1-4.4-2.1c-1,0-1.9,0.2-2.7,0.6c-0.8,0.4-1.5,0.9-2.3,1.5v-7.5h-4.9v21.1h4.7l0.2-0.8
			c0.6,0.3,1.2,0.6,1.8,0.8c0.7,0.2,1.4,0.3,2.2,0.3c2,0,3.6-0.8,5-2.3c1.3-1.5,2-3.5,2-5.9C735.4,427.1,734.9,425.2,733.9,423.8z
			 M729.5,433c-0.6,0.8-1.6,1.2-2.9,1.2c-0.4,0-0.8,0-1.1-0.1c-0.3,0-0.7-0.1-1-0.2v-7.6c0.4-0.3,0.9-0.5,1.4-0.6
			c0.5-0.1,1-0.2,1.4-0.2c1.2,0,2,0.4,2.5,1.1c0.5,0.7,0.7,1.8,0.7,3.1C730.4,431.2,730.1,432.3,729.5,433z M739,416.3v21.1h4.9
			v-21.1H739z M748.5,422.1v15.2h4.9v-15.2H748.5z M748.3,416.3v3.7h5.1v-3.7H748.3z M765.9,425.2c0.6,0,1.1,0.1,1.6,0.2
			c0.4,0.1,0.8,0.3,1.2,0.5c0.4,0.2,0.7,0.4,1,0.6c0.2,0.2,0.5,0.4,0.7,0.6h0.7v-4.2c-0.8-0.4-1.6-0.6-2.4-0.9
			c-0.9-0.2-1.8-0.3-2.9-0.3c-1.2,0-2.3,0.1-3.4,0.5c-1.1,0.3-2,0.8-2.8,1.4c-0.9,0.7-1.5,1.5-2,2.6c-0.5,1-0.7,2.2-0.7,3.7
			c0,1.3,0.2,2.5,0.7,3.5c0.4,1,1.1,1.8,1.9,2.5c0.8,0.7,1.8,1.1,2.9,1.5c1.1,0.3,2.3,0.5,3.6,0.5c1,0,1.9-0.1,2.8-0.3
			c0.8-0.2,1.6-0.5,2.4-0.9v-4.2h-0.7c-0.2,0.2-0.4,0.4-0.6,0.6c-0.2,0.2-0.5,0.4-0.8,0.6c-0.3,0.2-0.7,0.3-1.2,0.5
			c-0.5,0.1-1.1,0.2-1.7,0.2c-1.3,0-2.3-0.4-3-1.1c-0.7-0.8-1.1-1.9-1.1-3.3c0-1.4,0.3-2.6,1-3.4S764.6,425.2,765.9,425.2z
			 M786.5,423c-1.2-0.9-3.2-1.3-6-1.3c-1.2,0-2.3,0.1-3.5,0.3c-1.2,0.2-2,0.3-2.5,0.5v3.7h0.4c0.4-0.2,1.1-0.4,2-0.7
			c0.9-0.3,1.8-0.4,2.6-0.4c1.3,0,2.4,0.1,3,0.5c0.7,0.3,1,0.9,1,1.7v0.1c-1.4,0.1-2.8,0.2-4.2,0.4c-1.3,0.2-2.5,0.5-3.4,0.9
			c-0.9,0.4-1.6,1-2.1,1.7c-0.5,0.7-0.7,1.6-0.7,2.7c0,1.4,0.5,2.5,1.5,3.4c1,0.9,2.2,1.3,3.6,1.3c0.6,0,1.2,0,1.7-0.2
			c0.5-0.1,1-0.3,1.5-0.5c0.3-0.2,0.7-0.4,1.1-0.7c0.4-0.3,0.7-0.5,1-0.7v1.6h4.8V427C788.4,425.2,787.8,423.8,786.5,423z
			 M783.5,433.4c-0.4,0.3-0.8,0.6-1.3,0.8c-0.5,0.2-1,0.3-1.5,0.3c-0.6,0-1.1,0-1.4-0.1c-0.3-0.1-0.5-0.2-0.8-0.4
			c-0.2-0.2-0.3-0.4-0.4-0.6c-0.1-0.2-0.1-0.5-0.1-0.8c0-0.5,0.1-0.9,0.4-1.2c0.3-0.3,0.6-0.5,1.1-0.7c0.4-0.1,1-0.2,1.8-0.3
			c0.8-0.1,1.5-0.2,2.2-0.2V433.4z"/>
		<path class="st0" d="M380.8,392.9v-9.5h-31.3v9.5h8.7v34.5h-8.7v9.5h31.3v-9.5H372v-34.5H380.8z M431.8,411.1
			c-1.9-2.3-5-4.1-9-5.5c-2.1-0.6-4-1.2-5.8-1.6c-1.8-0.4-3.7-0.8-5.6-1.2c-3-0.6-5-1.3-6.1-2.1c-1.1-0.7-1.6-1.8-1.6-3.2
			c0-0.9,0.3-1.8,1-2.5c0.7-0.7,1.5-1.3,2.4-1.6c1.1-0.4,2.2-0.7,3.3-0.9c1.1-0.1,2.3-0.2,3.4-0.2c3.2,0,6.4,0.6,9.6,1.7
			c3.1,1.2,5.8,2.6,7.9,4.3h1.5v-12.3c-2.5-1-5.5-1.9-8.9-2.6s-6.9-1-10.4-1c-7,0-12.7,1.6-17.2,4.7c-4.5,3.1-6.7,7.2-6.7,12.2
			c0,3.7,1,6.8,2.9,9.3c2,2.5,5.2,4.5,9.7,5.9c2,0.6,4.1,1.2,6.3,1.6c2.2,0.4,4.4,0.9,6.4,1.3c1.9,0.5,3.4,1.1,4.4,2
			c1,0.9,1.5,1.9,1.5,3c0,1.3-0.3,2.2-1,2.9c-0.7,0.7-1.5,1.2-2.6,1.6c-0.9,0.3-2,0.6-3.3,0.7c-1.4,0.1-2.5,0.2-3.3,0.2
			c-3.2,0-6.6-0.6-10.2-1.8c-3.5-1.2-6.7-3-9.6-5.2h-1.5v12.8c2.9,1.2,5.9,2.2,9.2,3c3.3,0.8,7.1,1.2,11.6,1.2
			c7.6,0,13.7-1.6,18.1-4.9c4.5-3.3,6.7-7.6,6.7-12.8C434.7,416.4,433.8,413.4,431.8,411.1z M486.5,392.4c-1.1-2.2-2.8-4-4.9-5.4
			c-1.8-1.2-3.9-2.1-6.2-2.6c-2.3-0.6-5.2-0.9-8.6-0.9h-22.7v53.4H458v-17.4h8.6c3.9,0,7.1-0.5,9.8-1.6c2.6-1.1,5-2.7,7.1-4.8
			c1.6-1.6,2.7-3.5,3.6-5.8c0.8-2.3,1.3-4.6,1.3-7C488.2,397.2,487.7,394.6,486.5,392.4z M473.4,404.5c-0.4,1.1-1,2-1.9,2.7
			c-1,0.9-2.3,1.4-3.8,1.7c-1.5,0.3-3.5,0.4-5.8,0.4H458v-16h2.4c2.3,0,4.1,0,5.5,0.1c1.4,0.1,2.8,0.4,4.2,0.9
			c1.1,0.4,2,1.2,2.8,2.3c0.8,1.1,1.2,2.4,1.2,3.9C474,402.2,473.8,403.5,473.4,404.5z"/>
	</g>
	<g>
		<g>
			<path class="st0" d="M742.9,287.4c0,2.5,0,5,0,7.4c-0.1,5.7,0.3,11.4-0.4,17.1c0.1-0.6-1.3-2.3-1.6-2.8c-0.7-1.1-1.4-2.1-2.1-3.2
				c-1.4-2-3-3.9-4.6-5.7c-3.4-3.7-7.3-6.8-11-10.1c-5-4.4-10.3-8.5-16.2-11.6c-6.5-3.4-13.9-4.9-21.1-3.2
				c-0.9-7.5-3.2-26.8-6.8-32.6c-4.9-7.7-11.5-13.8-19.9-18.2c-8.4-4.4-18.1-6.6-28.9-6.6c-8,0-14.6,1-19.7,3
				c-5.1,2-9.5,4.3-13.1,6.9c-3.6,2.6-6.7,4.9-9.4,6.9c-2.7,2-5.8,3-9.2,3h-39.4c-2.6,0-4.8-0.9-6.6-2.8c-0.7-0.7-1.3-1.5-1.7-2.3
				c1-1,1.9-2,2.9-3.1c10.1-10.9,18-22.3,23.3-34.2c5.5-12,8.3-25.3,8.3-39.5c0-18.1-4.2-34.7-12.6-49.2c-2.6-4.6-5.7-8.9-9.2-13
				l1.2-11.9c0.3-3.7,1.6-6.6,3.9-8.6c2.3-2,5-3,8.1-3h161.2c2.9,0,5.3,1,7.3,3c2,2,3,4.4,3,7.3v28.7c0,2.9-1,5.3-3,7.3
				c-2,2-4.4,3-7.3,3H594.1l-6.9,69.9c5.1-3.4,12-6.7,20.6-9.9c8.6-3.1,20.4-4.7,35.6-4.7c13.7,0,26.8,2.2,39.2,6.6
				c12.4,4.4,23.5,10.9,33.2,19.3c9.7,8.4,17.4,18.6,22.9,30.4c0.1,0.2,0.2,0.5,0.3,0.7c1.8,4.4,2.2,9.4,2.6,14.1
				c0.6,6.8,0.9,13.6,1.1,20.5C742.9,273.2,742.9,280.3,742.9,287.4z"/>
		</g>
		<g>
			<path class="st0" d="M419.2,352.1c0.5,0.6,1.1,1.1,1.8,1.4c0.7,0.3,1.4,0.4,2.2,0.4c0.8,0,1.5-0.1,2.2-0.4
				c0.7-0.3,1.3-0.8,1.8-1.4c0.6-0.7,1-1.5,1.3-2.5c0.3-1,0.4-2.1,0.4-3.4c0-1.4-0.2-2.6-0.5-3.6c-0.3-1-0.7-1.8-1.3-2.4
				c-0.5-0.6-1.1-1.1-1.8-1.4c-0.7-0.3-1.4-0.4-2.2-0.4c-0.8,0-1.5,0.1-2.1,0.4c-0.7,0.3-1.3,0.7-1.8,1.3c-0.5,0.6-0.9,1.4-1.3,2.4
				c-0.3,1-0.5,2.2-0.5,3.6c0,1.4,0.2,2.6,0.5,3.5C418.3,350.6,418.7,351.4,419.2,352.1z"/>
			<polygon class="st0" points="364.1,348.8 369.8,348.8 366.9,340.5 			"/>
			<path class="st0" d="M499.2,245.4c9.7-8.2,18.4-16.3,25.8-24.2c2.2-2.3,4.3-4.7,6.2-7.1c6.3-7.7,11.3-15.7,15-23.9
				c4.8-10.5,7.2-22.1,7.2-34.6c0-16-3.7-30.6-11-43.3c-0.2-0.4-0.4-0.7-0.7-1.1c-7.2-12.1-18-21.9-32-29.1
				c-14.7-7.5-33.6-11.3-56.2-11.3c-16,0-30.5,2.6-43.2,7.7c-12.7,5.1-23.5,12-32.2,20.4c-8.7,8.4-15.4,18.1-19.9,28.9
				c-4.5,10.8-7,22.1-7.3,33.6c0,0.5,0.1,1,0.8,1.7c0.4,0.4,1,0.8,2.2,0.8h38.1c1.6,0,3.1-0.5,4.8-1.4c0.4-0.2,1.3-0.7,1.7-3.4
				c1.5-9,4.4-17.3,8.6-24.7c4.3-7.7,10.5-14,18.2-18.7c7.8-4.7,17.3-7.1,28.4-7.1c16.9,0,29.5,4.7,37.7,14c7.9,9.1,12,20.9,12,35.2
				c0,9.6-3,19.4-8.8,29c-5.6,9.2-14.5,19.3-26.4,30.1c-7.3,6.5-15.1,12.8-22.6,18.9c-2.9,2.3-5.8,4.7-8.7,7
				c-9.9,8.1-19,16.7-29.5,27.2l-52.7,52.4c-3.6,3-6,5.8-6.9,8.3c-1,2.9-1.6,5.3-1.6,7.2v21.9c0,1.3,0.4,2.2,1.2,3.1
				c0.9,0.9,1.8,1.3,3.1,1.3H462l71.4-35.1l-119.1,0.9l66.5-67.4C486.3,256.7,492.3,251.2,499.2,245.4z M372.8,357.8l-1.6-4.7h-8.6
				l-1.6,4.7h-6l8.6-23.2h6.9l8.6,23.2H372.8z M405.1,357.8h-5.8l-9.9-16v16H384v-23.2h7.2l8.5,13.3v-13.3h5.5V357.8z M440.1,350.8
				h0.7c1.2,1,2.6,1.7,4.2,2.3c1.5,0.5,3,0.8,4.4,0.8c0.4,0,0.8,0,1.4-0.1c0.6-0.1,1.1-0.2,1.5-0.3c0.5-0.2,0.8-0.4,1.1-0.7
				c0.3-0.3,0.4-0.7,0.4-1.2c0-0.5-0.2-0.9-0.6-1.3c-0.4-0.4-1.1-0.7-1.9-0.9c-0.9-0.2-1.8-0.4-2.8-0.6c-1-0.2-1.9-0.4-2.7-0.7
				c-2-0.6-3.4-1.5-4.2-2.6c-0.9-1.1-1.3-2.4-1.3-4.1c0-2.2,1-3.9,2.9-5.3c1.9-1.4,4.4-2.1,7.5-2.1c1.5,0,3,0.1,4.5,0.4
				c1.5,0.3,2.8,0.7,3.9,1.1v5.4h-0.6c-0.9-0.7-2.1-1.4-3.4-1.9c-1.4-0.5-2.7-0.8-4.2-0.8c-0.5,0-1,0-1.5,0.1s-1,0.2-1.4,0.4
				c-0.4,0.2-0.8,0.4-1,0.7c-0.3,0.3-0.4,0.7-0.4,1.1c0,0.6,0.2,1.1,0.7,1.4c0.5,0.3,1.4,0.6,2.7,0.9c0.9,0.2,1.7,0.3,2.5,0.5
				c0.8,0.2,1.6,0.4,2.5,0.7c1.8,0.6,3.1,1.4,3.9,2.4c0.8,1,1.3,2.3,1.3,3.9c0,2.3-1,4.1-2.9,5.6c-1.9,1.4-4.6,2.1-7.9,2.1
				c-1.9,0-3.6-0.2-5-0.5c-1.4-0.3-2.8-0.8-4-1.3V350.8z M414.5,337.3c2.1-2.2,5.1-3.3,8.8-3.3c3.7,0,6.7,1.1,8.8,3.3
				c2.1,2.2,3.2,5.1,3.2,8.9c0,3.7-1.1,6.6-3.2,8.8c-2.1,2.2-5.1,3.3-8.8,3.3c-3.7,0-6.7-1.1-8.8-3.3c-2.1-2.2-3.2-5.1-3.2-8.8
				C411.3,342.4,412.3,339.5,414.5,337.3z"/>
		</g>
		<path class="st1" d="M636.1,274.3c-24.2-8.9-43.6-19.3-43.8-19.4l1.8-3.4c0.2,0.1,19.3,10.4,43.3,19.2L636.1,274.3z"/>
		<g>
			<g>
				<path class="st2" d="M600.8,256c-1.9-3.4-4.3-7.5-8.2-7.8c-4.7-0.3-9.7,7-11.8,10.5c-12.9,22.2-26,44.5-36.2,68
					c20.7-9,50.5-20.1,75.9-22.3C613.7,284.9,606.4,266.3,600.8,256z"/>
				<path class="st2" d="M536.4,348c-2,6-3.9,12.1-6.8,17.7l110-0.5c-3.3-12.6-10.1-35-17.7-56.9c-26.5,2.1-58.8,14.6-79.5,23.8
					C540.2,337.3,538.2,342.6,536.4,348z"/>
			</g>
			<path class="st1" d="M688.4,287c-14.6-1.1-32.2-5.4-52.2-12.8l1.3-3.6c19.7,7.3,36.9,11.5,51.2,12.5L688.4,287z"/>
			<path class="st2" d="M471,366.9l49.4-24.9c0,0,71.3-37.7,115-34.1c0,0,35.1-25.2,55.7-27.1c20.6-1.9,43.1,27.1,43.1,27.1
				l51.4,58.2L471,366.9z"/>
		</g>
	</g>
</g>
<g>
	<g>
		<path class="st4" d="M1263.4,258.4c0-38.5,22.8-69.7,51-69.7c28.2,0,51,31.2,51,69.7c0,38.5-22.8,69.7-51,69.7
			C1286.2,328.1,1263.4,296.9,1263.4,258.4"/>
		<path class="st5" d="M1357,292.3l-85.2,0c-3.5-8.4-5.7-17.9-6.3-28h97.9C1362.7,274.4,1360.5,283.9,1357,292.3"/>
		<path class="st6" d="M1363.3,264.3l-97.9,0.2c-0.1-1.9-0.2-3.9-0.2-5.9c0-5.6,0.5-11.1,1.5-16.4l11.1,4c2.9,0,4.3-4.3,4.3-4.3
			l10.2-19.7c5-10.8,8.7-4.1,8.7-4.1s1.8-1.7,3.9-2.7c2.7-1.7,5,2.1,5,2.1s0.6-2.6,4.8-3.2c0.9-0.1,3.1-15.8,3.1-15.8
			s0.5-5.8,2.7-7.3c1.1,0.2,2.2,0.4,3.2,0.7c1.5,1.6,1.5,4.4,1.5,4.4l1.8,30.5l8.9,0.2l13.5-16.1c8.8,12.3,14.2,29.1,14.2,47.6
			C1363.5,260.5,1363.5,262.4,1363.3,264.3"/>
		<path class="st7" d="M1311.1,264L1311.1,264h-45.5c0,0.5,0.1,1.1,0.1,1.6h39.2L1311.1,264z M1324.2,265.6h39.2
			c0-0.5,0.1-1.1,0.1-1.6h-45.5L1324.2,265.6z"/>
		<path class="st8" d="M1353.8,322.9c0.7-0.6,1.6-0.7,2.4-0.3c-1.6-1.4-2.7-3.4-3-5.7c-0.3-2.7,0.4-5.2,1.9-7
			c1.9,1.4,3.3,3.6,3.6,6.2c0.2-0.3,0.4-0.6,0.6-0.8c1.3-1.7,3.1-2.8,5-3.3c-0.4-0.6-0.4-1.5,0-2.2c0.4-0.6,1-1,1.7-1.1
			c-0.1-0.2-0.2-0.5-0.2-0.7c-0.6,0.3-1.3,0.3-2-0.1c-1-0.6-1.4-1.9-0.8-2.9c0.6-1,1.9-1.4,2.9-0.8c0.6,0.4,1,1,1.1,1.6
			c0.2-0.1,0.4-0.2,0.7-0.2c-0.3-0.6-0.3-1.3,0.1-1.9c0.4-0.7,1.2-1.1,2.1-1.1c-1.8-0.9-3.4-2.5-4.3-4.6c-1.1-2.5-1-5.1-0.1-7.2
			c2.2,0.8,4.1,2.5,5.2,4.9c0.1-0.3,0.2-0.6,0.3-1c0.8-2.1,2.3-3.7,4.1-4.7c-0.7-0.5-1-1.4-0.8-2.3c0.2-0.7,0.7-1.2,1.3-1.5
			c-0.1-0.2-0.3-0.4-0.4-0.6c-0.5,0.4-1.2,0.6-1.9,0.4c-1.1-0.3-1.8-1.5-1.5-2.6c0.3-1.1,1.5-1.8,2.6-1.5c0.7,0.2,1.2,0.7,1.5,1.3
			c0.2-0.1,0.4-0.3,0.6-0.4c-0.4-0.5-0.6-1.2-0.4-1.9c0.2-0.9,1.1-1.5,2-1.6c-2.1-0.4-4.1-1.6-5.5-3.5c-1.6-2.1-2.2-4.7-1.8-7
			c2.3,0.2,4.6,1.5,6.2,3.5c0-0.3,0-0.7,0.1-1c0.3-2.2,1.3-4.1,2.7-5.5c-0.7-0.4-1.2-1.1-1.1-1.9c0-0.7,0.4-1.4,1-1.7
			c-0.2-0.1-0.4-0.3-0.5-0.5c-0.4,0.5-1,0.9-1.8,0.9c-1.2,0-2.1-1-2.1-2.2c0-1.2,1-2.1,2.2-2.1c0.7,0,1.3,0.4,1.7,0.9
			c0.1-0.2,0.3-0.4,0.5-0.5c-0.5-0.4-0.9-1-0.9-1.7c0-0.9,0.6-1.7,1.4-2c-2.1,0-4.2-0.7-6-2.2c-2.1-1.7-3.2-4.1-3.4-6.4
			c2.3-0.3,4.8,0.4,6.9,2.1c-0.1-0.3-0.1-0.7-0.1-1c-0.2-2.2,0.3-4.2,1.3-5.8c-0.7-0.2-1.3-0.8-1.5-1.6c-0.1-0.7,0.1-1.4,0.6-1.9
			c-0.2-0.1-0.4-0.2-0.6-0.4c-0.3,0.6-0.8,1.1-1.5,1.2c-1.2,0.2-2.3-0.5-2.5-1.7c-0.2-1.2,0.5-2.3,1.7-2.5c0.7-0.1,1.4,0.1,1.9,0.6
			c0.1-0.2,0.2-0.4,0.4-0.6c-0.6-0.3-1.1-0.8-1.2-1.5c-0.1-0.8,0.2-1.6,0.8-2.1c-2,0.4-4.2,0.2-6.2-0.8c-2.4-1.2-4-3.2-4.7-5.5
			c2.2-0.8,4.8-0.7,7.1,0.5c-0.1-0.3-0.3-0.6-0.4-0.9c-0.7-2.2-0.6-4.4,0.2-6.3c-0.9,0.1-1.8-0.4-2.2-1.2c-0.3-0.7-0.2-1.4,0.1-2
			c-0.2,0-0.5-0.1-0.7-0.3c-0.1,0.7-0.5,1.3-1.2,1.6c-1.1,0.5-2.3,0-2.8-1c-0.5-1.1,0-2.3,1-2.8c0.6-0.3,1.4-0.3,2,0.1
			c0-0.2,0.1-0.5,0.2-0.7c-0.7-0.1-1.2-0.5-1.5-1.2c-0.4-0.8-0.2-1.8,0.4-2.4c-1.8,1-4,1.4-6.2,1c-2.6-0.5-4.8-2-6.1-4
			c1.9-1.4,4.4-2,7-1.5c-0.2-0.3-0.4-0.5-0.6-0.8c-1.3-1.9-1.8-4-1.6-6c-0.8,0.3-1.7,0.1-2.3-0.6c-0.5-0.5-0.6-1.2-0.5-1.9
			c-0.2,0-0.5,0-0.7,0c0.1,0.7-0.2,1.3-0.7,1.8c-0.9,0.8-2.2,0.7-3-0.2c-0.8-0.9-0.7-2.2,0.2-3c0.5-0.5,1.3-0.6,1.9-0.5
			c0-0.2,0-0.5,0-0.7c-0.7,0.1-1.3-0.2-1.8-0.7c-0.5-0.5-0.6-1.2-0.5-1.9c-1.4,1.4-3.3,2.5-5.5,2.7c-2.6,0.4-5.2-0.4-7-1.9
			c1.4-1.9,3.6-3.3,6.2-3.6c-0.3-0.2-0.6-0.4-0.8-0.6c-2.1-1.6-3.4-3.9-3.6-6.3c2.3-0.4,4.9,0.2,7,1.8c0.3,0.2,0.5,0.4,0.8,0.7
			c-0.3-2.6,0.4-5.1,1.9-6.9c1.9,1.4,3.3,3.6,3.6,6.3c0.3,2.3-0.2,4.5-1.4,6.3c0.8-0.4,1.8-0.2,2.5,0.5c0.5,0.5,0.6,1.2,0.5,1.9
			c0.2,0,0.4,0,0.7,0c-0.1-0.7,0.2-1.3,0.7-1.8c0.9-0.8,2.2-0.7,3,0.2c0.8,0.9,0.7,2.2-0.2,3c-0.5,0.5-1.2,0.6-1.9,0.5
			c0,0.2,0,0.5,0,0.7c0.7-0.1,1.4,0.2,1.8,0.7c0.7,0.7,0.7,1.8,0.2,2.6c2,0.6,3.9,1.8,5.2,3.7c0.2,0.3,0.4,0.6,0.5,0.9
			c0.5-2.6,2-4.7,4-5.9c1.4,1.9,2,4.5,1.5,7.1c-0.5,2.5-1.9,4.6-3.8,5.9c1-0.3,2.1,0.2,2.5,1.1c0.3,0.7,0.2,1.4-0.1,1.9
			c0.2,0,0.4,0.1,0.6,0.2c0.1-0.6,0.6-1.2,1.2-1.5c1.1-0.5,2.3,0,2.8,1c0.5,1.1,0,2.3-1,2.8c-0.6,0.3-1.4,0.3-1.9-0.1
			c-0.1,0.2-0.1,0.4-0.2,0.6c0.7,0.1,1.3,0.6,1.6,1.2c0.4,0.9,0.2,1.9-0.5,2.5c1.8,1.1,3.3,2.8,4,5.1c0.1,0.3,0.2,0.6,0.3,1
			c1.2-2.3,3.2-3.9,5.5-4.6c0.8,2.2,0.7,4.8-0.5,7.2c-1.1,2.1-2.8,3.7-4.8,4.5c0.9,0.1,1.7,0.8,1.9,1.7c0.1,0.7-0.1,1.4-0.5,1.9
			c0.2,0.1,0.4,0.2,0.5,0.4c0.3-0.6,0.8-1,1.5-1.2c1.2-0.2,2.3,0.5,2.5,1.7c0.2,1.2-0.5,2.3-1.7,2.5c-0.7,0.1-1.4-0.1-1.9-0.5
			c-0.1,0.2-0.2,0.4-0.4,0.6c0.6,0.3,1.1,0.8,1.2,1.5c0.2,0.9-0.2,1.8-1,2.2c1.4,1.4,2.3,3.4,2.5,5.6c0,0.3,0,0.7,0,1
			c1.7-2,4-3.1,6.3-3.3c0.3,2.3-0.4,4.9-2.1,6.9c-1.6,1.9-3.8,3.1-6,3.3c1,0.2,1.7,1.1,1.7,2.1c0,0.7-0.4,1.3-0.9,1.7
			c0.2,0.1,0.3,0.3,0.5,0.5c0.4-0.5,1-0.8,1.7-0.8c1.2,0,2.1,1,2.1,2.2c0,1.2-1,2.1-2.2,2.1c-0.7,0-1.3-0.4-1.7-0.9
			c-0.1,0.2-0.3,0.3-0.5,0.5c0.5,0.4,0.9,1,0.9,1.8c0,1-0.7,1.7-1.5,2c1,1.7,1.5,3.8,1.2,6c0,0.3-0.1,0.7-0.2,1
			c2.1-1.6,4.6-2.1,6.9-1.7c-0.3,2.3-1.5,4.7-3.6,6.3c-2,1.5-4.4,2.1-6.7,1.9c0.9,0.4,1.5,1.5,1.2,2.5c-0.2,0.7-0.7,1.2-1.3,1.4
			c0.1,0.2,0.3,0.3,0.3,0.6c0.5-0.4,1.2-0.6,1.9-0.4c1.1,0.3,1.8,1.5,1.5,2.6c-0.3,1.1-1.5,1.8-2.6,1.5c-0.7-0.2-1.2-0.7-1.4-1.3
			c-0.2,0.1-0.4,0.3-0.6,0.3c0.4,0.5,0.6,1.2,0.4,1.9c-0.3,0.9-1.1,1.6-2,1.6c0.7,1.9,0.6,4.2-0.2,6.4c-0.1,0.3-0.3,0.6-0.4,0.9
			c2.4-1,5-1,7.1-0.1c-0.8,2.2-2.6,4.2-5,5.2c-2.3,1-4.7,1-6.8,0.3c0.7,0.6,0.9,1.7,0.4,2.6c-0.3,0.6-1,1-1.6,1.1
			c0.1,0.2,0.1,0.4,0.2,0.6c0.6-0.3,1.3-0.3,1.9,0.1c1,0.6,1.4,1.9,0.8,2.9c-0.6,1-1.9,1.4-2.9,0.8c-0.6-0.4-1-1-1.1-1.6
			c-0.2,0.1-0.4,0.1-0.7,0.2c0.3,0.6,0.3,1.3-0.1,2c-0.5,0.8-1.4,1.2-2.2,1.1c0,2-0.6,4-2,5.8c-0.2,0.3-0.4,0.5-0.7,0.8
			c2.6-0.3,5.1,0.5,6.8,1.9c-1.4,1.9-3.6,3.3-6.3,3.6c-2.5,0.3-4.9-0.4-6.7-1.7c0.6,0.9,0.5,2.1-0.3,2.8c-0.5,0.5-1.2,0.7-1.9,0.5
			c0,0.2,0,0.4,0,0.7c0.7-0.1,1.3,0.2,1.8,0.7c0.8,0.9,0.7,2.2-0.1,3c-0.9,0.8-2.2,0.7-3-0.1c-0.5-0.5-0.7-1.2-0.5-1.9
			c-0.2,0-0.5,0-0.7,0c0.1,0.7-0.1,1.4-0.7,1.9c-0.9,0.8-2.2,0.7-3-0.1c-0.8-0.9-0.7-2.2,0.1-3c0.5-0.5,1.2-0.6,1.9-0.5
			c0-0.2,0-0.5,0-0.7c-0.7,0.1-1.4-0.2-1.8-0.7c-0.8-0.9-0.7-2.2,0.1-3c0.9-0.8,2.2-0.7,3,0.1c0.5,0.5,0.7,1.2,0.5,1.9
			c0.2,0,0.5,0,0.7,0C1353.1,324.1,1353.3,323.4,1353.8,322.9"/>
		<path class="st8" d="M1267.5,192c-4.4,5.1-8.3,10.9-11.5,17.3l3.5-13c0-0.2,0-0.4-0.2-0.5l-3.3-1.5c-0.2-0.1-0.4,0-0.5,0.2l-9,16
			c-0.1,0.2-0.1,0.4,0.1,0.5c0.2,0.1,0.4,0.1,0.5-0.1c0,0,6.4-7.5,7.6-8.9l-0.9,11.5c-0.5,1.1-1,2.2-1.4,3.4
			c-2.7,6.8-4.8,14-6.1,21.4l-0.2-14c0-0.2-0.2-0.3-0.3-0.4l-3.6-0.5c-0.2,0-0.4,0.1-0.4,0.3l-4.1,17.8c0,0.2,0.1,0.4,0.3,0.5
			c0.2,0.1,0.4,0,0.5-0.2c0,0,4-9,4.8-10.7l2.5,11.6c-0.7,5.2-1.1,10.4-1.1,15.7c0,2.9,0.1,5.8,0.3,8.6l-3.7-13.4
			c-0.1-0.2-0.2-0.3-0.4-0.3l-3.6,0.4c-0.2,0-0.3,0.2-0.3,0.4l0.4,18.3c0,0.2,0.2,0.4,0.3,0.4c0.2,0,0.4-0.1,0.4-0.3
			c0,0,1.7-9.7,2-11.6l5.2,10.6c0.9,8.4,2.8,16.5,5.6,24.3l-7-11.8c-0.1-0.2-0.3-0.2-0.5-0.2l-3.3,1.4c-0.2,0.1-0.3,0.3-0.2,0.5
			l5.3,17.5c0.1,0.2,0.2,0.3,0.4,0.3c0.2,0,0.3-0.2,0.3-0.4v0c0,0-1-9.8-1.2-11.7l7.8,8.8c3.1,7.7,7.2,14.8,11.9,21l-10.1-8.7
			c-0.1-0.1-0.4-0.1-0.5,0l-2.7,2.3c-0.1,0.1-0.2,0.3-0.1,0.5l10.6,14.9c0.1,0.2,0.3,0.2,0.5,0.1c0.1-0.1,0.2-0.2,0.2-0.3
			c0,0,0-0.1,0-0.2c0,0-4-9-4.8-10.7l9.9,5.7c1.3,1.6,2.7,3.1,4.2,4.5c0.8,0.8,2,0.8,2.8,0c0.8-0.8,0.8-2,0-2.8
			c-1.5-1.5-3-3.1-4.4-4.8l-0.9-9.3c1.3,1.5,7.6,8.9,7.6,8.9c0.1,0.1,0.3,0.2,0.5,0.1c0.2-0.1,0.2-0.3,0.1-0.5l-9.3-15.8
			c-0.1-0.2-0.3-0.2-0.5-0.2l-3.4,1.3c-0.2,0.1-0.3,0.3-0.2,0.5l3.9,12.5c-4.9-6.4-9-13.7-12.2-21.7l1.9-9.8
			c0.8,1.7,5.2,10.8,5.2,10.8c0.1,0.2,0.3,0.3,0.5,0.2c0.2-0.1,0.3-0.3,0.2-0.4l-4.7-17.7c0-0.2-0.2-0.3-0.4-0.3l-3.6,0.4
			c-0.2,0-0.3,0.2-0.3,0.4l0.1,13.6c-2.8-7.8-4.6-15.9-5.5-24.3l4.4-9.2c0.4,1.9,2.3,11.7,2.3,11.7c0,0.2,0.2,0.3,0.4,0.3
			c0.2,0,0.4-0.2,0.4-0.4v-18.3c0-0.2-0.1-0.3-0.3-0.4l-3.6-0.6c-0.2,0-0.4,0.1-0.4,0.3l-3.4,13.4c-0.2-2.8-0.3-5.7-0.3-8.5
			c0-5.5,0.4-10.9,1.2-16.2l6.4-7.8c-0.1,1.9-0.5,11.9-0.5,11.9v0c0,0.2,0.1,0.3,0.3,0.4c0.2,0,0.4-0.1,0.4-0.3l4.3-17.8
			c0-0.2-0.1-0.4-0.2-0.4l-3.3-1.4c-0.2-0.1-0.4,0-0.5,0.2l-6.4,12c1.6-8.8,4.2-17.2,7.8-24.9l8.4-5.4c-0.7,1.8-4.2,11.2-4.2,11.2
			c0,0,0,0.1,0,0.1c0,0.1,0.1,0.3,0.2,0.3c0.2,0.1,0.4,0,0.5-0.1l9.7-15.6c0.1-0.2,0.1-0.4-0.1-0.5l-2.8-2.4c-0.2-0.1-0.4-0.1-0.5,0
			l-9.8,9.5c3.1-6.2,6.9-11.8,11.2-16.8l13.9-12c0.1-0.1,0.1-0.2,0-0.3c-0.1-0.1-0.2-0.1-0.3-0.1c0,0-4.1,2.4-7.3,4.2l9.2-11.8
			c0.1-0.1,0.1-0.2,0-0.3c-0.1-0.1-0.2-0.1-0.3,0l-10.7,10.2c1.5-3.3,3.3-7.5,3.3-7.5c0-0.1,0-0.2-0.1-0.2c-0.1,0-0.2,0-0.2,0.1
			L1267.5,192L1267.5,192z"/>
		<path class="st9" d="M1314.4,326.3L1314.4,326.3c-27.1,0-49.1-30.4-49.1-67.8c0-37.4,22-67.8,49.1-67.8
			c27.1,0,49.1,30.4,49.1,67.8C1363.5,295.9,1341.5,326.3,1314.4,326.3 M1314.4,187.1c-29.1,0-52.7,32.1-52.7,71.4
			c0,39.4,23.6,71.5,52.7,71.5c29.1,0,52.7-32.1,52.7-71.5C1367.1,219.1,1343.5,187.1,1314.4,187.1"/>
		<polygon class="st7" points="1305,265.6 1323.8,265.6 1323.8,264 1306.2,264 		"/>
		<path class="st7" d="M1340.9,291.3c0,14.6-11.9,26.5-26.5,26.5c-14.6,0-26.5-11.9-26.5-26.5c0-14.6,11.9-26.5,26.5-26.5
			C1329.1,264.8,1340.9,276.7,1340.9,291.3"/>
		<path class="st10" d="M1292,293.3L1292,293.3c0-0.4-0.1-0.6-0.5-0.6c-0.4,0-0.5,0.2-0.5,0.7l0.1,0.9l1-0.1L1292,293.3z
			 M1292.7,293.4l0,0.8l1.2-0.1l0,0.8l-3.5,0.2l-0.1-1.7c-0.1-1.1,0.4-1.4,1.1-1.4c0.5,0,0.9,0.1,1.2,0.7l1.2-0.8l0.1,0.8
			L1292.7,293.4z"/>
		<polygon class="st10" points="1290.4,289.1 1290.9,286.5 1291.6,286.6 1291.3,288.4 1291.9,288.6 1292.3,286.8 1292.9,286.9 
			1292.6,288.7 1293.4,288.8 1293.7,286.9 1294.4,287.1 1293.9,289.7 		"/>
		<polygon class="st10" points="1291.7,283.6 1292.1,282.7 1294.7,282.8 1292.9,280.9 1293.4,280 1296.6,281.5 1296.2,282.2 
			1294.1,281.2 1295.9,283 1295.6,283.6 1293.1,283.5 1295.2,284.4 1294.9,285.1 		"/>
		<path class="st10" d="M1297.5,277.3L1297.5,277.3c0.3-0.3,0.3-0.6,0-0.8c-0.3-0.3-0.5-0.2-0.8,0.1l-0.6,0.7l0.9,0.7L1297.5,277.3z
			 M1295.1,277.4l1.1-1.3c0.7-0.8,1.3-0.8,1.8-0.3c0.6,0.5,0.8,1,0,1.9l-0.6,0.7l0.8,0.7l-0.5,0.6L1295.1,277.4z"/>
		<path class="st10" d="M1300.4,274.9l-1.3-1.8l0.6-0.5l1.2,1.7c0.3,0.4,0.6,0.6,1.2,0.2c0.6-0.4,0.5-0.7,0.2-1.2l-1.2-1.7l0.6-0.4
			l1.3,1.8c0.4,0.5,0.7,1.2-0.5,2.1C1301.3,276,1300.8,275.5,1300.4,274.9"/>
		<path class="st10" d="M1307.1,271.9L1307.1,271.9c0.4-0.1,0.5-0.3,0.4-0.6c-0.1-0.3-0.3-0.3-0.7-0.2l-0.9,0.4l0.3,0.7
			L1307.1,271.9z M1306.5,270.5L1306.5,270.5c0.4-0.2,0.4-0.3,0.3-0.6c-0.1-0.2-0.3-0.3-0.6-0.1l-0.8,0.3l0.3,0.7L1306.5,270.5z
			 M1304.4,269.8l1.5-0.6c0.9-0.3,1.3-0.2,1.6,0.4c0.2,0.4,0.1,0.7-0.1,0.9c0.4-0.1,0.7,0.1,0.8,0.6c0.3,0.7-0.1,1.1-1,1.4l-1.5,0.6
			L1304.4,269.8z"/>
		<polygon class="st10" points="1310,268 1310.7,267.9 1311.2,270.7 1312.9,270.4 1313,271.1 1310.5,271.5 		"/>
		
			<rect x="1313.6" y="268.9" transform="matrix(2.636235e-02 -0.9997 0.9997 2.636235e-02 1011.5033 1577.166)" class="st10" width="3.5" height="0.8"/>
		<path class="st10" d="M1318.2,269.5c0.3-1.2,1.1-1.6,2.2-1.4c0.6,0.1,1,0.4,1.2,0.8l-0.6,0.4c-0.2-0.3-0.4-0.4-0.8-0.5
			c-0.7-0.2-1.1,0.1-1.3,0.9c-0.2,0.7,0,1.1,0.8,1.3c0.4,0.1,0.7,0,0.9-0.2l0.4,0.6c-0.3,0.2-0.8,0.4-1.5,0.2
			C1318.3,271.4,1318,270.6,1318.2,269.5"/>
		<path class="st10" d="M1325.2,272.4L1325.2,272.4l0.1-1.5l-1.1,1L1325.2,272.4z M1325.4,269.9l0.7,0.4l-0.3,3.8l-0.7-0.4l0-0.6
			l-1.4-0.7l-0.5,0.4l-0.7-0.3L1325.4,269.9z"/>
		<polygon class="st10" points="1329.7,272.5 1330.5,273.2 1329.6,275.6 1331.9,274.5 1332.6,275.1 1330.3,277.8 1329.7,277.3 
			1331.3,275.5 1329,276.6 1328.6,276.2 1329.4,273.9 1327.9,275.6 1327.3,275.1 		"/>
		<path class="st10" d="M1337,287.9c1.3-0.1,1.9,0.5,2,1.7c0,0.7-0.1,1.2-0.4,1.5l-0.6-0.5c0.2-0.2,0.3-0.4,0.3-0.9
			c-0.1-0.8-0.5-1-1.2-1c-0.8,0-1.1,0.3-1.1,1.1c0.1,0.7,0.3,0.9,0.8,0.8l0.1,0l-0.1-1l0.6,0l0.1,1.8l-0.6,0c-1,0.1-1.6-0.3-1.7-1.6
			C1335.2,288.4,1335.8,288,1337,287.9"/>
		<polygon class="st10" points="1338.9,293.3 1338.5,296 1337.8,295.9 1338.1,294 1337.4,293.9 1337.2,295.7 1336.5,295.6 
			1336.7,293.8 1335.9,293.7 1335.7,295.6 1335,295.5 1335.4,292.9 		"/>
		<path class="st10" d="M1335.9,299.1L1335.9,299.1c-0.1,0.4-0.1,0.6,0.3,0.8c0.4,0.1,0.6,0,0.7-0.4l0.3-0.9l-1-0.3L1335.9,299.1z
			 M1335.3,298.8l0.3-0.7l-1.1-0.4l0.2-0.7l3.3,1.2l-0.6,1.6c-0.4,1-0.9,1.1-1.6,0.9c-0.5-0.2-0.8-0.5-0.8-1.1l-1.4,0.2l0.3-0.8
			L1335.3,298.8z"/>
		<polygon class="st10" points="1336,303 1334.6,305.3 1334,304.9 1335,303.3 1334.4,303 1333.4,304.5 1332.9,304.2 1333.8,302.6 
			1333.1,302.2 1332.2,303.8 1331.6,303.5 1333,301.2 		"/>
		<path class="st10" d="M1330.9,307.1L1330.9,307.1c-0.3,0.3-0.3,0.5-0.1,0.8c0.3,0.3,0.5,0.2,0.8-0.1l0.6-0.7l-0.7-0.7
			L1330.9,307.1z M1330.5,306.6l0.5-0.6l-0.9-0.8l0.5-0.6l2.6,2.4l-1.2,1.2c-0.8,0.8-1.3,0.7-1.8,0.2c-0.4-0.3-0.6-0.8-0.3-1.3
			l-1.4-0.4l0.6-0.6L1330.5,306.6z"/>
		<polygon class="st10" points="1329.5,310.7 1327.3,312.2 1326.9,311.6 1328.4,310.6 1328,310 1326.5,311.1 1326.1,310.5 
			1327.6,309.5 1327.2,308.8 1325.6,309.9 1325.3,309.3 1327.4,307.8 		"/>
		<path class="st10" d="M1316.8,314L1316.8,314c-0.4,0-0.6,0.2-0.6,0.6c0,0.4,0.2,0.5,0.7,0.4l0.9-0.1l-0.1-1L1316.8,314z
			 M1316.9,313.3l0.8-0.1l-0.1-1.2l0.8-0.1l0.4,3.5l-1.7,0.2c-1.1,0.1-1.4-0.3-1.5-1c-0.1-0.5,0-0.9,0.6-1.2l-0.8-1.2l0.8-0.1
			L1316.9,313.3z"/>
		<polygon class="st10" points="1313.4,315.8 1310.8,315.6 1310.9,314.9 1312.7,315.1 1312.8,314.4 1311,314.2 1311,313.5 
			1312.9,313.7 1312.9,312.9 1311,312.7 1311.1,312.1 1313.8,312.3 		"/>
		<path class="st10" d="M1309.4,313.5c-0.4,1.2-1.2,1.5-2.3,1.2c-0.6-0.2-1-0.5-1.2-0.9l0.7-0.4c0.1,0.3,0.4,0.5,0.7,0.6
			c0.7,0.2,1.1,0,1.4-0.7c0.2-0.7,0.1-1.1-0.7-1.4c-0.4-0.1-0.7,0-1,0.1l-0.3-0.6c0.4-0.2,0.8-0.3,1.6-0.1
			C1309.4,311.7,1309.7,312.4,1309.4,313.5"/>
		<polygon class="st10" points="1303.3,312.4 1304.4,313 1304,313.6 1301.2,312 1301.5,311.4 1302.6,312 1304,309.5 1304.7,309.9 		
			"/>
		<polygon class="st10" points="1299.6,310.9 1297.5,309.1 1298,308.6 1299.4,309.8 1299.9,309.3 1298.5,308.1 1298.9,307.6 
			1300.3,308.8 1300.8,308.2 1299.4,306.9 1299.8,306.4 1301.9,308.2 		"/>
		<path class="st4" d="M1332.7,287.6L1332.7,287.6c0,0.5,0.4,2.8,0.4,3.7c0,10.3-8.4,18.7-18.7,18.7c-4.6,0-10.7-2.8-13.9-5.5
			l0.3-0.4c10.4-13.3,27.2-16.3,31.7-16.5L1332.7,287.6z M1314.4,272.6L1314.4,272.6l1.3,3.9l4.1,0.1l-3.3,2.4l1.2,3.9
			c0.2,0,0.3-0.1,0.5-0.1c5.2-1.6,9.8-1.9,11.7-1.9C1326.5,275.9,1320.8,272.6,1314.4,272.6 M1295.7,291.3
			c0-10.3,8.4-18.7,18.7-18.7l-1.3,3.9l-4.1,0.1l3.3,2.4l-1.2,3.9l3.3-2.4l3.3,2.3c-6.1,1.9-14.1,7.3-20.5,15.9
			C1296.6,296.9,1295.7,293.5,1295.7,291.3"/>
		<path class="st10" d="M1302.6,296.6L1302.6,296.6c-0.3-0.3-0.6-0.2-0.9,0.1c-0.4,0.4-0.3,0.6,0,0.8c0.3,0.2,0.5,0.3,0.8-0.1
			C1302.9,297.1,1302.9,296.8,1302.6,296.6 M1302.7,298.8l0.2-0.2c0.8-0.9,0.5-1.2,0.3-1.5c0.1,0.2-0.1,0.5-0.4,0.9
			c-0.5,0.6-1,0.5-1.5,0.1c-0.5-0.5-0.6-1,0-1.7c0.7-0.8,1.3-0.7,2-0.1c1,0.9,1.1,1.5,0.1,2.7l-0.2,0.2L1302.7,298.8z"/>
		<path class="st10" d="M1306.4,294.3L1306.4,294.3l-1.2-0.6l0.5,1.3L1306.4,294.3z M1304.4,293.3l0.5-0.5l3.1,1.5l-0.5,0.5
			l-0.5-0.3l-1.1,1l0.2,0.5l-0.5,0.5L1304.4,293.3z"/>
		<path class="st10" d="M1309.2,292.7L1309.2,292.7c0.3-0.2,0.4-0.4,0.2-0.6c-0.2-0.2-0.3-0.2-0.6,0l-0.7,0.5l0.4,0.6L1309.2,292.7z
			 M1308.4,291.7L1308.4,291.7c0.3-0.2,0.3-0.4,0.2-0.6c-0.1-0.2-0.3-0.2-0.6,0l-0.7,0.5l0.4,0.5L1308.4,291.7z M1306.4,291.6
			l1.2-0.9c0.7-0.5,1.1-0.5,1.5,0c0.2,0.3,0.2,0.6,0.1,0.8c0.4-0.1,0.6,0,0.9,0.3c0.4,0.6,0.2,1-0.5,1.5l-1.2,0.9L1306.4,291.6z"/>
		<path class="st10" d="M1311.4,290L1311.4,290c0.3-0.2,0.4-0.4,0.2-0.7c-0.2-0.3-0.4-0.3-0.7-0.1l-0.7,0.4l0.5,0.8L1311.4,290z
			 M1311.6,290.6l-0.6,0.4l0.5,0.9l-0.6,0.4l-1.6-2.7l1.3-0.8c0.9-0.5,1.3-0.3,1.6,0.3c0.2,0.4,0.3,0.8-0.1,1.2l1.1,0.7l-0.6,0.4
			L1311.6,290.6z"/>
		<polygon class="st10" points="1312.5,287.7 1313.1,287.4 1314.5,290.3 1313.9,290.6 		"/>
		<polygon class="st10" points="1313.9,287 1314.6,286.7 1315.6,289.1 1317,288.5 1317.3,289.1 1315.2,289.9 		"/>
		<polygon class="st10" points="1318.1,286.1 1317.6,286.2 1317.4,285.6 1318.6,285.3 1319.5,288.3 1318.9,288.5 		"/>
		<path class="st10" d="M1322,286.7L1322,286.7c-0.1-0.3-0.3-0.4-0.8-0.3c-0.5,0.1-0.6,0.3-0.6,0.6c0.1,0.3,0.3,0.4,0.8,0.3
			C1321.9,287.2,1322.1,287,1322,286.7 M1321.6,285.4L1321.6,285.4c0-0.2-0.2-0.3-0.7-0.2c-0.5,0.1-0.6,0.3-0.5,0.5
			c0.1,0.2,0.2,0.3,0.7,0.2C1321.5,285.8,1321.7,285.6,1321.6,285.4 M1320,287.2c-0.1-0.4-0.1-0.7,0.3-0.9c-0.4-0.1-0.5-0.3-0.6-0.6
			c-0.1-0.4,0-0.8,1-1.1c1-0.2,1.3,0.1,1.4,0.5c0.1,0.3,0.1,0.6-0.2,0.8c0.4,0,0.6,0.3,0.7,0.7c0.1,0.5-0.1,1-1.1,1.3
			C1320.5,288.1,1320.1,287.7,1320,287.2"/>
		<path class="st10" d="M1325,285.1L1325,285.1c-0.1-0.4-0.3-0.6-0.8-0.5c-0.5,0.1-0.6,0.3-0.5,0.6c0.1,0.3,0.2,0.5,0.7,0.5
			C1324.8,285.6,1325,285.4,1325,285.1 M1323.6,286.8l0.3,0c1.2-0.2,1.2-0.6,1.1-0.9c-0.1,0.2-0.4,0.3-0.9,0.4
			c-0.8,0.1-1.1-0.3-1.2-0.9c-0.1-0.7,0.2-1.2,1.1-1.3c1-0.1,1.4,0.3,1.6,1.2c0.2,1.3-0.1,1.8-1.7,2.1l-0.3,0L1323.6,286.8z"/>
		<path class="st10" d="M1326.2,286.5l1-1c0.5-0.4,0.6-0.6,0.6-0.9c0-0.3-0.1-0.4-0.6-0.3c-0.3,0-0.7,0.1-0.8,0.3l-0.3-0.5
			c0.3-0.2,0.6-0.3,1.2-0.3c0.8-0.1,1.2,0.2,1.2,0.8c0,0.5-0.2,0.8-0.7,1.3l-0.6,0.6l1.4-0.1l0,0.6l-2.4,0.1L1326.2,286.5z"/>
		<polygon class="st9" points="1323.1,184.5 1315.8,179.3 1308.6,184.5 1311.3,176 1304.2,170.7 1313,170.6 1315.8,162.2 
			1318.7,170.6 1327.6,170.7 1320.5,176 		"/>
		<path class="st9" d="M1365,334.5c-5.7,3.5-12.4,5.6-19.6,5.6c-7.2,0-13.9-2.1-19.6-5.6l-4.3,7l-12.5-7.8c0,0-2.3,3.7-4.4,7.1
			c-7.3-4-15.7-6.3-24.7-6.3c-9.9,0-19.1,2.8-26.9,7.6c0,0,5.6,9,7.3,11.8c5.7-3.5,12.4-5.6,19.6-5.6c7.2,0,13.9,2,19.6,5.6l4.3-7
			l12.4,7.7c0.7-1.2,2.7-4.3,4.5-7c7.3,4.1,15.8,6.3,24.7,6.3c9.9,0,19.1-2.7,26.9-7.6C1372.3,346.3,1366.4,336.8,1365,334.5"/>
		<path class="st7" d="M1296.1,347.7L1296.1,347.7c1.8,0.7,2.3-0.6,2.8-1.9c0.6-1.3,1.1-2.6-0.7-3.4c-1.8-0.7-2.3,0.6-2.8,1.9
			C1294.9,345.7,1294.4,347,1296.1,347.7 M1296.4,346.9L1296.4,346.9c-0.6-0.2-0.5-0.9,0.1-2.2c0.5-1.3,0.8-1.8,1.4-1.6
			c0.6,0.2,0.5,0.8-0.1,2.2C1297.3,346.6,1297,347.2,1296.4,346.9 M1289.8,345.5L1289.8,345.5l1.8,0.5c1.9,0.5,2.3-1.4,2.5-2.2
			c0.5-1.6,0.5-2.7-1-3.1l-1.9-0.5L1289.8,345.5z M1292.2,341.3L1292.2,341.3l0.6,0.2c0.8,0.2,0.5,1.1,0.3,2.1
			c-0.4,1.3-0.7,1.8-1.3,1.6l-0.5-0.2L1292.2,341.3z M1284.6,344.7L1284.6,344.7c1.9,0.3,2.1-1.1,2.3-2.6c0.2-1.4,0.4-2.8-1.5-3.1
			c-1.9-0.3-2.1,1.1-2.3,2.6C1282.9,343,1282.7,344.4,1284.6,344.7 M1284.7,343.9L1284.7,343.9c-0.6-0.1-0.6-0.7-0.4-2.1
			c0.2-1.4,0.4-2,1-1.9c0.7,0.1,0.7,0.7,0.5,2.1C1285.5,343.4,1285.4,344,1284.7,343.9 M1278.2,344.3L1278.2,344.3l1.9,0
			c2,0,1.9-1.9,1.9-2.8c0-1.7-0.2-2.7-1.7-2.8l-1.9,0L1278.2,344.3z M1279.4,339.7L1279.4,339.7l0.6,0c0.8,0,0.8,0.9,0.8,1.9
			c0,1.4-0.2,1.9-0.9,1.9l-0.6,0L1279.4,339.7z M1275.5,342.5L1275.5,342.5l-1.1,0.1l0.2-2.4h0L1275.5,342.5z M1274.1,344.7
			L1274.1,344.7l0.2-1.2l1.6-0.2l0.5,1.2l1.2-0.1l-2.1-5.3l-1.5,0.2l-0.9,5.7L1274.1,344.7z M1268.3,340.3L1268.3,340.3l0.2,0.9
			l1.3-0.3l1,4.5l1.1-0.2l-1-4.5l1.2-0.3l-0.2-0.9L1268.3,340.3z M1268.4,344.3L1268.4,344.3c-0.6-1.7-2.7-0.8-3.1-1.8
			c-0.1-0.4,0-0.6,0.4-0.8c0.4-0.2,0.6,0.2,0.8,0.6l1.1-0.4c-0.3-1.1-1-1.4-2.1-1c-1.3,0.5-1.5,1.2-1.2,2.1c0.5,1.5,2.7,0.8,3.1,1.8
			c0.1,0.3,0,0.6-0.3,0.8c-0.6,0.2-0.8-0.2-0.9-0.7l-1.1,0.4c0.2,0.9,0.8,1.6,2.1,1.2C1267.9,346.2,1268.9,345.7,1268.4,344.3
			 M1264.7,347.1L1264.7,347.1l-0.4-0.8l-1.7,0.8l-0.7-1.5l1.5-0.7l-0.4-0.8l-1.5,0.7l-0.6-1.2l1.7-0.8l-0.4-0.8l-2.7,1.3l2.4,5
			L1264.7,347.1z M1314.1,348.6L1314.1,348.6c1.6,1,2.4-0.2,3.1-1.4c0.8-1.2,1.5-2.4-0.1-3.4c-1.6-1-2.3,0.2-3.1,1.4
			C1313.3,346.4,1312.5,347.6,1314.1,348.6 M1314.6,347.9L1314.6,347.9c-0.6-0.4-0.3-0.9,0.5-2.1c0.8-1.2,1.2-1.7,1.7-1.3
			c0.5,0.4,0.3,0.9-0.5,2.1C1315.5,347.8,1315.1,348.3,1314.6,347.9 M1311.4,346.8L1311.4,346.8l3-4.7l-1-0.6l-3,4.6L1311.4,346.8z
			 M1308.6,342.3L1308.6,342.3l0.3,0.1c0.7,0.5,0.4,0.9,0,1.5c-0.2,0.3-0.4,0.6-0.5,1l0.9,0.6c0-0.3,0.6-1.1,0.8-1.4
			c0.5-0.8-0.1-1.3-0.3-1.4l0,0c0.7,0.3,1.2,0,1.6-0.6c0.5-0.8,0.4-1.5-0.3-1.9l-1.8-1.1l-3,4.7l1,0.6L1308.6,342.3z M1309.9,340.3
			L1309.9,340.3l0.4,0.3c0.3,0.2,0.4,0.5,0.1,0.9c-0.2,0.3-0.5,0.6-0.9,0.4l-0.4-0.3L1309.9,340.3z M1364.1,346L1364.1,346
			c1.8-0.7,1.2-2,0.6-3.4c-0.6-1.3-1.1-2.6-2.9-1.9c-1.8,0.7-1.2,2-0.7,3.4C1361.8,345.4,1362.4,346.7,1364.1,346 M1363.8,345.2
			L1363.8,345.2c-0.6,0.3-0.9-0.3-1.5-1.6c-0.6-1.3-0.7-1.9-0.1-2.2c0.6-0.2,0.9,0.3,1.5,1.6C1364.2,344.4,1364.4,345,1363.8,345.2
			 M1358.2,345.5L1358.2,345.5l0.3-0.1c0.8-0.3,1,0.3,1.1,0.9c0.1,0.3,0.2,0.7,0.4,1l1.1-0.3c-0.2-0.2-0.5-1.2-0.6-1.5
			c-0.3-1-1-0.8-1.3-0.8l0,0c0.7-0.3,0.8-0.9,0.6-1.6c-0.3-0.9-0.9-1.3-1.7-1l-2,0.6l1.6,5.3l1.1-0.3L1358.2,345.5z M1357.5,343.2
			L1357.5,343.2l0.5-0.2c0.3-0.1,0.6,0,0.8,0.5c0.1,0.3,0.1,0.8-0.3,0.9l-0.5,0.1L1357.5,343.2z M1356.4,348.4L1356.4,348.4
			l-1.2-5.4l-1.1,0.2l1.1,5.4L1356.4,348.4z M1354.2,348.9L1354.2,348.9l-0.1-0.8l-1.9,0.3l-0.3-1.6l1.7-0.2l-0.1-0.8l-1.7,0.3
			l-0.2-1.4l1.8-0.3l-0.1-0.8l-3,0.5l0.9,5.5L1354.2,348.9z M1346.5,349.6L1346.5,349.6l-0.2-4h0l1.7,4l1.5-0.1l-0.3-5.5l-1.1,0
			l0.2,3.8l0,0l-1.7-3.8l-1.6,0.1l0.3,5.5L1346.5,349.6z M1342.6,347.5L1342.6,347.5l-1.1-0.1l0.7-2.3h0L1342.6,347.5z
			 M1340.8,349.5L1340.8,349.5l0.4-1.2l1.6,0.1l0.2,1.2l1.2,0.1l-1.1-5.6l-1.5-0.1l-1.9,5.4L1340.8,349.5z M1338.6,343.6
			L1338.6,343.6l-0.7,4.3c0,0.2-0.2,0.4-0.5,0.4c-0.6-0.1-0.4-0.7-0.3-1.2l-1.2-0.2c-0.2,1.2-0.2,1.9,1.4,2.2
			c0.8,0.1,1.6-0.2,1.8-1.1l0.7-4.2L1338.6,343.6z M1332.5,347.9L1332.5,347.9l0.3-0.8l-1.8-0.6l0.5-1.5l1.6,0.5l0.3-0.8l-1.6-0.5
			l0.4-1.3l1.8,0.6l0.3-0.8l-2.9-0.9l-1.7,5.2L1332.5,347.9z M1324.6,344.8L1324.6,344.8l1.7,0.8c1.8,0.8,2.5-1,2.8-1.8
			c0.7-1.6,0.9-2.6-0.5-3.2l-1.8-0.8L1324.6,344.8z M1327.6,341.1l0.5,0.2c0.7,0.3,0.4,1.1-0.1,2.1c-0.6,1.3-0.9,1.7-1.5,1.4
			l-0.5-0.2L1327.6,341.1z"/>
		<path class="st11" d="M1349.7,234.9L1349.7,234.9c-0.8,0.2,0.7-1.5,2.2-0.5C1351.8,234.4,1350.4,234.7,1349.7,234.9 M1356.8,236.6
			c-0.3-1-1.2-2.9-4.2-2.4c-0.5-1-2.9-0.6-5.1,0c-2.2,0.6-6.4,2.3-8.2,2.9c-1.8,0.6-4.7,1-5.7,0.5c0.2,0.6,0.8,0.9,1.4,1.2
			c-0.2,0-0.4,0-0.7,0c-0.9-0.3-2.2-0.9-3-2.4c-0.9-1.8-0.8-3.5-1.4-4.6c-0.6-1.2-1-3-4.2-3c-3.2,0-10.3,2.6-16.4,4.1
			c-6.2,1.6-16.8,4.5-21.5,5.8c-4.7,1.2-14.1,2.5-17.5,2.5c5.8,4.6,17.6,2.3,20.4,1.9c-1.4,0.5-9.5,2.1-9.3,2.4
			c0.1,0.8,5.1,1.9,14.9-1.1c-1.6,1.1-5.5,2.4-8.4,3.3c-0.2,0.1,0.2,0.2,0.7,0.3c1.7,0.3,5.7,0.7,14.1-2.2c-1.9,1-5.7,2.5-8.6,3.4
			c-1.6,0.5,2.7,0.9,5.8,0.3c3.3-0.6,6.1-2.1,8.3-2.4l1.7-0.2c-3.3,0.6-11.6,4.7-14.3,6.2c-3,1.7-8.9,4.1-11.8,4.4
			c1.2,1.1,4.7,2.7,7.3,3.4c3,0.8,7.6,1.1,11.6,0.5c1.3-3.2,6.5-6.5,9-7.4c-2.7,2.4-2.8,4.1-2.9,5.8c0,1.4,0.9,3.2,1.1,4.5h3.6
			c0-0.9-0.1-2.8,0-4.1c0.1-1.8,0.9-3.3,2.9-4.7c-0.8,1.2-0.3,4,0.2,5.5c0.4,1.3,0.8,2.6,1.2,3.4h3.8c-0.7-1.1-0.8-4.7-0.5-5.9
			c0.4-1.5,3.1-3.5,5.3-4.9c2.2-1.4,6.2-2.4,8.8-3.2c2.5-0.7,3.8-1.2,4.4-1.7c1-0.7,1.9-2,3.2-3.3c0.4-0.4,0.8-0.8,0.8-0.8
			c0,0,2.8-2.9,7.3-4.8c1.2-0.5,3.5-1.1,4.5-1c1,0.1,1.5,0.3,2.1,0.9C1357.3,238.5,1357.1,237.6,1356.8,236.6"/>
		<path class="st11" d="M1343,246.6c-0.1,0.1-0.3,0.2-0.9,1c0,0,0,0-0.1,0.1c-1.2,1.6-2.8,2.6-4.6,3.1c-2.1,0.6-6.8,1.7-9.8,3.1
			c2.1,0.1,10.5,0.9,13.6,0.5c3.1-0.4,6.5-2.1,6.6-4.7C1347.8,247.3,1345.5,246.5,1343,246.6"/>
	</g>
	<g>
		<path class="st12" d="M1067.3,415.5L1067.3,415.5v9h6.5c2.6,0,4.6-0.3,6-1c1.4-0.7,2.1-1.9,2.1-3.7c0-1.5-0.5-2.6-1.6-3.3
			c-1-0.7-2.6-1-4.6-1H1067.3z M1067.6,435.3v14.9c0,0.5-0.2,0.9-0.5,1.3c-0.3,0.4-0.7,0.5-1.2,0.5h-12c-0.4,0-0.8-0.2-1.1-0.5
			c-0.3-0.4-0.5-0.8-0.5-1.3v-43.7c0-0.5,0.2-0.9,0.5-1.3c0.3-0.4,0.7-0.5,1.1-0.5h27.2c4.7,0,8.4,1.1,11.2,3.4
			c3,2.5,4.6,5.8,4.6,9.8c0,4.6-1.2,7.9-3.7,10c-0.6,0.5-1.3,1-2.1,1.5c-0.8,0.5-1.7,0.9-2.7,1.2c1.2,0.7,2.1,1.4,3,2.2
			c0.8,0.8,1.5,1.6,2,2.4l7.4,13.9c0.4,0.7,0.4,1.3,0.1,1.9c-0.3,0.6-0.8,0.9-1.5,0.9h-13.8c-0.3,0-0.6-0.1-0.8-0.3
			c-0.3-0.2-0.5-0.4-0.6-0.7l-6.9-14.4l0.1,0.1c-0.1-0.2-0.3-0.4-0.5-0.6c-0.2-0.2-0.3-0.4-0.5-0.5c-0.3-0.2-1.4-0.4-3.4-0.4H1067.6
			z"/>
		<path class="st12" d="M1104.8,452c-0.4,0-0.7-0.2-1-0.5c-0.3-0.4-0.4-0.8-0.4-1.3v-43.7c0-0.5,0.1-0.9,0.4-1.3
			c0.3-0.4,0.6-0.5,1-0.5h10.1c0.4,0,0.7,0.2,1,0.5c0.3,0.4,0.4,0.8,0.4,1.3v43.7c0,0.5-0.1,0.9-0.4,1.3c-0.3,0.4-0.6,0.5-1,0.5
			H1104.8z"/>
		<path class="st12" d="M1152,420.5L1152,420.5c-1.8-1.8-4.4-2.6-7.8-2.6c-3.4,0-6,0.9-7.8,2.6c-1.8,1.7-2.7,4.4-2.7,7.8
			c0,3.5,0.9,6.1,2.7,7.8c1.8,1.7,4.4,2.6,7.8,2.6c3.4,0,6-0.9,7.8-2.6c1.8-1.8,2.7-4.4,2.7-7.8
			C1154.7,424.9,1153.8,422.2,1152,420.5 M1163.3,446.7c-4.3,4-10.7,6-19.1,6c-8.4,0-14.7-2-19-6c-4.3-4-6.5-10.1-6.5-18.4
			c0-8.2,2.2-14.4,6.5-18.4c4.3-4,10.7-6.1,19-6.1c8.4,0,14.7,2,19.1,6.1c4.3,4,6.5,10.2,6.5,18.4
			C1169.7,436.6,1167.6,442.7,1163.3,446.7"/>
		<path class="st12" d="M1217.1,421.4L1217.1,421.4c-1.3-1.6-3.1-2.3-5.6-2.3h-9.6v18.6h9.1c2.6,0,4.6-0.8,5.9-2.3
			c1.3-1.5,2-3.8,2-6.9C1219,425.3,1218.3,423,1217.1,421.4 M1211.9,404.7c6.5,0,11.7,2.2,15.8,6.6c4,4.3,6,10,6,17.1
			c0,6.9-2,12.6-6.1,17c-4,4.4-9.2,6.6-15.5,6.6h-23.9c-0.5,0-0.9-0.2-1.2-0.5c-0.3-0.4-0.5-0.8-0.5-1.3v-43.7
			c0-0.5,0.2-0.9,0.5-1.3c0.3-0.4,0.7-0.5,1.2-0.5H1211.9z"/>
		<path class="st12" d="M1237.7,452c-0.4,0-0.8-0.2-1.1-0.5c-0.3-0.4-0.5-0.8-0.5-1.3v-43.7c0-0.5,0.2-0.9,0.5-1.3
			c0.3-0.4,0.7-0.5,1.1-0.5h31.6c0.4,0,0.8,0.2,1.1,0.5c0.3,0.4,0.5,0.8,0.5,1.3v8.8c0,0.5-0.2,1-0.5,1.3c-0.3,0.4-0.7,0.5-1.1,0.5
			h-18.2v4.8h15.6c0.4,0,0.8,0.2,1.1,0.5c0.3,0.4,0.5,0.8,0.5,1.3v8.7c0,0.5-0.2,1-0.5,1.3c-0.3,0.4-0.7,0.5-1.1,0.5l-15.6,0.1v5.1
			h19.7c0.5,0,0.9,0.2,1.2,0.5c0.3,0.4,0.5,0.8,0.5,1.3v8.8c0,0.5-0.2,0.9-0.5,1.3c-0.3,0.4-0.7,0.5-1.2,0.5H1237.7z"/>
		<path class="st12" d="M1319.1,404.2c0.4,0,0.8,0.2,1.1,0.5c0.3,0.4,0.5,0.8,0.5,1.3v31c0,4.9-1.5,8.9-4.6,12.1
			c-3,3.1-6.8,4.6-11.6,4.6c-2.5,0-5.2-0.5-7.9-1.4c-1.3-0.5-2.4-0.9-3.2-1.2c-0.8-0.3-1.4-0.6-1.8-0.8c-0.2-0.1-0.4-0.3-0.5-0.6
			c-0.2-0.3-0.3-0.5-0.3-0.7l-1.6-13.8c-0.1-0.5,0-0.9,0.2-1.2c0.2-0.3,0.4-0.6,0.7-0.8c0.3-0.2,0.6-0.2,1-0.1
			c0.3,0.1,0.7,0.3,0.9,0.6c0.6,0.8,1.7,1.7,3.5,2.8c1.6,1,3.3,1.5,5.2,1.5c3.4,0,5.1-1.7,5.1-5.2v-26.7c0-0.5,0.2-1,0.5-1.3
			c0.3-0.4,0.7-0.5,1.1-0.5H1319.1z"/>
		<path class="st12" d="M1341.4,434.5L1341.4,434.5h10.1l-4.9-10.5L1341.4,434.5z M1360.7,452c-0.3,0-0.5-0.1-0.8-0.3
			c-0.3-0.2-0.5-0.4-0.6-0.7l-2.8-5.9h-20.4l-2.8,5.9c-0.1,0.3-0.4,0.5-0.7,0.7c-0.3,0.2-0.6,0.3-0.9,0.3h-11.2
			c-0.7,0-1.2-0.3-1.6-0.8c-0.3-0.6-0.3-1.2,0.1-1.9l22.3-43.6c0.1-0.2,0.3-0.5,0.6-0.7c0.3-0.2,0.6-0.3,0.8-0.3h9.6
			c0.3,0,0.5,0.1,0.8,0.3c0.3,0.2,0.5,0.4,0.7,0.7l21,43.6c0.3,0.7,0.3,1.3,0,1.8c-0.3,0.5-0.8,0.8-1.5,0.8H1360.7z"/>
		<path class="st12" d="M1403.3,424c1,1.5,2,3.1,3.1,4.7v-22.2c0-0.5,0.2-0.9,0.5-1.3c0.3-0.4,0.7-0.5,1.2-0.5h10.6
			c0.5,0,0.9,0.2,1.2,0.5c0.3,0.4,0.5,0.8,0.5,1.3v43.7c0,0.5-0.2,0.9-0.5,1.3c-0.3,0.4-0.7,0.5-1.2,0.5h-12.2
			c-0.2,0-0.4-0.1-0.7-0.2c-0.3-0.1-0.5-0.3-0.7-0.5l-15.3-22.9v21.8c0,0.5-0.2,0.9-0.5,1.3c-0.3,0.4-0.7,0.5-1.2,0.5h-10.6
			c-0.4,0-0.8-0.2-1.1-0.5c-0.3-0.4-0.5-0.8-0.5-1.3v-43.7c0-0.5,0.2-0.9,0.5-1.3c0.3-0.4,0.7-0.5,1.1-0.5h12c0.2,0,0.5,0.1,0.8,0.2
			c0.3,0.2,0.5,0.3,0.6,0.5c1.6,2.4,3.1,4.8,4.6,7c1.5,2.3,3,4.6,4.6,6.9C1401.3,420.9,1402.3,422.4,1403.3,424"/>
		<path class="st12" d="M1425.4,452c-0.4,0-0.8-0.2-1.1-0.5c-0.3-0.4-0.5-0.8-0.5-1.3v-43.7c0-0.5,0.2-0.9,0.5-1.3
			c0.3-0.4,0.7-0.5,1.1-0.5h31.6c0.4,0,0.8,0.2,1.1,0.5c0.3,0.4,0.5,0.8,0.5,1.3v8.8c0,0.5-0.2,1-0.5,1.3c-0.3,0.4-0.7,0.5-1.1,0.5
			h-18.2v4.8h15.6c0.4,0,0.8,0.2,1.1,0.5c0.3,0.4,0.5,0.8,0.5,1.3v8.7c0,0.5-0.2,1-0.5,1.3c-0.3,0.4-0.7,0.5-1.1,0.5l-15.6,0.1v5.1
			h19.7c0.5,0,0.9,0.2,1.2,0.5c0.3,0.4,0.5,0.8,0.5,1.3v8.8c0,0.5-0.1,0.9-0.5,1.3c-0.3,0.4-0.7,0.5-1.2,0.5H1425.4z"/>
		<path class="st12" d="M1463.9,452c-0.4,0-0.7-0.2-1-0.5c-0.3-0.4-0.4-0.8-0.4-1.3v-43.7c0-0.5,0.1-0.9,0.4-1.3
			c0.3-0.4,0.6-0.5,1-0.5h10.1c0.4,0,0.7,0.2,1,0.5c0.3,0.4,0.4,0.8,0.4,1.3v43.7c0,0.5-0.1,0.9-0.4,1.3c-0.3,0.4-0.6,0.5-1,0.5
			H1463.9z"/>
		<path class="st12" d="M1492.8,415.5L1492.8,415.5v9h6.5c2.6,0,4.7-0.3,6-1c1.4-0.7,2.1-1.9,2.1-3.7c0-1.5-0.5-2.6-1.6-3.3
			c-1-0.7-2.6-1-4.6-1H1492.8z M1493.1,435.3v14.9c0,0.5-0.2,0.9-0.5,1.3c-0.3,0.4-0.7,0.5-1.2,0.5h-12.1c-0.4,0-0.8-0.2-1.1-0.5
			c-0.3-0.4-0.5-0.8-0.5-1.3v-43.7c0-0.5,0.2-0.9,0.5-1.3c0.3-0.4,0.7-0.5,1.1-0.5h27.3c4.7,0,8.4,1.1,11.2,3.4
			c3,2.5,4.6,5.8,4.6,9.8c0,4.6-1.2,7.9-3.7,10c-0.6,0.5-1.3,1-2.1,1.5c-0.8,0.5-1.7,0.9-2.7,1.2c1.2,0.7,2.1,1.4,3,2.2
			c0.8,0.8,1.5,1.6,2,2.4l7.4,13.9c0.4,0.7,0.4,1.3,0.1,1.9c-0.3,0.6-0.8,0.9-1.5,0.9h-13.8c-0.3,0-0.6-0.1-0.8-0.3
			c-0.3-0.2-0.5-0.4-0.6-0.7l-6.9-14.4l0.1,0.1c-0.1-0.2-0.3-0.4-0.5-0.6c-0.2-0.2-0.3-0.4-0.5-0.5c-0.3-0.2-1.4-0.4-3.4-0.4H1493.1
			z"/>
		<path class="st12" d="M1556.5,420.5L1556.5,420.5c-1.8-1.8-4.4-2.6-7.8-2.6c-3.4,0-6,0.9-7.8,2.6c-1.8,1.7-2.7,4.4-2.7,7.8
			c0,3.5,0.9,6.1,2.7,7.8c1.8,1.7,4.4,2.6,7.8,2.6c3.4,0,6-0.9,7.8-2.6c1.8-1.8,2.7-4.4,2.7-7.8
			C1559.1,424.9,1558.3,422.2,1556.5,420.5 M1567.7,446.7c-4.3,4-10.7,6-19.1,6c-8.4,0-14.7-2-19-6c-4.3-4-6.5-10.1-6.5-18.4
			c0-8.2,2.1-14.4,6.5-18.4c4.3-4,10.7-6.1,19-6.1c8.4,0,14.7,2,19.1,6.1c4.3,4,6.5,10.2,6.5,18.4
			C1574.2,436.6,1572,442.7,1567.7,446.7"/>
		<path class="st13" d="M1052.1,379.4c0-8.5,4-12.2,11.2-12.2c4.3,0,6.9,1.4,8.6,3.3l-3.2,3.6c-1.1-1.1-2.5-2.2-5.4-2.2
			c-4.6,0-6.4,2.6-6.4,7.5c0,5.2,1.3,7.7,6.4,7.7c4.1,0,5.3-1.5,5.3-4.8v-0.5h-5.9v-4.3h10.6v3.9c0,6.7-2.4,10.2-10.2,10.2
			C1054.5,391.6,1052.1,387.2,1052.1,379.4"/>
		<path class="st13" d="M1103.8,379.5L1103.8,379.5c0-4.6-1.6-7.5-6.5-7.5c-4.9,0-6.5,2.9-6.5,7.5c0,4.6,1.6,7.5,6.5,7.5
			C1102.2,387,1103.8,384.1,1103.8,379.5 M1086.1,379.4c0-8.8,4.5-12.2,11.2-12.2c6.8,0,11.3,3.3,11.3,12.2
			c0,8.9-4.5,12.2-11.3,12.2C1090.6,391.6,1086.1,388.3,1086.1,379.4"/>
		<polygon class="st13" points="1120.3,367.6 1125.3,367.6 1131.2,384.9 1137.1,367.6 1141.9,367.6 1133.5,391.4 1128.7,391.4 		"/>
		<polygon class="st13" points="1155.7,367.6 1171.6,367.6 1171.6,372.3 1160.4,372.3 1160.4,376.9 1171.3,376.9 1171.3,381.5 
			1160.4,381.5 1160.4,386.7 1171.7,386.7 1171.7,391.2 1155.7,391.2 		"/>
		<path class="st13" d="M1196.7,378.9L1196.7,378.9c2.6,0,3.7-0.7,3.7-3.4c0-2.7-1.1-3.4-3.8-3.4h-5.5v6.8H1196.7z M1195.9,383.4
			h-4.8v7.8h-4.6v-23.6h10.3c6.7,0,8.3,3.2,8.3,7.7c0,3.2-0.9,6.2-4.5,7.5l4.2,8.4h-5L1195.9,383.4z"/>
		<polygon class="st13" points="1219.9,367.6 1225,367.6 1234.7,382.5 1234.7,367.6 1239.2,367.6 1239.2,391.2 1234.9,391.2 
			1224.4,375.3 1224.4,391.2 1219.9,391.2 		"/>
		<path class="st13" d="M1271.3,379.5L1271.3,379.5c0-4.6-1.6-7.5-6.5-7.5c-4.9,0-6.5,2.9-6.5,7.5c0,4.6,1.6,7.5,6.5,7.5
			C1269.6,387,1271.3,384.1,1271.3,379.5 M1253.5,379.4c0-8.8,4.5-12.2,11.2-12.2c6.8,0,11.3,3.3,11.3,12.2
			c0,8.9-4.5,12.2-11.3,12.2C1258,391.6,1253.5,388.3,1253.5,379.4"/>
		<path class="st13" d="M1315.5,386.7L1315.5,386.7c5.8,0,7-1.9,7-7.3c0-5.3-1-7.1-7-7.1h-3v14.4H1315.5z M1307.7,367.6h7.6
			c8.4,0,11.8,2.4,11.8,11.8c0,9.2-3.6,11.8-11.9,11.8h-7.5V367.6z"/>
		<path class="st13" d="M1358,379.5L1358,379.5c0-4.6-1.6-7.5-6.5-7.5c-4.9,0-6.5,2.9-6.5,7.5c0,4.6,1.6,7.5,6.5,7.5
			C1356.4,387,1358,384.1,1358,379.5 M1340.3,379.4c0-8.8,4.5-12.2,11.2-12.2c6.8,0,11.3,3.3,11.3,12.2c0,8.9-4.5,12.2-11.3,12.2
			C1344.8,391.6,1340.3,388.3,1340.3,379.4"/>
		<polygon class="st13" points="1394.5,367.6 1410.4,367.6 1410.4,372.3 1399.2,372.3 1399.2,376.9 1410.1,376.9 1410.1,381.5 
			1399.2,381.5 1399.2,386.7 1410.5,386.7 1410.5,391.2 1394.5,391.2 		"/>
		<path class="st13" d="M1423.5,388.5l2.3-3.8c2.3,1.7,4.9,2.5,7.6,2.5c4.2,0,4.9-0.9,4.9-2.9c0-1.9-1.8-2.3-5-2.8
			c-5.7-0.9-8.6-2-8.6-7.2c0-5.3,2.9-7.1,8.8-7.1c4.3,0,7,1.1,8.6,2.3l-2.5,4c-1.3-1-3.8-1.8-6.1-1.8c-3.3,0-4.1,0.7-4.1,2.4
			c0,1.9,1.8,2.3,5.1,2.8c5.1,0.8,8.5,1.7,8.5,7.1c0,4.8-2.3,7.4-9.4,7.4C1429.4,391.6,1425.9,390.4,1423.5,388.5"/>
		<polygon class="st13" points="1462.2,372.3 1454.8,372.3 1454.8,367.6 1474.3,367.6 1474.3,372.3 1466.9,372.3 1466.9,391.2 
			1462.2,391.2 		"/>
		<path class="st13" d="M1497.4,383L1497.4,383l-3.3-9.4l-3.3,9.4H1497.4z M1491.9,367.5h4.8l8.6,23.7h-4.9l-1.4-3.9h-9.6l-1.4,3.9
			h-4.6L1491.9,367.5z"/>
		<path class="st13" d="M1526.7,386.7L1526.7,386.7c5.8,0,7-1.9,7-7.3c0-5.3-1-7.1-7.1-7.1h-3v14.4H1526.7z M1518.9,367.6h7.6
			c8.4,0,11.8,2.4,11.8,11.8c0,9.2-3.6,11.8-11.9,11.8h-7.5V367.6z"/>
		<path class="st13" d="M1569.2,379.5L1569.2,379.5c0-4.6-1.6-7.5-6.5-7.5c-4.9,0-6.5,2.9-6.5,7.5c0,4.6,1.6,7.5,6.5,7.5
			C1567.6,387,1569.2,384.1,1569.2,379.5 M1551.5,379.4c0-8.8,4.5-12.2,11.2-12.2c6.8,0,11.3,3.3,11.3,12.2
			c0,8.9-4.5,12.2-11.3,12.2C1556,391.6,1551.5,388.3,1551.5,379.4"/>
	</g>
	<g>
		<path class="st13" d="M1230.5,83.8c-1.7,0-3.3-0.2-4.8-0.6s-2.9-1-4.1-1.9l1.4-2.2c1.2,0.8,2.4,1.3,3.7,1.7
			c1.2,0.3,2.5,0.5,3.7,0.5c2.1,0,3.6-0.3,4.5-0.9c0.9-0.6,1.3-1.5,1.3-2.7c0-0.7-0.1-1.2-0.4-1.6c-0.3-0.4-0.7-0.7-1.2-1
			s-1.1-0.5-1.8-0.6c-0.7-0.1-1.5-0.3-2.4-0.4c-1.2-0.2-2.3-0.4-3.2-0.7c-0.9-0.2-1.8-0.6-2.4-1c-0.7-0.4-1.2-1-1.5-1.6
			s-0.5-1.5-0.5-2.6c0-2.1,0.6-3.6,1.9-4.4c1.3-0.9,3.2-1.3,5.8-1.3c1.7,0,3.2,0.2,4.4,0.5c1.2,0.4,2.2,0.8,3.1,1.4l-1.5,2.3
			c-0.7-0.5-1.6-0.9-2.6-1.2c-1.1-0.3-2.2-0.4-3.3-0.4c-1.8,0-3.1,0.2-3.8,0.7c-0.8,0.5-1.1,1.3-1.1,2.4c0,0.6,0.1,1.1,0.4,1.4
			c0.3,0.4,0.6,0.7,1.1,0.9c0.5,0.2,1.1,0.4,1.8,0.6c0.7,0.2,1.5,0.3,2.4,0.5c1.2,0.2,2.2,0.4,3.2,0.6c1,0.2,1.8,0.6,2.5,1
			c0.7,0.4,1.2,1,1.6,1.7c0.4,0.7,0.6,1.6,0.6,2.7c0,2.1-0.7,3.6-2,4.7S1233.5,83.8,1230.5,83.8z"/>
		<path class="st13" d="M1249.4,83.8c-1.6,0-2.9-0.2-3.9-0.6c-1-0.4-1.8-1-2.3-1.7c-0.6-0.7-0.9-1.6-1.1-2.6c-0.2-1-0.3-2-0.3-3.2
			s0.1-2.2,0.3-3.2c0.2-1,0.6-1.8,1.1-2.6c0.6-0.7,1.3-1.3,2.3-1.7c1-0.4,2.2-0.6,3.8-0.6c1.6,0,2.8,0.3,3.7,0.8
			c0.9,0.5,1.5,1.2,2,2s0.7,1.8,0.8,2.9c0.1,1.1,0.1,2.2,0.1,3.4h-11.5c0,0.7,0.1,1.3,0.3,1.9c0.2,0.6,0.4,1.1,0.8,1.5
			c0.4,0.4,0.9,0.7,1.5,0.9c0.6,0.2,1.4,0.3,2.4,0.3c0.6,0,1.2,0,1.7-0.1c0.5-0.1,0.9-0.2,1.3-0.3c0.4-0.1,0.7-0.3,1.1-0.5
			c0.3-0.2,0.6-0.4,0.9-0.6l1.5,1.9c-0.8,0.7-1.7,1.1-2.7,1.5C1252.1,83.7,1250.9,83.8,1249.4,83.8z M1249.2,70.1
			c-0.9,0-1.6,0.1-2.2,0.3s-1.1,0.5-1.4,0.9c-0.4,0.4-0.6,0.8-0.8,1.4c-0.2,0.5-0.3,1.1-0.3,1.8h8.9c0-0.6-0.1-1.2-0.2-1.7
			c-0.1-0.5-0.3-1-0.5-1.4s-0.7-0.7-1.2-0.9S1250.2,70.1,1249.2,70.1z"/>
		<path class="st13" d="M1266.1,83.8c-1.5,0-2.7-0.2-3.7-0.6c-1-0.4-1.7-0.9-2.3-1.6c-0.6-0.7-1-1.6-1.2-2.6c-0.2-1-0.3-2.1-0.3-3.3
			c0-1.2,0.1-2.3,0.3-3.3c0.2-1,0.6-1.8,1.2-2.6c0.6-0.7,1.4-1.3,2.3-1.7c1-0.4,2.2-0.6,3.8-0.6c1.4,0,2.6,0.2,3.5,0.6
			c0.9,0.4,1.7,1,2.3,1.6l-2,1.9c-0.4-0.4-0.8-0.7-1.4-1.1c-0.6-0.3-1.4-0.5-2.4-0.5c-0.9,0-1.7,0.1-2.4,0.4
			c-0.6,0.3-1.1,0.6-1.5,1.1s-0.6,1.1-0.8,1.7c-0.2,0.7-0.2,1.5-0.2,2.3c0,0.9,0.1,1.6,0.2,2.3c0.1,0.7,0.4,1.3,0.8,1.8
			c0.4,0.5,0.9,0.8,1.5,1.1c0.6,0.3,1.4,0.4,2.4,0.4c0.8,0,1.6-0.1,2.1-0.4c0.6-0.3,1.2-0.7,1.8-1.2l1.8,1.7c-0.4,0.4-0.8,0.7-1.2,1
			s-0.8,0.5-1.3,0.7c-0.5,0.2-1,0.3-1.5,0.4C1267.4,83.8,1266.8,83.8,1266.1,83.8z"/>
		<path class="st13" d="M1275.1,68.2l2.1-0.1l0.3,1.9c0.3-0.6,0.9-1,1.8-1.4c0.9-0.4,2-0.6,3.4-0.7v2.7c-0.9,0-1.7,0.1-2.3,0.4
			c-0.6,0.2-1.1,0.6-1.5,1c-0.4,0.4-0.7,0.9-0.8,1.5c-0.2,0.6-0.3,1.2-0.3,1.9v8.2h-2.7V68.2z"/>
		<path class="st13" d="M1292.3,83.8c-1.6,0-2.9-0.2-3.9-0.6c-1-0.4-1.8-1-2.3-1.7c-0.6-0.7-0.9-1.6-1.1-2.6c-0.2-1-0.3-2-0.3-3.2
			s0.1-2.2,0.3-3.2c0.2-1,0.6-1.8,1.1-2.6c0.6-0.7,1.3-1.3,2.3-1.7c1-0.4,2.2-0.6,3.8-0.6c1.6,0,2.8,0.3,3.7,0.8
			c0.9,0.5,1.5,1.2,2,2s0.7,1.8,0.8,2.9c0.1,1.1,0.1,2.2,0.1,3.4h-11.5c0,0.7,0.1,1.3,0.3,1.9c0.2,0.6,0.4,1.1,0.8,1.5
			c0.4,0.4,0.9,0.7,1.5,0.9c0.6,0.2,1.4,0.3,2.4,0.3c0.6,0,1.2,0,1.7-0.1c0.5-0.1,0.9-0.2,1.3-0.3c0.4-0.1,0.7-0.3,1.1-0.5
			c0.3-0.2,0.6-0.4,0.9-0.6l1.5,1.9c-0.8,0.7-1.7,1.1-2.7,1.5C1295,83.7,1293.8,83.8,1292.3,83.8z M1292.2,70.1
			c-0.9,0-1.6,0.1-2.2,0.3s-1.1,0.5-1.4,0.9c-0.4,0.4-0.6,0.8-0.8,1.4c-0.2,0.5-0.3,1.1-0.3,1.8h8.9c0-0.6-0.1-1.2-0.2-1.7
			c-0.1-0.5-0.3-1-0.5-1.4s-0.7-0.7-1.2-0.9S1293.1,70.1,1292.2,70.1z"/>
		<path class="st13" d="M1301,68h2.8l0.5-4.4l2.2-0.4V68h4.1v2.5h-4.1v8.5c0,0.3,0,0.6,0.1,0.9c0,0.3,0.1,0.5,0.3,0.7
			c0.1,0.2,0.4,0.3,0.7,0.4c0.3,0.1,0.7,0.2,1.2,0.2h1.9v2.4c-0.1,0-0.2,0-0.4,0c-0.2,0-0.5,0-0.7,0c-0.2,0-0.5,0-0.7,0
			c-0.2,0-0.4,0-0.5,0c-0.9,0-1.7-0.1-2.3-0.3c-0.6-0.2-1-0.4-1.4-0.8c-0.3-0.4-0.6-0.8-0.7-1.3c-0.1-0.5-0.2-1.2-0.2-1.9v-8.8h-2.7
			V68z"/>
		<path class="st13" d="M1318.5,83.8c-1.1,0-2-0.1-2.7-0.4c-0.7-0.2-1.3-0.6-1.7-1c-0.4-0.4-0.7-0.9-0.9-1.5
			c-0.2-0.6-0.2-1.2-0.2-1.8c0-1.1,0.2-2,0.5-2.7c0.3-0.7,0.9-1.3,1.7-1.8c0.8-0.4,1.8-0.7,3.2-0.9s2.9-0.3,4.9-0.3h0.8
			c0-0.6-0.1-1-0.2-1.5c-0.1-0.4-0.3-0.7-0.6-1s-0.7-0.5-1.2-0.6c-0.5-0.1-1.2-0.2-2-0.2c-1,0-1.9,0.1-2.7,0.4
			c-0.8,0.3-1.4,0.6-1.9,0.9l-1.4-2.1c0.3-0.2,0.6-0.4,1-0.6c0.4-0.2,0.9-0.4,1.5-0.6c0.5-0.2,1.1-0.3,1.8-0.4
			c0.6-0.1,1.3-0.2,2-0.2c1.3,0,2.4,0.1,3.2,0.3c0.8,0.2,1.5,0.6,1.9,1.1c0.4,0.5,0.7,1.1,0.9,1.9c0.2,0.8,0.2,1.7,0.2,2.8v5.5
			c0,0.4,0,0.7,0,0.9c0,0.2,0.1,0.4,0.2,0.5c0.1,0.1,0.3,0.2,0.5,0.2c0.2,0,0.5,0.1,0.8,0.1v2.4c-0.1,0-0.2,0.1-0.4,0.1
			c-0.2,0-0.4,0-0.7,0c-0.9,0-1.5-0.1-1.8-0.4c-0.4-0.3-0.6-0.7-0.8-1.4c-0.5,0.7-1.1,1.1-2.1,1.5
			C1321.5,83.6,1320.2,83.8,1318.5,83.8z M1319,81.5c1.8,0,3.1-0.4,3.9-1.1c0.8-0.8,1.2-2,1.2-3.6v-0.9h-0.7c-1.6,0-2.9,0.1-3.9,0.2
			c-1,0.1-1.8,0.3-2.4,0.5c-0.6,0.2-1,0.6-1.2,1c-0.2,0.4-0.3,0.9-0.3,1.5c0,0.8,0.2,1.4,0.7,1.9C1316.7,81.3,1317.6,81.5,1319,81.5
			z"/>
		<path class="st13" d="M1331.4,68.2l2.1-0.1l0.3,1.9c0.3-0.6,0.9-1,1.8-1.4c0.9-0.4,2-0.6,3.4-0.7v2.7c-0.9,0-1.7,0.1-2.3,0.4
			c-0.6,0.2-1.1,0.6-1.5,1c-0.4,0.4-0.7,0.9-0.8,1.5c-0.2,0.6-0.3,1.2-0.3,1.9v8.2h-2.7V68.2z"/>
		<path class="st13" d="M1341.9,62.9h2.7v3.3h-2.7V62.9z M1341.9,68h2.7v15.5h-2.7V68z"/>
		<path class="st13" d="M1353.4,83.8c-1.1,0-2-0.1-2.7-0.4c-0.7-0.2-1.3-0.6-1.7-1c-0.4-0.4-0.7-0.9-0.9-1.5
			c-0.2-0.6-0.2-1.2-0.2-1.8c0-1.1,0.2-2,0.5-2.7c0.3-0.7,0.9-1.3,1.7-1.8c0.8-0.4,1.8-0.7,3.2-0.9s2.9-0.3,4.9-0.3h0.8
			c0-0.6-0.1-1-0.2-1.5c-0.1-0.4-0.3-0.7-0.6-1s-0.7-0.5-1.2-0.6c-0.5-0.1-1.2-0.2-2-0.2c-1,0-1.9,0.1-2.7,0.4
			c-0.8,0.3-1.4,0.6-1.9,0.9l-1.4-2.1c0.3-0.2,0.6-0.4,1-0.6c0.4-0.2,0.9-0.4,1.5-0.6c0.5-0.2,1.1-0.3,1.8-0.4
			c0.6-0.1,1.3-0.2,2-0.2c1.3,0,2.4,0.1,3.2,0.3c0.8,0.2,1.5,0.6,1.9,1.1c0.4,0.5,0.7,1.1,0.9,1.9c0.2,0.8,0.2,1.7,0.2,2.8v5.5
			c0,0.4,0,0.7,0,0.9c0,0.2,0.1,0.4,0.2,0.5c0.1,0.1,0.3,0.2,0.5,0.2c0.2,0,0.5,0.1,0.8,0.1v2.4c-0.1,0-0.2,0.1-0.4,0.1
			c-0.2,0-0.4,0-0.7,0c-0.9,0-1.5-0.1-1.8-0.4c-0.4-0.3-0.6-0.7-0.8-1.4c-0.5,0.7-1.1,1.1-2.1,1.5
			C1356.3,83.6,1355.1,83.8,1353.4,83.8z M1353.8,81.5c1.8,0,3.1-0.4,3.9-1.1c0.8-0.8,1.2-2,1.2-3.6v-0.9h-0.7
			c-1.6,0-2.9,0.1-3.9,0.2c-1,0.1-1.8,0.3-2.4,0.5c-0.6,0.2-1,0.6-1.2,1c-0.2,0.4-0.3,0.9-0.3,1.5c0,0.8,0.2,1.4,0.7,1.9
			C1351.6,81.3,1352.5,81.5,1353.8,81.5z"/>
		<path class="st13" d="M1378.6,83.8c-1.3,0-2.4-0.2-3.2-0.6s-1.5-1-2.1-1.7c-0.5-0.7-0.9-1.6-1.1-2.6c-0.2-1-0.3-2.1-0.3-3.3
			c0-1.2,0.1-2.2,0.3-3.2s0.6-1.8,1.1-2.5c0.5-0.7,1.2-1.3,2.1-1.6s2-0.6,3.3-0.6c1.6,0,2.9,0.2,3.7,0.5c0.8,0.3,1.5,0.8,1.8,1.4
			v-7.7h2.7v21.5l-2.1,0.2l-0.3-1.8c-0.5,0.7-1.2,1.2-2.1,1.5C1381.5,83.7,1380.2,83.8,1378.6,83.8z M1379.1,81.3
			c0.9,0,1.7-0.1,2.3-0.3c0.6-0.2,1.2-0.5,1.6-1c0.4-0.4,0.7-1,0.9-1.7c0.2-0.7,0.3-1.6,0.3-2.6c0-1-0.1-1.9-0.3-2.6
			c-0.2-0.7-0.5-1.3-0.9-1.7c-0.4-0.4-0.9-0.7-1.6-0.9c-0.6-0.2-1.4-0.3-2.4-0.3c-0.9,0-1.6,0.1-2.2,0.4c-0.6,0.3-1,0.6-1.4,1.1
			c-0.3,0.5-0.6,1.1-0.7,1.7s-0.2,1.4-0.2,2.3c0,0.9,0.1,1.6,0.2,2.3c0.1,0.7,0.4,1.3,0.7,1.8c0.3,0.5,0.8,0.9,1.4,1.1
			C1377.5,81.2,1378.3,81.3,1379.1,81.3z"/>
		<path class="st13" d="M1397.8,83.8c-1.6,0-2.9-0.2-3.9-0.6c-1-0.4-1.8-1-2.3-1.7c-0.6-0.7-0.9-1.6-1.1-2.6c-0.2-1-0.3-2-0.3-3.2
			s0.1-2.2,0.3-3.2c0.2-1,0.6-1.8,1.1-2.6c0.6-0.7,1.3-1.3,2.3-1.7c1-0.4,2.2-0.6,3.8-0.6c1.6,0,2.8,0.3,3.7,0.8
			c0.9,0.5,1.5,1.2,2,2s0.7,1.8,0.8,2.9c0.1,1.1,0.1,2.2,0.1,3.4h-11.5c0,0.7,0.1,1.3,0.3,1.9c0.2,0.6,0.4,1.1,0.8,1.5
			c0.4,0.4,0.9,0.7,1.5,0.9c0.6,0.2,1.4,0.3,2.4,0.3c0.6,0,1.2,0,1.7-0.1c0.5-0.1,0.9-0.2,1.3-0.3c0.4-0.1,0.7-0.3,1.1-0.5
			c0.3-0.2,0.6-0.4,0.9-0.6l1.5,1.9c-0.8,0.7-1.7,1.1-2.7,1.5C1400.5,83.7,1399.3,83.8,1397.8,83.8z M1397.7,70.1
			c-0.9,0-1.6,0.1-2.2,0.3s-1.1,0.5-1.4,0.9c-0.4,0.4-0.6,0.8-0.8,1.4c-0.2,0.5-0.3,1.1-0.3,1.8h8.9c0-0.6-0.1-1.2-0.2-1.7
			c-0.1-0.5-0.3-1-0.5-1.4s-0.7-0.7-1.2-0.9S1398.6,70.1,1397.7,70.1z"/>
		<path class="st13" d="M1177.2,112.7l2.3-3.3c2.2,1.5,4.8,2.2,7.4,2.2c4,0,4.8-0.8,4.8-2.5c0-1.7-1.7-2-4.9-2.5
			c-5.5-0.8-8.4-1.8-8.4-6.3c0-4.6,2.8-6.2,8.6-6.2c4.2,0,6.8,1,8.4,2l-2.5,3.5c-1.3-0.9-3.7-1.6-6-1.6c-3.2,0-4,0.6-4,2.1
			c0,1.7,1.7,2,5,2.5c5,0.7,8.3,1.5,8.3,6.2c0,4.2-2.3,6.5-9.2,6.5C1183,115.4,1179.6,114.4,1177.2,112.7z"/>
		<path class="st13" d="M1198.2,107.1c0-4.4,1.5-8.2,8.2-8.2c6.9,0,7.2,4.6,7,9.9h-11c0.3,1.9,1.2,3,4,3c2.4,0,3.8-0.6,5-1.5
			l2.2,2.8c-2,1.5-4,2.1-7.2,2.1C1199.6,115.4,1198.2,111.6,1198.2,107.1z M1202.5,105.7h7c-0.1-1.8-0.5-3.1-3.2-3.1
			C1203.6,102.6,1202.7,103.8,1202.5,105.7z"/>
		<path class="st13" d="M1221.2,109.2c-0.1,0.2-0.1,0.4-0.1,0.6c0,0.8,0.5,0.9,2.6,0.9c6.5,0,8.2,1,8.2,4.3c0,3.8-2.8,5.1-8.6,5.1
			c-6,0-8.2-0.7-8.2-3.8c0-1.8,0.9-3.1,3.1-3.5c-0.8-0.6-0.9-1.4-0.9-2.2c0-0.9,0.3-1.6,0.8-2.2c-1.4-0.8-2-2.1-2-4
			c0-3.5,2.1-5.4,7.4-5.4c0.3,0,0.6,0,0.9,0l7-1.4v3.3h-2.3c1.1,0.6,1.8,1.6,1.8,3.4c0,3.5-2.2,5-7.4,5
			C1222.5,109.3,1221.8,109.2,1221.2,109.2z M1227.3,115.2c0-1.1-0.9-1.5-4-1.5c-3.5,0-4,0.6-4,1.6c0,1.1,0.8,1.6,4,1.6
			C1226.6,117,1227.3,116.4,1227.3,115.2z M1226.4,104.3c0-1.4-0.8-2-3.1-2c-2.4,0-3.1,0.7-3.1,2c0,1.3,0.7,2,3.1,2
			C1225.7,106.4,1226.4,105.7,1226.4,104.3z"/>
		<path class="st13" d="M1234.4,107.7v-8.4h4.4v8.5c0,2.2,0.1,3.7,3.2,3.7c3.1,0,3.2-1.6,3.2-3.8v-8.5h4.3v8.4
			c0,5.4-1.5,7.6-7.5,7.6C1235.9,115.3,1234.4,113.1,1234.4,107.7z"/>
		<path class="st13" d="M1252.8,99.5l3.4-0.3l0.4,1.7c0.7-1,2.6-1.8,5-1.9v4.2c-3.7,0-4.5,1.5-4.5,4v7.8h-4.4V99.5z"/>
		<path class="st13" d="M1263,110.4c0-4.5,3.1-5.5,10.1-5.5h0.6c0-1.4-0.4-2.1-3.1-2.1c-1.9,0-3.6,0.7-4.6,1.3l-2.2-3.2
			c1.1-0.8,3.9-1.9,7.2-1.9c5.7,0,6.9,1.8,6.9,6.3v4.8c0,1.3,0.1,1.5,1.4,1.5v3.6c-0.3,0.1-0.9,0.1-1.8,0.1c-1.7,0-2.4-0.3-3-1.6
			c-0.8,1.1-2.6,1.8-5.6,1.8C1264,115.3,1263,113.2,1263,110.4z M1273.8,108.5v-0.6h-0.4c-5.6,0-6.2,0.4-6.2,2.1
			c0,1.2,0.6,1.7,2.6,1.7C1272.6,111.8,1273.8,110.8,1273.8,108.5z"/>
		<path class="st13" d="M1282,99.5l3.4-0.3l0.4,1.4c0.8-0.9,2.4-1.7,5.7-1.7c4.8,0,5.7,2.6,5.7,6.6v9.6h-4.4v-8.7
			c0-1.9-0.2-3.3-2.9-3.3c-3,0-3.5,1.4-3.5,3.5v8.5h-4.4V99.5z"/>
		<path class="st13" d="M1303.2,121.1l1.1-2c0.8,0.4,1.7,0.7,2.5,0.7c1.3,0,1.8-0.3,1.8-1.1c0-1-1-1.1-2.5-1l-0.8-0.5l0.4-1.9
			c-4.7-0.7-5.9-3.9-5.9-8c0-4.6,1.5-8.2,8.3-8.2c2.8,0,5,0.9,6.4,2.6l-3.1,2.9c-0.7-0.7-1.6-1.5-3.3-1.5c-3.1,0-3.9,1.7-3.9,4.3
			s0.7,4.4,3.9,4.4c1.5,0,2.5-0.5,3.6-1.5l2.8,2.7c-1.8,1.7-3.3,2.5-6.3,2.5l-0.2,0.9c1.7-0.1,3.5,0.1,3.5,2.6
			c0,2.4-1.8,3.1-4.5,3.1C1305.4,122,1304.2,121.6,1303.2,121.1z"/>
		<path class="st13" d="M1315.9,110.4c0-4.5,3.1-5.5,10.1-5.5h0.6c0-1.4-0.4-2.1-3.1-2.1c-1.9,0-3.6,0.7-4.6,1.3l-2.2-3.2
			c1.1-0.8,3.9-1.9,7.2-1.9c5.7,0,6.9,1.8,6.9,6.3v4.8c0,1.3,0.1,1.5,1.4,1.5v3.6c-0.3,0.1-0.9,0.1-1.8,0.1c-1.7,0-2.4-0.3-3-1.6
			c-0.8,1.1-2.6,1.8-5.6,1.8C1316.9,115.3,1315.9,113.2,1315.9,110.4z M1326.6,108.5v-0.6h-0.4c-5.6,0-6.2,0.4-6.2,2.1
			c0,1.2,0.6,1.7,2.6,1.7C1325.4,111.8,1326.6,110.8,1326.6,108.5z"/>
		<path class="st13" d="M1341.2,94.4h9.9c6.4,0,8.3,2.7,8.3,6.9s-1.8,7.4-8.5,7.4h-5.2v6.3h-4.5V94.4z M1351.1,104.8
			c2.6,0,3.7-0.9,3.7-3.3c0-2.5-1.1-3.2-3.8-3.2h-5.4v6.5H1351.1z"/>
		<path class="st13" d="M1362,107.7v-8.4h4.4v8.5c0,2.2,0.1,3.7,3.2,3.7c3.1,0,3.2-1.6,3.2-3.8v-8.5h4.3v8.4c0,5.4-1.5,7.6-7.5,7.6
			C1363.5,115.3,1362,113.1,1362,107.7z M1370.6,92.7h5.3l-5.3,5.1h-3.9L1370.6,92.7z"/>
		<path class="st13" d="M1384.2,113.7l-0.9,1.5l-2.9-0.3V93.4h4.4v7c0.9-1,2.5-1.5,5.2-1.5c5.4,0,6.8,3.7,6.8,8.2
			c0,4.5-1.5,8.2-7,8.2C1386.7,115.3,1385,114.7,1384.2,113.7z M1392.3,107.3c0-2.5-0.6-4.4-3.4-4.4c-3,0-4,1.4-4,4.4
			c0,3,0.9,4.3,4,4.3C1391.6,111.6,1392.3,109.8,1392.3,107.3z"/>
		<path class="st13" d="M1399.6,110.3V93.4h4.4v16.3c0,1.3,0.3,1.6,1.6,1.6c0.1,0,0.4,0,0.5,0v3.6c-0.4,0.1-1.2,0.1-2.1,0.1
			C1401,115.1,1399.6,114,1399.6,110.3z"/>
		<path class="st13" d="M1409.1,93.8h4.4v4h-4.4V93.8z M1409.1,99.3h4.4v15.8h-4.4V99.3z"/>
		<path class="st13" d="M1416.3,107.1c0-4.6,1.5-8.2,8.3-8.2c2.8,0,5,0.9,6.4,2.6l-3.1,2.9c-0.7-0.7-1.6-1.5-3.3-1.5
			c-3.1,0-3.9,1.7-3.9,4.3s0.7,4.4,3.9,4.4c1.5,0,2.5-0.5,3.6-1.5l2.8,2.7c-1.8,1.7-3.4,2.5-6.6,2.5
			C1417.9,115.3,1416.3,111.8,1416.3,107.1z"/>
		<path class="st13" d="M1432.4,110.4c0-4.5,3.1-5.5,10.1-5.5h0.6c0-1.4-0.4-2.1-3.1-2.1c-1.9,0-3.6,0.7-4.6,1.3l-2.2-3.2
			c1.1-0.8,3.9-1.9,7.2-1.9c5.7,0,6.9,1.8,6.9,6.3v4.8c0,1.3,0.1,1.5,1.4,1.5v3.6c-0.3,0.1-0.9,0.1-1.8,0.1c-1.7,0-2.4-0.3-3-1.6
			c-0.8,1.1-2.6,1.8-5.6,1.8C1433.5,115.3,1432.4,113.2,1432.4,110.4z M1443.2,108.5v-0.6h-0.4c-5.6,0-6.2,0.4-6.2,2.1
			c0,1.2,0.6,1.7,2.6,1.7C1442,111.8,1443.2,110.8,1443.2,108.5z"/>
	</g>
</g>
</svg>
