<?xml version="1.0" encoding="utf-8"?>
<!-- Generator: Adobe Illustrator 28.3.0, SVG Export Plug-In . SVG Version: 6.00 Build 0)  -->
<svg version="1.1" id="Camada_1" xmlns="http://www.w3.org/2000/svg" xmlns:xlink="http://www.w3.org/1999/xlink" x="0px" y="0px"
	 viewBox="0 0 1869.2 377.4" style="enable-background:new 0 0 1869.2 377.4;" xml:space="preserve">
<style type="text/css">
	.st0{fill:#0066A5;}
	.st1{fill:#BC9D32;}
	.st2{fill:#8E8E8E;}
	.st3{fill:none;stroke:#EFB700;stroke-width:2;stroke-miterlimit:10;}
	.st4{fill:#FFFFFF;}
	.st5{fill:#FFFFFF;stroke:#FFFFFF;stroke-width:2;stroke-miterlimit:10;}
	.st6{fill-rule:evenodd;clip-rule:evenodd;fill:#FFFFFF;}
	.st7{fill-rule:evenodd;clip-rule:evenodd;}
	.st8{fill-rule:evenodd;clip-rule:evenodd;fill:#00508A;}
	.st9{fill-rule:evenodd;clip-rule:evenodd;fill:#44773B;}
	.st10{fill-rule:evenodd;clip-rule:evenodd;fill:#A7A6A6;}
	.st11{fill-rule:evenodd;clip-rule:evenodd;fill:#C19E15;}
	.st12{fill:#A7A6A6;}
	.st13{fill:#00508A;}
	.st14{fill:#1D1D1B;}
	.st15{display:none;}
	.st16{display:inline;}
	.st17{fill:#252020;}
	.st18{fill:#E52785;}
	.st19{stroke:#FFFFFF;stroke-width:2;stroke-miterlimit:10;}
</style>
<g>
	<g>
		<path class="st4" d="M213.2,290.3v-2.6h-8.7v2.6h2.4v9.6h-2.4v2.6h8.7v-2.6h-2.4v-9.6H213.2z M226.4,292c-0.7-0.7-1.6-1.1-2.9-1.1
			c-0.7,0-1.4,0.1-2,0.4c-0.6,0.3-1.2,0.6-1.8,1.1v-1.2h-3.6v11.3h3.6v-8c0.4-0.2,0.8-0.4,1.1-0.5c0.3-0.1,0.7-0.2,1-0.2
			c0.5,0,0.8,0.1,1.1,0.2c0.3,0.1,0.4,0.3,0.6,0.5c0.1,0.2,0.2,0.5,0.2,1c0,0.4,0.1,0.9,0.1,1.4v5.6h3.6v-7.3
			C227.5,293.8,227.1,292.7,226.4,292z M239.9,297c-0.5-0.5-1.1-0.9-2.1-1.2c-0.4-0.1-0.9-0.2-1.3-0.3c-0.4-0.1-0.8-0.1-1.2-0.2
			c-0.7-0.1-1.1-0.3-1.3-0.4c-0.2-0.1-0.3-0.3-0.3-0.6c0-0.3,0.2-0.5,0.6-0.7c0.4-0.2,0.9-0.3,1.5-0.3c0.7,0,1.4,0.1,2.1,0.3
			c0.7,0.2,1.3,0.5,1.8,0.9h0.3v-2.8c-0.4-0.2-1-0.4-1.8-0.6c-0.8-0.2-1.6-0.2-2.4-0.2c-1.8,0-3.2,0.4-4.2,1.1
			c-1,0.7-1.5,1.6-1.5,2.7c0,0.8,0.2,1.6,0.7,2.1c0.5,0.6,1.3,1,2.3,1.2c0.4,0.1,0.8,0.2,1.2,0.3c0.5,0.1,0.8,0.1,1.1,0.2
			c0.6,0.1,0.9,0.2,1.2,0.4c0.2,0.1,0.3,0.3,0.3,0.6c0,0.3-0.2,0.5-0.5,0.7c-0.3,0.2-0.9,0.2-1.6,0.2c-0.5,0-1-0.1-1.5-0.2
			c-0.5-0.1-0.9-0.2-1.3-0.4c-0.4-0.2-0.8-0.3-1-0.5c-0.2-0.2-0.4-0.3-0.6-0.4H230v3c0.5,0.2,1.2,0.4,2,0.6c0.8,0.2,1.7,0.3,2.7,0.3
			c1.8,0,3.2-0.4,4.3-1.1c1-0.7,1.6-1.6,1.6-2.8C240.6,298.2,240.3,297.5,239.9,297z M250.2,293.7v-2.5h-3.4v-3.2h-3.6v3.2h-1.5v2.5
			h1.5v5.3c0,1.4,0.4,2.3,1,2.9c0.7,0.6,1.7,0.8,3.1,0.8c0.6,0,1.2,0,1.6-0.1c0.4-0.1,0.9-0.1,1.2-0.2V300h-0.3
			c-0.1,0.1-0.3,0.1-0.6,0.2c-0.3,0.1-0.5,0.1-0.7,0.1c-0.5,0-0.8-0.1-1-0.2c-0.2-0.1-0.4-0.3-0.5-0.5c-0.1-0.2-0.2-0.5-0.2-0.8
			c0-0.3,0-0.6,0-1v-4H250.2z M252.3,291.3v11.3h3.6v-11.3H252.3z M252.2,286.9v2.7h3.8v-2.7H252.2z M266.6,293.7v-2.5h-3.4v-3.2
			h-3.6v3.2h-1.5v2.5h1.5v5.3c0,1.4,0.3,2.3,1,2.9c0.7,0.6,1.7,0.8,3.1,0.8c0.6,0,1.2,0,1.6-0.1c0.4-0.1,0.8-0.1,1.2-0.2V300h-0.3
			c-0.1,0.1-0.3,0.1-0.6,0.2c-0.3,0.1-0.6,0.1-0.7,0.1c-0.4,0-0.8-0.1-1-0.2c-0.2-0.1-0.4-0.3-0.5-0.5c-0.1-0.2-0.2-0.5-0.2-0.8
			c0-0.3,0-0.6,0-1v-4H266.6z M276.3,291.3v8c-0.4,0.2-0.7,0.4-1.1,0.5c-0.4,0.1-0.7,0.2-1,0.2c-0.5,0-0.8-0.1-1.1-0.2
			c-0.3-0.1-0.5-0.3-0.6-0.5c-0.1-0.2-0.2-0.6-0.3-0.9c0-0.4,0-0.8,0-1.4v-5.6h-3.6v7.3c0,1.4,0.3,2.5,1,3.2
			c0.7,0.7,1.6,1.1,2.9,1.1c0.8,0,1.4-0.1,2-0.4c0.6-0.3,1.2-0.6,1.8-1.1v1.2h3.6v-11.3H276.3z M290.6,293.7v-2.5h-3.4v-3.2h-3.6
			v3.2h-1.5v2.5h1.5v5.3c0,1.4,0.3,2.3,1,2.9c0.7,0.6,1.7,0.8,3.1,0.8c0.6,0,1.2,0,1.6-0.1c0.4-0.1,0.8-0.1,1.2-0.2V300h-0.3
			c-0.1,0.1-0.3,0.1-0.6,0.2c-0.3,0.1-0.5,0.1-0.7,0.1c-0.5,0-0.8-0.1-1-0.2c-0.2-0.1-0.4-0.3-0.5-0.5c-0.1-0.2-0.2-0.5-0.2-0.8
			c0-0.3,0-0.6,0-1v-4H290.6z M302.6,292.5c-1.1-1.1-2.6-1.6-4.6-1.6c-1.9,0-3.4,0.5-4.5,1.6c-1.1,1.1-1.6,2.5-1.6,4.4
			c0,1.9,0.5,3.3,1.6,4.4c1.1,1.1,2.6,1.6,4.5,1.6c2,0,3.5-0.5,4.6-1.6c1.1-1.1,1.6-2.5,1.6-4.4
			C304.2,295.1,303.7,293.6,302.6,292.5z M300.3,298.6c-0.1,0.4-0.3,0.8-0.5,1c-0.2,0.3-0.5,0.4-0.8,0.6c-0.3,0.1-0.6,0.2-0.9,0.2
			c-0.4,0-0.7-0.1-1-0.2c-0.3-0.1-0.6-0.3-0.8-0.6c-0.2-0.3-0.4-0.6-0.5-1.1c-0.1-0.5-0.2-1-0.2-1.6c0-0.7,0.1-1.3,0.2-1.7
			c0.1-0.5,0.3-0.8,0.5-1.1c0.3-0.3,0.5-0.5,0.8-0.6c0.3-0.1,0.6-0.1,0.9-0.1c0.3,0,0.7,0.1,1,0.2c0.3,0.1,0.6,0.3,0.8,0.6
			c0.2,0.3,0.4,0.6,0.5,1.1c0.1,0.5,0.2,1,0.2,1.7C300.5,297.7,300.4,298.2,300.3,298.6z M321.2,286.9v4.8c-0.5-0.2-0.9-0.4-1.3-0.5
			c-0.4-0.2-1-0.2-1.7-0.2c-0.6,0-1.3,0.1-1.9,0.4c-0.6,0.3-1.2,0.7-1.7,1.2c-0.5,0.5-0.9,1.2-1.1,1.9c-0.3,0.7-0.4,1.6-0.4,2.5
			c0,1.8,0.4,3.2,1.2,4.3c0.8,1.1,1.9,1.6,3.3,1.6c0.7,0,1.3-0.1,1.9-0.4c0.5-0.2,1.1-0.6,1.7-1.1v1.2h3.6v-15.6H321.2z
			 M321.2,299.4c-0.3,0.2-0.6,0.4-1,0.5c-0.4,0.1-0.7,0.2-1,0.2c-0.8,0-1.4-0.2-1.8-0.7c-0.4-0.5-0.6-1.3-0.6-2.4
			c0-1,0.2-1.9,0.7-2.5c0.5-0.6,1.2-0.9,2.1-0.9c0.2,0,0.5,0,0.8,0.1c0.3,0.1,0.5,0.1,0.8,0.2V299.4z M339.3,296.3
			c0-1.7-0.5-3.1-1.4-4c-0.9-0.9-2.3-1.4-4.1-1.4c-2,0-3.6,0.5-4.7,1.6c-1.1,1.1-1.7,2.6-1.7,4.4c0,1.9,0.6,3.3,1.8,4.4
			c1.2,1,2.9,1.5,5.2,1.5c0.9,0,1.7-0.1,2.4-0.2c0.7-0.1,1.5-0.4,2.3-0.7V299h-0.4c-0.4,0.3-1,0.6-1.7,0.9c-0.7,0.3-1.4,0.4-2.2,0.4
			c-1.2,0-2.1-0.2-2.7-0.7c-0.6-0.5-0.9-1.1-1-2h8.3V296.3z M331,295.5c0.1-0.8,0.3-1.4,0.8-1.7c0.5-0.4,1-0.5,1.7-0.5
			c0.8,0,1.3,0.2,1.7,0.6c0.3,0.4,0.5,0.9,0.6,1.7H331z M216.3,320.3c-0.5-0.6-1.4-1.1-2.5-1.5c-0.6-0.2-1.1-0.3-1.6-0.4
			c-0.5-0.1-1-0.2-1.6-0.3c-0.8-0.2-1.4-0.4-1.7-0.6c-0.3-0.2-0.5-0.5-0.5-0.9c0-0.3,0.1-0.5,0.3-0.7c0.2-0.2,0.4-0.4,0.7-0.5
			c0.3-0.1,0.6-0.2,0.9-0.2c0.3,0,0.6-0.1,1-0.1c0.9,0,1.8,0.2,2.7,0.5c0.9,0.3,1.6,0.7,2.2,1.2h0.4v-3.4c-0.7-0.3-1.5-0.5-2.5-0.7
			c-1-0.2-1.9-0.3-2.9-0.3c-2,0-3.6,0.4-4.8,1.3c-1.2,0.9-1.9,2-1.9,3.4c0,1,0.3,1.9,0.8,2.6c0.5,0.7,1.4,1.2,2.7,1.7
			c0.6,0.2,1.1,0.3,1.8,0.5c0.6,0.1,1.2,0.2,1.8,0.4c0.5,0.1,0.9,0.3,1.2,0.5c0.3,0.2,0.4,0.5,0.4,0.9c0,0.4-0.1,0.6-0.3,0.8
			c-0.2,0.2-0.4,0.3-0.7,0.5c-0.3,0.1-0.6,0.2-0.9,0.2c-0.4,0-0.7,0.1-0.9,0.1c-0.9,0-1.9-0.2-2.8-0.5c-1-0.3-1.9-0.8-2.7-1.5h-0.4
			v3.6c0.8,0.3,1.7,0.6,2.6,0.8c0.9,0.2,2,0.3,3.2,0.3c2.1,0,3.8-0.5,5.1-1.4c1.2-0.9,1.9-2.1,1.9-3.6
			C217.1,321.8,216.8,321,216.3,320.3z M230.6,321.3c0-1.7-0.5-3.1-1.4-4c-0.9-0.9-2.3-1.4-4.1-1.4c-2,0-3.6,0.5-4.7,1.6
			c-1.1,1.1-1.7,2.6-1.7,4.4c0,1.9,0.6,3.3,1.8,4.3c1.2,1,2.9,1.5,5.2,1.5c0.9,0,1.7-0.1,2.4-0.2c0.7-0.1,1.5-0.4,2.3-0.7V324H230
			c-0.4,0.3-1,0.6-1.7,0.9c-0.7,0.3-1.4,0.4-2.2,0.4c-1.2,0-2.1-0.2-2.7-0.7c-0.6-0.5-1-1.1-1-2h8.3V321.3z M222.3,320.4
			c0.1-0.8,0.3-1.4,0.8-1.7c0.5-0.4,1-0.5,1.7-0.5c0.8,0,1.3,0.2,1.7,0.6c0.4,0.4,0.5,0.9,0.6,1.7H222.3z M240.6,316.3l-0.1,0.5
			c-0.4-0.3-0.9-0.5-1.4-0.6c-0.5-0.1-1.1-0.2-1.7-0.2c-0.7,0-1.3,0.1-2,0.4c-0.6,0.3-1.2,0.6-1.6,1.1c-0.5,0.5-0.8,1.1-1.1,1.8
			c-0.3,0.7-0.4,1.5-0.4,2.4c0,1.9,0.4,3.4,1.3,4.3c0.8,1,2.1,1.4,3.6,1.4c0.7,0,1.2-0.1,1.8-0.3c0.5-0.2,1-0.5,1.5-0.8v0.2
			c0,0.5-0.1,0.9-0.2,1.2c-0.1,0.3-0.2,0.6-0.4,0.8c-0.2,0.2-0.5,0.4-1,0.5c-0.4,0.1-1,0.2-1.6,0.2c-0.5,0-1.1-0.1-1.7-0.2
			c-0.6-0.1-1.2-0.3-1.6-0.5h-0.4v2.8c0.6,0.1,1.2,0.2,2,0.3c0.8,0.1,1.5,0.1,2.3,0.1c1,0,1.8-0.1,2.6-0.3c0.8-0.2,1.4-0.5,2-0.9
			c0.6-0.4,1-1,1.3-1.7c0.3-0.7,0.5-1.6,0.5-2.7v-10H240.6z M240.5,324c-0.3,0.2-0.6,0.3-1,0.5c-0.3,0.1-0.7,0.2-1.1,0.2
			c-0.8,0-1.4-0.2-1.8-0.6c-0.4-0.4-0.6-1.2-0.6-2.3c0-1,0.2-1.7,0.7-2.3c0.5-0.5,1.2-0.8,2.1-0.8c0.2,0,0.5,0,0.8,0.1
			c0.3,0.1,0.6,0.1,0.8,0.2V324z M255.2,316.3v8c-0.4,0.2-0.7,0.4-1.1,0.5c-0.4,0.1-0.7,0.2-1,0.2c-0.5,0-0.8-0.1-1.1-0.2
			c-0.3-0.1-0.5-0.3-0.6-0.5c-0.1-0.2-0.2-0.6-0.3-0.9c0-0.4-0.1-0.8-0.1-1.4v-5.6h-3.6v7.3c0,1.4,0.3,2.5,1,3.2
			c0.7,0.7,1.6,1.1,2.9,1.1c0.8,0,1.4-0.1,2-0.4c0.6-0.3,1.2-0.6,1.8-1.2v1.2h3.6v-11.3H255.2z M269.9,316.2c-0.2,0-0.3,0-0.4,0
			c-0.5,0-1,0.1-1.6,0.3c-0.6,0.2-1.3,0.7-2.1,1.4v-1.7h-3.6v11.3h3.6V320c0.4-0.2,0.9-0.3,1.3-0.3c0.4-0.1,0.9-0.1,1.4-0.1
			c0.2,0,0.5,0,0.9,0c0.3,0,0.6,0.1,0.7,0.1h0.3v-3.4C270.2,316.2,270.1,316.2,269.9,316.2z M281.4,316.9c-0.9-0.6-2.4-1-4.5-1
			c-0.9,0-1.7,0.1-2.6,0.2c-0.9,0.1-1.5,0.3-1.9,0.4v2.7h0.3c0.3-0.1,0.8-0.3,1.5-0.5c0.7-0.2,1.3-0.3,1.9-0.3c1,0,1.7,0.1,2.3,0.4
			c0.5,0.2,0.8,0.7,0.8,1.3v0.1c-1.1,0.1-2.1,0.2-3.1,0.3c-1,0.1-1.8,0.3-2.5,0.6c-0.7,0.3-1.2,0.7-1.6,1.2c-0.4,0.5-0.5,1.2-0.5,2
			c0,1,0.4,1.9,1.1,2.5c0.7,0.7,1.6,1,2.7,1c0.5,0,0.9,0,1.3-0.1c0.4-0.1,0.7-0.2,1.1-0.4c0.3-0.1,0.5-0.3,0.8-0.5
			c0.3-0.2,0.5-0.4,0.7-0.5v1.2h3.6v-7.7C282.8,318.5,282.3,317.5,281.4,316.9z M279.2,324.6c-0.3,0.2-0.6,0.4-1,0.6
			c-0.4,0.1-0.7,0.2-1.1,0.2c-0.5,0-0.8,0-1-0.1c-0.2-0.1-0.4-0.2-0.6-0.3c-0.2-0.1-0.3-0.3-0.3-0.4c0-0.1-0.1-0.3-0.1-0.6
			c0-0.4,0.1-0.6,0.3-0.9c0.2-0.2,0.5-0.4,0.8-0.5c0.3-0.1,0.7-0.2,1.3-0.2c0.6-0.1,1.1-0.1,1.6-0.2V324.6z M296.4,317
			c-0.7-0.7-1.6-1.1-2.9-1.1c-0.7,0-1.4,0.1-2,0.4c-0.6,0.3-1.2,0.7-1.8,1.2v-1.2h-3.6v11.3h3.6v-8c0.4-0.2,0.8-0.4,1.1-0.5
			c0.3-0.1,0.7-0.2,1-0.2c0.5,0,0.8,0.1,1.1,0.2c0.3,0.1,0.5,0.3,0.6,0.6c0.1,0.2,0.2,0.5,0.3,1c0,0.5,0.1,0.9,0.1,1.4v5.6h3.6v-7.3
			C297.4,318.8,297.1,317.7,296.4,317z M306.7,318.5c0.4,0,0.8,0,1.1,0.2c0.3,0.1,0.6,0.2,0.9,0.4c0.3,0.2,0.5,0.3,0.7,0.5
			c0.2,0.2,0.4,0.3,0.5,0.4h0.5v-3.1c-0.6-0.3-1.2-0.5-1.8-0.7c-0.7-0.2-1.4-0.2-2.1-0.2c-0.8,0-1.7,0.1-2.5,0.3
			c-0.8,0.2-1.5,0.6-2.1,1c-0.6,0.5-1.1,1.1-1.5,1.9c-0.4,0.8-0.5,1.7-0.5,2.7c0,1,0.2,1.8,0.5,2.5c0.3,0.7,0.8,1.3,1.3,1.8
			c0.6,0.5,1.2,0.9,2,1.1c0.8,0.2,1.6,0.4,2.6,0.4v0.5c0,0.5-0.1,0.9-0.4,1.2c-0.3,0.3-0.7,0.4-1.2,0.4c-0.3,0-0.6,0-0.9-0.1
			c-0.3-0.1-0.5-0.2-0.7-0.2h-0.2v2c0.3,0.1,0.7,0.2,1.1,0.2c0.4,0,0.8,0,1,0c1.1,0,1.9-0.3,2.6-0.9c0.7-0.6,1-1.4,1-2.5
			c0-0.1,0-0.3,0-0.4c0-0.2,0-0.3,0-0.4c0.4-0.1,0.7-0.2,1-0.3c0.3-0.1,0.6-0.2,0.9-0.3v-3.1H310c-0.1,0.1-0.3,0.3-0.5,0.4
			c-0.2,0.1-0.4,0.3-0.6,0.4c-0.2,0.1-0.5,0.3-0.9,0.4c-0.4,0.1-0.8,0.1-1.2,0.1c-1,0-1.7-0.3-2.3-0.8c-0.5-0.6-0.8-1.4-0.8-2.5
			c0-1.1,0.3-1.9,0.8-2.5C305,318.8,305.7,318.5,306.7,318.5z M321.9,316.9c-0.9-0.6-2.4-1-4.5-1c-0.9,0-1.7,0.1-2.6,0.2
			c-0.9,0.1-1.5,0.3-1.9,0.4v2.7h0.3c0.3-0.1,0.8-0.3,1.5-0.5c0.7-0.2,1.3-0.3,1.9-0.3c1,0,1.7,0.1,2.2,0.4c0.5,0.2,0.8,0.7,0.8,1.3
			v0.1c-1.1,0.1-2.1,0.2-3.1,0.3c-1,0.1-1.8,0.3-2.5,0.6c-0.7,0.3-1.2,0.7-1.6,1.2c-0.4,0.5-0.5,1.2-0.5,2c0,1,0.4,1.9,1.1,2.5
			c0.7,0.7,1.6,1,2.7,1c0.4,0,0.9,0,1.3-0.1c0.4-0.1,0.7-0.2,1.1-0.4c0.3-0.1,0.5-0.3,0.8-0.5c0.3-0.2,0.5-0.4,0.7-0.5v1.2h3.6v-7.7
			C323.3,318.5,322.8,317.5,321.9,316.9z M319.7,324.6c-0.3,0.2-0.6,0.4-1,0.6c-0.4,0.1-0.7,0.2-1.1,0.2c-0.5,0-0.8,0-1-0.1
			c-0.2-0.1-0.4-0.2-0.5-0.3c-0.2-0.1-0.3-0.3-0.3-0.4c0-0.1-0.1-0.3-0.1-0.6c0-0.4,0.1-0.6,0.3-0.9c0.2-0.2,0.5-0.4,0.8-0.5
			c0.3-0.1,0.7-0.2,1.3-0.2c0.6-0.1,1.1-0.1,1.6-0.2V324.6z M345.7,315.1c-0.3-0.6-0.8-1.1-1.4-1.5c-0.5-0.3-1.1-0.6-1.7-0.7
			c-0.7-0.2-1.5-0.2-2.4-0.2h-6.3v14.9h3.9v-4.9h2.4c1.1,0,2-0.1,2.7-0.4c0.7-0.3,1.4-0.8,2-1.3c0.4-0.4,0.8-1,1-1.6
			c0.2-0.6,0.3-1.3,0.3-2C346.1,316.4,346,315.7,345.7,315.1z M342,318.5c-0.1,0.3-0.3,0.6-0.5,0.8c-0.3,0.2-0.6,0.4-1.1,0.5
			c-0.4,0.1-1,0.1-1.6,0.1h-1.1v-4.5h0.7c0.6,0,1.1,0,1.5,0c0.4,0,0.8,0.1,1.2,0.3c0.3,0.1,0.6,0.3,0.8,0.6c0.2,0.3,0.3,0.7,0.3,1.1
			C342.2,317.8,342.1,318.2,342,318.5z M356.3,316.3v8c-0.4,0.2-0.7,0.4-1.1,0.5c-0.4,0.1-0.7,0.2-1,0.2c-0.5,0-0.8,0-1.1-0.2
			c-0.3-0.1-0.5-0.3-0.6-0.5c-0.1-0.2-0.2-0.6-0.3-0.9c0-0.4-0.1-0.8-0.1-1.4v-5.6h-3.6v7.3c0,1.4,0.3,2.5,1,3.2
			c0.7,0.7,1.6,1.1,2.9,1.1c0.8,0,1.4-0.1,2-0.4c0.6-0.3,1.2-0.6,1.8-1.2v1.2h3.6v-11.3H356.3z M354,310.7l-2.5,4h2.5l3.5-3.7v-0.2
			H354z M373.9,317.5c-0.8-1-1.9-1.5-3.3-1.5c-0.8,0-1.4,0.1-2,0.4c-0.6,0.3-1.1,0.6-1.7,1.1v-5.5h-3.6v15.6h3.5l0.1-0.6
			c0.4,0.2,0.9,0.5,1.4,0.6c0.5,0.1,1,0.2,1.7,0.2c1.5,0,2.7-0.6,3.7-1.7c1-1.1,1.5-2.6,1.5-4.3
			C375.1,319.9,374.7,318.5,373.9,317.5z M370.6,324.3c-0.5,0.6-1.2,0.9-2.1,0.9c-0.3,0-0.6,0-0.8-0.1c-0.2,0-0.5-0.1-0.7-0.2v-5.7
			c0.3-0.2,0.7-0.3,1-0.5c0.3-0.1,0.7-0.2,1.1-0.2c0.9,0,1.5,0.3,1.8,0.8c0.3,0.6,0.5,1.3,0.5,2.3
			C371.4,322.9,371.1,323.8,370.6,324.3z M377.7,311.9v15.6h3.6v-15.6H377.7z M384.7,316.3v11.3h3.6v-11.3H384.7z M384.6,311.9v2.7
			h3.8v-2.7H384.6z M397.6,318.5c0.4,0,0.8,0,1.1,0.2c0.3,0.1,0.6,0.2,0.9,0.3c0.3,0.2,0.5,0.3,0.7,0.5c0.2,0.2,0.4,0.3,0.5,0.4h0.5
			v-3.1c-0.6-0.3-1.2-0.5-1.8-0.7c-0.7-0.2-1.4-0.2-2.1-0.2c-0.9,0-1.7,0.1-2.5,0.3c-0.8,0.2-1.5,0.6-2.1,1
			c-0.6,0.5-1.1,1.1-1.5,1.9c-0.4,0.8-0.5,1.7-0.5,2.7c0,1,0.2,1.9,0.5,2.6c0.3,0.7,0.8,1.4,1.4,1.9c0.6,0.5,1.3,0.8,2.1,1.1
			c0.8,0.2,1.7,0.4,2.7,0.4c0.8,0,1.4-0.1,2-0.2c0.6-0.2,1.2-0.4,1.8-0.6v-3.1h-0.5c-0.1,0.1-0.3,0.3-0.5,0.4
			c-0.2,0.1-0.4,0.3-0.6,0.4c-0.2,0.1-0.5,0.3-0.9,0.4c-0.4,0.1-0.8,0.1-1.2,0.1c-1,0-1.7-0.3-2.3-0.8c-0.5-0.6-0.8-1.4-0.8-2.5
			c0-1.1,0.3-1.9,0.8-2.5C395.9,318.8,396.7,318.5,397.6,318.5z M412.9,316.9c-0.9-0.6-2.4-1-4.5-1c-0.9,0-1.7,0.1-2.6,0.2
			c-0.9,0.1-1.5,0.3-1.9,0.4v2.7h0.3c0.3-0.1,0.8-0.3,1.5-0.5c0.7-0.2,1.3-0.3,1.9-0.3c1,0,1.7,0.1,2.2,0.4c0.5,0.2,0.8,0.7,0.8,1.3
			v0.1c-1.1,0.1-2.1,0.2-3.1,0.3c-1,0.1-1.8,0.3-2.5,0.6c-0.7,0.3-1.2,0.7-1.6,1.2c-0.4,0.5-0.5,1.2-0.5,2c0,1,0.4,1.9,1.1,2.5
			c0.7,0.7,1.6,1,2.7,1c0.4,0,0.9,0,1.2-0.1c0.4-0.1,0.8-0.2,1.1-0.4c0.3-0.1,0.5-0.3,0.8-0.5c0.3-0.2,0.5-0.4,0.7-0.5v1.2h3.6v-7.7
			C414.2,318.5,413.8,317.5,412.9,316.9z M410.7,324.6c-0.3,0.2-0.6,0.4-1,0.6c-0.4,0.1-0.7,0.2-1.1,0.2c-0.5,0-0.8,0-1-0.1
			c-0.2-0.1-0.4-0.2-0.6-0.3c-0.1-0.1-0.2-0.3-0.3-0.4c0-0.1-0.1-0.3-0.1-0.6c0-0.4,0.1-0.6,0.3-0.9c0.2-0.2,0.5-0.4,0.8-0.5
			c0.3-0.1,0.7-0.2,1.3-0.2c0.6-0.1,1.1-0.1,1.6-0.2V324.6z"/>
		<path class="st4" d="M112.6,294.6v-7H89.5v7H96v25.5h-6.5v7h23.1v-7h-6.5v-25.5H112.6z M150.4,308.1c-1.4-1.7-3.7-3-6.7-4
			c-1.6-0.5-3-0.9-4.3-1.2c-1.3-0.3-2.7-0.6-4.2-0.9c-2.2-0.4-3.7-1-4.5-1.5c-0.8-0.6-1.2-1.4-1.2-2.4c0-0.7,0.2-1.3,0.7-1.8
			c0.5-0.5,1.1-0.9,1.8-1.2c0.8-0.3,1.6-0.5,2.4-0.7c0.8-0.1,1.7-0.2,2.5-0.2c2.4,0,4.8,0.4,7.1,1.3c2.3,0.9,4.3,1.9,5.8,3.2h1.1
			v-9.1c-1.9-0.8-4.1-1.4-6.6-1.9c-2.5-0.5-5.1-0.7-7.7-0.7c-5.2,0-9.4,1.2-12.7,3.5c-3.3,2.3-4.9,5.3-4.9,9c0,2.7,0.7,5,2.2,6.9
			c1.5,1.8,3.9,3.3,7.2,4.4c1.5,0.5,3,0.9,4.7,1.2c1.7,0.3,3.2,0.6,4.7,1c1.4,0.3,2.5,0.8,3.2,1.4c0.7,0.6,1.1,1.4,1.1,2.2
			c0,0.9-0.2,1.7-0.8,2.1c-0.5,0.5-1.1,0.9-1.9,1.2c-0.6,0.3-1.5,0.4-2.5,0.5c-1,0.1-1.8,0.2-2.4,0.2c-2.4,0-4.9-0.4-7.5-1.3
			c-2.6-0.9-5-2.2-7.1-3.9h-1.1v9.5c2.1,0.9,4.4,1.6,6.8,2.2c2.4,0.6,5.3,0.9,8.6,0.9c5.7,0,10.1-1.2,13.4-3.6c3.3-2.4,5-5.6,5-9.5
			C152.6,312,151.8,309.8,150.4,308.1z M190.9,294.2c-0.8-1.6-2.1-3-3.6-4c-1.3-0.9-2.9-1.5-4.6-2c-1.7-0.4-3.8-0.6-6.4-0.6h-16.8
			v39.5h10.2v-12.9h6.3c2.9,0,5.3-0.4,7.2-1.2c1.9-0.8,3.7-2,5.3-3.5c1.2-1.2,2-2.6,2.6-4.3c0.6-1.7,0.9-3.4,0.9-5.2
			C192.1,297.8,191.7,295.9,190.9,294.2z M181.2,303.2c-0.3,0.8-0.8,1.5-1.4,2c-0.8,0.6-1.7,1.1-2.8,1.3c-1.1,0.2-2.6,0.3-4.3,0.3
			h-2.9V295h1.7c1.7,0,3,0,4,0.1c1,0,2,0.3,3.1,0.7c0.8,0.3,1.5,0.9,2.1,1.7c0.6,0.8,0.9,1.8,0.9,2.9
			C181.6,301.5,181.5,302.5,181.2,303.2z"/>
	</g>
	<g>
		<g>
			<path class="st4" d="M380.6,216.6c0,1.8,0,3.7,0,5.5c-0.1,4.2,0.2,8.5-0.3,12.6c0.1-0.5-1-1.7-1.2-2.1c-0.5-0.8-1-1.6-1.6-2.4
				c-1.1-1.5-2.2-2.9-3.4-4.2c-2.5-2.7-5.4-5.1-8.2-7.5c-3.7-3.2-7.6-6.3-12-8.6c-4.8-2.5-10.3-3.6-15.6-2.4
				c-0.7-5.5-2.4-19.8-5.1-24.1c-3.6-5.7-8.5-10.2-14.7-13.5c-6.2-3.3-13.4-4.9-21.4-4.9c-5.9,0-10.8,0.7-14.6,2.2s-7,3.2-9.7,5.1
				c-2.6,1.9-5,3.6-7,5.1c-2,1.5-4.3,2.2-6.8,2.2h-29.2c-1.9,0-3.5-0.7-4.9-2.1c-0.5-0.5-1-1.1-1.3-1.7c0.7-0.8,1.4-1.5,2.1-2.3
				c7.5-8,13.3-16.5,17.3-25.3c4.1-8.9,6.1-18.7,6.1-29.3c0-13.4-3.1-25.7-9.3-36.4c-2-3.4-4.2-6.6-6.8-9.6l0.9-8.8
				c0.2-2.7,1.2-4.9,2.9-6.3c1.7-1.5,3.7-2.2,6-2.2h119.2c2.1,0,3.9,0.7,5.4,2.2c1.5,1.5,2.2,3.3,2.2,5.4v21.3
				c0,2.1-0.7,3.9-2.2,5.4c-1.5,1.5-3.3,2.2-5.4,2.2h-91.7l-5.1,51.7c3.8-2.5,8.9-5,15.2-7.3c6.3-2.3,15.1-3.5,26.3-3.5
				c10.1,0,19.8,1.6,29,4.9c9.2,3.3,17.4,8,24.6,14.3c7.2,6.2,12.8,13.7,17,22.5c0.1,0.2,0.2,0.4,0.2,0.5c1.3,3.3,1.6,7,1.9,10.4
				c0.5,5,0.7,10.1,0.8,15.2C380.6,206.1,380.6,211.3,380.6,216.6z"/>
		</g>
		<g>
			<path class="st4" d="M141.1,264.4c0.4,0.5,0.8,0.8,1.4,1c0.5,0.2,1.1,0.3,1.6,0.3c0.6,0,1.1-0.1,1.6-0.3c0.5-0.2,1-0.6,1.4-1
				c0.4-0.5,0.8-1.1,1-1.9c0.2-0.7,0.3-1.5,0.3-2.5c0-1-0.1-1.9-0.4-2.6c-0.2-0.7-0.6-1.3-0.9-1.8c-0.4-0.5-0.8-0.8-1.4-1
				c-0.5-0.2-1-0.3-1.6-0.3c-0.6,0-1.1,0.1-1.6,0.3c-0.5,0.2-1,0.5-1.4,1c-0.4,0.4-0.7,1-0.9,1.8s-0.4,1.6-0.4,2.6
				c0,1,0.1,1.9,0.4,2.6C140.4,263.4,140.7,263.9,141.1,264.4z"/>
			<polygon class="st4" points="100.3,262 104.5,262 102.4,255.8 			"/>
			<path class="st4" d="M200.3,185.5c7.2-6,13.6-12.1,19.1-17.9c1.6-1.7,3.1-3.5,4.6-5.3c4.7-5.7,8.4-11.6,11.1-17.7
				c3.5-7.7,5.3-16.4,5.3-25.6c0-11.8-2.7-22.6-8.1-32.1c-0.2-0.3-0.3-0.6-0.5-0.8c-5.4-9-13.3-16.2-23.7-21.5
				c-10.8-5.6-24.8-8.4-41.6-8.4c-11.8,0-22.6,1.9-32,5.7c-9.4,3.8-17.4,8.9-23.8,15.1c-6.4,6.2-11.4,13.4-14.7,21.4
				c-3.4,8-5.2,16.4-5.4,24.9c0,0.3,0.1,0.7,0.6,1.2c0.3,0.3,0.7,0.6,1.6,0.6h28.2c1.2,0,2.3-0.3,3.6-1c0.3-0.2,1-0.5,1.3-2.5
				c1.1-6.7,3.3-12.8,6.4-18.3c3.2-5.7,7.7-10.4,13.5-13.8c5.8-3.5,12.8-5.2,21-5.2c12.5,0,21.9,3.5,27.9,10.4
				c5.9,6.7,8.9,15.5,8.9,26.1c0,7.1-2.2,14.4-6.5,21.5c-4.1,6.8-10.7,14.3-19.5,22.2c-5.4,4.8-11.2,9.5-16.8,14
				c-2.2,1.7-4.3,3.4-6.4,5.2c-7.3,6-14,12.4-21.8,20.1l-39,38.7c-2.7,2.2-4.5,4.3-5.1,6.2c-0.8,2.2-1.2,3.9-1.2,5.3V270
				c0,0.9,0.3,1.6,0.9,2.3c0.7,0.7,1.3,0.9,2.3,0.9h82.4l52.9-26l-88.1,0.6l49.2-49.9C190.7,193.9,195.1,189.8,200.3,185.5z
				 M106.8,268.6l-1.2-3.5h-6.4l-1.2,3.5h-4.5l6.4-17.2h5.1l6.4,17.2H106.8z M130.6,268.6h-4.3l-7.3-11.8v11.8H115v-17.2h5.3
				l6.3,9.9v-9.9h4.1V268.6z M156.6,263.5h0.5c0.9,0.7,1.9,1.3,3.1,1.7c1.1,0.4,2.2,0.6,3.3,0.6c0.3,0,0.6,0,1.1-0.1
				c0.4,0,0.8-0.1,1.1-0.2c0.3-0.1,0.6-0.3,0.8-0.5c0.2-0.2,0.3-0.5,0.3-0.9c0-0.4-0.2-0.7-0.5-1c-0.3-0.3-0.8-0.5-1.4-0.6
				c-0.6-0.2-1.3-0.3-2.1-0.4c-0.7-0.1-1.4-0.3-2-0.5c-1.4-0.5-2.5-1.1-3.1-1.9c-0.6-0.8-1-1.8-1-3c0-1.6,0.7-2.9,2.2-3.9
				c1.4-1,3.3-1.5,5.5-1.5c1.1,0,2.3,0.1,3.4,0.3c1.1,0.2,2.1,0.5,2.9,0.8v4h-0.5c-0.7-0.6-1.5-1-2.5-1.4c-1-0.4-2-0.6-3.1-0.6
				c-0.4,0-0.7,0-1.1,0.1s-0.7,0.1-1.1,0.3c-0.3,0.1-0.6,0.3-0.8,0.5c-0.2,0.2-0.3,0.5-0.3,0.8c0,0.5,0.2,0.8,0.5,1s1,0.5,2,0.7
				c0.6,0.1,1.2,0.3,1.8,0.4c0.6,0.1,1.2,0.3,1.9,0.5c1.3,0.4,2.3,1,2.9,1.8c0.6,0.7,0.9,1.7,0.9,2.9c0,1.7-0.7,3.1-2.2,4.1
				c-1.4,1.1-3.4,1.6-5.9,1.6c-1.4,0-2.7-0.1-3.7-0.4c-1.1-0.3-2.1-0.6-3-1V263.5z M137.6,253.5c1.6-1.6,3.7-2.4,6.5-2.4
				c2.8,0,4.9,0.8,6.5,2.4c1.6,1.6,2.4,3.8,2.4,6.6c0,2.7-0.8,4.9-2.4,6.5c-1.6,1.6-3.7,2.4-6.5,2.4c-2.8,0-4.9-0.8-6.5-2.4
				c-1.6-1.6-2.4-3.8-2.4-6.5C135.2,257.3,136,255.1,137.6,253.5z"/>
		</g>
		<path class="st4" d="M301.6,206.8c-17.9-6.6-32.2-14.3-32.4-14.4l1.4-2.5c0.1,0.1,14.3,7.7,32,14.2L301.6,206.8z"/>
		<g>
			<g>
				<path class="st4" d="M275.4,193.3c-1.4-2.5-3.2-5.6-6.1-5.8c-3.5-0.2-7.2,5.2-8.7,7.8c-9.6,16.4-19.2,32.9-26.8,50.3
					c15.3-6.6,37.4-14.9,56.2-16.5C285,214.7,279.6,200.9,275.4,193.3z"/>
				<path class="st4" d="M227.8,261.4c-1.5,4.4-2.9,8.9-5,13.1l81.4-0.4c-2.4-9.3-7.5-25.9-13.1-42.1c-19.6,1.6-43.5,10.8-58.8,17.6
					C230.6,253.5,229.1,257.4,227.8,261.4z"/>
			</g>
			<path class="st4" d="M340.2,216.3c-10.8-0.8-23.8-4-38.6-9.4l1-2.7c14.6,5.4,27.3,8.5,37.9,9.3L340.2,216.3z"/>
			<path class="st4" d="M179.4,275.4l36.5-18.5c0,0,52.8-27.9,85.1-25.2c0,0,26-18.6,41.2-20.1c15.2-1.4,31.9,20,31.9,20l38,43
				L179.4,275.4z"/>
		</g>
	</g>
</g>
<g>
	<g>
		<path class="st4" d="M639.8,165.9c-2.1,0-4.1-0.2-6-0.7c-1.9-0.5-3.6-1.3-5.2-2.4l1.8-2.8c1.5,1,3.1,1.7,4.6,2.1
			c1.6,0.4,3.1,0.6,4.7,0.6c2.7,0,4.5-0.4,5.7-1.1c1.1-0.7,1.7-1.9,1.7-3.5c0-0.8-0.2-1.5-0.5-2c-0.3-0.5-0.8-0.9-1.5-1.2
			c-0.6-0.3-1.4-0.6-2.3-0.8c-0.9-0.2-1.9-0.4-3.1-0.6c-1.5-0.3-2.9-0.5-4.1-0.8s-2.2-0.7-3.1-1.2c-0.8-0.5-1.5-1.2-1.9-2.1
			c-0.4-0.8-0.7-2-0.7-3.3c0-2.6,0.8-4.5,2.5-5.6c1.6-1.1,4.1-1.7,7.4-1.7c2.2,0,4.1,0.2,5.6,0.7c1.5,0.5,2.8,1,3.9,1.7l-1.9,2.9
			c-0.9-0.6-2-1.1-3.4-1.5s-2.8-0.6-4.2-0.6c-2.3,0-3.9,0.3-4.8,0.9c-1,0.6-1.4,1.6-1.4,3c0,0.7,0.2,1.3,0.5,1.8
			c0.3,0.5,0.8,0.9,1.4,1.2s1.3,0.6,2.2,0.8c0.9,0.2,1.9,0.4,3,0.6c1.5,0.2,2.8,0.5,4,0.8c1.2,0.3,2.3,0.7,3.2,1.2
			c0.9,0.5,1.6,1.2,2.1,2.1c0.5,0.9,0.7,2,0.7,3.4c0,2.6-0.8,4.6-2.5,5.9C646.4,165.2,643.6,165.9,639.8,165.9z"/>
		<path class="st4" d="M663.7,165.9c-2,0-3.6-0.3-4.9-0.8c-1.3-0.5-2.2-1.3-2.9-2.2c-0.7-0.9-1.2-2-1.4-3.3c-0.2-1.2-0.4-2.6-0.4-4
			s0.1-2.7,0.4-4s0.7-2.3,1.4-3.2s1.7-1.6,2.9-2.2c1.2-0.5,2.8-0.8,4.8-0.8c2,0,3.6,0.3,4.7,1c1.1,0.6,1.9,1.5,2.5,2.6
			c0.5,1.1,0.9,2.3,1,3.7c0.1,1.4,0.1,2.8,0.1,4.3h-14.5c0,0.9,0.2,1.7,0.4,2.4c0.2,0.7,0.6,1.4,1,1.9c0.5,0.5,1.1,0.9,1.9,1.2
			c0.8,0.3,1.8,0.4,3,0.4c0.8,0,1.5,0,2.1-0.1s1.1-0.2,1.6-0.4c0.5-0.2,0.9-0.4,1.3-0.6c0.4-0.2,0.8-0.5,1.2-0.8l1.8,2.4
			c-1.1,0.8-2.2,1.4-3.4,1.9C667.1,165.7,665.5,165.9,663.7,165.9z M663.5,148.5c-1.1,0-2.1,0.1-2.8,0.4c-0.7,0.3-1.3,0.6-1.8,1.1
			c-0.5,0.5-0.8,1.1-1,1.7c-0.2,0.7-0.4,1.4-0.4,2.3h11.2c0-0.8-0.1-1.5-0.2-2.2c-0.1-0.7-0.3-1.3-0.7-1.7c-0.3-0.5-0.8-0.9-1.5-1.2
			S664.7,148.5,663.5,148.5z"/>
		<path class="st4" d="M684.8,165.9c-1.9,0-3.4-0.2-4.7-0.7c-1.2-0.5-2.2-1.2-2.9-2.1c-0.7-0.9-1.2-2-1.5-3.2
			c-0.3-1.3-0.4-2.6-0.4-4.1c0-1.5,0.1-2.9,0.4-4.2c0.3-1.2,0.8-2.3,1.5-3.2c0.7-0.9,1.7-1.6,3-2.1c1.2-0.5,2.8-0.7,4.8-0.7
			c1.8,0,3.2,0.3,4.4,0.8c1.2,0.5,2.1,1.2,2.9,2.1l-2.5,2.4c-0.5-0.5-1.1-0.9-1.8-1.3c-0.7-0.4-1.7-0.6-3-0.6c-1.2,0-2.2,0.2-3,0.5
			c-0.8,0.3-1.5,0.8-1.9,1.4c-0.5,0.6-0.8,1.3-1,2.2c-0.2,0.9-0.3,1.8-0.3,3c0,1.1,0.1,2.1,0.3,3c0.2,0.9,0.5,1.6,1,2.2
			c0.5,0.6,1.1,1.1,1.9,1.4s1.8,0.5,3,0.5c1.1,0,2-0.2,2.7-0.5c0.8-0.3,1.5-0.8,2.3-1.5l2.3,2.2c-0.5,0.5-1,0.9-1.5,1.2
			c-0.5,0.4-1.1,0.7-1.6,0.9c-0.6,0.2-1.2,0.4-1.9,0.6C686.4,165.8,685.6,165.9,684.8,165.9z"/>
		<path class="st4" d="M696.2,146.1l2.7-0.2l0.4,2.4c0.4-0.7,1.2-1.3,2.3-1.8c1.1-0.5,2.6-0.8,4.3-0.8v3.5c-1.2,0-2.2,0.2-3,0.5
			c-0.8,0.3-1.4,0.7-1.9,1.3s-0.8,1.2-1,1.9c-0.2,0.7-0.3,1.6-0.3,2.5v10.3h-3.5V146.1z"/>
		<path class="st4" d="M718,165.9c-2,0-3.6-0.3-4.9-0.8c-1.3-0.5-2.2-1.3-2.9-2.2c-0.7-0.9-1.2-2-1.4-3.3c-0.2-1.2-0.4-2.6-0.4-4
			s0.1-2.7,0.4-4s0.7-2.3,1.4-3.2s1.7-1.6,2.9-2.2c1.2-0.5,2.8-0.8,4.8-0.8c2,0,3.6,0.3,4.7,1c1.1,0.6,1.9,1.5,2.5,2.6
			c0.5,1.1,0.9,2.3,1,3.7c0.1,1.4,0.1,2.8,0.1,4.3h-14.5c0,0.9,0.2,1.7,0.4,2.4c0.2,0.7,0.6,1.4,1,1.9c0.5,0.5,1.1,0.9,1.9,1.2
			c0.8,0.3,1.8,0.4,3,0.4c0.8,0,1.5,0,2.1-0.1s1.1-0.2,1.6-0.4c0.5-0.2,0.9-0.4,1.3-0.6c0.4-0.2,0.8-0.5,1.2-0.8l1.8,2.4
			c-1.1,0.8-2.2,1.4-3.4,1.9C721.4,165.7,719.8,165.9,718,165.9z M717.8,148.5c-1.1,0-2.1,0.1-2.8,0.4c-0.7,0.3-1.3,0.6-1.8,1.1
			c-0.5,0.5-0.8,1.1-1,1.7c-0.2,0.7-0.4,1.4-0.4,2.3h11.2c0-0.8-0.1-1.5-0.2-2.2c-0.1-0.7-0.3-1.3-0.7-1.7c-0.3-0.5-0.8-0.9-1.5-1.2
			S719,148.5,717.8,148.5z"/>
		<path class="st4" d="M729,145.9h3.6l0.6-5.6l2.7-0.5v6.1h5.2v3.1h-5.2v10.7c0,0.4,0,0.8,0.1,1.2c0,0.4,0.2,0.6,0.4,0.9
			c0.2,0.2,0.5,0.4,0.8,0.5c0.4,0.1,0.9,0.2,1.6,0.2h2.4v3c-0.1,0-0.3,0-0.6,0s-0.6,0-0.9,0c-0.3,0-0.6,0-0.9,0s-0.5,0-0.6,0
			c-1.2,0-2.1-0.1-2.8-0.3c-0.7-0.2-1.3-0.6-1.7-1s-0.7-1-0.9-1.7s-0.2-1.5-0.2-2.4V149H729V145.9z"/>
		<path class="st4" d="M751.1,165.9c-1.4,0-2.6-0.2-3.5-0.5c-0.9-0.3-1.6-0.7-2.2-1.3c-0.5-0.5-0.9-1.2-1.1-1.9
			c-0.2-0.7-0.3-1.5-0.3-2.3c0-1.4,0.2-2.5,0.7-3.5c0.4-0.9,1.2-1.7,2.2-2.2c1-0.6,2.3-0.9,4-1.2c1.7-0.2,3.7-0.3,6.2-0.3h1.1
			c0-0.7-0.1-1.3-0.2-1.8c-0.1-0.5-0.4-0.9-0.7-1.3c-0.4-0.3-0.8-0.6-1.5-0.7c-0.6-0.2-1.5-0.2-2.5-0.2c-1.2,0-2.4,0.2-3.4,0.5
			c-1,0.4-1.8,0.7-2.4,1.1l-1.8-2.7c0.3-0.2,0.8-0.4,1.3-0.7c0.5-0.3,1.2-0.5,1.8-0.7c0.7-0.2,1.4-0.4,2.2-0.5
			c0.8-0.1,1.7-0.2,2.5-0.2c1.7,0,3,0.1,4.1,0.4c1,0.3,1.8,0.8,2.4,1.4c0.6,0.6,0.9,1.5,1.1,2.5c0.2,1,0.3,2.2,0.3,3.6v7
			c0,0.5,0,0.9,0.1,1.1c0,0.3,0.1,0.5,0.2,0.7c0.1,0.2,0.3,0.3,0.6,0.3c0.3,0,0.6,0.1,1.1,0.1v3c-0.1,0-0.3,0.1-0.5,0.1
			c-0.2,0-0.5,0-0.9,0c-1.1,0-1.8-0.2-2.3-0.5c-0.4-0.3-0.8-0.9-1.1-1.7c-0.6,0.8-1.5,1.5-2.6,1.9
			C754.8,165.6,753.2,165.9,751.1,165.9z M751.6,162.9c2.3,0,3.9-0.5,4.9-1.4c1-1,1.5-2.5,1.5-4.6v-1.2h-0.9c-2,0-3.7,0.1-5,0.2
			c-1.3,0.1-2.3,0.3-3,0.7c-0.7,0.3-1.2,0.7-1.5,1.2c-0.3,0.5-0.4,1.2-0.4,1.9c0,1,0.3,1.8,0.9,2.4
			C748.8,162.6,750,162.9,751.6,162.9z"/>
		<path class="st4" d="M767.3,146.1l2.7-0.2l0.4,2.4c0.4-0.7,1.2-1.3,2.3-1.8c1.1-0.5,2.6-0.8,4.3-0.8v3.5c-1.2,0-2.2,0.2-3,0.5
			c-0.8,0.3-1.4,0.7-1.9,1.3s-0.8,1.2-1,1.9c-0.2,0.7-0.3,1.6-0.3,2.5v10.3h-3.5V146.1z"/>
		<path class="st4" d="M780.6,139.4h3.5v4.2h-3.5V139.4z M780.6,145.9h3.4v19.6h-3.4V145.9z"/>
		<path class="st4" d="M795.2,165.9c-1.4,0-2.6-0.2-3.5-0.5c-0.9-0.3-1.6-0.7-2.2-1.3c-0.5-0.5-0.9-1.2-1.1-1.9
			c-0.2-0.7-0.3-1.5-0.3-2.3c0-1.4,0.2-2.5,0.7-3.5c0.4-0.9,1.2-1.7,2.2-2.2c1-0.6,2.3-0.9,4-1.2c1.7-0.2,3.7-0.3,6.2-0.3h1.1
			c0-0.7-0.1-1.3-0.2-1.8c-0.1-0.5-0.4-0.9-0.7-1.3c-0.4-0.3-0.8-0.6-1.5-0.7c-0.6-0.2-1.5-0.2-2.5-0.2c-1.2,0-2.4,0.2-3.4,0.5
			c-1,0.4-1.8,0.7-2.4,1.1l-1.8-2.7c0.3-0.2,0.8-0.4,1.3-0.7c0.5-0.3,1.2-0.5,1.8-0.7c0.7-0.2,1.4-0.4,2.2-0.5
			c0.8-0.1,1.7-0.2,2.5-0.2c1.7,0,3,0.1,4.1,0.4c1,0.3,1.8,0.8,2.4,1.4c0.6,0.6,0.9,1.5,1.1,2.5c0.2,1,0.3,2.2,0.3,3.6v7
			c0,0.5,0,0.9,0.1,1.1c0,0.3,0.1,0.5,0.2,0.7c0.1,0.2,0.3,0.3,0.6,0.3c0.3,0,0.6,0.1,1.1,0.1v3c-0.1,0-0.3,0.1-0.5,0.1
			c-0.2,0-0.5,0-0.9,0c-1.1,0-1.8-0.2-2.3-0.5c-0.4-0.3-0.8-0.9-1.1-1.7c-0.6,0.8-1.5,1.5-2.6,1.9
			C798.9,165.6,797.3,165.9,795.2,165.9z M795.7,162.9c2.3,0,3.9-0.5,4.9-1.4c1-1,1.5-2.5,1.5-4.6v-1.2h-0.9c-2,0-3.7,0.1-5,0.2
			c-1.3,0.1-2.3,0.3-3,0.7c-0.7,0.3-1.2,0.7-1.5,1.2c-0.3,0.5-0.4,1.2-0.4,1.9c0,1,0.3,1.8,0.9,2.4
			C792.9,162.6,794.1,162.9,795.7,162.9z"/>
		<path class="st4" d="M827,165.9c-1.6,0-3-0.3-4.1-0.8c-1.1-0.5-1.9-1.2-2.6-2.1c-0.6-0.9-1.1-2-1.4-3.2s-0.4-2.6-0.4-4.1
			c0-1.5,0.1-2.8,0.4-4.1c0.3-1.2,0.7-2.3,1.4-3.2c0.6-0.9,1.5-1.6,2.6-2.1c1.1-0.5,2.5-0.7,4.1-0.7c2.1,0,3.6,0.2,4.7,0.6
			c1.1,0.4,1.8,1,2.3,1.8v-9.7h3.5v27.2l-2.6,0.2l-0.4-2.3c-0.6,0.9-1.5,1.5-2.7,1.9S829.1,165.9,827,165.9z M827.7,162.7
			c1.2,0,2.1-0.1,3-0.4c0.8-0.3,1.5-0.7,2-1.2s0.9-1.3,1.1-2.2s0.4-2,0.4-3.3s-0.1-2.4-0.3-3.3s-0.6-1.6-1.1-2.1
			c-0.5-0.5-1.2-0.9-2-1.2c-0.8-0.2-1.8-0.4-3-0.4c-1.1,0-2.1,0.2-2.8,0.5s-1.3,0.8-1.8,1.4s-0.7,1.3-0.9,2.2
			c-0.2,0.9-0.2,1.8-0.2,2.9c0,1.1,0.1,2.1,0.2,2.9c0.2,0.9,0.5,1.6,0.9,2.2c0.4,0.6,1,1.1,1.8,1.4S826.6,162.7,827.7,162.7z"/>
		<path class="st4" d="M851.3,165.9c-2,0-3.6-0.3-4.9-0.8c-1.3-0.5-2.2-1.3-2.9-2.2c-0.7-0.9-1.2-2-1.4-3.3c-0.2-1.2-0.4-2.6-0.4-4
			s0.1-2.7,0.4-4s0.7-2.3,1.4-3.2s1.7-1.6,2.9-2.2c1.2-0.5,2.8-0.8,4.8-0.8c2,0,3.6,0.3,4.7,1c1.1,0.6,1.9,1.5,2.5,2.6
			c0.5,1.1,0.9,2.3,1,3.7c0.1,1.4,0.1,2.8,0.1,4.3H845c0,0.9,0.2,1.7,0.4,2.4c0.2,0.7,0.6,1.4,1,1.9c0.5,0.5,1.1,0.9,1.9,1.2
			c0.8,0.3,1.8,0.4,3,0.4c0.8,0,1.5,0,2.1-0.1s1.1-0.2,1.6-0.4c0.5-0.2,0.9-0.4,1.3-0.6c0.4-0.2,0.8-0.5,1.2-0.8l1.8,2.4
			c-1.1,0.8-2.2,1.4-3.4,1.9C854.7,165.7,853.2,165.9,851.3,165.9z M851.2,148.5c-1.1,0-2.1,0.1-2.8,0.4c-0.7,0.3-1.3,0.6-1.8,1.1
			c-0.5,0.5-0.8,1.1-1,1.7c-0.2,0.7-0.4,1.4-0.4,2.3h11.2c0-0.8-0.1-1.5-0.2-2.2c-0.1-0.7-0.3-1.3-0.7-1.7c-0.3-0.5-0.8-0.9-1.5-1.2
			S852.3,148.5,851.2,148.5z"/>
		<path class="st4" d="M628.1,201.3l2.9-4.2c2.8,1.9,6,2.8,9.4,2.8c5.1,0,6.1-1,6.1-3.2c0-2.2-2.2-2.6-6.2-3.1
			c-7-1-10.6-2.3-10.6-7.9c0-5.8,3.5-7.9,10.9-7.9c5.3,0,8.6,1.2,10.6,2.6l-3.1,4.5c-1.7-1.1-4.7-2-7.5-2c-4.1,0-5.1,0.8-5.1,2.7
			c0,2.1,2.2,2.5,6.3,3.1c6.3,0.9,10.5,1.9,10.5,7.8c0,5.3-2.9,8.3-11.6,8.3C635.3,204.7,631,203.5,628.1,201.3z"/>
		<path class="st4" d="M654.7,194.3c0-5.6,1.8-10.4,10.4-10.4c8.8,0,9.1,5.9,8.9,12.5H660c0.3,2.4,1.5,3.8,5,3.8
			c3.1,0,4.8-0.7,6.3-1.8l2.8,3.6c-2.6,1.9-5.1,2.7-9.1,2.7C656.4,204.7,654.7,200,654.7,194.3z M660,192.5h8.9c-0.1-2.3-0.6-4-4-4
			S660.3,190,660,192.5z"/>
		<path class="st4" d="M683.7,196.9c-0.1,0.2-0.2,0.5-0.2,0.7c0,1,0.6,1.1,3.3,1.1c8.3,0,10.3,1.2,10.3,5.5c0,4.8-3.5,6.5-10.9,6.5
			c-7.6,0-10.4-0.8-10.4-4.9c0-2.3,1.2-3.9,3.9-4.5c-1.1-0.7-1.2-1.8-1.2-2.8c0-1.1,0.3-2,1-2.8c-1.8-1-2.6-2.7-2.6-5
			c0-4.4,2.7-6.8,9.3-6.8c0.4,0,0.7,0,1.1,0l8.9-1.8v4.2h-2.9c1.4,0.8,2.2,2,2.2,4.3c0,4.4-2.8,6.3-9.3,6.3
			C685.4,197,684.5,196.9,683.7,196.9z M691.5,204.5c0-1.4-1.1-1.8-5-1.8c-4.4,0-5,0.7-5,2.1c0,1.4,1,2,5,2S691.5,206,691.5,204.5z
			 M690.2,190.7c0-1.7-1-2.6-3.9-2.6c-3,0-3.9,0.8-3.9,2.6c0,1.7,0.9,2.6,3.9,2.6C689.3,193.3,690.2,192.4,690.2,190.7z"/>
		<path class="st4" d="M700.4,195v-10.7h5.5v10.8c0,2.8,0.1,4.7,4,4.7c3.9,0,4-2,4-4.8v-10.7h5.4V195c0,6.8-1.8,9.7-9.5,9.7
			S700.4,201.8,700.4,195z"/>
		<path class="st4" d="M723.6,184.7l4.3-0.3l0.6,2.2c0.8-1.3,3.3-2.3,6.4-2.4v5.3c-4.7,0-5.7,1.9-5.7,5v9.9h-5.5V184.7z"/>
		<path class="st4" d="M736.5,198.5c0-5.6,4-7,12.8-7h0.8c0-1.8-0.5-2.7-4-2.7c-2.4,0-4.6,0.9-5.8,1.6l-2.8-4.1
			c1.4-1,4.9-2.4,9.1-2.4c7.2,0,8.7,2.3,8.7,7.9v6.1c0,1.6,0.1,1.8,1.7,1.8v4.5c-0.4,0.1-1.1,0.1-2.3,0.1c-2.1,0-3-0.4-3.8-2
			c-1,1.4-3.2,2.2-7,2.2C737.9,204.6,736.5,201.9,736.5,198.5z M750.2,196v-0.7h-0.5c-7.1,0-7.9,0.6-7.9,2.7c0,1.5,0.8,2.2,3.4,2.2
			C748.6,200.2,750.2,198.9,750.2,196z"/>
		<path class="st4" d="M760.6,184.7l4.3-0.3l0.5,1.7c1.1-1.2,3-2.2,7.2-2.2c6,0,7.2,3.4,7.2,8.3v12.1h-5.5v-11
			c0-2.4-0.3-4.2-3.6-4.2c-3.8,0-4.5,1.8-4.5,4.4v10.8h-5.5V184.7z"/>
		<path class="st4" d="M787.4,211.9l1.4-2.6c1.1,0.5,2.2,0.8,3.1,0.8c1.7,0,2.2-0.4,2.2-1.4c0-1.2-1.3-1.4-3.1-1.2l-1.1-0.7l0.5-2.4
			c-6-0.9-7.5-5-7.5-10.1c0-5.8,1.9-10.4,10.5-10.4c3.6,0,6.3,1.2,8.1,3.2l-3.9,3.7c-0.8-0.9-2-1.8-4.2-1.8c-4,0-4.9,2.2-4.9,5.5
			s0.9,5.5,4.9,5.5c1.9,0,3.1-0.6,4.5-1.9l3.5,3.4c-2.3,2.1-4.2,3.1-8,3.2l-0.2,1.2c2.2-0.1,4.4,0.1,4.4,3.4c0,3-2.2,4-5.6,4
			C790.2,213.1,788.7,212.6,787.4,211.9z"/>
		<path class="st4" d="M803.4,198.5c0-5.6,4-7,12.8-7h0.8c0-1.8-0.5-2.7-4-2.7c-2.4,0-4.6,0.9-5.8,1.6l-2.8-4.1
			c1.4-1,4.9-2.4,9.1-2.4c7.2,0,8.7,2.3,8.7,7.9v6.1c0,1.6,0.1,1.8,1.7,1.8v4.5c-0.4,0.1-1.1,0.1-2.3,0.1c-2.1,0-3-0.4-3.8-2
			c-1,1.4-3.2,2.2-7,2.2C804.8,204.6,803.4,201.9,803.4,198.5z M817,196v-0.7h-0.5c-7.1,0-7.9,0.6-7.9,2.7c0,1.5,0.8,2.2,3.4,2.2
			C815.5,200.2,817,198.9,817,196z"/>
		<path class="st4" d="M629.9,217h12.6c8,0,10.4,3.4,10.4,8.7s-2.3,9.4-10.7,9.4h-6.6v8h-5.6V217z M642.4,230.2
			c3.3,0,4.7-1.1,4.7-4.2c0-3.1-1.3-4.1-4.8-4.1h-6.8v8.3H642.4z"/>
		<path class="st4" d="M656.2,233.8v-10.7h5.5v10.8c0,2.8,0.1,4.7,4,4.7c3.9,0,4-2,4-4.8v-10.7h5.4v10.6c0,6.8-1.8,9.7-9.5,9.7
			S656.2,240.6,656.2,233.8z M667,214.8h6.7l-6.7,6.5H662L667,214.8z"/>
		<path class="st4" d="M684.2,241.4l-1.1,1.9l-3.7-0.4v-27.2h5.5v8.9c1.1-1.3,3.2-1.9,6.5-1.9c6.9,0,8.6,4.7,8.6,10.4
			c0,5.8-1.8,10.3-8.9,10.3C687.3,243.4,685.3,242.6,684.2,241.4z M694.4,233.3c0-3.2-0.7-5.6-4.3-5.6c-3.8,0-5.1,1.8-5.1,5.6
			c0,3.8,1.1,5.5,5.1,5.5C693.7,238.8,694.4,236.5,694.4,233.3z"/>
		<path class="st4" d="M703.7,237.1v-21.3h5.5v20.7c0,1.6,0.3,2.1,2,2.1c0.1,0,0.5,0,0.7,0v4.6c-0.5,0.1-1.6,0.1-2.7,0.1
			C705.5,243.2,703.7,241.8,703.7,237.1z"/>
		<path class="st4" d="M715.7,216.3h5.6v5h-5.6V216.3z M715.7,223.1h5.5v20h-5.5V223.1z"/>
		<path class="st4" d="M724.9,233.1c0-5.8,1.9-10.4,10.5-10.4c3.6,0,6.3,1.2,8.1,3.2l-3.9,3.7c-0.8-0.9-2-1.8-4.2-1.8
			c-4,0-4.9,2.2-4.9,5.5s0.9,5.5,4.9,5.5c1.9,0,3.1-0.6,4.5-1.9l3.5,3.4c-2.3,2.2-4.3,3.2-8.3,3.2
			C726.8,243.4,724.9,238.9,724.9,233.1z"/>
		<path class="st4" d="M745.2,237.2c0-5.6,4-7,12.8-7h0.8c0-1.8-0.5-2.7-4-2.7c-2.4,0-4.6,0.9-5.8,1.6l-2.8-4.1
			c1.4-1,4.9-2.4,9.1-2.4c7.2,0,8.7,2.3,8.7,7.9v6.1c0,1.6,0.1,1.8,1.7,1.8v4.5c-0.4,0.1-1.1,0.1-2.3,0.1c-2.1,0-3-0.4-3.8-2
			c-1,1.4-3.2,2.2-7,2.2C746.6,243.4,745.2,240.7,745.2,237.2z M758.8,234.8v-0.7h-0.5c-7.1,0-7.9,0.6-7.9,2.7
			c0,1.5,0.8,2.2,3.4,2.2C757.3,239,758.8,237.7,758.8,234.8z"/>
	</g>
	<g>
		<g>
			<g>
				<path class="st6" d="M1061.5,270.4c0.8-0.7,1.9-0.9,2.8-0.4c-1.9-1.7-3.2-4.1-3.6-6.9c-0.4-3.2,0.5-6.2,2.3-8.4
					c2.3,1.7,3.9,4.3,4.3,7.4c0.2-0.3,0.4-0.7,0.7-1c1.6-2,3.7-3.4,5.9-4c-0.5-0.8-0.5-1.8-0.1-2.6c0.4-0.7,1.2-1.2,2-1.3
					c-0.1-0.3-0.2-0.6-0.2-0.8c-0.7,0.3-1.6,0.3-2.3-0.1c-1.2-0.7-1.6-2.2-1-3.5c0.7-1.2,2.3-1.6,3.5-0.9c0.7,0.4,1.2,1.2,1.3,2
					c0.2-0.1,0.5-0.2,0.8-0.2c-0.3-0.7-0.3-1.6,0.1-2.3c0.5-0.9,1.5-1.4,2.5-1.3c-2.2-1.1-4.1-3-5.2-5.5c-1.3-2.9-1.2-6.1-0.1-8.7
					c2.6,1,4.9,3,6.2,5.9c0.1-0.4,0.2-0.8,0.4-1.1c1-2.5,2.8-4.5,4.9-5.6c-0.8-0.6-1.2-1.7-1-2.7c0.2-0.8,0.8-1.5,1.6-1.7
					c-0.2-0.2-0.3-0.5-0.4-0.8c-0.6,0.5-1.5,0.7-2.3,0.5c-1.4-0.4-2.2-1.7-1.8-3.1c0.4-1.4,1.8-2.2,3.1-1.8c0.8,0.2,1.5,0.8,1.7,1.6
					c0.2-0.2,0.4-0.3,0.7-0.4c-0.5-0.6-0.7-1.4-0.5-2.3c0.3-1.1,1.3-1.8,2.3-1.9c-2.5-0.5-4.8-1.9-6.6-4.2c-1.9-2.5-2.6-5.6-2.2-8.4
					c2.8,0.3,5.5,1.8,7.4,4.2c0-0.4,0.1-0.8,0.1-1.2c0.3-2.6,1.6-4.9,3.3-6.5c-0.8-0.4-1.4-1.3-1.4-2.3c0-0.9,0.5-1.6,1.1-2
					c-0.2-0.2-0.4-0.4-0.6-0.6c-0.5,0.6-1.2,1.1-2.1,1c-1.4,0-2.5-1.2-2.5-2.6c0-1.4,1.2-2.5,2.6-2.5c0.9,0,1.6,0.5,2.1,1.1
					c0.2-0.2,0.4-0.4,0.6-0.6c-0.6-0.5-1-1.2-1-2.1c0-1.1,0.7-2,1.7-2.4c-2.5,0-5-0.8-7.2-2.6c-2.5-2-3.8-4.9-4-7.7
					c2.8-0.3,5.8,0.5,8.2,2.5c-0.1-0.4-0.1-0.8-0.2-1.2c-0.2-2.6,0.4-5,1.6-7c-0.9-0.2-1.6-1-1.8-2c-0.2-0.9,0.1-1.7,0.7-2.3
					c-0.3-0.1-0.5-0.3-0.7-0.5c-0.3,0.7-1,1.3-1.8,1.5c-1.4,0.3-2.7-0.6-3-2c-0.3-1.4,0.6-2.7,2-3c0.8-0.2,1.7,0.1,2.2,0.7
					c0.1-0.3,0.3-0.5,0.5-0.7c-0.7-0.3-1.3-1-1.4-1.8c-0.2-1,0.2-1.9,0.9-2.5c-2.4,0.5-5,0.2-7.4-1c-2.9-1.4-4.8-3.9-5.6-6.6
					c2.6-0.9,5.7-0.8,8.5,0.6c-0.2-0.4-0.3-0.7-0.4-1.1c-0.9-2.6-0.7-5.3,0.2-7.6c-1.1,0.1-2.1-0.5-2.6-1.5
					c-0.4-0.8-0.3-1.7,0.1-2.3c-0.3-0.1-0.6-0.1-0.8-0.3c-0.2,0.8-0.7,1.5-1.4,1.9c-1.3,0.6-2.8,0.1-3.4-1.2c-0.6-1.3,0-2.8,1.2-3.4
					c0.8-0.4,1.6-0.3,2.3,0.1c0-0.3,0.1-0.6,0.3-0.8c-0.8-0.1-1.5-0.6-1.8-1.4c-0.5-1-0.2-2.1,0.5-2.8c-2.1,1.2-4.7,1.7-7.4,1.1
					c-3.1-0.6-5.7-2.4-7.2-4.8c2.3-1.6,5.3-2.4,8.4-1.8c-0.3-0.3-0.5-0.6-0.7-1c-1.5-2.2-2.1-4.8-1.9-7.2c-1,0.3-2.1,0.1-2.8-0.7
					c-0.6-0.6-0.8-1.5-0.6-2.3c-0.3,0-0.6,0-0.9,0c0.1,0.8-0.2,1.6-0.8,2.2c-1.1,0.9-2.7,0.8-3.6-0.2c-0.9-1-0.9-2.7,0.2-3.6
					c0.6-0.6,1.5-0.8,2.3-0.6c0-0.3,0-0.6,0-0.8c-0.8,0.1-1.6-0.2-2.2-0.8c-0.6-0.6-0.8-1.5-0.6-2.2c-1.6,1.7-3.9,2.9-6.6,3.3
					c-3.2,0.4-6.2-0.5-8.4-2.3c1.6-2.3,4.2-3.9,7.4-4.3c-0.3-0.2-0.7-0.4-1-0.7c-2.5-1.9-4-4.7-4.3-7.5c2.8-0.4,5.8,0.3,8.4,2.2
					c0.3,0.3,0.6,0.5,0.9,0.8c-0.4-3.1,0.5-6,2.3-8.2c2.3,1.7,3.9,4.3,4.4,7.5c0.4,2.8-0.3,5.4-1.6,7.5c1-0.4,2.2-0.2,3,0.6
					c0.6,0.6,0.8,1.5,0.6,2.2c0.3,0,0.5,0,0.8,0c-0.1-0.8,0.2-1.6,0.8-2.1c1.1-0.9,2.7-0.8,3.6,0.2c0.9,1,0.8,2.7-0.2,3.6
					c-0.6,0.6-1.5,0.7-2.2,0.6c0,0.3,0,0.6-0.1,0.8c0.8-0.1,1.6,0.2,2.2,0.8c0.8,0.9,0.9,2.1,0.3,3c2.4,0.7,4.6,2.2,6.2,4.5
					c0.2,0.3,0.5,0.7,0.6,1c0.6-3.1,2.4-5.6,4.7-7.1c1.6,2.3,2.4,5.3,1.8,8.5c-0.6,3-2.3,5.5-4.5,7.1c1.2-0.3,2.5,0.2,3,1.4
					c0.3,0.8,0.3,1.6-0.1,2.3c0.3,0,0.5,0.1,0.7,0.3c0.2-0.8,0.7-1.4,1.4-1.8c1.3-0.6,2.8-0.1,3.4,1.2c0.6,1.3,0,2.8-1.2,3.4
					c-0.8,0.4-1.6,0.3-2.3-0.1c-0.1,0.3-0.2,0.5-0.3,0.8c0.8,0.1,1.5,0.6,1.9,1.4c0.5,1.1,0.2,2.3-0.6,3c2.1,1.3,3.9,3.4,4.8,6.1
					c0.1,0.4,0.2,0.8,0.3,1.2c1.5-2.8,3.9-4.7,6.5-5.5c0.9,2.7,0.8,5.8-0.6,8.6c-1.3,2.6-3.4,4.4-5.8,5.3c1.1,0.1,2,0.9,2.2,2
					c0.2,0.8-0.1,1.7-0.6,2.2c0.2,0.1,0.5,0.3,0.7,0.4c0.3-0.7,1-1.2,1.8-1.4c1.4-0.3,2.7,0.6,3,2c0.3,1.4-0.6,2.7-2,3
					c-0.8,0.2-1.6-0.1-2.2-0.6c-0.1,0.3-0.3,0.5-0.5,0.7c0.7,0.3,1.3,1,1.5,1.8c0.2,1.1-0.3,2.1-1.1,2.6c1.6,1.7,2.7,4,3,6.6
					c0,0.4,0.1,0.8,0.1,1.2c2-2.4,4.8-3.7,7.6-3.9c0.3,2.8-0.5,5.8-2.5,8.3c-1.9,2.3-4.5,3.7-7.2,4c1.1,0.3,2,1.3,2,2.5
					c0,0.9-0.5,1.6-1.1,2c0.2,0.2,0.4,0.3,0.5,0.6c0.5-0.6,1.2-1,2.1-1c1.4,0,2.5,1.2,2.5,2.6c0,1.4-1.2,2.5-2.6,2.5
					c-0.8,0-1.6-0.4-2-1.1c-0.2,0.2-0.4,0.4-0.6,0.6c0.6,0.5,1.1,1.2,1,2.1c0,1.1-0.8,2.1-1.8,2.4c1.2,2,1.8,4.6,1.5,7.2
					c-0.1,0.4-0.1,0.8-0.2,1.2c2.5-1.9,5.5-2.5,8.3-2.1c-0.3,2.8-1.8,5.6-4.3,7.5c-2.4,1.8-5.3,2.6-8,2.2c1.1,0.5,1.8,1.8,1.5,3
					c-0.2,0.8-0.8,1.4-1.6,1.7c0.2,0.2,0.3,0.4,0.4,0.7c0.6-0.5,1.4-0.7,2.2-0.5c1.4,0.4,2.2,1.8,1.8,3.1c-0.4,1.4-1.8,2.2-3.1,1.8
					c-0.8-0.2-1.4-0.8-1.7-1.5c-0.2,0.2-0.4,0.3-0.7,0.4c0.5,0.6,0.7,1.5,0.5,2.3c-0.3,1.1-1.3,1.9-2.4,1.9c0.8,2.3,0.8,5-0.2,7.6
					c-0.2,0.4-0.3,0.7-0.5,1.1c2.9-1.2,6-1.2,8.5-0.1c-1,2.7-3.1,5-6,6.2c-2.7,1.2-5.6,1.2-8.1,0.4c0.9,0.8,1.1,2.1,0.5,3.1
					c-0.4,0.7-1.2,1.2-1.9,1.3c0.1,0.2,0.2,0.5,0.2,0.8c0.7-0.3,1.6-0.3,2.3,0.1c1.2,0.7,1.7,2.3,1,3.5c-0.7,1.2-2.3,1.7-3.5,1
					c-0.7-0.4-1.2-1.1-1.3-1.9c-0.2,0.1-0.5,0.2-0.8,0.2c0.3,0.7,0.3,1.6-0.1,2.3c-0.6,1-1.6,1.4-2.7,1.3c0,2.4-0.7,4.8-2.4,6.9
					c-0.3,0.3-0.5,0.6-0.8,0.9c3.1-0.4,6,0.6,8.2,2.3c-1.7,2.3-4.3,3.9-7.5,4.3c-3,0.4-5.8-0.4-8-2c0.8,1,0.6,2.5-0.4,3.4
					c-0.6,0.6-1.5,0.8-2.2,0.6c0,0.2,0,0.5,0,0.8c0.8-0.1,1.6,0.2,2.1,0.8c1,1,0.9,2.7-0.2,3.6c-1,1-2.6,0.9-3.6-0.2
					c-0.6-0.6-0.8-1.5-0.6-2.2c-0.3,0-0.5,0-0.8-0.1c0.1,0.8-0.2,1.6-0.8,2.2c-1,1-2.7,0.9-3.6-0.2c-1-1-0.9-2.7,0.2-3.6
					c0.6-0.6,1.5-0.8,2.3-0.6c0-0.3,0-0.6,0-0.9c-0.8,0.1-1.6-0.2-2.2-0.8c-1-1-0.9-2.7,0.2-3.6c1-1,2.6-0.9,3.6,0.2
					c0.6,0.6,0.8,1.5,0.6,2.3c0.3,0,0.6,0,0.8,0C1060.6,271.8,1060.8,271,1061.5,270.4"/>
				<path class="st6" d="M958.4,114.1c-5.2,6.1-9.9,13.1-13.7,20.7l4.2-15.5c0.1-0.2,0-0.5-0.2-0.5l-3.9-1.7c-0.2-0.1-0.5,0-0.6,0.2
					l-10.7,19.1c-0.1,0.2-0.1,0.4,0.1,0.6c0.2,0.1,0.4,0.1,0.6-0.1c0,0,7.6-8.9,9.1-10.7l-1,13.7c-0.6,1.3-1.2,2.7-1.7,4
					c-3.3,8.1-5.7,16.7-7.3,25.6l-0.3-16.7c0-0.2-0.2-0.4-0.4-0.4l-4.3-0.6c-0.2,0-0.4,0.1-0.5,0.3l-4.9,21.3c0,0.2,0.1,0.5,0.3,0.5
					c0.2,0.1,0.5,0,0.6-0.2c0,0,4.8-10.7,5.8-12.8l2.9,13.9c-0.9,6.2-1.3,12.5-1.3,18.8c0,3.4,0.1,6.9,0.4,10.2l-4.4-16
					c-0.1-0.2-0.3-0.3-0.5-0.3l-4.3,0.5c-0.2,0-0.4,0.2-0.4,0.5l0.5,21.9c0,0.2,0.2,0.4,0.4,0.4c0.2,0,0.5-0.1,0.5-0.4
					c0,0,2-11.6,2.4-13.8l6.2,12.7c1.1,10,3.4,19.7,6.7,29l-8.4-14.1c-0.1-0.2-0.4-0.3-0.6-0.2l-4,1.6c-0.2,0.1-0.3,0.3-0.3,0.5
					l6.3,20.9c0.1,0.2,0.3,0.4,0.5,0.3c0.2-0.1,0.4-0.2,0.4-0.5v0c0,0-1.2-11.7-1.4-14l9.4,10.4c3.7,9.2,8.5,17.6,14.2,25.1
					L942.6,258c-0.2-0.1-0.4-0.1-0.6,0l-3.3,2.8c-0.2,0.2-0.2,0.4-0.1,0.6l12.6,17.9c0.1,0.2,0.4,0.3,0.6,0.1
					c0.1-0.1,0.2-0.2,0.2-0.4c0-0.1,0-0.1,0-0.2c0,0-4.8-10.7-5.7-12.8l11.9,6.8c1.6,1.9,3.3,3.7,5,5.4c0.9,0.9,2.4,0.9,3.3,0
					c0.9-0.9,0.9-2.4,0-3.3c-1.8-1.8-3.6-3.7-5.2-5.7l-1-11.2c1.5,1.8,9.1,10.6,9.1,10.6c0.1,0.2,0.4,0.2,0.6,0.1
					c0.2-0.1,0.2-0.4,0.1-0.6l-11.1-18.9c-0.1-0.2-0.3-0.3-0.6-0.2l-4,1.6c-0.2,0.1-0.4,0.3-0.3,0.6l4.6,15
					c-5.8-7.6-10.8-16.4-14.5-26l2.3-11.7c1,2.1,6.2,12.8,6.2,12.8c0.1,0.2,0.3,0.3,0.6,0.2c0.2-0.1,0.3-0.3,0.3-0.5l-5.6-21.2
					c-0.1-0.2-0.3-0.4-0.5-0.3l-4.3,0.4c-0.2,0-0.4,0.2-0.4,0.5l0.1,16.2c-3.3-9.3-5.5-19-6.5-29.1l5.3-11c0.4,2.2,2.7,14,2.7,14
					c0.1,0.2,0.3,0.4,0.5,0.4c0.2,0,0.4-0.2,0.4-0.5v-21.9c0-0.2-0.2-0.4-0.4-0.4l-4.3-0.7c-0.2,0-0.4,0.1-0.5,0.3l-4.1,16
					c-0.3-3.4-0.4-6.7-0.4-10.2c0-6.5,0.5-13,1.4-19.3l7.7-9.4c-0.1,2.3-0.6,14.2-0.6,14.2v0c0,0.2,0.2,0.4,0.4,0.4
					c0.2,0,0.4-0.1,0.5-0.3l5.2-21.3c0.1-0.2-0.1-0.4-0.3-0.5l-4-1.7c-0.2-0.1-0.5,0-0.6,0.2l-7.6,14.3c1.9-10.5,5-20.6,9.3-29.8
					l10.1-6.5c-0.8,2.1-5,13.3-5,13.3c0,0.1,0,0.1,0,0.2c0,0.2,0.1,0.3,0.2,0.4c0.2,0.1,0.5,0,0.6-0.2l11.5-18.6
					c0.1-0.2,0.1-0.4-0.1-0.6l-3.3-2.8c-0.2-0.2-0.4-0.1-0.6,0l-11.8,11.3c3.7-7.4,8.2-14.1,13.3-20.1l16.7-14.3
					c0.1-0.1,0.1-0.2,0-0.3c-0.1-0.1-0.2-0.1-0.3-0.1c0,0-4.9,2.8-8.7,5l11-14.1c0.1-0.1,0.1-0.2,0-0.3c-0.1-0.1-0.2-0.1-0.3,0
					l-12.8,12.2c1.8-3.9,4-9,4-9c0-0.1,0-0.2-0.1-0.3c-0.1-0.1-0.2,0-0.3,0.1L958.4,114.1L958.4,114.1z"/>
				<path class="st6" d="M1048.7,179.3c-0.1,0.1-0.4,0.3-1.1,1.2c0,0,0,0.1-0.1,0.1c-1.5,2-3.4,3.1-5.6,3.7c-2.6,0.8-8.1,2-11.8,3.7
					c2.5,0.1,12.5,1.1,16.3,0.6c3.8-0.5,7.8-2.5,8-5.6C1054.6,180.1,1051.7,179.2,1048.7,179.3 M1056.7,165.2L1056.7,165.2
					c-1,0.3,0.8-1.9,2.6-0.6C1059.3,164.7,1057.6,165,1056.7,165.2 M1013.4,201.2c0-1.7-0.1-4.5,0.1-5.7c0.2-2.2,1.1-4,3.5-5.6
					c-0.6,0.9,0.1,8.7,0.6,11.5c-0.9-0.1-1.8-0.1-2.8-0.1C1014.2,201.2,1013.8,201.2,1013.4,201.2 M1025.9,114.1
					c1.4,2,1.4,4.8,1.4,4.8l2.2,36.6l10.7,0.2l16-19C1048.1,125.4,1037.6,117.3,1025.9,114.1 M957.4,174.1l13,4.7
					c1.8,0,3.1-1.3,3.9-2.6c5.1,0,9.9-0.9,11.6-1.1c-1.6,0.5-11.5,2.6-11.2,2.9c0.1,0.9,6.2,2.3,17.9-1.3c-1.9,1.3-6.6,2.9-10.1,3.9
					c-0.2,0.1,0.2,0.3,0.8,0.4c2,0.4,6.9,0.9,17-2.7c-2.3,1.2-6.9,3-10.3,4.1c-1.9,0.6,3.2,1.1,7,0.4c3.9-0.8,7.4-2.5,10-2.9l2-0.2
					c-4,0.7-14,5.6-17.2,7.4c-3.6,2-10.7,4.9-14.2,5.3c1.4,1.3,5.6,3.3,8.8,4.1c3.6,0.9,9.2,1.4,14,0.6c1.6-3.9,7.9-7.8,10.8-8.9
					c-3.3,2.9-3.3,5-3.4,6.9c0,1.5,0.9,4.9,1.2,6.7c-0.8,0.1-1.5,0.3-2.3,0.5h-0.3c-13.7,3.6-23.8,16-23.8,30.8c0,0.4,0,0.8,0,1.1
					h-18.9c10.2,24.1,29.1,40.3,50.7,40.3c21.6,0,40.5-16.2,50.7-40.3h-18.9c0-0.4,0-0.8,0-1.1c0-15-10.4-27.6-24.4-31h0.2l-0.1,0
					c-0.7-1.6,0.1-7.3,0.4-8.7c0.4-1.8,3.7-4.2,6.4-5.9c2.6-1.7,7.5-2.9,10.6-3.8c3.1-0.9,4.5-1.5,5.2-2.1c1.2-0.8,2.3-2.4,3.8-4
					c0.5-0.5,0.9-0.9,0.9-0.9c0,0,3.3-3.5,8.8-5.8c1.4-0.6,4.2-1.3,5.4-1.2c1.2,0.1,1.8,0.4,2.5,1c0.1-1.2-0.2-2.3-0.5-3.4
					c-0.4-1.2-1.5-3.5-5.1-2.9c-0.6-1.2-3.5-0.8-6.1,0c-2.6,0.7-7.7,2.8-9.8,3.5c-2.2,0.7-5.7,1.2-6.8,0.5c0.2,0.7,0.9,1.1,1.7,1.4
					c-0.2,0-0.5,0-0.8,0c-1.1-0.3-2.6-1-3.5-2.8c-1.1-2.2-1-4.2-1.7-5.6c-0.8-1.4-1.2-3.6-5-3.6c-3.8,0-12.3,3.1-19.7,4.9
					c-7.4,1.9-20.2,5.4-25.8,6.9c-1.5,0.4-3.5,0.8-5.5,1.2l10.8-21c6-13,10.4-5,10.4-5s2.2-2.1,4.6-3.3c3.3-2.1,6,2.5,6,2.5
					s0.7-3.2,5.7-3.8c1.1-0.1,3.8-18.9,3.8-18.9s0.6-6.3,2.9-8.4c-2.3-0.4-4.6-0.6-6.9-0.6C986.9,112.5,963.7,138.8,957.4,174.1
					 M1014.4,108.2c-34.7,0-63,38.3-63,85.3c0,47.1,28.2,85.3,63,85.3c34.7,0,62.9-38.3,62.9-85.3
					C1077.3,146.5,1049.1,108.2,1014.4,108.2"/>
				<path class="st4" d="M987.6,235L987.6,235c0-0.5-0.2-0.7-0.6-0.7c-0.5,0-0.6,0.3-0.6,0.8l0.1,1.1l1.2-0.1L987.6,235z
					 M988.4,235.1l0.1,0.9l1.4-0.1l0.1,0.9l-4.2,0.3l-0.1-2c-0.1-1.3,0.5-1.7,1.3-1.7c0.6,0,1.1,0.1,1.4,0.8l1.4-0.9l0.1,1
					L988.4,235.1z"/>
				<polygon class="st4" points="985.7,230 986.3,226.9 987.1,227 986.7,229.2 987.5,229.4 987.9,227.2 988.7,227.4 988.3,229.5 
					989.3,229.7 989.7,227.4 990.5,227.6 989.9,230.7 				"/>
				<polygon class="st4" points="987.3,223.5 987.8,222.3 990.9,222.5 988.7,220.3 989.2,219.2 993.1,220.9 992.7,221.8 
					990.1,220.6 992.2,222.8 991.9,223.4 988.9,223.3 991.5,224.5 991.1,225.2 				"/>
				<path class="st4" d="M994.2,215.9L994.2,215.9c0.3-0.4,0.4-0.7,0-1c-0.4-0.3-0.6-0.3-1,0.2l-0.7,0.8l1,0.9L994.2,215.9z
					 M991.3,216.1l1.3-1.6c0.8-1,1.5-0.9,2.2-0.4c0.7,0.6,0.9,1.3,0,2.3l-0.7,0.8l1,0.8l-0.6,0.7L991.3,216.1z"/>
				<path class="st4" d="M997.6,213.1l-1.5-2.1l0.8-0.5l1.5,2c0.4,0.5,0.7,0.7,1.4,0.2c0.7-0.5,0.6-0.9,0.2-1.4l-1.5-2l0.7-0.5
					l1.5,2.1c0.5,0.7,0.9,1.5-0.6,2.5C998.7,214.4,998.1,213.7,997.6,213.1"/>
				<path class="st4" d="M1005.6,209.4L1005.6,209.4c0.4-0.2,0.6-0.4,0.4-0.7c-0.1-0.3-0.3-0.4-0.8-0.2l-1.1,0.4l0.4,0.9
					L1005.6,209.4z M1004.9,207.8L1004.9,207.8c0.5-0.2,0.5-0.4,0.4-0.7c-0.1-0.3-0.3-0.3-0.7-0.2l-1,0.4l0.3,0.8L1004.9,207.8z
					 M1002.4,207l1.8-0.7c1-0.4,1.6-0.3,1.9,0.4c0.2,0.5,0.1,0.8-0.2,1.1c0.5-0.1,0.8,0.2,1,0.7c0.3,0.8-0.1,1.3-1.2,1.7l-1.8,0.7
					L1002.4,207z"/>
				<polygon class="st4" points="1009.1,204.8 1010,204.7 1010.5,208 1012.6,207.7 1012.7,208.5 1009.7,209 				"/>
				<polygon class="st4" points="1015.2,204.3 1016.1,204.3 1016,208.5 1015.1,208.5 				"/>
				<path class="st4" d="M1018.9,206.6c0.3-1.5,1.3-1.9,2.7-1.6c0.7,0.2,1.2,0.5,1.5,1l-0.8,0.5c-0.2-0.3-0.5-0.5-0.9-0.6
					c-0.9-0.2-1.4,0.2-1.5,1c-0.2,0.8,0,1.4,1,1.6c0.5,0.1,0.8,0,1.1-0.2l0.5,0.7c-0.4,0.3-0.9,0.5-1.8,0.2
					C1019,208.9,1018.6,208,1018.9,206.6"/>
				<path class="st4" d="M1027.2,210.1L1027.2,210.1l0.2-1.8l-1.3,1.2L1027.2,210.1z M1027.5,207.1l0.8,0.4l-0.4,4.6l-0.9-0.4
					l0.1-0.7l-1.7-0.8l-0.6,0.5l-0.8-0.4L1027.5,207.1z"/>
				<polygon class="st4" points="1032.6,210.2 1033.5,211 1032.5,213.9 1035.3,212.5 1036.2,213.4 1033.3,216.5 1032.7,215.9 
					1034.5,213.8 1031.8,215.1 1031.3,214.7 1032.3,211.8 1030.5,213.9 1029.8,213.3 				"/>
				<path class="st4" d="M1041.3,228.5c1.5-0.1,2.2,0.6,2.3,2.1c0.1,0.9-0.1,1.4-0.5,1.8l-0.7-0.6c0.2-0.2,0.3-0.5,0.3-1.1
					c-0.1-0.9-0.6-1.2-1.4-1.2c-0.9,0.1-1.4,0.4-1.3,1.4c0.1,0.8,0.4,1,0.9,1l0.1,0l-0.1-1.2l0.8-0.1l0.2,2.1l-0.7,0.1
					c-1.2,0.1-1.9-0.3-2-1.9C1039.2,229.2,1039.9,228.6,1041.3,228.5"/>
				<polygon class="st4" points="1043.6,235.1 1043.2,238.2 1042.4,238.1 1042.7,235.9 1041.8,235.8 1041.5,237.9 1040.7,237.8 
					1041,235.7 1040.1,235.5 1039.8,237.8 1039,237.7 1039.4,234.5 				"/>
				<path class="st4" d="M1040,242L1040,242c-0.2,0.5-0.1,0.7,0.3,0.9c0.5,0.2,0.7,0,0.8-0.5l0.4-1l-1.1-0.4L1040,242z
					 M1039.3,241.6l0.3-0.9l-1.3-0.5l0.3-0.9l4,1.4l-0.7,1.9c-0.4,1.3-1.1,1.4-1.8,1.1c-0.5-0.2-1-0.6-1-1.3l-1.7,0.3l0.3-0.9
					L1039.3,241.6z"/>
				<polygon class="st4" points="1040.2,246.6 1038.5,249.3 1037.8,248.9 1039,247 1038.3,246.6 1037.1,248.4 1036.4,248 
					1037.6,246.1 1036.8,245.7 1035.6,247.6 1034.9,247.2 1036.6,244.4 				"/>
				<path class="st4" d="M1034.1,251.5L1034.1,251.5c-0.3,0.4-0.4,0.6-0.1,0.9c0.4,0.3,0.6,0.3,1-0.1l0.7-0.8l-0.9-0.8L1034.1,251.5
					z M1033.6,250.9l0.6-0.7l-1-1l0.6-0.7l3.1,2.9l-1.4,1.5c-0.9,1-1.5,0.8-2.1,0.3c-0.4-0.4-0.7-0.9-0.4-1.6l-1.7-0.4l0.7-0.7
					L1033.6,250.9z"/>
				<polygon class="st4" points="1032.4,255.8 1029.8,257.6 1029.3,257 1031.1,255.7 1030.6,255 1028.9,256.2 1028.4,255.6 
					1030.2,254.3 1029.7,253.6 1027.8,254.9 1027.3,254.2 1030,252.4 				"/>
				<path class="st4" d="M1017.3,259.8L1017.3,259.8c-0.5,0.1-0.7,0.2-0.7,0.7c0.1,0.5,0.3,0.6,0.8,0.5l1.1-0.1l-0.1-1.2
					L1017.3,259.8z M1017.4,259l0.9-0.1l-0.2-1.4l0.9-0.1l0.5,4.2l-2,0.2c-1.3,0.1-1.7-0.4-1.8-1.2c-0.1-0.6,0.1-1.1,0.7-1.4l-1-1.4
					l1-0.1L1017.4,259z"/>
				<polygon class="st4" points="1013.2,262 1010.1,261.7 1010.1,260.8 1012.4,261 1012.5,260.2 1010.3,260 1010.4,259.2 
					1012.5,259.4 1012.6,258.5 1010.4,258.3 1010.4,257.4 1013.6,257.7 				"/>
				<path class="st4" d="M1008.4,259.2c-0.4,1.5-1.4,1.8-2.8,1.4c-0.7-0.2-1.1-0.6-1.4-1.1l0.8-0.4c0.2,0.3,0.4,0.5,0.9,0.7
					c0.9,0.3,1.4-0.1,1.6-0.9c0.2-0.8,0.1-1.4-0.8-1.7c-0.5-0.2-0.8-0.1-1.1,0.1l-0.4-0.8c0.4-0.2,0.9-0.4,1.9-0.1
					C1008.4,257,1008.8,257.9,1008.4,259.2"/>
				<polygon class="st4" points="1001.1,257.8 1002.4,258.5 1002,259.2 998.6,257.4 999,256.6 1000.3,257.3 1001.9,254.4 
					1002.8,254.8 				"/>
				<polygon class="st4" points="996.7,256 994.2,253.9 994.8,253.3 996.5,254.8 997,254.1 995.4,252.7 995.9,252.1 997.6,253.5 
					998.2,252.8 996.4,251.3 997,250.7 999.4,252.8 				"/>
				<path class="st6" d="M1036.2,228.2L1036.2,228.2c0,0.6,0.5,3.3,0.5,4.4c0,12.3-10,22.3-22.3,22.3c-5.5,0-12.8-3.3-16.7-6.6
					l0.3-0.4c12.4-15.9,32.5-19.4,37.8-19.7L1036.2,228.2z M1014.4,210.4L1014.4,210.4l1.6,4.6l4.9,0.1l-3.9,2.9l1.4,4.6
					c0.2-0.1,0.4-0.1,0.6-0.2c6.2-1.9,11.7-2.2,13.9-2.3C1028.8,214.3,1022.1,210.4,1014.4,210.4 M992.1,232.7
					c0-12.3,10-22.3,22.3-22.3l-1.6,4.6l-4.9,0.1l3.9,2.9l-1.4,4.7l4-2.8l3.9,2.8c-7.3,2.3-16.8,8.7-24.5,19
					C993.1,239.3,992.1,235.3,992.1,232.7"/>
				<path class="st4" d="M1000.3,239L1000.3,239c-0.4-0.3-0.7-0.3-1.1,0.2c-0.4,0.5-0.3,0.7,0,1c0.3,0.3,0.6,0.3,1-0.1
					C1000.6,239.6,1000.6,239.3,1000.3,239 M1000.4,241.6l0.3-0.3c0.9-1.1,0.6-1.4,0.3-1.7c0.1,0.3-0.1,0.6-0.5,1.1
					c-0.6,0.7-1.2,0.6-1.8,0.1c-0.6-0.6-0.8-1.2,0-2.1c0.8-0.9,1.5-0.9,2.4-0.1c1.2,1,1.3,1.8,0.1,3.2l-0.2,0.3L1000.4,241.6z"/>
				<path class="st4" d="M1004.8,236.2L1004.8,236.2l-1.4-0.7l0.6,1.5L1004.8,236.2z M1002.4,235l0.6-0.6l3.7,1.8l-0.7,0.6l-0.6-0.3
					l-1.3,1.1l0.2,0.6l-0.6,0.5L1002.4,235z"/>
				<path class="st4" d="M1008.2,234.4L1008.2,234.4c0.3-0.3,0.4-0.4,0.2-0.7c-0.2-0.3-0.4-0.2-0.7,0l-0.8,0.6l0.5,0.7L1008.2,234.4
					z M1007.2,233.1L1007.2,233.1c0.4-0.3,0.4-0.5,0.2-0.7c-0.2-0.2-0.3-0.2-0.7,0l-0.8,0.6l0.5,0.7L1007.2,233.1z M1004.8,232.9
					l1.4-1c0.8-0.6,1.3-0.6,1.7-0.1c0.3,0.4,0.3,0.7,0.1,1c0.4-0.2,0.7,0,1,0.4c0.5,0.7,0.2,1.2-0.6,1.8l-1.4,1L1004.8,232.9z"/>
				<path class="st4" d="M1010.8,231.1L1010.8,231.1c0.4-0.2,0.5-0.4,0.3-0.8c-0.2-0.4-0.4-0.4-0.9-0.1l-0.8,0.5l0.6,0.9
					L1010.8,231.1z M1011,231.8l-0.7,0.4l0.6,1.1l-0.7,0.4l-1.9-3.3l1.6-0.9c1-0.6,1.5-0.3,1.9,0.3c0.3,0.5,0.4,1-0.1,1.4l1.3,0.8
					l-0.8,0.5L1011,231.8z"/>
				
					<rect x="1012.9" y="228" transform="matrix(0.8975 -0.4409 0.4409 0.8975 2.4554 470.341)" class="st4" width="0.8" height="3.8"/>
				<polygon class="st4" points="1013.8,227.5 1014.6,227.2 1015.8,230 1017.5,229.3 1017.8,230 1015.3,231 				"/>
				<polygon class="st4" points="1018.8,226.4 1018.2,226.6 1018,225.9 1019.4,225.4 1020.5,229.1 1019.8,229.3 				"/>
				<path class="st4" d="M1023.4,227.1L1023.4,227.1c-0.1-0.4-0.3-0.5-0.9-0.4c-0.6,0.1-0.7,0.4-0.7,0.8c0.1,0.3,0.3,0.5,0.9,0.4
					C1023.4,227.8,1023.5,227.5,1023.4,227.1 M1023,225.6L1023,225.6c-0.1-0.3-0.3-0.4-0.8-0.3c-0.5,0.1-0.7,0.3-0.6,0.6
					c0.1,0.3,0.3,0.4,0.8,0.3C1022.9,226,1023,225.8,1023,225.6 M1021.1,227.8c-0.1-0.4-0.1-0.9,0.4-1.1c-0.4-0.1-0.6-0.3-0.7-0.7
					c-0.1-0.5,0.1-1,1.2-1.3c1.2-0.3,1.6,0.1,1.7,0.6c0.1,0.3,0.1,0.7-0.3,0.9c0.5,0,0.7,0.4,0.8,0.8c0.1,0.6-0.1,1.2-1.3,1.5
					C1021.7,228.8,1021.2,228.4,1021.1,227.8"/>
				<path class="st4" d="M1027,225.2L1027,225.2c-0.1-0.5-0.4-0.7-0.9-0.6c-0.6,0.1-0.7,0.4-0.7,0.8c0.1,0.4,0.3,0.6,0.8,0.6
					C1026.8,225.9,1027,225.6,1027,225.2 M1025.4,227.2l0.4-0.1c1.4-0.2,1.4-0.7,1.4-1.1c-0.1,0.3-0.5,0.4-1.1,0.5
					c-1,0.1-1.3-0.3-1.4-1.1c-0.1-0.8,0.2-1.4,1.3-1.6c1.2-0.2,1.7,0.3,1.9,1.4c0.2,1.5-0.1,2.2-2,2.5l-0.4,0L1025.4,227.2z"/>
				<path class="st4" d="M1028.5,226.9l1.2-1.1c0.5-0.5,0.7-0.7,0.7-1.1c0-0.3-0.2-0.4-0.7-0.4c-0.4,0-0.8,0.2-1,0.3l-0.4-0.6
					c0.4-0.2,0.7-0.4,1.5-0.4c0.9-0.1,1.4,0.2,1.4,1c0,0.6-0.2,0.9-0.8,1.5l-0.7,0.7l1.7-0.1l0,0.7l-2.9,0.2L1028.5,226.9z"/>
				<polygon class="st6" points="1024.7,105.1 1016.1,99 1007.5,105.1 1010.6,95 1002.1,88.6 1012.7,88.5 1016.1,78.5 1019.5,88.5 
					1030.1,88.6 1021.6,95 				"/>
				<path class="st6" d="M992.6,300L992.6,300c2.1,0.8,2.7-0.7,3.4-2.3c0.7-1.6,1.3-3.2-0.8-4c-2.1-0.9-2.7,0.7-3.4,2.3
					C991.1,297.6,990.4,299.1,992.6,300 M992.9,299.1L992.9,299.1c-0.7-0.3-0.5-1,0.1-2.6c0.6-1.6,1-2.2,1.7-1.9
					c0.7,0.3,0.5,1-0.1,2.6C994,298.7,993.6,299.4,992.9,299.1 M985,297.4L985,297.4l2.1,0.6c2.3,0.6,2.8-1.6,3-2.6
					c0.6-2,0.6-3.2-1.2-3.7l-2.2-0.6L985,297.4z M987.9,292.4L987.9,292.4l0.7,0.2c0.9,0.3,0.6,1.3,0.3,2.5
					c-0.5,1.6-0.8,2.1-1.6,1.9l-0.6-0.2L987.9,292.4z M978.8,296.4L978.8,296.4c2.3,0.3,2.5-1.3,2.7-3.1c0.2-1.7,0.5-3.4-1.8-3.7
					c-2.2-0.3-2.5,1.3-2.7,3.1C976.8,294.4,976.6,296.1,978.8,296.4 M979,295.4L979,295.4c-0.8-0.1-0.8-0.8-0.5-2.5
					c0.2-1.7,0.4-2.4,1.2-2.3c0.8,0.1,0.8,0.8,0.5,2.5C979.9,294.8,979.7,295.5,979,295.4 M971.1,295.9L971.1,295.9l2.2,0
					c2.4,0.1,2.2-2.3,2.3-3.3c0-2-0.3-3.3-2.1-3.3l-2.3,0L971.1,295.9z M972.6,290.4L972.6,290.4l0.7,0c1,0,0.9,1.1,0.9,2.3
					c0,1.7-0.2,2.3-1,2.3l-0.7,0L972.6,290.4z M967.9,293.8L967.9,293.8l-1.3,0.2l0.3-2.9h0L967.9,293.8z M966.2,296.5L966.2,296.5
					l0.2-1.5l1.9-0.2l0.5,1.4l1.4-0.2l-2.6-6.3l-1.8,0.2l-1,6.8L966.2,296.5z M959.3,291.1L959.3,291.1l0.2,1.1l1.5-0.3l1.1,5.4
					l1.4-0.3l-1.1-5.4l1.5-0.3l-0.2-1.1L959.3,291.1z M959.4,295.9L959.4,295.9c-0.7-2-3.3-1-3.7-2.1c-0.1-0.4,0-0.8,0.4-0.9
					c0.5-0.2,0.8,0.3,0.9,0.7l1.3-0.4c-0.4-1.3-1.2-1.7-2.5-1.2c-1.6,0.5-1.8,1.5-1.4,2.5c0.6,1.9,3.3,1,3.7,2.1
					c0.1,0.4,0,0.8-0.4,0.9c-0.7,0.3-0.9-0.2-1.1-0.8l-1.3,0.5c0.3,1.1,0.9,1.9,2.5,1.4C958.9,298.1,960,297.6,959.4,295.9
					 M955,299.3L955,299.3l-0.4-0.9l-2.1,1l-0.8-1.7l1.8-0.9l-0.4-0.9l-1.8,0.9l-0.7-1.5l2-1l-0.4-0.9l-3.2,1.6l2.9,5.9L955,299.3z
					 M1014,301.1L1014,301.1c1.9,1.2,2.8-0.2,3.7-1.7c0.9-1.5,1.8-2.9-0.1-4.1c-1.9-1.2-2.8,0.2-3.7,1.7
					C1013,298.5,1012.1,299.9,1014,301.1 M1014.6,300.3L1014.6,300.3c-0.7-0.4-0.4-1.1,0.6-2.5c0.9-1.4,1.4-2,2-1.6
					c0.7,0.4,0.3,1.1-0.6,2.5C1015.7,300.1,1015.2,300.7,1014.6,300.3 M1010.8,298.9L1010.8,298.9l3.5-5.6l-1.2-0.7l-3.5,5.5
					L1010.8,298.9z M1007.5,293.6L1007.5,293.6l0.3,0.2c0.9,0.6,0.5,1.1,0.1,1.8c-0.2,0.4-0.5,0.7-0.6,1.2l1.1,0.7
					c0-0.3,0.7-1.4,0.9-1.7c0.6-1-0.1-1.5-0.3-1.7l0,0c0.8,0.4,1.4,0,1.9-0.7c0.6-0.9,0.4-1.8-0.4-2.3l-2.1-1.4l-3.5,5.6l1.2,0.7
					L1007.5,293.6z M1009,291.2L1009,291.2l0.5,0.3c0.4,0.2,0.5,0.6,0.1,1.1c-0.2,0.4-0.6,0.7-1.1,0.4l-0.5-0.3L1009,291.2z
					 M1073.8,297.9L1073.8,297.9c2.1-0.9,1.4-2.4,0.8-4c-0.7-1.6-1.3-3.1-3.4-2.2c-2.1,0.9-1.5,2.4-0.8,4
					C1071,297.3,1071.7,298.8,1073.8,297.9 M1073.4,297L1073.4,297c-0.7,0.3-1.1-0.3-1.8-1.9c-0.7-1.6-0.8-2.3-0.1-2.6
					c0.7-0.3,1.1,0.3,1.7,1.9C1073.9,296,1074.1,296.7,1073.4,297 M1066.7,297.4L1066.7,297.4l0.3-0.1c1-0.3,1.1,0.3,1.4,1.1
					c0.1,0.4,0.2,0.8,0.5,1.2l1.3-0.4c-0.2-0.2-0.6-1.4-0.7-1.8c-0.3-1.2-1.2-1-1.5-0.9l0,0c0.8-0.4,1-1.1,0.7-1.9
					c-0.3-1.1-1.1-1.5-2-1.2l-2.4,0.7l1.9,6.3l1.3-0.4L1066.7,297.4z M1065.9,294.7L1065.9,294.7l0.6-0.2c0.4-0.1,0.7,0,0.9,0.6
					c0.1,0.4,0.1,1-0.4,1.1l-0.6,0.2L1065.9,294.7z M1064.5,300.9L1064.5,300.9l-1.4-6.4l-1.4,0.3l1.4,6.4L1064.5,300.9z
					 M1061.9,301.4L1061.9,301.4l-0.2-1l-2.3,0.4l-0.3-1.9l2-0.3l-0.2-1l-2,0.3l-0.3-1.6l2.2-0.3l-0.2-1l-3.6,0.6l1,6.5
					L1061.9,301.4z M1052.7,302.3L1052.7,302.3l-0.2-4.8h0l2,4.7l1.8-0.1l-0.3-6.6l-1.3,0.1l0.2,4.6l0,0l-2-4.5l-1.9,0.1l0.3,6.6
					L1052.7,302.3z M1048,299.8L1048,299.8l-1.3-0.1l0.8-2.8h0L1048,299.8z M1045.9,302.1L1045.9,302.1l0.5-1.4l1.9,0.1l0.3,1.5
					l1.5,0.1l-1.3-6.7l-1.8-0.1l-2.3,6.4L1045.9,302.1z M1043.2,295.1L1043.2,295.1l-0.8,5.1c0,0.3-0.3,0.5-0.6,0.5
					c-0.7-0.1-0.5-0.9-0.4-1.4l-1.4-0.2c-0.2,1.5-0.3,2.3,1.6,2.6c1,0.2,2-0.2,2.1-1.3l0.8-5L1043.2,295.1z M1036,300.2L1036,300.2
					l0.3-1l-2.2-0.7l0.6-1.8l1.9,0.6l0.3-1l-2-0.6l0.5-1.6l2.1,0.7l0.3-1l-3.4-1.1l-2,6.3L1036,300.2z M1026.6,296.6L1026.6,296.6
					l2,0.9c2.2,1,3-1.2,3.4-2.1c0.9-1.9,1.1-3.1-0.6-3.8l-2.1-1L1026.6,296.6z M1030.2,292.1l0.6,0.3c0.9,0.4,0.4,1.4-0.1,2.5
					c-0.7,1.5-1.1,2-1.9,1.7l-0.6-0.3L1030.2,292.1z M1074.8,284.3c-6.8,4.2-14.8,6.6-23.4,6.6c-8.6,0-16.6-2.4-23.4-6.6l-5.2,8.4
					l-15-9.3c0,0-2.8,4.5-5.2,8.5c-8.7-4.8-18.8-7.6-29.5-7.6c-11.8,0-22.8,3.3-32.1,9.1c0,0,6.7,10.8,8.7,14.1
					c6.8-4.2,14.8-6.6,23.4-6.6c8.6,0,16.6,2.4,23.4,6.6l5.2-8.4l14.8,9.2c0.9-1.4,3.3-5.1,5.3-8.4c8.7,4.8,18.8,7.5,29.5,7.5
					c11.8,0,22.8-3.3,32.1-9C1083.5,298.3,1076.4,287,1074.8,284.3"/>
			</g>
			<g>
				<path class="st4" d="M1146.4,196.4L1146.4,196.4V208h8.5c3.4,0,6-0.4,7.8-1.3c1.8-0.9,2.7-2.5,2.7-4.8c0-1.9-0.7-3.3-2-4.2
					s-3.3-1.3-5.9-1.3H1146.4z M1146.8,222v19.3c0,0.6-0.2,1.2-0.6,1.6c-0.4,0.5-0.9,0.7-1.6,0.7H1129c-0.6,0-1.1-0.2-1.5-0.7
					c-0.4-0.5-0.6-1-0.6-1.6v-56.7c0-0.6,0.2-1.2,0.6-1.6c0.4-0.5,0.9-0.7,1.5-0.7h35.4c6.1,0,10.9,1.5,14.6,4.5
					c3.9,3.2,5.9,7.5,5.9,12.8c0,6-1.6,10.3-4.9,12.9c-0.8,0.7-1.7,1.3-2.8,1.9c-1.1,0.6-2.2,1.1-3.5,1.6c1.5,0.9,2.8,1.9,3.8,2.9
					c1.1,1,1.9,2.1,2.6,3.1l9.7,18.1c0.5,0.9,0.5,1.7,0.1,2.5c-0.4,0.8-1,1.1-1.9,1.1h-17.9c-0.4,0-0.7-0.1-1.1-0.4
					c-0.4-0.3-0.6-0.6-0.8-0.9l-9-18.6l0.1,0.2c-0.2-0.3-0.4-0.5-0.6-0.8c-0.2-0.3-0.4-0.5-0.7-0.6c-0.4-0.3-1.8-0.5-4.4-0.5H1146.8
					z"/>
				<path class="st4" d="M1195.1,243.7c-0.5,0-1-0.2-1.3-0.7c-0.4-0.5-0.5-1-0.5-1.6v-56.7c0-0.6,0.2-1.2,0.5-1.6
					c0.4-0.5,0.8-0.7,1.3-0.7h13.1c0.5,0,0.9,0.2,1.3,0.7c0.4,0.5,0.5,1,0.5,1.6v56.7c0,0.6-0.2,1.2-0.5,1.6
					c-0.4,0.5-0.8,0.7-1.3,0.7H1195.1z"/>
				<path class="st4" d="M1256.4,202.8L1256.4,202.8c-2.3-2.3-5.7-3.4-10.1-3.4c-4.4,0-7.8,1.1-10.1,3.4c-2.3,2.3-3.5,5.7-3.5,10.1
					c0,4.5,1.1,7.9,3.5,10.1c2.3,2.3,5.7,3.4,10.1,3.4c4.4,0,7.8-1.1,10.1-3.4c2.3-2.3,3.5-5.6,3.5-10.1
					C1259.8,208.5,1258.7,205.1,1256.4,202.8 M1271,236.8c-5.6,5.2-13.8,7.8-24.7,7.8c-10.9,0-19.1-2.6-24.7-7.8
					c-5.6-5.2-8.4-13.2-8.4-23.9c0-10.7,2.8-18.7,8.4-23.9c5.6-5.2,13.8-7.9,24.7-7.9c10.9,0,19.1,2.6,24.7,7.9
					c5.6,5.2,8.4,13.2,8.4,23.9C1279.4,223.7,1276.6,231.6,1271,236.8"/>
				<path class="st4" d="M1340.8,204L1340.8,204c-1.6-2-4.1-3.1-7.3-3.1h-12.4v24.1h11.8c3.4,0,5.9-1,7.7-3c1.7-2,2.6-5,2.6-9
					C1343.2,209.1,1342.4,206.1,1340.8,204 M1334.1,182.3c8.4,0,15.2,2.8,20.5,8.5c5.2,5.6,7.8,13,7.8,22.2c0,8.9-2.6,16.3-7.9,22.1
					c-5.2,5.7-11.9,8.6-20.1,8.6h-31c-0.6,0-1.1-0.2-1.6-0.7c-0.4-0.5-0.6-1-0.6-1.6v-56.7c0-0.6,0.2-1.2,0.6-1.6
					c0.4-0.5,0.9-0.7,1.6-0.7H1334.1z"/>
				<path class="st4" d="M1367.6,243.7c-0.6,0-1.1-0.2-1.5-0.7c-0.4-0.5-0.6-1-0.6-1.6v-56.7c0-0.6,0.2-1.2,0.6-1.6
					c0.4-0.5,0.9-0.7,1.5-0.7h41.1c0.6,0,1.1,0.2,1.5,0.7c0.4,0.5,0.6,1,0.6,1.6v11.4c0,0.7-0.2,1.3-0.6,1.7
					c-0.4,0.5-0.9,0.7-1.5,0.7H1385v6.3h20.2c0.6,0,1.1,0.2,1.5,0.7c0.4,0.5,0.6,1,0.6,1.6v11.3c0,0.7-0.2,1.3-0.6,1.7
					c-0.4,0.5-0.9,0.7-1.5,0.7l-20.2,0.1v6.6h25.6c0.6,0,1.1,0.2,1.5,0.7c0.4,0.5,0.6,1,0.6,1.7v11.4c0,0.6-0.2,1.2-0.6,1.6
					c-0.4,0.5-0.9,0.7-1.5,0.7H1367.6z"/>
				<path class="st4" d="M1473.3,181.7c0.6,0,1,0.2,1.4,0.7c0.4,0.5,0.6,1,0.6,1.7v40.2c0,6.4-2,11.6-5.9,15.7c-3.9,4-8.9,6-15,6
					c-3.3,0-6.7-0.6-10.2-1.9c-1.7-0.6-3.1-1.1-4.2-1.6c-1.1-0.4-1.8-0.8-2.3-1.1c-0.2-0.2-0.5-0.4-0.7-0.8c-0.2-0.4-0.3-0.7-0.4-1
					l-2-17.9c-0.1-0.6,0-1.2,0.2-1.6c0.2-0.4,0.6-0.8,1-1c0.4-0.2,0.8-0.3,1.3-0.2c0.4,0.1,0.9,0.4,1.2,0.8c0.7,1,2.3,2.2,4.5,3.6
					c2.1,1.3,4.3,2,6.7,2c4.4,0,6.6-2.2,6.6-6.7v-34.6c0-0.7,0.2-1.3,0.6-1.7c0.4-0.5,0.9-0.7,1.5-0.7H1473.3z"/>
				<path class="st4" d="M1502.2,220.9L1502.2,220.9h13.1l-6.3-13.6L1502.2,220.9z M1527.2,243.7c-0.3,0-0.7-0.1-1.1-0.4
					c-0.4-0.3-0.7-0.6-0.8-0.9l-3.6-7.7h-26.4l-3.6,7.7c-0.2,0.4-0.5,0.7-0.8,0.9c-0.4,0.3-0.8,0.4-1.1,0.4h-14.6
					c-0.9,0-1.6-0.4-2-1.1c-0.4-0.7-0.4-1.5,0.1-2.4l29-56.6c0.1-0.3,0.4-0.6,0.8-0.9c0.4-0.3,0.8-0.4,1.1-0.4h12.5
					c0.3,0,0.7,0.1,1.1,0.4c0.4,0.3,0.7,0.6,0.8,0.9l27.3,56.6c0.4,0.9,0.4,1.7,0,2.4c-0.4,0.7-1,1.1-2,1.1H1527.2z"/>
				<path class="st4" d="M1582.5,207.4c1.3,2,2.7,4.1,4,6.1v-28.8c0-0.6,0.2-1.2,0.6-1.6c0.4-0.5,0.9-0.7,1.5-0.7h13.7
					c0.6,0,1.1,0.2,1.5,0.7c0.4,0.5,0.6,1,0.6,1.6v56.7c0,0.6-0.2,1.2-0.6,1.6c-0.4,0.5-0.9,0.7-1.5,0.7h-15.8
					c-0.2,0-0.5-0.1-0.9-0.3c-0.4-0.2-0.7-0.4-0.8-0.7l-19.9-29.8v28.3c0,0.6-0.2,1.2-0.6,1.6c-0.4,0.5-0.9,0.7-1.5,0.7h-13.7
					c-0.6,0-1.1-0.2-1.5-0.7c-0.4-0.5-0.6-1-0.6-1.6v-56.7c0-0.6,0.2-1.2,0.6-1.6c0.4-0.5,0.9-0.7,1.5-0.7h15.6c0.3,0,0.6,0.1,1,0.3
					c0.4,0.2,0.6,0.4,0.7,0.7c2.1,3.1,4.1,6.2,6,9.1c1.9,3,3.9,5.9,6,8.9C1579.9,203.4,1581.2,205.4,1582.5,207.4"/>
				<path class="st4" d="M1611.1,243.7c-0.6,0-1.1-0.2-1.5-0.7c-0.4-0.5-0.6-1-0.6-1.6v-56.7c0-0.6,0.2-1.2,0.6-1.6
					c0.4-0.5,0.9-0.7,1.5-0.7h41.1c0.6,0,1.1,0.2,1.5,0.7c0.4,0.5,0.6,1,0.6,1.6v11.4c0,0.7-0.2,1.3-0.6,1.7
					c-0.4,0.5-0.9,0.7-1.5,0.7h-23.7v6.3h20.2c0.6,0,1.1,0.2,1.5,0.7c0.4,0.5,0.6,1,0.6,1.6v11.3c0,0.7-0.2,1.3-0.6,1.7
					c-0.4,0.5-0.9,0.7-1.5,0.7l-20.2,0.1v6.6h25.6c0.6,0,1.1,0.2,1.5,0.7c0.4,0.5,0.6,1,0.6,1.7v11.4c0,0.6-0.2,1.2-0.6,1.6
					c-0.4,0.5-0.9,0.7-1.5,0.7H1611.1z"/>
				<path class="st4" d="M1661.1,243.7c-0.5,0-1-0.2-1.3-0.7c-0.4-0.5-0.5-1-0.5-1.6v-56.7c0-0.6,0.2-1.2,0.5-1.6
					c0.3-0.5,0.8-0.7,1.3-0.7h13.1c0.5,0,0.9,0.2,1.3,0.7c0.4,0.5,0.5,1,0.5,1.6v56.7c0,0.6-0.2,1.2-0.5,1.6
					c-0.4,0.5-0.8,0.7-1.3,0.7H1661.1z"/>
				<path class="st4" d="M1698.7,196.4L1698.7,196.4V208h8.5c3.4,0,6-0.4,7.8-1.3c1.8-0.9,2.7-2.5,2.7-4.8c0-1.9-0.7-3.3-2-4.2
					c-1.4-0.9-3.3-1.3-5.9-1.3H1698.7z M1699.1,222v19.3c0,0.6-0.2,1.2-0.6,1.6c-0.4,0.5-0.9,0.7-1.6,0.7h-15.6
					c-0.6,0-1.1-0.2-1.5-0.7c-0.4-0.5-0.6-1-0.6-1.6v-56.7c0-0.6,0.2-1.2,0.6-1.6c0.4-0.5,0.9-0.7,1.5-0.7h35.4
					c6.1,0,10.9,1.5,14.6,4.5c3.9,3.2,5.9,7.5,5.9,12.8c0,6-1.6,10.3-4.9,12.9c-0.8,0.7-1.7,1.3-2.8,1.9c-1.1,0.6-2.2,1.1-3.5,1.6
					c1.5,0.9,2.8,1.9,3.8,2.9c1.1,1,1.9,2.1,2.6,3.1l9.7,18.1c0.5,0.9,0.5,1.7,0.1,2.5c-0.4,0.8-1,1.1-1.9,1.1h-17.9
					c-0.4,0-0.7-0.1-1.1-0.4c-0.4-0.3-0.6-0.6-0.8-0.9l-9-18.6l0.1,0.2c-0.2-0.3-0.4-0.5-0.6-0.8c-0.2-0.3-0.4-0.5-0.7-0.6
					c-0.4-0.3-1.8-0.5-4.4-0.5H1699.1z"/>
				<path class="st4" d="M1781.3,202.8L1781.3,202.8c-2.3-2.3-5.7-3.4-10.1-3.4c-4.4,0-7.8,1.1-10.1,3.4c-2.3,2.3-3.5,5.7-3.5,10.1
					c0,4.5,1.2,7.9,3.5,10.1c2.3,2.3,5.7,3.4,10.1,3.4c4.4,0,7.8-1.1,10.1-3.4c2.3-2.3,3.5-5.6,3.5-10.1
					C1784.8,208.5,1783.6,205.1,1781.3,202.8 M1795.9,236.8c-5.6,5.2-13.8,7.8-24.7,7.8c-10.9,0-19.1-2.6-24.7-7.8
					c-5.6-5.2-8.4-13.2-8.4-23.9c0-10.7,2.8-18.7,8.4-23.9c5.6-5.2,13.8-7.9,24.7-7.9c10.9,0,19.1,2.6,24.7,7.9
					c5.6,5.2,8.4,13.2,8.4,23.9C1804.3,223.7,1801.5,231.6,1795.9,236.8"/>
				<g>
					<path class="st4" d="M1126.7,149.5c0-11.1,5.2-15.8,14.5-15.8c5.6,0,9,1.8,11.2,4.3l-4.2,4.7c-1.4-1.5-3.2-2.8-7-2.8
						c-6,0-8.4,3.3-8.4,9.7c0,6.7,1.6,10,8.3,10c5.4,0,6.9-2,6.9-6.3v-0.7h-7.7V147h13.7v5c0,8.7-3.1,13.3-13.2,13.3
						C1129.8,165.3,1126.7,159.6,1126.7,149.5"/>
					<path class="st4" d="M1193.8,149.6L1193.8,149.6c0-6-2.1-9.7-8.4-9.7c-6.3,0-8.4,3.7-8.4,9.7c0,6,2.1,9.8,8.4,9.8
						C1191.7,159.4,1193.8,155.6,1193.8,149.6 M1170.8,149.5c0-11.5,5.8-15.8,14.6-15.8c8.8,0,14.6,4.3,14.6,15.8
						c0,11.5-5.8,15.8-14.6,15.8C1176.6,165.3,1170.8,161,1170.8,149.5"/>
					<polygon class="st4" points="1215.2,134.2 1221.6,134.2 1229.3,156.6 1237,134.2 1243.3,134.2 1232.3,165 1226.1,165 					"/>
					<polygon class="st4" points="1261.1,134.2 1281.8,134.2 1281.8,140.3 1267.2,140.3 1267.2,146.3 1281.4,146.3 1281.4,152.2 
						1267.2,152.2 1267.2,158.9 1282,158.9 1282,164.8 1261.1,164.8 					"/>
					<path class="st4" d="M1314.3,148.8L1314.3,148.8c3.3,0,4.8-0.9,4.8-4.4c0-3.6-1.4-4.5-4.9-4.5h-7.1v8.8H1314.3z M1313.3,154.6
						h-6.2v10.2h-5.9v-30.6h13.3c8.7,0,10.7,4.1,10.7,10c0,4.2-1.2,8.1-5.8,9.7l5.5,10.9h-6.5L1313.3,154.6z"/>
					<polygon class="st4" points="1344.5,134.2 1351,134.2 1363.7,153.5 1363.7,134.2 1369.5,134.2 1369.5,164.8 1363.9,164.8 
						1350.3,144.1 1350.3,164.8 1344.5,164.8 					"/>
					<path class="st4" d="M1411.1,149.6L1411.1,149.6c0-6-2.1-9.7-8.4-9.7c-6.3,0-8.4,3.7-8.4,9.7c0,6,2.1,9.8,8.4,9.8
						C1409,159.4,1411.1,155.6,1411.1,149.6 M1388.1,149.5c0-11.5,5.8-15.8,14.6-15.8c8.8,0,14.6,4.3,14.6,15.8
						c0,11.5-5.8,15.8-14.6,15.8C1393.9,165.3,1388.1,161,1388.1,149.5"/>
					<path class="st4" d="M1468.5,158.9L1468.5,158.9c7.5,0,9-2.5,9-9.4c0-6.9-1.3-9.2-9.1-9.2h-3.9v18.6H1468.5z M1458.4,134.2h9.9
						c10.9,0,15.4,3.1,15.4,15.3c0,11.9-4.6,15.3-15.5,15.3h-9.7V134.2z"/>
					<path class="st4" d="M1523.7,149.6L1523.7,149.6c0-6-2.1-9.7-8.4-9.7c-6.3,0-8.4,3.7-8.4,9.7c0,6,2.1,9.8,8.4,9.8
						C1521.6,159.4,1523.7,155.6,1523.7,149.6 M1500.7,149.5c0-11.5,5.8-15.8,14.6-15.8s14.6,4.3,14.6,15.8
						c0,11.5-5.8,15.8-14.6,15.8S1500.7,161,1500.7,149.5"/>
					<polygon class="st4" points="1571,134.2 1591.7,134.2 1591.7,140.3 1577.1,140.3 1577.1,146.3 1591.4,146.3 1591.4,152.2 
						1577.1,152.2 1577.1,158.9 1591.9,158.9 1591.9,164.8 1571,164.8 					"/>
					<path class="st4" d="M1608.8,161.3l3-4.9c2.9,2.2,6.4,3.3,9.9,3.3c5.4,0,6.4-1.2,6.4-3.7c0-2.5-2.3-3-6.5-3.7
						c-7.4-1.2-11.2-2.6-11.2-9.3c0-6.8,3.7-9.3,11.5-9.3c5.6,0,9,1.4,11.1,3l-3.3,5.2c-1.7-1.3-5-2.4-8-2.4c-4.3,0-5.4,0.9-5.4,3.2
						c0,2.5,2.3,2.9,6.7,3.6c6.6,1.1,11,2.3,11,9.2c0,6.2-3,9.7-12.2,9.7C1616.4,165.3,1611.9,163.8,1608.8,161.3"/>
					<polygon class="st4" points="1658.9,140.3 1649.4,140.3 1649.4,134.2 1674.6,134.2 1674.6,140.3 1665.1,140.3 1665.1,164.8 
						1658.9,164.8 					"/>
					<path class="st4" d="M1704.7,154.2L1704.7,154.2l-4.3-12.2l-4.3,12.2H1704.7z M1697.4,134h6.2l11.1,30.8h-6.3l-1.8-5h-12.5
						l-1.8,5h-5.9L1697.4,134z"/>
					<path class="st4" d="M1742.6,158.9L1742.6,158.9c7.5,0,9-2.5,9-9.4c0-6.9-1.3-9.2-9.1-9.2h-3.9v18.6H1742.6z M1732.6,134.2h9.9
						c10.9,0,15.3,3.1,15.3,15.3c0,11.9-4.6,15.3-15.5,15.3h-9.7V134.2z"/>
					<path class="st4" d="M1797.9,149.6L1797.9,149.6c0-6-2.1-9.7-8.4-9.7c-6.3,0-8.4,3.7-8.4,9.7c0,6,2.1,9.8,8.4,9.8
						C1795.7,159.4,1797.9,155.6,1797.9,149.6 M1774.9,149.5c0-11.5,5.8-15.8,14.6-15.8c8.8,0,14.6,4.3,14.6,15.8
						c0,11.5-5.8,15.8-14.6,15.8C1780.6,165.3,1774.9,161,1774.9,149.5"/>
				</g>
			</g>
		</g>
	</g>
</g>
<g class="st15">
	<g class="st16">
		<path d="M130.2,251.9v-2.7h-8.9v2.7h2.5v9.8h-2.5v2.7h8.9v-2.7h-2.5v-9.8H130.2z M143.7,253.7c-0.7-0.7-1.7-1.1-2.9-1.1
			c-0.7,0-1.4,0.1-2,0.4c-0.6,0.3-1.2,0.7-1.9,1.2v-1.3h-3.7v11.4h3.7v-8.1c0.4-0.2,0.8-0.4,1.1-0.5c0.3-0.1,0.7-0.2,1-0.2
			c0.5,0,0.8,0.1,1.1,0.2c0.3,0.1,0.5,0.3,0.6,0.6c0.1,0.2,0.2,0.5,0.2,1c0,0.5,0.1,0.9,0.1,1.4v5.7h3.7v-7.4
			C144.7,255.5,144.4,254.4,143.7,253.7z M157.3,258.7c-0.5-0.5-1.2-0.9-2.1-1.2c-0.4-0.1-0.9-0.2-1.3-0.3c-0.4-0.1-0.8-0.1-1.2-0.2
			c-0.7-0.1-1.1-0.3-1.3-0.4c-0.2-0.1-0.3-0.4-0.3-0.6c0-0.3,0.2-0.5,0.6-0.7c0.4-0.2,0.9-0.3,1.5-0.3c0.7,0,1.4,0.1,2.1,0.4
			c0.7,0.2,1.3,0.5,1.9,0.9h0.3v-2.9c-0.4-0.2-1-0.4-1.8-0.6c-0.8-0.2-1.6-0.3-2.5-0.3c-1.8,0-3.2,0.4-4.3,1.1
			c-1,0.7-1.6,1.6-1.6,2.7c0,0.9,0.2,1.6,0.7,2.1c0.5,0.6,1.3,1,2.3,1.3c0.4,0.1,0.8,0.2,1.3,0.3c0.5,0.1,0.8,0.1,1.1,0.2
			c0.6,0.1,1,0.2,1.2,0.4c0.2,0.1,0.3,0.3,0.3,0.6c0,0.3-0.2,0.5-0.5,0.7c-0.4,0.2-0.9,0.2-1.6,0.2c-0.5,0-1.1-0.1-1.5-0.2
			c-0.5-0.1-0.9-0.2-1.3-0.4c-0.4-0.2-0.8-0.3-1-0.5c-0.2-0.2-0.4-0.3-0.6-0.4h-0.3v3c0.5,0.2,1.2,0.4,2,0.6
			c0.8,0.2,1.7,0.3,2.8,0.3c1.8,0,3.3-0.4,4.3-1.1c1.1-0.7,1.6-1.7,1.6-2.9C158,259.9,157.8,259.3,157.3,258.7z M167.8,255.4v-2.5
			h-3.4v-3.3h-3.7v3.3h-1.5v2.5h1.5v5.4c0,1.4,0.4,2.4,1,3c0.7,0.6,1.8,0.9,3.2,0.9c0.6,0,1.2,0,1.6-0.1c0.4-0.1,0.9-0.1,1.2-0.2
			v-2.5h-0.3c-0.1,0.1-0.3,0.1-0.7,0.2c-0.3,0.1-0.5,0.1-0.7,0.1c-0.5,0-0.8-0.1-1.1-0.2c-0.2-0.1-0.4-0.3-0.5-0.6
			c-0.1-0.2-0.2-0.5-0.2-0.8c0-0.3,0-0.6,0-1.1v-4.1H167.8z M169.9,252.9v11.4h3.7v-11.4H169.9z M169.8,248.5v2.8h3.9v-2.8H169.8z
			 M184.4,255.4v-2.5h-3.4v-3.3h-3.7v3.3h-1.5v2.5h1.5v5.4c0,1.4,0.4,2.4,1,3c0.7,0.6,1.8,0.9,3.2,0.9c0.6,0,1.2,0,1.6-0.1
			c0.4-0.1,0.9-0.1,1.2-0.2v-2.5h-0.3c-0.1,0.1-0.3,0.1-0.7,0.2c-0.3,0.1-0.6,0.1-0.8,0.1c-0.5,0-0.8-0.1-1.1-0.2
			c-0.2-0.1-0.4-0.3-0.5-0.6c-0.1-0.2-0.2-0.5-0.2-0.8c0-0.3,0-0.6,0-1.1v-4.1H184.4z M194.3,252.9v8.1c-0.4,0.2-0.7,0.4-1.1,0.5
			c-0.4,0.1-0.7,0.2-1,0.2c-0.5,0-0.8-0.1-1.1-0.2c-0.3-0.1-0.5-0.3-0.6-0.5c-0.1-0.2-0.2-0.6-0.3-0.9c0-0.4,0-0.9,0-1.4v-5.7h-3.7
			v7.4c0,1.4,0.3,2.5,1,3.2c0.7,0.7,1.7,1.1,2.9,1.1c0.8,0,1.5-0.1,2-0.4c0.6-0.3,1.2-0.7,1.9-1.2v1.2h3.7v-11.4H194.3z
			 M208.7,255.4v-2.5h-3.4v-3.3h-3.7v3.3h-1.5v2.5h1.5v5.4c0,1.4,0.3,2.4,1,3c0.7,0.6,1.7,0.9,3.2,0.9c0.6,0,1.2,0,1.6-0.1
			c0.4-0.1,0.9-0.1,1.3-0.2v-2.5h-0.3c-0.1,0.1-0.3,0.1-0.7,0.2c-0.3,0.1-0.6,0.1-0.7,0.1c-0.5,0-0.8-0.1-1-0.2
			c-0.3-0.1-0.4-0.3-0.5-0.6c-0.1-0.2-0.2-0.5-0.2-0.8c0-0.3,0-0.6,0-1.1v-4.1H208.7z M221,254.2c-1.1-1.1-2.6-1.6-4.6-1.6
			c-2,0-3.5,0.5-4.6,1.6c-1.1,1.1-1.7,2.6-1.7,4.5c0,1.9,0.6,3.4,1.6,4.4c1.1,1.1,2.6,1.6,4.6,1.6c2,0,3.5-0.5,4.6-1.6
			c1.1-1.1,1.6-2.6,1.6-4.4C222.6,256.8,222.1,255.3,221,254.2z M218.6,260.4c-0.1,0.4-0.3,0.8-0.5,1.1c-0.2,0.3-0.5,0.4-0.8,0.6
			c-0.3,0.1-0.6,0.2-1,0.2c-0.4,0-0.7-0.1-1-0.2c-0.3-0.1-0.6-0.3-0.8-0.6c-0.2-0.3-0.4-0.6-0.5-1.1c-0.1-0.5-0.2-1-0.2-1.6
			c0-0.7,0.1-1.3,0.2-1.7c0.1-0.5,0.3-0.8,0.5-1.1c0.3-0.3,0.5-0.5,0.8-0.6c0.3-0.1,0.6-0.1,0.9-0.1c0.4,0,0.7,0.1,1,0.2
			c0.3,0.1,0.6,0.3,0.8,0.6c0.2,0.3,0.4,0.6,0.5,1.1c0.1,0.5,0.2,1,0.2,1.7C218.8,259.4,218.7,259.9,218.6,260.4z M239.8,248.5v4.9
			c-0.5-0.2-0.9-0.4-1.4-0.5c-0.4-0.2-1-0.2-1.7-0.2c-0.7,0-1.3,0.1-2,0.4c-0.7,0.3-1.2,0.7-1.7,1.2c-0.5,0.5-0.9,1.2-1.2,1.9
			c-0.3,0.8-0.4,1.6-0.4,2.6c0,1.8,0.4,3.3,1.3,4.3c0.8,1.1,1.9,1.6,3.3,1.6c0.7,0,1.4-0.1,1.9-0.4c0.5-0.2,1.1-0.6,1.8-1.1v1.2h3.7
			v-15.8H239.8z M239.8,261.2c-0.3,0.2-0.6,0.4-1,0.5c-0.4,0.1-0.7,0.2-1.1,0.2c-0.8,0-1.5-0.3-1.9-0.8c-0.4-0.5-0.6-1.3-0.6-2.4
			c0-1.1,0.2-1.9,0.7-2.5c0.5-0.6,1.2-0.9,2.2-0.9c0.2,0,0.5,0,0.8,0.1c0.3,0.1,0.5,0.1,0.8,0.2V261.2z M258.2,258
			c0-1.8-0.5-3.1-1.4-4.1c-0.9-0.9-2.3-1.4-4.2-1.4c-2,0-3.6,0.6-4.8,1.7c-1.2,1.1-1.7,2.6-1.7,4.5c0,1.9,0.6,3.4,1.8,4.4
			c1.2,1,3,1.5,5.3,1.5c0.9,0,1.7-0.1,2.4-0.2c0.7-0.1,1.5-0.4,2.3-0.7v-3h-0.4c-0.4,0.3-1,0.6-1.7,0.9c-0.7,0.3-1.5,0.4-2.2,0.4
			c-1.2,0-2.2-0.2-2.8-0.7c-0.6-0.5-1-1.2-1-2h8.4V258z M249.8,257.2c0.1-0.8,0.3-1.4,0.8-1.8c0.5-0.4,1-0.5,1.7-0.5
			c0.8,0,1.3,0.2,1.7,0.6c0.4,0.4,0.5,1,0.6,1.7H249.8z M133.3,282.4c-0.5-0.7-1.4-1.2-2.6-1.5c-0.6-0.2-1.1-0.3-1.7-0.4
			c-0.5-0.1-1.1-0.2-1.6-0.3c-0.8-0.2-1.4-0.4-1.7-0.6c-0.3-0.2-0.5-0.5-0.5-0.9c0-0.3,0.1-0.5,0.3-0.7c0.2-0.2,0.4-0.4,0.7-0.5
			c0.3-0.1,0.6-0.2,0.9-0.3c0.3,0,0.6-0.1,1-0.1c0.9,0,1.8,0.2,2.7,0.5c0.9,0.3,1.6,0.8,2.3,1.2h0.4v-3.5c-0.7-0.3-1.6-0.5-2.5-0.7
			c-1-0.2-2-0.3-3-0.3c-2,0-3.6,0.4-4.9,1.3c-1.3,0.9-1.9,2-1.9,3.5c0,1.1,0.3,1.9,0.8,2.6c0.6,0.7,1.5,1.3,2.7,1.7
			c0.6,0.2,1.2,0.3,1.8,0.5c0.6,0.1,1.2,0.2,1.8,0.4c0.5,0.1,1,0.3,1.2,0.5c0.3,0.2,0.4,0.5,0.4,0.9c0,0.4-0.1,0.6-0.3,0.8
			c-0.2,0.2-0.4,0.3-0.7,0.5c-0.3,0.1-0.6,0.2-1,0.2c-0.4,0-0.7,0.1-0.9,0.1c-0.9,0-1.9-0.2-2.9-0.5c-1-0.3-1.9-0.8-2.7-1.5h-0.4
			v3.6c0.8,0.3,1.7,0.6,2.6,0.8c0.9,0.2,2,0.3,3.3,0.3c2.2,0,3.9-0.5,5.1-1.4c1.3-0.9,1.9-2.1,1.9-3.6
			C134.2,283.9,133.9,283,133.3,282.4z M147.9,283.4c0-1.8-0.5-3.1-1.4-4.1c-0.9-0.9-2.3-1.4-4.2-1.4c-2,0-3.6,0.6-4.8,1.7
			c-1.2,1.1-1.7,2.6-1.7,4.5c0,1.9,0.6,3.4,1.8,4.4c1.2,1,3,1.5,5.3,1.5c0.9,0,1.7-0.1,2.4-0.2c0.7-0.1,1.5-0.4,2.3-0.7v-2.9h-0.4
			c-0.4,0.3-1,0.6-1.7,0.9c-0.7,0.3-1.5,0.4-2.2,0.4c-1.2,0-2.1-0.2-2.8-0.7c-0.6-0.5-1-1.2-1-2.1h8.4V283.4z M139.5,282.5
			c0.1-0.8,0.3-1.4,0.8-1.8c0.5-0.4,1-0.6,1.7-0.6c0.8,0,1.3,0.2,1.7,0.6c0.4,0.4,0.6,1,0.6,1.7H139.5z M158.1,278.3l-0.1,0.5
			c-0.4-0.3-0.9-0.5-1.4-0.6c-0.5-0.1-1.1-0.2-1.7-0.2c-0.7,0-1.3,0.1-2,0.4c-0.7,0.3-1.2,0.6-1.7,1.1c-0.5,0.5-0.9,1.1-1.1,1.8
			c-0.3,0.7-0.4,1.5-0.4,2.5c0,2,0.4,3.4,1.3,4.4c0.9,1,2.1,1.5,3.7,1.5c0.7,0,1.3-0.1,1.8-0.3c0.5-0.2,1-0.5,1.5-0.9v0.2
			c0,0.5-0.1,0.9-0.2,1.2c-0.1,0.3-0.2,0.6-0.4,0.8c-0.2,0.2-0.6,0.4-1,0.5c-0.4,0.1-1,0.2-1.6,0.2c-0.5,0-1.1-0.1-1.7-0.2
			c-0.6-0.1-1.2-0.3-1.6-0.5h-0.4v2.9c0.6,0.1,1.2,0.2,2,0.3c0.8,0.1,1.5,0.1,2.3,0.1c1,0,1.9-0.1,2.6-0.3c0.8-0.2,1.4-0.5,2-0.9
			c0.6-0.4,1-1,1.3-1.7c0.3-0.7,0.5-1.6,0.5-2.7v-10.1H158.1z M158,286.1c-0.3,0.2-0.6,0.4-1,0.5c-0.3,0.1-0.7,0.2-1.1,0.2
			c-0.8,0-1.4-0.2-1.8-0.7c-0.4-0.4-0.6-1.2-0.6-2.3c0-1,0.2-1.8,0.7-2.3c0.5-0.5,1.2-0.8,2.2-0.8c0.2,0,0.5,0,0.8,0.1
			c0.3,0.1,0.6,0.1,0.8,0.2V286.1z M172.8,278.3v8.1c-0.4,0.2-0.7,0.4-1.1,0.5c-0.4,0.1-0.7,0.2-1,0.2c-0.5,0-0.8-0.1-1.1-0.2
			c-0.3-0.1-0.5-0.3-0.6-0.5c-0.1-0.2-0.2-0.6-0.3-0.9c0-0.4-0.1-0.9-0.1-1.4v-5.7H165v7.4c0,1.4,0.3,2.5,1,3.2
			c0.7,0.7,1.7,1.1,2.9,1.1c0.8,0,1.5-0.1,2-0.4c0.6-0.3,1.2-0.7,1.9-1.2v1.3h3.7v-11.4H172.8z M187.8,278.2c-0.2,0-0.3,0-0.4,0
			c-0.5,0-1.1,0.1-1.7,0.3c-0.6,0.2-1.3,0.7-2.1,1.4v-1.7h-3.7v11.4h3.7V282c0.5-0.2,0.9-0.3,1.3-0.3c0.4-0.1,0.9-0.1,1.4-0.1
			c0.2,0,0.5,0,0.9,0c0.3,0,0.6,0.1,0.8,0.1h0.3v-3.5C188.1,278.2,188,278.2,187.8,278.2z M199.5,278.9c-0.9-0.7-2.4-1-4.5-1
			c-0.9,0-1.8,0.1-2.6,0.2c-0.9,0.1-1.5,0.3-1.9,0.4v2.8h0.3c0.3-0.1,0.8-0.3,1.5-0.5c0.7-0.2,1.3-0.3,1.9-0.3c1,0,1.8,0.1,2.3,0.4
			c0.5,0.2,0.8,0.7,0.8,1.3v0.1c-1.1,0.1-2.1,0.2-3.1,0.3c-1,0.1-1.8,0.3-2.5,0.7c-0.7,0.3-1.2,0.7-1.6,1.3c-0.4,0.5-0.6,1.2-0.6,2
			c0,1,0.4,1.9,1.1,2.6c0.7,0.7,1.6,1,2.7,1c0.5,0,0.9,0,1.3-0.1c0.4-0.1,0.8-0.2,1.1-0.4c0.3-0.1,0.5-0.3,0.8-0.5
			c0.3-0.2,0.5-0.4,0.7-0.5v1.2h3.6v-7.8C200.9,280.5,200.4,279.5,199.5,278.9z M197.2,286.7c-0.3,0.2-0.6,0.4-1,0.6
			c-0.4,0.1-0.8,0.2-1.1,0.2c-0.5,0-0.8,0-1-0.1c-0.2-0.1-0.4-0.2-0.6-0.3c-0.2-0.1-0.3-0.3-0.3-0.4c0-0.1-0.1-0.3-0.1-0.6
			c0-0.4,0.1-0.6,0.3-0.9c0.2-0.2,0.5-0.4,0.8-0.5c0.3-0.1,0.7-0.2,1.3-0.3c0.6-0.1,1.1-0.1,1.6-0.2V286.7z M214.7,279
			c-0.7-0.7-1.7-1.1-2.9-1.1c-0.7,0-1.4,0.1-2,0.4c-0.6,0.3-1.2,0.7-1.9,1.2v-1.3h-3.7v11.4h3.7v-8.1c0.4-0.2,0.8-0.4,1.1-0.5
			c0.3-0.1,0.7-0.2,1-0.2c0.5,0,0.8,0.1,1.1,0.2c0.3,0.1,0.5,0.3,0.6,0.6c0.1,0.2,0.2,0.5,0.3,1c0,0.5,0.1,0.9,0.1,1.4v5.7h3.7v-7.4
			C215.7,280.8,215.4,279.7,214.7,279z M225.1,280.6c0.4,0,0.8,0,1.2,0.2c0.3,0.1,0.6,0.2,0.9,0.4c0.3,0.2,0.5,0.3,0.7,0.5
			c0.2,0.2,0.4,0.3,0.5,0.4h0.5v-3.1c-0.6-0.3-1.2-0.5-1.8-0.7c-0.7-0.2-1.4-0.3-2.2-0.3c-0.9,0-1.7,0.1-2.5,0.3
			c-0.8,0.2-1.5,0.6-2.1,1c-0.6,0.5-1.1,1.2-1.5,1.9c-0.4,0.8-0.5,1.7-0.5,2.8c0,1,0.2,1.9,0.5,2.6c0.3,0.7,0.8,1.3,1.3,1.8
			c0.6,0.5,1.3,0.9,2.1,1.1c0.8,0.3,1.7,0.4,2.6,0.4v0.5c0,0.5-0.1,1-0.4,1.2c-0.3,0.3-0.7,0.4-1.3,0.4c-0.3,0-0.6,0-0.9-0.1
			c-0.3-0.1-0.6-0.2-0.7-0.2h-0.2v2c0.3,0.1,0.7,0.2,1.1,0.2c0.4,0,0.8,0,1,0c1.1,0,2-0.3,2.6-0.9c0.7-0.6,1-1.4,1-2.5
			c0-0.1,0-0.3,0-0.4c0-0.2,0-0.3,0-0.4c0.4-0.1,0.7-0.2,1-0.3c0.3-0.1,0.6-0.2,0.9-0.3V286h-0.5c-0.1,0.1-0.3,0.3-0.5,0.4
			c-0.2,0.1-0.4,0.3-0.6,0.4c-0.2,0.1-0.5,0.3-0.9,0.4c-0.4,0.1-0.8,0.1-1.2,0.1c-1,0-1.8-0.3-2.3-0.8c-0.5-0.6-0.8-1.4-0.8-2.5
			c0-1.1,0.3-1.9,0.8-2.5C223.3,280.9,224.1,280.6,225.1,280.6z M240.5,278.9c-0.9-0.7-2.4-1-4.5-1c-0.9,0-1.7,0.1-2.6,0.2
			c-0.9,0.1-1.5,0.3-1.9,0.4v2.8h0.3c0.3-0.1,0.8-0.3,1.5-0.5c0.7-0.2,1.3-0.3,1.9-0.3c1,0,1.8,0.1,2.3,0.4c0.5,0.2,0.8,0.7,0.8,1.3
			v0.1c-1.1,0.1-2.1,0.2-3.1,0.3c-1,0.1-1.8,0.3-2.5,0.7c-0.7,0.3-1.2,0.7-1.6,1.3c-0.4,0.5-0.6,1.2-0.6,2c0,1,0.4,1.9,1.1,2.6
			c0.7,0.7,1.6,1,2.7,1c0.5,0,0.9,0,1.3-0.1c0.4-0.1,0.8-0.2,1.1-0.4c0.3-0.1,0.5-0.3,0.8-0.5c0.3-0.2,0.5-0.4,0.7-0.5v1.2h3.6v-7.8
			C241.9,280.5,241.4,279.5,240.5,278.9z M238.3,286.7c-0.3,0.2-0.6,0.4-1,0.6c-0.4,0.1-0.7,0.2-1.1,0.2c-0.5,0-0.8,0-1-0.1
			c-0.2-0.1-0.4-0.2-0.6-0.3c-0.2-0.1-0.3-0.3-0.3-0.4c0-0.1-0.1-0.3-0.1-0.6c0-0.4,0.1-0.6,0.3-0.9c0.2-0.2,0.5-0.4,0.8-0.5
			c0.3-0.1,0.7-0.2,1.3-0.3c0.6-0.1,1.1-0.1,1.6-0.2V286.7z M264.6,277.1c-0.3-0.6-0.8-1.1-1.4-1.5c-0.5-0.3-1.1-0.6-1.8-0.8
			c-0.7-0.2-1.5-0.2-2.4-0.2h-6.4v15.2h3.9v-4.9h2.4c1.1,0,2-0.1,2.8-0.5c0.7-0.3,1.4-0.8,2-1.4c0.4-0.4,0.8-1,1-1.6
			c0.2-0.6,0.4-1.3,0.4-2C265.1,278.4,264.9,277.7,264.6,277.1z M260.9,280.5c-0.1,0.3-0.3,0.6-0.5,0.8c-0.3,0.2-0.7,0.4-1.1,0.5
			c-0.4,0.1-1,0.1-1.6,0.1h-1.1v-4.5h0.7c0.6,0,1.2,0,1.5,0c0.4,0,0.8,0.1,1.2,0.3c0.3,0.1,0.6,0.3,0.8,0.6c0.2,0.3,0.4,0.7,0.4,1.1
			C261.1,279.8,261,280.2,260.9,280.5z M275.4,278.3v8.1c-0.4,0.2-0.7,0.4-1.1,0.5c-0.4,0.1-0.7,0.2-1,0.2c-0.5,0-0.8,0-1.1-0.2
			c-0.3-0.1-0.5-0.3-0.6-0.5c-0.1-0.2-0.2-0.6-0.3-0.9c0-0.4-0.1-0.9-0.1-1.4v-5.7h-3.7v7.4c0,1.4,0.3,2.5,1,3.2
			c0.7,0.7,1.7,1.1,2.9,1.1c0.8,0,1.5-0.1,2-0.4c0.6-0.3,1.2-0.7,1.9-1.2v1.3h3.7v-11.4H275.4z M273.1,272.6l-2.5,4h2.5l3.6-3.8
			v-0.2H273.1z M293.3,279.5c-0.8-1-1.9-1.6-3.3-1.6c-0.8,0-1.4,0.1-2,0.4c-0.6,0.3-1.2,0.6-1.7,1.1v-5.6h-3.7v15.8h3.5l0.1-0.6
			c0.4,0.2,0.9,0.5,1.4,0.6c0.5,0.1,1,0.2,1.7,0.2c1.5,0,2.7-0.6,3.7-1.7c1-1.1,1.5-2.6,1.5-4.4C294.5,282,294.1,280.6,293.3,279.5z
			 M290,286.5c-0.5,0.6-1.2,0.9-2.2,0.9c-0.3,0-0.6,0-0.9-0.1c-0.2,0-0.5-0.1-0.8-0.2v-5.7c0.3-0.2,0.7-0.4,1.1-0.5
			c0.4-0.1,0.7-0.2,1.1-0.2c0.9,0,1.5,0.3,1.8,0.8c0.4,0.6,0.5,1.3,0.5,2.4C290.7,285,290.4,285.9,290,286.5z M297.1,273.8v15.8h3.7
			v-15.8H297.1z M304.2,278.3v11.4h3.7v-11.4H304.2z M304.1,273.8v2.8h3.9v-2.8H304.1z M317.3,280.6c0.4,0,0.8,0,1.2,0.2
			c0.3,0.1,0.6,0.2,0.9,0.4c0.3,0.2,0.5,0.3,0.7,0.5c0.2,0.2,0.4,0.3,0.5,0.4h0.5v-3.1c-0.6-0.3-1.2-0.5-1.8-0.7
			c-0.7-0.2-1.4-0.3-2.2-0.3c-0.9,0-1.7,0.1-2.5,0.3c-0.8,0.2-1.5,0.6-2.1,1c-0.6,0.5-1.1,1.2-1.5,1.9c-0.4,0.8-0.5,1.7-0.5,2.8
			c0,1,0.2,1.9,0.5,2.6c0.3,0.8,0.8,1.4,1.4,1.9c0.6,0.5,1.3,0.9,2.2,1.1c0.8,0.2,1.7,0.4,2.7,0.4c0.8,0,1.5-0.1,2.1-0.2
			c0.6-0.2,1.2-0.4,1.8-0.6V286h-0.5c-0.1,0.1-0.3,0.3-0.5,0.4c-0.2,0.1-0.4,0.3-0.6,0.4c-0.2,0.1-0.5,0.3-0.9,0.4
			c-0.4,0.1-0.8,0.1-1.3,0.1c-1,0-1.8-0.3-2.3-0.8c-0.5-0.6-0.8-1.4-0.8-2.5c0-1.1,0.3-1.9,0.8-2.5S316.4,280.6,317.3,280.6z
			 M332.8,278.9c-0.9-0.7-2.4-1-4.5-1c-0.9,0-1.7,0.1-2.6,0.2c-0.9,0.1-1.5,0.3-1.9,0.4v2.8h0.3c0.3-0.1,0.8-0.3,1.5-0.5
			c0.7-0.2,1.3-0.3,1.9-0.3c1,0,1.8,0.1,2.3,0.4c0.5,0.2,0.8,0.7,0.8,1.3v0.1c-1.1,0.1-2.1,0.2-3.1,0.3c-1,0.1-1.9,0.3-2.5,0.7
			c-0.7,0.3-1.2,0.7-1.6,1.3c-0.4,0.5-0.6,1.2-0.6,2c0,1,0.4,1.9,1.1,2.6c0.7,0.7,1.6,1,2.7,1c0.4,0,0.9,0,1.3-0.1
			c0.4-0.1,0.8-0.2,1.1-0.4c0.3-0.1,0.5-0.3,0.8-0.5c0.3-0.2,0.5-0.4,0.7-0.5v1.2h3.6v-7.8C334.2,280.5,333.7,279.5,332.8,278.9z
			 M330.5,286.7c-0.3,0.2-0.6,0.4-1,0.6c-0.4,0.1-0.7,0.2-1.1,0.2c-0.5,0-0.8,0-1-0.1c-0.2-0.1-0.4-0.2-0.6-0.3
			c-0.1-0.1-0.3-0.3-0.3-0.4c0-0.1-0.1-0.3-0.1-0.6c0-0.4,0.1-0.6,0.3-0.9c0.2-0.2,0.5-0.4,0.8-0.5c0.3-0.1,0.7-0.2,1.3-0.3
			c0.6-0.1,1.1-0.1,1.6-0.2V286.7z"/>
		<path d="M28.2,256.3v-7.1H4.8v7.1h6.6v25.9H4.8v7.1h23.5v-7.1h-6.6v-25.9H28.2z M66.5,270c-1.5-1.7-3.7-3.1-6.8-4.1
			c-1.6-0.5-3-0.9-4.4-1.2c-1.4-0.3-2.8-0.6-4.2-0.9c-2.2-0.5-3.8-1-4.6-1.5c-0.8-0.6-1.2-1.4-1.2-2.4c0-0.7,0.2-1.3,0.8-1.9
			c0.5-0.5,1.1-0.9,1.8-1.2c0.8-0.3,1.6-0.5,2.5-0.7c0.9-0.1,1.7-0.2,2.6-0.2c2.4,0,4.8,0.4,7.2,1.3c2.3,0.9,4.3,1.9,5.9,3.2h1.1
			v-9.2c-1.9-0.8-4.1-1.4-6.7-1.9c-2.6-0.5-5.2-0.8-7.8-0.8c-5.3,0-9.6,1.2-12.9,3.5c-3.3,2.4-5,5.4-5,9.1c0,2.8,0.7,5.1,2.2,7
			c1.5,1.9,3.9,3.4,7.3,4.5c1.5,0.5,3,0.9,4.7,1.2c1.7,0.3,3.3,0.6,4.8,1c1.4,0.3,2.5,0.8,3.3,1.5c0.7,0.6,1.1,1.4,1.1,2.3
			c0,1-0.3,1.7-0.8,2.2c-0.5,0.5-1.1,0.9-1.9,1.2c-0.7,0.3-1.5,0.4-2.5,0.5c-1,0.1-1.8,0.2-2.5,0.2c-2.4,0-5-0.5-7.6-1.4
			c-2.6-0.9-5-2.2-7.2-3.9h-1.1v9.6c2.2,0.9,4.5,1.6,6.9,2.2c2.5,0.6,5.4,0.9,8.7,0.9c5.7,0,10.3-1.2,13.6-3.7c3.4-2.5,5-5.7,5-9.6
			C68.7,273.9,68,271.7,66.5,270z M107.6,255.9c-0.8-1.6-2.1-3-3.7-4.1c-1.3-0.9-2.9-1.5-4.6-2c-1.8-0.4-3.9-0.7-6.4-0.7h-17v40.1
			h10.3v-13h6.4c2.9,0,5.4-0.4,7.3-1.2c2-0.8,3.7-2,5.3-3.6c1.2-1.2,2.1-2.6,2.7-4.3c0.6-1.7,0.9-3.5,0.9-5.3
			C108.9,259.6,108.5,257.6,107.6,255.9z M97.8,265.1c-0.3,0.8-0.8,1.5-1.4,2.1c-0.8,0.6-1.7,1.1-2.9,1.3c-1.1,0.2-2.6,0.3-4.3,0.3
			h-3v-12h1.8c1.7,0,3.1,0,4.1,0.1c1,0,2.1,0.3,3.1,0.7c0.8,0.3,1.5,0.9,2.1,1.7c0.6,0.8,0.9,1.8,0.9,2.9
			C98.2,263.3,98.1,264.3,97.8,265.1z"/>
	</g>
	<g class="st16">
		<g>
			<path d="M300.1,177.1c0,1.9,0,3.7,0,5.6c-0.1,4.3,0.2,8.6-0.3,12.8c0.1-0.5-1-1.7-1.2-2.1c-0.5-0.8-1-1.6-1.6-2.4
				c-1.1-1.5-2.2-2.9-3.5-4.3c-2.5-2.8-5.5-5.1-8.3-7.6c-3.8-3.3-7.7-6.4-12.2-8.7c-4.9-2.6-10.4-3.7-15.9-2.4
				c-0.7-5.6-2.4-20.1-5.1-24.5c-3.6-5.8-8.6-10.3-15-13.7c-6.3-3.3-13.6-5-21.7-5c-6,0-10.9,0.8-14.8,2.3c-3.9,1.5-7.1,3.2-9.8,5.1
				c-2.7,1.9-5,3.7-7.1,5.1c-2,1.5-4.3,2.3-6.9,2.3h-29.6c-1.9,0-3.6-0.7-5-2.1c-0.5-0.5-1-1.1-1.3-1.7c0.7-0.8,1.5-1.5,2.2-2.3
				c7.6-8.2,13.5-16.8,17.5-25.6c4.1-9,6.2-19,6.2-29.7c0-13.6-3.2-26-9.4-37c-2-3.5-4.3-6.7-6.9-9.7l0.9-9c0.2-2.8,1.2-4.9,2.9-6.4
				c1.7-1.5,3.8-2.3,6.1-2.3h121c2.1,0,4,0.8,5.5,2.3c1.5,1.5,2.3,3.3,2.3,5.5v21.6c0,2.1-0.8,4-2.3,5.5c-1.5,1.5-3.3,2.3-5.5,2.3
				h-93l-5.2,52.4c3.9-2.6,9-5,15.4-7.4c6.4-2.4,15.3-3.5,26.7-3.5c10.3,0,20.1,1.7,29.4,5c9.3,3.3,17.6,8.2,24.9,14.5
				c7.3,6.3,13,13.9,17.2,22.8c0.1,0.2,0.2,0.4,0.2,0.5c1.3,3.3,1.6,7.1,2,10.6c0.5,5.1,0.7,10.2,0.8,15.4
				C300,166.5,300.1,171.8,300.1,177.1z"/>
		</g>
		<g>
			<path d="M57.1,225.7c0.4,0.5,0.8,0.8,1.4,1c0.5,0.2,1.1,0.3,1.7,0.3c0.6,0,1.1-0.1,1.7-0.3c0.5-0.2,1-0.6,1.4-1
				c0.4-0.5,0.8-1.2,1-1.9c0.2-0.7,0.3-1.6,0.3-2.5c0-1-0.1-1.9-0.4-2.7c-0.2-0.7-0.6-1.3-0.9-1.8c-0.4-0.5-0.9-0.8-1.4-1
				c-0.5-0.2-1.1-0.3-1.6-0.3c-0.6,0-1.1,0.1-1.6,0.3c-0.5,0.2-1,0.5-1.4,1c-0.4,0.4-0.7,1-1,1.8c-0.2,0.8-0.4,1.7-0.4,2.7
				c0,1,0.1,1.9,0.4,2.7C56.4,224.6,56.7,225.2,57.1,225.7z"/>
			<polygon points="15.7,223.2 20,223.2 17.8,217 			"/>
			<path d="M117.1,145.6c7.3-6.1,13.8-12.2,19.3-18.2c1.6-1.8,3.2-3.5,4.7-5.3c4.7-5.8,8.5-11.8,11.3-17.9c3.6-7.8,5.4-16.6,5.4-26
				c0-12-2.8-23-8.3-32.5c-0.2-0.3-0.3-0.6-0.5-0.8c-5.4-9.1-13.5-16.4-24-21.9c-11-5.6-25.2-8.5-42.2-8.5c-12,0-22.9,1.9-32.4,5.8
				c-9.5,3.8-17.6,9-24.1,15.3c-6.5,6.3-11.5,13.6-14.9,21.7c-3.4,8.1-5.2,16.6-5.4,25.2c0,0.3,0.1,0.7,0.6,1.2
				c0.3,0.3,0.8,0.6,1.7,0.6h28.6c1.2,0,2.4-0.3,3.6-1c0.3-0.2,1-0.5,1.3-2.6c1.2-6.8,3.3-13,6.5-18.6c3.3-5.8,7.9-10.5,13.6-14
				c5.8-3.5,13-5.3,21.3-5.3c12.7,0,22.2,3.5,28.3,10.5c6,6.8,9,15.7,9,26.4c0,7.2-2.2,14.6-6.6,21.8c-4.2,6.9-10.8,14.5-19.8,22.6
				c-5.4,4.9-11.3,9.6-17,14.2c-2.2,1.7-4.4,3.5-6.5,5.3c-7.4,6.1-14.2,12.5-22.2,20.4L8.7,203.2c-2.7,2.2-4.5,4.4-5.2,6.3
				c-0.8,2.2-1.2,4-1.2,5.4v16.4c0,1,0.3,1.7,0.9,2.3c0.7,0.7,1.4,0.9,2.3,0.9h83.6l53.6-26.4l-89.4,0.7l50-50.6
				C107.4,154.1,111.9,150,117.1,145.6z M22.3,229.9l-1.2-3.5h-6.5l-1.2,3.5H8.8l6.4-17.4h5.2l6.4,17.4H22.3z M46.5,229.9h-4.3
				l-7.4-12v12h-4.1v-17.4H36l6.4,10v-10h4.1V229.9z M72.8,224.7h0.5c0.9,0.7,2,1.3,3.1,1.7c1.2,0.4,2.3,0.6,3.3,0.6
				c0.3,0,0.6,0,1.1-0.1c0.4,0,0.8-0.1,1.1-0.2c0.3-0.1,0.6-0.3,0.8-0.5c0.2-0.2,0.3-0.5,0.3-0.9c0-0.4-0.2-0.7-0.5-1
				c-0.3-0.3-0.8-0.5-1.4-0.6c-0.7-0.2-1.3-0.3-2.1-0.4c-0.7-0.1-1.4-0.3-2.1-0.5c-1.5-0.5-2.5-1.1-3.2-1.9c-0.6-0.8-1-1.8-1-3
				c0-1.6,0.7-3,2.2-4c1.5-1,3.3-1.5,5.6-1.5c1.1,0,2.3,0.1,3.4,0.3c1.1,0.2,2.1,0.5,2.9,0.8v4h-0.5c-0.7-0.6-1.6-1-2.6-1.4
				c-1-0.4-2.1-0.6-3.1-0.6c-0.4,0-0.7,0-1.1,0.1c-0.4,0.1-0.7,0.1-1.1,0.3c-0.3,0.1-0.6,0.3-0.8,0.5c-0.2,0.2-0.3,0.5-0.3,0.8
				c0,0.5,0.2,0.8,0.5,1.1c0.4,0.2,1,0.5,2,0.7c0.6,0.1,1.3,0.3,1.8,0.4s1.2,0.3,1.9,0.5c1.3,0.4,2.3,1,3,1.8c0.6,0.8,1,1.7,1,2.9
				c0,1.7-0.7,3.1-2.2,4.2c-1.5,1.1-3.4,1.6-5.9,1.6c-1.4,0-2.7-0.1-3.8-0.4c-1.1-0.3-2.1-0.6-3-1V224.7z M53.5,214.6
				c1.6-1.6,3.8-2.4,6.6-2.4c2.8,0,5,0.8,6.6,2.4c1.6,1.6,2.4,3.8,2.4,6.6c0,2.8-0.8,5-2.4,6.6c-1.6,1.6-3.8,2.5-6.6,2.5
				c-2.8,0-5-0.8-6.6-2.5c-1.6-1.6-2.4-3.8-2.4-6.6C51.1,218.4,51.9,216.2,53.5,214.6z"/>
		</g>
		<path d="M219.9,167.3c-18.2-6.7-32.7-14.5-32.9-14.6l1.4-2.6c0.1,0.1,14.5,7.8,32.5,14.4L219.9,167.3z"/>
		<g>
			<g>
				<path d="M193.4,153.5c-1.4-2.6-3.2-5.7-6.2-5.9c-3.5-0.2-7.3,5.3-8.8,7.9c-9.7,16.7-19.5,33.4-27.1,51.1
					c15.5-6.7,37.9-15.1,57-16.7C203.1,175.3,197.6,161.3,193.4,153.5z"/>
				<path d="M145,222.6c-1.5,4.5-2.9,9.1-5.1,13.3l82.6-0.4c-2.4-9.5-7.6-26.3-13.3-42.7c-19.9,1.6-44.1,10.9-59.7,17.8
					C147.9,214.6,146.4,218.6,145,222.6z"/>
			</g>
			<path d="M259.1,176.8c-11-0.8-24.2-4-39.2-9.6l1-2.7c14.8,5.4,27.7,8.6,38.4,9.4L259.1,176.8z"/>
			<path d="M95.9,236.8l37.1-18.7c0,0,53.5-28.3,86.3-25.6c0,0,26.3-18.9,41.8-20.3c15.5-1.4,32.4,20.3,32.4,20.3l38.6,43.7
				L95.9,236.8z"/>
		</g>
	</g>
</g>
</svg>
