<?xml version="1.0" encoding="utf-8"?>
<!-- Generator: Adobe Illustrator 28.3.0, SVG Export Plug-In . SVG Version: 6.00 Build 0)  -->
<svg version="1.1" id="Camada_1" xmlns="http://www.w3.org/2000/svg" xmlns:xlink="http://www.w3.org/1999/xlink" x="0px" y="0px"
	 viewBox="0 0 1920 502.6" style="enable-background:new 0 0 1920 502.6;" xml:space="preserve">
<style type="text/css">
	.st0{fill:#0066A5;}
	.st1{fill:#BC9D32;}
	.st2{fill:#8E8E8E;}
	.st3{fill:none;stroke:#EFB700;stroke-width:2;stroke-miterlimit:10;}
	.st4{fill-rule:evenodd;clip-rule:evenodd;fill:#00508B;}
	.st5{fill-rule:evenodd;clip-rule:evenodd;fill:#467742;}
	.st6{fill-rule:evenodd;clip-rule:evenodd;fill:#A7A7A7;}
	.st7{fill-rule:evenodd;clip-rule:evenodd;fill:#FFFFFF;}
	.st8{fill-rule:evenodd;clip-rule:evenodd;fill:#45773B;}
	.st9{fill-rule:evenodd;clip-rule:evenodd;fill:#C19E15;}
	.st10{fill:#A7A7A7;}
	.st11{fill:#FFFFFF;}
	.st12{fill:#00508B;}
	.st13{fill:#1D1D1B;}
	.st14{fill:#FFFFFF;stroke:#EFB700;stroke-width:2;stroke-miterlimit:10;}
	.st15{stroke:#FFFFFF;stroke-width:2;stroke-miterlimit:10;}
</style>
<g>
	<g>
		<g>
			<path class="st11" d="M516.7,381.8v-3.6h-11.8v3.6h3.3v13h-3.3v3.6h11.8v-3.6h-3.3v-13H516.7z M534.6,384.2
				c-0.9-0.9-2.2-1.4-3.9-1.4c-1,0-1.9,0.2-2.7,0.5c-0.8,0.3-1.6,0.9-2.5,1.6v-1.7h-4.9v15.2h4.9v-10.8c0.5-0.3,1-0.5,1.5-0.7
				c0.5-0.2,0.9-0.2,1.3-0.2c0.6,0,1.1,0.1,1.5,0.2c0.3,0.1,0.6,0.4,0.8,0.7c0.2,0.3,0.3,0.7,0.3,1.3c0.1,0.6,0.1,1.2,0.1,1.8v7.5
				h4.9v-9.9C536,386.6,535.5,385.2,534.6,384.2z M552.8,390.9c-0.6-0.7-1.6-1.2-2.8-1.6c-0.6-0.1-1.2-0.3-1.7-0.4
				c-0.6-0.1-1.1-0.2-1.6-0.3c-0.9-0.2-1.5-0.4-1.7-0.6c-0.2-0.2-0.4-0.5-0.4-0.8c0-0.4,0.3-0.7,0.8-0.9c0.5-0.2,1.2-0.3,2-0.3
				c0.9,0,1.9,0.2,2.8,0.5c0.9,0.3,1.8,0.7,2.5,1.2h0.4v-3.8c-0.6-0.3-1.4-0.5-2.4-0.7c-1-0.2-2.1-0.3-3.3-0.3
				c-2.4,0-4.3,0.5-5.7,1.5c-1.4,1-2.1,2.2-2.1,3.6c0,1.1,0.3,2.1,1,2.9c0.7,0.8,1.7,1.3,3.1,1.7c0.5,0.1,1.1,0.2,1.7,0.3
				c0.6,0.1,1.1,0.2,1.5,0.3c0.8,0.2,1.3,0.3,1.6,0.5c0.3,0.2,0.4,0.4,0.4,0.8c0,0.4-0.2,0.7-0.7,0.9c-0.5,0.2-1.2,0.3-2.1,0.3
				c-0.7,0-1.4-0.1-2.1-0.2c-0.6-0.1-1.2-0.3-1.7-0.5c-0.6-0.2-1-0.4-1.4-0.6c-0.3-0.2-0.6-0.4-0.8-0.6h-0.5v4
				c0.7,0.3,1.6,0.6,2.7,0.8c1.1,0.2,2.3,0.4,3.7,0.4c2.4,0,4.4-0.5,5.8-1.5c1.4-1,2.1-2.2,2.1-3.8
				C553.7,392.5,553.4,391.6,552.8,390.9z M566.7,386.5v-3.3h-4.6v-4.4h-4.9v4.4h-2v3.3h2v7.1c0,1.8,0.5,3.2,1.4,3.9
				c0.9,0.8,2.3,1.1,4.2,1.1c0.9,0,1.6,0,2.2-0.1c0.6-0.1,1.2-0.2,1.7-0.3v-3.3h-0.4c-0.2,0.1-0.4,0.2-0.9,0.3
				c-0.4,0.1-0.7,0.2-1,0.2c-0.6,0-1.1-0.1-1.4-0.3c-0.3-0.2-0.6-0.4-0.7-0.7c-0.1-0.3-0.2-0.7-0.2-1.1c0-0.4,0-0.9,0-1.4v-5.4
				H566.7z M569.6,383.2v15.2h4.9v-15.2H569.6z M569.4,377.3v3.7h5.1v-3.7H569.4z M588.8,386.5v-3.3h-4.6v-4.4h-4.9v4.4h-2v3.3h2
				v7.1c0,1.8,0.5,3.2,1.4,3.9c0.9,0.8,2.3,1.1,4.2,1.1c0.9,0,1.6,0,2.2-0.1c0.6-0.1,1.1-0.2,1.7-0.3v-3.3h-0.4
				c-0.2,0.1-0.5,0.2-0.9,0.3c-0.4,0.1-0.8,0.2-1,0.2c-0.6,0-1.1-0.1-1.4-0.3c-0.3-0.2-0.5-0.4-0.7-0.7c-0.1-0.3-0.2-0.7-0.2-1.1
				c0-0.4,0-0.9,0-1.4v-5.4H588.8z M602,383.2V394c-0.5,0.3-1,0.5-1.5,0.7c-0.5,0.2-1,0.2-1.4,0.2c-0.6,0-1.1-0.1-1.4-0.2
				c-0.4-0.2-0.6-0.4-0.8-0.7c-0.2-0.3-0.3-0.8-0.3-1.3c0-0.5-0.1-1.1-0.1-1.9v-7.6h-4.9v9.9c0,1.9,0.4,3.3,1.4,4.3
				c0.9,1,2.2,1.5,3.9,1.5c1,0,1.9-0.2,2.7-0.6c0.7-0.3,1.6-0.9,2.5-1.6v1.7h4.9v-15.2H602z M621.2,386.5v-3.3h-4.6v-4.4h-4.9v4.4
				h-2v3.3h2v7.1c0,1.8,0.5,3.2,1.4,3.9c0.9,0.8,2.3,1.1,4.2,1.1c0.9,0,1.6,0,2.2-0.1c0.6-0.1,1.1-0.2,1.7-0.3v-3.3h-0.4
				c-0.2,0.1-0.4,0.2-0.9,0.3c-0.4,0.1-0.7,0.2-1,0.2c-0.6,0-1.1-0.1-1.4-0.3c-0.3-0.2-0.5-0.4-0.7-0.7c-0.1-0.3-0.2-0.7-0.2-1.1
				c0-0.4,0-0.9,0-1.4v-5.4H621.2z M637.6,384.9c-1.5-1.4-3.5-2.2-6.2-2.2c-2.6,0-4.7,0.7-6.1,2.2c-1.5,1.4-2.2,3.4-2.2,5.9
				c0,2.5,0.7,4.5,2.2,5.9c1.5,1.4,3.5,2.2,6.1,2.2c2.6,0,4.7-0.7,6.2-2.2c1.5-1.4,2.2-3.4,2.2-5.9S639,386.3,637.6,384.9z
				 M634.4,393.1c-0.2,0.6-0.4,1-0.7,1.4c-0.3,0.3-0.6,0.6-1,0.8c-0.4,0.1-0.8,0.2-1.3,0.2c-0.5,0-1-0.1-1.4-0.2
				c-0.4-0.2-0.8-0.4-1-0.8c-0.3-0.4-0.5-0.9-0.7-1.5c-0.2-0.6-0.2-1.3-0.2-2.2c0-0.9,0.1-1.7,0.3-2.3c0.2-0.6,0.4-1.1,0.7-1.5
				c0.3-0.4,0.7-0.6,1.1-0.8c0.4-0.1,0.8-0.2,1.2-0.2c0.5,0,0.9,0.1,1.3,0.2c0.4,0.1,0.8,0.4,1,0.8c0.3,0.4,0.5,0.8,0.7,1.4
				c0.2,0.6,0.2,1.3,0.2,2.3C634.7,391.8,634.6,392.5,634.4,393.1z M662.6,377.3v6.5c-0.6-0.3-1.2-0.5-1.8-0.7
				c-0.6-0.2-1.3-0.3-2.2-0.3c-0.9,0-1.7,0.2-2.6,0.6c-0.9,0.4-1.6,0.9-2.2,1.6c-0.7,0.7-1.2,1.6-1.5,2.6c-0.4,1-0.6,2.2-0.6,3.4
				c0,2.4,0.6,4.4,1.7,5.8c1.1,1.4,2.6,2.2,4.4,2.2c0.9,0,1.8-0.2,2.5-0.5c0.7-0.3,1.5-0.8,2.4-1.5v1.6h4.9v-21.1H662.6z
				 M662.6,394.2c-0.4,0.3-0.8,0.5-1.3,0.6c-0.5,0.2-1,0.3-1.4,0.3c-1.1,0-2-0.3-2.5-1c-0.5-0.7-0.8-1.8-0.8-3.2
				c0-1.4,0.3-2.5,1-3.3c0.6-0.8,1.6-1.2,2.9-1.2c0.3,0,0.7,0,1,0.1c0.4,0.1,0.7,0.2,1.1,0.3V394.2z M687.1,390
				c0-2.4-0.6-4.2-1.9-5.4c-1.3-1.3-3.1-1.9-5.6-1.9c-2.7,0-4.8,0.7-6.3,2.2c-1.5,1.5-2.3,3.5-2.3,6c0,2.5,0.8,4.5,2.4,5.9
				c1.6,1.4,4,2.1,7,2.1c1.2,0,2.3-0.1,3.2-0.3c1-0.2,2-0.5,3.1-0.9v-3.9h-0.5c-0.6,0.4-1.3,0.8-2.3,1.2c-1,0.4-2,0.5-3,0.5
				c-1.6,0-2.9-0.3-3.7-0.9c-0.8-0.6-1.3-1.5-1.4-2.7h11.2V390z M675.9,388.8c0.1-1.1,0.4-1.9,1-2.3c0.6-0.5,1.4-0.7,2.3-0.7
				c1,0,1.8,0.2,2.2,0.8c0.5,0.5,0.7,1.3,0.8,2.3H675.9z M520.8,422.4c-0.7-0.9-1.9-1.6-3.4-2.1c-0.8-0.2-1.5-0.5-2.2-0.6
				c-0.7-0.1-1.4-0.3-2.1-0.5c-1.1-0.2-1.9-0.5-2.3-0.8c-0.4-0.3-0.6-0.7-0.6-1.2c0-0.3,0.1-0.7,0.4-0.9c0.3-0.3,0.6-0.5,0.9-0.6
				c0.4-0.2,0.8-0.3,1.2-0.3c0.4-0.1,0.9-0.1,1.3-0.1c1.2,0,2.4,0.2,3.6,0.7c1.2,0.5,2.2,1,3,1.6h0.6V413c-1-0.4-2.1-0.7-3.4-1
				c-1.3-0.3-2.6-0.4-3.9-0.4c-2.6,0-4.8,0.6-6.5,1.8c-1.7,1.2-2.5,2.7-2.5,4.6c0,1.4,0.4,2.6,1.1,3.5c0.7,0.9,2,1.7,3.7,2.2
				c0.7,0.2,1.5,0.4,2.4,0.6s1.6,0.3,2.4,0.5c0.7,0.2,1.3,0.4,1.6,0.7c0.4,0.3,0.6,0.7,0.6,1.2c0,0.5-0.1,0.8-0.4,1.1
				c-0.3,0.2-0.6,0.4-1,0.6c-0.3,0.1-0.7,0.2-1.3,0.3c-0.5,0.1-0.9,0.1-1.2,0.1c-1.2,0-2.5-0.2-3.8-0.7c-1.3-0.5-2.5-1.1-3.6-2h-0.6
				v4.8c1.1,0.5,2.2,0.8,3.5,1.1c1.2,0.3,2.7,0.4,4.4,0.4c2.9,0,5.2-0.6,6.9-1.9c1.7-1.2,2.5-2.9,2.5-4.8
				C521.9,424.4,521.6,423.3,520.8,422.4z M540.2,423.7c0-2.3-0.6-4.1-1.9-5.4c-1.3-1.3-3.1-1.9-5.6-1.9c-2.7,0-4.8,0.7-6.3,2.2
				c-1.5,1.5-2.3,3.5-2.3,6c0,2.5,0.8,4.5,2.4,5.9c1.6,1.4,4,2.1,7,2.1c1.2,0,2.3-0.1,3.2-0.3c1-0.2,2-0.5,3.1-1v-3.9h-0.5
				c-0.6,0.4-1.3,0.8-2.3,1.2c-1,0.4-2,0.5-3,0.5c-1.6,0-2.9-0.3-3.7-0.9c-0.8-0.6-1.3-1.5-1.4-2.7h11.2V423.7z M529,422.6
				c0.1-1.1,0.4-1.9,1-2.3c0.6-0.5,1.4-0.7,2.3-0.7c1,0,1.8,0.3,2.2,0.8c0.5,0.5,0.7,1.3,0.8,2.3H529z M553.8,416.9l-0.2,0.7
				c-0.5-0.3-1.2-0.6-1.8-0.8c-0.7-0.2-1.4-0.3-2.3-0.3c-0.9,0-1.8,0.2-2.7,0.5c-0.9,0.4-1.6,0.9-2.2,1.5c-0.6,0.7-1.1,1.5-1.5,2.4
				c-0.3,0.9-0.5,2-0.5,3.3c0,2.6,0.6,4.6,1.7,5.8c1.1,1.3,2.8,1.9,4.9,1.9c0.9,0,1.7-0.1,2.4-0.4c0.7-0.3,1.4-0.7,2-1.1v0.3
				c0,0.6-0.1,1.2-0.2,1.6c-0.1,0.4-0.3,0.8-0.6,1.1c-0.3,0.3-0.7,0.5-1.3,0.7c-0.6,0.2-1.3,0.2-2.2,0.2c-0.7,0-1.5-0.1-2.3-0.3
				c-0.9-0.2-1.6-0.4-2.2-0.7h-0.6v3.8c0.7,0.2,1.6,0.3,2.7,0.4c1,0.1,2.1,0.2,3.1,0.2c1.3,0,2.5-0.1,3.5-0.4c1-0.2,1.9-0.7,2.6-1.2
				c0.7-0.6,1.3-1.3,1.7-2.3c0.4-1,0.6-2.2,0.6-3.6v-13.5H553.8z M553.6,427.4c-0.4,0.3-0.8,0.5-1.3,0.6c-0.5,0.2-0.9,0.2-1.4,0.2
				c-1.1,0-1.9-0.3-2.4-0.9c-0.6-0.6-0.8-1.6-0.8-3.1c0-1.3,0.3-2.3,1-3.1c0.6-0.7,1.6-1.1,2.9-1.1c0.3,0,0.7,0,1.1,0.1
				c0.4,0.1,0.7,0.2,1,0.3V427.4z M573.4,416.9v10.8c-0.5,0.3-1,0.5-1.5,0.7c-0.5,0.2-1,0.2-1.4,0.2c-0.6,0-1.1-0.1-1.5-0.2
				c-0.4-0.1-0.6-0.4-0.8-0.7c-0.2-0.3-0.3-0.8-0.3-1.3c0-0.5-0.1-1.1-0.1-1.9v-7.5H563v9.9c0,1.9,0.4,3.3,1.3,4.3
				c0.9,1,2.2,1.5,3.9,1.5c1,0,1.9-0.2,2.7-0.5c0.8-0.3,1.6-0.9,2.5-1.6v1.7h4.9v-15.2H573.4z M593.4,416.9c-0.2,0-0.4,0-0.6,0
				c-0.7,0-1.4,0.2-2.2,0.5c-0.8,0.3-1.7,0.9-2.8,1.8v-2.2h-4.9v15.2h4.9V422c0.6-0.2,1.2-0.4,1.7-0.5c0.5-0.1,1.2-0.1,1.8-0.1
				c0.3,0,0.7,0,1.2,0.1c0.5,0,0.8,0.1,1,0.2h0.4v-4.6C593.8,416.9,593.6,416.9,593.4,416.9z M608.9,417.8c-1.2-0.9-3.2-1.3-6-1.3
				c-1.2,0-2.3,0.1-3.5,0.3c-1.2,0.2-2,0.3-2.5,0.5v3.7h0.4c0.4-0.1,1.1-0.4,2-0.7c0.9-0.3,1.8-0.4,2.6-0.4c1.3,0,2.4,0.1,3,0.5
				c0.7,0.3,1,0.9,1,1.7v0.1c-1.4,0.1-2.8,0.2-4.2,0.4c-1.3,0.2-2.5,0.5-3.4,0.9c-0.9,0.4-1.6,1-2.1,1.7c-0.5,0.7-0.7,1.6-0.7,2.7
				c0,1.4,0.5,2.5,1.5,3.4c1,0.9,2.2,1.3,3.6,1.3c0.6,0,1.2,0,1.7-0.2c0.5-0.1,1-0.3,1.5-0.5c0.4-0.2,0.7-0.4,1.1-0.7
				c0.4-0.3,0.7-0.5,1-0.7v1.6h4.9v-10.4C610.8,420,610.1,418.6,608.9,417.8z M605.9,428.2c-0.4,0.3-0.8,0.6-1.3,0.8
				c-0.5,0.2-1,0.3-1.5,0.3c-0.6,0-1.1,0-1.4-0.1c-0.3-0.1-0.5-0.2-0.7-0.4c-0.2-0.2-0.4-0.4-0.4-0.6c-0.1-0.2-0.1-0.5-0.1-0.8
				c0-0.5,0.1-0.9,0.4-1.2c0.2-0.3,0.6-0.5,1.1-0.7c0.4-0.1,1-0.2,1.8-0.3c0.8-0.1,1.5-0.2,2.1-0.2V428.2z M629.1,418
				c-0.9-1-2.2-1.4-3.9-1.4c-1,0-1.9,0.2-2.7,0.5c-0.8,0.4-1.6,0.9-2.5,1.6v-1.7h-4.9v15.2h4.9v-10.8c0.5-0.3,1-0.5,1.5-0.7
				c0.5-0.2,0.9-0.2,1.3-0.2c0.6,0,1.1,0.1,1.5,0.2c0.4,0.2,0.6,0.4,0.8,0.7c0.2,0.3,0.3,0.7,0.3,1.3c0.1,0.6,0.1,1.2,0.1,1.9v7.5
				h4.9v-9.9C630.5,420.3,630.1,418.9,629.1,418z M643,420c0.6,0,1.1,0.1,1.6,0.2c0.4,0.1,0.8,0.3,1.2,0.5c0.4,0.2,0.7,0.4,1,0.6
				c0.3,0.2,0.5,0.4,0.7,0.6h0.7v-4.2c-0.8-0.4-1.6-0.6-2.4-0.9c-0.9-0.2-1.8-0.3-2.9-0.3c-1.1,0-2.3,0.1-3.3,0.5
				c-1.1,0.3-2,0.8-2.8,1.4c-0.9,0.7-1.5,1.5-2,2.6c-0.5,1-0.7,2.2-0.7,3.7c0,1.3,0.2,2.5,0.6,3.4c0.4,1,1,1.8,1.8,2.4
				c0.8,0.7,1.7,1.2,2.8,1.5c1.1,0.3,2.2,0.5,3.5,0.5v0.6c0,0.7-0.2,1.3-0.6,1.6c-0.4,0.4-0.9,0.5-1.7,0.5c-0.4,0-0.8,0-1.2-0.2
				c-0.4-0.1-0.7-0.2-1-0.3h-0.3v2.7c0.4,0.1,0.9,0.2,1.5,0.3c0.6,0,1,0.1,1.4,0.1c1.4,0,2.6-0.4,3.5-1.2c0.9-0.8,1.4-1.9,1.4-3.4
				c0-0.2,0-0.3,0-0.6c0-0.2,0-0.4,0-0.5c0.5-0.1,0.9-0.2,1.4-0.4c0.4-0.2,0.8-0.3,1.2-0.4v-4.2h-0.7c-0.2,0.2-0.4,0.4-0.6,0.6
				c-0.2,0.2-0.5,0.4-0.8,0.6c-0.3,0.2-0.7,0.3-1.2,0.5c-0.5,0.1-1,0.2-1.7,0.2c-1.3,0-2.3-0.4-3.1-1.1c-0.7-0.8-1.1-1.9-1.1-3.3
				c0-1.4,0.3-2.6,1.1-3.4C640.7,420.4,641.7,420,643,420z M663.6,417.8c-1.2-0.9-3.3-1.3-6-1.3c-1.2,0-2.3,0.1-3.5,0.3
				c-1.2,0.2-2,0.3-2.5,0.5v3.7h0.4c0.4-0.1,1.1-0.4,2-0.7c0.9-0.3,1.8-0.4,2.6-0.4c1.3,0,2.3,0.1,3,0.5c0.7,0.3,1,0.9,1,1.7v0.1
				c-1.4,0.1-2.8,0.2-4.2,0.4c-1.3,0.2-2.5,0.5-3.4,0.9c-0.9,0.4-1.6,1-2.1,1.7c-0.5,0.7-0.7,1.6-0.7,2.7c0,1.4,0.5,2.5,1.5,3.4
				c1,0.9,2.2,1.3,3.7,1.3c0.6,0,1.2,0,1.7-0.2c0.5-0.1,1-0.3,1.5-0.5c0.3-0.2,0.7-0.4,1.1-0.7c0.4-0.3,0.7-0.5,1-0.7v1.6h4.8v-10.4
				C665.4,420,664.8,418.6,663.6,417.8z M660.6,428.2c-0.4,0.3-0.8,0.6-1.3,0.8c-0.5,0.2-1,0.3-1.5,0.3c-0.6,0-1.1,0-1.4-0.1
				c-0.3-0.1-0.5-0.2-0.7-0.4c-0.2-0.2-0.4-0.4-0.4-0.6c-0.1-0.2-0.1-0.5-0.1-0.8c0-0.5,0.1-0.9,0.4-1.2c0.3-0.3,0.6-0.5,1.1-0.7
				c0.4-0.1,1-0.2,1.7-0.3c0.8-0.1,1.5-0.2,2.2-0.2V428.2z M695.7,415.3c-0.4-0.8-1.1-1.5-1.9-2c-0.7-0.4-1.5-0.8-2.3-1
				c-0.9-0.2-2-0.3-3.3-0.3h-8.6v20.2h5.2v-6.6h3.2c1.5,0,2.7-0.2,3.7-0.6c1-0.4,1.9-1,2.7-1.8c0.6-0.6,1-1.3,1.4-2.2
				c0.3-0.9,0.5-1.7,0.5-2.6C696.4,417.2,696.1,416.2,695.7,415.3z M690.7,419.9c-0.2,0.4-0.4,0.8-0.7,1c-0.4,0.3-0.9,0.5-1.5,0.7
				c-0.6,0.1-1.3,0.2-2.2,0.2h-1.5v-6.1h0.9c0.9,0,1.6,0,2.1,0c0.5,0,1,0.1,1.6,0.4c0.4,0.2,0.8,0.4,1.1,0.8
				c0.3,0.4,0.5,0.9,0.5,1.5C691,419,690.9,419.5,690.7,419.9z M710.1,416.9v10.8c-0.5,0.3-1,0.5-1.5,0.7c-0.5,0.2-1,0.2-1.4,0.2
				c-0.6,0-1.1-0.1-1.4-0.2c-0.4-0.1-0.6-0.4-0.8-0.7c-0.2-0.3-0.3-0.8-0.3-1.3c0-0.5-0.1-1.1-0.1-1.9v-7.5h-4.9v9.9
				c0,1.9,0.5,3.3,1.3,4.3c0.9,1,2.2,1.5,3.9,1.5c1,0,1.9-0.2,2.7-0.5c0.8-0.3,1.6-0.9,2.5-1.6v1.7h4.9v-15.2H710.1z M707,409.4
				l-3.4,5.3h3.3l4.8-5.1v-0.3H707z M733.9,418.6c-1-1.4-2.5-2.1-4.4-2.1c-1,0-1.9,0.2-2.7,0.6c-0.8,0.4-1.5,0.9-2.3,1.5v-7.5h-4.9
				v21.1h4.7l0.2-0.8c0.6,0.3,1.2,0.6,1.8,0.8c0.7,0.2,1.4,0.3,2.2,0.3c2,0,3.6-0.8,5-2.3c1.3-1.5,2-3.5,2-5.9
				C735.4,421.9,734.9,420,733.9,418.6z M729.5,427.8c-0.6,0.8-1.6,1.2-2.9,1.2c-0.4,0-0.8,0-1.1-0.1c-0.3,0-0.7-0.1-1-0.2V421
				c0.4-0.3,0.9-0.5,1.4-0.6c0.5-0.1,1-0.2,1.4-0.2c1.2,0,2,0.4,2.5,1.1c0.5,0.7,0.7,1.8,0.7,3.1C730.4,426,730.1,427.1,729.5,427.8
				z M739,411.1v21.1h4.9v-21.1H739z M748.5,416.9v15.2h4.9v-15.2H748.5z M748.3,411.1v3.7h5.1v-3.7H748.3z M765.9,420
				c0.6,0,1.1,0.1,1.6,0.2c0.4,0.1,0.8,0.3,1.2,0.5c0.4,0.2,0.7,0.4,1,0.6c0.2,0.2,0.5,0.4,0.7,0.6h0.7v-4.2
				c-0.8-0.4-1.6-0.6-2.4-0.9c-0.9-0.2-1.8-0.3-2.9-0.3c-1.2,0-2.3,0.1-3.4,0.5c-1.1,0.3-2,0.8-2.8,1.4c-0.9,0.7-1.5,1.5-2,2.6
				c-0.5,1-0.7,2.2-0.7,3.7c0,1.3,0.2,2.5,0.7,3.5c0.4,1,1.1,1.8,1.9,2.5c0.8,0.7,1.8,1.1,2.9,1.5c1.1,0.3,2.3,0.5,3.6,0.5
				c1,0,1.9-0.1,2.8-0.3c0.8-0.2,1.6-0.5,2.4-0.9v-4.2h-0.7c-0.2,0.2-0.4,0.4-0.6,0.6c-0.2,0.2-0.5,0.4-0.8,0.6
				c-0.3,0.2-0.7,0.3-1.2,0.5c-0.5,0.1-1.1,0.2-1.7,0.2c-1.3,0-2.3-0.4-3-1.1c-0.7-0.8-1.1-1.9-1.1-3.3c0-1.4,0.3-2.6,1-3.4
				C763.6,420.4,764.6,420,765.9,420z M786.5,417.8c-1.2-0.9-3.2-1.3-6-1.3c-1.2,0-2.3,0.1-3.5,0.3c-1.2,0.2-2,0.3-2.5,0.5v3.7h0.4
				c0.4-0.2,1.1-0.4,2-0.7c0.9-0.3,1.8-0.4,2.6-0.4c1.3,0,2.4,0.1,3,0.5c0.7,0.3,1,0.9,1,1.7v0.1c-1.4,0.1-2.8,0.2-4.2,0.4
				c-1.3,0.2-2.5,0.5-3.4,0.9c-0.9,0.4-1.6,1-2.1,1.7c-0.5,0.7-0.7,1.6-0.7,2.7c0,1.4,0.5,2.5,1.5,3.4c1,0.9,2.2,1.3,3.6,1.3
				c0.6,0,1.2,0,1.7-0.2c0.5-0.1,1-0.3,1.5-0.5c0.3-0.2,0.7-0.4,1.1-0.7c0.4-0.3,0.7-0.5,1-0.7v1.6h4.8v-10.4
				C788.4,420,787.8,418.6,786.5,417.8z M783.5,428.2c-0.4,0.3-0.8,0.6-1.3,0.8c-0.5,0.2-1,0.3-1.5,0.3c-0.6,0-1.1,0-1.4-0.1
				c-0.3-0.1-0.5-0.2-0.8-0.4c-0.2-0.2-0.3-0.4-0.4-0.6c-0.1-0.2-0.1-0.5-0.1-0.8c0-0.5,0.1-0.9,0.4-1.2c0.3-0.3,0.6-0.5,1.1-0.7
				c0.4-0.1,1-0.2,1.8-0.3c0.8-0.1,1.5-0.2,2.2-0.2V428.2z"/>
			<path class="st11" d="M380.8,387.7v-9.5h-31.3v9.5h8.7v34.5h-8.7v9.5h31.3v-9.5H372v-34.5H380.8z M431.8,405.9
				c-1.9-2.3-5-4.1-9-5.5c-2.1-0.6-4-1.2-5.8-1.6c-1.8-0.4-3.7-0.8-5.6-1.2c-3-0.6-5-1.3-6.1-2.1c-1.1-0.7-1.6-1.8-1.6-3.2
				c0-0.9,0.3-1.8,1-2.5c0.7-0.7,1.5-1.3,2.4-1.6c1.1-0.4,2.2-0.7,3.3-0.9c1.1-0.1,2.3-0.2,3.4-0.2c3.2,0,6.4,0.6,9.6,1.7
				c3.1,1.2,5.8,2.6,7.9,4.3h1.5v-12.3c-2.5-1-5.5-1.9-8.9-2.6s-6.9-1-10.4-1c-7,0-12.7,1.6-17.2,4.7c-4.5,3.1-6.7,7.2-6.7,12.2
				c0,3.7,1,6.8,2.9,9.3c2,2.5,5.2,4.5,9.7,5.9c2,0.6,4.1,1.2,6.3,1.6c2.2,0.4,4.4,0.9,6.4,1.3c1.9,0.5,3.4,1.1,4.4,2
				c1,0.9,1.5,1.9,1.5,3c0,1.3-0.3,2.2-1,2.9c-0.7,0.7-1.5,1.2-2.6,1.6c-0.9,0.3-2,0.6-3.3,0.7c-1.4,0.1-2.5,0.2-3.3,0.2
				c-3.2,0-6.6-0.6-10.2-1.8c-3.5-1.2-6.7-3-9.6-5.2h-1.5v12.8c2.9,1.2,5.9,2.2,9.2,3c3.3,0.8,7.1,1.2,11.6,1.2
				c7.6,0,13.7-1.6,18.1-4.9c4.5-3.3,6.7-7.6,6.7-12.8C434.7,411.2,433.8,408.2,431.8,405.9z M486.5,387.2c-1.1-2.2-2.8-4-4.9-5.4
				c-1.8-1.2-3.9-2.1-6.2-2.6c-2.3-0.6-5.2-0.9-8.6-0.9h-22.7v53.4H458v-17.4h8.6c3.9,0,7.1-0.5,9.8-1.6c2.6-1.1,5-2.7,7.1-4.8
				c1.6-1.6,2.7-3.5,3.6-5.8c0.8-2.3,1.3-4.6,1.3-7C488.2,392,487.7,389.4,486.5,387.2z M473.4,399.3c-0.4,1.1-1,2-1.9,2.7
				c-1,0.9-2.3,1.4-3.8,1.7c-1.5,0.3-3.5,0.4-5.8,0.4H458v-16h2.4c2.3,0,4.1,0,5.5,0.1c1.4,0.1,2.8,0.4,4.2,0.9
				c1.1,0.4,2,1.2,2.8,2.3c0.8,1.1,1.2,2.4,1.2,3.9C474,397,473.8,398.3,473.4,399.3z"/>
		</g>
		<g>
			<g>
				<path class="st11" d="M742.9,282.2c0,2.5,0,5,0,7.4c-0.1,5.7,0.3,11.4-0.4,17.1c0.1-0.6-1.3-2.3-1.6-2.8
					c-0.7-1.1-1.4-2.1-2.1-3.2c-1.4-2-3-3.9-4.6-5.7c-3.4-3.7-7.3-6.8-11-10.1c-5-4.4-10.3-8.5-16.2-11.6
					c-6.5-3.4-13.9-4.9-21.1-3.2c-0.9-7.5-3.2-26.8-6.8-32.6c-4.9-7.7-11.5-13.8-19.9-18.2c-8.4-4.4-18.1-6.6-28.9-6.6
					c-8,0-14.6,1-19.7,3c-5.1,2-9.5,4.3-13.1,6.9c-3.6,2.6-6.7,4.9-9.4,6.9c-2.7,2-5.8,3-9.2,3h-39.4c-2.6,0-4.8-0.9-6.6-2.8
					c-0.7-0.7-1.3-1.5-1.7-2.3c1-1,1.9-2,2.9-3.1c10.1-10.9,18-22.3,23.3-34.2c5.5-12,8.3-25.3,8.3-39.5c0-18.1-4.2-34.7-12.6-49.2
					c-2.6-4.6-5.7-8.9-9.2-13l1.2-11.9c0.3-3.7,1.6-6.6,3.9-8.6c2.3-2,5-3,8.1-3h161.2c2.9,0,5.3,1,7.3,3c2,2,3,4.4,3,7.3v28.7
					c0,2.9-1,5.3-3,7.3c-2,2-4.4,3-7.3,3H594.1l-6.9,69.9c5.1-3.4,12-6.7,20.6-9.9c8.6-3.1,20.4-4.7,35.6-4.7
					c13.7,0,26.8,2.2,39.2,6.6c12.4,4.4,23.5,10.9,33.2,19.3c9.7,8.4,17.4,18.6,22.9,30.4c0.1,0.2,0.2,0.5,0.3,0.7
					c1.8,4.4,2.2,9.4,2.6,14.1c0.6,6.8,0.9,13.6,1.1,20.5C742.9,268,742.9,275.1,742.9,282.2z"/>
			</g>
			<g>
				<path class="st11" d="M419.2,346.9c0.5,0.6,1.1,1.1,1.8,1.4c0.7,0.3,1.4,0.4,2.2,0.4c0.8,0,1.5-0.1,2.2-0.4
					c0.7-0.3,1.3-0.8,1.8-1.4c0.6-0.7,1-1.5,1.3-2.5c0.3-1,0.4-2.1,0.4-3.4c0-1.4-0.2-2.6-0.5-3.6c-0.3-1-0.7-1.8-1.3-2.4
					c-0.5-0.6-1.1-1.1-1.8-1.4c-0.7-0.3-1.4-0.4-2.2-0.4c-0.8,0-1.5,0.1-2.1,0.4c-0.7,0.3-1.3,0.7-1.8,1.3c-0.5,0.6-0.9,1.4-1.3,2.4
					s-0.5,2.2-0.5,3.6c0,1.4,0.2,2.6,0.5,3.5C418.3,345.4,418.7,346.2,419.2,346.9z"/>
				<polygon class="st11" points="364.1,343.6 369.8,343.6 366.9,335.3 				"/>
				<path class="st11" d="M499.2,240.2c9.7-8.2,18.4-16.3,25.8-24.2c2.2-2.3,4.3-4.7,6.2-7.1c6.3-7.7,11.3-15.7,15-23.9
					c4.8-10.5,7.2-22.1,7.2-34.6c0-16-3.7-30.6-11-43.3c-0.2-0.4-0.4-0.7-0.7-1.1c-7.2-12.1-18-21.9-32-29.1
					c-14.7-7.5-33.6-11.3-56.2-11.3c-16,0-30.5,2.6-43.2,7.7c-12.7,5.1-23.5,12-32.2,20.4c-8.7,8.4-15.4,18.1-19.9,28.9
					c-4.5,10.8-7,22.1-7.3,33.6c0,0.5,0.1,1,0.8,1.7c0.4,0.4,1,0.8,2.2,0.8h38.1c1.6,0,3.1-0.5,4.8-1.4c0.4-0.2,1.3-0.7,1.7-3.4
					c1.5-9,4.4-17.3,8.6-24.7c4.3-7.7,10.5-14,18.2-18.7c7.8-4.7,17.3-7.1,28.4-7.1c16.9,0,29.5,4.7,37.7,14
					c7.9,9.1,12,20.9,12,35.2c0,9.6-3,19.4-8.8,29c-5.6,9.2-14.5,19.3-26.4,30.1c-7.3,6.5-15.1,12.8-22.6,18.9
					c-2.9,2.3-5.8,4.7-8.7,7c-9.9,8.1-19,16.7-29.5,27.2L354.8,317c-3.6,3-6,5.8-6.9,8.3c-1,2.9-1.6,5.3-1.6,7.2v21.9
					c0,1.3,0.4,2.2,1.2,3.1c0.9,0.9,1.8,1.3,3.1,1.3H462l71.4-35.1l-119.1,0.9l66.5-67.4C486.3,251.5,492.3,246,499.2,240.2z
					 M372.8,352.6l-1.6-4.7h-8.6l-1.6,4.7h-6l8.6-23.2h6.9l8.6,23.2H372.8z M405.1,352.6h-5.8l-9.9-16v16H384v-23.2h7.2l8.5,13.3
					v-13.3h5.5V352.6z M440.1,345.6h0.7c1.2,1,2.6,1.7,4.2,2.3c1.5,0.5,3,0.8,4.4,0.8c0.4,0,0.8,0,1.4-0.1c0.6-0.1,1.1-0.2,1.5-0.3
					c0.5-0.2,0.8-0.4,1.1-0.7c0.3-0.3,0.4-0.7,0.4-1.2c0-0.5-0.2-0.9-0.6-1.3c-0.4-0.4-1.1-0.7-1.9-0.9c-0.9-0.2-1.8-0.4-2.8-0.6
					c-1-0.2-1.9-0.4-2.7-0.7c-2-0.6-3.4-1.5-4.2-2.6c-0.9-1.1-1.3-2.4-1.3-4.1c0-2.2,1-3.9,2.9-5.3c1.9-1.4,4.4-2.1,7.5-2.1
					c1.5,0,3,0.1,4.5,0.4c1.5,0.3,2.8,0.7,3.9,1.1v5.4h-0.6c-0.9-0.7-2.1-1.4-3.4-1.9c-1.4-0.5-2.7-0.8-4.2-0.8c-0.5,0-1,0-1.5,0.1
					c-0.5,0.1-1,0.2-1.4,0.4c-0.4,0.2-0.8,0.4-1,0.7c-0.3,0.3-0.4,0.7-0.4,1.1c0,0.6,0.2,1.1,0.7,1.4c0.5,0.3,1.4,0.6,2.7,0.9
					c0.9,0.2,1.7,0.3,2.5,0.5s1.6,0.4,2.5,0.7c1.8,0.6,3.1,1.4,3.9,2.4c0.8,1,1.3,2.3,1.3,3.9c0,2.3-1,4.1-2.9,5.6
					c-1.9,1.4-4.6,2.1-7.9,2.1c-1.9,0-3.6-0.2-5-0.5c-1.4-0.3-2.8-0.8-4-1.3V345.6z M414.5,332.1c2.1-2.2,5.1-3.3,8.8-3.3
					c3.7,0,6.7,1.1,8.8,3.3c2.1,2.2,3.2,5.1,3.2,8.9c0,3.7-1.1,6.6-3.2,8.8c-2.1,2.2-5.1,3.3-8.8,3.3c-3.7,0-6.7-1.1-8.8-3.3
					c-2.1-2.2-3.2-5.1-3.2-8.8C411.3,337.2,412.3,334.3,414.5,332.1z"/>
			</g>
			<path class="st11" d="M636.1,269.1c-24.2-8.9-43.6-19.3-43.8-19.4l1.8-3.4c0.2,0.1,19.3,10.4,43.3,19.2L636.1,269.1z"/>
			<g>
				<g>
					<path class="st11" d="M600.8,250.8c-1.9-3.4-4.3-7.5-8.2-7.8c-4.7-0.3-9.7,7-11.8,10.5c-12.9,22.2-26,44.5-36.2,68
						c20.7-9,50.5-20.1,75.9-22.3C613.7,279.7,606.4,261.1,600.8,250.8z"/>
					<path class="st11" d="M536.4,342.8c-2,6-3.9,12.1-6.8,17.7l110-0.5c-3.3-12.6-10.1-35-17.7-56.9c-26.5,2.1-58.8,14.6-79.5,23.8
						C540.2,332.1,538.2,337.4,536.4,342.8z"/>
				</g>
				<path class="st11" d="M688.4,281.8c-14.6-1.1-32.2-5.4-52.2-12.8l1.3-3.6c19.7,7.3,36.9,11.5,51.2,12.5L688.4,281.8z"/>
				<path class="st11" d="M471,361.8l49.4-24.9c0,0,71.3-37.7,115-34.1c0,0,35.1-25.2,55.7-27.1c20.6-1.9,43.1,27.1,43.1,27.1
					l51.4,58.2L471,361.8z"/>
			</g>
		</g>
	</g>
	<g>
		<g>
			<path class="st11" d="M1068.3,409.3L1068.3,409.3v9h6.5c2.6,0,4.6-0.3,6-1c1.4-0.7,2.1-1.9,2.1-3.7c0-1.5-0.5-2.6-1.6-3.2
				c-1-0.7-2.6-1-4.5-1H1068.3z M1068.6,429v14.8c0,0.5-0.2,0.9-0.5,1.3c-0.3,0.4-0.7,0.5-1.2,0.5h-12c-0.4,0-0.8-0.2-1.1-0.5
				c-0.3-0.4-0.5-0.8-0.5-1.3v-43.5c0-0.5,0.2-0.9,0.5-1.3c0.3-0.4,0.7-0.5,1.1-0.5h27.1c4.6,0,8.4,1.1,11.2,3.4
				c3,2.5,4.5,5.7,4.5,9.8c0,4.6-1.2,7.9-3.7,9.9c-0.6,0.5-1.3,1-2.1,1.5c-0.8,0.5-1.7,0.9-2.7,1.2c1.2,0.7,2.1,1.4,2.9,2.2
				c0.8,0.8,1.5,1.6,2,2.4l7.4,13.9c0.4,0.7,0.4,1.3,0.1,1.9c-0.3,0.6-0.8,0.9-1.5,0.9h-13.7c-0.3,0-0.6-0.1-0.8-0.3
				c-0.3-0.2-0.5-0.4-0.6-0.7l-6.9-14.3l0.1,0.1c-0.1-0.2-0.3-0.4-0.5-0.6c-0.2-0.2-0.3-0.4-0.5-0.5c-0.3-0.2-1.4-0.4-3.4-0.4
				H1068.6z"/>
			<path class="st11" d="M1105.7,445.6c-0.4,0-0.7-0.2-1-0.5c-0.3-0.4-0.4-0.8-0.4-1.3v-43.5c0-0.5,0.1-0.9,0.4-1.3
				c0.3-0.4,0.6-0.5,1-0.5h10.1c0.4,0,0.7,0.2,1,0.5c0.3,0.4,0.4,0.8,0.4,1.3v43.5c0,0.5-0.1,0.9-0.4,1.3c-0.3,0.4-0.6,0.5-1,0.5
				H1105.7z"/>
			<path class="st11" d="M1152.7,414.2L1152.7,414.2c-1.8-1.7-4.4-2.6-7.8-2.6c-3.4,0-6,0.9-7.7,2.6c-1.8,1.7-2.6,4.3-2.6,7.8
				s0.9,6,2.6,7.8c1.8,1.7,4.3,2.6,7.7,2.6c3.4,0,6-0.9,7.8-2.6c1.8-1.7,2.7-4.3,2.7-7.8S1154.5,416,1152.7,414.2 M1163.9,440.3
				c-4.3,4-10.6,6-19,6c-8.4,0-14.7-2-19-6c-4.3-4-6.4-10.1-6.4-18.3s2.1-14.3,6.4-18.4c4.3-4,10.6-6,19-6c8.4,0,14.7,2,19,6
				c4.3,4,6.4,10.1,6.4,18.4S1168.2,436.3,1163.9,440.3"/>
			<path class="st11" d="M1217.5,415.2L1217.5,415.2c-1.3-1.6-3.1-2.3-5.6-2.3h-9.5v18.5h9.1c2.6,0,4.6-0.8,5.9-2.3
				c1.3-1.5,2-3.8,2-6.9C1219.4,419,1218.7,416.7,1217.5,415.2 M1212.3,398.5c6.5,0,11.7,2.2,15.7,6.5c4,4.3,6,10,6,17
				c0,6.8-2,12.5-6.1,16.9c-4,4.4-9.2,6.6-15.5,6.6h-23.8c-0.5,0-0.9-0.2-1.2-0.5c-0.3-0.4-0.5-0.8-0.5-1.3v-43.5
				c0-0.5,0.2-0.9,0.5-1.3c0.3-0.4,0.7-0.5,1.2-0.5H1212.3z"/>
			<path class="st11" d="M1238.1,445.6c-0.4,0-0.8-0.2-1.1-0.5c-0.3-0.4-0.5-0.8-0.5-1.3v-43.5c0-0.5,0.2-0.9,0.5-1.3
				c0.3-0.4,0.7-0.5,1.1-0.5h31.5c0.4,0,0.8,0.2,1.1,0.5c0.3,0.4,0.5,0.8,0.5,1.3v8.8c0,0.5-0.2,1-0.5,1.3c-0.3,0.4-0.7,0.5-1.1,0.5
				h-18.2v4.8h15.5c0.4,0,0.8,0.2,1.1,0.5c0.3,0.4,0.5,0.8,0.5,1.3v8.7c0,0.5-0.2,1-0.5,1.3c-0.3,0.4-0.7,0.5-1.1,0.5l-15.5,0.1v5
				h19.6c0.5,0,0.9,0.2,1.2,0.5c0.3,0.4,0.5,0.8,0.5,1.3v8.8c0,0.5-0.2,0.9-0.5,1.3c-0.3,0.4-0.7,0.5-1.2,0.5H1238.1z"/>
			<path class="st11" d="M1319.2,398c0.4,0,0.8,0.2,1.1,0.5c0.3,0.4,0.5,0.8,0.5,1.3v30.9c0,4.9-1.5,8.9-4.5,12.1
				c-3,3-6.8,4.6-11.5,4.6c-2.5,0-5.1-0.5-7.8-1.4c-1.3-0.5-2.4-0.9-3.2-1.2c-0.8-0.3-1.4-0.6-1.8-0.8c-0.2-0.1-0.4-0.3-0.5-0.6
				c-0.2-0.3-0.3-0.5-0.3-0.7l-1.6-13.7c-0.1-0.5,0-0.9,0.2-1.2c0.2-0.3,0.4-0.6,0.7-0.7c0.3-0.2,0.6-0.2,1-0.2
				c0.3,0.1,0.7,0.3,0.9,0.6c0.6,0.8,1.7,1.7,3.5,2.8c1.6,1,3.3,1.5,5.1,1.5c3.4,0,5.1-1.7,5.1-5.2v-26.6c0-0.5,0.2-1,0.5-1.3
				c0.3-0.4,0.7-0.5,1.1-0.5H1319.2z"/>
			<path class="st11" d="M1341.3,428.1L1341.3,428.1h10.1l-4.9-10.5L1341.3,428.1z M1360.5,445.6c-0.3,0-0.5-0.1-0.8-0.3
				c-0.3-0.2-0.5-0.4-0.6-0.7l-2.8-5.9H1336l-2.8,5.9c-0.1,0.3-0.4,0.5-0.7,0.7c-0.3,0.2-0.6,0.3-0.9,0.3h-11.2
				c-0.7,0-1.2-0.3-1.6-0.8c-0.3-0.6-0.3-1.2,0.1-1.9l22.2-43.4c0.1-0.2,0.3-0.5,0.6-0.7c0.3-0.2,0.6-0.3,0.8-0.3h9.6
				c0.3,0,0.5,0.1,0.8,0.3c0.3,0.2,0.5,0.4,0.6,0.7l20.9,43.4c0.3,0.7,0.3,1.3,0,1.8c-0.3,0.5-0.8,0.8-1.5,0.8H1360.5z"/>
			<path class="st11" d="M1403,417.7c1,1.5,2,3.1,3.1,4.7v-22.1c0-0.5,0.2-0.9,0.5-1.3c0.3-0.4,0.7-0.5,1.2-0.5h10.5
				c0.5,0,0.9,0.2,1.2,0.5c0.3,0.4,0.5,0.8,0.5,1.3v43.5c0,0.5-0.2,0.9-0.5,1.3c-0.3,0.4-0.7,0.5-1.2,0.5h-12.1
				c-0.2,0-0.4-0.1-0.7-0.2c-0.3-0.1-0.5-0.3-0.7-0.5l-15.2-22.8v21.8c0,0.5-0.2,0.9-0.5,1.3c-0.3,0.4-0.7,0.5-1.2,0.5h-10.5
				c-0.4,0-0.8-0.2-1.1-0.5c-0.3-0.4-0.5-0.8-0.5-1.3v-43.5c0-0.5,0.2-0.9,0.5-1.3c0.3-0.4,0.7-0.5,1.1-0.5h12
				c0.2,0,0.5,0.1,0.8,0.2c0.3,0.2,0.5,0.3,0.6,0.5c1.6,2.4,3.1,4.7,4.6,7c1.5,2.3,3,4.5,4.6,6.8C1401,414.6,1402,416.2,1403,417.7"
				/>
			<path class="st11" d="M1425,445.6c-0.4,0-0.8-0.2-1.1-0.5c-0.3-0.4-0.5-0.8-0.5-1.3v-43.5c0-0.5,0.2-0.9,0.5-1.3
				c0.3-0.4,0.7-0.5,1.1-0.5h31.5c0.4,0,0.8,0.2,1.1,0.5c0.3,0.4,0.5,0.8,0.5,1.3v8.8c0,0.5-0.2,1-0.5,1.3c-0.3,0.4-0.7,0.5-1.1,0.5
				h-18.2v4.8h15.5c0.4,0,0.8,0.2,1.1,0.5c0.3,0.4,0.5,0.8,0.5,1.3v8.7c0,0.5-0.2,1-0.5,1.3c-0.3,0.4-0.7,0.5-1.1,0.5l-15.5,0.1v5
				h19.6c0.5,0,0.9,0.2,1.2,0.5c0.3,0.4,0.5,0.8,0.5,1.3v8.8c0,0.5-0.2,0.9-0.5,1.3c-0.3,0.4-0.7,0.5-1.2,0.5H1425z"/>
			<path class="st11" d="M1463.3,445.6c-0.4,0-0.7-0.2-1-0.5c-0.3-0.4-0.4-0.8-0.4-1.3v-43.5c0-0.5,0.1-0.9,0.4-1.3
				c0.3-0.4,0.6-0.5,1-0.5h10.1c0.4,0,0.7,0.2,1,0.5c0.3,0.4,0.4,0.8,0.4,1.3v43.5c0,0.5-0.1,0.9-0.4,1.3c-0.3,0.4-0.6,0.5-1,0.5
				H1463.3z"/>
			<path class="st11" d="M1492.2,409.3L1492.2,409.3v9h6.5c2.6,0,4.6-0.3,6-1c1.4-0.7,2.1-1.9,2.1-3.7c0-1.5-0.5-2.6-1.6-3.2
				c-1-0.7-2.6-1-4.5-1H1492.2z M1492.5,429v14.8c0,0.5-0.2,0.9-0.5,1.3c-0.3,0.4-0.7,0.5-1.2,0.5h-12c-0.4,0-0.8-0.2-1.1-0.5
				c-0.3-0.4-0.5-0.8-0.5-1.3v-43.5c0-0.5,0.2-0.9,0.5-1.3c0.3-0.4,0.7-0.5,1.1-0.5h27.1c4.7,0,8.4,1.1,11.2,3.4
				c3,2.5,4.5,5.7,4.5,9.8c0,4.6-1.2,7.9-3.7,9.9c-0.6,0.5-1.3,1-2.1,1.5c-0.8,0.5-1.7,0.9-2.7,1.2c1.2,0.7,2.1,1.4,2.9,2.2
				c0.8,0.8,1.5,1.6,2,2.4l7.4,13.9c0.4,0.7,0.4,1.3,0.1,1.9c-0.3,0.6-0.8,0.9-1.5,0.9h-13.7c-0.3,0-0.6-0.1-0.8-0.3
				c-0.3-0.2-0.5-0.4-0.6-0.7l-6.9-14.3l0.1,0.1c-0.1-0.2-0.3-0.4-0.5-0.6c-0.2-0.2-0.3-0.4-0.5-0.5c-0.3-0.2-1.4-0.4-3.4-0.4
				H1492.5z"/>
			<path class="st11" d="M1555.5,414.2L1555.5,414.2c-1.8-1.7-4.4-2.6-7.8-2.6c-3.4,0-6,0.9-7.7,2.6c-1.8,1.7-2.6,4.3-2.6,7.8
				s0.9,6,2.6,7.8c1.8,1.7,4.3,2.6,7.7,2.6c3.4,0,6-0.9,7.8-2.6c1.8-1.7,2.7-4.3,2.7-7.8S1557.3,416,1555.5,414.2 M1566.8,440.3
				c-4.3,4-10.6,6-19,6c-8.4,0-14.7-2-19-6c-4.3-4-6.4-10.1-6.4-18.3s2.1-14.3,6.4-18.4c4.3-4,10.6-6,19-6c8.4,0,14.7,2,19,6
				c4.3,4,6.4,10.1,6.4,18.4S1571,436.3,1566.8,440.3"/>
			<g>
				<path class="st11" d="M1053.2,373.3c0-8.5,4-12.1,11.1-12.1c4.3,0,6.9,1.4,8.6,3.3l-3.2,3.6c-1.1-1.1-2.5-2.2-5.4-2.2
					c-4.6,0-6.4,2.5-6.4,7.4c0,5.1,1.3,7.7,6.4,7.7c4.1,0,5.3-1.5,5.3-4.8v-0.5h-5.9v-4.3h10.5v3.8c0,6.7-2.4,10.2-10.2,10.2
					C1055.6,385.4,1053.2,381.1,1053.2,373.3"/>
				<path class="st11" d="M1104.7,373.4L1104.7,373.4c0-4.6-1.6-7.4-6.5-7.4c-4.9,0-6.5,2.9-6.5,7.4c0,4.6,1.6,7.5,6.5,7.5
					C1103.1,380.9,1104.7,378,1104.7,373.4 M1087,373.3c0-8.8,4.5-12.1,11.2-12.1c6.7,0,11.2,3.3,11.2,12.1
					c0,8.8-4.5,12.1-11.2,12.1C1091.5,385.4,1087,382.1,1087,373.3"/>
				<polygon class="st11" points="1121.1,361.6 1126.1,361.6 1132,378.7 1137.8,361.6 1142.7,361.6 1134.2,385.2 1129.5,385.2 				
					"/>
				<polygon class="st11" points="1156.3,361.6 1172.2,361.6 1172.2,366.3 1161,366.3 1161,370.8 1171.9,370.8 1171.9,375.4 
					1161,375.4 1161,380.6 1172.3,380.6 1172.3,385.1 1156.3,385.1 				"/>
				<path class="st11" d="M1197.2,372.8L1197.2,372.8c2.5,0,3.7-0.7,3.7-3.4c0-2.7-1.1-3.4-3.7-3.4h-5.4v6.8H1197.2z M1196.4,377.3
					h-4.7v7.8h-4.6v-23.5h10.2c6.6,0,8.2,3.2,8.2,7.7c0,3.2-0.9,6.2-4.5,7.4l4.2,8.4h-5L1196.4,377.3z"/>
				<polygon class="st11" points="1220.3,361.6 1225.4,361.6 1235.1,376.4 1235.1,361.6 1239.5,361.6 1239.5,385.1 1235.3,385.1 
					1224.8,369.2 1224.8,385.1 1220.3,385.1 				"/>
				<path class="st11" d="M1271.5,373.4L1271.5,373.4c0-4.6-1.6-7.4-6.5-7.4c-4.8,0-6.5,2.9-6.5,7.4c0,4.6,1.6,7.5,6.5,7.5
					C1269.8,380.9,1271.5,378,1271.5,373.4 M1253.8,373.3c0-8.8,4.5-12.1,11.2-12.1c6.7,0,11.2,3.3,11.2,12.1
					c0,8.8-4.5,12.1-11.2,12.1C1258.3,385.4,1253.8,382.1,1253.8,373.3"/>
				<path class="st11" d="M1315.5,380.5L1315.5,380.5c5.8,0,6.9-1.9,6.9-7.2c0-5.3-1-7.1-7-7.1h-3v14.3H1315.5z M1307.8,361.6h7.6
					c8.3,0,11.8,2.4,11.8,11.7c0,9.2-3.6,11.8-11.9,11.8h-7.5V361.6z"/>
				<path class="st11" d="M1357.9,373.4L1357.9,373.4c0-4.6-1.6-7.4-6.5-7.4c-4.8,0-6.5,2.9-6.5,7.4c0,4.6,1.6,7.5,6.5,7.5
					C1356.3,380.9,1357.9,378,1357.9,373.4 M1340.2,373.3c0-8.8,4.5-12.1,11.2-12.1c6.7,0,11.2,3.3,11.2,12.1
					c0,8.8-4.5,12.1-11.2,12.1C1344.7,385.4,1340.2,382.1,1340.2,373.3"/>
				<polygon class="st11" points="1394.2,361.6 1410.1,361.6 1410.1,366.3 1398.9,366.3 1398.9,370.8 1409.8,370.8 1409.8,375.4 
					1398.9,375.4 1398.9,380.6 1410.2,380.6 1410.2,385.1 1394.2,385.1 				"/>
				<path class="st11" d="M1423.1,382.3l2.3-3.7c2.3,1.7,4.9,2.5,7.6,2.5c4.1,0,4.9-0.9,4.9-2.9c0-1.9-1.8-2.3-5-2.8
					c-5.7-0.9-8.6-2-8.6-7.1c0-5.2,2.9-7.1,8.8-7.1c4.3,0,6.9,1.1,8.6,2.3l-2.5,4c-1.3-1-3.8-1.8-6.1-1.8c-3.3,0-4.1,0.7-4.1,2.4
					c0,1.9,1.7,2.2,5.1,2.8c5.1,0.8,8.5,1.7,8.5,7c0,4.8-2.3,7.4-9.4,7.4C1429,385.4,1425.5,384.3,1423.1,382.3"/>
				<polygon class="st11" points="1461.6,366.3 1454.3,366.3 1454.3,361.6 1473.7,361.6 1473.7,366.3 1466.3,366.3 1466.3,385.1 
					1461.6,385.1 				"/>
				<path class="st11" d="M1496.8,376.9L1496.8,376.9l-3.3-9.4l-3.3,9.4H1496.8z M1491.2,361.4h4.7l8.5,23.7h-4.8l-1.4-3.9h-9.6
					l-1.4,3.9h-4.6L1491.2,361.4z"/>
				<path class="st11" d="M1525.9,380.5L1525.9,380.5c5.8,0,6.9-1.9,6.9-7.2c0-5.3-1-7.1-7-7.1h-3v14.3H1525.9z M1518.1,361.6h7.6
					c8.3,0,11.8,2.4,11.8,11.7c0,9.2-3.6,11.8-11.9,11.8h-7.5V361.6z"/>
				<path class="st11" d="M1568.3,373.4L1568.3,373.4c0-4.6-1.6-7.4-6.5-7.4c-4.8,0-6.5,2.9-6.5,7.4c0,4.6,1.6,7.5,6.5,7.5
					C1566.6,380.9,1568.3,378,1568.3,373.4 M1550.6,373.3c0-8.8,4.4-12.1,11.2-12.1c6.7,0,11.2,3.3,11.2,12.1
					c0,8.8-4.5,12.1-11.2,12.1C1555,385.4,1550.6,382.1,1550.6,373.3"/>
			</g>
		</g>
		<g>
			<path class="st11" d="M1343.4,241.3c-0.1,0.1-0.3,0.2-0.9,1c0,0,0,0-0.1,0.1c-1.2,1.7-2.8,2.6-4.7,3.2c-2.2,0.6-6.9,1.7-9.9,3.1
				c2.1,0.1,10.6,0.9,13.8,0.5c3.2-0.4,6.6-2.1,6.7-4.7C1348.3,242.1,1345.9,241.3,1343.4,241.3 M1350.2,229.5L1350.2,229.5
				c-0.9,0.2,0.7-1.6,2.2-0.5C1352.3,229,1350.9,229.3,1350.2,229.5 M1313.6,259.9c0-1.4,0-3.8,0-4.8c0.2-1.8,0.9-3.4,2.9-4.8
				c-0.5,0.8,0.1,7.3,0.5,9.7c-0.8-0.1-1.5-0.1-2.3-0.1C1314.3,259.8,1314,259.9,1313.6,259.9 M1357.6,287.7l-16.3,0
				c0-0.3,0-0.6,0-1c0-12.7-8.8-23.3-20.6-26.1h0.2l-0.1,0c-0.6-1.4,0.1-6.1,0.4-7.3c0.4-1.5,3.1-3.6,5.4-5c2.2-1.4,6.3-2.5,8.9-3.2
				c2.6-0.7,3.8-1.3,4.4-1.7c1-0.7,1.9-2,3.2-3.3c0.4-0.4,0.8-0.8,0.8-0.8c0,0,2.8-2.9,7.4-4.9c1.2-0.5,3.6-1.1,4.5-1
				c1,0.1,1.5,0.3,2.1,0.9c0.1-1-0.1-1.9-0.4-2.9c-0.3-1-1.2-3-4.3-2.4c-0.5-1-2.9-0.6-5.1,0c-2.2,0.6-6.5,2.3-8.3,3
				c-1.8,0.6-4.8,1-5.7,0.5c0.2,0.6,0.8,0.9,1.4,1.2c-0.2,0-0.4,0-0.7,0c-0.9-0.3-2.2-0.9-3-2.4c-0.9-1.8-0.8-3.5-1.4-4.7
				c-0.6-1.2-1-3-4.2-3c-3.2,0-10.4,2.6-16.6,4.2c-6.2,1.6-17,4.6-21.8,5.8c-1.3,0.3-2.9,0.7-4.7,1l9.1-17.7c5.1-11,8.8-4.2,8.8-4.2
				s1.8-1.8,3.9-2.8c2.8-1.8,5.1,2.1,5.1,2.1s0.6-2.7,4.8-3.2c1-0.1,3.2-16,3.2-16s0.5-5.9,2.8-7.4c1.1,0.2,2.2,0.4,3.2,0.7
				c1.5,1.6,1.5,4.5,1.5,4.5l1.8,30.9l9.1,0.2l13.7-16.3c8.9,12.4,14.4,29.5,14.4,48.2c0,1.9-0.1,5.4-0.2,7.2h-0.1
				C1363.2,270.4,1361,279.6,1357.6,287.7 M1264.8,260.7c-0.1-1.9-0.2-5.3-0.2-7.2c0-5.7,0.5-11.3,1.5-16.6l11.3,4.1
				c1.5,0,2.6-1.1,3.3-2.2c4.3,0,8.3-0.7,9.8-0.9c-1.4,0.5-9.7,2.2-9.5,2.4c0.1,0.8,5.2,2,15.1-1.1c-1.6,1.1-5.6,2.5-8.5,3.3
				c-0.2,0.1,0.2,0.2,0.7,0.4c1.7,0.4,5.8,0.7,14.3-2.3c-1.9,1-5.8,2.5-8.7,3.4c-1.6,0.5,2.7,0.9,5.9,0.3c3.3-0.6,6.2-2.1,8.4-2.4
				l1.7-0.1c-3.4,0.6-11.8,4.7-14.5,6.3c-3.1,1.7-9,4.1-12,4.4c1.2,1.1,4.7,2.8,7.4,3.5c3,0.8,7.7,1.2,11.8,0.5
				c1.4-3.3,6.6-6.6,9.1-7.5c-2.8,2.5-2.8,4.2-2.9,5.8c0,1.3,0.7,4.1,1,5.7c-0.6,0.1-1.3,0.3-1.9,0.4h-0.3
				c-11.6,3-20.1,13.5-20.1,26c0,0.3,0,0.6,0,1l-16.4,0c-3.4-8.1-5.6-17.2-6.3-27H1264.8z"/>
			<path class="st11" d="M1353.7,317.3c0.7-0.6,1.6-0.7,2.4-0.3c-1.6-1.4-2.7-3.4-3-5.7c-0.3-2.6,0.4-5.1,1.9-7
				c1.9,1.4,3.2,3.6,3.6,6.2c0.2-0.3,0.4-0.5,0.6-0.8c1.3-1.7,3.1-2.8,5-3.3c-0.4-0.6-0.4-1.5,0-2.2c0.4-0.6,1-1,1.6-1
				c-0.1-0.2-0.2-0.5-0.2-0.7c-0.6,0.3-1.3,0.3-1.9-0.1c-1-0.6-1.4-1.9-0.8-2.9c0.6-1,1.9-1.4,2.9-0.8c0.6,0.4,1,1,1.1,1.6
				c0.2-0.1,0.4-0.2,0.7-0.2c-0.3-0.6-0.3-1.3,0.1-1.9c0.4-0.7,1.2-1.1,2-1.1c-1.8-0.9-3.4-2.5-4.3-4.6c-1.1-2.4-1-5.1-0.1-7.2
				c2.2,0.8,4.1,2.5,5.2,4.9c0.1-0.3,0.2-0.6,0.3-0.9c0.8-2.1,2.3-3.7,4.1-4.7c-0.7-0.5-1-1.4-0.8-2.3c0.2-0.7,0.7-1.2,1.3-1.5
				c-0.1-0.2-0.3-0.4-0.4-0.6c-0.5,0.4-1.2,0.6-1.9,0.4c-1.1-0.3-1.8-1.5-1.5-2.6c0.3-1.1,1.5-1.8,2.6-1.5c0.7,0.2,1.2,0.7,1.5,1.3
				c0.2-0.1,0.4-0.3,0.6-0.4c-0.4-0.5-0.6-1.2-0.4-1.9c0.2-0.9,1-1.5,1.9-1.6c-2.1-0.4-4-1.6-5.5-3.5c-1.6-2.1-2.2-4.7-1.8-7
				c2.3,0.2,4.6,1.5,6.2,3.5c0-0.3,0-0.7,0.1-1c0.3-2.2,1.3-4.1,2.7-5.4c-0.7-0.4-1.1-1.1-1.1-1.9c0-0.7,0.4-1.3,0.9-1.7
				c-0.2-0.1-0.4-0.3-0.5-0.5c-0.4,0.5-1,0.9-1.8,0.9c-1.2,0-2.1-1-2.1-2.2c0-1.2,1-2.1,2.2-2.1c0.7,0,1.3,0.4,1.7,0.9
				c0.1-0.2,0.3-0.4,0.5-0.5c-0.5-0.4-0.9-1-0.8-1.7c0-0.9,0.6-1.7,1.4-2c-2.1,0-4.2-0.7-6-2.2c-2.1-1.7-3.2-4.1-3.3-6.4
				c2.3-0.3,4.8,0.4,6.8,2.1c-0.1-0.3-0.1-0.7-0.1-1c-0.2-2.1,0.3-4.2,1.3-5.8c-0.7-0.2-1.3-0.8-1.5-1.6c-0.1-0.7,0.1-1.4,0.6-1.9
				c-0.2-0.1-0.4-0.2-0.6-0.4c-0.3,0.6-0.8,1.1-1.5,1.2c-1.2,0.2-2.3-0.5-2.5-1.7c-0.2-1.2,0.5-2.3,1.7-2.5c0.7-0.1,1.4,0.1,1.9,0.6
				c0.1-0.2,0.2-0.4,0.4-0.6c-0.6-0.3-1.1-0.8-1.2-1.5c-0.1-0.8,0.2-1.6,0.8-2.1c-2,0.4-4.1,0.2-6.2-0.8c-2.4-1.2-4-3.2-4.7-5.5
				c2.2-0.8,4.8-0.7,7.1,0.5c-0.1-0.3-0.3-0.6-0.4-0.9c-0.7-2.2-0.6-4.4,0.2-6.3c-0.9,0.1-1.7-0.4-2.1-1.2c-0.3-0.6-0.2-1.4,0.1-2
				c-0.2,0-0.5-0.1-0.7-0.3c-0.1,0.7-0.5,1.3-1.2,1.6c-1.1,0.5-2.3,0-2.8-1c-0.5-1.1,0-2.3,1-2.8c0.6-0.3,1.4-0.3,2,0.1
				c0-0.2,0.1-0.5,0.2-0.7c-0.7-0.1-1.2-0.5-1.5-1.2c-0.4-0.8-0.2-1.8,0.4-2.4c-1.8,1-4,1.4-6.2,0.9c-2.6-0.5-4.8-2-6-4
				c1.9-1.4,4.4-2,7-1.5c-0.2-0.3-0.4-0.5-0.6-0.8c-1.3-1.9-1.8-4-1.6-6c-0.8,0.3-1.7,0.1-2.3-0.6c-0.5-0.5-0.6-1.2-0.5-1.9
				c-0.2,0-0.5,0-0.7,0c0.1,0.7-0.2,1.3-0.7,1.8c-0.9,0.8-2.2,0.7-3-0.2c-0.8-0.9-0.7-2.2,0.2-3c0.5-0.5,1.2-0.6,1.9-0.5
				c0-0.2,0-0.5,0-0.7c-0.7,0.1-1.3-0.2-1.8-0.7c-0.5-0.5-0.6-1.2-0.5-1.9c-1.4,1.4-3.3,2.4-5.5,2.7c-2.6,0.4-5.2-0.4-7-1.9
				c1.4-1.9,3.5-3.2,6.1-3.6c-0.3-0.2-0.6-0.4-0.8-0.6c-2.1-1.6-3.3-3.9-3.6-6.3c2.3-0.4,4.9,0.2,7,1.8c0.3,0.2,0.5,0.4,0.8,0.7
				c-0.3-2.6,0.5-5,1.9-6.8c1.9,1.4,3.3,3.6,3.6,6.2c0.3,2.3-0.2,4.5-1.4,6.2c0.8-0.4,1.8-0.2,2.5,0.5c0.5,0.5,0.6,1.2,0.5,1.9
				c0.2,0,0.4,0,0.7,0c-0.1-0.6,0.2-1.3,0.7-1.8c0.9-0.8,2.2-0.7,3,0.2c0.8,0.9,0.7,2.2-0.2,3c-0.5,0.5-1.2,0.6-1.9,0.5
				c0,0.2,0,0.5,0,0.7c0.7-0.1,1.3,0.2,1.8,0.7c0.6,0.7,0.7,1.8,0.2,2.5c2,0.6,3.8,1.8,5.1,3.7c0.2,0.3,0.4,0.6,0.5,0.9
				c0.5-2.6,2-4.6,4-5.9c1.4,1.9,2,4.4,1.5,7.1c-0.5,2.5-1.9,4.6-3.8,5.9c1-0.3,2.1,0.2,2.5,1.1c0.3,0.6,0.2,1.4-0.1,1.9
				c0.2,0,0.4,0.1,0.6,0.2c0.1-0.6,0.6-1.2,1.2-1.5c1.1-0.5,2.3,0,2.8,1c0.5,1.1,0,2.3-1,2.8c-0.6,0.3-1.3,0.3-1.9-0.1
				c-0.1,0.2-0.1,0.4-0.2,0.6c0.7,0.1,1.3,0.5,1.6,1.2c0.4,0.9,0.2,1.9-0.5,2.5c1.8,1.1,3.2,2.8,4,5.1c0.1,0.3,0.2,0.6,0.3,1
				c1.2-2.3,3.2-3.9,5.4-4.6c0.8,2.2,0.7,4.8-0.5,7.2c-1.1,2.1-2.8,3.7-4.8,4.4c0.9,0.1,1.7,0.8,1.9,1.7c0.1,0.7-0.1,1.4-0.5,1.9
				c0.2,0.1,0.4,0.2,0.5,0.4c0.3-0.6,0.8-1,1.5-1.2c1.1-0.2,2.3,0.5,2.5,1.7c0.2,1.1-0.5,2.3-1.7,2.5c-0.7,0.1-1.4-0.1-1.8-0.5
				c-0.1,0.2-0.2,0.4-0.4,0.6c0.6,0.3,1.1,0.8,1.2,1.5c0.2,0.9-0.2,1.7-1,2.2c1.4,1.4,2.3,3.4,2.5,5.5c0,0.3,0,0.7,0,1
				c1.7-2,4-3.1,6.3-3.2c0.3,2.3-0.4,4.9-2.1,6.9c-1.6,1.9-3.8,3-6,3.3c0.9,0.2,1.7,1.1,1.6,2.1c0,0.7-0.4,1.3-0.9,1.7
				c0.2,0.1,0.3,0.3,0.5,0.5c0.4-0.5,1-0.8,1.7-0.8c1.2,0,2.1,1,2.1,2.2c0,1.2-1,2.1-2.2,2.1c-0.7,0-1.3-0.4-1.7-0.9
				c-0.1,0.2-0.3,0.3-0.5,0.5c0.5,0.4,0.9,1,0.9,1.8c0,1-0.7,1.7-1.5,2c1,1.7,1.5,3.8,1.2,6c0,0.3-0.1,0.7-0.2,1
				c2.1-1.6,4.6-2.1,6.9-1.7c-0.2,2.3-1.5,4.6-3.6,6.2c-2,1.5-4.4,2.1-6.7,1.9c0.9,0.4,1.5,1.5,1.2,2.5c-0.2,0.7-0.7,1.2-1.3,1.4
				c0.1,0.2,0.2,0.4,0.3,0.6c0.5-0.4,1.2-0.6,1.9-0.4c1.1,0.3,1.8,1.5,1.5,2.6c-0.3,1.1-1.5,1.8-2.6,1.5c-0.7-0.2-1.2-0.7-1.4-1.3
				c-0.2,0.1-0.4,0.2-0.6,0.3c0.4,0.5,0.6,1.2,0.4,1.9c-0.2,0.9-1.1,1.5-2,1.6c0.7,1.9,0.6,4.2-0.2,6.3c-0.1,0.3-0.3,0.6-0.4,0.9
				c2.4-1,5-1,7.1-0.1c-0.8,2.2-2.5,4.1-5,5.2c-2.3,1-4.7,1-6.7,0.3c0.7,0.6,0.9,1.7,0.4,2.6c-0.3,0.6-1,1-1.6,1.1
				c0.1,0.2,0.1,0.4,0.2,0.6c0.6-0.3,1.3-0.2,1.9,0.1c1,0.6,1.4,1.9,0.8,2.9c-0.6,1-1.9,1.4-2.9,0.8c-0.6-0.3-1-1-1.1-1.6
				c-0.2,0.1-0.4,0.1-0.7,0.2c0.3,0.6,0.3,1.3-0.1,2c-0.5,0.8-1.4,1.2-2.2,1c0,2-0.6,4-2,5.7c-0.2,0.3-0.4,0.5-0.7,0.8
				c2.6-0.3,5,0.5,6.8,1.9c-1.4,1.9-3.6,3.3-6.2,3.6c-2.5,0.3-4.9-0.4-6.7-1.7c0.6,0.9,0.5,2.1-0.3,2.8c-0.5,0.5-1.2,0.6-1.9,0.5
				c0,0.2,0,0.4,0,0.6c0.7-0.1,1.3,0.2,1.8,0.7c0.8,0.9,0.7,2.2-0.1,3c-0.9,0.8-2.2,0.7-3-0.1c-0.5-0.5-0.6-1.2-0.5-1.8
				c-0.2,0-0.5,0-0.7,0c0.1,0.7-0.1,1.4-0.7,1.8c-0.9,0.8-2.2,0.7-3-0.1c-0.8-0.9-0.7-2.2,0.1-3c0.5-0.5,1.2-0.6,1.9-0.5
				c0-0.2,0-0.5,0-0.7c-0.7,0.1-1.3-0.2-1.8-0.7c-0.8-0.9-0.7-2.2,0.1-3c0.9-0.8,2.2-0.7,3,0.1c0.5,0.5,0.7,1.2,0.5,1.9
				c0.2,0,0.5,0,0.7,0C1352.9,318.5,1353.2,317.8,1353.7,317.3"/>
			<path class="st11" d="M1267.7,187c-4.4,5.1-8.2,10.9-11.5,17.2l3.5-12.9c0.1-0.2,0-0.4-0.2-0.4l-3.3-1.5c-0.2-0.1-0.4,0-0.5,0.2
				l-8.9,15.9c-0.1,0.2-0.1,0.4,0.1,0.5c0.2,0.1,0.4,0.1,0.5-0.1c0,0,6.4-7.4,7.6-8.9l-0.9,11.4c-0.5,1.1-1,2.2-1.4,3.4
				c-2.7,6.7-4.8,13.9-6.1,21.4l-0.2-13.9c0-0.2-0.1-0.3-0.3-0.4l-3.6-0.5c-0.2,0-0.4,0.1-0.4,0.3l-4.1,17.8c0,0.2,0.1,0.4,0.2,0.5
				c0.2,0.1,0.4,0,0.5-0.2c0,0,4-8.9,4.8-10.7l2.4,11.6c-0.7,5.2-1.1,10.4-1.1,15.7c0,2.9,0.1,5.7,0.3,8.5l-3.6-13.3
				c-0.1-0.2-0.2-0.3-0.4-0.3l-3.6,0.4c-0.2,0-0.3,0.2-0.3,0.4l0.4,18.2c0,0.2,0.2,0.4,0.3,0.4c0.2,0,0.4-0.1,0.4-0.3
				c0,0,1.7-9.6,2-11.5l5.2,10.6c0.9,8.4,2.8,16.5,5.6,24.2l-7-11.7c-0.1-0.2-0.3-0.2-0.5-0.2l-3.3,1.4c-0.2,0.1-0.3,0.3-0.2,0.5
				l5.3,17.5c0.1,0.2,0.2,0.3,0.4,0.3c0.2,0,0.3-0.2,0.3-0.4v0c0,0-1-9.8-1.1-11.7l7.8,8.7c3.1,7.7,7.1,14.7,11.8,20.9l-10.1-8.7
				c-0.1-0.1-0.4-0.1-0.5,0l-2.7,2.3c-0.1,0.1-0.2,0.3-0.1,0.5l10.5,14.9c0.1,0.2,0.3,0.2,0.5,0.1c0.1-0.1,0.2-0.2,0.2-0.3
				c0,0,0-0.1,0-0.2c0,0-4-8.9-4.8-10.7l9.9,5.6c1.3,1.6,2.7,3.1,4.2,4.5c0.8,0.8,2,0.8,2.8,0c0.8-0.8,0.8-2,0-2.8
				c-1.5-1.5-3-3.1-4.4-4.8l-0.9-9.3c1.3,1.5,7.6,8.8,7.6,8.8c0.1,0.1,0.3,0.2,0.5,0.1c0.2-0.1,0.2-0.3,0.1-0.5l-9.2-15.8
				c-0.1-0.2-0.3-0.2-0.5-0.2l-3.4,1.3c-0.2,0.1-0.3,0.3-0.2,0.5l3.8,12.5c-4.9-6.3-9-13.7-12.1-21.7l1.9-9.8
				c0.8,1.7,5.2,10.7,5.2,10.7c0.1,0.2,0.3,0.3,0.5,0.2c0.2-0.1,0.3-0.3,0.2-0.5l-4.6-17.7c0-0.2-0.2-0.3-0.4-0.3l-3.6,0.4
				c-0.2,0-0.3,0.2-0.3,0.4l0.1,13.5c-2.8-7.7-4.6-15.9-5.5-24.3l4.4-9.2c0.4,1.9,2.3,11.7,2.3,11.7c0,0.2,0.2,0.3,0.4,0.3
				c0.2,0,0.3-0.2,0.3-0.4v-18.3c0-0.2-0.1-0.3-0.3-0.4l-3.6-0.5c-0.2,0-0.4,0.1-0.4,0.3l-3.4,13.4c-0.2-2.8-0.3-5.6-0.3-8.5
				c0-5.4,0.4-10.8,1.2-16.1l6.4-7.8c-0.1,1.9-0.5,11.9-0.5,11.9v0c0,0.2,0.1,0.3,0.3,0.4c0.2,0,0.4-0.1,0.4-0.3l4.3-17.7
				c0-0.2-0.1-0.4-0.2-0.4l-3.3-1.4c-0.2-0.1-0.4,0-0.5,0.2l-6.4,12c1.6-8.8,4.2-17.2,7.8-24.8l8.4-5.4c-0.7,1.8-4.2,11.1-4.2,11.1
				c0,0,0,0.1,0,0.1c0,0.1,0.1,0.3,0.2,0.3c0.2,0.1,0.4,0,0.5-0.1l9.6-15.5c0.1-0.1,0.1-0.4-0.1-0.5l-2.7-2.3
				c-0.2-0.1-0.4-0.1-0.5,0l-9.8,9.5c3.1-6.1,6.8-11.8,11.1-16.7l13.9-11.9c0.1-0.1,0.1-0.2,0-0.3c-0.1-0.1-0.2-0.1-0.3-0.1
				c0,0-4.1,2.4-7.3,4.1l9.1-11.7c0.1-0.1,0.1-0.2,0-0.3c-0.1-0.1-0.2-0.1-0.3,0l-10.7,10.2c1.5-3.3,3.3-7.5,3.3-7.5
				c0-0.1,0-0.2-0.1-0.2c-0.1,0-0.2,0-0.2,0.1L1267.7,187L1267.7,187z"/>
			<path class="st11" d="M1314.4,320.7L1314.4,320.7c-27,0-48.9-30.3-48.9-67.5c0-37.2,21.9-67.5,48.9-67.5
				c27,0,48.9,30.3,48.9,67.5C1363.4,290.4,1341.4,320.7,1314.4,320.7 M1314.4,182c-29,0-52.5,31.9-52.5,71.2
				c0,39.2,23.5,71.2,52.5,71.2c28.9,0,52.5-31.9,52.5-71.2C1366.9,213.9,1343.4,182,1314.4,182"/>
			<path class="st11" d="M1292.1,287.8L1292.1,287.8c0-0.4-0.1-0.6-0.5-0.6c-0.4,0-0.5,0.2-0.5,0.7l0.1,0.9l1-0.1L1292.1,287.8z
				 M1292.8,287.9l0,0.8l1.2-0.1l0,0.8l-3.5,0.2l-0.1-1.7c-0.1-1.1,0.4-1.4,1.1-1.4c0.5,0,0.9,0.1,1.2,0.7l1.2-0.8l0.1,0.8
				L1292.8,287.9z"/>
			<polygon class="st11" points="1290.6,283.6 1291,281 1291.7,281.1 1291.4,283 1292.1,283.1 1292.4,281.3 1293,281.4 
				1292.7,283.2 1293.5,283.3 1293.8,281.5 1294.5,281.6 1294,284.2 			"/>
			<polygon class="st11" points="1291.8,278.2 1292.2,277.2 1294.8,277.4 1293,275.5 1293.5,274.6 1296.7,276 1296.4,276.7 
				1294.2,275.8 1296,277.6 1295.7,278.1 1293.2,278 1295.3,279 1295,279.6 			"/>
			<path class="st11" d="M1297.6,271.8L1297.6,271.8c0.3-0.3,0.3-0.6,0-0.8c-0.3-0.3-0.5-0.2-0.8,0.1l-0.6,0.7l0.9,0.7L1297.6,271.8
				z M1295.2,272l1.1-1.3c0.7-0.8,1.3-0.8,1.8-0.3c0.6,0.5,0.8,1,0,1.9l-0.6,0.7l0.8,0.7l-0.5,0.6L1295.2,272z"/>
			<path class="st11" d="M1300.5,269.5l-1.3-1.8l0.6-0.5l1.2,1.7c0.3,0.4,0.6,0.6,1.2,0.2c0.6-0.4,0.5-0.7,0.2-1.2l-1.2-1.7l0.6-0.4
				l1.3,1.8c0.4,0.5,0.7,1.2-0.5,2.1C1301.4,270.6,1300.9,270.1,1300.5,269.5"/>
			<path class="st11" d="M1307.1,266.5L1307.1,266.5c0.4-0.1,0.5-0.3,0.4-0.6c-0.1-0.3-0.3-0.3-0.7-0.2l-0.9,0.3l0.3,0.7
				L1307.1,266.5z M1306.5,265.1L1306.5,265.1c0.4-0.2,0.4-0.3,0.3-0.5c-0.1-0.2-0.2-0.3-0.6-0.1l-0.8,0.3l0.3,0.7L1306.5,265.1z
				 M1304.5,264.4l1.5-0.6c0.9-0.3,1.3-0.2,1.6,0.4c0.2,0.4,0.1,0.7-0.1,0.9c0.4-0.1,0.7,0.1,0.8,0.6c0.3,0.7-0.1,1.1-1,1.4
				l-1.5,0.6L1304.5,264.4z"/>
			<polygon class="st11" points="1310,262.6 1310.8,262.5 1311.2,265.3 1312.9,265 1313,265.7 1310.6,266.1 			"/>
			
				<rect x="1313.7" y="263.5" transform="matrix(2.636235e-02 -0.9997 0.9997 2.636235e-02 1016.9288 1571.9441)" class="st11" width="3.5" height="0.8"/>
			<path class="st11" d="M1318.2,264.1c0.3-1.2,1.1-1.6,2.2-1.4c0.6,0.1,1,0.4,1.2,0.8l-0.6,0.4c-0.2-0.2-0.4-0.4-0.8-0.5
				c-0.7-0.2-1.1,0.1-1.3,0.8c-0.2,0.7,0,1.1,0.8,1.3c0.4,0.1,0.7,0,1-0.1l0.4,0.6c-0.3,0.2-0.8,0.4-1.5,0.2
				C1318.3,266,1318,265.2,1318.2,264.1"/>
			<path class="st11" d="M1325.2,267L1325.2,267l0.1-1.5l-1.1,1L1325.2,267z M1325.4,264.5l0.7,0.4l-0.3,3.8l-0.7-0.4l0.1-0.6
				l-1.4-0.7l-0.5,0.4l-0.7-0.3L1325.4,264.5z"/>
			<polygon class="st11" points="1329.7,267.1 1330.4,267.8 1329.5,270.2 1331.8,269.1 1332.6,269.7 1330.2,272.3 1329.7,271.8 
				1331.3,270.1 1329,271.2 1328.5,270.8 1329.4,268.4 1327.8,270.2 1327.3,269.7 			"/>
			<path class="st11" d="M1336.9,282.4c1.3-0.1,1.9,0.5,2,1.7c0.1,0.7-0.1,1.2-0.4,1.5l-0.6-0.5c0.2-0.2,0.3-0.4,0.3-0.9
				c-0.1-0.8-0.5-1-1.2-1c-0.8,0.1-1.1,0.3-1.1,1.1c0.1,0.7,0.3,0.9,0.8,0.8l0.1,0l-0.1-1l0.6,0l0.1,1.7l-0.6,0
				c-1,0.1-1.6-0.3-1.7-1.6C1335.1,282.9,1335.7,282.5,1336.9,282.4"/>
			<polygon class="st11" points="1338.8,287.8 1338.5,290.5 1337.8,290.4 1338,288.5 1337.3,288.4 1337.1,290.2 1336.4,290.1 
				1336.7,288.3 1335.9,288.2 1335.6,290.1 1335,290 1335.3,287.4 			"/>
			<path class="st11" d="M1335.8,293.6L1335.8,293.6c-0.1,0.4-0.1,0.6,0.3,0.7c0.4,0.1,0.5,0,0.7-0.4l0.3-0.9l-1-0.3L1335.8,293.6z
				 M1335.2,293.3l0.3-0.7l-1.1-0.4l0.3-0.7l3.3,1.2l-0.6,1.6c-0.4,1-0.9,1.1-1.5,0.9c-0.5-0.2-0.8-0.5-0.8-1.1l-1.4,0.2l0.3-0.8
				L1335.2,293.3z"/>
			<polygon class="st11" points="1335.9,297.5 1334.6,299.7 1334,299.4 1334.9,297.8 1334.4,297.4 1333.4,299 1332.8,298.6 
				1333.8,297.1 1333.1,296.7 1332.1,298.3 1331.6,297.9 1332.9,295.6 			"/>
			<path class="st11" d="M1330.9,301.6L1330.9,301.6c-0.3,0.3-0.3,0.5-0.1,0.8c0.3,0.3,0.5,0.2,0.8-0.1l0.6-0.7l-0.7-0.7
				L1330.9,301.6z M1330.5,301l0.5-0.6l-0.9-0.8l0.5-0.6l2.6,2.4l-1.2,1.2c-0.8,0.8-1.3,0.7-1.8,0.2c-0.4-0.3-0.6-0.8-0.3-1.3
				l-1.4-0.4l0.6-0.6L1330.5,301z"/>
			<polygon class="st11" points="1329.4,305.2 1327.3,306.7 1326.9,306.1 1328.4,305 1328,304.5 1326.5,305.5 1326.1,304.9 
				1327.6,303.9 1327.2,303.3 1325.6,304.3 1325.2,303.8 1327.4,302.3 			"/>
			<path class="st11" d="M1316.9,308.4L1316.9,308.4c-0.4,0-0.6,0.2-0.5,0.6c0,0.4,0.2,0.5,0.7,0.4l0.9-0.1l-0.1-1L1316.9,308.4z
				 M1316.9,307.8l0.8-0.1l-0.1-1.2l0.8-0.1l0.4,3.5l-1.7,0.2c-1.1,0.1-1.4-0.3-1.5-1c-0.1-0.5,0-0.9,0.6-1.2l-0.8-1.2l0.8-0.1
				L1316.9,307.8z"/>
			<polygon class="st11" points="1313.5,310.3 1310.8,310 1310.9,309.3 1312.8,309.5 1312.8,308.8 1311,308.6 1311.1,308 
				1312.9,308.1 1313,307.4 1311.1,307.2 1311.2,306.5 1313.8,306.8 			"/>
			<path class="st11" d="M1309.4,308c-0.4,1.2-1.2,1.5-2.3,1.2c-0.6-0.2-1-0.5-1.2-0.9l0.7-0.4c0.1,0.3,0.3,0.5,0.7,0.6
				c0.7,0.2,1.1,0,1.3-0.7c0.2-0.7,0.1-1.1-0.7-1.4c-0.4-0.1-0.7-0.1-1,0.1l-0.3-0.6c0.4-0.2,0.8-0.3,1.5-0.1
				C1309.5,306.1,1309.8,306.9,1309.4,308"/>
			<polygon class="st11" points="1303.4,306.8 1304.5,307.4 1304.1,308 1301.3,306.5 1301.6,305.8 1302.7,306.4 1304.1,303.9 
				1304.7,304.3 			"/>
			<polygon class="st11" points="1299.7,305.3 1297.6,303.6 1298.1,303 1299.5,304.3 1300,303.7 1298.6,302.6 1299,302 
				1300.4,303.2 1300.9,302.6 1299.5,301.4 1299.9,300.9 1301.9,302.6 			"/>
			<path class="st11" d="M1332.7,282.1L1332.7,282.1c0,0.5,0.4,2.8,0.4,3.7c0,10.3-8.3,18.6-18.6,18.6c-4.6,0-10.6-2.7-13.9-5.5
				l0.3-0.4c10.3-13.3,27.1-16.2,31.5-16.4L1332.7,282.1z M1314.5,267.2L1314.5,267.2l1.3,3.9l4.1,0.1l-3.3,2.4l1.2,3.9
				c0.2-0.1,0.3-0.1,0.5-0.2c5.1-1.5,9.8-1.8,11.6-1.9C1326.5,270.5,1320.9,267.2,1314.5,267.2 M1295.9,285.8
				c0-10.3,8.3-18.6,18.6-18.6l-1.3,3.9l-4.1,0.1l3.3,2.4l-1.2,3.9l3.3-2.3l3.3,2.3c-6.1,1.9-14,7.3-20.4,15.9
				C1296.7,291.4,1295.9,288,1295.9,285.8"/>
			<path class="st11" d="M1302.7,291.1L1302.7,291.1c-0.3-0.3-0.6-0.2-0.9,0.1c-0.3,0.4-0.3,0.6,0,0.8c0.3,0.2,0.5,0.3,0.8-0.1
				C1303,291.6,1303,291.3,1302.7,291.1 M1302.8,293.3l0.2-0.2c0.8-0.9,0.5-1.2,0.3-1.4c0.1,0.2-0.1,0.5-0.4,0.9
				c-0.5,0.6-1,0.5-1.5,0.1c-0.5-0.5-0.6-1,0-1.7c0.7-0.7,1.3-0.7,2-0.1c1,0.9,1.1,1.5,0.1,2.7l-0.2,0.2L1302.8,293.3z"/>
			<path class="st11" d="M1306.5,288.8L1306.5,288.8l-1.2-0.6l0.5,1.3L1306.5,288.8z M1304.4,287.8l0.5-0.5l3.1,1.5l-0.5,0.5
				l-0.5-0.3l-1.1,0.9l0.2,0.5l-0.5,0.5L1304.4,287.8z"/>
			<path class="st11" d="M1309.3,287.3L1309.3,287.3c0.3-0.2,0.3-0.4,0.2-0.6c-0.2-0.2-0.3-0.2-0.6,0l-0.7,0.5l0.4,0.6L1309.3,287.3
				z M1308.4,286.2L1308.4,286.2c0.3-0.2,0.3-0.4,0.2-0.6c-0.1-0.2-0.3-0.2-0.6,0l-0.7,0.5l0.4,0.5L1308.4,286.2z M1306.5,286.1
				l1.2-0.9c0.7-0.5,1.1-0.5,1.5,0c0.2,0.3,0.2,0.6,0.1,0.8c0.4-0.1,0.6,0,0.9,0.3c0.4,0.6,0.2,1-0.5,1.5l-1.2,0.9L1306.5,286.1z"/>
			<path class="st11" d="M1311.5,284.6L1311.5,284.6c0.3-0.2,0.4-0.4,0.2-0.7c-0.2-0.3-0.4-0.3-0.7-0.1l-0.7,0.4l0.5,0.8
				L1311.5,284.6z M1311.7,285.1l-0.6,0.4l0.5,0.9l-0.6,0.3l-1.6-2.7l1.3-0.8c0.9-0.5,1.3-0.3,1.6,0.3c0.2,0.4,0.3,0.8-0.1,1.2
				l1.1,0.7l-0.6,0.4L1311.7,285.1z"/>
			
				<rect x="1313.2" y="281.9" transform="matrix(0.8952 -0.4456 0.4456 0.8952 11.2781 615.0045)" class="st11" width="0.7" height="3.2"/>
			<polygon class="st11" points="1314,281.5 1314.6,281.3 1315.6,283.6 1317,283 1317.3,283.6 1315.2,284.5 			"/>
			<polygon class="st11" points="1318.2,280.6 1317.6,280.7 1317.5,280.2 1318.6,279.8 1319.6,282.8 1318.9,283 			"/>
			<path class="st11" d="M1322,281.2L1322,281.2c-0.1-0.3-0.3-0.4-0.8-0.3c-0.5,0.1-0.6,0.3-0.6,0.6c0.1,0.3,0.3,0.4,0.8,0.3
				C1321.9,281.7,1322.1,281.5,1322,281.2 M1321.6,279.9L1321.6,279.9c-0.1-0.2-0.2-0.3-0.7-0.2c-0.5,0.1-0.6,0.3-0.5,0.5
				c0,0.2,0.2,0.3,0.7,0.2C1321.6,280.3,1321.7,280.1,1321.6,279.9 M1320,281.8c-0.1-0.4-0.1-0.7,0.3-0.9c-0.4-0.1-0.5-0.3-0.5-0.6
				c-0.1-0.4,0-0.8,1-1.1c1-0.2,1.3,0.1,1.4,0.5c0.1,0.3,0,0.6-0.2,0.7c0.4,0,0.6,0.3,0.7,0.7c0.1,0.5-0.1,1-1.1,1.3
				C1320.5,282.6,1320.1,282.3,1320,281.8"/>
			<path class="st11" d="M1324.9,279.6L1324.9,279.6c-0.1-0.4-0.3-0.6-0.8-0.5c-0.5,0.1-0.6,0.3-0.5,0.6c0,0.3,0.2,0.5,0.7,0.5
				C1324.8,280.2,1325,280,1324.9,279.6 M1323.6,281.3l0.3,0c1.2-0.2,1.2-0.5,1.1-0.9c-0.1,0.2-0.4,0.3-0.9,0.4
				c-0.8,0.1-1.1-0.3-1.2-0.9c-0.1-0.7,0.2-1.2,1.1-1.3c1-0.1,1.4,0.3,1.6,1.2c0.2,1.3-0.1,1.8-1.7,2.1l-0.3,0L1323.6,281.3z"/>
			<path class="st11" d="M1326.2,281l1-1c0.5-0.4,0.6-0.6,0.6-0.9c0-0.3-0.1-0.4-0.6-0.3c-0.3,0-0.7,0.1-0.8,0.2l-0.3-0.5
				c0.3-0.2,0.6-0.3,1.2-0.3c0.8,0,1.2,0.2,1.2,0.8c0,0.5-0.2,0.8-0.7,1.2l-0.6,0.6l1.4-0.1l0,0.6l-2.4,0.1L1326.2,281z"/>
			<polygon class="st11" points="1323.1,179.4 1315.9,174.3 1308.7,179.4 1311.3,171 1304.2,165.7 1313.1,165.6 1315.9,157.2 
				1318.7,165.6 1327.5,165.7 1320.5,171 			"/>
			<g>
				<path class="st11" d="M1316.8,338.8c-0.5-0.3-0.9,0.1-1.7,1.3c-0.7,1.2-1,1.7-0.5,2.1c0.5,0.3,0.9-0.1,1.7-1.3
					C1317,339.7,1317.3,339.2,1316.8,338.8z"/>
				<path class="st11" d="M1310.5,335.8c0.3-0.4,0.2-0.7-0.1-0.9l-0.4-0.3l-0.8,1.3l0.4,0.3C1310,336.4,1310.3,336.1,1310.5,335.8z"
					/>
				<polygon class="st11" points="1342.1,339.4 1341.4,341.7 1342.5,341.8 1342.1,339.4 				"/>
				<path class="st11" d="M1328.1,335.6l-0.5-0.2l-1.6,3.5l0.5,0.2c0.6,0.3,1-0.1,1.5-1.4C1328.5,336.8,1328.9,336,1328.1,335.6z"/>
				<path class="st11" d="M1280.2,334l-0.6,0l-0.1,3.8l0.5,0c0.7,0,0.8-0.5,0.9-1.9C1280.9,334.9,1281,334,1280.2,334z"/>
				<polygon class="st11" points="1274.8,334.5 1274.6,336.9 1275.7,336.8 1274.8,334.5 				"/>
				<path class="st11" d="M1285.5,334.2c-0.6-0.1-0.8,0.5-1,1.9c-0.2,1.4-0.2,2,0.4,2.1c0.6,0.1,0.8-0.5,1-1.9
					C1286.1,334.9,1286.1,334.3,1285.5,334.2z"/>
				<path class="st11" d="M1292.9,335.8l-0.6-0.2l-1.1,3.7l0.5,0.2c0.7,0.2,1-0.3,1.3-1.6C1293.4,336.9,1293.7,336,1292.9,335.8z"/>
				<path class="st11" d="M1298.1,337.5c-0.6-0.2-0.9,0.3-1.4,1.6c-0.5,1.3-0.7,1.9-0.1,2.2c0.6,0.2,0.9-0.3,1.4-1.6
					C1298.5,338.3,1298.7,337.7,1298.1,337.5z"/>
				<path class="st11" d="M1362.1,335.8c-0.6,0.3-0.4,0.9,0.1,2.1c0.6,1.3,0.9,1.8,1.5,1.6c0.6-0.3,0.4-0.8-0.1-2.1
					C1363,336.1,1362.7,335.5,1362.1,335.8z"/>
				<path class="st11" d="M1364.8,328.9c-5.7,3.5-12.3,5.5-19.5,5.5c-7.2,0-13.9-2-19.5-5.5l-4.3,7l-12.5-7.7c0,0-2.3,3.7-4.4,7.1
					c-7.3-4-15.7-6.3-24.6-6.3c-9.8,0-19,2.8-26.8,7.6c0,0,5.5,9,7.2,11.7c5.7-3.5,12.4-5.5,19.5-5.5c7.2,0,13.8,2,19.5,5.5l4.3-7
					l12.3,7.7c0.7-1.2,2.7-4.3,4.5-7c7.3,4,15.7,6.3,24.6,6.3c9.8,0,19-2.7,26.8-7.5C1372.1,340.6,1366.2,331.1,1364.8,328.9z
					 M1262.2,342.7l-2.4-4.9l2.7-1.3l0.4,0.8l-1.7,0.8l0.6,1.2l1.5-0.7l0.4,0.8l-1.5,0.7l0.7,1.5l1.7-0.8l0.4,0.8L1262.2,342.7z
					 M1267.3,340.7c-1.4,0.5-1.9-0.3-2.1-1.2l1.1-0.4c0.2,0.5,0.3,0.9,0.9,0.7c0.4-0.1,0.5-0.4,0.3-0.8c-0.3-0.9-2.5-0.2-3.1-1.8
					c-0.3-0.8-0.1-1.6,1.2-2c1.1-0.4,1.7-0.1,2,1l-1.1,0.4c-0.1-0.4-0.3-0.8-0.8-0.6c-0.4,0.1-0.5,0.4-0.4,0.7
					c0.3,1,2.5,0.1,3.1,1.8C1269.1,340,1268.2,340.4,1267.3,340.7z M1272,339.5l-1.1,0.2l-1-4.5l-1.3,0.3l-0.2-0.9l3.6-0.8l0.2,0.9
					l-1.2,0.3L1272,339.5z M1276.5,338.8l-0.5-1.2l-1.6,0.2l-0.2,1.2l-1.1,0.1l0.9-5.6l1.5-0.2l2.1,5.3L1276.5,338.8z M1280.2,338.6
					l-1.9,0l0.1-5.5l1.9,0c1.5,0,1.8,1,1.7,2.7C1282.1,336.7,1282.2,338.7,1280.2,338.6z M1287.1,336.5c-0.2,1.4-0.4,2.8-2.3,2.5
					c-1.9-0.3-1.7-1.6-1.5-3.1c0.2-1.4,0.4-2.8,2.3-2.6C1287.4,333.6,1287.3,335,1287.1,336.5z M1294.3,338.2
					c-0.2,0.8-0.6,2.7-2.5,2.2l-1.8-0.5l1.5-5.3l1.8,0.5C1294.8,335.5,1294.7,336.5,1294.3,338.2z M1299.1,340.1
					c-0.5,1.3-1.1,2.6-2.8,1.9c-1.8-0.7-1.2-2-0.7-3.3c0.5-1.4,1.1-2.6,2.8-1.9C1300.1,337.4,1299.6,338.7,1299.1,340.1z
					 M1310.2,338.4c-0.2,0.3-0.7,1.2-0.8,1.4l-0.9-0.6c0-0.4,0.3-0.7,0.5-1c0.4-0.6,0.7-1,0-1.5l-0.3-0.1l-1.2,1.9l-1-0.6l3-4.6
					l1.8,1.1c0.7,0.4,0.8,1.1,0.3,1.9c-0.4,0.6-0.9,0.9-1.6,0.6l0,0C1310.2,337.1,1310.8,337.6,1310.2,338.4z M1310.5,340.5l2.9-4.6
					l1,0.6l-3,4.6L1310.5,340.5z M1317.3,341.5c-0.8,1.2-1.5,2.4-3.1,1.4c-1.6-1-0.9-2.2-0.1-3.4c0.8-1.2,1.5-2.4,3.1-1.4
					C1318.8,339.1,1318.1,340.3,1317.3,341.5z M1326.3,339.9l-1.7-0.8l2.3-5l1.7,0.8c1.4,0.6,1.2,1.6,0.5,3.2
					C1328.8,338.9,1328.1,340.7,1326.3,339.9z M1333.8,337.7l-1.8-0.6l-0.4,1.3l1.6,0.5l-0.3,0.8l-1.6-0.5l-0.5,1.5l1.8,0.6
					l-0.3,0.8l-2.9-0.9l1.7-5.2l2.9,0.9L1333.8,337.7z M1337.2,343.4c-1.6-0.3-1.6-0.9-1.4-2.2l1.2,0.2c-0.1,0.4-0.3,1.1,0.3,1.2
					c0.3,0,0.5-0.2,0.5-0.4l0.7-4.2l1.1,0.2l-0.7,4.2C1338.8,343.2,1338,343.5,1337.2,343.4z M1342.9,343.9l-0.2-1.2l-1.6-0.1
					l-0.4,1.2l-1.1-0.1l1.9-5.4l1.5,0.1l1.1,5.6L1342.9,343.9z M1347.9,343.9l-1.7-4h0l0.2,4l-1.1,0.1l-0.2-5.5l1.5-0.1l1.6,3.7l0,0
					l-0.2-3.8l1.1,0l0.2,5.5L1347.9,343.9z M1351.1,343.6l-0.9-5.4l3-0.5l0.1,0.8l-1.8,0.3l0.2,1.3l1.7-0.3l0.1,0.8l-1.7,0.3
					l0.3,1.6l1.9-0.3l0.1,0.8L1351.1,343.6z M1355.1,343l-1.1-5.4l1.1-0.2l1.1,5.4L1355.1,343z M1359.9,341.6
					c-0.2-0.3-0.3-0.6-0.4-1c-0.2-0.6-0.3-1.2-1.1-0.9l-0.3,0.1l0.7,2.2l-1.1,0.3l-1.6-5.3l2-0.6c0.7-0.2,1.4,0.1,1.6,1
					c0.2,0.7,0.1,1.3-0.6,1.6l0,0c0.2,0,1-0.2,1.3,0.7c0.1,0.3,0.4,1.3,0.6,1.5L1359.9,341.6z M1364,340.3c-1.7,0.7-2.3-0.5-2.9-1.9
					c-0.6-1.3-1.1-2.6,0.6-3.3c1.7-0.7,2.3,0.5,2.9,1.9C1365.2,338.2,1365.7,339.5,1364,340.3z"/>
				<path class="st11" d="M1357.9,337.4l-0.5,0.1l0.4,1.5l0.5-0.1c0.4-0.1,0.4-0.6,0.3-0.9C1358.5,337.4,1358.2,337.3,1357.9,337.4z
					"/>
			</g>
		</g>
		<g>
			<path class="st11" d="M1230.9,79.7c-1.7,0-3.3-0.2-4.7-0.6c-1.5-0.4-2.8-1-4.1-1.9l1.4-2.2c1.2,0.8,2.4,1.3,3.6,1.7
				c1.2,0.3,2.5,0.5,3.7,0.5c2.1,0,3.6-0.3,4.5-0.9s1.3-1.5,1.3-2.7c0-0.6-0.1-1.2-0.4-1.6c-0.3-0.4-0.7-0.7-1.2-1
				c-0.5-0.2-1.1-0.4-1.8-0.6c-0.7-0.1-1.5-0.3-2.4-0.4c-1.2-0.2-2.3-0.4-3.2-0.7c-0.9-0.2-1.8-0.6-2.4-1c-0.7-0.4-1.2-1-1.5-1.6
				c-0.4-0.7-0.5-1.5-0.5-2.6c0-2.1,0.6-3.5,1.9-4.4c1.3-0.9,3.2-1.3,5.8-1.3c1.7,0,3.2,0.2,4.4,0.5c1.2,0.4,2.2,0.8,3.1,1.3
				l-1.5,2.3c-0.7-0.5-1.6-0.9-2.6-1.2c-1.1-0.3-2.2-0.4-3.3-0.4c-1.8,0-3.1,0.2-3.8,0.7c-0.8,0.5-1.1,1.3-1.1,2.4
				c0,0.6,0.1,1,0.4,1.4c0.2,0.4,0.6,0.7,1.1,0.9c0.5,0.2,1.1,0.4,1.8,0.6c0.7,0.2,1.5,0.3,2.4,0.5c1.1,0.2,2.2,0.4,3.2,0.6
				s1.8,0.6,2.5,1c0.7,0.4,1.2,1,1.6,1.7c0.4,0.7,0.6,1.6,0.6,2.7c0,2.1-0.7,3.6-2,4.6C1236,79.2,1233.9,79.7,1230.9,79.7z"/>
			<path class="st11" d="M1249.7,79.8c-1.6,0-2.9-0.2-3.8-0.6s-1.8-1-2.3-1.7c-0.6-0.7-0.9-1.6-1.1-2.6s-0.3-2-0.3-3.1
				s0.1-2.2,0.3-3.1c0.2-1,0.6-1.8,1.1-2.6s1.3-1.3,2.3-1.7c1-0.4,2.2-0.6,3.8-0.6c1.6,0,2.8,0.3,3.7,0.8c0.9,0.5,1.5,1.2,2,2
				c0.4,0.8,0.7,1.8,0.8,2.9c0.1,1.1,0.1,2.2,0.1,3.4h-11.4c0,0.7,0.1,1.3,0.3,1.9s0.4,1.1,0.8,1.5c0.4,0.4,0.9,0.7,1.5,0.9
				c0.6,0.2,1.4,0.3,2.4,0.3c0.6,0,1.2,0,1.7-0.1c0.5-0.1,0.9-0.2,1.3-0.3s0.7-0.3,1.1-0.5c0.3-0.2,0.6-0.4,0.9-0.6l1.4,1.9
				c-0.8,0.6-1.7,1.1-2.7,1.5C1252.4,79.6,1251.1,79.8,1249.7,79.8z M1249.5,66c-0.9,0-1.6,0.1-2.2,0.3c-0.6,0.2-1.1,0.5-1.4,0.9
				c-0.4,0.4-0.6,0.8-0.8,1.4s-0.3,1.1-0.3,1.8h8.8c0-0.6-0.1-1.2-0.2-1.7c-0.1-0.5-0.3-1-0.5-1.4c-0.3-0.4-0.6-0.7-1.2-0.9
				C1251.2,66.1,1250.5,66,1249.5,66z"/>
			<path class="st11" d="M1266.3,79.7c-1.5,0-2.7-0.2-3.7-0.6s-1.7-0.9-2.3-1.6c-0.6-0.7-1-1.6-1.2-2.5s-0.3-2.1-0.3-3.3
				c0-1.2,0.1-2.3,0.3-3.3c0.2-1,0.6-1.8,1.2-2.5c0.6-0.7,1.4-1.3,2.3-1.7c1-0.4,2.2-0.6,3.8-0.6c1.4,0,2.5,0.2,3.5,0.6
				c0.9,0.4,1.7,1,2.3,1.6l-2,1.9c-0.4-0.4-0.8-0.7-1.4-1.1c-0.6-0.3-1.4-0.5-2.4-0.5c-0.9,0-1.7,0.1-2.4,0.4
				c-0.6,0.2-1.1,0.6-1.5,1.1c-0.4,0.5-0.6,1-0.8,1.7c-0.2,0.7-0.2,1.5-0.2,2.3c0,0.9,0.1,1.6,0.2,2.3s0.4,1.3,0.8,1.8
				s0.9,0.8,1.5,1.1s1.4,0.4,2.4,0.4c0.8,0,1.5-0.1,2.1-0.4c0.6-0.3,1.2-0.7,1.8-1.2l1.8,1.7c-0.4,0.4-0.8,0.7-1.2,1
				c-0.4,0.3-0.8,0.5-1.3,0.7c-0.5,0.2-1,0.3-1.5,0.4C1267.6,79.7,1267,79.7,1266.3,79.7z"/>
			<path class="st11" d="M1275.3,64.1l2.1-0.1l0.3,1.9c0.3-0.6,0.9-1,1.8-1.4c0.9-0.4,2-0.6,3.4-0.7v2.7c-0.9,0-1.7,0.1-2.3,0.4
				c-0.6,0.2-1.1,0.6-1.5,1c-0.4,0.4-0.7,0.9-0.8,1.5c-0.2,0.6-0.2,1.2-0.2,1.9v8.1h-2.7V64.1z"/>
			<path class="st11" d="M1292.5,79.8c-1.6,0-2.9-0.2-3.8-0.6s-1.8-1-2.3-1.7c-0.6-0.7-0.9-1.6-1.1-2.6s-0.3-2-0.3-3.1
				s0.1-2.2,0.3-3.1c0.2-1,0.6-1.8,1.1-2.6s1.3-1.3,2.3-1.7c1-0.4,2.2-0.6,3.8-0.6c1.6,0,2.8,0.3,3.7,0.8c0.9,0.5,1.5,1.2,2,2
				c0.4,0.8,0.7,1.8,0.8,2.9c0.1,1.1,0.1,2.2,0.1,3.4h-11.4c0,0.7,0.1,1.3,0.3,1.9s0.4,1.1,0.8,1.5c0.4,0.4,0.9,0.7,1.5,0.9
				c0.6,0.2,1.4,0.3,2.4,0.3c0.6,0,1.2,0,1.7-0.1c0.5-0.1,0.9-0.2,1.3-0.3s0.7-0.3,1.1-0.5c0.3-0.2,0.6-0.4,0.9-0.6l1.4,1.9
				c-0.8,0.6-1.7,1.1-2.7,1.5C1295.2,79.6,1293.9,79.8,1292.5,79.8z M1292.3,66c-0.9,0-1.6,0.1-2.2,0.3c-0.6,0.2-1.1,0.5-1.4,0.9
				c-0.4,0.4-0.6,0.8-0.8,1.4s-0.3,1.1-0.3,1.8h8.8c0-0.6-0.1-1.2-0.2-1.7c-0.1-0.5-0.3-1-0.5-1.4c-0.3-0.4-0.6-0.7-1.2-0.9
				C1294,66.1,1293.3,66,1292.3,66z"/>
			<path class="st11" d="M1301.1,64h2.8l0.5-4.4l2.2-0.4V64h4.1v2.4h-4.1v8.4c0,0.3,0,0.6,0.1,0.9c0,0.3,0.1,0.5,0.3,0.7
				c0.1,0.2,0.4,0.3,0.7,0.4s0.7,0.2,1.2,0.2h1.9v2.4c-0.1,0-0.2,0-0.4,0c-0.2,0-0.5,0-0.7,0c-0.2,0-0.5,0-0.7,0c-0.2,0-0.4,0-0.5,0
				c-0.9,0-1.7-0.1-2.2-0.3c-0.6-0.2-1-0.4-1.4-0.8c-0.3-0.4-0.6-0.8-0.7-1.3c-0.1-0.5-0.2-1.2-0.2-1.9v-8.8h-2.7V64z"/>
			<path class="st11" d="M1318.5,79.7c-1.1,0-2-0.1-2.7-0.4c-0.7-0.2-1.3-0.6-1.7-1c-0.4-0.4-0.7-0.9-0.9-1.5
				c-0.2-0.6-0.2-1.2-0.2-1.8c0-1.1,0.2-2,0.5-2.7s0.9-1.3,1.7-1.8c0.8-0.4,1.8-0.7,3.1-0.9c1.3-0.2,2.9-0.3,4.8-0.3h0.8
				c0-0.6-0.1-1-0.2-1.4c-0.1-0.4-0.3-0.7-0.6-1c-0.3-0.3-0.7-0.5-1.2-0.6c-0.5-0.1-1.2-0.2-2-0.2c-1,0-1.9,0.1-2.7,0.4
				c-0.8,0.3-1.4,0.6-1.9,0.9l-1.4-2.1c0.3-0.2,0.6-0.4,1-0.6c0.4-0.2,0.9-0.4,1.4-0.6c0.5-0.2,1.1-0.3,1.8-0.4
				c0.6-0.1,1.3-0.2,2-0.2c1.3,0,2.4,0.1,3.2,0.3c0.8,0.2,1.4,0.6,1.9,1.1c0.4,0.5,0.7,1.1,0.9,1.9c0.2,0.8,0.2,1.7,0.2,2.8v5.5
				c0,0.4,0,0.7,0,0.9c0,0.2,0.1,0.4,0.2,0.5c0.1,0.1,0.3,0.2,0.5,0.2s0.5,0.1,0.8,0.1v2.4c-0.1,0-0.2,0.1-0.4,0.1
				c-0.2,0-0.4,0-0.7,0c-0.9,0-1.5-0.1-1.8-0.4c-0.4-0.3-0.6-0.7-0.8-1.4c-0.5,0.6-1.1,1.1-2,1.5S1320.2,79.7,1318.5,79.7z
				 M1319,77.4c1.8,0,3.1-0.4,3.9-1.1s1.2-2,1.2-3.6v-0.9h-0.7c-1.6,0-2.9,0.1-3.9,0.2c-1,0.1-1.8,0.3-2.4,0.5c-0.6,0.2-1,0.6-1.2,1
				c-0.2,0.4-0.3,0.9-0.3,1.5c0,0.8,0.2,1.4,0.7,1.9C1316.8,77.2,1317.7,77.4,1319,77.4z"/>
			<path class="st11" d="M1331.3,64.1l2.1-0.1l0.3,1.9c0.3-0.6,0.9-1,1.8-1.4c0.9-0.4,2-0.6,3.4-0.7v2.7c-0.9,0-1.7,0.1-2.3,0.4
				c-0.6,0.2-1.1,0.6-1.5,1c-0.4,0.4-0.7,0.9-0.8,1.5c-0.2,0.6-0.2,1.2-0.2,1.9v8.1h-2.7V64.1z"/>
			<path class="st11" d="M1341.8,58.9h2.7v3.3h-2.7V58.9z M1341.8,64h2.7v15.4h-2.7V64z"/>
			<path class="st11" d="M1353.3,79.7c-1.1,0-2-0.1-2.7-0.4c-0.7-0.2-1.3-0.6-1.7-1c-0.4-0.4-0.7-0.9-0.9-1.5
				c-0.2-0.6-0.2-1.2-0.2-1.8c0-1.1,0.2-2,0.5-2.7s0.9-1.3,1.7-1.8c0.8-0.4,1.8-0.7,3.1-0.9c1.3-0.2,2.9-0.3,4.8-0.3h0.8
				c0-0.6-0.1-1-0.2-1.4c-0.1-0.4-0.3-0.7-0.6-1c-0.3-0.3-0.7-0.5-1.2-0.6c-0.5-0.1-1.2-0.2-2-0.2c-1,0-1.9,0.1-2.7,0.4
				c-0.8,0.3-1.4,0.6-1.9,0.9l-1.4-2.1c0.3-0.2,0.6-0.4,1-0.6c0.4-0.2,0.9-0.4,1.4-0.6c0.5-0.2,1.1-0.3,1.8-0.4
				c0.6-0.1,1.3-0.2,2-0.2c1.3,0,2.4,0.1,3.2,0.3c0.8,0.2,1.4,0.6,1.9,1.1c0.4,0.5,0.7,1.1,0.9,1.9c0.2,0.8,0.2,1.7,0.2,2.8v5.5
				c0,0.4,0,0.7,0,0.9c0,0.2,0.1,0.4,0.2,0.5c0.1,0.1,0.3,0.2,0.5,0.2s0.5,0.1,0.8,0.1v2.4c-0.1,0-0.2,0.1-0.4,0.1
				c-0.2,0-0.4,0-0.7,0c-0.9,0-1.5-0.1-1.8-0.4c-0.4-0.3-0.6-0.7-0.8-1.4c-0.5,0.6-1.1,1.1-2,1.5S1354.9,79.7,1353.3,79.7z
				 M1353.7,77.4c1.8,0,3.1-0.4,3.9-1.1s1.2-2,1.2-3.6v-0.9h-0.7c-1.6,0-2.9,0.1-3.9,0.2c-1,0.1-1.8,0.3-2.4,0.5
				c-0.6,0.2-1,0.6-1.2,1c-0.2,0.4-0.3,0.9-0.3,1.5c0,0.8,0.2,1.4,0.7,1.9C1351.5,77.2,1352.4,77.4,1353.7,77.4z"/>
			<path class="st11" d="M1378.4,79.7c-1.3,0-2.4-0.2-3.2-0.6c-0.9-0.4-1.5-1-2-1.7c-0.5-0.7-0.9-1.6-1.1-2.6s-0.3-2.1-0.3-3.3
				c0-1.2,0.1-2.2,0.3-3.2c0.2-1,0.6-1.8,1.1-2.5s1.2-1.2,2.1-1.6c0.9-0.4,2-0.6,3.3-0.6c1.6,0,2.9,0.2,3.7,0.5
				c0.8,0.3,1.4,0.8,1.8,1.4v-7.6h2.7v21.5l-2.1,0.2l-0.3-1.8c-0.5,0.7-1.2,1.2-2.1,1.5C1381.3,79.6,1380,79.7,1378.4,79.7z
				 M1378.9,77.2c0.9,0,1.7-0.1,2.3-0.3c0.6-0.2,1.2-0.5,1.6-1c0.4-0.4,0.7-1,0.9-1.7c0.2-0.7,0.3-1.6,0.3-2.6s-0.1-1.9-0.3-2.6
				c-0.2-0.7-0.5-1.3-0.9-1.7c-0.4-0.4-0.9-0.7-1.6-0.9c-0.6-0.2-1.4-0.3-2.4-0.3c-0.9,0-1.6,0.1-2.2,0.4c-0.6,0.2-1,0.6-1.4,1.1
				s-0.6,1-0.7,1.7c-0.1,0.7-0.2,1.4-0.2,2.3c0,0.9,0.1,1.6,0.2,2.3c0.1,0.7,0.4,1.3,0.7,1.8c0.3,0.5,0.8,0.9,1.4,1.1
				C1377.3,77.1,1378,77.2,1378.9,77.2z"/>
			<path class="st11" d="M1397.5,79.8c-1.6,0-2.9-0.2-3.8-0.6s-1.8-1-2.3-1.7c-0.6-0.7-0.9-1.6-1.1-2.6s-0.3-2-0.3-3.1
				s0.1-2.2,0.3-3.1c0.2-1,0.6-1.8,1.1-2.6s1.3-1.3,2.3-1.7c1-0.4,2.2-0.6,3.8-0.6c1.6,0,2.8,0.3,3.7,0.8c0.9,0.5,1.5,1.2,2,2
				c0.4,0.8,0.7,1.8,0.8,2.9c0.1,1.1,0.1,2.2,0.1,3.4h-11.4c0,0.7,0.1,1.3,0.3,1.9s0.4,1.1,0.8,1.5c0.4,0.4,0.9,0.7,1.5,0.9
				c0.6,0.2,1.4,0.3,2.4,0.3c0.6,0,1.2,0,1.7-0.1c0.5-0.1,0.9-0.2,1.3-0.3s0.7-0.3,1.1-0.5c0.3-0.2,0.6-0.4,0.9-0.6l1.4,1.9
				c-0.8,0.6-1.7,1.1-2.7,1.5C1400.2,79.6,1399,79.8,1397.5,79.8z M1397.4,66c-0.9,0-1.6,0.1-2.2,0.3c-0.6,0.2-1.1,0.5-1.4,0.9
				c-0.4,0.4-0.6,0.8-0.8,1.4s-0.3,1.1-0.3,1.8h8.8c0-0.6-0.1-1.2-0.2-1.7c-0.1-0.5-0.3-1-0.5-1.4c-0.3-0.4-0.6-0.7-1.2-0.9
				C1399,66.1,1398.3,66,1397.4,66z"/>
			<path class="st11" d="M1177.8,107.6l2.3-3.3c2.2,1.5,4.8,2.2,7.4,2.2c4,0,4.8-0.8,4.8-2.5c0-1.7-1.7-2-4.9-2.5
				c-5.5-0.8-8.4-1.8-8.4-6.3c0-4.6,2.8-6.2,8.6-6.2c4.2,0,6.8,1,8.3,2l-2.4,3.5c-1.3-0.9-3.7-1.6-5.9-1.6c-3.2,0-4,0.6-4,2.1
				c0,1.7,1.7,2,5,2.4c4.9,0.7,8.3,1.5,8.3,6.2c0,4.2-2.3,6.5-9.1,6.5C1183.5,110.3,1180.1,109.3,1177.8,107.6z"/>
			<path class="st11" d="M1198.7,102.1c0-4.4,1.4-8.2,8.2-8.2c6.9,0,7.1,4.6,7,9.9H1203c0.2,1.9,1.2,3,4,3c2.4,0,3.8-0.6,4.9-1.4
				l2.2,2.8c-2,1.5-4,2.1-7.1,2.1C1200.1,110.3,1198.7,106.6,1198.7,102.1z M1203,100.7h7c-0.1-1.8-0.5-3.1-3.2-3.1
				S1203.2,98.8,1203,100.7z"/>
			<path class="st11" d="M1221.6,104.1c-0.1,0.2-0.1,0.4-0.1,0.6c0,0.8,0.5,0.9,2.6,0.9c6.5,0,8.1,1,8.1,4.3c0,3.8-2.8,5.1-8.6,5.1
				c-6,0-8.2-0.7-8.2-3.8c0-1.8,0.9-3.1,3.1-3.5c-0.8-0.6-0.9-1.4-0.9-2.2c0-0.9,0.2-1.6,0.8-2.2c-1.4-0.8-2-2.1-2-3.9
				c0-3.4,2.1-5.3,7.3-5.3c0.3,0,0.6,0,0.9,0l7-1.4v3.3h-2.3c1.1,0.6,1.8,1.6,1.8,3.4c0,3.4-2.2,5-7.4,5
				C1222.9,104.2,1222.2,104.2,1221.6,104.1z M1227.7,110.2c0-1.1-0.9-1.4-3.9-1.4c-3.5,0-3.9,0.6-3.9,1.6c0,1.1,0.8,1.6,3.9,1.6
				S1227.7,111.3,1227.7,110.2z M1226.7,99.3c0-1.4-0.8-2-3.1-2c-2.4,0-3.1,0.7-3.1,2c0,1.3,0.7,2,3.1,2
				C1226,101.3,1226.7,100.6,1226.7,99.3z"/>
			<path class="st11" d="M1234.7,102.7v-8.4h4.4v8.5c0,2.2,0.1,3.7,3.2,3.7c3.1,0,3.1-1.6,3.1-3.8v-8.4h4.3v8.4
				c0,5.4-1.4,7.6-7.4,7.6S1234.7,108.1,1234.7,102.7z"/>
			<path class="st11" d="M1253,94.5l3.4-0.2l0.4,1.7c0.7-1,2.6-1.8,5-1.9v4.2c-3.7,0-4.5,1.5-4.5,3.9v7.8h-4.4V94.5z"/>
			<path class="st11" d="M1263.2,105.4c0-4.4,3.1-5.5,10.1-5.5h0.6c0-1.4-0.4-2.1-3.1-2.1c-1.9,0-3.6,0.7-4.6,1.3l-2.2-3.2
				c1.1-0.8,3.9-1.9,7.2-1.9c5.7,0,6.8,1.8,6.8,6.3v4.8c0,1.2,0.1,1.4,1.4,1.4v3.6c-0.3,0.1-0.9,0.1-1.8,0.1c-1.7,0-2.4-0.3-3-1.6
				c-0.8,1.1-2.6,1.8-5.5,1.8C1264.3,110.3,1263.2,108.1,1263.2,105.4z M1274,103.5v-0.6h-0.4c-5.6,0-6.2,0.4-6.2,2.1
				c0,1.2,0.6,1.7,2.6,1.7C1272.8,106.8,1274,105.8,1274,103.5z"/>
			<path class="st11" d="M1282.2,94.5l3.4-0.2l0.4,1.4c0.8-0.9,2.4-1.7,5.7-1.7c4.8,0,5.6,2.6,5.6,6.6v9.5h-4.3v-8.7
				c0-1.9-0.2-3.3-2.9-3.3c-3,0-3.5,1.4-3.5,3.5v8.5h-4.4V94.5z"/>
			<path class="st11" d="M1303.3,116l1.1-2c0.8,0.4,1.7,0.7,2.5,0.7c1.3,0,1.8-0.3,1.8-1.1c0-1-1-1.1-2.4-1l-0.8-0.5l0.4-1.9
				c-4.7-0.7-5.9-3.9-5.9-8c0-4.6,1.5-8.2,8.3-8.2c2.8,0,4.9,0.9,6.4,2.6l-3.1,2.9c-0.7-0.7-1.6-1.4-3.3-1.4c-3.1,0-3.9,1.7-3.9,4.3
				c0,2.6,0.7,4.4,3.9,4.4c1.5,0,2.4-0.5,3.6-1.5l2.8,2.7c-1.8,1.7-3.3,2.5-6.3,2.5l-0.2,0.9c1.7-0.1,3.5,0.1,3.5,2.6
				c0,2.4-1.8,3.1-4.4,3.1C1305.5,116.9,1304.3,116.6,1303.3,116z"/>
			<path class="st11" d="M1315.9,105.4c0-4.4,3.1-5.5,10.1-5.5h0.6c0-1.4-0.4-2.1-3.1-2.1c-1.9,0-3.6,0.7-4.6,1.3l-2.2-3.2
				c1.1-0.8,3.9-1.9,7.2-1.9c5.7,0,6.8,1.8,6.8,6.3v4.8c0,1.2,0.1,1.4,1.4,1.4v3.6c-0.3,0.1-0.9,0.1-1.8,0.1c-1.7,0-2.4-0.3-3-1.6
				c-0.8,1.1-2.6,1.8-5.5,1.8C1317,110.3,1315.9,108.1,1315.9,105.4z M1326.6,103.5v-0.6h-0.4c-5.6,0-6.2,0.4-6.2,2.1
				c0,1.2,0.6,1.7,2.6,1.7C1325.4,106.8,1326.6,105.8,1326.6,103.5z"/>
			<path class="st11" d="M1341.2,89.4h9.9c6.3,0,8.2,2.7,8.2,6.9c0,4.2-1.8,7.4-8.4,7.4h-5.2v6.3h-4.4V89.4z M1351,99.8
				c2.6,0,3.7-0.9,3.7-3.3c0-2.5-1.1-3.2-3.8-3.2h-5.4v6.5H1351z"/>
			<path class="st11" d="M1361.9,102.7v-8.4h4.4v8.5c0,2.2,0.1,3.7,3.2,3.7c3.1,0,3.1-1.6,3.1-3.8v-8.4h4.3v8.4
				c0,5.4-1.4,7.6-7.4,7.6S1361.9,108.1,1361.9,102.7z M1370.4,87.7h5.3l-5.3,5.1h-3.9L1370.4,87.7z"/>
			<path class="st11" d="M1384,108.6l-0.9,1.5l-2.9-0.3V88.4h4.3v7c0.9-1,2.5-1.5,5.1-1.5c5.4,0,6.8,3.7,6.8,8.2s-1.4,8.1-7,8.1
				C1386.4,110.3,1384.8,109.6,1384,108.6z M1392,102.3c0-2.5-0.6-4.4-3.4-4.4c-3,0-4,1.4-4,4.4s0.9,4.3,4,4.3
				C1391.4,106.6,1392,104.8,1392,102.3z"/>
			<path class="st11" d="M1399.3,105.3V88.4h4.3v16.3c0,1.3,0.3,1.6,1.6,1.6c0.1,0,0.4,0,0.5,0v3.6c-0.4,0.1-1.2,0.1-2.1,0.1
				C1400.7,110.1,1399.3,109,1399.3,105.3z"/>
			<path class="st11" d="M1408.7,88.9h4.4v4h-4.4V88.9z M1408.7,94.3h4.3V110h-4.3V94.3z"/>
			<path class="st11" d="M1416,102.1c0-4.6,1.5-8.2,8.3-8.2c2.8,0,4.9,0.9,6.4,2.6l-3.1,2.9c-0.7-0.7-1.6-1.4-3.3-1.4
				c-3.1,0-3.9,1.7-3.9,4.3c0,2.6,0.7,4.4,3.9,4.4c1.5,0,2.4-0.5,3.6-1.5l2.8,2.7c-1.8,1.7-3.4,2.5-6.6,2.5
				C1417.5,110.3,1416,106.7,1416,102.1z"/>
			<path class="st11" d="M1432,105.4c0-4.4,3.1-5.5,10.1-5.5h0.6c0-1.4-0.4-2.1-3.1-2.1c-1.9,0-3.6,0.7-4.6,1.3l-2.2-3.2
				c1.1-0.8,3.9-1.9,7.2-1.9c5.7,0,6.8,1.8,6.8,6.3v4.8c0,1.2,0.1,1.4,1.4,1.4v3.6c-0.3,0.1-0.9,0.1-1.8,0.1c-1.7,0-2.4-0.3-3-1.6
				c-0.8,1.1-2.6,1.8-5.5,1.8C1433.1,110.3,1432,108.1,1432,105.4z M1442.7,103.5v-0.6h-0.4c-5.6,0-6.2,0.4-6.2,2.1
				c0,1.2,0.6,1.7,2.6,1.7C1441.5,106.8,1442.7,105.8,1442.7,103.5z"/>
		</g>
	</g>
</g>
</svg>
