<?xml version="1.0" encoding="utf-8"?>
<!-- Generator: Adobe Illustrator 28.3.0, SVG Export Plug-In . SVG Version: 6.00 Build 0)  -->
<svg version="1.1" id="Camada_1" xmlns="http://www.w3.org/2000/svg" xmlns:xlink="http://www.w3.org/1999/xlink" x="0px" y="0px"
	 viewBox="0 0 1872.8 377.4" style="enable-background:new 0 0 1872.8 377.4;" xml:space="preserve">
<style type="text/css">
	.st0{fill:#0066A5;}
	.st1{fill:#BC9D32;}
	.st2{fill:#8E8E8E;}
	.st3{fill:none;stroke:#EFB700;stroke-width:2;stroke-miterlimit:10;}
	.st4{fill:#FFFFFF;}
	.st5{fill:#FFFFFF;stroke:#FFFFFF;stroke-width:2;stroke-miterlimit:10;}
	.st6{fill-rule:evenodd;clip-rule:evenodd;fill:#FFFFFF;}
	.st7{fill-rule:evenodd;clip-rule:evenodd;}
	.st8{fill-rule:evenodd;clip-rule:evenodd;fill:#00508A;}
	.st9{fill-rule:evenodd;clip-rule:evenodd;fill:#44773B;}
	.st10{fill-rule:evenodd;clip-rule:evenodd;fill:#A7A6A6;}
	.st11{fill-rule:evenodd;clip-rule:evenodd;fill:#C19E15;}
	.st12{fill:#A7A6A6;}
	.st13{fill:#00508A;}
	.st14{fill:#1D1D1B;}
	.st15{display:none;}
	.st16{display:inline;}
	.st17{fill:#252020;}
	.st18{fill:#E52785;}
	.st19{stroke:#FFFFFF;stroke-width:2;stroke-miterlimit:10;}
</style>
<g>
	<g>
		<path class="st0" d="M216.6,286.1v-2.6h-8.7v2.6h2.4v9.6h-2.4v2.6h8.7v-2.6h-2.4v-9.6H216.6z M229.8,287.9
			c-0.7-0.7-1.6-1.1-2.9-1.1c-0.7,0-1.4,0.1-2,0.4c-0.6,0.3-1.2,0.6-1.8,1.1v-1.2h-3.6v11.3h3.6v-8c0.4-0.2,0.8-0.4,1.1-0.5
			c0.3-0.1,0.7-0.2,1-0.2c0.5,0,0.8,0.1,1.1,0.2c0.3,0.1,0.4,0.3,0.6,0.5c0.1,0.2,0.2,0.5,0.2,1c0,0.4,0.1,0.9,0.1,1.4v5.6h3.6v-7.3
			C230.8,289.7,230.5,288.6,229.8,287.9z M243.3,292.8c-0.5-0.5-1.1-0.9-2.1-1.2c-0.4-0.1-0.9-0.2-1.3-0.3c-0.4-0.1-0.8-0.1-1.2-0.2
			c-0.7-0.1-1.1-0.3-1.3-0.4c-0.2-0.1-0.3-0.3-0.3-0.6c0-0.3,0.2-0.5,0.6-0.7c0.4-0.2,0.9-0.3,1.5-0.3c0.7,0,1.4,0.1,2.1,0.3
			c0.7,0.2,1.3,0.5,1.8,0.9h0.3v-2.8c-0.4-0.2-1-0.4-1.8-0.6c-0.8-0.2-1.6-0.2-2.4-0.2c-1.8,0-3.2,0.4-4.2,1.1
			c-1,0.7-1.5,1.6-1.5,2.7c0,0.8,0.2,1.6,0.7,2.1c0.5,0.6,1.3,1,2.3,1.2c0.4,0.1,0.8,0.2,1.2,0.3c0.5,0.1,0.8,0.1,1.1,0.2
			c0.6,0.1,0.9,0.2,1.2,0.4c0.2,0.1,0.3,0.3,0.3,0.6c0,0.3-0.2,0.5-0.5,0.7c-0.3,0.2-0.9,0.2-1.6,0.2c-0.5,0-1-0.1-1.5-0.2
			c-0.5-0.1-0.9-0.2-1.3-0.4c-0.4-0.2-0.8-0.3-1-0.5c-0.2-0.2-0.4-0.3-0.6-0.4h-0.3v3c0.5,0.2,1.2,0.4,2,0.6
			c0.8,0.2,1.7,0.3,2.7,0.3c1.8,0,3.2-0.4,4.3-1.1c1-0.7,1.6-1.6,1.6-2.8C243.9,294,243.7,293.4,243.3,292.8z M253.5,289.6v-2.5
			h-3.4v-3.2h-3.6v3.2h-1.5v2.5h1.5v5.3c0,1.4,0.4,2.3,1,2.9c0.7,0.6,1.7,0.8,3.1,0.8c0.6,0,1.2,0,1.6-0.1c0.4-0.1,0.9-0.1,1.2-0.2
			v-2.5h-0.3c-0.1,0.1-0.3,0.1-0.6,0.2c-0.3,0.1-0.5,0.1-0.7,0.1c-0.5,0-0.8-0.1-1-0.2c-0.2-0.1-0.4-0.3-0.5-0.5
			c-0.1-0.2-0.2-0.5-0.2-0.8c0-0.3,0-0.6,0-1v-4H253.5z M255.7,287.1v11.3h3.6v-11.3H255.7z M255.6,282.8v2.7h3.8v-2.7H255.6z
			 M269.9,289.6v-2.5h-3.4v-3.2h-3.6v3.2h-1.5v2.5h1.5v5.3c0,1.4,0.3,2.3,1,2.9c0.7,0.6,1.7,0.8,3.1,0.8c0.6,0,1.2,0,1.6-0.1
			c0.4-0.1,0.8-0.1,1.2-0.2v-2.5h-0.3c-0.1,0.1-0.3,0.1-0.6,0.2c-0.3,0.1-0.6,0.1-0.7,0.1c-0.4,0-0.8-0.1-1-0.2
			c-0.2-0.1-0.4-0.3-0.5-0.5c-0.1-0.2-0.2-0.5-0.2-0.8c0-0.3,0-0.6,0-1v-4H269.9z M279.7,287.1v8c-0.4,0.2-0.7,0.4-1.1,0.5
			c-0.4,0.1-0.7,0.2-1,0.2c-0.5,0-0.8-0.1-1.1-0.2c-0.3-0.1-0.5-0.3-0.6-0.5c-0.1-0.2-0.2-0.6-0.3-0.9c0-0.4,0-0.8,0-1.4v-5.6H272
			v7.3c0,1.4,0.3,2.5,1,3.2c0.7,0.7,1.6,1.1,2.9,1.1c0.8,0,1.4-0.1,2-0.4c0.6-0.3,1.2-0.6,1.8-1.1v1.2h3.6v-11.3H279.7z
			 M293.9,289.6v-2.5h-3.4v-3.2h-3.6v3.2h-1.5v2.5h1.5v5.3c0,1.4,0.3,2.3,1,2.9c0.7,0.6,1.7,0.8,3.1,0.8c0.6,0,1.2,0,1.6-0.1
			c0.4-0.1,0.8-0.1,1.2-0.2v-2.5h-0.3c-0.1,0.1-0.3,0.1-0.6,0.2c-0.3,0.1-0.5,0.1-0.7,0.1c-0.5,0-0.8-0.1-1-0.2
			c-0.2-0.1-0.4-0.3-0.5-0.5c-0.1-0.2-0.2-0.5-0.2-0.8c0-0.3,0-0.6,0-1v-4H293.9z M306,288.4c-1.1-1.1-2.6-1.6-4.6-1.6
			c-1.9,0-3.4,0.5-4.5,1.6c-1.1,1.1-1.6,2.5-1.6,4.4c0,1.9,0.5,3.3,1.6,4.4c1.1,1.1,2.6,1.6,4.5,1.6c2,0,3.5-0.5,4.6-1.6
			c1.1-1.1,1.6-2.5,1.6-4.4S307.1,289.5,306,288.4z M303.7,294.5c-0.1,0.4-0.3,0.8-0.5,1c-0.2,0.3-0.5,0.4-0.8,0.6
			c-0.3,0.1-0.6,0.2-0.9,0.2c-0.4,0-0.7-0.1-1-0.2c-0.3-0.1-0.6-0.3-0.8-0.6c-0.2-0.3-0.4-0.6-0.5-1.1c-0.1-0.5-0.2-1-0.2-1.6
			c0-0.7,0.1-1.3,0.2-1.7c0.1-0.5,0.3-0.8,0.5-1.1c0.3-0.3,0.5-0.5,0.8-0.6c0.3-0.1,0.6-0.1,0.9-0.1c0.3,0,0.7,0.1,1,0.2
			c0.3,0.1,0.6,0.3,0.8,0.6c0.2,0.3,0.4,0.6,0.5,1.1c0.1,0.5,0.2,1,0.2,1.7C303.9,293.5,303.8,294.1,303.7,294.5z M324.6,282.8v4.8
			c-0.5-0.2-0.9-0.4-1.3-0.5c-0.4-0.2-1-0.2-1.7-0.2c-0.6,0-1.3,0.1-1.9,0.4c-0.6,0.3-1.2,0.7-1.7,1.2c-0.5,0.5-0.9,1.2-1.1,1.9
			c-0.3,0.7-0.4,1.6-0.4,2.5c0,1.8,0.4,3.2,1.2,4.3c0.8,1.1,1.9,1.6,3.3,1.6c0.7,0,1.3-0.1,1.9-0.4c0.5-0.2,1.1-0.6,1.7-1.1v1.2h3.6
			v-15.6H324.6z M324.6,295.3c-0.3,0.2-0.6,0.4-1,0.5c-0.4,0.1-0.7,0.2-1,0.2c-0.8,0-1.4-0.2-1.8-0.7c-0.4-0.5-0.6-1.3-0.6-2.4
			c0-1,0.2-1.9,0.7-2.5c0.5-0.6,1.2-0.9,2.1-0.9c0.2,0,0.5,0,0.8,0.1c0.3,0.1,0.5,0.1,0.8,0.2V295.3z M342.7,292.2
			c0-1.7-0.5-3.1-1.4-4c-0.9-0.9-2.3-1.4-4.1-1.4c-2,0-3.6,0.5-4.7,1.6c-1.1,1.1-1.7,2.6-1.7,4.4c0,1.9,0.6,3.3,1.8,4.4
			c1.2,1,2.9,1.5,5.2,1.5c0.9,0,1.7-0.1,2.4-0.2c0.7-0.1,1.5-0.4,2.3-0.7v-2.9h-0.4c-0.4,0.3-1,0.6-1.7,0.9
			c-0.7,0.3-1.4,0.4-2.2,0.4c-1.2,0-2.1-0.2-2.7-0.7c-0.6-0.5-0.9-1.1-1-2h8.3V292.2z M334.4,291.3c0.1-0.8,0.3-1.4,0.8-1.7
			c0.5-0.4,1-0.5,1.7-0.5c0.8,0,1.3,0.2,1.7,0.6c0.3,0.4,0.5,0.9,0.6,1.7H334.4z M219.6,316.2c-0.5-0.6-1.4-1.1-2.5-1.5
			c-0.6-0.2-1.1-0.3-1.6-0.4c-0.5-0.1-1-0.2-1.6-0.3c-0.8-0.2-1.4-0.4-1.7-0.6c-0.3-0.2-0.5-0.5-0.5-0.9c0-0.3,0.1-0.5,0.3-0.7
			c0.2-0.2,0.4-0.4,0.7-0.5c0.3-0.1,0.6-0.2,0.9-0.2c0.3,0,0.6-0.1,1-0.1c0.9,0,1.8,0.2,2.7,0.5c0.9,0.3,1.6,0.7,2.2,1.2h0.4v-3.4
			c-0.7-0.3-1.5-0.5-2.5-0.7c-1-0.2-1.9-0.3-2.9-0.3c-2,0-3.6,0.4-4.8,1.3c-1.2,0.9-1.9,2-1.9,3.4c0,1,0.3,1.9,0.8,2.6
			c0.5,0.7,1.4,1.2,2.7,1.7c0.6,0.2,1.1,0.3,1.8,0.5c0.6,0.1,1.2,0.2,1.8,0.4c0.5,0.1,0.9,0.3,1.2,0.5c0.3,0.2,0.4,0.5,0.4,0.9
			c0,0.4-0.1,0.6-0.3,0.8c-0.2,0.2-0.4,0.3-0.7,0.5c-0.3,0.1-0.6,0.2-0.9,0.2c-0.4,0-0.7,0.1-0.9,0.1c-0.9,0-1.9-0.2-2.8-0.5
			c-1-0.3-1.9-0.8-2.7-1.5h-0.4v3.6c0.8,0.3,1.7,0.6,2.6,0.8c0.9,0.2,2,0.3,3.2,0.3c2.1,0,3.8-0.5,5.1-1.4c1.2-0.9,1.9-2.1,1.9-3.6
			C220.4,317.7,220.2,316.8,219.6,316.2z M234,317.2c0-1.7-0.5-3.1-1.4-4c-0.9-0.9-2.3-1.4-4.1-1.4c-2,0-3.6,0.5-4.7,1.6
			c-1.1,1.1-1.7,2.6-1.7,4.4c0,1.9,0.6,3.3,1.8,4.3c1.2,1,2.9,1.5,5.2,1.5c0.9,0,1.7-0.1,2.4-0.2c0.7-0.1,1.5-0.4,2.3-0.7v-2.9h-0.4
			c-0.4,0.3-1,0.6-1.7,0.9c-0.7,0.3-1.4,0.4-2.2,0.4c-1.2,0-2.1-0.2-2.7-0.7c-0.6-0.5-1-1.1-1-2h8.3V317.2z M225.7,316.3
			c0.1-0.8,0.3-1.4,0.8-1.7c0.5-0.4,1-0.5,1.7-0.5c0.8,0,1.3,0.2,1.7,0.6c0.4,0.4,0.5,0.9,0.6,1.7H225.7z M244,312.1l-0.1,0.5
			c-0.4-0.3-0.9-0.5-1.4-0.6c-0.5-0.1-1.1-0.2-1.7-0.2c-0.7,0-1.3,0.1-2,0.4c-0.6,0.3-1.2,0.6-1.6,1.1c-0.5,0.5-0.8,1.1-1.1,1.8
			c-0.3,0.7-0.4,1.5-0.4,2.4c0,1.9,0.4,3.4,1.3,4.3c0.8,1,2.1,1.4,3.6,1.4c0.7,0,1.2-0.1,1.8-0.3c0.5-0.2,1-0.5,1.5-0.8v0.2
			c0,0.5-0.1,0.9-0.2,1.2c-0.1,0.3-0.2,0.6-0.4,0.8c-0.2,0.2-0.5,0.4-1,0.5c-0.4,0.1-1,0.2-1.6,0.2c-0.5,0-1.1-0.1-1.7-0.2
			c-0.6-0.1-1.2-0.3-1.6-0.5h-0.4v2.8c0.6,0.1,1.2,0.2,2,0.3c0.8,0.1,1.5,0.1,2.3,0.1c1,0,1.8-0.1,2.6-0.3c0.8-0.2,1.4-0.5,2-0.9
			c0.6-0.4,1-1,1.3-1.7c0.3-0.7,0.5-1.6,0.5-2.7v-10H244z M243.9,319.8c-0.3,0.2-0.6,0.3-1,0.5c-0.3,0.1-0.7,0.2-1.1,0.2
			c-0.8,0-1.4-0.2-1.8-0.6c-0.4-0.4-0.6-1.2-0.6-2.3c0-1,0.2-1.7,0.7-2.3c0.5-0.5,1.2-0.8,2.1-0.8c0.2,0,0.5,0,0.8,0.1
			c0.3,0.1,0.6,0.1,0.8,0.2V319.8z M258.5,312.1v8c-0.4,0.2-0.7,0.4-1.1,0.5c-0.4,0.1-0.7,0.2-1,0.2c-0.5,0-0.8-0.1-1.1-0.2
			c-0.3-0.1-0.5-0.3-0.6-0.5c-0.1-0.2-0.2-0.6-0.3-0.9c0-0.4-0.1-0.8-0.1-1.4v-5.6h-3.6v7.3c0,1.4,0.3,2.5,1,3.2
			c0.7,0.7,1.6,1.1,2.9,1.1c0.8,0,1.4-0.1,2-0.4c0.6-0.3,1.2-0.6,1.8-1.2v1.2h3.6v-11.3H258.5z M273.3,312.1c-0.2,0-0.3,0-0.4,0
			c-0.5,0-1,0.1-1.6,0.3c-0.6,0.2-1.3,0.7-2.1,1.4v-1.7h-3.6v11.3h3.6v-7.5c0.4-0.2,0.9-0.3,1.3-0.3c0.4-0.1,0.9-0.1,1.4-0.1
			c0.2,0,0.5,0,0.9,0c0.3,0,0.6,0.1,0.7,0.1h0.3v-3.4C273.6,312.1,273.5,312.1,273.3,312.1z M284.8,312.7c-0.9-0.6-2.4-1-4.5-1
			c-0.9,0-1.7,0.1-2.6,0.2c-0.9,0.1-1.5,0.3-1.9,0.4v2.7h0.3c0.3-0.1,0.8-0.3,1.5-0.5c0.7-0.2,1.3-0.3,1.9-0.3c1,0,1.7,0.1,2.3,0.4
			c0.5,0.2,0.8,0.7,0.8,1.3v0.1c-1.1,0.1-2.1,0.2-3.1,0.3c-1,0.1-1.8,0.3-2.5,0.6c-0.7,0.3-1.2,0.7-1.6,1.2c-0.4,0.5-0.5,1.2-0.5,2
			c0,1,0.4,1.9,1.1,2.5c0.7,0.7,1.6,1,2.7,1c0.5,0,0.9,0,1.3-0.1c0.4-0.1,0.7-0.2,1.1-0.4c0.3-0.1,0.5-0.3,0.8-0.5
			c0.3-0.2,0.5-0.4,0.7-0.5v1.2h3.6v-7.7C286.2,314.4,285.7,313.4,284.8,312.7z M282.6,320.4c-0.3,0.2-0.6,0.4-1,0.6
			c-0.4,0.1-0.7,0.2-1.1,0.2c-0.5,0-0.8,0-1-0.1c-0.2-0.1-0.4-0.2-0.6-0.3c-0.2-0.1-0.3-0.3-0.3-0.4c0-0.1-0.1-0.3-0.1-0.6
			c0-0.4,0.1-0.6,0.3-0.9c0.2-0.2,0.5-0.4,0.8-0.5c0.3-0.1,0.7-0.2,1.3-0.2c0.6-0.1,1.1-0.1,1.6-0.2V320.4z M299.8,312.9
			c-0.7-0.7-1.6-1.1-2.9-1.1c-0.7,0-1.4,0.1-2,0.4c-0.6,0.3-1.2,0.7-1.8,1.2v-1.2h-3.6v11.3h3.6v-8c0.4-0.2,0.8-0.4,1.1-0.5
			c0.3-0.1,0.7-0.2,1-0.2c0.5,0,0.8,0.1,1.1,0.2c0.3,0.1,0.5,0.3,0.6,0.6c0.1,0.2,0.2,0.5,0.3,1c0,0.5,0.1,0.9,0.1,1.4v5.6h3.6v-7.3
			C300.8,314.6,300.5,313.6,299.8,312.9z M310,314.4c0.4,0,0.8,0,1.1,0.2c0.3,0.1,0.6,0.2,0.9,0.4c0.3,0.2,0.5,0.3,0.7,0.5
			c0.2,0.2,0.4,0.3,0.5,0.4h0.5v-3.1c-0.6-0.3-1.2-0.5-1.8-0.7c-0.7-0.2-1.4-0.2-2.1-0.2c-0.8,0-1.7,0.1-2.5,0.3
			c-0.8,0.2-1.5,0.6-2.1,1c-0.6,0.5-1.1,1.1-1.5,1.9c-0.4,0.8-0.5,1.7-0.5,2.7c0,1,0.2,1.8,0.5,2.5c0.3,0.7,0.8,1.3,1.3,1.8
			c0.6,0.5,1.2,0.9,2,1.1c0.8,0.2,1.6,0.4,2.6,0.4v0.5c0,0.5-0.1,0.9-0.4,1.2c-0.3,0.3-0.7,0.4-1.2,0.4c-0.3,0-0.6,0-0.9-0.1
			c-0.3-0.1-0.5-0.2-0.7-0.2h-0.2v2c0.3,0.1,0.7,0.2,1.1,0.2c0.4,0,0.8,0,1,0c1.1,0,1.9-0.3,2.6-0.9c0.7-0.6,1-1.4,1-2.5
			c0-0.1,0-0.3,0-0.4c0-0.2,0-0.3,0-0.4c0.4-0.1,0.7-0.2,1-0.3c0.3-0.1,0.6-0.2,0.9-0.3v-3.1h-0.5c-0.1,0.1-0.3,0.3-0.5,0.4
			c-0.2,0.1-0.4,0.3-0.6,0.4c-0.2,0.1-0.5,0.3-0.9,0.4c-0.4,0.1-0.8,0.1-1.2,0.1c-1,0-1.7-0.3-2.3-0.8c-0.5-0.6-0.8-1.4-0.8-2.5
			c0-1.1,0.3-1.9,0.8-2.5C308.3,314.7,309.1,314.4,310,314.4z M325.3,312.7c-0.9-0.6-2.4-1-4.5-1c-0.9,0-1.7,0.1-2.6,0.2
			c-0.9,0.1-1.5,0.3-1.9,0.4v2.7h0.3c0.3-0.1,0.8-0.3,1.5-0.5c0.7-0.2,1.3-0.3,1.9-0.3c1,0,1.7,0.1,2.2,0.4c0.5,0.2,0.8,0.7,0.8,1.3
			v0.1c-1.1,0.1-2.1,0.2-3.1,0.3c-1,0.1-1.8,0.3-2.5,0.6c-0.7,0.3-1.2,0.7-1.6,1.2c-0.4,0.5-0.5,1.2-0.5,2c0,1,0.4,1.9,1.1,2.5
			c0.7,0.7,1.6,1,2.7,1c0.4,0,0.9,0,1.3-0.1c0.4-0.1,0.7-0.2,1.1-0.4c0.3-0.1,0.5-0.3,0.8-0.5c0.3-0.2,0.5-0.4,0.7-0.5v1.2h3.6v-7.7
			C326.6,314.4,326.2,313.4,325.3,312.7z M323,320.4c-0.3,0.2-0.6,0.4-1,0.6c-0.4,0.1-0.7,0.2-1.1,0.2c-0.5,0-0.8,0-1-0.1
			c-0.2-0.1-0.4-0.2-0.5-0.3c-0.2-0.1-0.3-0.3-0.3-0.4c0-0.1-0.1-0.3-0.1-0.6c0-0.4,0.1-0.6,0.3-0.9c0.2-0.2,0.5-0.4,0.8-0.5
			c0.3-0.1,0.7-0.2,1.3-0.2c0.6-0.1,1.1-0.1,1.6-0.2V320.4z M349,310.9c-0.3-0.6-0.8-1.1-1.4-1.5c-0.5-0.3-1.1-0.6-1.7-0.7
			c-0.7-0.2-1.5-0.2-2.4-0.2h-6.3v14.9h3.9v-4.9h2.4c1.1,0,2-0.1,2.7-0.4c0.7-0.3,1.4-0.8,2-1.3c0.4-0.4,0.8-1,1-1.6
			c0.2-0.6,0.3-1.3,0.3-2C349.5,312.3,349.4,311.6,349,310.9z M345.4,314.3c-0.1,0.3-0.3,0.6-0.5,0.8c-0.3,0.2-0.6,0.4-1.1,0.5
			c-0.4,0.1-1,0.1-1.6,0.1H341v-4.5h0.7c0.6,0,1.1,0,1.5,0c0.4,0,0.8,0.1,1.2,0.3c0.3,0.1,0.6,0.3,0.8,0.6c0.2,0.3,0.3,0.7,0.3,1.1
			C345.5,313.7,345.5,314,345.4,314.3z M359.7,312.1v8c-0.4,0.2-0.7,0.4-1.1,0.5c-0.4,0.1-0.7,0.2-1,0.2c-0.5,0-0.8,0-1.1-0.2
			c-0.3-0.1-0.5-0.3-0.6-0.5c-0.1-0.2-0.2-0.6-0.3-0.9c0-0.4-0.1-0.8-0.1-1.4v-5.6H352v7.3c0,1.4,0.3,2.5,1,3.2
			c0.7,0.7,1.6,1.1,2.9,1.1c0.8,0,1.4-0.1,2-0.4c0.6-0.3,1.2-0.6,1.8-1.2v1.2h3.6v-11.3H359.7z M357.4,306.6l-2.5,4h2.5l3.5-3.7
			v-0.2H357.4z M377.3,313.3c-0.8-1-1.9-1.5-3.3-1.5c-0.8,0-1.4,0.1-2,0.4c-0.6,0.3-1.1,0.6-1.7,1.1v-5.5h-3.6v15.6h3.5l0.1-0.6
			c0.4,0.2,0.9,0.5,1.4,0.6c0.5,0.1,1,0.2,1.7,0.2c1.5,0,2.7-0.6,3.7-1.7c1-1.1,1.5-2.6,1.5-4.3
			C378.4,315.8,378.1,314.4,377.3,313.3z M374,320.2c-0.5,0.6-1.2,0.9-2.1,0.9c-0.3,0-0.6,0-0.8-0.1c-0.2,0-0.5-0.1-0.7-0.2v-5.7
			c0.3-0.2,0.7-0.3,1-0.5c0.3-0.1,0.7-0.2,1.1-0.2c0.9,0,1.5,0.3,1.8,0.8c0.3,0.6,0.5,1.3,0.5,2.3
			C374.7,318.8,374.5,319.6,374,320.2z M381,307.8v15.6h3.6v-15.6H381z M388.1,312.1v11.3h3.6v-11.3H388.1z M388,307.8v2.7h3.8v-2.7
			H388z M401,314.4c0.4,0,0.8,0,1.1,0.2c0.3,0.1,0.6,0.2,0.9,0.3c0.3,0.2,0.5,0.3,0.7,0.5c0.2,0.2,0.4,0.3,0.5,0.4h0.5v-3.1
			c-0.6-0.3-1.2-0.5-1.8-0.7c-0.7-0.2-1.4-0.2-2.1-0.2c-0.9,0-1.7,0.1-2.5,0.3c-0.8,0.2-1.5,0.6-2.1,1c-0.6,0.5-1.1,1.1-1.5,1.9
			c-0.4,0.8-0.5,1.7-0.5,2.7c0,1,0.2,1.9,0.5,2.6c0.3,0.7,0.8,1.4,1.4,1.9c0.6,0.5,1.3,0.8,2.1,1.1c0.8,0.2,1.7,0.4,2.7,0.4
			c0.8,0,1.4-0.1,2-0.2c0.6-0.2,1.2-0.4,1.8-0.6v-3.1h-0.5c-0.1,0.1-0.3,0.3-0.5,0.4c-0.2,0.1-0.4,0.3-0.6,0.4
			c-0.2,0.1-0.5,0.3-0.9,0.4c-0.4,0.1-0.8,0.1-1.2,0.1c-1,0-1.7-0.3-2.3-0.8c-0.5-0.6-0.8-1.4-0.8-2.5c0-1.1,0.3-1.9,0.8-2.5
			C399.3,314.7,400,314.4,401,314.4z M416.2,312.8c-0.9-0.6-2.4-1-4.5-1c-0.9,0-1.7,0.1-2.6,0.2c-0.9,0.1-1.5,0.3-1.9,0.4v2.7h0.3
			c0.3-0.1,0.8-0.3,1.5-0.5c0.7-0.2,1.3-0.3,1.9-0.3c1,0,1.7,0.1,2.2,0.4c0.5,0.2,0.8,0.7,0.8,1.3v0.1c-1.1,0.1-2.1,0.2-3.1,0.3
			c-1,0.1-1.8,0.3-2.5,0.6c-0.7,0.3-1.2,0.7-1.6,1.2c-0.4,0.5-0.5,1.2-0.5,2c0,1,0.4,1.9,1.1,2.5c0.7,0.7,1.6,1,2.7,1
			c0.4,0,0.9,0,1.2-0.1c0.4-0.1,0.8-0.2,1.1-0.4c0.3-0.1,0.5-0.3,0.8-0.5c0.3-0.2,0.5-0.4,0.7-0.5v1.2h3.6v-7.7
			C417.6,314.4,417.1,313.4,416.2,312.8z M414,320.4c-0.3,0.2-0.6,0.4-1,0.6c-0.4,0.1-0.7,0.2-1.1,0.2c-0.5,0-0.8,0-1-0.1
			c-0.2-0.1-0.4-0.2-0.6-0.3c-0.1-0.1-0.2-0.3-0.3-0.4c0-0.1-0.1-0.3-0.1-0.6c0-0.4,0.1-0.6,0.3-0.9c0.2-0.2,0.5-0.4,0.8-0.5
			c0.3-0.1,0.7-0.2,1.3-0.2c0.6-0.1,1.1-0.1,1.6-0.2V320.4z"/>
		<path class="st0" d="M116,290.5v-7H92.9v7h6.5V316h-6.5v7H116v-7h-6.5v-25.5H116z M153.8,303.9c-1.4-1.7-3.7-3-6.7-4
			c-1.6-0.5-3-0.9-4.3-1.2c-1.3-0.3-2.7-0.6-4.2-0.9c-2.2-0.4-3.7-1-4.5-1.5c-0.8-0.6-1.2-1.4-1.2-2.4c0-0.7,0.2-1.3,0.7-1.8
			c0.5-0.5,1.1-0.9,1.8-1.2c0.8-0.3,1.6-0.5,2.4-0.7c0.8-0.1,1.7-0.2,2.5-0.2c2.4,0,4.8,0.4,7.1,1.3c2.3,0.9,4.3,1.9,5.8,3.2h1.1
			v-9.1c-1.9-0.8-4.1-1.4-6.6-1.9c-2.5-0.5-5.1-0.7-7.7-0.7c-5.2,0-9.4,1.2-12.7,3.5c-3.3,2.3-4.9,5.3-4.9,9c0,2.7,0.7,5,2.2,6.9
			c1.5,1.8,3.9,3.3,7.2,4.4c1.5,0.5,3,0.9,4.7,1.2c1.7,0.3,3.2,0.6,4.7,1c1.4,0.3,2.5,0.8,3.2,1.4c0.7,0.6,1.1,1.4,1.1,2.2
			c0,0.9-0.2,1.7-0.8,2.1c-0.5,0.5-1.1,0.9-1.9,1.2c-0.6,0.3-1.5,0.4-2.5,0.5c-1,0.1-1.8,0.2-2.4,0.2c-2.4,0-4.9-0.4-7.5-1.3
			c-2.6-0.9-5-2.2-7.1-3.9h-1.1v9.5c2.1,0.9,4.4,1.6,6.8,2.2c2.4,0.6,5.3,0.9,8.6,0.9c5.7,0,10.1-1.2,13.4-3.6c3.3-2.4,5-5.6,5-9.5
			C155.9,307.9,155.2,305.6,153.8,303.9z M194.3,290.1c-0.8-1.6-2.1-3-3.6-4c-1.3-0.9-2.9-1.5-4.6-2c-1.7-0.4-3.8-0.6-6.4-0.6h-16.8
			V323h10.2v-12.9h6.3c2.9,0,5.3-0.4,7.2-1.2c1.9-0.8,3.7-2,5.3-3.5c1.2-1.2,2-2.6,2.6-4.3c0.6-1.7,0.9-3.4,0.9-5.2
			C195.5,293.7,195.1,291.7,194.3,290.1z M184.5,299.1c-0.3,0.8-0.8,1.5-1.4,2c-0.8,0.6-1.7,1.1-2.8,1.3c-1.1,0.2-2.6,0.3-4.3,0.3
			h-2.9v-11.8h1.7c1.7,0,3,0,4,0.1c1,0,2,0.3,3.1,0.7c0.8,0.3,1.5,0.9,2.1,1.7c0.6,0.8,0.9,1.8,0.9,2.9
			C185,297.3,184.8,298.3,184.5,299.1z"/>
	</g>
	<g>
		<g>
			<path class="st0" d="M384,212.4c0,1.8,0,3.7,0,5.5c-0.1,4.2,0.2,8.5-0.3,12.6c0.1-0.5-1-1.7-1.2-2.1c-0.5-0.8-1-1.6-1.6-2.4
				c-1.1-1.5-2.2-2.9-3.4-4.2c-2.5-2.7-5.4-5.1-8.2-7.5c-3.7-3.2-7.6-6.3-12-8.6c-4.8-2.5-10.3-3.6-15.6-2.4
				c-0.7-5.5-2.4-19.8-5.1-24.1c-3.6-5.7-8.5-10.2-14.7-13.5c-6.2-3.3-13.4-4.9-21.4-4.9c-5.9,0-10.8,0.7-14.6,2.2s-7,3.2-9.7,5.1
				c-2.6,1.9-5,3.6-7,5.1c-2,1.5-4.3,2.2-6.8,2.2h-29.2c-1.9,0-3.5-0.7-4.9-2.1c-0.5-0.5-1-1.1-1.3-1.7c0.7-0.8,1.4-1.5,2.1-2.3
				c7.5-8,13.3-16.5,17.3-25.3c4.1-8.9,6.1-18.7,6.1-29.3c0-13.4-3.1-25.7-9.3-36.4c-2-3.4-4.2-6.6-6.8-9.6l0.9-8.8
				c0.2-2.7,1.2-4.9,2.9-6.3c1.7-1.5,3.7-2.2,6-2.2h119.2c2.1,0,3.9,0.7,5.4,2.2c1.5,1.5,2.2,3.3,2.2,5.4v21.3
				c0,2.1-0.7,3.9-2.2,5.4c-1.5,1.5-3.3,2.2-5.4,2.2h-91.7l-5.1,51.7c3.8-2.5,8.9-5,15.2-7.3c6.3-2.3,15.1-3.5,26.3-3.5
				c10.1,0,19.8,1.6,29,4.9c9.2,3.3,17.4,8,24.6,14.3c7.2,6.2,12.8,13.7,17,22.5c0.1,0.2,0.2,0.4,0.2,0.5c1.3,3.3,1.6,7,1.9,10.4
				c0.5,5,0.7,10.1,0.8,15.2C383.9,201.9,384,207.2,384,212.4z"/>
		</g>
		<g>
			<path class="st0" d="M144.5,260.3c0.4,0.5,0.8,0.8,1.4,1c0.5,0.2,1.1,0.3,1.6,0.3c0.6,0,1.1-0.1,1.6-0.3c0.5-0.2,1-0.6,1.4-1
				c0.4-0.5,0.8-1.1,1-1.9c0.2-0.7,0.3-1.5,0.3-2.5c0-1-0.1-1.9-0.4-2.6c-0.2-0.7-0.6-1.3-0.9-1.8c-0.4-0.5-0.8-0.8-1.4-1
				c-0.5-0.2-1-0.3-1.6-0.3c-0.6,0-1.1,0.1-1.6,0.3c-0.5,0.2-1,0.5-1.4,1c-0.4,0.4-0.7,1-0.9,1.8s-0.4,1.6-0.4,2.6
				c0,1,0.1,1.9,0.4,2.6C143.8,259.2,144.1,259.8,144.5,260.3z"/>
			<polygon class="st0" points="103.6,257.8 107.9,257.8 105.7,251.7 			"/>
			<path class="st0" d="M203.7,181.3c7.2-6,13.6-12.1,19.1-17.9c1.6-1.7,3.1-3.5,4.6-5.3c4.7-5.7,8.4-11.6,11.1-17.7
				c3.5-7.7,5.3-16.4,5.3-25.6c0-11.8-2.7-22.6-8.1-32.1c-0.2-0.3-0.3-0.6-0.5-0.8c-5.4-9-13.3-16.2-23.7-21.5
				c-10.8-5.6-24.8-8.4-41.6-8.4c-11.8,0-22.6,1.9-32,5.7c-9.4,3.8-17.4,8.9-23.8,15.1c-6.4,6.2-11.4,13.4-14.7,21.4
				c-3.4,8-5.2,16.4-5.4,24.9c0,0.3,0.1,0.7,0.6,1.2c0.3,0.3,0.7,0.6,1.6,0.6h28.2c1.2,0,2.3-0.3,3.6-1c0.3-0.2,1-0.5,1.3-2.5
				c1.1-6.7,3.3-12.8,6.4-18.3c3.2-5.7,7.7-10.4,13.5-13.8c5.8-3.5,12.8-5.2,21-5.2c12.5,0,21.9,3.5,27.9,10.4
				c5.9,6.7,8.9,15.5,8.9,26.1c0,7.1-2.2,14.4-6.5,21.5c-4.1,6.8-10.7,14.3-19.5,22.2c-5.4,4.8-11.2,9.5-16.8,14
				c-2.2,1.7-4.3,3.4-6.4,5.2c-7.3,6-14,12.4-21.8,20.1l-39,38.7c-2.7,2.2-4.5,4.3-5.1,6.2c-0.8,2.2-1.2,3.9-1.2,5.3v16.2
				c0,0.9,0.3,1.6,0.9,2.3c0.7,0.7,1.3,0.9,2.3,0.9h82.4l52.9-26l-88.1,0.6l49.2-49.9C194.1,189.7,198.5,185.6,203.7,181.3z
				 M110.1,264.5l-1.2-3.5h-6.4l-1.2,3.5h-4.5l6.4-17.2h5.1l6.4,17.2H110.1z M134,264.5h-4.3l-7.3-11.8v11.8h-4.1v-17.2h5.3l6.3,9.9
				v-9.9h4.1V264.5z M159.9,259.3h0.5c0.9,0.7,1.9,1.3,3.1,1.7c1.1,0.4,2.2,0.6,3.3,0.6c0.3,0,0.6,0,1.1-0.1c0.4,0,0.8-0.1,1.1-0.2
				c0.3-0.1,0.6-0.3,0.8-0.5c0.2-0.2,0.3-0.5,0.3-0.9c0-0.4-0.2-0.7-0.5-1c-0.3-0.3-0.8-0.5-1.4-0.6c-0.6-0.2-1.3-0.3-2.1-0.4
				c-0.7-0.1-1.4-0.3-2-0.5c-1.4-0.5-2.5-1.1-3.1-1.9c-0.6-0.8-1-1.8-1-3c0-1.6,0.7-2.9,2.2-3.9c1.4-1,3.3-1.5,5.5-1.5
				c1.1,0,2.3,0.1,3.4,0.3c1.1,0.2,2.1,0.5,2.9,0.8v4h-0.5c-0.7-0.6-1.5-1-2.5-1.4c-1-0.4-2-0.6-3.1-0.6c-0.4,0-0.7,0-1.1,0.1
				c-0.4,0.1-0.7,0.1-1.1,0.3c-0.3,0.1-0.6,0.3-0.8,0.5c-0.2,0.2-0.3,0.5-0.3,0.8c0,0.5,0.2,0.8,0.5,1s1,0.5,2,0.7
				c0.6,0.1,1.2,0.3,1.8,0.4c0.6,0.1,1.2,0.3,1.9,0.5c1.3,0.4,2.3,1,2.9,1.8c0.6,0.7,0.9,1.7,0.9,2.9c0,1.7-0.7,3.1-2.2,4.1
				c-1.4,1.1-3.4,1.6-5.9,1.6c-1.4,0-2.7-0.1-3.7-0.4c-1.1-0.3-2.1-0.6-3-1V259.3z M140.9,249.3c1.6-1.6,3.7-2.4,6.5-2.4
				c2.8,0,4.9,0.8,6.5,2.4c1.6,1.6,2.4,3.8,2.4,6.6c0,2.7-0.8,4.9-2.4,6.5s-3.7,2.4-6.5,2.4c-2.8,0-4.9-0.8-6.5-2.4
				c-1.6-1.6-2.4-3.8-2.4-6.5C138.6,253.1,139.4,250.9,140.9,249.3z"/>
		</g>
		<path class="st1" d="M305,202.7c-17.9-6.6-32.2-14.3-32.4-14.4l1.4-2.5c0.1,0.1,14.3,7.7,32,14.2L305,202.7z"/>
		<g>
			<g>
				<path class="st2" d="M278.8,189.2c-1.4-2.5-3.2-5.6-6.1-5.8c-3.5-0.2-7.2,5.2-8.7,7.8c-9.6,16.4-19.2,32.9-26.8,50.3
					c15.3-6.6,37.4-14.9,56.2-16.5C288.3,210.6,282.9,196.8,278.8,189.2z"/>
				<path class="st2" d="M231.1,257.3c-1.5,4.4-2.9,8.9-5,13.1l81.4-0.4c-2.4-9.3-7.5-25.9-13.1-42.1c-19.6,1.6-43.5,10.8-58.8,17.6
					C234,249.4,232.5,253.3,231.1,257.3z"/>
			</g>
			<path class="st1" d="M343.6,212.1c-10.8-0.8-23.8-4-38.6-9.4l1-2.7c14.6,5.4,27.3,8.5,37.9,9.3L343.6,212.1z"/>
			<path class="st2" d="M182.7,271.3l36.5-18.5c0,0,52.8-27.9,85.1-25.2c0,0,26-18.6,41.2-20.1c15.2-1.4,31.9,20,31.9,20l38,43
				L182.7,271.3z"/>
		</g>
	</g>
</g>
<g>
	<g>
		<g>
			<g>
				<path class="st8" d="M957.9,188.8c0-45.9,27.2-83.1,60.8-83.1c33.6,0,60.8,37.2,60.8,83.1c0,45.9-27.2,83.1-60.8,83.1
					C985.1,271.9,957.9,234.7,957.9,188.8"/>
				<path class="st9" d="M1069.5,229.1l-101.6,0c-4.2-10-6.8-21.3-7.6-33.3h116.8C1076.4,207.9,1073.7,219.2,1069.5,229.1"/>
				<path class="st10" d="M1077.1,195.7l-116.7,0.2c-0.1-2.3-0.2-4.7-0.2-7c0-6.7,0.6-13.3,1.7-19.5l13.2,4.8c3.5,0,5.1-5.1,5.1-5.1
					l12.1-23.5c6-12.9,10.3-4.9,10.3-4.9s2.2-2.1,4.6-3.3c3.3-2.1,6,2.5,6,2.5s0.7-3.1,5.7-3.8c1.1-0.1,3.7-18.8,3.7-18.8
					s0.6-6.9,3.2-8.7c1.3,0.2,2.6,0.5,3.8,0.8c1.8,1.9,1.7,5.3,1.7,5.3l2.2,36.4l10.7,0.2l16.1-19.2c10.4,14.6,16.9,34.7,16.9,56.8
					C1077.3,191.2,1077.2,193.5,1077.1,195.7"/>
				<path class="st6" d="M1014.9,195.4L1014.9,195.4h-54.3c0,0.7,0.1,1.3,0.1,2h46.8L1014.9,195.4z M1030.5,197.3h46.8
					c0-0.6,0.1-1.3,0.1-2h-54.2L1030.5,197.3z"/>
				<path class="st9" d="M1065.8,265.7c0.8-0.7,1.9-0.9,2.8-0.4c-1.9-1.7-3.2-4.1-3.6-6.9c-0.4-3.2,0.5-6.1,2.3-8.3
					c2.3,1.7,3.9,4.3,4.3,7.4c0.2-0.3,0.4-0.7,0.7-1c1.6-2,3.7-3.4,5.9-4c-0.5-0.8-0.5-1.8-0.1-2.6c0.4-0.7,1.2-1.2,2-1.3
					c-0.1-0.3-0.2-0.6-0.2-0.8c-0.7,0.3-1.6,0.3-2.3-0.1c-1.2-0.7-1.6-2.2-1-3.5c0.7-1.2,2.3-1.6,3.5-0.9c0.7,0.4,1.2,1.2,1.3,2
					c0.3-0.1,0.5-0.2,0.8-0.2c-0.3-0.7-0.3-1.6,0.1-2.3c0.5-0.9,1.5-1.4,2.5-1.3c-2.2-1.1-4.1-3-5.2-5.5c-1.3-2.9-1.2-6.1-0.1-8.6
					c2.6,1,4.9,3,6.2,5.9c0.1-0.4,0.2-0.8,0.4-1.1c1-2.5,2.8-4.4,4.9-5.6c-0.8-0.6-1.2-1.7-1-2.7c0.2-0.8,0.8-1.5,1.6-1.7
					c-0.2-0.2-0.3-0.5-0.4-0.8c-0.6,0.5-1.5,0.7-2.3,0.5c-1.4-0.4-2.2-1.7-1.8-3.1c0.4-1.4,1.8-2.2,3.1-1.8c0.8,0.2,1.5,0.8,1.7,1.6
					c0.2-0.2,0.5-0.3,0.7-0.4c-0.5-0.6-0.7-1.4-0.5-2.3c0.3-1.1,1.3-1.8,2.3-1.9c-2.5-0.5-4.8-1.9-6.6-4.2c-1.9-2.5-2.6-5.6-2.2-8.4
					c2.8,0.3,5.5,1.8,7.4,4.2c0-0.4,0-0.8,0.1-1.2c0.3-2.6,1.6-4.9,3.3-6.5c-0.8-0.4-1.4-1.3-1.4-2.3c0-0.9,0.5-1.6,1.1-2.1
					c-0.2-0.2-0.4-0.4-0.6-0.6c-0.5,0.6-1.2,1-2.1,1c-1.4,0-2.5-1.2-2.5-2.6c0-1.4,1.2-2.5,2.6-2.5c0.9,0,1.6,0.5,2.1,1.1
					c0.2-0.2,0.4-0.4,0.6-0.6c-0.6-0.5-1-1.2-1-2.1c0-1.1,0.7-2,1.7-2.3c-2.5,0-5-0.8-7.2-2.6c-2.5-2-3.8-4.9-4-7.7
					c2.8-0.3,5.8,0.5,8.2,2.5c-0.1-0.4-0.1-0.8-0.2-1.2c-0.2-2.6,0.4-5,1.6-7c-0.9-0.2-1.6-1-1.8-2c-0.2-0.9,0.1-1.7,0.7-2.3
					c-0.3-0.1-0.5-0.3-0.7-0.5c-0.3,0.7-1,1.3-1.8,1.5c-1.4,0.3-2.7-0.6-3-2c-0.3-1.4,0.6-2.7,2-3c0.8-0.2,1.7,0.1,2.2,0.7
					c0.1-0.3,0.3-0.5,0.5-0.7c-0.7-0.3-1.3-1-1.4-1.8c-0.2-1,0.2-1.9,0.9-2.5c-2.4,0.5-5,0.2-7.4-1c-2.9-1.4-4.8-3.9-5.6-6.6
					c2.6-0.9,5.7-0.8,8.5,0.6c-0.2-0.4-0.3-0.7-0.4-1.1c-0.9-2.6-0.7-5.3,0.2-7.5c-1.1,0.1-2.1-0.5-2.6-1.5
					c-0.4-0.8-0.3-1.7,0.1-2.3c-0.3-0.1-0.6-0.1-0.8-0.3c-0.2,0.8-0.6,1.5-1.4,1.9c-1.3,0.6-2.8,0.1-3.4-1.2c-0.6-1.3,0-2.8,1.2-3.4
					c0.8-0.4,1.6-0.3,2.3,0.1c0-0.3,0.1-0.6,0.3-0.8c-0.8-0.1-1.5-0.6-1.8-1.4c-0.5-1-0.2-2.1,0.5-2.8c-2.1,1.2-4.7,1.7-7.4,1.1
					c-3.1-0.6-5.7-2.4-7.2-4.7c2.3-1.6,5.3-2.4,8.3-1.8c-0.2-0.3-0.5-0.6-0.7-1c-1.5-2.2-2.1-4.8-1.9-7.2c-1,0.4-2.1,0.1-2.8-0.7
					c-0.6-0.6-0.8-1.5-0.6-2.3c-0.3,0-0.6,0-0.9,0c0.1,0.8-0.2,1.6-0.8,2.2c-1.1,0.9-2.7,0.8-3.6-0.2c-0.9-1-0.9-2.7,0.2-3.6
					c0.6-0.6,1.5-0.8,2.3-0.6c0-0.3,0-0.6,0-0.8c-0.8,0.1-1.6-0.2-2.2-0.8c-0.6-0.6-0.8-1.5-0.6-2.2c-1.6,1.7-3.9,2.9-6.6,3.3
					c-3.2,0.4-6.2-0.5-8.3-2.3c1.6-2.3,4.2-3.9,7.4-4.3c-0.3-0.2-0.7-0.4-1-0.7c-2.5-1.9-4-4.7-4.3-7.5c2.8-0.4,5.8,0.3,8.4,2.2
					c0.3,0.3,0.6,0.5,0.9,0.8c-0.4-3.1,0.5-6,2.3-8.2c2.3,1.7,3.9,4.3,4.4,7.5c0.4,2.8-0.3,5.4-1.6,7.5c1-0.4,2.2-0.2,3,0.6
					c0.6,0.6,0.8,1.5,0.6,2.2c0.3,0,0.5,0,0.8,0c-0.1-0.8,0.2-1.6,0.8-2.1c1.1-0.9,2.7-0.8,3.6,0.2c0.9,1,0.8,2.7-0.2,3.6
					c-0.6,0.6-1.5,0.7-2.2,0.6c0,0.3,0,0.6-0.1,0.8c0.8-0.1,1.6,0.2,2.2,0.8c0.8,0.9,0.9,2.1,0.3,3c2.4,0.7,4.6,2.2,6.2,4.5
					c0.2,0.3,0.5,0.7,0.6,1c0.6-3.1,2.4-5.6,4.7-7.1c1.6,2.3,2.4,5.3,1.8,8.4c-0.6,3-2.3,5.5-4.5,7.1c1.2-0.3,2.5,0.2,3,1.4
					c0.3,0.8,0.3,1.6-0.1,2.3c0.3,0,0.5,0.1,0.7,0.3c0.2-0.8,0.7-1.4,1.4-1.8c1.3-0.6,2.8-0.1,3.4,1.2c0.6,1.3,0,2.8-1.2,3.4
					c-0.8,0.4-1.6,0.3-2.3-0.1c-0.1,0.3-0.1,0.5-0.3,0.8c0.8,0.1,1.5,0.7,1.9,1.4c0.5,1.1,0.2,2.3-0.7,3c2.1,1.3,3.9,3.4,4.8,6.1
					c0.1,0.4,0.2,0.8,0.3,1.2c1.5-2.8,3.9-4.7,6.5-5.5c1,2.7,0.8,5.8-0.6,8.6c-1.3,2.6-3.4,4.4-5.8,5.3c1.1,0.1,2,0.9,2.2,2
					c0.2,0.8-0.1,1.7-0.6,2.2c0.2,0.1,0.4,0.3,0.7,0.4c0.3-0.7,1-1.2,1.8-1.4c1.4-0.3,2.7,0.6,3,2c0.3,1.4-0.6,2.7-2,3
					c-0.8,0.2-1.6-0.1-2.2-0.6c-0.1,0.3-0.3,0.5-0.5,0.7c0.7,0.3,1.3,1,1.5,1.8c0.2,1-0.3,2.1-1.1,2.6c1.6,1.7,2.7,4,3,6.6
					c0,0.4,0,0.8,0,1.2c2-2.4,4.8-3.7,7.6-3.9c0.3,2.8-0.5,5.8-2.5,8.3c-1.9,2.3-4.5,3.7-7.2,4c1.1,0.3,2,1.3,2,2.5
					c0,0.8-0.5,1.6-1.1,2c0.2,0.2,0.4,0.3,0.5,0.6c0.5-0.6,1.2-1,2.1-1c1.4,0,2.5,1.2,2.5,2.6c0,1.4-1.2,2.5-2.6,2.5
					c-0.8,0-1.6-0.4-2-1.1c-0.2,0.2-0.4,0.4-0.6,0.6c0.6,0.5,1.1,1.2,1,2.1c0,1.1-0.8,2.1-1.8,2.4c1.2,2,1.8,4.6,1.4,7.2
					c-0.1,0.4-0.1,0.8-0.2,1.2c2.5-1.9,5.5-2.5,8.2-2.1c-0.3,2.8-1.8,5.6-4.3,7.5c-2.4,1.8-5.3,2.6-8,2.2c1.1,0.5,1.8,1.7,1.5,3
					c-0.2,0.8-0.8,1.4-1.6,1.7c0.2,0.2,0.3,0.4,0.4,0.7c0.6-0.5,1.4-0.7,2.2-0.5c1.4,0.4,2.2,1.8,1.8,3.1c-0.4,1.4-1.8,2.2-3.1,1.8
					c-0.8-0.2-1.4-0.8-1.7-1.5c-0.2,0.2-0.4,0.3-0.7,0.4c0.5,0.6,0.7,1.5,0.5,2.3c-0.3,1.1-1.3,1.8-2.4,1.9c0.8,2.3,0.8,5-0.2,7.6
					c-0.2,0.4-0.3,0.7-0.5,1.1c2.9-1.2,6-1.2,8.5-0.1c-1,2.7-3.1,5-6,6.2c-2.7,1.2-5.6,1.2-8.1,0.4c0.9,0.8,1.1,2.1,0.5,3.1
					c-0.4,0.7-1.2,1.2-1.9,1.3c0.1,0.2,0.2,0.5,0.2,0.8c0.7-0.3,1.6-0.3,2.3,0.1c1.2,0.7,1.7,2.3,1,3.5c-0.7,1.2-2.2,1.7-3.5,1
					c-0.7-0.4-1.2-1.1-1.3-1.9c-0.2,0.1-0.5,0.2-0.8,0.2c0.3,0.7,0.3,1.6-0.1,2.3c-0.6,1-1.6,1.4-2.7,1.3c0,2.3-0.7,4.8-2.4,6.9
					c-0.2,0.3-0.5,0.6-0.8,0.9c3.1-0.4,6,0.6,8.2,2.3c-1.7,2.3-4.3,3.9-7.5,4.3c-3,0.4-5.8-0.4-8-2c0.7,1,0.6,2.5-0.3,3.4
					c-0.6,0.6-1.5,0.8-2.2,0.6c0,0.3,0,0.5,0,0.8c0.8-0.1,1.6,0.2,2.1,0.8c0.9,1,0.9,2.7-0.2,3.6c-1,0.9-2.6,0.9-3.6-0.2
					c-0.6-0.6-0.8-1.5-0.6-2.2c-0.3,0-0.5,0-0.8-0.1c0.1,0.8-0.2,1.6-0.8,2.2c-1,1-2.7,0.9-3.6-0.2c-1-1-0.9-2.6,0.2-3.6
					c0.6-0.6,1.5-0.8,2.3-0.6c0-0.3,0-0.6,0-0.9c-0.8,0.1-1.6-0.2-2.2-0.8c-1-1-0.9-2.7,0.2-3.6c1-1,2.6-0.9,3.6,0.2
					c0.6,0.6,0.8,1.5,0.6,2.3c0.3,0,0.6,0,0.8,0C1064.9,267.1,1065.1,266.3,1065.8,265.7"/>
				<path class="st9" d="M962.8,109.6c-5.2,6.1-9.9,13.1-13.7,20.6l4.2-15.5c0.1-0.2,0-0.5-0.2-0.5l-3.9-1.7c-0.2-0.1-0.5,0-0.6,0.2
					l-10.7,19c-0.1,0.2-0.1,0.4,0.1,0.6c0.2,0.1,0.4,0.1,0.6-0.1c0,0,7.6-8.9,9.1-10.7l-1,13.7c-0.6,1.3-1.2,2.7-1.7,4
					c-3.3,8.1-5.7,16.7-7.3,25.6l-0.3-16.7c0-0.2-0.2-0.4-0.4-0.4l-4.3-0.6c-0.2,0-0.4,0.1-0.5,0.3l-4.9,21.3c0,0.2,0.1,0.5,0.3,0.5
					c0.2,0.1,0.5,0,0.6-0.2c0,0,4.8-10.7,5.8-12.8l2.9,13.8c-0.8,6.2-1.3,12.5-1.3,18.7c0,3.4,0.1,6.9,0.4,10.2l-4.4-16
					c-0.1-0.2-0.3-0.3-0.5-0.3l-4.3,0.5c-0.2,0-0.4,0.2-0.4,0.5l0.5,21.8c0,0.2,0.2,0.4,0.4,0.4c0.2,0,0.5-0.1,0.5-0.4
					c0,0,2-11.5,2.4-13.8l6.2,12.6c1.1,10,3.4,19.7,6.7,29l-8.4-14.1c-0.1-0.2-0.4-0.3-0.6-0.2l-4,1.6c-0.2,0.1-0.3,0.3-0.3,0.5
					l6.3,20.9c0.1,0.2,0.3,0.4,0.5,0.3c0.2-0.1,0.4-0.2,0.4-0.5v0c0,0-1.2-11.7-1.4-14l9.4,10.4c3.7,9.2,8.5,17.6,14.2,25
					l-12.1-10.4c-0.2-0.1-0.4-0.1-0.6,0l-3.3,2.8c-0.2,0.2-0.2,0.4-0.1,0.6l12.6,17.8c0.1,0.2,0.4,0.2,0.6,0.1
					c0.1-0.1,0.2-0.2,0.2-0.4c0-0.1,0-0.1,0-0.2c0,0-4.8-10.7-5.7-12.8l11.9,6.8c1.6,1.9,3.3,3.7,5,5.4c0.9,0.9,2.4,0.9,3.3,0
					c0.9-0.9,0.9-2.4,0-3.3c-1.8-1.8-3.6-3.7-5.2-5.7l-1-11.1c1.5,1.8,9.1,10.6,9.1,10.6c0.1,0.2,0.4,0.2,0.6,0.1
					c0.2-0.1,0.2-0.4,0.1-0.6l-11-18.9c-0.1-0.2-0.3-0.3-0.6-0.2l-4,1.6c-0.2,0.1-0.3,0.3-0.3,0.5l4.6,15
					c-5.8-7.6-10.8-16.4-14.5-25.9l2.2-11.7c1,2.1,6.2,12.8,6.2,12.8c0.1,0.2,0.3,0.3,0.6,0.2c0.2-0.1,0.3-0.3,0.3-0.5l-5.5-21.2
					c-0.1-0.2-0.3-0.4-0.5-0.3l-4.3,0.4c-0.2,0-0.4,0.2-0.4,0.5l0.1,16.2c-3.3-9.3-5.5-19-6.5-29l5.3-11c0.4,2.2,2.7,14,2.7,14
					c0.1,0.2,0.3,0.4,0.5,0.4c0.2,0,0.4-0.2,0.4-0.5v-21.9c0-0.2-0.2-0.4-0.4-0.4l-4.3-0.7c-0.2,0-0.4,0.1-0.5,0.3l-4.1,16
					c-0.3-3.4-0.4-6.7-0.4-10.2c0-6.5,0.5-13,1.4-19.3l7.6-9.4c-0.1,2.3-0.6,14.2-0.6,14.2v0c0,0.2,0.2,0.4,0.4,0.5
					c0.2,0,0.4-0.1,0.5-0.3l5.2-21.2c0.1-0.2-0.1-0.4-0.3-0.5l-4-1.7c-0.2-0.1-0.5,0-0.6,0.2l-7.6,14.3c1.9-10.5,5-20.6,9.3-29.8
					l10.1-6.5c-0.8,2.1-5,13.3-5,13.3c0,0.1,0,0.1,0,0.2c0,0.2,0.1,0.3,0.2,0.4c0.2,0.1,0.5,0,0.6-0.2l11.5-18.6
					c0.1-0.2,0.1-0.4-0.1-0.6l-3.3-2.8c-0.2-0.2-0.4-0.1-0.6,0l-11.7,11.3c3.7-7.4,8.2-14.1,13.3-20.1l16.6-14.3
					c0.1-0.1,0.1-0.2,0-0.3c-0.1-0.1-0.2-0.1-0.3-0.1c0,0-4.9,2.8-8.7,5l10.9-14c0.1-0.1,0.1-0.2,0-0.3c-0.1-0.1-0.2-0.1-0.3,0
					l-12.8,12.2c1.7-3.9,4-9,4-9c0-0.1,0-0.2-0.1-0.3c-0.1-0.1-0.2,0-0.3,0.1L962.8,109.6L962.8,109.6z"/>
				<path class="st11" d="M1018.7,269.8L1018.7,269.8c-32.3,0-58.6-36.3-58.6-80.9c0-44.6,26.3-80.9,58.6-80.9
					c32.3,0,58.6,36.3,58.6,80.9C1077.3,233.5,1051,269.8,1018.7,269.8 M1018.7,103.7c-34.7,0-62.9,38.2-62.9,85.2
					c0,47,28.2,85.2,62.9,85.2c34.7,0,62.9-38.2,62.9-85.2C1081.6,141.9,1053.4,103.7,1018.7,103.7"/>
				<polygon class="st6" points="1007.5,197.3 1030,197.3 1030,195.4 1009,195.4 				"/>
				<path class="st6" d="M1050.4,228c0,17.5-14.2,31.6-31.6,31.6c-17.5,0-31.6-14.2-31.6-31.6c0-17.5,14.2-31.6,31.6-31.6
					C1036.2,196.4,1050.4,210.5,1050.4,228"/>
				<path class="st12" d="M992,230.3L992,230.3c0-0.5-0.2-0.7-0.6-0.7c-0.5,0-0.6,0.3-0.6,0.8l0.1,1.1l1.2-0.1L992,230.3z
					 M992.8,230.5l0.1,0.9l1.4-0.1l0.1,0.9l-4.2,0.3l-0.1-2c-0.1-1.3,0.5-1.7,1.3-1.7c0.6,0,1.1,0.1,1.4,0.8l1.4-0.9l0.1,1
					L992.8,230.5z"/>
				<polygon class="st12" points="990.1,225.3 990.7,222.2 991.5,222.4 991.1,224.6 991.9,224.7 992.3,222.6 993.1,222.7 
					992.7,224.9 993.7,225 994.1,222.8 994.9,222.9 994.3,226.1 				"/>
				<polygon class="st12" points="991.7,218.8 992.2,217.7 995.3,217.9 993.1,215.6 993.6,214.5 997.5,216.3 997.1,217.1 
					994.5,215.9 996.6,218.1 996.3,218.8 993.3,218.6 995.8,219.8 995.5,220.6 				"/>
				<path class="st12" d="M998.6,211.3L998.6,211.3c0.3-0.4,0.3-0.7,0-1c-0.4-0.3-0.6-0.3-1,0.2l-0.7,0.8l1,0.9L998.6,211.3z
					 M995.7,211.4l1.3-1.6c0.8-1,1.5-0.9,2.2-0.4c0.7,0.6,0.9,1.3,0,2.3l-0.7,0.8l1,0.8l-0.6,0.7L995.7,211.4z"/>
				<path class="st12" d="M1002,208.4l-1.5-2.1l0.8-0.5l1.5,2c0.4,0.5,0.7,0.7,1.4,0.2c0.7-0.5,0.6-0.9,0.2-1.4l-1.5-2l0.7-0.5
					l1.5,2.1c0.5,0.7,0.9,1.5-0.6,2.5C1003.1,209.7,1002.5,209.1,1002,208.4"/>
				<path class="st12" d="M1010,204.8L1010,204.8c0.4-0.2,0.6-0.4,0.4-0.7c-0.1-0.3-0.3-0.4-0.8-0.2l-1.1,0.4l0.4,0.9L1010,204.8z
					 M1009.3,203.2L1009.3,203.2c0.5-0.2,0.5-0.4,0.4-0.7c-0.1-0.3-0.3-0.3-0.7-0.2l-1,0.4l0.3,0.8L1009.3,203.2z M1006.8,202.4
					l1.8-0.7c1-0.4,1.6-0.3,1.9,0.4c0.2,0.5,0.1,0.8-0.2,1.1c0.5-0.1,0.8,0.2,1,0.7c0.3,0.9-0.1,1.3-1.2,1.7l-1.8,0.7L1006.8,202.4z
					"/>
				<polygon class="st12" points="1013.4,200.2 1014.4,200 1014.9,203.4 1016.9,203.1 1017.1,203.9 1014.1,204.4 				"/>
				
					<rect x="1017.8" y="201.3" transform="matrix(2.557547e-02 -0.9997 0.9997 2.557547e-02 792.1539 1216.2087)" class="st12" width="4.2" height="0.9"/>
				<path class="st12" d="M1023.3,202c0.3-1.5,1.3-1.9,2.7-1.6c0.7,0.2,1.2,0.5,1.5,1l-0.8,0.5c-0.2-0.3-0.5-0.5-0.9-0.6
					c-0.9-0.2-1.3,0.2-1.5,1c-0.2,0.8,0,1.4,1,1.6c0.5,0.1,0.8,0,1.1-0.2l0.5,0.7c-0.4,0.3-0.9,0.5-1.8,0.3
					C1023.4,204.2,1023,203.3,1023.3,202"/>
				<path class="st12" d="M1031.6,205.5L1031.6,205.5l0.2-1.8l-1.3,1.2L1031.6,205.5z M1031.8,202.5l0.8,0.4l-0.4,4.6l-0.9-0.4
					l0.1-0.7l-1.7-0.9l-0.6,0.5l-0.8-0.4L1031.8,202.5z"/>
				<polygon class="st12" points="1037,205.6 1037.9,206.4 1036.8,209.3 1039.6,207.9 1040.5,208.7 1037.7,211.9 1037,211.2 
					1038.9,209.1 1036.2,210.5 1035.6,210 1036.7,207.2 1034.8,209.3 1034.2,208.7 				"/>
				<path class="st12" d="M1045.7,223.9c1.5-0.1,2.2,0.6,2.3,2c0.1,0.9-0.1,1.4-0.5,1.8l-0.7-0.6c0.2-0.2,0.3-0.5,0.3-1.1
					c-0.1-0.9-0.6-1.2-1.4-1.2c-0.9,0.1-1.4,0.4-1.3,1.4c0.1,0.8,0.4,1,0.9,1l0.1,0l-0.1-1.2l0.8-0.1l0.2,2.1l-0.7,0.1
					c-1.2,0.1-1.9-0.3-2-1.9C1043.5,224.5,1044.3,224,1045.7,223.9"/>
				<polygon class="st12" points="1047.9,230.4 1047.5,233.6 1046.7,233.4 1047,231.2 1046.2,231.1 1045.9,233.3 1045.1,233.2 
					1045.4,231 1044.4,230.9 1044.1,233.1 1043.3,233 1043.8,229.8 				"/>
				<path class="st12" d="M1044.3,237.3L1044.3,237.3c-0.2,0.5-0.1,0.7,0.3,0.9c0.5,0.2,0.7,0,0.8-0.5l0.4-1l-1.1-0.4L1044.3,237.3z
					 M1043.6,236.9l0.3-0.9l-1.3-0.5l0.3-0.9l4,1.4l-0.7,1.9c-0.4,1.2-1.1,1.4-1.8,1.1c-0.5-0.2-1-0.6-1-1.3l-1.7,0.3l0.3-0.9
					L1043.6,236.9z"/>
				<polygon class="st12" points="1044.5,242 1042.8,244.7 1042.1,244.2 1043.3,242.3 1042.6,241.9 1041.5,243.7 1040.8,243.3 
					1041.9,241.5 1041.1,241 1039.9,242.9 1039.2,242.5 1040.9,239.8 				"/>
				<path class="st12" d="M1038.4,246.9L1038.4,246.9c-0.3,0.4-0.4,0.6-0.1,0.9c0.4,0.3,0.6,0.3,1-0.1l0.7-0.8l-0.9-0.8
					L1038.4,246.9z M1037.9,246.2l0.6-0.7l-1-1l0.6-0.7l3.1,2.9l-1.4,1.5c-0.9,1-1.5,0.8-2.1,0.3c-0.4-0.4-0.7-0.9-0.4-1.6l-1.7-0.4
					l0.7-0.7L1037.9,246.2z"/>
				<polygon class="st12" points="1036.7,251.1 1034.1,252.9 1033.6,252.3 1035.5,251 1035,250.3 1033.2,251.6 1032.7,250.9 
					1034.5,249.6 1034,248.9 1032.1,250.2 1031.7,249.5 1034.3,247.7 				"/>
				<path class="st12" d="M1021.7,255.1L1021.7,255.1c-0.5,0.1-0.7,0.2-0.7,0.7c0.1,0.5,0.3,0.6,0.8,0.5l1.1-0.1l-0.1-1.2
					L1021.7,255.1z M1021.7,254.3l0.9-0.1l-0.2-1.4l0.9-0.1l0.5,4.2l-2,0.2c-1.3,0.2-1.7-0.4-1.8-1.2c-0.1-0.6,0.1-1.1,0.7-1.4
					l-1-1.4l1-0.1L1021.7,254.3z"/>
				<polygon class="st12" points="1017.6,257.3 1014.4,257 1014.5,256.1 1016.7,256.3 1016.8,255.5 1014.6,255.3 1014.7,254.5 
					1016.9,254.7 1017,253.8 1014.7,253.6 1014.8,252.8 1018,253.1 				"/>
				<path class="st12" d="M1012.7,254.5c-0.4,1.4-1.4,1.8-2.8,1.4c-0.7-0.2-1.1-0.6-1.4-1.1l0.8-0.4c0.2,0.3,0.4,0.5,0.9,0.7
					c0.9,0.3,1.4-0.1,1.6-0.9c0.2-0.8,0.1-1.4-0.8-1.6c-0.5-0.2-0.8-0.1-1.1,0.1l-0.4-0.8c0.4-0.2,0.9-0.4,1.9-0.1
					C1012.8,252.3,1013.1,253.2,1012.7,254.5"/>
				<polygon class="st12" points="1005.5,253.1 1006.8,253.8 1006.4,254.5 1003,252.7 1003.4,252 1004.7,252.7 1006.3,249.7 
					1007.1,250.1 				"/>
				<polygon class="st12" points="1001.1,251.3 998.6,249.3 999.2,248.6 1000.9,250.1 1001.4,249.4 999.8,248 1000.3,247.4 
					1001.9,248.8 1002.5,248.1 1000.8,246.6 1001.3,246 1003.8,248.1 				"/>
				<path class="st8" d="M1040.6,223.6L1040.6,223.6c0,0.6,0.5,3.3,0.5,4.4c0,12.3-10,22.3-22.3,22.3c-5.5,0-12.7-3.3-16.6-6.6
					l0.3-0.4c12.4-15.9,32.4-19.4,37.8-19.7L1040.6,223.6z M1018.8,205.7L1018.8,205.7l1.6,4.6l4.9,0.1l-3.9,2.9l1.4,4.6
					c0.2-0.1,0.4-0.1,0.6-0.2c6.2-1.9,11.7-2.2,13.9-2.3C1033.2,209.6,1026.4,205.7,1018.8,205.7 M996.5,228
					c0-12.3,10-22.3,22.3-22.3l-1.6,4.6l-4.9,0.1l3.9,2.9l-1.4,4.7l4-2.8l3.9,2.8c-7.3,2.3-16.8,8.7-24.4,19
					C997.5,234.6,996.5,230.6,996.5,228"/>
				<path class="st12" d="M1004.7,234.3L1004.7,234.3c-0.4-0.3-0.7-0.3-1.1,0.2c-0.4,0.5-0.3,0.7,0,1c0.3,0.3,0.6,0.3,1-0.1
					C1005,234.9,1005,234.6,1004.7,234.3 M1004.8,236.9l0.3-0.3c0.9-1.1,0.6-1.4,0.3-1.7c0.1,0.3-0.1,0.6-0.5,1.1
					c-0.6,0.7-1.2,0.6-1.8,0.1c-0.6-0.6-0.8-1.2,0-2.1c0.8-0.9,1.5-0.9,2.4-0.1c1.2,1,1.3,1.8,0.1,3.2l-0.2,0.3L1004.8,236.9z"/>
				<path class="st12" d="M1009.2,231.6L1009.2,231.6l-1.4-0.7l0.6,1.5L1009.2,231.6z M1006.8,230.3l0.6-0.6l3.7,1.8l-0.7,0.6
					l-0.6-0.3l-1.3,1.1l0.2,0.6l-0.6,0.5L1006.8,230.3z"/>
				<path class="st12" d="M1012.5,229.7L1012.5,229.7c0.3-0.3,0.4-0.5,0.2-0.7c-0.2-0.3-0.4-0.2-0.7,0l-0.8,0.6l0.5,0.7
					L1012.5,229.7z M1011.6,228.5L1011.6,228.5c0.4-0.3,0.4-0.5,0.2-0.7c-0.2-0.2-0.3-0.2-0.7,0l-0.8,0.6l0.5,0.7L1011.6,228.5z
					 M1009.2,228.3l1.4-1c0.8-0.6,1.3-0.6,1.7-0.1c0.3,0.4,0.3,0.7,0.1,1c0.4-0.2,0.7,0,1,0.4c0.5,0.7,0.2,1.2-0.6,1.8l-1.4,1
					L1009.2,228.3z"/>
				<path class="st12" d="M1015.2,226.5L1015.2,226.5c0.4-0.2,0.5-0.4,0.3-0.8c-0.2-0.4-0.4-0.4-0.9-0.1l-0.8,0.5l0.6,0.9
					L1015.2,226.5z M1015.4,227.2l-0.7,0.4l0.6,1.1l-0.7,0.4l-1.9-3.3l1.6-0.9c1-0.6,1.5-0.3,1.9,0.3c0.3,0.5,0.4,1-0.1,1.4l1.3,0.8
					l-0.8,0.5L1015.4,227.2z"/>
				
					<rect x="1017.2" y="223.3" transform="matrix(0.895 -0.4462 0.4462 0.895 6.4128 477.6946)" class="st12" width="0.8" height="3.8"/>
				<polygon class="st12" points="1018.2,222.9 1018.9,222.5 1020.1,225.4 1021.9,224.6 1022.1,225.3 1019.6,226.4 				"/>
				<polygon class="st12" points="1023.2,221.7 1022.6,221.9 1022.4,221.2 1023.7,220.8 1024.9,224.4 1024.1,224.7 				"/>
				<path class="st12" d="M1027.8,222.5L1027.8,222.5c-0.1-0.4-0.3-0.5-0.9-0.4c-0.6,0.1-0.7,0.4-0.7,0.7c0.1,0.3,0.3,0.5,0.9,0.4
					C1027.7,223.1,1027.9,222.8,1027.8,222.5 M1027.3,220.9L1027.3,220.9c-0.1-0.3-0.3-0.4-0.8-0.3c-0.5,0.1-0.7,0.3-0.6,0.6
					c0.1,0.3,0.3,0.4,0.8,0.3C1027.3,221.4,1027.4,221.2,1027.3,220.9 M1025.4,223.1c-0.1-0.4-0.1-0.9,0.4-1.1
					c-0.4-0.1-0.6-0.3-0.7-0.7c-0.1-0.5,0.1-1,1.2-1.3c1.2-0.3,1.6,0.1,1.7,0.6c0.1,0.3,0.1,0.7-0.3,0.9c0.5,0,0.7,0.4,0.8,0.8
					c0.1,0.6-0.1,1.2-1.3,1.5C1026.1,224.2,1025.6,223.7,1025.4,223.1"/>
				<path class="st12" d="M1031.3,220.6L1031.3,220.6c-0.1-0.5-0.4-0.7-0.9-0.6c-0.6,0.1-0.7,0.4-0.7,0.8c0.1,0.4,0.3,0.6,0.8,0.6
					C1031.1,221.2,1031.4,221,1031.3,220.6 M1029.7,222.6l0.4-0.1c1.4-0.2,1.4-0.7,1.4-1.1c-0.1,0.3-0.5,0.4-1.1,0.5
					c-1,0.1-1.3-0.3-1.4-1.1c-0.1-0.8,0.2-1.4,1.3-1.6c1.2-0.2,1.7,0.3,1.9,1.4c0.2,1.5-0.1,2.2-2,2.5l-0.4,0.1L1029.7,222.6z"/>
				<path class="st12" d="M1032.8,222.2l1.2-1.1c0.5-0.5,0.7-0.7,0.7-1.1c0-0.3-0.2-0.4-0.7-0.4c-0.4,0-0.8,0.2-1,0.3l-0.4-0.6
					c0.4-0.2,0.7-0.4,1.5-0.4c0.9-0.1,1.4,0.2,1.4,1c0,0.6-0.2,0.9-0.8,1.5l-0.7,0.7l1.7-0.1l0,0.7l-2.8,0.2L1032.8,222.2z"/>
				<polygon class="st11" points="1029.1,100.6 1020.5,94.5 1011.8,100.6 1015,90.5 1006.5,84.2 1017.1,84 1020.5,74 1023.9,84 
					1034.4,84.2 1026,90.5 				"/>
				<path class="st11" d="M1079,279.5c-6.8,4.2-14.8,6.6-23.4,6.6c-8.6,0-16.6-2.4-23.4-6.6l-5.2,8.4l-15-9.3c0,0-2.7,4.5-5.2,8.5
					c-8.7-4.8-18.7-7.5-29.4-7.5c-11.8,0-22.7,3.3-32,9.1c0,0,6.6,10.8,8.7,14.1c6.8-4.2,14.8-6.6,23.4-6.6c8.6,0,16.6,2.4,23.4,6.6
					l5.2-8.4l14.8,9.2c0.9-1.4,3.3-5.1,5.3-8.3c8.7,4.8,18.8,7.5,29.5,7.5c11.8,0,22.7-3.3,32.1-9
					C1087.7,293.6,1080.7,282.3,1079,279.5"/>
				<path class="st6" d="M996.9,295.2L996.9,295.2c2.1,0.8,2.7-0.7,3.4-2.3c0.7-1.6,1.3-3.1-0.8-4c-2.1-0.8-2.7,0.7-3.4,2.3
					C995.5,292.8,994.8,294.4,996.9,295.2 M997.3,294.3L997.3,294.3c-0.7-0.3-0.5-1,0.1-2.6c0.6-1.6,1-2.2,1.7-1.9
					c0.7,0.3,0.5,1-0.1,2.6C998.4,294,998,294.6,997.3,294.3 M989.4,292.6L989.4,292.6l2.1,0.6c2.3,0.6,2.7-1.6,3-2.6
					c0.6-2,0.6-3.2-1.2-3.7l-2.2-0.6L989.4,292.6z M992.3,287.7L992.3,287.7l0.7,0.2c0.9,0.3,0.6,1.3,0.3,2.5
					c-0.5,1.6-0.8,2.1-1.6,1.9L991,292L992.3,287.7z M983.2,291.7L983.2,291.7c2.2,0.3,2.5-1.3,2.7-3c0.2-1.7,0.5-3.4-1.8-3.7
					c-2.2-0.3-2.5,1.3-2.7,3.1C981.2,289.7,981,291.4,983.2,291.7 M983.4,290.7L983.4,290.7c-0.8-0.1-0.8-0.9-0.5-2.5
					c0.2-1.7,0.4-2.4,1.2-2.3c0.8,0.1,0.8,0.8,0.5,2.5C984.3,290.1,984.1,290.8,983.4,290.7 M975.5,291.2L975.5,291.2l2.2,0
					c2.4,0.1,2.2-2.3,2.3-3.3c0-2-0.3-3.2-2.1-3.3l-2.3,0L975.5,291.2z M977,285.7L977,285.7l0.7,0c1,0,0.9,1.1,0.9,2.3
					c0,1.7-0.2,2.3-1,2.3l-0.7,0L977,285.7z M972.3,289L972.3,289l-1.3,0.2l0.3-2.9h0L972.3,289z M970.7,291.7L970.7,291.7l0.2-1.5
					l1.9-0.2l0.5,1.4l1.4-0.2l-2.6-6.3l-1.8,0.2l-1,6.8L970.7,291.7z M963.7,286.4L963.7,286.4l0.2,1.1l1.5-0.3l1.1,5.4l1.3-0.3
					l-1.1-5.4l1.5-0.3l-0.2-1.1L963.7,286.4z M963.9,291.2L963.9,291.2c-0.7-2-3.2-1-3.7-2.1c-0.1-0.4,0-0.8,0.5-0.9
					c0.5-0.2,0.8,0.3,0.9,0.7l1.3-0.4c-0.4-1.3-1.2-1.7-2.5-1.2c-1.6,0.5-1.8,1.5-1.4,2.5c0.6,1.8,3.3,1,3.7,2.1
					c0.1,0.4,0,0.8-0.4,0.9c-0.7,0.2-0.9-0.2-1.1-0.8l-1.3,0.5c0.3,1.1,0.9,1.9,2.5,1.4C963.3,293.4,964.4,292.8,963.9,291.2
					 M959.5,294.5L959.5,294.5l-0.4-0.9l-2.1,1l-0.8-1.7l1.8-0.9l-0.4-0.9l-1.8,0.9l-0.7-1.5l2-1l-0.4-0.9l-3.2,1.6l2.9,5.9
					L959.5,294.5z M1018.4,296.3L1018.4,296.3c1.9,1.2,2.8-0.2,3.7-1.7c0.9-1.5,1.8-2.9-0.1-4.1c-1.9-1.2-2.8,0.2-3.7,1.7
					C1017.4,293.7,1016.5,295.1,1018.4,296.3 M1018.9,295.5L1018.9,295.5c-0.7-0.4-0.3-1.1,0.6-2.5c0.9-1.4,1.4-2,2-1.6
					c0.7,0.4,0.3,1.1-0.6,2.5C1020.1,295.4,1019.6,295.9,1018.9,295.5 M1015.2,294.2L1015.2,294.2l3.5-5.6l-1.2-0.7l-3.5,5.5
					L1015.2,294.2z M1011.9,288.8L1011.9,288.8l0.3,0.2c0.9,0.6,0.5,1.1,0.1,1.8c-0.2,0.4-0.5,0.7-0.6,1.2l1.1,0.7
					c0-0.3,0.7-1.4,0.9-1.7c0.6-1-0.1-1.5-0.3-1.7l0,0c0.8,0.4,1.4,0,1.9-0.7c0.6-1,0.4-1.8-0.4-2.3l-2.1-1.4l-3.5,5.6l1.2,0.7
					L1011.9,288.8z M1013.4,286.4L1013.4,286.4l0.5,0.3c0.4,0.2,0.5,0.6,0.1,1.1c-0.2,0.4-0.6,0.7-1.1,0.4l-0.5-0.3L1013.4,286.4z
					 M1078.1,293.2L1078.1,293.2c2.1-0.9,1.4-2.4,0.8-4c-0.7-1.6-1.3-3.1-3.4-2.2c-2.1,0.9-1.5,2.4-0.8,4
					C1075.3,292.5,1076,294.1,1078.1,293.2 M1077.7,292.3L1077.7,292.3c-0.7,0.3-1.1-0.3-1.8-1.9c-0.7-1.6-0.8-2.3-0.1-2.6
					c0.7-0.3,1.1,0.3,1.7,1.9C1078.2,291.3,1078.4,292,1077.7,292.3 M1071,292.7L1071,292.7l0.3-0.1c1-0.3,1.1,0.3,1.4,1.1
					c0.1,0.4,0.2,0.8,0.5,1.2l1.3-0.4c-0.2-0.2-0.6-1.4-0.7-1.8c-0.3-1.1-1.2-1-1.5-0.9l0,0c0.8-0.4,0.9-1.1,0.7-1.9
					c-0.3-1.1-1.1-1.5-2-1.2l-2.4,0.7l1.9,6.3l1.3-0.4L1071,292.7z M1070.2,289.9L1070.2,289.9l0.6-0.2c0.4-0.1,0.7,0,0.9,0.6
					c0.1,0.4,0.1,1-0.4,1.1l-0.6,0.2L1070.2,289.9z M1068.8,296.1L1068.8,296.1l-1.4-6.4l-1.3,0.3l1.4,6.4L1068.8,296.1z
					 M1066.2,296.6L1066.2,296.6l-0.2-1l-2.3,0.4l-0.3-1.9l2-0.3l-0.2-1l-2,0.3l-0.3-1.6l2.2-0.3l-0.2-1l-3.5,0.6l1,6.5
					L1066.2,296.6z M1057,297.6L1057,297.6l-0.2-4.8h0l2,4.7l1.8-0.1l-0.3-6.6l-1.3,0.1l0.2,4.5l0,0l-2-4.5l-1.9,0.1l0.3,6.6
					L1057,297.6z M1052.3,295L1052.3,295l-1.3-0.1l0.8-2.8h0L1052.3,295z M1050.2,297.4L1050.2,297.4l0.5-1.4l1.9,0.1l0.3,1.5
					l1.4,0.1l-1.3-6.7l-1.8-0.1l-2.3,6.4L1050.2,297.4z M1047.6,290.4L1047.6,290.4l-0.8,5.1c0,0.3-0.3,0.5-0.6,0.5
					c-0.7-0.1-0.5-0.9-0.4-1.4l-1.4-0.2c-0.2,1.5-0.3,2.3,1.6,2.6c1,0.2,2-0.2,2.1-1.3l0.8-5L1047.6,290.4z M1040.3,295.5
					L1040.3,295.5l0.3-1l-2.2-0.7l0.6-1.8l1.9,0.6l0.3-1l-2-0.6l0.5-1.6l2.1,0.7l0.3-1l-3.4-1.1l-2,6.3L1040.3,295.5z M1030.9,291.8
					L1030.9,291.8l2,0.9c2.1,1,3-1.2,3.4-2.1c0.9-1.9,1.1-3.1-0.6-3.8l-2.1-1L1030.9,291.8z M1034.5,287.3l0.6,0.3
					c0.9,0.4,0.4,1.4-0.1,2.5c-0.7,1.5-1.1,2-1.9,1.7l-0.6-0.3L1034.5,287.3z"/>
				<path class="st4" d="M1060.8,160.7L1060.8,160.7c-1,0.3,0.8-1.8,2.6-0.6C1063.4,160.2,1061.7,160.5,1060.8,160.7 M1069.3,162.8
					c-0.4-1.2-1.5-3.5-5-2.8c-0.6-1.2-3.4-0.8-6.1,0c-2.6,0.7-7.6,2.8-9.8,3.5c-2.2,0.7-5.6,1.2-6.8,0.5c0.2,0.7,0.9,1.1,1.7,1.4
					c-0.2,0-0.5,0-0.8,0c-1.1-0.3-2.6-1-3.5-2.8c-1.1-2.2-0.9-4.1-1.7-5.5c-0.8-1.4-1.2-3.6-5-3.6c-3.8,0-12.2,3-19.6,4.9
					c-7.3,1.9-20,5.4-25.7,6.9c-5.6,1.5-16.8,3-20.8,3c7,5.5,21,2.7,24.3,2.2c-1.6,0.5-11.4,2.6-11.1,2.8c0.1,0.9,6.1,2.3,17.8-1.3
					c-1.9,1.3-6.5,2.9-10,3.9c-0.2,0.1,0.2,0.3,0.8,0.4c2,0.4,6.9,0.9,16.8-2.7c-2.3,1.2-6.8,3-10.2,4c-1.9,0.6,3.2,1.1,6.9,0.4
					c3.9-0.8,7.3-2.5,9.9-2.8l2-0.2c-4,0.7-13.9,5.6-17,7.4c-3.6,2-10.6,4.9-14.1,5.2c1.4,1.3,5.5,3.3,8.7,4.1
					c3.5,0.9,9.1,1.4,13.9,0.6c1.6-3.8,7.8-7.7,10.7-8.8c-3.3,2.9-3.3,4.9-3.4,6.9c0,1.7,1.1,3.8,1.3,5.4h4.3c0-1.1-0.1-3.3,0-4.9
					c0.2-2.2,1.1-4,3.4-5.6c-0.9,1.4-0.3,4.8,0.2,6.5c0.4,1.6,0.9,3.1,1.4,4h4.5c-0.8-1.3-1-5.6-0.6-7c0.4-1.8,3.7-4.2,6.3-5.8
					c2.6-1.6,7.4-2.9,10.5-3.8c3-0.9,4.5-1.5,5.2-2.1c1.2-0.8,2.3-2.4,3.8-3.9c0.5-0.4,0.9-0.9,0.9-0.9c0,0,3.3-3.4,8.7-5.7
					c1.4-0.6,4.2-1.3,5.3-1.2c1.1,0.1,1.8,0.4,2.5,1C1069.9,165,1069.7,163.9,1069.3,162.8"/>
				<path class="st4" d="M1052.8,174.6c-0.1,0.1-0.4,0.3-1.1,1.2c0,0,0,0.1-0.1,0.1c-1.5,1.9-3.3,3.1-5.5,3.7
					c-2.5,0.8-8.1,2-11.7,3.7c2.5,0.1,12.5,1.1,16.2,0.6c3.7-0.5,7.8-2.5,7.9-5.6C1058.6,175.5,1055.8,174.6,1052.8,174.6"/>
			</g>
			<g>
				<path class="st13" d="M1150.6,191.7L1150.6,191.7v11.7h8.4c3.4,0,6-0.4,7.8-1.3c1.8-0.9,2.7-2.5,2.7-4.8c0-1.9-0.7-3.3-2-4.2
					c-1.4-0.9-3.3-1.3-5.9-1.3H1150.6z M1151,217.4v19.3c0,0.6-0.2,1.2-0.6,1.6c-0.4,0.5-0.9,0.7-1.5,0.7h-15.6
					c-0.6,0-1.1-0.2-1.5-0.7c-0.4-0.5-0.6-1-0.6-1.6v-56.6c0-0.6,0.2-1.2,0.6-1.6c0.4-0.5,0.9-0.7,1.5-0.7h35.3
					c6,0,10.9,1.5,14.6,4.5c3.9,3.2,5.9,7.5,5.9,12.7c0,5.9-1.6,10.2-4.9,12.9c-0.8,0.7-1.7,1.3-2.8,1.9c-1.1,0.6-2.2,1.1-3.5,1.6
					c1.5,0.9,2.8,1.9,3.8,2.9c1.1,1,1.9,2.1,2.6,3.1l9.6,18.1c0.5,0.9,0.5,1.7,0.1,2.5c-0.4,0.8-1,1.1-1.9,1.1h-17.9
					c-0.4,0-0.7-0.1-1.1-0.4c-0.4-0.3-0.6-0.6-0.8-0.9l-9-18.6l0.1,0.2c-0.2-0.3-0.4-0.5-0.6-0.8c-0.2-0.3-0.4-0.5-0.7-0.6
					c-0.4-0.3-1.8-0.5-4.4-0.5H1151z"/>
				<path class="st13" d="M1199.2,239.1c-0.5,0-0.9-0.2-1.3-0.7c-0.4-0.5-0.5-1-0.5-1.6v-56.6c0-0.6,0.2-1.2,0.5-1.6
					c0.4-0.5,0.8-0.7,1.3-0.7h13.1c0.5,0,0.9,0.2,1.3,0.7c0.4,0.5,0.5,1,0.5,1.6v56.6c0,0.6-0.2,1.2-0.5,1.6
					c-0.4,0.5-0.8,0.7-1.3,0.7H1199.2z"/>
				<path class="st13" d="M1260.4,198.2L1260.4,198.2c-2.3-2.3-5.7-3.4-10.1-3.4c-4.4,0-7.8,1.1-10.1,3.4c-2.3,2.3-3.4,5.6-3.4,10.1
					c0,4.5,1.1,7.9,3.4,10.1c2.3,2.3,5.7,3.4,10.1,3.4c4.4,0,7.8-1.1,10.1-3.4c2.3-2.3,3.5-5.6,3.5-10.1
					C1263.9,203.8,1262.7,200.5,1260.4,198.2 M1275,232.2c-5.6,5.2-13.8,7.8-24.7,7.8c-10.9,0-19.1-2.6-24.7-7.8
					c-5.6-5.2-8.4-13.2-8.4-23.9c0-10.7,2.8-18.6,8.4-23.9c5.6-5.2,13.8-7.9,24.7-7.9c10.9,0,19.1,2.6,24.7,7.9
					c5.6,5.2,8.4,13.2,8.4,23.9C1283.4,219,1280.6,227,1275,232.2"/>
				<path class="st13" d="M1344.7,199.4L1344.7,199.4c-1.6-2-4.1-3-7.2-3h-12.4v24.1h11.8c3.4,0,5.9-1,7.7-3c1.7-2,2.6-5,2.6-9
					C1347.2,204.5,1346.4,201.4,1344.7,199.4 M1338,177.7c8.4,0,15.2,2.8,20.5,8.5c5.2,5.6,7.8,13,7.8,22.1c0,8.9-2.6,16.3-7.9,22
					c-5.2,5.7-11.9,8.6-20.1,8.6h-31c-0.6,0-1.1-0.2-1.5-0.7c-0.4-0.5-0.6-1-0.6-1.6v-56.6c0-0.6,0.2-1.2,0.6-1.6
					c0.4-0.5,0.9-0.7,1.5-0.7H1338z"/>
				<path class="st13" d="M1371.5,239.1c-0.6,0-1.1-0.2-1.5-0.7c-0.4-0.5-0.6-1-0.6-1.6v-56.6c0-0.6,0.2-1.2,0.6-1.6
					c0.4-0.5,0.9-0.7,1.5-0.7h41c0.6,0,1.1,0.2,1.5,0.7c0.4,0.5,0.6,1,0.6,1.6v11.4c0,0.7-0.2,1.3-0.6,1.7c-0.4,0.5-0.9,0.7-1.5,0.7
					h-23.6v6.3h20.2c0.6,0,1.1,0.2,1.5,0.7c0.4,0.5,0.6,1,0.6,1.6v11.3c0,0.7-0.2,1.3-0.6,1.7c-0.4,0.5-0.9,0.7-1.5,0.7l-20.2,0.1
					v6.6h25.5c0.6,0,1.1,0.2,1.5,0.7c0.4,0.5,0.6,1,0.6,1.7v11.4c0,0.6-0.2,1.2-0.6,1.6c-0.4,0.5-0.9,0.7-1.5,0.7H1371.5z"/>
				<path class="st13" d="M1477,177.1c0.6,0,1,0.2,1.4,0.7c0.4,0.5,0.6,1,0.6,1.7v40.2c0,6.4-2,11.6-5.9,15.7c-3.8,4-8.8,5.9-15,5.9
					c-3.3,0-6.7-0.6-10.2-1.9c-1.7-0.6-3.1-1.1-4.2-1.6c-1.1-0.4-1.8-0.8-2.3-1.1c-0.2-0.2-0.5-0.4-0.7-0.8c-0.2-0.4-0.3-0.7-0.4-1
					l-2-17.8c-0.1-0.6,0-1.2,0.2-1.6c0.2-0.4,0.6-0.8,1-1c0.4-0.2,0.8-0.3,1.3-0.2c0.4,0.1,0.9,0.4,1.2,0.8c0.7,1,2.3,2.2,4.5,3.6
					c2.1,1.3,4.3,2,6.7,2c4.4,0,6.6-2.2,6.6-6.7v-34.6c0-0.7,0.2-1.3,0.6-1.7c0.4-0.5,0.9-0.7,1.5-0.7H1477z"/>
				<path class="st13" d="M1505.9,216.3L1505.9,216.3h13.1l-6.3-13.6L1505.9,216.3z M1530.9,239.1c-0.3,0-0.7-0.1-1.1-0.4
					c-0.4-0.3-0.7-0.6-0.8-0.9l-3.6-7.7H1499l-3.6,7.7c-0.2,0.4-0.5,0.7-0.8,0.9c-0.4,0.3-0.8,0.4-1.1,0.4h-14.6
					c-0.9,0-1.6-0.4-2-1.1c-0.4-0.7-0.4-1.5,0.1-2.4l28.9-56.5c0.1-0.3,0.4-0.6,0.8-0.9c0.4-0.3,0.8-0.4,1.1-0.4h12.5
					c0.3,0,0.7,0.1,1.1,0.4c0.4,0.3,0.7,0.6,0.8,0.9l27.2,56.5c0.4,0.9,0.4,1.7,0,2.4c-0.4,0.7-1,1.1-2,1.1H1530.9z"/>
				<path class="st13" d="M1586.2,202.7c1.3,2,2.7,4.1,4,6.1v-28.8c0-0.6,0.2-1.2,0.6-1.6c0.4-0.5,0.9-0.7,1.5-0.7h13.7
					c0.6,0,1.1,0.2,1.5,0.7c0.4,0.5,0.6,1,0.6,1.6v56.6c0,0.6-0.2,1.2-0.6,1.6c-0.4,0.5-0.9,0.7-1.5,0.7h-15.8
					c-0.2,0-0.5-0.1-0.9-0.3c-0.4-0.2-0.7-0.4-0.8-0.7l-19.8-29.7v28.3c0,0.6-0.2,1.2-0.6,1.6c-0.4,0.5-0.9,0.7-1.5,0.7h-13.7
					c-0.6,0-1.1-0.2-1.5-0.7c-0.4-0.5-0.6-1-0.6-1.6v-56.6c0-0.6,0.2-1.2,0.6-1.6c0.4-0.5,0.9-0.7,1.5-0.7h15.6c0.3,0,0.6,0.1,1,0.3
					c0.4,0.2,0.6,0.4,0.7,0.7c2.1,3.1,4.1,6.2,6,9.1c1.9,2.9,3.9,5.9,5.9,8.9C1583.5,198.7,1584.8,200.7,1586.2,202.7"/>
				<path class="st13" d="M1614.7,239.1c-0.6,0-1.1-0.2-1.5-0.7c-0.4-0.5-0.6-1-0.6-1.6v-56.6c0-0.6,0.2-1.2,0.6-1.6
					c0.4-0.5,0.9-0.7,1.5-0.7h41c0.6,0,1.1,0.2,1.5,0.7c0.4,0.5,0.6,1,0.6,1.6v11.4c0,0.7-0.2,1.3-0.6,1.7c-0.4,0.5-0.9,0.7-1.5,0.7
					h-23.6v6.3h20.2c0.6,0,1.1,0.2,1.5,0.7c0.4,0.5,0.6,1,0.6,1.6v11.3c0,0.7-0.2,1.3-0.6,1.7c-0.4,0.5-0.9,0.7-1.5,0.7l-20.2,0.1
					v6.6h25.5c0.6,0,1.1,0.2,1.5,0.7c0.4,0.5,0.6,1,0.6,1.7v11.4c0,0.6-0.2,1.2-0.6,1.6c-0.4,0.5-0.9,0.7-1.5,0.7H1614.7z"/>
				<path class="st13" d="M1664.7,239.1c-0.5,0-1-0.2-1.3-0.7c-0.4-0.5-0.5-1-0.5-1.6v-56.6c0-0.6,0.2-1.2,0.5-1.6
					c0.3-0.5,0.8-0.7,1.3-0.7h13.1c0.5,0,0.9,0.2,1.3,0.7c0.4,0.5,0.5,1,0.5,1.6v56.6c0,0.6-0.2,1.2-0.5,1.6
					c-0.4,0.5-0.8,0.7-1.3,0.7H1664.7z"/>
				<path class="st13" d="M1702.2,191.7L1702.2,191.7v11.7h8.4c3.4,0,6-0.4,7.8-1.3c1.8-0.9,2.7-2.5,2.7-4.8c0-1.9-0.7-3.3-2-4.2
					c-1.4-0.9-3.3-1.3-5.9-1.3H1702.2z M1702.6,217.4v19.3c0,0.6-0.2,1.2-0.6,1.6c-0.4,0.5-0.9,0.7-1.5,0.7h-15.6
					c-0.6,0-1.1-0.2-1.5-0.7c-0.4-0.5-0.6-1-0.6-1.6v-56.6c0-0.6,0.2-1.2,0.6-1.6c0.4-0.5,0.9-0.7,1.5-0.7h35.3
					c6.1,0,10.9,1.5,14.6,4.5c3.9,3.2,5.9,7.5,5.9,12.7c0,5.9-1.6,10.2-4.9,12.9c-0.8,0.7-1.7,1.3-2.8,1.9c-1.1,0.6-2.2,1.1-3.5,1.6
					c1.5,0.9,2.8,1.9,3.8,2.9c1.1,1,1.9,2.1,2.6,3.1l9.6,18.1c0.5,0.9,0.5,1.7,0.1,2.5c-0.4,0.8-1,1.1-1.9,1.1h-17.9
					c-0.4,0-0.7-0.1-1.1-0.4c-0.4-0.3-0.6-0.6-0.8-0.9l-9-18.6l0.1,0.2c-0.2-0.3-0.4-0.5-0.6-0.8c-0.2-0.3-0.4-0.5-0.7-0.6
					c-0.4-0.3-1.8-0.5-4.4-0.5H1702.6z"/>
				<path class="st13" d="M1784.6,198.2L1784.6,198.2c-2.3-2.3-5.7-3.4-10.1-3.4c-4.4,0-7.8,1.1-10.1,3.4c-2.3,2.3-3.4,5.6-3.4,10.1
					c0,4.5,1.2,7.9,3.4,10.1c2.3,2.3,5.7,3.4,10.1,3.4c4.4,0,7.8-1.1,10.1-3.4c2.3-2.3,3.5-5.6,3.5-10.1
					C1788.1,203.8,1787,200.5,1784.6,198.2 M1799.2,232.2c-5.6,5.2-13.8,7.8-24.7,7.8c-10.9,0-19.1-2.6-24.7-7.8
					c-5.6-5.2-8.4-13.2-8.4-23.9c0-10.7,2.8-18.6,8.4-23.9c5.6-5.2,13.8-7.9,24.7-7.9c10.9,0,19.1,2.6,24.7,7.9
					c5.6,5.2,8.4,13.2,8.4,23.9C1807.6,219,1804.8,227,1799.2,232.2"/>
				<g>
					<path class="st14" d="M1130.9,144.9c0-11.1,5.2-15.8,14.5-15.8c5.6,0,8.9,1.8,11.1,4.3l-4.2,4.7c-1.4-1.5-3.2-2.8-7-2.8
						c-6,0-8.4,3.3-8.4,9.7c0,6.7,1.6,10,8.3,10c5.3,0,6.9-2,6.9-6.3v-0.7h-7.7v-5.6h13.7v5c0,8.7-3.1,13.2-13.2,13.2
						C1134,160.7,1130.9,155.1,1130.9,144.9"/>
					<path class="st14" d="M1197.9,145L1197.9,145c0-6-2.1-9.7-8.4-9.7c-6.3,0-8.4,3.7-8.4,9.7c0,6,2.1,9.7,8.4,9.7
						C1195.8,154.8,1197.9,151,1197.9,145 M1175,144.9c0-11.5,5.8-15.8,14.6-15.8c8.8,0,14.6,4.3,14.6,15.8
						c0,11.5-5.8,15.8-14.6,15.8C1180.8,160.7,1175,156.4,1175,144.9"/>
					<polygon class="st14" points="1219.3,129.7 1225.7,129.7 1233.4,152 1241.1,129.7 1247.3,129.7 1236.4,160.4 1230.2,160.4 
											"/>
					<polygon class="st14" points="1265.1,129.7 1285.8,129.7 1285.8,135.8 1271.2,135.8 1271.2,141.7 1285.5,141.7 1285.5,147.6 
						1271.2,147.6 1271.2,154.4 1286,154.4 1286,160.2 1265.1,160.2 					"/>
					<path class="st14" d="M1318.3,144.3L1318.3,144.3c3.3,0,4.8-0.9,4.8-4.4c0-3.6-1.4-4.5-4.9-4.5h-7.1v8.8H1318.3z M1317.3,150.1
						h-6.2v10.2h-5.9v-30.6h13.3c8.7,0,10.7,4.1,10.7,10c0,4.2-1.2,8.1-5.8,9.7l5.5,10.9h-6.5L1317.3,150.1z"/>
					<polygon class="st14" points="1348.4,129.7 1355,129.7 1367.6,148.9 1367.6,129.7 1373.4,129.7 1373.4,160.2 1367.9,160.2 
						1354.2,139.6 1354.2,160.2 1348.4,160.2 					"/>
					<path class="st14" d="M1415,145L1415,145c0-6-2.1-9.7-8.4-9.7c-6.3,0-8.4,3.7-8.4,9.7c0,6,2.1,9.7,8.4,9.7
						C1412.9,154.8,1415,151,1415,145 M1392,144.9c0-11.5,5.8-15.8,14.6-15.8c8.8,0,14.6,4.3,14.6,15.8c0,11.5-5.8,15.8-14.6,15.8
						C1397.8,160.7,1392,156.4,1392,144.9"/>
					<path class="st14" d="M1472.3,154.3L1472.3,154.3c7.5,0,9-2.5,9-9.4c0-6.9-1.3-9.2-9.1-9.2h-3.9v18.6H1472.3z M1462.2,129.7
						h9.9c10.8,0,15.3,3.1,15.3,15.3c0,11.9-4.6,15.3-15.5,15.3h-9.7V129.7z"/>
					<path class="st14" d="M1527.4,145L1527.4,145c0-6-2.1-9.7-8.4-9.7c-6.3,0-8.4,3.7-8.4,9.7c0,6,2.1,9.7,8.4,9.7
						C1525.3,154.8,1527.4,151,1527.4,145 M1504.5,144.9c0-11.5,5.8-15.8,14.6-15.8c8.8,0,14.6,4.3,14.6,15.8
						c0,11.5-5.8,15.8-14.6,15.8C1510.3,160.7,1504.5,156.4,1504.5,144.9"/>
					<polygon class="st14" points="1574.7,129.7 1595.4,129.7 1595.4,135.8 1580.8,135.8 1580.8,141.7 1595,141.7 1595,147.6 
						1580.8,147.6 1580.8,154.4 1595.5,154.4 1595.5,160.2 1574.7,160.2 					"/>
					<path class="st14" d="M1612.4,156.7l3-4.9c2.9,2.2,6.3,3.3,9.9,3.3c5.4,0,6.4-1.2,6.4-3.7c0-2.5-2.3-3-6.5-3.7
						c-7.4-1.2-11.2-2.6-11.2-9.3c0-6.8,3.7-9.2,11.5-9.2c5.6,0,9,1.4,11.1,3l-3.3,5.2c-1.7-1.3-5-2.4-7.9-2.4
						c-4.3,0-5.3,0.9-5.3,3.2c0,2.5,2.3,2.9,6.6,3.6c6.6,1.1,11,2.3,11,9.2c0,6.2-3,9.7-12.2,9.7
						C1620,160.7,1615.5,159.2,1612.4,156.7"/>
					<polygon class="st14" points="1662.5,135.8 1652.9,135.8 1652.9,129.7 1678.1,129.7 1678.1,135.8 1668.6,135.8 1668.6,160.2 
						1662.5,160.2 					"/>
					<path class="st14" d="M1708.2,149.6L1708.2,149.6l-4.3-12.2l-4.3,12.2H1708.2z M1700.9,129.5h6.2l11.1,30.8h-6.3l-1.8-5h-12.5
						l-1.8,5h-5.9L1700.9,129.5z"/>
					<path class="st14" d="M1746,154.3L1746,154.3c7.5,0,9-2.5,9-9.4c0-6.9-1.3-9.2-9.1-9.2h-3.9v18.6H1746z M1736,129.7h9.9
						c10.8,0,15.3,3.1,15.3,15.3c0,11.9-4.6,15.3-15.5,15.3h-9.7V129.7z"/>
					<path class="st14" d="M1801.2,145L1801.2,145c0-6-2.1-9.7-8.4-9.7c-6.3,0-8.4,3.7-8.4,9.7c0,6,2.1,9.7,8.4,9.7
						C1799.1,154.8,1801.2,151,1801.2,145 M1778.2,144.9c0-11.5,5.8-15.8,14.6-15.8c8.8,0,14.6,4.3,14.6,15.8
						c0,11.5-5.8,15.8-14.6,15.8C1784,160.7,1778.2,156.4,1778.2,144.9"/>
				</g>
			</g>
		</g>
	</g>
	<g>
		<g>
			<path d="M643.4,161.4c-2.1,0-4.1-0.2-6-0.7c-1.9-0.5-3.6-1.3-5.2-2.4l1.8-2.8c1.5,1,3.1,1.7,4.6,2.1c1.6,0.4,3.1,0.6,4.7,0.6
				c2.7,0,4.5-0.4,5.7-1.1c1.1-0.7,1.7-1.9,1.7-3.5c0-0.8-0.2-1.5-0.5-2c-0.3-0.5-0.8-0.9-1.5-1.2c-0.6-0.3-1.4-0.6-2.3-0.8
				c-0.9-0.2-1.9-0.4-3.1-0.6c-1.5-0.3-2.9-0.5-4.1-0.8s-2.2-0.7-3.1-1.2c-0.8-0.5-1.5-1.2-1.9-2.1c-0.4-0.8-0.7-2-0.7-3.3
				c0-2.6,0.8-4.5,2.5-5.6c1.6-1.1,4.1-1.7,7.4-1.7c2.2,0,4.1,0.2,5.6,0.7c1.5,0.5,2.8,1,3.9,1.7l-1.9,2.9c-0.9-0.6-2-1.1-3.4-1.5
				s-2.8-0.6-4.2-0.6c-2.3,0-3.9,0.3-4.8,0.9c-1,0.6-1.4,1.6-1.4,3c0,0.7,0.2,1.3,0.5,1.8c0.3,0.5,0.8,0.9,1.4,1.2s1.3,0.6,2.2,0.8
				c0.9,0.2,1.9,0.4,3,0.6c1.5,0.2,2.8,0.5,4,0.8c1.2,0.3,2.3,0.7,3.2,1.2c0.9,0.5,1.6,1.2,2.1,2.1c0.5,0.9,0.7,2,0.7,3.4
				c0,2.6-0.8,4.6-2.5,5.9C649.9,160.8,647.2,161.4,643.4,161.4z"/>
			<path d="M667.3,161.4c-2,0-3.6-0.3-4.9-0.8c-1.3-0.5-2.2-1.3-2.9-2.2c-0.7-0.9-1.2-2-1.4-3.3c-0.2-1.2-0.4-2.6-0.4-4
				s0.1-2.7,0.4-4s0.7-2.3,1.4-3.2s1.7-1.6,2.9-2.2c1.2-0.5,2.8-0.8,4.8-0.8c2,0,3.6,0.3,4.7,1c1.1,0.6,1.9,1.5,2.5,2.6
				c0.5,1.1,0.9,2.3,1,3.7c0.1,1.4,0.1,2.8,0.1,4.3h-14.5c0,0.9,0.2,1.7,0.4,2.4c0.2,0.7,0.6,1.4,1,1.9c0.5,0.5,1.1,0.9,1.9,1.2
				c0.8,0.3,1.8,0.4,3,0.4c0.8,0,1.5,0,2.1-0.1s1.1-0.2,1.6-0.4c0.5-0.2,0.9-0.4,1.3-0.6c0.4-0.2,0.8-0.5,1.2-0.8l1.8,2.4
				c-1.1,0.8-2.2,1.4-3.4,1.9C670.7,161.2,669.1,161.4,667.3,161.4z M667.1,144c-1.1,0-2.1,0.1-2.8,0.4c-0.7,0.3-1.3,0.6-1.8,1.1
				c-0.5,0.5-0.8,1.1-1,1.7c-0.2,0.7-0.4,1.4-0.4,2.3h11.2c0-0.8-0.1-1.5-0.2-2.2c-0.1-0.7-0.3-1.3-0.7-1.7
				c-0.3-0.5-0.8-0.9-1.5-1.2S668.3,144,667.1,144z"/>
			<path d="M688.4,161.4c-1.9,0-3.4-0.2-4.7-0.7c-1.2-0.5-2.2-1.2-2.9-2.1c-0.7-0.9-1.2-2-1.5-3.2c-0.3-1.3-0.4-2.6-0.4-4.1
				c0-1.5,0.1-2.9,0.4-4.2c0.3-1.2,0.8-2.3,1.5-3.2c0.7-0.9,1.7-1.6,3-2.1c1.2-0.5,2.8-0.7,4.8-0.7c1.8,0,3.2,0.3,4.4,0.8
				c1.2,0.5,2.1,1.2,2.9,2.1l-2.5,2.4c-0.5-0.5-1.1-0.9-1.8-1.3c-0.7-0.4-1.7-0.6-3-0.6c-1.2,0-2.2,0.2-3,0.5
				c-0.8,0.3-1.5,0.8-1.9,1.4c-0.5,0.6-0.8,1.3-1,2.2c-0.2,0.9-0.3,1.8-0.3,3c0,1.1,0.1,2.1,0.3,3c0.2,0.9,0.5,1.6,1,2.2
				c0.5,0.6,1.1,1.1,1.9,1.4s1.8,0.5,3,0.5c1.1,0,2-0.2,2.7-0.5c0.8-0.3,1.5-0.8,2.3-1.5l2.3,2.2c-0.5,0.5-1,0.9-1.5,1.2
				c-0.5,0.4-1.1,0.7-1.6,0.9c-0.6,0.2-1.2,0.4-1.9,0.6C690,161.3,689.2,161.4,688.4,161.4z"/>
			<path d="M699.8,141.6l2.7-0.2l0.4,2.4c0.4-0.7,1.2-1.3,2.3-1.8c1.1-0.5,2.6-0.8,4.3-0.8v3.5c-1.2,0-2.2,0.2-3,0.5
				c-0.8,0.3-1.4,0.7-1.9,1.3s-0.8,1.2-1,1.9c-0.2,0.7-0.3,1.6-0.3,2.5v10.3h-3.5V141.6z"/>
			<path d="M721.6,161.4c-2,0-3.6-0.3-4.9-0.8c-1.3-0.5-2.2-1.3-2.9-2.2c-0.7-0.9-1.2-2-1.4-3.3c-0.2-1.2-0.4-2.6-0.4-4
				s0.1-2.7,0.4-4s0.7-2.3,1.4-3.2s1.7-1.6,2.9-2.2c1.2-0.5,2.8-0.8,4.8-0.8c2,0,3.6,0.3,4.7,1c1.1,0.6,1.9,1.5,2.5,2.6
				c0.5,1.1,0.9,2.3,1,3.7c0.1,1.4,0.1,2.8,0.1,4.3h-14.5c0,0.9,0.2,1.7,0.4,2.4c0.2,0.7,0.6,1.4,1,1.9c0.5,0.5,1.1,0.9,1.9,1.2
				c0.8,0.3,1.8,0.4,3,0.4c0.8,0,1.5,0,2.1-0.1s1.1-0.2,1.6-0.4c0.5-0.2,0.9-0.4,1.3-0.6c0.4-0.2,0.8-0.5,1.2-0.8l1.8,2.4
				c-1.1,0.8-2.2,1.4-3.4,1.9C725,161.2,723.4,161.4,721.6,161.4z M721.4,144c-1.1,0-2.1,0.1-2.8,0.4c-0.7,0.3-1.3,0.6-1.8,1.1
				c-0.5,0.5-0.8,1.1-1,1.7c-0.2,0.7-0.4,1.4-0.4,2.3h11.2c0-0.8-0.1-1.5-0.2-2.2c-0.1-0.7-0.3-1.3-0.7-1.7
				c-0.3-0.5-0.8-0.9-1.5-1.2S722.6,144,721.4,144z"/>
			<path d="M732.5,141.4h3.6l0.6-5.6l2.7-0.5v6.1h5.2v3.1h-5.2v10.7c0,0.4,0,0.8,0.1,1.2c0,0.4,0.2,0.6,0.4,0.9
				c0.2,0.2,0.5,0.4,0.8,0.5c0.4,0.1,0.9,0.2,1.6,0.2h2.4v3c-0.1,0-0.3,0-0.6,0s-0.6,0-0.9,0c-0.3,0-0.6,0-0.9,0s-0.5,0-0.6,0
				c-1.2,0-2.1-0.1-2.8-0.3c-0.7-0.2-1.3-0.6-1.7-1s-0.7-1-0.9-1.7s-0.2-1.5-0.2-2.4v-11.1h-3.5V141.4z"/>
			<path d="M754.7,161.4c-1.4,0-2.6-0.2-3.5-0.5c-0.9-0.3-1.6-0.7-2.2-1.3c-0.5-0.5-0.9-1.2-1.1-1.9c-0.2-0.7-0.3-1.5-0.3-2.3
				c0-1.4,0.2-2.5,0.7-3.5c0.4-0.9,1.2-1.7,2.2-2.2c1-0.6,2.3-0.9,4-1.2c1.7-0.2,3.7-0.3,6.2-0.3h1.1c0-0.7-0.1-1.3-0.2-1.8
				c-0.1-0.5-0.4-0.9-0.7-1.3c-0.4-0.3-0.8-0.6-1.5-0.7c-0.6-0.2-1.5-0.2-2.5-0.2c-1.2,0-2.4,0.2-3.4,0.5c-1,0.4-1.8,0.7-2.4,1.1
				l-1.8-2.7c0.3-0.2,0.8-0.4,1.3-0.7c0.5-0.3,1.2-0.5,1.8-0.7c0.7-0.2,1.4-0.4,2.2-0.5c0.8-0.1,1.7-0.2,2.5-0.2
				c1.7,0,3,0.1,4.1,0.4c1,0.3,1.8,0.8,2.4,1.4c0.6,0.6,0.9,1.5,1.1,2.5c0.2,1,0.3,2.2,0.3,3.6v7c0,0.5,0,0.9,0.1,1.1
				c0,0.3,0.1,0.5,0.2,0.7c0.1,0.2,0.3,0.3,0.6,0.3c0.3,0,0.6,0.1,1.1,0.1v3c-0.1,0-0.3,0.1-0.5,0.1c-0.2,0-0.5,0-0.9,0
				c-1.1,0-1.8-0.2-2.3-0.5c-0.4-0.3-0.8-0.9-1.1-1.7c-0.6,0.8-1.5,1.5-2.6,1.9C758.4,161.2,756.8,161.4,754.7,161.4z M755.2,158.4
				c2.3,0,3.9-0.5,4.9-1.4c1-1,1.5-2.5,1.5-4.6v-1.2h-0.9c-2,0-3.7,0.1-5,0.2c-1.3,0.1-2.3,0.3-3,0.7c-0.7,0.3-1.2,0.7-1.5,1.2
				c-0.3,0.5-0.4,1.2-0.4,1.9c0,1,0.3,1.8,0.9,2.4C752.4,158.2,753.6,158.4,755.2,158.4z"/>
			<path d="M770.9,141.6l2.7-0.2l0.4,2.4c0.4-0.7,1.2-1.3,2.3-1.8c1.1-0.5,2.6-0.8,4.3-0.8v3.5c-1.2,0-2.2,0.2-3,0.5
				c-0.8,0.3-1.4,0.7-1.9,1.3s-0.8,1.2-1,1.9c-0.2,0.7-0.3,1.6-0.3,2.5v10.3h-3.5V141.6z"/>
			<path d="M784.2,134.9h3.5v4.2h-3.5V134.9z M784.2,141.4h3.4v19.6h-3.4V141.4z"/>
			<path d="M798.8,161.4c-1.4,0-2.6-0.2-3.5-0.5c-0.9-0.3-1.6-0.7-2.2-1.3c-0.5-0.5-0.9-1.2-1.1-1.9c-0.2-0.7-0.3-1.5-0.3-2.3
				c0-1.4,0.2-2.5,0.7-3.5c0.4-0.9,1.2-1.7,2.2-2.2c1-0.6,2.3-0.9,4-1.2c1.7-0.2,3.7-0.3,6.2-0.3h1.1c0-0.7-0.1-1.3-0.2-1.8
				c-0.1-0.5-0.4-0.9-0.7-1.3c-0.4-0.3-0.8-0.6-1.5-0.7c-0.6-0.2-1.5-0.2-2.5-0.2c-1.2,0-2.4,0.2-3.4,0.5c-1,0.4-1.8,0.7-2.4,1.1
				l-1.8-2.7c0.3-0.2,0.8-0.4,1.3-0.7c0.5-0.3,1.2-0.5,1.8-0.7c0.7-0.2,1.4-0.4,2.2-0.5c0.8-0.1,1.7-0.2,2.5-0.2
				c1.7,0,3,0.1,4.1,0.4c1,0.3,1.8,0.8,2.4,1.4c0.6,0.6,0.9,1.5,1.1,2.5c0.2,1,0.3,2.2,0.3,3.6v7c0,0.5,0,0.9,0.1,1.1
				c0,0.3,0.1,0.5,0.2,0.7c0.1,0.2,0.3,0.3,0.6,0.3c0.3,0,0.6,0.1,1.1,0.1v3c-0.1,0-0.3,0.1-0.5,0.1c-0.2,0-0.5,0-0.9,0
				c-1.1,0-1.8-0.2-2.3-0.5c-0.4-0.3-0.8-0.9-1.1-1.7c-0.6,0.8-1.5,1.5-2.6,1.9C802.5,161.2,800.9,161.4,798.8,161.4z M799.3,158.4
				c2.3,0,3.9-0.5,4.9-1.4c1-1,1.5-2.5,1.5-4.6v-1.2h-0.9c-2,0-3.7,0.1-5,0.2c-1.3,0.1-2.3,0.3-3,0.7c-0.7,0.3-1.2,0.7-1.5,1.2
				c-0.3,0.5-0.4,1.2-0.4,1.9c0,1,0.3,1.8,0.9,2.4C796.5,158.2,797.6,158.4,799.3,158.4z"/>
			<path d="M830.6,161.4c-1.6,0-3-0.3-4.1-0.8c-1.1-0.5-1.9-1.2-2.6-2.1c-0.6-0.9-1.1-2-1.4-3.2s-0.4-2.6-0.4-4.1
				c0-1.5,0.1-2.8,0.4-4.1c0.3-1.2,0.7-2.3,1.4-3.2c0.6-0.9,1.5-1.6,2.6-2.1c1.1-0.5,2.5-0.7,4.1-0.7c2.1,0,3.6,0.2,4.7,0.6
				c1.1,0.4,1.8,1,2.3,1.8v-9.7h3.5v27.2l-2.6,0.2l-0.4-2.3c-0.6,0.9-1.5,1.5-2.7,1.9S832.7,161.4,830.6,161.4z M831.3,158.3
				c1.2,0,2.1-0.1,3-0.4c0.8-0.3,1.5-0.7,2-1.2s0.9-1.3,1.1-2.2s0.4-2,0.4-3.3s-0.1-2.4-0.3-3.3s-0.6-1.6-1.1-2.1
				c-0.5-0.5-1.2-0.9-2-1.2c-0.8-0.2-1.8-0.4-3-0.4c-1.1,0-2.1,0.2-2.8,0.5s-1.3,0.8-1.8,1.4s-0.7,1.3-0.9,2.2
				c-0.2,0.9-0.2,1.8-0.2,2.9c0,1.1,0.1,2.1,0.2,2.9c0.2,0.9,0.5,1.6,0.9,2.2c0.4,0.6,1,1.1,1.8,1.4S830.2,158.3,831.3,158.3z"/>
			<path d="M854.9,161.4c-2,0-3.6-0.3-4.9-0.8c-1.3-0.5-2.2-1.3-2.9-2.2c-0.7-0.9-1.2-2-1.4-3.3c-0.2-1.2-0.4-2.6-0.4-4
				s0.1-2.7,0.4-4s0.7-2.3,1.4-3.2s1.7-1.6,2.9-2.2c1.2-0.5,2.8-0.8,4.8-0.8c2,0,3.6,0.3,4.7,1c1.1,0.6,1.9,1.5,2.5,2.6
				c0.5,1.1,0.9,2.3,1,3.7c0.1,1.4,0.1,2.8,0.1,4.3h-14.5c0,0.9,0.2,1.7,0.4,2.4c0.2,0.7,0.6,1.4,1,1.9c0.5,0.5,1.1,0.9,1.9,1.2
				c0.8,0.3,1.8,0.4,3,0.4c0.8,0,1.5,0,2.1-0.1s1.1-0.2,1.6-0.4c0.5-0.2,0.9-0.4,1.3-0.6c0.4-0.2,0.8-0.5,1.2-0.8l1.8,2.4
				c-1.1,0.8-2.2,1.4-3.4,1.9C858.3,161.2,856.8,161.4,854.9,161.4z M854.8,144c-1.1,0-2.1,0.1-2.8,0.4c-0.7,0.3-1.3,0.6-1.8,1.1
				c-0.5,0.5-0.8,1.1-1,1.7c-0.2,0.7-0.4,1.4-0.4,2.3h11.2c0-0.8-0.1-1.5-0.2-2.2c-0.1-0.7-0.3-1.3-0.7-1.7
				c-0.3-0.5-0.8-0.9-1.5-1.2S855.9,144,854.8,144z"/>
			<path d="M631.7,196.8l2.9-4.2c2.8,1.9,6,2.8,9.4,2.8c5.1,0,6.1-1,6.1-3.2c0-2.2-2.2-2.6-6.2-3.1c-7-1-10.6-2.3-10.6-7.9
				c0-5.8,3.5-7.9,10.9-7.9c5.3,0,8.6,1.2,10.6,2.6l-3.1,4.5c-1.7-1.1-4.7-2-7.5-2c-4.1,0-5.1,0.8-5.1,2.7c0,2.1,2.2,2.5,6.3,3.1
				c6.3,0.9,10.5,1.9,10.5,7.8c0,5.3-2.9,8.3-11.6,8.3C638.9,200.2,634.6,199,631.7,196.8z"/>
			<path d="M658.3,189.8c0-5.6,1.8-10.4,10.4-10.4c8.8,0,9.1,5.9,8.9,12.5h-13.9c0.3,2.4,1.5,3.8,5,3.8c3.1,0,4.8-0.7,6.3-1.8
				l2.8,3.6c-2.6,1.9-5.1,2.7-9.1,2.7C660,200.2,658.3,195.5,658.3,189.8z M663.6,188h8.9c-0.1-2.3-0.6-4-4-4S663.9,185.6,663.6,188
				z"/>
			<path d="M687.3,192.4c-0.1,0.2-0.2,0.5-0.2,0.7c0,1,0.6,1.1,3.3,1.1c8.3,0,10.3,1.2,10.3,5.5c0,4.8-3.5,6.5-10.9,6.5
				c-7.6,0-10.4-0.8-10.4-4.9c0-2.3,1.2-3.9,3.9-4.5c-1.1-0.7-1.2-1.8-1.2-2.8c0-1.1,0.3-2,1-2.8c-1.8-1-2.6-2.7-2.6-5
				c0-4.4,2.7-6.8,9.3-6.8c0.4,0,0.7,0,1.1,0l8.9-1.8v4.2H697c1.4,0.8,2.2,2,2.2,4.3c0,4.4-2.8,6.3-9.3,6.3
				C689,192.5,688.1,192.5,687.3,192.4z M695.1,200.1c0-1.4-1.1-1.8-5-1.8c-4.4,0-5,0.7-5,2.1c0,1.4,1,2,5,2
				S695.1,201.6,695.1,200.1z M693.8,186.3c0-1.7-1-2.6-3.9-2.6c-3,0-3.9,0.8-3.9,2.6c0,1.7,0.9,2.6,3.9,2.6
				C692.9,188.9,693.8,188,693.8,186.3z"/>
			<path d="M703.9,190.5v-10.7h5.5v10.8c0,2.8,0.1,4.7,4,4.7c3.9,0,4-2,4-4.8v-10.7h5.4v10.6c0,6.8-1.8,9.7-9.5,9.7
				S703.9,197.4,703.9,190.5z"/>
			<path d="M727.2,180.2l4.3-0.3l0.6,2.2c0.8-1.3,3.3-2.3,6.4-2.4v5.3c-4.7,0-5.7,1.9-5.7,5v9.9h-5.5V180.2z"/>
			<path d="M740.1,194c0-5.6,4-7,12.8-7h0.8c0-1.8-0.5-2.7-4-2.7c-2.4,0-4.6,0.9-5.8,1.6l-2.8-4.1c1.4-1,4.9-2.4,9.1-2.4
				c7.2,0,8.7,2.3,8.7,7.9v6.1c0,1.6,0.1,1.8,1.7,1.8v4.5c-0.4,0.1-1.1,0.1-2.3,0.1c-2.1,0-3-0.4-3.8-2c-1,1.4-3.2,2.2-7,2.2
				C741.5,200.2,740.1,197.5,740.1,194z M753.8,191.6v-0.7h-0.5c-7.1,0-7.9,0.6-7.9,2.7c0,1.5,0.8,2.2,3.4,2.2
				C752.2,195.7,753.8,194.5,753.8,191.6z"/>
			<path d="M764.2,180.2l4.3-0.3l0.5,1.7c1.1-1.2,3-2.2,7.2-2.2c6,0,7.2,3.4,7.2,8.3v12.1h-5.5v-11c0-2.4-0.3-4.2-3.6-4.2
				c-3.8,0-4.5,1.8-4.5,4.4v10.8h-5.5V180.2z"/>
			<path d="M791,207.5l1.4-2.6c1.1,0.5,2.2,0.8,3.1,0.8c1.7,0,2.2-0.4,2.2-1.4c0-1.2-1.3-1.4-3.1-1.2l-1.1-0.7l0.5-2.4
				c-6-0.9-7.5-5-7.5-10.1c0-5.8,1.9-10.4,10.5-10.4c3.6,0,6.3,1.2,8.1,3.2l-3.9,3.7c-0.8-0.9-2-1.8-4.2-1.8c-4,0-4.9,2.2-4.9,5.5
				s0.9,5.5,4.9,5.5c1.9,0,3.1-0.6,4.5-1.9l3.5,3.4c-2.3,2.1-4.2,3.1-8,3.2l-0.2,1.2c2.2-0.1,4.4,0.1,4.4,3.4c0,3-2.2,4-5.6,4
				C793.8,208.6,792.3,208.2,791,207.5z"/>
			<path d="M807,194c0-5.6,4-7,12.8-7h0.8c0-1.8-0.5-2.7-4-2.7c-2.4,0-4.6,0.9-5.8,1.6l-2.8-4.1c1.4-1,4.9-2.4,9.1-2.4
				c7.2,0,8.7,2.3,8.7,7.9v6.1c0,1.6,0.1,1.8,1.7,1.8v4.5c-0.4,0.1-1.1,0.1-2.3,0.1c-2.1,0-3-0.4-3.8-2c-1,1.4-3.2,2.2-7,2.2
				C808.3,200.2,807,197.5,807,194z M820.6,191.6v-0.7h-0.5c-7.1,0-7.9,0.6-7.9,2.7c0,1.5,0.8,2.2,3.4,2.2
				C819.1,195.7,820.6,194.5,820.6,191.6z"/>
			<path d="M633.5,212.5h12.6c8,0,10.4,3.4,10.4,8.7s-2.3,9.4-10.7,9.4h-6.6v8h-5.6V212.5z M646,225.7c3.3,0,4.7-1.1,4.7-4.2
				c0-3.1-1.3-4.1-4.8-4.1h-6.8v8.3H646z"/>
			<path d="M659.8,229.3v-10.7h5.5v10.8c0,2.8,0.1,4.7,4,4.7c3.9,0,4-2,4-4.8v-10.7h5.4v10.6c0,6.8-1.8,9.7-9.5,9.7
				S659.8,236.2,659.8,229.3z M670.6,210.3h6.7l-6.7,6.5h-4.9L670.6,210.3z"/>
			<path d="M687.8,236.9l-1.1,1.9l-3.7-0.4v-27.2h5.5v8.9c1.1-1.3,3.2-1.9,6.5-1.9c6.9,0,8.6,4.7,8.6,10.4c0,5.8-1.8,10.3-8.9,10.3
				C690.9,239,688.9,238.2,687.8,236.9z M698,228.9c0-3.2-0.7-5.6-4.3-5.6c-3.8,0-5.1,1.8-5.1,5.6c0,3.8,1.1,5.5,5.1,5.5
				C697.2,234.3,698,232,698,228.9z"/>
			<path d="M707.3,232.6v-21.3h5.5V232c0,1.6,0.3,2.1,2,2.1c0.1,0,0.5,0,0.7,0v4.6c-0.5,0.1-1.6,0.1-2.7,0.1
				C709.1,238.7,707.3,237.4,707.3,232.6z"/>
			<path d="M719.3,211.8h5.6v5h-5.6V211.8z M719.3,218.7h5.5v20h-5.5V218.7z"/>
			<path d="M728.5,228.6c0-5.8,1.9-10.4,10.5-10.4c3.6,0,6.3,1.2,8.1,3.2l-3.9,3.7c-0.8-0.9-2-1.8-4.2-1.8c-4,0-4.9,2.2-4.9,5.5
				s0.9,5.5,4.9,5.5c1.9,0,3.1-0.6,4.5-1.9l3.5,3.4c-2.3,2.2-4.3,3.2-8.3,3.2C730.4,239,728.5,234.5,728.5,228.6z"/>
			<path d="M748.8,232.8c0-5.6,4-7,12.8-7h0.8c0-1.8-0.5-2.7-4-2.7c-2.4,0-4.6,0.9-5.8,1.6l-2.8-4.1c1.4-1,4.9-2.4,9.1-2.4
				c7.2,0,8.7,2.3,8.7,7.9v6.1c0,1.6,0.1,1.8,1.7,1.8v4.5c-0.4,0.1-1.1,0.1-2.3,0.1c-2.1,0-3-0.4-3.8-2c-1,1.4-3.2,2.2-7,2.2
				C750.2,239,748.8,236.3,748.8,232.8z M762.4,230.4v-0.7H762c-7.1,0-7.9,0.6-7.9,2.7c0,1.5,0.8,2.2,3.4,2.2
				C760.9,234.5,762.4,233.3,762.4,230.4z"/>
		</g>
	</g>
</g>
<g class="st15">
	<g class="st16">
		<g>
			<path class="st0" d="M217.2,285.5v-2.6h-8.7v2.6h2.4v9.6h-2.4v2.6h8.7v-2.6h-2.4v-9.6H217.2z M230.4,287.3
				c-0.7-0.7-1.6-1.1-2.9-1.1c-0.7,0-1.4,0.1-2,0.4c-0.6,0.3-1.2,0.6-1.8,1.1v-1.2h-3.6v11.2h3.6v-8c0.4-0.2,0.8-0.4,1.1-0.5
				c0.3-0.1,0.7-0.2,1-0.2c0.5,0,0.8,0.1,1.1,0.2c0.3,0.1,0.4,0.3,0.6,0.5c0.1,0.2,0.2,0.5,0.2,1c0,0.4,0.1,0.9,0.1,1.4v5.6h3.6
				v-7.3C231.4,289,231.1,288,230.4,287.3z M243.8,292.2c-0.4-0.5-1.1-0.9-2.1-1.2c-0.4-0.1-0.9-0.2-1.3-0.3
				c-0.4-0.1-0.8-0.1-1.2-0.2c-0.7-0.1-1.1-0.3-1.3-0.4c-0.2-0.1-0.3-0.3-0.3-0.6c0-0.3,0.2-0.5,0.6-0.7c0.4-0.2,0.9-0.3,1.5-0.3
				c0.7,0,1.4,0.1,2.1,0.3c0.7,0.2,1.3,0.5,1.8,0.9h0.3V287c-0.4-0.2-1-0.4-1.8-0.6c-0.8-0.2-1.6-0.2-2.4-0.2
				c-1.8,0-3.2,0.4-4.2,1.1c-1,0.7-1.5,1.6-1.5,2.7c0,0.8,0.2,1.6,0.7,2.1c0.5,0.6,1.3,1,2.3,1.2c0.4,0.1,0.8,0.2,1.2,0.3
				c0.5,0.1,0.8,0.1,1.1,0.2c0.6,0.1,0.9,0.2,1.2,0.4c0.2,0.1,0.3,0.3,0.3,0.6c0,0.3-0.2,0.5-0.5,0.7c-0.3,0.1-0.9,0.2-1.6,0.2
				c-0.5,0-1-0.1-1.5-0.2c-0.5-0.1-0.9-0.2-1.3-0.4c-0.4-0.2-0.8-0.3-1-0.5c-0.2-0.1-0.4-0.3-0.6-0.4H234v3c0.5,0.2,1.2,0.4,2,0.6
				c0.8,0.2,1.7,0.3,2.7,0.3c1.8,0,3.2-0.4,4.3-1.1c1-0.7,1.6-1.6,1.6-2.8C244.5,293.4,244.3,292.7,243.8,292.2z M254.1,289v-2.4
				h-3.4v-3.2h-3.6v3.2h-1.5v2.4h1.5v5.3c0,1.4,0.4,2.3,1,2.9c0.7,0.6,1.7,0.8,3.1,0.8c0.6,0,1.2,0,1.6-0.1c0.4-0.1,0.9-0.1,1.2-0.2
				v-2.5h-0.3c-0.1,0.1-0.3,0.1-0.6,0.2c-0.3,0.1-0.5,0.1-0.7,0.1c-0.5,0-0.8-0.1-1-0.2c-0.2-0.1-0.4-0.3-0.5-0.5
				c-0.1-0.2-0.2-0.5-0.2-0.8c0-0.3,0-0.6,0-1v-4H254.1z M256.2,286.5v11.2h3.6v-11.2H256.2z M256.1,282.2v2.7h3.8v-2.7H256.1z
				 M270.4,289v-2.4h-3.4v-3.2h-3.6v3.2H262v2.4h1.5v5.3c0,1.4,0.3,2.3,1,2.9c0.7,0.6,1.7,0.8,3.1,0.8c0.6,0,1.2,0,1.6-0.1
				c0.4-0.1,0.8-0.1,1.2-0.2v-2.5h-0.3c-0.1,0.1-0.3,0.1-0.6,0.2c-0.3,0.1-0.6,0.1-0.7,0.1c-0.4,0-0.8-0.1-1-0.2
				c-0.2-0.1-0.4-0.3-0.5-0.5c-0.1-0.2-0.2-0.5-0.2-0.8c0-0.3,0-0.6,0-1v-4H270.4z M280.2,286.5v8c-0.4,0.2-0.7,0.4-1.1,0.5
				c-0.4,0.1-0.7,0.2-1,0.2c-0.5,0-0.8-0.1-1.1-0.2c-0.3-0.1-0.5-0.3-0.6-0.5c-0.1-0.2-0.2-0.6-0.3-0.9c0-0.4,0-0.8,0-1.4v-5.6h-3.6
				v7.3c0,1.4,0.3,2.4,1,3.2c0.7,0.7,1.6,1.1,2.9,1.1c0.8,0,1.4-0.1,2-0.4c0.6-0.3,1.2-0.6,1.8-1.1v1.2h3.6v-11.2H280.2z M294.4,289
				v-2.4H291v-3.2h-3.6v3.2h-1.5v2.4h1.5v5.3c0,1.4,0.3,2.3,1,2.9c0.7,0.6,1.7,0.8,3.1,0.8c0.6,0,1.2,0,1.6-0.1
				c0.4-0.1,0.8-0.1,1.2-0.2v-2.5h-0.3c-0.1,0.1-0.3,0.1-0.6,0.2c-0.3,0.1-0.5,0.1-0.7,0.1c-0.4,0-0.8-0.1-1-0.2
				c-0.2-0.1-0.4-0.3-0.5-0.5c-0.1-0.2-0.1-0.5-0.2-0.8c0-0.3,0-0.6,0-1v-4H294.4z M306.5,287.8c-1.1-1.1-2.6-1.6-4.6-1.6
				c-1.9,0-3.4,0.5-4.5,1.6c-1.1,1.1-1.6,2.5-1.6,4.4c0,1.8,0.5,3.3,1.6,4.4c1.1,1.1,2.6,1.6,4.5,1.6c2,0,3.5-0.5,4.5-1.6
				c1.1-1.1,1.6-2.5,1.6-4.4C308,290.3,307.5,288.8,306.5,287.8z M304.1,293.8c-0.1,0.4-0.3,0.7-0.5,1c-0.2,0.3-0.5,0.4-0.8,0.6
				c-0.3,0.1-0.6,0.2-0.9,0.2c-0.4,0-0.7-0.1-1-0.2c-0.3-0.1-0.6-0.3-0.8-0.6c-0.2-0.3-0.4-0.6-0.5-1.1c-0.1-0.4-0.2-1-0.2-1.6
				c0-0.7,0.1-1.3,0.2-1.7c0.1-0.4,0.3-0.8,0.5-1.1c0.3-0.3,0.5-0.5,0.8-0.6c0.3-0.1,0.6-0.1,0.9-0.1c0.3,0,0.7,0.1,1,0.2
				c0.3,0.1,0.6,0.3,0.8,0.6c0.2,0.3,0.4,0.6,0.5,1.1c0.1,0.4,0.2,1,0.2,1.7C304.3,292.9,304.3,293.4,304.1,293.8z M325,282.2v4.8
				c-0.5-0.2-0.9-0.4-1.3-0.5c-0.4-0.1-1-0.2-1.7-0.2c-0.6,0-1.3,0.1-1.9,0.4c-0.6,0.3-1.2,0.7-1.6,1.2c-0.5,0.5-0.9,1.2-1.1,1.9
				c-0.3,0.7-0.4,1.6-0.4,2.5c0,1.8,0.4,3.2,1.2,4.3c0.8,1,1.9,1.6,3.3,1.6c0.7,0,1.3-0.1,1.9-0.4c0.5-0.2,1.1-0.6,1.7-1.1v1.2h3.6
				v-15.6H325z M325,294.7c-0.3,0.2-0.6,0.4-1,0.5c-0.4,0.1-0.7,0.2-1,0.2c-0.8,0-1.4-0.2-1.8-0.7c-0.4-0.5-0.6-1.3-0.6-2.4
				c0-1,0.2-1.9,0.7-2.5c0.5-0.6,1.2-0.9,2.1-0.9c0.2,0,0.5,0,0.8,0.1c0.3,0.1,0.5,0.1,0.8,0.2V294.7z M343.1,291.5
				c0-1.7-0.5-3.1-1.4-4c-0.9-0.9-2.3-1.4-4.1-1.4c-2,0-3.5,0.5-4.7,1.6c-1.1,1.1-1.7,2.6-1.7,4.4c0,1.9,0.6,3.3,1.8,4.3
				c1.2,1,2.9,1.5,5.2,1.5c0.9,0,1.7-0.1,2.4-0.2c0.7-0.1,1.5-0.4,2.3-0.7v-2.9h-0.4c-0.4,0.3-1,0.6-1.7,0.9
				c-0.7,0.3-1.4,0.4-2.2,0.4c-1.2,0-2.1-0.2-2.7-0.7c-0.6-0.5-0.9-1.1-1-2h8.3V291.5z M334.8,290.7c0.1-0.8,0.3-1.4,0.8-1.7
				c0.5-0.4,1-0.5,1.7-0.5c0.7,0,1.3,0.2,1.7,0.6c0.3,0.4,0.5,0.9,0.6,1.7H334.8z M220.2,315.5c-0.5-0.6-1.4-1.1-2.5-1.5
				c-0.6-0.2-1.1-0.3-1.6-0.4c-0.5-0.1-1-0.2-1.6-0.3c-0.8-0.2-1.4-0.4-1.7-0.6c-0.3-0.2-0.5-0.5-0.5-0.9c0-0.3,0.1-0.5,0.3-0.7
				c0.2-0.2,0.4-0.4,0.7-0.5c0.3-0.1,0.6-0.2,0.9-0.2c0.3,0,0.6-0.1,1-0.1c0.9,0,1.8,0.2,2.7,0.5c0.9,0.3,1.6,0.7,2.2,1.2h0.4v-3.4
				c-0.7-0.3-1.5-0.5-2.5-0.7c-1-0.2-1.9-0.3-2.9-0.3c-1.9,0-3.6,0.4-4.8,1.3c-1.2,0.9-1.9,2-1.9,3.4c0,1,0.3,1.9,0.8,2.6
				c0.5,0.7,1.4,1.2,2.7,1.7c0.6,0.2,1.1,0.3,1.8,0.4c0.6,0.1,1.2,0.2,1.8,0.4c0.5,0.1,0.9,0.3,1.2,0.5c0.3,0.2,0.4,0.5,0.4,0.9
				c0,0.4-0.1,0.6-0.3,0.8c-0.2,0.2-0.4,0.3-0.7,0.4c-0.3,0.1-0.6,0.2-0.9,0.2c-0.4,0-0.7,0.1-0.9,0.1c-0.9,0-1.9-0.2-2.8-0.5
				c-1-0.3-1.9-0.8-2.7-1.5h-0.4v3.6c0.8,0.3,1.7,0.6,2.6,0.8c0.9,0.2,2,0.3,3.2,0.3c2.1,0,3.8-0.5,5.1-1.4c1.2-0.9,1.9-2.1,1.9-3.6
				C221.1,317,220.8,316.1,220.2,315.5z M234.6,316.5c0-1.7-0.5-3.1-1.4-4c-0.9-0.9-2.3-1.4-4.1-1.4c-2,0-3.6,0.5-4.7,1.6
				c-1.1,1.1-1.7,2.6-1.7,4.4c0,1.9,0.6,3.3,1.8,4.3c1.2,1,2.9,1.5,5.2,1.5c0.9,0,1.7-0.1,2.4-0.2c0.7-0.1,1.5-0.4,2.3-0.7v-2.9H234
				c-0.4,0.3-1,0.6-1.7,0.9c-0.7,0.3-1.4,0.4-2.2,0.4c-1.2,0-2.1-0.2-2.7-0.7c-0.6-0.5-1-1.1-1-2h8.2V316.5z M226.3,315.6
				c0.1-0.8,0.3-1.4,0.8-1.7c0.4-0.4,1-0.5,1.7-0.5c0.8,0,1.3,0.2,1.7,0.6c0.4,0.4,0.5,0.9,0.6,1.7H226.3z M244.6,311.4l-0.1,0.5
				c-0.4-0.3-0.9-0.4-1.4-0.6c-0.5-0.1-1-0.2-1.7-0.2c-0.7,0-1.3,0.1-2,0.4c-0.6,0.3-1.2,0.6-1.6,1.1c-0.5,0.5-0.8,1.1-1.1,1.8
				c-0.3,0.7-0.4,1.5-0.4,2.4c0,1.9,0.4,3.4,1.3,4.3c0.8,1,2.1,1.4,3.6,1.4c0.7,0,1.2-0.1,1.8-0.3c0.5-0.2,1-0.5,1.4-0.8v0.2
				c0,0.5-0.1,0.9-0.1,1.2c-0.1,0.3-0.2,0.6-0.4,0.8c-0.2,0.2-0.5,0.4-1,0.5c-0.4,0.1-1,0.2-1.6,0.2c-0.5,0-1.1-0.1-1.7-0.2
				c-0.6-0.1-1.2-0.3-1.6-0.5h-0.4v2.8c0.6,0.1,1.2,0.2,2,0.3c0.8,0.1,1.5,0.1,2.3,0.1c1,0,1.8-0.1,2.6-0.3c0.8-0.2,1.4-0.5,2-0.9
				c0.6-0.4,1-1,1.3-1.7c0.3-0.7,0.4-1.6,0.4-2.7v-10H244.6z M244.5,319.1c-0.3,0.2-0.6,0.3-1,0.5c-0.3,0.1-0.7,0.2-1.1,0.2
				c-0.8,0-1.4-0.2-1.8-0.6c-0.4-0.4-0.6-1.2-0.6-2.3c0-1,0.2-1.7,0.7-2.3c0.5-0.5,1.2-0.8,2.1-0.8c0.2,0,0.5,0,0.8,0.1
				c0.3,0.1,0.6,0.1,0.8,0.2V319.1z M259.1,311.4v8c-0.4,0.2-0.7,0.4-1.1,0.5c-0.4,0.1-0.7,0.2-1,0.2c-0.5,0-0.8-0.1-1.1-0.2
				c-0.3-0.1-0.4-0.3-0.6-0.5c-0.1-0.2-0.2-0.6-0.3-0.9c0-0.4-0.1-0.8-0.1-1.4v-5.6h-3.6v7.3c0,1.4,0.3,2.4,1,3.2
				c0.7,0.7,1.6,1.1,2.9,1.1c0.8,0,1.4-0.1,2-0.4c0.6-0.3,1.2-0.6,1.8-1.2v1.2h3.6v-11.2H259.1z M273.8,311.4c-0.2,0-0.3,0-0.4,0
				c-0.5,0-1,0.1-1.6,0.3c-0.6,0.2-1.3,0.7-2.1,1.4v-1.7h-3.6v11.2h3.6v-7.5c0.4-0.2,0.9-0.3,1.3-0.3c0.4-0.1,0.9-0.1,1.4-0.1
				c0.2,0,0.5,0,0.9,0c0.3,0,0.6,0.1,0.7,0.1h0.3v-3.4C274.1,311.4,274,311.4,273.8,311.4z M285.3,312.1c-0.9-0.6-2.4-1-4.4-1
				c-0.9,0-1.7,0.1-2.6,0.2c-0.9,0.1-1.5,0.3-1.9,0.4v2.7h0.3c0.3-0.1,0.8-0.3,1.5-0.5c0.7-0.2,1.3-0.3,1.9-0.3c1,0,1.7,0.1,2.2,0.4
				c0.5,0.2,0.8,0.7,0.8,1.3v0.1c-1.1,0.1-2.1,0.2-3.1,0.3c-1,0.1-1.8,0.3-2.5,0.6c-0.7,0.3-1.2,0.7-1.6,1.2c-0.4,0.5-0.5,1.2-0.5,2
				c0,1,0.4,1.9,1.1,2.5c0.7,0.7,1.6,1,2.7,1c0.5,0,0.9,0,1.3-0.1c0.4-0.1,0.7-0.2,1.1-0.4c0.3-0.1,0.5-0.3,0.8-0.5
				c0.3-0.2,0.5-0.4,0.7-0.5v1.2h3.6V315C286.7,313.7,286.2,312.7,285.3,312.1z M283.1,319.8c-0.3,0.2-0.6,0.4-1,0.6
				c-0.4,0.1-0.7,0.2-1.1,0.2c-0.5,0-0.8,0-1-0.1c-0.2-0.1-0.4-0.2-0.6-0.3c-0.2-0.1-0.3-0.3-0.3-0.4c0-0.1-0.1-0.3-0.1-0.6
				c0-0.4,0.1-0.6,0.3-0.9c0.2-0.2,0.5-0.4,0.8-0.5c0.3-0.1,0.7-0.2,1.3-0.2c0.6-0.1,1.1-0.1,1.6-0.2V319.8z M300.2,312.2
				c-0.7-0.7-1.6-1.1-2.9-1.1c-0.7,0-1.4,0.1-2,0.4c-0.6,0.3-1.2,0.7-1.8,1.2v-1.2H290v11.2h3.6v-8c0.4-0.2,0.7-0.4,1.1-0.5
				c0.3-0.1,0.7-0.2,1-0.2c0.5,0,0.8,0.1,1.1,0.2c0.3,0.1,0.5,0.3,0.6,0.6c0.1,0.2,0.2,0.5,0.3,1c0,0.4,0.1,0.9,0.1,1.4v5.6h3.6
				v-7.3C301.3,313.9,300.9,312.9,300.2,312.2z M310.5,313.7c0.4,0,0.8,0,1.1,0.2c0.3,0.1,0.6,0.2,0.9,0.4c0.3,0.2,0.5,0.3,0.7,0.5
				c0.2,0.2,0.4,0.3,0.5,0.4h0.5V312c-0.6-0.3-1.2-0.5-1.8-0.7c-0.7-0.2-1.4-0.2-2.1-0.2c-0.8,0-1.7,0.1-2.5,0.3
				c-0.8,0.2-1.5,0.6-2.1,1c-0.6,0.5-1.1,1.1-1.5,1.9c-0.4,0.8-0.5,1.7-0.5,2.7c0,1,0.2,1.8,0.5,2.5c0.3,0.7,0.7,1.3,1.3,1.8
				c0.6,0.5,1.2,0.9,2,1.1c0.8,0.2,1.6,0.4,2.6,0.4v0.5c0,0.5-0.1,0.9-0.4,1.2c-0.3,0.3-0.7,0.4-1.2,0.4c-0.3,0-0.6,0-0.9-0.1
				c-0.3-0.1-0.5-0.2-0.7-0.2h-0.2v2c0.3,0.1,0.7,0.2,1.1,0.2c0.4,0,0.8,0,1,0c1.1,0,1.9-0.3,2.6-0.9c0.7-0.6,1-1.4,1-2.5
				c0-0.1,0-0.3,0-0.4c0-0.2,0-0.3,0-0.4c0.4-0.1,0.7-0.2,1-0.3c0.3-0.1,0.6-0.2,0.9-0.3V319h-0.5c-0.1,0.1-0.3,0.3-0.5,0.4
				c-0.2,0.1-0.4,0.3-0.6,0.4c-0.2,0.1-0.5,0.3-0.9,0.4c-0.4,0.1-0.8,0.1-1.2,0.1c-1,0-1.7-0.3-2.3-0.8c-0.5-0.6-0.8-1.4-0.8-2.5
				c0-1.1,0.3-1.9,0.8-2.5C308.8,314,309.5,313.7,310.5,313.7z M325.7,312.1c-0.9-0.6-2.4-1-4.5-1c-0.9,0-1.7,0.1-2.6,0.2
				c-0.9,0.1-1.5,0.3-1.9,0.4v2.7h0.3c0.3-0.1,0.8-0.3,1.4-0.5c0.7-0.2,1.3-0.3,1.9-0.3c1,0,1.7,0.1,2.2,0.4
				c0.5,0.2,0.8,0.7,0.8,1.3v0.1c-1,0.1-2.1,0.2-3.1,0.3c-1,0.1-1.8,0.3-2.5,0.6c-0.7,0.3-1.2,0.7-1.6,1.2c-0.4,0.5-0.5,1.2-0.5,2
				c0,1,0.4,1.9,1.1,2.5c0.7,0.7,1.6,1,2.7,1c0.4,0,0.9,0,1.3-0.1c0.4-0.1,0.7-0.2,1.1-0.4c0.3-0.1,0.5-0.3,0.8-0.5
				c0.3-0.2,0.5-0.4,0.7-0.5v1.2h3.6V315C327,313.7,326.6,312.7,325.7,312.1z M323.5,319.8c-0.3,0.2-0.6,0.4-1,0.6
				c-0.4,0.1-0.7,0.2-1.1,0.2c-0.5,0-0.8,0-1-0.1c-0.2-0.1-0.4-0.2-0.5-0.3c-0.2-0.1-0.3-0.3-0.3-0.4c0-0.1-0.1-0.3-0.1-0.6
				c0-0.4,0.1-0.6,0.3-0.9c0.2-0.2,0.5-0.4,0.8-0.5c0.3-0.1,0.7-0.2,1.3-0.2c0.6-0.1,1.1-0.1,1.6-0.2V319.8z M349.4,310.3
				c-0.3-0.6-0.8-1.1-1.4-1.5c-0.5-0.3-1.1-0.6-1.7-0.7c-0.7-0.2-1.5-0.2-2.4-0.2h-6.3v14.9h3.8v-4.9h2.4c1.1,0,2-0.1,2.7-0.4
				c0.7-0.3,1.4-0.8,2-1.3c0.4-0.4,0.8-1,1-1.6c0.2-0.6,0.3-1.3,0.3-2C349.9,311.6,349.7,310.9,349.4,310.3z M345.7,313.6
				c-0.1,0.3-0.3,0.6-0.5,0.8c-0.3,0.2-0.6,0.4-1.1,0.5c-0.4,0.1-1,0.1-1.6,0.1h-1.1v-4.5h0.7c0.6,0,1.1,0,1.5,0
				c0.4,0,0.8,0.1,1.2,0.3c0.3,0.1,0.6,0.3,0.8,0.6c0.2,0.3,0.3,0.7,0.3,1.1C345.9,313,345.8,313.4,345.7,313.6z M360,311.4v8
				c-0.4,0.2-0.7,0.4-1.1,0.5c-0.4,0.1-0.7,0.2-1,0.2c-0.5,0-0.8,0-1.1-0.2c-0.3-0.1-0.5-0.3-0.6-0.5c-0.1-0.2-0.2-0.6-0.3-0.9
				c0-0.4-0.1-0.8-0.1-1.4v-5.6h-3.6v7.3c0,1.4,0.3,2.4,1,3.2c0.7,0.7,1.6,1.1,2.9,1.1c0.8,0,1.4-0.1,2-0.4c0.6-0.3,1.2-0.6,1.8-1.2
				v1.2h3.6v-11.2H360z M357.7,305.9l-2.5,3.9h2.5l3.5-3.7v-0.2H357.7z M377.6,312.7c-0.8-1-1.9-1.5-3.3-1.5c-0.8,0-1.4,0.1-2,0.4
				c-0.6,0.3-1.1,0.6-1.7,1.1v-5.5H367v15.6h3.5l0.1-0.6c0.4,0.2,0.9,0.4,1.3,0.6c0.5,0.1,1,0.2,1.7,0.2c1.5,0,2.7-0.6,3.7-1.7
				c1-1.1,1.5-2.6,1.5-4.3C378.7,315.1,378.4,313.7,377.6,312.7z M374.3,319.5c-0.5,0.6-1.2,0.9-2.1,0.9c-0.3,0-0.6,0-0.8-0.1
				c-0.2,0-0.5-0.1-0.7-0.2v-5.6c0.3-0.2,0.7-0.3,1-0.4c0.3-0.1,0.7-0.1,1-0.1c0.9,0,1.5,0.3,1.8,0.8c0.3,0.6,0.5,1.3,0.5,2.3
				C375,318.1,374.8,318.9,374.3,319.5z M381.3,307.1v15.6h3.6v-15.6H381.3z M388.4,311.4v11.2h3.6v-11.2H388.4z M388.3,307.1v2.7
				h3.8v-2.7H388.3z M401.3,313.7c0.4,0,0.8,0,1.1,0.2c0.3,0.1,0.6,0.2,0.9,0.3c0.3,0.2,0.5,0.3,0.7,0.5c0.2,0.2,0.4,0.3,0.5,0.4
				h0.5V312c-0.6-0.3-1.2-0.5-1.8-0.7c-0.7-0.2-1.4-0.2-2.1-0.2c-0.9,0-1.7,0.1-2.5,0.3c-0.8,0.2-1.5,0.6-2.1,1
				c-0.6,0.5-1.1,1.1-1.5,1.9c-0.4,0.8-0.5,1.7-0.5,2.7c0,1,0.2,1.9,0.5,2.6c0.3,0.7,0.8,1.4,1.4,1.9c0.6,0.5,1.3,0.8,2.1,1.1
				c0.8,0.2,1.7,0.4,2.7,0.4c0.7,0,1.4-0.1,2-0.2c0.6-0.2,1.2-0.4,1.8-0.6V319h-0.5c-0.1,0.1-0.3,0.3-0.5,0.4
				c-0.2,0.1-0.4,0.3-0.6,0.4c-0.2,0.1-0.5,0.3-0.9,0.4c-0.4,0.1-0.8,0.1-1.2,0.1c-1,0-1.7-0.3-2.3-0.8c-0.5-0.6-0.8-1.4-0.8-2.5
				c0-1.1,0.3-1.9,0.8-2.5C399.6,314,400.3,313.7,401.3,313.7z M416.5,312.1c-0.9-0.6-2.4-1-4.4-1c-0.9,0-1.7,0.1-2.6,0.2
				c-0.9,0.1-1.5,0.3-1.9,0.4v2.7h0.3c0.3-0.1,0.8-0.3,1.4-0.5c0.7-0.2,1.3-0.3,1.9-0.3c1,0,1.7,0.1,2.2,0.4
				c0.5,0.2,0.8,0.7,0.8,1.3v0.1c-1.1,0.1-2.1,0.2-3.1,0.3c-1,0.1-1.8,0.3-2.5,0.6c-0.7,0.3-1.2,0.7-1.6,1.2c-0.4,0.5-0.5,1.2-0.5,2
				c0,1,0.4,1.9,1.1,2.5c0.7,0.7,1.6,1,2.7,1c0.4,0,0.9,0,1.2-0.1c0.4-0.1,0.7-0.2,1.1-0.4c0.3-0.1,0.5-0.3,0.8-0.5
				c0.3-0.2,0.5-0.4,0.7-0.5v1.2h3.6V315C417.8,313.7,417.4,312.7,416.5,312.1z M414.3,319.8c-0.3,0.2-0.6,0.4-1,0.6
				c-0.4,0.1-0.7,0.2-1.1,0.2c-0.4,0-0.8,0-1-0.1c-0.2-0.1-0.4-0.2-0.6-0.3c-0.1-0.1-0.2-0.3-0.3-0.4c0-0.1-0.1-0.3-0.1-0.6
				c0-0.4,0.1-0.6,0.3-0.9c0.2-0.2,0.5-0.4,0.8-0.5c0.3-0.1,0.7-0.2,1.3-0.2c0.6-0.1,1.1-0.1,1.6-0.2V319.8z"/>
			<path class="st0" d="M116.8,289.9v-7H93.7v7h6.5v25.5h-6.5v7h23.1v-7h-6.5v-25.5H116.8z M154.5,303.3c-1.4-1.7-3.7-3-6.7-4
				c-1.5-0.5-3-0.9-4.3-1.2c-1.3-0.3-2.7-0.6-4.2-0.9c-2.2-0.4-3.7-1-4.5-1.5c-0.8-0.6-1.2-1.4-1.2-2.4c0-0.7,0.2-1.3,0.7-1.8
				c0.5-0.5,1.1-0.9,1.8-1.2c0.8-0.3,1.6-0.5,2.4-0.7c0.8-0.1,1.7-0.2,2.5-0.2c2.4,0,4.8,0.4,7.1,1.3c2.3,0.9,4.2,1.9,5.8,3.2h1.1
				v-9.1c-1.9-0.8-4.1-1.4-6.6-1.9c-2.5-0.5-5.1-0.7-7.7-0.7c-5.2,0-9.4,1.2-12.7,3.5c-3.3,2.3-4.9,5.3-4.9,9c0,2.7,0.7,5,2.2,6.9
				c1.5,1.8,3.8,3.3,7.2,4.4c1.5,0.5,3,0.9,4.6,1.2c1.7,0.3,3.2,0.6,4.7,1c1.4,0.3,2.5,0.8,3.2,1.4c0.7,0.6,1.1,1.4,1.1,2.2
				c0,0.9-0.2,1.7-0.8,2.1c-0.5,0.5-1.1,0.9-1.9,1.2c-0.6,0.3-1.4,0.4-2.5,0.5c-1,0.1-1.8,0.2-2.4,0.2c-2.4,0-4.9-0.4-7.5-1.3
				c-2.6-0.9-5-2.2-7.1-3.9h-1.1v9.5c2.1,0.9,4.4,1.6,6.8,2.2c2.4,0.6,5.3,0.9,8.5,0.9c5.6,0,10.1-1.2,13.4-3.6c3.3-2.4,5-5.6,5-9.5
				C156.7,307.2,155.9,305,154.5,303.3z M194.9,289.5c-0.8-1.6-2.1-3-3.6-4c-1.3-0.9-2.8-1.5-4.6-2c-1.7-0.4-3.8-0.6-6.3-0.6h-16.7
				v39.4h10.2v-12.8h6.3c2.9,0,5.3-0.4,7.2-1.2c1.9-0.8,3.7-2,5.3-3.5c1.2-1.2,2-2.6,2.6-4.3c0.6-1.7,0.9-3.4,0.9-5.2
				C196.2,293.1,195.8,291.1,194.9,289.5z M185.2,298.4c-0.3,0.8-0.8,1.5-1.4,2c-0.8,0.6-1.7,1.1-2.8,1.3c-1.1,0.2-2.6,0.3-4.3,0.3
				h-2.9v-11.8h1.7c1.7,0,3,0,4,0.1c1,0,2,0.3,3.1,0.7c0.8,0.3,1.5,0.9,2.1,1.7c0.6,0.8,0.9,1.8,0.9,2.9
				C185.7,296.7,185.5,297.7,185.2,298.4z"/>
		</g>
		<g>
			<g>
				<path class="st0" d="M384.3,211.9c0,1.8,0,3.7,0,5.5c-0.1,4.2,0.2,8.4-0.3,12.6c0.1-0.5-1-1.7-1.2-2.1c-0.5-0.8-1-1.6-1.6-2.3
					c-1-1.5-2.2-2.9-3.4-4.2c-2.5-2.7-5.4-5-8.2-7.5c-3.7-3.2-7.6-6.3-12-8.6c-4.8-2.5-10.2-3.6-15.6-2.4
					c-0.7-5.5-2.3-19.8-5.1-24.1c-3.6-5.7-8.5-10.2-14.7-13.5c-6.2-3.3-13.3-4.9-21.4-4.9c-5.9,0-10.8,0.7-14.6,2.2
					c-3.8,1.5-7,3.2-9.7,5.1c-2.6,1.9-5,3.6-7,5.1c-2,1.5-4.3,2.2-6.8,2.2h-29.1c-1.9,0-3.5-0.7-4.9-2.1c-0.5-0.5-1-1.1-1.3-1.7
					c0.7-0.8,1.4-1.5,2.1-2.3c7.5-8,13.3-16.5,17.2-25.2c4-8.9,6.1-18.7,6.1-29.2c0-13.4-3.1-25.6-9.3-36.4c-2-3.4-4.2-6.6-6.8-9.6
					l0.9-8.8c0.2-2.7,1.2-4.9,2.8-6.3c1.7-1.5,3.7-2.2,6-2.2h119c2.1,0,3.9,0.7,5.4,2.2c1.5,1.5,2.2,3.3,2.2,5.4v21.2
					c0,2.1-0.7,3.9-2.2,5.4c-1.5,1.5-3.3,2.2-5.4,2.2h-91.5l-5.1,51.6c3.8-2.5,8.9-5,15.2-7.3c6.3-2.3,15.1-3.5,26.3-3.5
					c10.1,0,19.8,1.6,29,4.9c9.2,3.3,17.4,8,24.5,14.2c7.2,6.2,12.8,13.7,16.9,22.5c0.1,0.2,0.2,0.4,0.2,0.5c1.3,3.3,1.6,7,1.9,10.4
					c0.5,5,0.7,10.1,0.8,15.1C384.2,201.4,384.3,206.7,384.3,211.9z"/>
			</g>
			<g>
				<path class="st0" d="M145.2,259.7c0.4,0.5,0.8,0.8,1.3,1c0.5,0.2,1.1,0.3,1.6,0.3c0.6,0,1.1-0.1,1.6-0.3c0.5-0.2,1-0.6,1.3-1
					c0.4-0.5,0.7-1.1,1-1.9c0.2-0.7,0.3-1.5,0.3-2.5c0-1-0.1-1.9-0.4-2.6c-0.2-0.7-0.5-1.3-0.9-1.8c-0.4-0.5-0.8-0.8-1.4-1
					c-0.5-0.2-1-0.3-1.6-0.3c-0.6,0-1.1,0.1-1.6,0.3c-0.5,0.2-1,0.5-1.4,1c-0.4,0.4-0.7,1-0.9,1.8c-0.2,0.8-0.4,1.6-0.4,2.6
					c0,1,0.1,1.9,0.4,2.6C144.5,258.6,144.8,259.2,145.2,259.7z"/>
				<polygon class="st0" points="104.5,257.3 108.7,257.3 106.6,251.1 				"/>
				<path class="st0" d="M204.3,180.9c7.2-6,13.6-12.1,19-17.9c1.6-1.7,3.1-3.5,4.6-5.3c4.6-5.7,8.4-11.6,11.1-17.6
					c3.5-7.7,5.3-16.3,5.3-25.6c0-11.8-2.7-22.6-8.1-32c-0.2-0.3-0.3-0.6-0.5-0.8c-5.3-8.9-13.3-16.2-23.7-21.5
					c-10.8-5.6-24.8-8.4-41.5-8.4c-11.8,0-22.6,1.9-31.9,5.7c-9.4,3.8-17.3,8.8-23.7,15.1c-6.4,6.2-11.3,13.4-14.7,21.3
					c-3.4,8-5.2,16.3-5.4,24.8c0,0.3,0.1,0.7,0.6,1.2c0.3,0.3,0.7,0.6,1.6,0.6h28.2c1.2,0,2.3-0.3,3.6-1c0.3-0.1,1-0.5,1.3-2.5
					c1.1-6.7,3.3-12.8,6.4-18.3c3.2-5.7,7.7-10.3,13.4-13.8c5.7-3.5,12.8-5.2,20.9-5.2c12.4,0,21.8,3.5,27.8,10.4
					c5.9,6.7,8.8,15.5,8.8,26c0,7.1-2.2,14.3-6.5,21.4c-4.1,6.8-10.7,14.3-19.5,22.2c-5.4,4.8-11.1,9.5-16.7,13.9
					c-2.1,1.7-4.3,3.4-6.4,5.2c-7.3,6-14,12.3-21.8,20.1l-38.9,38.7c-2.7,2.2-4.5,4.3-5.1,6.2c-0.8,2.1-1.2,3.9-1.2,5.3v16.1
					c0,0.9,0.3,1.6,0.9,2.3c0.7,0.7,1.3,0.9,2.3,0.9h82.2l52.8-25.9l-88,0.6l49.1-49.8C194.7,189.3,199.2,185.2,204.3,180.9z
					 M110.9,263.9l-1.2-3.5h-6.4l-1.2,3.5h-4.5l6.3-17.2h5.1l6.3,17.2H110.9z M134.8,263.9h-4.3l-7.3-11.8v11.8h-4.1v-17.2h5.3
					l6.3,9.8v-9.8h4.1V263.9z M160.7,258.8h0.5c0.9,0.7,1.9,1.3,3.1,1.7c1.1,0.4,2.2,0.6,3.3,0.6c0.3,0,0.6,0,1.1-0.1
					c0.4,0,0.8-0.1,1.1-0.2c0.3-0.1,0.6-0.3,0.8-0.5c0.2-0.2,0.3-0.5,0.3-0.9c0-0.4-0.2-0.7-0.5-1c-0.3-0.3-0.8-0.5-1.4-0.6
					c-0.6-0.2-1.3-0.3-2-0.4c-0.7-0.1-1.4-0.3-2-0.5c-1.4-0.5-2.5-1.1-3.1-1.9c-0.6-0.8-1-1.8-1-3c0-1.6,0.7-2.9,2.2-3.9
					c1.4-1,3.3-1.5,5.5-1.5c1.1,0,2.2,0.1,3.3,0.3c1.1,0.2,2.1,0.5,2.9,0.8v4h-0.5c-0.7-0.6-1.5-1-2.5-1.4c-1-0.4-2-0.6-3.1-0.6
					c-0.4,0-0.7,0-1.1,0.1c-0.4,0.1-0.7,0.1-1.1,0.3c-0.3,0.1-0.6,0.3-0.8,0.5c-0.2,0.2-0.3,0.5-0.3,0.8c0,0.5,0.2,0.8,0.5,1
					c0.3,0.2,1,0.5,2,0.7c0.6,0.1,1.2,0.3,1.8,0.4c0.6,0.1,1.2,0.3,1.9,0.5c1.3,0.4,2.3,1,2.9,1.8c0.6,0.7,0.9,1.7,0.9,2.9
					c0,1.7-0.7,3.1-2.1,4.1c-1.4,1.1-3.4,1.6-5.8,1.6c-1.4,0-2.7-0.1-3.7-0.4c-1.1-0.2-2-0.6-3-1V258.8z M141.7,248.8
					c1.6-1.6,3.7-2.4,6.5-2.4c2.8,0,4.9,0.8,6.5,2.4c1.6,1.6,2.4,3.8,2.4,6.5c0,2.7-0.8,4.9-2.4,6.5s-3.7,2.4-6.5,2.4
					c-2.8,0-4.9-0.8-6.5-2.4c-1.6-1.6-2.4-3.8-2.4-6.5C139.3,252.6,140.1,250.4,141.7,248.8z"/>
			</g>
			<path class="st1" d="M305.4,202.2c-17.9-6.6-32.2-14.3-32.3-14.4l1.4-2.5c0.1,0.1,14.3,7.7,32,14.2L305.4,202.2z"/>
			<g>
				<g>
					<path class="st2" d="M279.3,188.7c-1.4-2.5-3.2-5.6-6.1-5.8c-3.5-0.2-7.2,5.2-8.7,7.8c-9.6,16.4-19.2,32.9-26.7,50.3
						c15.3-6.6,37.3-14.8,56.1-16.4C288.8,210.1,283.4,196.3,279.3,188.7z"/>
					<path class="st2" d="M231.7,256.7c-1.5,4.4-2.9,8.9-5,13.1l81.2-0.4c-2.4-9.3-7.5-25.9-13.1-42c-19.6,1.5-43.4,10.8-58.7,17.5
						C234.6,248.8,233.1,252.7,231.7,256.7z"/>
				</g>
				<path class="st1" d="M344,211.6c-10.8-0.8-23.8-4-38.6-9.4l1-2.7c14.5,5.4,27.3,8.5,37.8,9.2L344,211.6z"/>
				<path class="st2" d="M183.4,270.7l36.5-18.4c0,0,52.7-27.9,84.9-25.2c0,0,25.9-18.6,41.1-20c15.2-1.4,31.8,20,31.8,20l37.9,43
					L183.4,270.7z"/>
			</g>
		</g>
	</g>
</g>
</svg>
