<svg width="247" height="247" viewBox="0 0 247 247" fill="none" xmlns="http://www.w3.org/2000/svg">
<path d="M104.785 171.729V170.405H100.417V171.729H101.638V176.546H100.417V177.865H104.785V176.546H103.564V171.729H104.785ZM111.392 172.616C111.054 172.269 110.576 172.09 109.965 172.09C109.606 172.09 109.277 172.157 108.982 172.292C108.687 172.42 108.378 172.614 108.06 172.866V172.244H106.258V177.87H108.06V173.881C108.259 173.771 108.44 173.684 108.609 173.63C108.78 173.572 108.945 173.55 109.108 173.55C109.338 173.55 109.519 173.577 109.645 173.639C109.773 173.694 109.869 173.783 109.94 173.913C109.997 174.014 110.036 174.178 110.059 174.407C110.079 174.631 110.096 174.86 110.096 175.089V177.874H111.905V174.217C111.905 173.513 111.74 172.98 111.39 172.623L111.392 172.616ZM118.114 175.089C117.89 174.826 117.54 174.634 117.066 174.508C116.851 174.455 116.634 174.414 116.426 174.375C116.213 174.339 116.017 174.307 115.829 174.265C115.497 174.197 115.285 174.128 115.198 174.057C115.106 173.989 115.058 173.886 115.058 173.751C115.058 173.604 115.159 173.49 115.356 173.412C115.555 173.332 115.804 173.287 116.094 173.287C116.442 173.287 116.785 173.346 117.13 173.458C117.471 173.577 117.78 173.728 118.045 173.911H118.198V172.488C117.983 172.39 117.684 172.299 117.297 172.214C116.909 172.134 116.506 172.09 116.088 172.09C115.2 172.09 114.493 172.269 113.986 172.63C113.471 172.982 113.217 173.435 113.217 173.975C113.217 174.396 113.336 174.75 113.583 175.029C113.83 175.311 114.214 175.526 114.722 175.654C114.91 175.702 115.12 175.745 115.344 175.784C115.575 175.823 115.756 175.85 115.889 175.882C116.168 175.942 116.362 176.001 116.465 176.058C116.563 176.125 116.614 176.221 116.614 176.363C116.614 176.516 116.527 176.63 116.36 176.71C116.188 176.786 115.927 176.829 115.571 176.829C115.303 176.829 115.047 176.804 114.811 176.742C114.576 176.687 114.361 176.623 114.176 176.541C113.956 176.454 113.787 176.376 113.67 176.301C113.553 176.225 113.448 176.154 113.359 176.09H113.192V177.579C113.439 177.691 113.768 177.794 114.176 177.89C114.585 177.977 115.035 178.03 115.536 178.03C116.442 178.03 117.156 177.847 117.677 177.492C118.201 177.138 118.457 176.671 118.457 176.084C118.457 175.69 118.345 175.359 118.116 175.089H118.114ZM123.251 173.465V172.241H121.56V170.634H119.758V172.241H119.015V173.465H119.758V176.1C119.758 176.781 119.934 177.271 120.273 177.556C120.614 177.835 121.137 177.98 121.837 177.98C122.155 177.98 122.416 177.964 122.633 177.938C122.853 177.904 123.058 177.865 123.248 177.819V176.582H123.1C123.04 176.612 122.937 176.651 122.779 176.692C122.631 176.731 122.51 176.749 122.416 176.749C122.185 176.749 122.013 176.719 121.894 176.648C121.775 176.584 121.691 176.488 121.647 176.374C121.597 176.255 121.57 176.127 121.567 175.976C121.563 175.832 121.558 175.658 121.558 175.459V173.465H123.248H123.251ZM124.33 172.241V177.867H126.132V172.241H124.33ZM124.28 170.073V171.439H126.183V170.073H124.28ZM131.436 173.465V172.241H129.746V170.634H127.944V172.241H127.2V173.465H127.944V176.1C127.944 176.781 128.115 177.271 128.456 177.556C128.797 177.835 129.323 177.98 130.02 177.98C130.336 177.98 130.597 177.964 130.821 177.938C131.038 177.904 131.244 177.865 131.436 177.819V176.582H131.287C131.225 176.612 131.118 176.651 130.967 176.692C130.816 176.731 130.69 176.749 130.599 176.749C130.375 176.749 130.196 176.719 130.082 176.648C129.963 176.584 129.878 176.488 129.835 176.374C129.785 176.255 129.757 176.127 129.753 175.976C129.753 175.832 129.748 175.658 129.748 175.459V173.465H131.438H131.436ZM136.316 172.241V176.237C136.14 176.344 135.964 176.424 135.774 176.481C135.589 176.539 135.415 176.568 135.262 176.568C135.033 176.568 134.857 176.541 134.727 176.481C134.594 176.424 134.5 176.337 134.434 176.212C134.366 176.09 134.324 175.935 134.304 175.745C134.29 175.558 134.279 175.322 134.279 175.034V172.241H132.465V175.905C132.465 176.605 132.63 177.131 132.966 177.49C133.304 177.845 133.782 178.028 134.4 178.028C134.786 178.028 135.118 177.959 135.397 177.824C135.671 177.696 135.973 177.502 136.312 177.25V177.865H138.114V172.239H136.312L136.316 172.241ZM143.424 173.465V172.241H141.734V170.634H139.932V172.241H139.184V173.465H139.932V176.1C139.932 176.781 140.104 177.271 140.447 177.556C140.785 177.835 141.307 177.98 142.009 177.98C142.324 177.98 142.594 177.964 142.809 177.938C143.022 177.904 143.23 177.865 143.427 177.819V176.582H143.274C143.214 176.612 143.111 176.651 142.953 176.692C142.805 176.731 142.679 176.749 142.587 176.749C142.363 176.749 142.185 176.719 142.073 176.648C141.949 176.584 141.869 176.488 141.819 176.374C141.771 176.255 141.744 176.127 141.739 175.976C141.739 175.832 141.739 175.658 141.739 175.459V173.465H143.429H143.424ZM149.451 172.87C148.916 172.335 148.156 172.065 147.171 172.065C146.185 172.065 145.449 172.333 144.904 172.863C144.36 173.396 144.088 174.128 144.088 175.057C144.088 175.985 144.36 176.712 144.897 177.243C145.433 177.776 146.194 178.046 147.168 178.046C148.143 178.046 148.904 177.776 149.444 177.243C149.981 176.71 150.249 175.981 150.249 175.057C150.249 174.133 149.986 173.403 149.449 172.87H149.451ZM148.294 175.905C148.234 176.111 148.15 176.28 148.031 176.427C147.93 176.557 147.8 176.648 147.653 176.708C147.502 176.761 147.347 176.786 147.184 176.786C146.992 176.786 146.825 176.761 146.674 176.696C146.523 176.637 146.398 176.539 146.29 176.411C146.18 176.276 146.098 176.093 146.043 175.866C145.981 175.642 145.954 175.379 145.954 175.066C145.954 174.72 145.988 174.437 146.052 174.21C146.114 173.986 146.203 173.803 146.315 173.673C146.446 173.534 146.571 173.442 146.706 173.394C146.844 173.346 146.992 173.323 147.168 173.323C147.344 173.323 147.507 173.348 147.653 173.412C147.804 173.465 147.935 173.563 148.037 173.7C148.147 173.835 148.232 174.014 148.291 174.236C148.351 174.46 148.383 174.734 148.383 175.068C148.383 175.427 148.351 175.702 148.291 175.905H148.294ZM158.722 170.073V172.465C158.494 172.36 158.274 172.266 158.057 172.198C157.837 172.122 157.568 172.088 157.227 172.088C156.904 172.088 156.58 172.154 156.255 172.292C155.935 172.431 155.656 172.628 155.429 172.879C155.187 173.142 154.999 173.456 154.857 173.826C154.718 174.197 154.652 174.622 154.652 175.098C154.652 175.992 154.857 176.706 155.269 177.232C155.678 177.755 156.227 178.025 156.913 178.025C157.263 178.025 157.579 177.959 157.851 177.842C158.119 177.721 158.409 177.536 158.722 177.28V177.863H160.527V170.071H158.722V170.073ZM158.722 176.319C158.583 176.417 158.421 176.498 158.231 176.555C158.048 176.621 157.876 176.653 157.712 176.653C157.295 176.653 156.989 176.53 156.797 176.28C156.605 176.029 156.511 175.631 156.511 175.08C156.511 174.528 156.628 174.142 156.865 173.847C157.101 173.552 157.458 173.405 157.933 173.405C158.048 173.405 158.178 173.415 158.322 173.437C158.459 173.463 158.592 173.504 158.722 173.556V176.319ZM167.775 174.759C167.775 173.89 167.541 173.222 167.079 172.76C166.617 172.299 165.931 172.063 165.016 172.063C164.024 172.063 163.244 172.335 162.674 172.879C162.105 173.421 161.817 174.158 161.817 175.086C161.817 176.015 162.119 176.747 162.72 177.259C163.324 177.765 164.191 178.021 165.318 178.021C165.755 178.021 166.155 177.98 166.514 177.904C166.873 177.835 167.255 177.716 167.665 177.556V176.104H167.466C167.253 176.264 166.976 176.411 166.615 176.546C166.256 176.685 165.892 176.749 165.513 176.749C164.907 176.749 164.454 176.637 164.147 176.401C163.836 176.168 163.674 175.834 163.64 175.393H167.775V174.762V174.759ZM163.633 174.332C163.662 173.931 163.793 173.641 164.012 173.465C164.239 173.282 164.525 173.197 164.87 173.197C165.245 173.197 165.52 173.287 165.7 173.483C165.874 173.671 165.966 173.957 165.979 174.334H163.633V174.332ZM106.315 186.741C106.045 186.421 105.624 186.167 105.053 185.977C104.764 185.888 104.49 185.81 104.238 185.755C103.985 185.703 103.722 185.648 103.445 185.588C103.033 185.504 102.747 185.406 102.596 185.307C102.443 185.197 102.37 185.049 102.37 184.847C102.37 184.717 102.418 184.603 102.509 184.5C102.603 184.397 102.713 184.321 102.846 184.273C102.994 184.214 103.145 184.171 103.308 184.15C103.463 184.127 103.625 184.116 103.786 184.116C104.243 184.116 104.684 184.198 105.119 184.358C105.558 184.527 105.924 184.726 106.228 184.966H106.432V183.247C106.077 183.102 105.661 182.984 105.188 182.887C104.707 182.791 104.218 182.748 103.728 182.748C102.754 182.748 101.947 182.97 101.322 183.404C100.703 183.846 100.392 184.408 100.392 185.108C100.392 185.625 100.527 186.062 100.806 186.412C101.08 186.759 101.528 187.034 102.159 187.24C102.434 187.329 102.727 187.404 103.04 187.464C103.353 187.523 103.648 187.583 103.932 187.651C104.195 187.715 104.401 187.802 104.538 187.919C104.678 188.038 104.746 188.184 104.746 188.344C104.746 188.523 104.698 188.655 104.602 188.747C104.508 188.836 104.385 188.907 104.243 188.971C104.117 189.017 103.969 189.051 103.774 189.069C103.587 189.09 103.429 189.101 103.314 189.101C102.859 189.101 102.386 189.017 101.894 188.843C101.4 188.671 100.956 188.431 100.556 188.113H100.348V189.902C100.748 190.071 101.176 190.208 101.638 190.316C102.1 190.426 102.633 190.476 103.255 190.476C104.323 190.476 105.172 190.249 105.789 189.79C106.411 189.332 106.724 188.735 106.724 187.997C106.724 187.482 106.589 187.064 106.315 186.739V186.741ZM113.487 187.233C113.487 186.366 113.254 185.701 112.796 185.239C112.335 184.777 111.648 184.536 110.734 184.536C109.741 184.536 108.957 184.811 108.392 185.355C107.82 185.897 107.536 186.636 107.536 187.562C107.536 188.488 107.836 189.223 108.435 189.728C109.041 190.243 109.906 190.492 111.038 190.492C111.472 190.492 111.873 190.455 112.229 190.382C112.595 190.314 112.973 190.19 113.384 190.025V188.582H113.183C112.973 188.742 112.691 188.88 112.335 189.024C111.978 189.156 111.612 189.227 111.228 189.227C110.622 189.227 110.171 189.108 109.865 188.88C109.551 188.644 109.384 188.31 109.361 187.869H113.489V187.235L113.487 187.233ZM109.352 186.807C109.38 186.41 109.503 186.119 109.73 185.941C109.954 185.758 110.24 185.666 110.585 185.666C110.962 185.666 111.234 185.762 111.413 185.952C111.589 186.144 111.685 186.426 111.692 186.807H109.352ZM118.487 184.717L118.418 184.969C118.214 184.838 117.986 184.745 117.736 184.669C117.487 184.598 117.213 184.559 116.904 184.559C116.57 184.559 116.241 184.623 115.918 184.754C115.598 184.886 115.324 185.069 115.102 185.3C114.864 185.552 114.681 185.847 114.546 186.179C114.42 186.519 114.354 186.922 114.354 187.386C114.354 188.351 114.567 189.078 114.997 189.547C115.42 190.023 116.03 190.261 116.817 190.261C117.144 190.261 117.437 190.206 117.7 190.105C117.965 190.002 118.205 189.861 118.425 189.685V189.79C118.425 190.023 118.4 190.222 118.349 190.391C118.304 190.556 118.23 190.695 118.13 190.803C118.018 190.915 117.858 191.004 117.647 191.068C117.441 191.128 117.169 191.157 116.835 191.157C116.582 191.157 116.298 191.128 115.982 191.05C115.664 190.981 115.395 190.899 115.173 190.807H114.955V192.223C115.23 192.287 115.564 192.344 115.941 192.388C116.321 192.436 116.703 192.456 117.096 192.456C117.579 192.456 118.006 192.415 118.391 192.324C118.773 192.232 119.1 192.081 119.367 191.873C119.642 191.67 119.85 191.388 120.003 191.027C120.154 190.661 120.227 190.22 120.227 189.694V184.713H118.482L118.487 184.717ZM118.429 188.568C118.285 188.667 118.125 188.74 117.951 188.797C117.78 188.854 117.604 188.88 117.421 188.88C117.021 188.88 116.721 188.772 116.524 188.559C116.319 188.344 116.216 187.967 116.216 187.425C116.216 186.94 116.335 186.558 116.575 186.288C116.81 186.018 117.165 185.877 117.64 185.877C117.759 185.877 117.894 185.893 118.05 185.916C118.198 185.941 118.324 185.973 118.429 186.018V188.568ZM125.739 184.717V188.703C125.563 188.811 125.384 188.898 125.195 188.95C125.007 189.017 124.835 189.042 124.685 189.042C124.456 189.042 124.277 189.017 124.149 188.95C124.017 188.898 123.925 188.806 123.859 188.683C123.795 188.564 123.751 188.404 123.729 188.216C123.713 188.026 123.701 187.793 123.701 187.505V184.715H121.892V188.376C121.892 189.078 122.054 189.6 122.388 189.961C122.729 190.313 123.207 190.499 123.825 190.499C124.213 190.499 124.54 190.428 124.819 190.295C125.098 190.169 125.4 189.975 125.739 189.717V190.341H127.541V184.715H125.739V184.717ZM133.115 184.699C133.034 184.694 132.964 184.694 132.9 184.694C132.65 184.694 132.38 184.754 132.085 184.861C131.79 184.973 131.447 185.2 131.052 185.543V184.717H129.243V190.343H131.052V186.574C131.276 186.494 131.491 186.442 131.685 186.403C131.88 186.371 132.111 186.352 132.367 186.352C132.481 186.352 132.621 186.357 132.792 186.378C132.964 186.387 133.087 186.41 133.16 186.435H133.32V184.717C133.263 184.71 133.192 184.703 133.112 184.701L133.115 184.699ZM138.86 185.033C138.404 184.71 137.666 184.557 136.637 184.557C136.204 184.557 135.774 184.594 135.344 184.658C134.914 184.729 134.601 184.786 134.414 184.834V186.195H134.578C134.729 186.142 134.967 186.055 135.306 185.948C135.644 185.849 135.962 185.797 136.257 185.797C136.753 185.797 137.131 185.849 137.382 185.973C137.636 186.087 137.762 186.307 137.762 186.611V186.643C137.231 186.675 136.717 186.721 136.225 186.782C135.733 186.851 135.317 186.954 134.983 187.105C134.645 187.258 134.386 187.464 134.199 187.722C134.016 187.983 133.924 188.315 133.924 188.729C133.924 189.239 134.103 189.664 134.462 190C134.823 190.327 135.273 190.492 135.806 190.492C136.037 190.492 136.243 190.476 136.435 190.435C136.625 190.398 136.808 190.336 136.98 190.259C137.11 190.201 137.245 190.119 137.391 190.014C137.531 189.909 137.654 189.822 137.748 189.749V190.346H139.541V186.517C139.541 185.84 139.312 185.346 138.857 185.033H138.86ZM137.75 188.875C137.613 188.994 137.455 189.088 137.266 189.168C137.078 189.239 136.893 189.277 136.719 189.277C136.492 189.277 136.326 189.261 136.218 189.223C136.108 189.197 136.017 189.143 135.944 189.078C135.866 189.014 135.811 188.946 135.793 188.868C135.774 188.795 135.763 188.701 135.763 188.582C135.763 188.404 135.809 188.264 135.905 188.15C135.996 188.042 136.138 187.958 136.316 187.905C136.463 187.855 136.678 187.816 136.964 187.782C137.249 187.745 137.512 187.72 137.75 187.693V188.873V188.875ZM146.343 185.094C145.997 184.735 145.524 184.559 144.916 184.559C144.557 184.559 144.225 184.63 143.93 184.758C143.635 184.891 143.328 185.085 143.011 185.339V184.717H141.206V190.343H143.011V186.352C143.205 186.236 143.386 186.149 143.557 186.098C143.726 186.041 143.893 186.016 144.051 186.016C144.284 186.016 144.463 186.041 144.591 186.101C144.721 186.16 144.817 186.247 144.884 186.375C144.943 186.48 144.982 186.641 145.009 186.869C145.032 187.093 145.037 187.327 145.037 187.553V190.343H146.857V186.682C146.857 185.97 146.686 185.444 146.343 185.092V185.094ZM151.468 185.849C151.683 185.849 151.875 185.872 152.042 185.927C152.202 185.97 152.349 186.034 152.488 186.103C152.634 186.181 152.751 186.261 152.854 186.339C152.952 186.421 153.035 186.49 153.106 186.549H153.359V185.012C153.078 184.882 152.778 184.772 152.454 184.685C152.127 184.607 151.772 184.562 151.39 184.562C150.967 184.562 150.551 184.616 150.153 184.731C149.757 184.836 149.407 185.014 149.103 185.245C148.785 185.502 148.541 185.815 148.367 186.197C148.188 186.576 148.104 187.027 148.104 187.558C148.104 188.04 148.182 188.47 148.337 188.829C148.495 189.188 148.712 189.488 148.993 189.73C149.279 189.975 149.618 190.156 150.016 190.279C150.405 190.403 150.832 190.467 151.301 190.478V190.714C151.301 190.984 151.232 191.183 151.093 191.318C150.949 191.452 150.745 191.516 150.475 191.516C150.336 191.516 150.192 191.5 150.041 191.457C149.883 191.42 149.766 191.379 149.686 191.338H149.574V192.342C149.716 192.388 149.906 192.42 150.135 192.44C150.352 192.456 150.523 192.461 150.638 192.461C151.171 192.461 151.603 192.317 151.937 192.026C152.271 191.738 152.44 191.318 152.44 190.775C152.44 190.716 152.433 190.647 152.433 190.572C152.429 190.494 152.422 190.432 152.422 190.378C152.6 190.341 152.772 190.293 152.934 190.227C153.094 190.165 153.24 190.11 153.359 190.062V188.525H153.106C153.032 188.594 152.955 188.665 152.865 188.74C152.778 188.809 152.678 188.882 152.563 188.95C152.445 189.019 152.298 189.078 152.111 189.133C151.928 189.184 151.726 189.204 151.5 189.204C151.008 189.204 150.633 189.065 150.368 188.786C150.1 188.504 149.968 188.097 149.968 187.555C149.968 187.013 150.096 186.613 150.359 186.307C150.613 186 150.981 185.849 151.466 185.849H151.468ZM159.068 185.033C158.61 184.71 157.867 184.557 156.84 184.557C156.408 184.557 155.98 184.594 155.548 184.658C155.12 184.729 154.807 184.786 154.622 184.834V186.195H154.784C154.935 186.142 155.175 186.055 155.509 185.948C155.848 185.849 156.168 185.797 156.465 185.797C156.955 185.797 157.332 185.849 157.581 185.973C157.84 186.087 157.963 186.307 157.963 186.611V186.643C157.439 186.675 156.923 186.721 156.429 186.782C155.935 186.851 155.521 186.954 155.184 187.105C154.848 187.258 154.588 187.464 154.4 187.722C154.219 187.983 154.128 188.315 154.128 188.729C154.128 189.239 154.306 189.664 154.663 190C155.024 190.327 155.47 190.492 156.012 190.492C156.236 190.492 156.449 190.476 156.639 190.435C156.827 190.398 157.009 190.336 157.188 190.259C157.314 190.201 157.446 190.119 157.59 190.014C157.737 189.909 157.856 189.822 157.954 189.749V190.346H159.745V186.517C159.745 185.84 159.516 185.346 159.063 185.033H159.068ZM157.961 188.875C157.819 188.994 157.659 189.088 157.471 189.168C157.289 189.239 157.103 189.277 156.925 189.277C156.698 189.277 156.527 189.261 156.422 189.223C156.314 189.197 156.223 189.143 156.147 189.078C156.065 189.014 156.017 188.946 155.996 188.868C155.973 188.795 155.962 188.701 155.962 188.582C155.962 188.404 156.008 188.264 156.108 188.152C156.202 188.042 156.339 187.958 156.52 187.905C156.666 187.855 156.881 187.816 157.163 187.782C157.449 187.745 157.714 187.72 157.956 187.693V188.873L157.961 188.875ZM170.94 184.129C170.777 183.825 170.551 183.571 170.249 183.372C169.995 183.212 169.707 183.086 169.387 183.002C169.055 182.922 168.66 182.883 168.182 182.883H165.016V190.346H166.94V187.914H168.141C168.685 187.914 169.14 187.841 169.506 187.69C169.874 187.539 170.208 187.313 170.498 187.022C170.718 186.807 170.88 186.54 171.002 186.217C171.116 185.9 171.175 185.57 171.175 185.239C171.175 184.806 171.098 184.436 170.94 184.129ZM169.103 185.822C169.046 185.973 168.959 186.098 168.838 186.206C168.687 186.325 168.516 186.41 168.303 186.451C168.09 186.487 167.823 186.508 167.493 186.508H166.94V184.271H167.269C167.587 184.271 167.843 184.276 168.033 184.283C168.225 184.294 168.417 184.335 168.618 184.42C168.769 184.477 168.902 184.58 169.019 184.733C169.129 184.884 169.19 185.067 169.19 185.277C169.19 185.488 169.158 185.675 169.103 185.819V185.822ZM176.246 184.717V188.703C176.067 188.811 175.887 188.898 175.701 188.95C175.514 189.017 175.342 189.04 175.187 189.04C174.958 189.04 174.78 189.014 174.652 188.95C174.521 188.898 174.423 188.806 174.364 188.683C174.293 188.564 174.249 188.404 174.233 188.216C174.217 188.026 174.206 187.793 174.206 187.505V184.715H172.394V188.376C172.394 189.078 172.561 189.6 172.893 189.961C173.229 190.313 173.707 190.499 174.329 190.499C174.718 190.499 175.045 190.428 175.322 190.295C175.601 190.169 175.903 189.975 176.241 189.717V190.341H178.041V184.715H176.241L176.246 184.717ZM175.105 181.941L173.865 183.914H175.095L176.859 182.044V181.941H175.102H175.105ZM185.046 185.328C184.664 184.818 184.115 184.559 183.404 184.559C183.025 184.559 182.693 184.63 182.4 184.763C182.114 184.902 181.833 185.081 181.554 185.3V182.542H179.752V190.343H181.481L181.554 190.064C181.767 190.185 181.991 190.288 182.229 190.352C182.471 190.419 182.743 190.455 183.059 190.455C183.791 190.455 184.397 190.174 184.891 189.616C185.378 189.06 185.625 188.338 185.625 187.45C185.625 186.563 185.43 185.845 185.046 185.325V185.328ZM183.416 188.747C183.18 189.026 182.823 189.172 182.348 189.172C182.183 189.172 182.041 189.159 181.927 189.145C181.81 189.131 181.682 189.097 181.554 189.053V186.227C181.716 186.126 181.89 186.055 182.073 186.002C182.247 185.948 182.428 185.927 182.597 185.927C183.034 185.927 183.338 186.062 183.505 186.327C183.676 186.602 183.763 186.988 183.763 187.491C183.763 188.047 183.644 188.468 183.413 188.747H183.416ZM186.926 182.542V190.343H188.728V182.542H186.926ZM190.432 184.717V190.343H192.234V184.717H190.432ZM190.387 182.542V183.914H192.285V182.542H190.387ZM196.891 185.849C197.113 185.849 197.3 185.874 197.465 185.927C197.625 185.97 197.778 186.034 197.918 186.101C198.057 186.179 198.181 186.261 198.284 186.339C198.375 186.421 198.464 186.49 198.531 186.549H198.785V185.012C198.508 184.882 198.204 184.772 197.883 184.685C197.554 184.607 197.202 184.562 196.818 184.562C196.39 184.562 195.971 184.616 195.576 184.731C195.18 184.836 194.828 185.014 194.526 185.245C194.208 185.502 193.966 185.815 193.79 186.199C193.614 186.579 193.531 187.027 193.531 187.558C193.531 188.052 193.614 188.486 193.776 188.857C193.936 189.227 194.167 189.538 194.464 189.783C194.764 190.025 195.121 190.204 195.528 190.318C195.933 190.437 196.383 190.494 196.873 190.494C197.248 190.494 197.588 190.458 197.895 190.375C198.204 190.297 198.503 190.192 198.785 190.06V188.523H198.531C198.46 188.591 198.377 188.662 198.295 188.738C198.206 188.806 198.105 188.88 197.993 188.948C197.872 189.017 197.723 189.076 197.54 189.131C197.355 189.181 197.149 189.202 196.921 189.202C196.438 189.202 196.058 189.062 195.793 188.783C195.528 188.502 195.397 188.095 195.397 187.553C195.397 187.011 195.523 186.611 195.782 186.304C196.04 185.998 196.411 185.847 196.889 185.847L196.891 185.849ZM204.493 185.033C204.04 184.708 203.299 184.555 202.27 184.555C201.842 184.555 201.412 184.591 200.98 184.655C200.55 184.726 200.241 184.783 200.052 184.831V186.195H200.216C200.363 186.137 200.605 186.053 200.941 185.945C201.282 185.847 201.6 185.794 201.893 185.794C202.387 185.794 202.764 185.847 203.016 185.97C203.269 186.085 203.4 186.304 203.4 186.609V186.641C202.867 186.673 202.357 186.718 201.861 186.78C201.364 186.849 200.95 186.952 200.616 187.105C200.283 187.256 200.017 187.462 199.834 187.722C199.649 187.983 199.56 188.315 199.56 188.729C199.56 189.239 199.736 189.664 200.1 190C200.459 190.327 200.905 190.492 201.444 190.492C201.666 190.492 201.877 190.476 202.066 190.435C202.259 190.398 202.441 190.341 202.622 190.259C202.75 190.201 202.883 190.119 203.029 190.014C203.169 189.909 203.292 189.822 203.391 189.749V190.346H205.177V186.517C205.177 185.84 204.953 185.346 204.491 185.035L204.493 185.033ZM203.393 188.875C203.251 188.994 203.086 189.088 202.899 189.168C202.711 189.239 202.531 189.277 202.352 189.277C202.128 189.277 201.957 189.261 201.851 189.223C201.746 189.197 201.652 189.143 201.57 189.078C201.499 189.014 201.447 188.946 201.426 188.868C201.403 188.795 201.394 188.701 201.394 188.582C201.394 188.404 201.44 188.264 201.538 188.152C201.632 188.042 201.769 187.958 201.947 187.905C202.098 187.855 202.316 187.816 202.597 187.782C202.878 187.745 203.146 187.72 203.393 187.693V188.873V188.875Z" fill="#0066A5"/>
<path d="M54.5663 173.925V170.43H43.0122V173.925H46.2438V186.661H43.0122V190.156H54.5663V186.661H51.3302V173.925H54.5663ZM73.4207 180.637C72.7048 179.789 71.5864 179.116 70.0793 178.615C69.3063 178.375 68.5927 178.174 67.9226 178.03C67.2571 177.895 66.5618 177.749 65.8391 177.593C64.7322 177.369 63.9843 177.115 63.5864 176.832C63.1907 176.557 62.9895 176.152 62.9895 175.631C62.9895 175.292 63.1084 174.981 63.3577 174.712C63.6093 174.442 63.8974 174.245 64.2451 174.11C64.6339 173.948 65.0432 173.84 65.4572 173.783C65.878 173.728 66.2988 173.694 66.7265 173.694C67.9249 173.694 69.1027 173.916 70.2554 174.341C71.4058 174.773 72.38 175.302 73.1759 175.937H73.7203V171.395C72.7917 171.016 71.6917 170.693 70.4269 170.444C69.1622 170.192 67.8769 170.073 66.5778 170.073C63.9912 170.073 61.8711 170.65 60.2267 171.814C58.5801 172.973 57.7567 174.469 57.7567 176.308C57.7567 177.676 58.1158 178.821 58.8454 179.748C59.5772 180.667 60.7711 181.397 62.4314 181.939C63.1587 182.176 63.9317 182.375 64.7574 182.531C65.583 182.682 66.3674 182.849 67.1084 183.025C67.8128 183.192 68.3526 183.434 68.7208 183.748C69.0867 184.063 69.2697 184.434 69.2697 184.864C69.2697 185.337 69.1462 185.692 68.8877 185.923C68.6362 186.165 68.3228 186.364 67.9318 186.519C67.607 186.648 67.2068 186.734 66.6968 186.787C66.1959 186.842 65.7888 186.865 65.4801 186.865C64.2794 186.865 63.0284 186.641 61.7247 186.192C60.4211 185.74 59.2479 185.102 58.1913 184.258H57.6332V188.987C58.699 189.429 59.8311 189.792 61.0501 190.083C62.2622 190.369 63.687 190.508 65.3245 190.508C68.1513 190.508 70.3858 189.907 72.0301 188.69C73.6814 187.475 74.507 185.895 74.507 183.953C74.507 182.588 74.1411 181.483 73.4229 180.635L73.4207 180.637ZM93.6403 173.724C93.2218 172.912 92.6135 172.244 91.8176 171.729C91.1612 171.295 90.3928 170.965 89.5328 170.75C88.6706 170.538 87.6163 170.43 86.3607 170.43H77.9879V190.154H83.0788V183.729H86.2418C87.6803 183.729 88.881 183.526 89.8507 183.13C90.8181 182.73 91.6941 182.147 92.4831 181.371C93.0594 180.795 93.4963 180.088 93.8073 179.242C94.1161 178.398 94.2693 177.536 94.2693 176.658C94.2693 175.519 94.0612 174.538 93.6403 173.724ZM88.7941 178.213C88.6477 178.604 88.4122 178.945 88.0828 179.224C87.7032 179.542 87.2344 179.754 86.674 179.862C86.1091 179.972 85.3956 180.02 84.5334 180.02H83.0788V174.115H83.9479C84.7918 174.115 85.4596 174.131 85.9628 174.147C86.4659 174.169 86.9851 174.286 87.5111 174.494C87.909 174.654 88.2589 174.936 88.5631 175.34C88.8581 175.743 89.0091 176.221 89.0091 176.774C89.0091 177.328 88.9382 177.824 88.7918 178.215L88.7941 178.213Z" fill="#0066A5"/>
<path d="M188.383 134.926C188.383 135.841 188.369 136.756 188.369 137.67C188.337 139.765 188.475 141.892 188.23 143.976C188.257 143.747 187.745 143.132 187.622 142.931C187.375 142.53 187.114 142.139 186.842 141.755C186.318 141.016 185.748 140.307 185.138 139.635C183.894 138.263 182.448 137.11 181.055 135.893C179.205 134.277 177.254 132.74 175.07 131.594C172.651 130.329 169.95 129.787 167.262 130.414C166.928 127.66 166.087 120.513 164.733 118.363C162.938 115.511 160.481 113.27 157.369 111.633C154.256 109.997 150.69 109.176 146.679 109.176C143.722 109.176 141.293 109.547 139.392 110.285C137.492 111.024 135.882 111.87 134.562 112.82C133.24 113.769 132.081 114.617 131.077 115.351C130.073 116.095 128.941 116.46 127.674 116.46H113.103C112.152 116.46 111.333 116.12 110.647 115.431C110.381 115.166 110.169 114.88 110.006 114.574C110.37 114.196 110.727 113.821 111.074 113.446C114.809 109.432 117.714 105.188 119.701 100.822C121.725 96.3826 122.75 91.4655 122.75 86.2099C122.75 79.5203 121.185 73.3956 118.102 68.0119C117.126 66.3081 115.992 64.7117 114.711 63.2229L115.164 58.8134C115.267 57.4435 115.742 56.3869 116.588 55.6459C117.432 54.9072 118.434 54.539 119.596 54.539H179.148C180.202 54.539 181.099 54.9072 181.84 55.6459C182.576 56.3869 182.947 57.2834 182.947 58.3377V68.9496C182.947 70.0039 182.576 70.9027 181.84 71.6414C181.099 72.3824 180.202 72.7506 179.148 72.7506H133.378L130.841 98.5644C132.744 97.2974 135.278 96.0876 138.443 94.9235C141.611 93.7617 145.991 93.1807 151.589 93.1807C156.655 93.1807 161.485 93.9995 166.08 95.637C170.672 97.2745 174.764 99.6531 178.354 102.766C181.943 105.878 184.77 109.627 186.828 114.009C186.869 114.098 186.906 114.187 186.942 114.279C187.592 115.905 187.743 117.764 187.907 119.491C188.148 122.007 188.246 124.534 188.308 127.059C188.372 129.68 188.385 132.301 188.381 134.924L188.383 134.926Z" fill="#0066A5"/>
<path d="M68.7758 158.819C68.9679 159.045 69.192 159.212 69.4505 159.32C69.7089 159.427 69.9788 159.482 70.2646 159.482C70.5505 159.482 70.8204 159.427 71.0788 159.317C71.3373 159.207 71.5614 159.038 71.7535 158.807C71.9685 158.547 72.1286 158.238 72.2315 157.881C72.3344 157.524 72.387 157.108 72.387 156.625C72.387 156.111 72.3276 155.672 72.2086 155.31C72.0897 154.949 71.9342 154.656 71.7421 154.434C71.5454 154.203 71.319 154.037 71.0651 153.934C70.809 153.831 70.5437 153.778 70.2669 153.778C69.9902 153.778 69.7226 153.828 69.4733 153.929C69.2263 154.03 68.9976 154.194 68.7895 154.425C68.5974 154.64 68.4396 154.938 68.3184 155.317C68.1972 155.697 68.1377 156.136 68.1377 156.635C68.1377 157.133 68.1972 157.581 68.3138 157.94C68.4304 158.3 68.586 158.592 68.7781 158.821L68.7758 158.819Z" fill="#0066A5"/>
<path d="M48.3848 157.613H50.498L49.4414 154.537L48.3848 157.613Z" fill="#0066A5"/>
<path d="M98.3335 119.404C101.933 116.385 105.135 113.373 107.857 110.455C108.664 109.588 109.428 108.707 110.148 107.82C112.47 104.959 114.331 102.004 115.701 99.0035C117.462 95.1407 118.356 90.8365 118.356 86.2144C118.356 80.3001 116.989 74.9119 114.29 70.2006C114.21 70.0611 114.125 69.9261 114.041 69.7866C111.365 65.3155 107.388 61.6928 102.205 59.0284C96.7875 56.2497 89.7983 54.8386 81.4323 54.8386C75.518 54.8386 70.148 55.7968 65.4688 57.6882C60.7895 59.5796 56.7917 62.1159 53.5876 65.2263C50.3835 68.3321 47.9135 71.9227 46.2439 75.9022C44.563 79.9045 43.6619 84.0829 43.5635 88.3254C43.5635 88.4946 43.6161 88.6821 43.87 88.936C44.0301 89.0961 44.2382 89.2425 44.691 89.2425H58.786C59.3624 89.2425 59.9456 89.0755 60.5654 88.7279C60.7003 88.6524 61.0502 88.458 61.2057 87.4609C61.7775 84.1309 62.8478 81.0709 64.3916 78.3241C65.9971 75.4699 68.2567 73.1486 71.1086 71.4219C73.9834 69.6883 77.51 68.8101 81.5901 68.8101C87.8177 68.8101 92.5061 70.5551 95.5181 73.9948C98.4547 77.3544 99.9436 81.7295 99.9436 87.0057C99.9436 90.5644 98.8504 94.1733 96.696 97.7274C94.6353 101.121 91.3557 104.858 86.9418 108.833C84.2591 111.248 81.3682 113.565 78.5735 115.804C77.4986 116.664 76.426 117.524 75.3671 118.388C71.7055 121.368 68.3573 124.563 64.4556 128.44L44.9678 147.788C43.6207 148.884 42.7333 149.947 42.404 150.867C42.0175 151.942 41.8208 152.838 41.8208 153.529V161.604C41.8208 162.078 41.9603 162.419 42.2828 162.741C42.6098 163.068 42.9506 163.208 43.4217 163.208H84.5587L110.953 150.226L66.9416 150.551L91.5341 125.638C93.5444 123.598 95.7674 121.561 98.3335 119.408V119.404ZM51.6299 160.925L51.0307 159.189H47.8517L47.2525 160.925H45.0204L48.1925 152.335H50.7425L53.9147 160.925H51.6276H51.6299ZM63.5522 160.925H61.4184L57.7729 155.029V160.925H55.742V152.335H58.3904L61.5236 157.254V152.335H63.5545V160.925H63.5522ZM76.5014 158.357H76.7439C77.2013 158.723 77.7136 159.004 78.2807 159.198C78.8479 159.395 79.3922 159.493 79.916 159.493C80.0509 159.493 80.227 159.482 80.4466 159.459C80.6661 159.436 80.8445 159.397 80.984 159.345C81.1533 159.276 81.2928 159.189 81.4025 159.086C81.5123 158.983 81.5672 158.828 81.5672 158.624C81.5672 158.437 81.4872 158.274 81.3271 158.137C81.167 158 80.9337 157.897 80.6272 157.824C80.3048 157.746 79.964 157.675 79.6027 157.607C79.2436 157.54 78.9051 157.453 78.5895 157.35C77.8668 157.115 77.3453 156.797 77.0297 156.397C76.7118 155.994 76.554 155.496 76.554 154.899C76.554 154.098 76.9131 153.446 77.6289 152.941C78.3471 152.436 79.2687 152.182 80.394 152.182C80.9589 152.182 81.5169 152.237 82.0704 152.346C82.6215 152.456 83.0995 152.593 83.5043 152.758V154.736H83.2688C82.9234 154.46 82.498 154.229 81.9972 154.041C81.4963 153.854 80.9817 153.762 80.4603 153.762C80.275 153.762 80.0921 153.773 79.9091 153.799C79.7261 153.824 79.55 153.872 79.3808 153.94C79.2299 153.998 79.1018 154.085 78.9943 154.203C78.8868 154.32 78.8319 154.455 78.8319 154.604C78.8319 154.83 78.9188 155.004 79.0904 155.125C79.2619 155.246 79.5912 155.356 80.0715 155.457C80.3871 155.523 80.689 155.585 80.9794 155.647C81.2699 155.708 81.5832 155.793 81.9171 155.9C82.5758 156.115 83.0606 156.408 83.374 156.781C83.6873 157.151 83.8451 157.634 83.8451 158.226C83.8451 159.073 83.486 159.759 82.7702 160.289C82.0521 160.818 81.0801 161.083 79.8474 161.083C79.1361 161.083 78.5163 161.021 77.988 160.895C77.4597 160.77 76.9634 160.612 76.5037 160.42V158.361L76.5014 158.357ZM67.0102 153.36C67.7947 152.557 68.8765 152.157 70.2578 152.157C71.6392 152.157 72.7164 152.557 73.5054 153.36C74.2944 154.162 74.6878 155.253 74.6878 156.632C74.6878 158.011 74.2967 159.089 73.51 159.894C72.7232 160.699 71.6415 161.101 70.2555 161.101C68.8696 161.101 67.7924 160.699 67.0079 159.894C66.2235 159.089 65.8301 158 65.8301 156.632C65.8301 155.265 66.2235 154.16 67.0079 153.36H67.0102Z" fill="#0066A5"/>
<path d="M148.927 130.071C139.987 126.775 132.824 122.924 132.753 122.885L133.437 121.622C133.508 121.661 140.584 125.467 149.424 128.724L148.927 130.071Z" fill="#BC9D32"/>
<path d="M135.855 123.312C135.164 122.048 134.263 120.522 132.827 120.429C131.098 120.314 129.236 123.027 128.479 124.323C123.694 132.525 118.889 140.776 115.116 149.467C122.75 146.149 133.773 142.048 143.169 141.243C140.63 134.011 137.931 127.116 135.855 123.315V123.312Z" fill="#8E8E8E"/>
<path d="M112.06 157.325C111.306 159.537 110.629 161.792 109.556 163.869L150.199 163.67C148.998 159.004 146.46 150.732 143.66 142.654C133.872 143.429 121.947 148.035 114.283 151.432C113.483 153.373 112.737 155.336 112.058 157.325H112.06Z" fill="#8E8E8E"/>
<path d="M168.226 134.784C162.821 134.386 156.329 132.799 148.928 130.071L149.424 128.724C156.699 131.404 163.059 132.961 168.331 133.35L168.223 134.784H168.226Z" fill="#BC9D32"/>
<path d="M87.8911 164.324L106.135 155.107C106.135 155.107 132.491 141.172 148.633 142.498C148.633 142.498 161.602 133.188 169.209 132.483C176.816 131.781 185.138 142.482 185.138 142.482L204.118 163.981L87.8911 164.321V164.324Z" fill="#8E8E8E"/>
</svg>
